<svg xmlns="http://www.w3.org/2000/svg" xmlns:xlink="http://www.w3.org/1999/xlink" viewBox="0 0 64 64"><defs><style>.cls-1{isolation:isolate;}.cls-2{fill:url(#linear-gradient);}.cls-3{fill:url(#linear-gradient-2);}.cls-4{fill:url(#linear-gradient-3);}.cls-5{fill:url(#linear-gradient-4);}.cls-6{fill:url(#linear-gradient-5);}.cls-7{fill:url(#linear-gradient-6);}.cls-8{fill:url(#linear-gradient-7);}.cls-9{fill:url(#linear-gradient-8);}.cls-10{fill:url(#linear-gradient-9);}.cls-11{fill:url(#linear-gradient-10);}.cls-12{fill:url(#linear-gradient-11);}.cls-13{fill:url(#linear-gradient-12);}.cls-14{fill:url(#linear-gradient-13);}.cls-15{fill:url(#linear-gradient-14);}.cls-16{fill:#fff;}.cls-17{fill:url(#linear-gradient-15);}.cls-18{fill:url(#linear-gradient-16);}.cls-19{fill:url(#linear-gradient-17);}.cls-20{fill:url(#linear-gradient-18);}.cls-21{fill:url(#linear-gradient-19);}.cls-22{fill:url(#linear-gradient-20);}.cls-23{fill:#f9a141;}.cls-24{stroke:#000;stroke-miterlimit:10;opacity:0.49;mix-blend-mode:color-burn;fill:url(#linear-gradient-21);}.cls-25{fill:#38826d;}.cls-26{fill:#80a096;}.cls-27{fill:#f9aa8f;}.cls-28{fill:url(#linear-gradient-22);}.cls-29{fill:#304fa5;}.cls-30{fill:url(#linear-gradient-23);}.cls-31{fill:url(#linear-gradient-24);}.cls-32{fill:#4c68b0;}.cls-33{fill:url(#linear-gradient-25);}.cls-34{fill:#dfecf4;}.cls-35{fill:#8e241c;}.cls-36{fill:url(#linear-gradient-26);}</style><linearGradient id="linear-gradient" x1="32" y1="97.25" x2="32" y2="9.14" gradientUnits="userSpaceOnUse"><stop offset="0" stop-color="#caf1d8"/><stop offset="0.51" stop-color="#7defa4"/><stop offset="1" stop-color="#2fbca4"/></linearGradient><linearGradient id="linear-gradient-2" x1="29.3" y1="66.08" x2="29.3" y2="-25.09" xlink:href="#linear-gradient"/><linearGradient id="linear-gradient-3" x1="45.97" y1="68.23" x2="45.97" y2="11.68" xlink:href="#linear-gradient"/><linearGradient id="linear-gradient-4" x1="26.19" y1="72.5" x2="26.19" y2="7.32" xlink:href="#linear-gradient"/><linearGradient id="linear-gradient-5" x1="21.34" y1="66.82" x2="21.34" y2="46.3" xlink:href="#linear-gradient"/><linearGradient id="linear-gradient-6" x1="36.23" y1="66.61" x2="36.23" y2="46.5" xlink:href="#linear-gradient"/><linearGradient id="linear-gradient-7" x1="47.87" y1="57.29" x2="47.87" y2="52.63" xlink:href="#linear-gradient"/><linearGradient id="linear-gradient-8" x1="19.18" y1="19.34" x2="19.18" y2="-5.99" xlink:href="#linear-gradient"/><linearGradient id="linear-gradient-9" x1="13.78" y1="24.35" x2="13.78" y2="-8.58" xlink:href="#linear-gradient"/><linearGradient id="linear-gradient-10" x1="1923.51" y1="29.88" x2="1923.51" y2="-31.66" gradientTransform="translate(-1880.22)" xlink:href="#linear-gradient"/><linearGradient id="linear-gradient-11" x1="1918.75" y1="29.88" x2="1918.75" y2="-31.66" gradientTransform="translate(-1880.22)" xlink:href="#linear-gradient"/><linearGradient id="linear-gradient-12" x1="1907.1" y1="29.88" x2="1907.1" y2="-31.66" gradientTransform="translate(-1880.22)" xlink:href="#linear-gradient"/><linearGradient id="linear-gradient-13" x1="1925.79" y1="21.94" x2="1925.79" y2="-39.6" gradientTransform="translate(-1880.22)" xlink:href="#linear-gradient"/><linearGradient id="linear-gradient-14" x1="1917.85" y1="29.88" x2="1917.85" y2="-31.66" gradientTransform="translate(-1880.22)" xlink:href="#linear-gradient"/><linearGradient id="linear-gradient-15" x1="41.16" y1="65.74" x2="51.98" y2="-25.73" xlink:href="#linear-gradient"/><linearGradient id="linear-gradient-16" x1="55.01" y1="63.85" x2="40.84" y2="26.52" xlink:href="#linear-gradient"/><linearGradient id="linear-gradient-17" x1="68.23" y1="42.78" x2="55.05" y2="23.58" gradientUnits="userSpaceOnUse"><stop offset="0" stop-color="#fff"/><stop offset="0.84" stop-color="#cddfec"/></linearGradient><linearGradient id="linear-gradient-18" x1="49.94" y1="62.22" x2="49.94" y2="32.31" xlink:href="#linear-gradient"/><linearGradient id="linear-gradient-19" x1="47" y1="36.6" x2="41.15" y2="32.01" xlink:href="#linear-gradient"/><linearGradient id="linear-gradient-20" x1="45.75" y1="25.24" x2="48.25" y2="-5.93" gradientTransform="translate(40.21 -30.11) rotate(60)" xlink:href="#linear-gradient"/><linearGradient id="linear-gradient-21" x1="3341.58" y1="-3255.65" x2="3346.33" y2="-3263.28" gradientTransform="translate(4535.13 -1216.26) rotate(-151.3)" gradientUnits="userSpaceOnUse"><stop offset="0" stop-color="#fff" stop-opacity="0"/><stop offset="0.8"/></linearGradient><linearGradient id="linear-gradient-22" x1="19.57" y1="18.57" x2="12.64" y2="8.73" gradientUnits="userSpaceOnUse"><stop offset="0" stop-color="#f78e6b"/><stop offset="1" stop-color="#f9aa8f"/></linearGradient><linearGradient id="linear-gradient-23" x1="4.32" y1="72.92" x2="11.07" y2="61.67" gradientUnits="userSpaceOnUse"><stop offset="0" stop-color="#f9a141"/><stop offset="0.22" stop-color="#f99b3a"/><stop offset="0.55" stop-color="#f78926"/><stop offset="0.94" stop-color="#f56d05"/><stop offset="1" stop-color="#f56800"/></linearGradient><linearGradient id="linear-gradient-24" x1="21.87" y1="74.91" x2="23.12" y2="34.28" xlink:href="#linear-gradient-23"/><linearGradient id="linear-gradient-25" x1="4.77" y1="41.88" x2="47.84" y2="3.13" gradientUnits="userSpaceOnUse"><stop offset="0" stop-color="#4c68b0"/><stop offset="0.59" stop-color="#3b50a6"/><stop offset="1" stop-color="#3345a2"/></linearGradient><linearGradient id="linear-gradient-26" x1="-2.26" y1="21.25" x2="25.96" y2="1.01" gradientUnits="userSpaceOnUse"><stop offset="0" stop-color="#8e241c"/><stop offset="1" stop-color="#721a14"/></linearGradient></defs><title>art</title><g class="cls-1"><g id="Layer_1" data-name="Layer 1"><circle class="cls-2" cx="32" cy="32" r="28"/><path class="cls-3" d="M40.08,35.07a1.89,1.89,0,0,0-2.56,0l-4.61,4.25a1.62,1.62,0,0,1-2.17,0L12.56,23.17a2.59,2.59,0,0,0-3.63.18l-4.7,5.12a28,28,0,0,0,50.38,20Z"/><path class="cls-4" d="M54.61,48.51,40.08,35.07h0a.8.8,0,0,0-1.33.6v.22a5.2,5.2,0,0,0,1.36,3.51,3.65,3.65,0,0,1,.08,4.84l-2.85,3.33,6.5,9.83A28.1,28.1,0,0,0,54.61,48.51Z"/><path class="cls-5" d="M32,60a27.86,27.86,0,0,0,16.05-5.06l-17.8-16L12.56,23.17h0a1.08,1.08,0,0,0-1.79.82,10.89,10.89,0,0,1-2.12,6.45L4.33,36.29A27.8,27.8,0,0,0,6.7,44c.14.18.3.34.43.52l5.69,7.86A27.89,27.89,0,0,0,32,60Z"/><path class="cls-6" d="M28.1,57.17a.26.26,0,0,0,.08-.34l-.69-1.24a.19.19,0,0,0,.08-.26l-.53-.95h0a.13.13,0,0,0,.09-.19l-1-1.85a.06.06,0,0,0-.11,0l-1,1.85a.13.13,0,0,0,.09.19h0l-.53.95a.19.19,0,0,0,.08.26l-.37.66-.32-.57a.32.32,0,0,0,.14-.44l-.91-1.63h0a.23.23,0,0,0,.15-.33l-1.77-3.19a.11.11,0,0,0-.19,0l-1.77,3.19a.23.23,0,0,0,.15.33h0l-.33.59-.57-1a.32.32,0,0,0,.14-.44L18,51.09h0a.23.23,0,0,0,.15-.33l-1.77-3.19a.11.11,0,0,0-.19,0l-1.77,3.19a.23.23,0,0,0,.15.33h0l-.91,1.63a.32.32,0,0,0,.14.44l-.05.09a27.89,27.89,0,0,0,13.05,6.26,11.9,11.9,0,0,0,1.91-.26.36.36,0,0,0,.23-.52Z"/><path class="cls-7" d="M46.18,56l-.91-1.63h0a.23.23,0,0,0,.15-.33L43.65,50.8a.11.11,0,0,0-.19,0L41.68,54a.23.23,0,0,0,.15.33h0l-.33.59-.57-1a.32.32,0,0,0,.14-.44l-.91-1.63h0a.23.23,0,0,0,.15-.33l-1.77-3.19a.11.11,0,0,0-.19,0l-1.77,3.19a.23.23,0,0,0,.15.33h0l-.91,1.63a.32.32,0,0,0,.14.44l-1,1.83-.48-.86h0a.23.23,0,0,0,.15-.33l-1.77-3.19a.11.11,0,0,0-.19,0l-1.77,3.19a.23.23,0,0,0,.15.33h0l-.69,1.24L30,55.45h0a.13.13,0,0,0,.09-.19L29,53.4a.06.06,0,0,0-.11,0l-1,1.85a.13.13,0,0,0,.09.19h0l-.53.95a.19.19,0,0,0,.08.26l-.69,1.24a.26.26,0,0,0,.08.34l-.65,1.18a28,28,0,0,0,20-3.29A.31.31,0,0,0,46.18,56Z"/><path class="cls-8" d="M48.12,53.06l-1,1.85a.13.13,0,0,0,.09.19h0l-.36.65q1.09-.68,2.1-1.45l-.69-1.24A.06.06,0,0,0,48.12,53.06Z"/><path class="cls-9" d="M24,13.46a33.08,33.08,0,0,1-8.38-4.13q-.6.43-1.17.9C20,12.34,24,13.46,24,13.46Z"/><path class="cls-10" d="M8.85,16.25A72.94,72.94,0,0,0,18.72,18c-2.77-.39-5.23-1.38-6-2.19A7.06,7.06,0,0,0,10,14.73C9.58,15.22,9.21,15.73,8.85,16.25Z"/><path class="cls-11" d="M31.53,19s4.61.86,7.29.29,4.09.61,5.9-.19a3.2,3.2,0,0,1,3.88,1c.51.76,1.87,0,2.9.68s3.57.62,3.57.62S47.29,23.84,31.53,19Z"/><path class="cls-12" d="M32,13.36a11.24,11.24,0,0,0,4.07.22c1.54-.38,2.26.42,3.32-.12a1.53,1.53,0,0,1,2.12.69c.24.52,1.05,0,1.59.47a3.86,3.86,0,0,0,2,.43S40.56,16.71,32,13.36Z"/><path class="cls-13" d="M24.7,9.18s3,1,4.37.73a4.47,4.47,0,0,1-1.18-.57A1.51,1.51,0,0,0,26.49,9c-.32.2-.44-.28-.8-.1A3.58,3.58,0,0,1,24.7,9.18Z"/><path class="cls-14" d="M43.39,10s3,1,4.37.73a4.47,4.47,0,0,1-1.18-.57,1.51,1.51,0,0,0-1.4-.29c-.32.2-.44-.28-.8-.1A3.58,3.58,0,0,1,43.39,10Z"/><path class="cls-15" d="M39.21,9.8a9.36,9.36,0,0,1-3.15-.75A3.27,3.27,0,0,0,37,9a1.1,1.1,0,0,1,1,.2c.16.22.38-.07.57.16A2.62,2.62,0,0,0,39.21,9.8Z"/><path class="cls-16" d="M44.69,57l1-.56V25.74h-1Z"/><path class="cls-16" d="M43.65,26.92l-1,.32,8.24,25.42q.43-.39.84-.8Z"/><path class="cls-16" d="M36.16,59.69l1.17-.2L47.78,27.24l-1-.32Z"/><path class="cls-17" d="M50.73,45.47H33.17a1.54,1.54,0,0,1-1.5-1.87L39.24,9.86a1.54,1.54,0,0,1,1.5-1.2H58.3a1.54,1.54,0,0,1,1.5,1.87L52.23,44.27A1.54,1.54,0,0,1,50.73,45.47Z"/><path class="cls-18" d="M52.74,21.61l-8.21,8.21a.77.77,0,0,1-1.22-.17l-1.76-3.17a.87.87,0,0,0-1.36-.22l-5.86,5.44L31.67,43.6a1.54,1.54,0,0,0,1.5,1.87H50.73a1.54,1.54,0,0,0,1.5-1.2L56.42,25.6l-2.26-3.82A.9.9,0,0,0,52.74,21.61Z"/><path class="cls-19" d="M53.58,21.37l-.11,0Z"/><path class="cls-20" d="M54.16,21.78a.89.89,0,0,0-.44-.38l-.13,0c.3.11,1,.69-1.11,3.61-2.5,3.55-5.88,7.92-2,7.83s-3.37,10.64-7,12.66h7.27a1.54,1.54,0,0,0,1.5-1.2L56.42,25.6Z"/><path class="cls-21" d="M44.53,29.82a.77.77,0,0,1-1.22-.17l-1.76-3.17A.87.87,0,0,0,40.8,26s1.22.59-.09,2-3.36,3.84-1,3.62-4.63,5.43-2.57,4.69,7.88-7.07,9-8.2Z"/><ellipse class="cls-22" cx="46.19" cy="19.77" rx="2.51" ry="1.68" transform="translate(5.97 49.88) rotate(-60)"/><path class="cls-23" d="M38.22,36.92a1.42,1.42,0,0,0,0-1.29,1.42,1.42,0,0,0-1.1,2A1.42,1.42,0,0,0,38.22,36.92Z"/><path class="cls-24" d="M37.09,37.47l.05.13,0,0a1.42,1.42,0,0,0,1.09-2,.63.63,0,0,0-.21.55c.06.45,0,.41-.43.6A1.1,1.1,0,0,0,37.09,37.47Z"/><path class="cls-25" d="M37.18,37.47a.17.17,0,0,0-.21,0,35,35,0,0,0-2.72,4.37c-1.52,2.78-2.55,5.15-2.3,5.28s1.69-2,3.21-4.78a35,35,0,0,0,2.21-4.64.17.17,0,0,0-.08-.2Z"/><path class="cls-26" d="M36.38,38.73l.28.16a.43.43,0,0,1,.17.17c.24-.54.43-1,.54-1.32a.17.17,0,0,0-.08-.2l-.11-.06a.17.17,0,0,0-.21,0c-.22.27-.5.67-.83,1.17A.43.43,0,0,1,36.38,38.73Z"/><path id="_Path_" data-name="&lt;Path&gt;" class="cls-27" d="M12.21,16.71A8,8,0,0,0,13,10.3s.49-3.7,6.55-3.7l1.14,3.7a.93.93,0,0,0,.3.45l.34.27a.63.63,0,0,1,0,.86c-.75.89-.25,2.45-1.52,3.42-1.06.8-3.33-1-3.25,2.43C16.53,17.72,9.12,20.81,12.21,16.71Z"/><path class="cls-28" d="M21.45,11.58a1.14,1.14,0,0,1-.25,0,.58.58,0,0,1-.48-.59,3.73,3.73,0,0,1,.09-.43.93.93,0,0,1-.15-.28l-5.29-.76L13.31,11.9a8.31,8.31,0,0,1-1.1,4.81,6.82,6.82,0,0,0-.41.61l3.91.06s-.84-.47-.56-1.19,1.94-.43,1.94-.43h0a2.61,2.61,0,0,1,1.69-.23h0c-1.15-.08-1-1.54-.9-2.6a1.93,1.93,0,0,1,1.73-2c.93-.11,1.25,1.76,1.25,1.76h0a2,2,0,0,1,.39-.84A.7.7,0,0,0,21.45,11.58Z"/><path class="cls-27" d="M28.3,34.85a1.51,1.51,0,0,1,1.08-.9c.82-.16,3.26-.5,3.05-.14s-3.06,1.32-3.36,1.45"/><path class="cls-29" d="M12.21,16.71S4.4,17.94,10,29.31c4.83,9.75,13.14,12.63,16.3,9.88a10.62,10.62,0,0,0,3.15-3.9.5.5,0,0,0-.38-.67,1.75,1.75,0,0,0-1.74.2c-1.09,1-3.63,2.61-4.2,1.63"/><path class="cls-27" d="M30.54,44.61l1.86-1.27a1.39,1.39,0,0,1,.89-.24,2.59,2.59,0,0,1,1.08.22c.53.7.39,2.12.16,2.14a3.21,3.21,0,0,1-.7-.13.86.86,0,0,0-.7.12,1.8,1.8,0,0,1-1.55.35"/><path class="cls-23" d="M14.66,40.73a31.87,31.87,0,0,1,.71,13.8,27.94,27.94,0,0,0,6.7,3.65,49.88,49.88,0,0,0,2.81-15.82Z"/><path class="cls-30" d="M14.66,40.73l0,.09c.06.18.12.37.16.55a36.66,36.66,0,0,1,.56,13.2,27.93,27.93,0,0,0,6.7,3.64c2.23-5,2.19-9.42,2.54-12.36l-3.57-4.09Z"/><path class="cls-23" d="M14.66,40.45a49.16,49.16,0,0,1,9.25,18.36A27.91,27.91,0,0,0,30.39,60a81.34,81.34,0,0,0-2.46-20.76Z"/><path class="cls-31" d="M28.58,41.4,16.51,42.83a48.63,48.63,0,0,1,7.32,16c.5.15,1,.29,1.53.42.06-2.53.46-4.57,1.58-5.28,3.51-2.23,1.65-12.49,1.64-12.52Z"/><path class="cls-32" d="M11.9,16.88a17.7,17.7,0,0,0-.44,16.63c4.4,9.26-.22,8,3.85,9.17S29.18,44.55,28.55,41s-7.88-14.16-8.06-16.87-2.55-5.8-3.95-6.45S12.41,16.25,11.9,16.88Z"/><path class="cls-33" d="M16.53,17.72c-1.4-.64-4.12-1.48-4.63-.84a17.7,17.7,0,0,0-.44,16.63c4.4,9.26-.22,8,3.85,9.17a30.36,30.36,0,0,0,8.18.93c-3.11-.14-3.61-3-1-4.78s-.84-2.54-3.35-6.06,4.31-2,4.31-2h0c-1.58-2.86-2.93-5.45-3-6.6C20.29,21.46,17.93,18.37,16.53,17.72Z"/><path class="cls-32" d="M15.42,19.43c.53-1,.69-2.12,1.61-1.4,1.51,1.18,4.82,4.2,5.75,8,1.54,6.24,7.5,17,9.33,16.93s-.66,3.43-1.36,3S10,30.28,15.42,19.43Z"/><path class="cls-34" d="M34.24,33.56c0,.48-2.28.56-4,.56S28,34,28,33.56s1.41-.87,3.14-.87S34.24,33.08,34.24,33.56Z"/><ellipse class="cls-23" cx="30.24" cy="33.34" rx="0.52" ry="0.16"/><ellipse class="cls-25" cx="32.12" cy="33.34" rx="0.52" ry="0.16"/><path class="cls-35" d="M21.48,6.33a3.17,3.17,0,0,1,.11,2.95,2,2,0,0,1-1.79,1.23,2.8,2.8,0,0,0-2.46,1.93.43.43,0,0,1-.4.27h0a.43.43,0,0,1-.42-.36,2.55,2.55,0,0,0-.43-1.18c-.47-.51-1.86-.06-1.16,1.54s-.13,2-.13,2H13S9.62,9.29,10.84,6.6,19.39,2.55,21.48,6.33Z"/><path class="cls-36" d="M16.43,4C14,4.07,11.51,5.13,10.84,6.6,9.62,9.29,13,14.73,13,14.73h1.76s.83-.42.13-2c-.47-1.08,0-1.64.52-1.73h0c-.64-.19-1.78.74-1.78,0s2-1.83-.12-4S16,4.08,16.43,4Z"/></g></g></svg>