<svg xmlns="http://www.w3.org/2000/svg" xmlns:xlink="http://www.w3.org/1999/xlink" viewBox="0 0 64 64"><defs><style>.cls-1{isolation:isolate;}.cls-2{fill:url(#linear-gradient);}.cls-3{fill:url(#linear-gradient-2);}.cls-4{fill:url(#linear-gradient-3);}.cls-5{fill:url(#linear-gradient-4);}.cls-6{fill:url(#linear-gradient-5);}.cls-7{fill:url(#linear-gradient-6);}.cls-8{fill:url(#linear-gradient-7);}.cls-9{fill:url(#linear-gradient-8);}.cls-10{fill:url(#linear-gradient-9);}.cls-11{fill:url(#linear-gradient-10);}.cls-12{fill:url(#linear-gradient-11);}.cls-13{fill:url(#linear-gradient-12);}.cls-14{fill:url(#linear-gradient-13);}.cls-15{fill:url(#linear-gradient-14);}.cls-16{fill:url(#linear-gradient-15);}.cls-17{fill:url(#linear-gradient-16);}.cls-18{fill:url(#linear-gradient-67);}.cls-19{opacity:0.49;mix-blend-mode:color-burn;fill:url(#linear-gradient-68);}.cls-20{fill:url(#linear-gradient-69);}.cls-21{fill:url(#linear-gradient-70);}.cls-22{fill:url(#linear-gradient-71);}.cls-23{fill:url(#linear-gradient-72);}.cls-24{fill:url(#linear-gradient-73);}.cls-25{fill:url(#linear-gradient-74);}.cls-26{fill:url(#linear-gradient-75);}.cls-27{fill:url(#linear-gradient-76);}.cls-28{fill:url(#linear-gradient-77);}.cls-29{fill:url(#linear-gradient-78);}.cls-30{fill:url(#linear-gradient-79);}.cls-31{fill:url(#linear-gradient-80);}.cls-32{fill:url(#linear-gradient-81);}.cls-33{fill:url(#linear-gradient-82);}.cls-34{fill:url(#linear-gradient-83);}.cls-35{fill:url(#linear-gradient-84);}</style><linearGradient id="linear-gradient" x1="32" y1="72.69" x2="32" y2="29.33" gradientUnits="userSpaceOnUse"><stop offset="0.02" stop-color="#97efe7"/><stop offset="0.52" stop-color="#3db6d3"/><stop offset="1" stop-color="#3d6fd3"/></linearGradient><linearGradient id="linear-gradient-2" x1="32" y1="43.5" x2="32" y2="-16.36" xlink:href="#linear-gradient"/><linearGradient id="linear-gradient-3" x1="22.71" y1="29.11" x2="22.71" y2="-23.81" gradientUnits="userSpaceOnUse"><stop offset="0" stop-color="#fff"/><stop offset="0.84" stop-color="#cddfec"/></linearGradient><linearGradient id="linear-gradient-4" x1="15.49" y1="29.95" x2="15.49" y2="-22.06" xlink:href="#linear-gradient-3"/><linearGradient id="linear-gradient-5" x1="49.1" y1="34.85" x2="49.1" y2="-42.43" xlink:href="#linear-gradient-3"/><linearGradient id="linear-gradient-6" x1="47.49" y1="35.09" x2="47.49" y2="-43.57" xlink:href="#linear-gradient-3"/><linearGradient id="linear-gradient-7" x1="409.38" y1="35.09" x2="409.38" y2="-43.58" gradientTransform="translate(-376.22)" xlink:href="#linear-gradient-3"/><linearGradient id="linear-gradient-8" x1="407.26" y1="35.09" x2="407.26" y2="-43.58" gradientTransform="translate(-376.22)" xlink:href="#linear-gradient-3"/><linearGradient id="linear-gradient-9" x1="46.71" y1="34.1" x2="46.71" y2="-41.64" xlink:href="#linear-gradient-3"/><linearGradient id="linear-gradient-10" x1="19.59" y1="44.15" x2="19.59" y2="12.12" xlink:href="#linear-gradient"/><linearGradient id="linear-gradient-11" x1="32.6" y1="54.55" x2="32.6" y2="9.48" xlink:href="#linear-gradient"/><linearGradient id="linear-gradient-12" x1="399.41" y1="48.78" x2="399.41" y2="-0.28" gradientTransform="translate(-376.22)" xlink:href="#linear-gradient-3"/><linearGradient id="linear-gradient-13" x1="401.46" y1="48.78" x2="401.46" y2="-0.28" gradientTransform="translate(-376.22)" xlink:href="#linear-gradient-3"/><linearGradient id="linear-gradient-14" x1="403.51" y1="48.78" x2="403.51" y2="-0.28" gradientTransform="translate(-376.22)" xlink:href="#linear-gradient-3"/><linearGradient id="linear-gradient-15" x1="405.56" y1="48.78" x2="405.56" y2="-0.28" gradientTransform="translate(-376.22)" xlink:href="#linear-gradient-3"/><linearGradient id="linear-gradient-16" x1="407.62" y1="48.78" x2="407.62" y2="-0.28" gradientTransform="translate(-376.22)" xlink:href="#linear-gradient-3"/><linearGradient id="linear-gradient-67" x1="420.57" y1="44.87" x2="420.57" y2="14.91" gradientTransform="translate(-376.22)" xlink:href="#linear-gradient"/><linearGradient id="linear-gradient-68" x1="387.51" y1="25.69" x2="387.51" y2="25.13" gradientTransform="translate(-376.22)" xlink:href="#linear-gradient-3"/><linearGradient id="linear-gradient-69" x1="387.43" y1="56.25" x2="387.43" y2="35.53" gradientTransform="translate(-376.22)" gradientUnits="userSpaceOnUse"><stop offset="0" stop-color="#7ff1a4"/><stop offset="0.52" stop-color="#2fbca4"/><stop offset="1" stop-color="#2f7da4"/></linearGradient><linearGradient id="linear-gradient-70" x1="-13967.84" y1="54.56" x2="-13967.84" y2="37.99" gradientTransform="matrix(-1, 0, 0, 1, -13956.87, 0)" xlink:href="#linear-gradient-3"/><linearGradient id="linear-gradient-71" x1="32.64" y1="0.66" x2="24.61" y2="31.54" gradientUnits="userSpaceOnUse"><stop offset="0" stop-color="#fbc19e"/><stop offset="0.48" stop-color="#ffb699"/><stop offset="1" stop-color="#f47e6d"/></linearGradient><linearGradient id="linear-gradient-72" x1="32.7" y1="0.49" x2="40.12" y2="23.53" xlink:href="#linear-gradient-71"/><linearGradient id="linear-gradient-73" x1="22.64" y1="3.72" x2="30.07" y2="26.77" xlink:href="#linear-gradient-71"/><linearGradient id="linear-gradient-74" x1="29.49" y1="1.52" x2="36.91" y2="24.57" xlink:href="#linear-gradient-71"/><linearGradient id="linear-gradient-75" x1="30.55" y1="1.18" x2="37.97" y2="24.22" xlink:href="#linear-gradient-71"/><linearGradient id="linear-gradient-76" x1="38.5" y1="57.2" x2="64.75" y2="30.95" gradientUnits="userSpaceOnUse"><stop offset="0" stop-color="#af3e5e"/><stop offset="0.96" stop-color="#000741"/></linearGradient><linearGradient id="linear-gradient-77" x1="70.59" y1="50.79" x2="15.08" y2="14.64" xlink:href="#linear-gradient-71"/><linearGradient id="linear-gradient-78" x1="31.33" y1="61.79" x2="31.33" y2="44.07" xlink:href="#linear-gradient-71"/><linearGradient id="linear-gradient-79" x1="28.37" y1="73.16" x2="23.65" y2="30.1" xlink:href="#linear-gradient-76"/><linearGradient id="linear-gradient-80" x1="25.72" y1="62.36" x2="22.07" y2="42.57" xlink:href="#linear-gradient-76"/><linearGradient id="linear-gradient-81" x1="20.27" y1="76.29" x2="20.27" y2="-5.47" gradientUnits="userSpaceOnUse"><stop offset="0.01" stop-color="#ffc00f"/><stop offset="0.49" stop-color="#ff9c0f"/><stop offset="1" stop-color="#ff5d0f"/></linearGradient><linearGradient id="linear-gradient-82" x1="-20.63" y1="43.64" x2="53.73" y2="29.97" xlink:href="#linear-gradient-81"/><linearGradient id="linear-gradient-83" x1="25.16" y1="51.2" x2="5.28" y2="10.04" xlink:href="#linear-gradient-71"/><linearGradient id="linear-gradient-84" x1="32.2" y1="10.35" x2="23.88" y2="-6.01" xlink:href="#linear-gradient-76"/></defs><title>basketball</title><g class="cls-1"><g id="Layer_1" data-name="Layer 1"><circle class="cls-2" cx="32" cy="32" r="28"/><path class="cls-3" d="M4,32A27.87,27.87,0,0,0,7.37,45.33H56.63A28,28,0,1,0,4,32Z"/><path class="cls-4" d="M31.46,16.82C24.82,14.6,19.25,11,17.64,8.68a4.34,4.34,0,0,0-.38-.48A28.08,28.08,0,0,0,14,10.6,177.1,177.1,0,0,0,31.46,16.82Z"/><path class="cls-5" d="M22.73,19.91c-3.55-.49-6.68-1.77-7.71-2.8S11.59,16,11,15.46a5.47,5.47,0,0,0-1-.71,28.05,28.05,0,0,0-1.71,2.44A93.24,93.24,0,0,0,22.73,19.91Z"/><path class="cls-6" d="M57.72,20.93a4.1,4.1,0,0,0-1.76.36c-2.32,1-4.11-.48-7.54.24s-9.32-.38-9.32-.38a81.33,81.33,0,0,0,20,3.81A27.78,27.78,0,0,0,57.72,20.93Z"/><path class="cls-7" d="M55,16a2.42,2.42,0,0,1-1.09-.43c-.68-.59-1.72.07-2-.59a2,2,0,0,0-2.7-.89c-1.36.69-2.28-.33-4.24.15a14.37,14.37,0,0,1-5.2-.28c8.12,3.17,13.37,2.82,15.55,2.43Z"/><path class="cls-8" d="M30.37,8.64S34.15,9.9,36,9.57a5.71,5.71,0,0,1-1.5-.73,1.93,1.93,0,0,0-1.79-.37c-.41.25-.57-.36-1-.13A4.58,4.58,0,0,1,30.37,8.64Z"/><path class="cls-9" d="M28.25,19.85s3.78,1.26,5.58.93a5.71,5.71,0,0,1-1.5-.73,1.93,1.93,0,0,0-1.79-.37c-.41.25-.57-.36-1-.13A4.58,4.58,0,0,1,28.25,19.85Z"/><path class="cls-10" d="M47.65,8.78a.24.24,0,0,1-.21-.11.59.59,0,0,0-.2-.15l-.05,0a1.64,1.64,0,0,0-1.06-.07,4.18,4.18,0,0,1-1.22.07,10.29,10.29,0,0,0,3.62.92C48.23,9.18,47.94,9,47.65,8.78Z"/><path class="cls-11" d="M34.48,38.63H18v-7H15.84V27a3,3,0,0,0-6,0v7.2H4.09A27.83,27.83,0,0,0,7.37,45.33H35.1Z"/><path class="cls-12" d="M60,32a28,28,0,0,0-1.41-8.77H56.88a5.38,5.38,0,0,0-5.38,5.38v3.21H45.65a1.07,1.07,0,0,0-1.07,1.07v5.19H37.21v-2a1,1,0,0,0-1-1h-2.1V15.87a.93.93,0,0,0-.93-.93H21.08a.93.93,0,0,0-.93.93V42H10.47V40.1H5.2a27.83,27.83,0,0,0,2.18,5.23H56.63A27.87,27.87,0,0,0,60,32Z"/><rect class="cls-13" x="22.6" y="17.46" width="1.18" height="1.18" rx="0.09" ry="0.09"/><rect class="cls-14" x="24.65" y="17.46" width="1.18" height="1.18" rx="0.09" ry="0.09"/><rect class="cls-15" x="26.7" y="17.46" width="1.18" height="1.18" rx="0.09" ry="0.09"/><rect class="cls-16" x="28.75" y="17.46" width="1.18" height="1.18" rx="0.09" ry="0.09"/><rect class="cls-17" x="30.81" y="17.46" width="1.18" height="1.18" rx="0.09" ry="0.09"/><rect class="cls-13" x="22.6" y="19.63" width="1.18" height="1.18" rx="0.09" ry="0.09"/><rect class="cls-14" x="24.65" y="19.63" width="1.18" height="1.18" rx="0.09" ry="0.09"/><rect class="cls-15" x="26.7" y="19.63" width="1.18" height="1.18" rx="0.09" ry="0.09"/><rect class="cls-16" x="28.75" y="19.63" width="1.18" height="1.18" rx="0.09" ry="0.09"/><rect class="cls-17" x="30.81" y="19.63" width="1.18" height="1.18" rx="0.09" ry="0.09"/><rect class="cls-13" x="22.6" y="21.79" width="1.18" height="1.18" rx="0.09" ry="0.09"/><rect class="cls-14" x="24.65" y="21.79" width="1.18" height="1.18" rx="0.09" ry="0.09"/><rect class="cls-15" x="26.7" y="21.79" width="1.18" height="1.18" rx="0.09" ry="0.09"/><rect class="cls-16" x="28.75" y="21.79" width="1.18" height="1.18" rx="0.09" ry="0.09"/><rect class="cls-17" x="30.81" y="21.79" width="1.18" height="1.18" rx="0.09" ry="0.09"/><rect class="cls-13" x="22.6" y="23.95" width="1.18" height="1.18" rx="0.09" ry="0.09"/><rect class="cls-14" x="24.65" y="23.95" width="1.18" height="1.18" rx="0.09" ry="0.09"/><rect class="cls-15" x="26.7" y="23.95" width="1.18" height="1.18" rx="0.09" ry="0.09"/><rect class="cls-16" x="28.75" y="23.95" width="1.18" height="1.18" rx="0.09" ry="0.09"/><rect class="cls-17" x="30.81" y="23.95" width="1.18" height="1.18" rx="0.09" ry="0.09"/><rect class="cls-13" x="22.6" y="26.11" width="1.18" height="1.18" rx="0.09" ry="0.09"/><rect class="cls-14" x="24.65" y="26.11" width="1.18" height="1.18" rx="0.09" ry="0.09"/><rect class="cls-15" x="26.7" y="26.11" width="1.18" height="1.18" rx="0.09" ry="0.09"/><rect class="cls-16" x="28.75" y="26.11" width="1.18" height="1.18" rx="0.09" ry="0.09"/><rect class="cls-17" x="30.81" y="26.11" width="1.18" height="1.18" rx="0.09" ry="0.09"/><rect class="cls-13" x="22.6" y="28.27" width="1.18" height="1.18" rx="0.09" ry="0.09"/><rect class="cls-14" x="24.65" y="28.27" width="1.18" height="1.18" rx="0.09" ry="0.09"/><rect class="cls-15" x="26.7" y="28.27" width="1.18" height="1.18" rx="0.09" ry="0.09"/><rect class="cls-16" x="28.75" y="28.27" width="1.18" height="1.18" rx="0.09" ry="0.09"/><rect class="cls-17" x="30.81" y="28.27" width="1.18" height="1.18" rx="0.09" ry="0.09"/><rect class="cls-13" x="22.6" y="30.43" width="1.18" height="1.18" rx="0.09" ry="0.09"/><rect class="cls-14" x="24.65" y="30.43" width="1.18" height="1.18" rx="0.09" ry="0.09"/><rect class="cls-15" x="26.7" y="30.43" width="1.18" height="1.18" rx="0.09" ry="0.09"/><rect class="cls-16" x="28.75" y="30.43" width="1.18" height="1.18" rx="0.09" ry="0.09"/><rect class="cls-17" x="30.81" y="30.43" width="1.18" height="1.18" rx="0.09" ry="0.09"/><rect class="cls-13" x="22.6" y="32.59" width="1.18" height="1.18" rx="0.09" ry="0.09"/><rect class="cls-14" x="24.65" y="32.59" width="1.18" height="1.18" rx="0.09" ry="0.09"/><rect class="cls-15" x="26.7" y="32.59" width="1.18" height="1.18" rx="0.09" ry="0.09"/><rect class="cls-16" x="28.75" y="32.59" width="1.18" height="1.18" rx="0.09" ry="0.09"/><rect class="cls-17" x="30.81" y="32.59" width="1.18" height="1.18" rx="0.09" ry="0.09"/><rect class="cls-13" x="22.6" y="34.75" width="1.18" height="1.18" rx="0.09" ry="0.09"/><rect class="cls-14" x="24.65" y="34.75" width="1.18" height="1.18" rx="0.09" ry="0.09"/><rect class="cls-15" x="26.7" y="34.75" width="1.18" height="1.18" rx="0.09" ry="0.09"/><rect class="cls-16" x="28.75" y="34.75" width="1.18" height="1.18" rx="0.09" ry="0.09"/><rect class="cls-17" x="30.81" y="34.75" width="1.18" height="1.18" rx="0.09" ry="0.09"/><rect class="cls-13" x="22.6" y="36.92" width="1.18" height="1.18" rx="0.09" ry="0.09"/><rect class="cls-14" x="24.65" y="36.92" width="1.18" height="1.18" rx="0.09" ry="0.09"/><rect class="cls-15" x="26.7" y="36.92" width="1.18" height="1.18" rx="0.09" ry="0.09"/><rect class="cls-16" x="28.75" y="36.92" width="1.18" height="1.18" rx="0.09" ry="0.09"/><rect class="cls-17" x="30.81" y="36.92" width="1.18" height="1.18" rx="0.09" ry="0.09"/><rect class="cls-13" x="22.6" y="39.08" width="1.18" height="1.18" rx="0.09" ry="0.09"/><rect class="cls-14" x="24.65" y="39.08" width="1.18" height="1.18" rx="0.09" ry="0.09"/><rect class="cls-15" x="26.7" y="39.08" width="1.18" height="1.18" rx="0.09" ry="0.09"/><rect class="cls-16" x="28.75" y="39.08" width="1.18" height="1.18" rx="0.09" ry="0.09"/><rect class="cls-17" x="30.81" y="39.08" width="1.18" height="1.18" rx="0.09" ry="0.09"/><path class="cls-18" d="M45.65,31.81a1.07,1.07,0,0,0-1.07,1.07v5.19H37.21v.27a4.69,4.69,0,0,0,4.69,4.77h3.18v-2H51.5V31.81Z"/><path class="cls-19" d="M11,25.39c-.07,0,.05.12.19.21h0l.11,0a.39.39,0,0,0,.2-.12A1.58,1.58,0,0,0,11,25.39Z"/><path class="cls-20" d="M7.27,45.6a2.2,2.2,0,0,1,1.6-2.12.92.92,0,0,0,.62-.63,2.2,2.2,0,0,1,4.3.42,2.23,2.23,0,0,1,0,.5.88.88,0,0,0,.39.85A2.2,2.2,0,0,1,14.5,48a1.43,1.43,0,0,0-.33.46,1.56,1.56,0,0,1-1.44,1h-.2a1.57,1.57,0,0,0-1,.2,2.2,2.2,0,0,1-3.34-1.88v0a.77.77,0,0,0-.23-.56A2.19,2.19,0,0,1,7.27,45.6Z"/><path class="cls-21" d="M9.53,46.41c0,.07,0,.14.06.21a.69.69,0,0,0,.26.33l.19.1.33.16,0-.06c0-.07,0-.14-.06-.21l-.11-.43.13.42c0,.07,0,.14.06.21l0,.09h0a0,0,0,0,1,0,0h0l0,0a.69.69,0,0,0,.16.15l.19.1.35.17,0-2,0,2.6.2-.1a.75.75,0,0,0,.22-.15.68.68,0,0,0,.15-.23s0-.08,0-.13a.28.28,0,0,1,.09-.12.3.3,0,0,1,.13-.06l.13,0a.31.31,0,0,0,.18-.19c0-.18.09-.36.13-.54,0,.18-.08.36-.12.54a.33.33,0,0,1-.19.2l-.13,0a.27.27,0,0,0-.12.06.25.25,0,0,0-.07.11s0,.09,0,.13a.72.72,0,0,1-.15.24.8.8,0,0,1-.23.17l-.22.12.08,5.2h0a.11.11,0,0,1-.23,0l.08-5.81-.37-.2-.19-.11a.72.72,0,0,1-.16-.16l0,0h0L10,47.09,9.84,47a.72.72,0,0,1-.26-.35c0-.07,0-.14-.06-.21L9.41,46Z"/><path class="cls-22" d="M19.55,20.32S27,17.26,26,9.19c-.63-5,8.32-7.36,10.35-2.61C37.82,10,37.63,12.09,37.4,13a.71.71,0,0,1-.69.53h0a.64.64,0,0,0-.64.6,2.82,2.82,0,0,1-2,2.74c-2.32.68-4,2.65-2.23,2.9s.29,6.49-.19,6.78-5.06,6-5.06,6"/><path class="cls-23" d="M36.11,14a.64.64,0,0,1,.55-.43c-.15,0-.25-.21-.12-.73.29-1.11.32-3.45-.42-3.94S36.25,11.9,36.11,14Z"/><path class="cls-24" d="M29.55,18.28a7.84,7.84,0,0,0,1.84.24A5.55,5.55,0,0,1,34,16.91a6.52,6.52,0,0,1-4-.56,6.14,6.14,0,0,1-3.91-5.52h0a10.57,10.57,0,0,1-5.39,8.88l0,0h5.6s-1.61-.51-1.46-1.09S26.45,17.45,29.55,18.28Z"/><path class="cls-25" d="M34.34,16.8l.12-.05Z"/><path class="cls-26" d="M34.48,16.74a2.68,2.68,0,0,0,1.52-2A2.92,2.92,0,0,1,34.48,16.74Z"/><circle id="_Path_" data-name="&lt;Path&gt;" class="cls-27" cx="53.39" cy="42.3" r="6.61"/><path id="_Path_2" data-name="&lt;Path&gt;" class="cls-28" d="M34.62,21.26s1,11.29,17.63,12.86l.55,0c.86,0,4.36.3,5.65,3.22,0,0,.87.94-1.93.91a3.84,3.84,0,0,1-3.07-1.67,3.38,3.38,0,0,0-3.15-.87c-2.22.37-15.87,2.54-19.8-6.79Z"/><path class="cls-29" d="M34.06,45.58l-3.33-.45-9.38,6.53C25.59,52.84,29,56,31.81,60H32a27.94,27.94,0,0,0,9.31-1.59C38.19,49.66,34.06,45.58,34.06,45.58Z"/><path class="cls-30" d="M35,45.09a45,45,0,0,1-23.81,5.59A28,28,0,0,0,22,58.14a6.86,6.86,0,0,1,7.47,1.68l.08.07c.81.07,1.64.11,2.47.11.5,0,1,0,1.5,0a32.18,32.18,0,0,0,6.88-4.74,1.81,1.81,0,0,0,.5-2A22.3,22.3,0,0,0,35,45.09Z"/><path class="cls-31" d="M11.15,50.68a28.13,28.13,0,0,0,6,5l.95,0C28.41,55.47,35,45.09,35,45.09A45,45,0,0,1,11.15,50.68Z"/><path class="cls-32" d="M34.24,23.6a3.92,3.92,0,0,0,.37-1c.61-2.55-1.81-3.14-3.3-3.27a.15.15,0,0,0-.09.28h0a.77.77,0,0,1-.42,1.41h0a6.3,6.3,0,0,1-3.13-.78,10.78,10.78,0,0,0-2.88-1c-2.56-.34-5.15-.29-7.21,1.77-12.22,12.27-12.1,28-11.94,31.2a.71.71,0,0,0,.62.67C26.74,55.64,35,45.09,35,45.09,25.74,34.9,32.43,26.94,34.24,23.6Z"/><path class="cls-33" d="M19.31,47.53C12,50.15,7.6,40.95,16.21,39.4c4.58-.82,8.12-4,10.42-6.88a1.56,1.56,0,0,0-.77-2.46c-.91-.31-1.12-1.51,0-2.57l.17-.17a4.64,4.64,0,0,0-1.14-7.14,6,6,0,0,0-7.29.95c-12.22,12.27-12.1,28-11.94,31.2a.71.71,0,0,0,.61.67,44.64,44.64,0,0,0,12.91-.08l5.22-1.27,1-.35C28.85,49.64,26.11,45.12,19.31,47.53Z"/><path class="cls-34" d="M18.51,22.2S2.23,33.74,14,53.44l.07.06.81.65a27.92,27.92,0,0,0,8.26,4.41C20,53.67,14.45,43,20.28,34.46,29.22,21.29,20.91,19.82,18.51,22.2Z"/><path class="cls-35" d="M25.69,10.31a.39.39,0,0,0,.59.25,16,16,0,0,1,5.23-1.86,16,16,0,0,1,5.55-.2.39.39,0,0,0,.45-.45V8a.39.39,0,0,0-.3-.31,15.26,15.26,0,0,0-5.86.14,15.26,15.26,0,0,0-5.5,2,.39.39,0,0,0-.16.4Z"/></g></g></svg>