<svg id="Layer_1" data-name="Layer 1" xmlns="http://www.w3.org/2000/svg" xmlns:xlink="http://www.w3.org/1999/xlink" viewBox="0 0 64 64"><defs><style>.cls-1{fill:url(#linear-gradient);}.cls-2{fill:url(#linear-gradient-2);}.cls-3{fill:url(#linear-gradient-3);}.cls-4{fill:url(#linear-gradient-4);}.cls-5{fill:url(#linear-gradient-5);}.cls-6{fill:url(#linear-gradient-6);}.cls-7{fill:url(#linear-gradient-7);}.cls-8{fill:url(#linear-gradient-8);}.cls-9{fill:url(#linear-gradient-9);}.cls-10{fill:url(#linear-gradient-10);}.cls-11{fill:url(#linear-gradient-11);}.cls-12{fill:url(#linear-gradient-12);}.cls-13{fill:url(#linear-gradient-13);}.cls-14{fill:url(#linear-gradient-14);}.cls-15{fill:url(#linear-gradient-15);}.cls-16{fill:#4c68b0;}.cls-17{fill:#dfecf4;}.cls-18{fill:#ea9781;}.cls-19{fill:#1a172e;}.cls-20{fill:#f9aa8f;}.cls-21{fill:url(#linear-gradient-16);}.cls-22{fill:url(#linear-gradient-17);}.cls-23{fill:#db4337;}.cls-24{fill:url(#linear-gradient-18);}.cls-25{fill:url(#linear-gradient-19);}.cls-26{fill:url(#linear-gradient-20);}.cls-27{fill:url(#linear-gradient-21);}.cls-28{fill:url(#linear-gradient-22);}.cls-29{fill:url(#linear-gradient-23);}.cls-30{fill:#be6e5f;}.cls-31{fill:#361f19;}.cls-32{fill:url(#linear-gradient-24);}.cls-33{fill:#6c3f36;}.cls-34{fill:url(#linear-gradient-25);}.cls-35{fill:url(#linear-gradient-26);}</style><linearGradient id="linear-gradient" x1="32" y1="61.83" x2="32" y2="27.65" gradientUnits="userSpaceOnUse"><stop offset="0" stop-color="#caf1d8"/><stop offset="0.51" stop-color="#7defa4"/><stop offset="1" stop-color="#2fbca4"/></linearGradient><linearGradient id="linear-gradient-2" x1="34.7" y1="66.08" x2="34.7" y2="-25.09" xlink:href="#linear-gradient"/><linearGradient id="linear-gradient-3" x1="18.03" y1="68.23" x2="18.03" y2="11.68" xlink:href="#linear-gradient"/><linearGradient id="linear-gradient-4" x1="37.81" y1="72.5" x2="37.81" y2="7.32" xlink:href="#linear-gradient"/><linearGradient id="linear-gradient-5" x1="42.66" y1="66.82" x2="42.66" y2="46.3" xlink:href="#linear-gradient"/><linearGradient id="linear-gradient-6" x1="16.13" y1="57.29" x2="16.13" y2="52.63" xlink:href="#linear-gradient"/><linearGradient id="linear-gradient-7" x1="27.77" y1="66.61" x2="27.77" y2="46.5" xlink:href="#linear-gradient"/><linearGradient id="linear-gradient-8" x1="44.82" y1="19.34" x2="44.82" y2="-5.99" xlink:href="#linear-gradient"/><linearGradient id="linear-gradient-9" x1="50.22" y1="24.35" x2="50.22" y2="-8.58" xlink:href="#linear-gradient"/><linearGradient id="linear-gradient-10" x1="1343.51" y1="29.88" x2="1343.51" y2="-31.66" gradientTransform="matrix(-1, 0, 0, 1, 1364.22, 0)" xlink:href="#linear-gradient"/><linearGradient id="linear-gradient-11" x1="1338.75" y1="29.88" x2="1338.75" y2="-31.66" gradientTransform="matrix(-1, 0, 0, 1, 1364.22, 0)" xlink:href="#linear-gradient"/><linearGradient id="linear-gradient-12" x1="1352.38" y1="29.88" x2="1352.38" y2="-31.66" gradientTransform="matrix(-1, 0, 0, 1, 1364.22, 0)" xlink:href="#linear-gradient"/><linearGradient id="linear-gradient-13" x1="1327.1" y1="29.88" x2="1327.1" y2="-31.66" gradientTransform="matrix(-1, 0, 0, 1, 1364.22, 0)" xlink:href="#linear-gradient"/><linearGradient id="linear-gradient-14" x1="1345.79" y1="21.94" x2="1345.79" y2="-39.6" gradientTransform="matrix(-1, 0, 0, 1, 1364.22, 0)" xlink:href="#linear-gradient"/><linearGradient id="linear-gradient-15" x1="1337.85" y1="29.88" x2="1337.85" y2="-31.66" gradientTransform="matrix(-1, 0, 0, 1, 1364.22, 0)" xlink:href="#linear-gradient"/><linearGradient id="linear-gradient-16" x1="41.27" y1="20.93" x2="35.91" y2="12.53" gradientUnits="userSpaceOnUse"><stop offset="0" stop-color="#f78e6b"/><stop offset="1" stop-color="#f9aa8f"/></linearGradient><linearGradient id="linear-gradient-17" x1="21.25" y1="34.04" x2="29.49" y2="33.44" xlink:href="#linear-gradient-16"/><linearGradient id="linear-gradient-18" x1="23.04" y1="42.16" x2="18.09" y2="52.12" gradientUnits="userSpaceOnUse"><stop offset="0" stop-color="#bb2d25"/><stop offset="1" stop-color="#db4337"/></linearGradient><linearGradient id="linear-gradient-19" x1="20.35" y1="36.99" x2="33.16" y2="36.99" xlink:href="#linear-gradient-18"/><linearGradient id="linear-gradient-20" x1="0" y1="47.6" x2="51.72" y2="20.58" xlink:href="#linear-gradient-16"/><linearGradient id="linear-gradient-21" x1="19.87" y1="23.42" x2="38.14" y2="12.35" gradientUnits="userSpaceOnUse"><stop offset="0" stop-color="#4c68b0"/><stop offset="0.59" stop-color="#3b50a6"/><stop offset="1" stop-color="#3345a2"/></linearGradient><linearGradient id="linear-gradient-22" x1="30.18" y1="14.06" x2="41.2" y2="14.06" gradientUnits="userSpaceOnUse"><stop offset="0" stop-color="#f9a141"/><stop offset="0.22" stop-color="#f99b3a"/><stop offset="0.55" stop-color="#f78926"/><stop offset="0.94" stop-color="#f56d05"/><stop offset="1" stop-color="#f56800"/></linearGradient><linearGradient id="linear-gradient-23" x1="40.65" y1="16.37" x2="30.4" y2="11.08" xlink:href="#linear-gradient-22"/><linearGradient id="linear-gradient-24" x1="16.24" y1="31.36" x2="26.33" y2="31.36" gradientUnits="userSpaceOnUse"><stop offset="0" stop-color="#6c3f36"/><stop offset="1" stop-color="#532c0a"/></linearGradient><linearGradient id="linear-gradient-25" x1="24.9" y1="31.82" x2="14.74" y2="24.88" xlink:href="#linear-gradient-24"/><linearGradient id="linear-gradient-26" x1="24.31" y1="30.6" x2="44.98" y2="19.81" xlink:href="#linear-gradient-16"/></defs><title>bicycle</title><circle class="cls-1" cx="32" cy="32" r="28"/><path class="cls-2" d="M32,60A28,28,0,0,0,59.77,28.47l-4.7-5.12a2.59,2.59,0,0,0-3.63-.18L33.26,39.33a1.62,1.62,0,0,1-2.17,0l-4.61-4.25a1.89,1.89,0,0,0-2.56,0L9.39,48.51A28,28,0,0,0,32,60Z"/><path class="cls-3" d="M23.9,39.39a5.2,5.2,0,0,0,1.36-3.51v-.22a.8.8,0,0,0-1.33-.6h0L9.39,48.51a28.1,28.1,0,0,0,10.79,8.87l6.5-9.83-2.85-3.33A3.65,3.65,0,0,1,23.9,39.39Z"/><path class="cls-4" d="M55.36,30.43A10.89,10.89,0,0,1,53.24,24a1.08,1.08,0,0,0-1.79-.82h0L33.74,38.9l-17.8,16a28,28,0,0,0,35.23-2.54l5.69-7.86c.13-.18.29-.35.43-.52a27.8,27.8,0,0,0,2.38-7.72Z"/><path class="cls-5" d="M50.17,53.16a.32.32,0,0,0,.14-.44l-.91-1.63h0a.23.23,0,0,0,.15-.33l-1.77-3.19a.11.11,0,0,0-.19,0l-1.77,3.19a.23.23,0,0,0,.15.33h0l-.91,1.63a.32.32,0,0,0,.14.44l-.57,1-.33-.59h0a.23.23,0,0,0,.15-.33l-1.77-3.19a.11.11,0,0,0-.19,0L40.7,53.27a.23.23,0,0,0,.15.33h0l-.91,1.63a.32.32,0,0,0,.14.44l-.32.57-.37-.66a.19.19,0,0,0,.08-.26l-.53-.95h0a.13.13,0,0,0,.09-.19l-1-1.85a.06.06,0,0,0-.11,0l-1,1.85a.13.13,0,0,0,.09.19h0l-.53.95a.19.19,0,0,0,.08.26l-.69,1.24a.26.26,0,0,0,.08.34L35,58.73a.36.36,0,0,0,.23.52,11.9,11.9,0,0,0,1.91.26,27.89,27.89,0,0,0,13.05-6.26Z"/><path class="cls-6" d="M17.18,55.76l-.36-.65h0a.13.13,0,0,0,.09-.19l-1-1.85a.06.06,0,0,0-.11,0l-.69,1.24Q16.1,55.08,17.18,55.76Z"/><path class="cls-7" d="M37.18,57.89l-.69-1.24a.19.19,0,0,0,.08-.26L36,55.45h0a.13.13,0,0,0,.09-.19l-1-1.85a.06.06,0,0,0-.11,0l-1,1.85a.13.13,0,0,0,.09.19h0l-.36.65L33,54.86h0a.23.23,0,0,0,.15-.33l-1.77-3.19a.11.11,0,0,0-.19,0L29.4,54.52a.23.23,0,0,0,.15.33h0l-.48.86-1-1.83a.32.32,0,0,0,.14-.44l-.91-1.63h0a.23.23,0,0,0,.15-.33l-1.77-3.19a.11.11,0,0,0-.19,0l-1.77,3.19a.23.23,0,0,0,.15.33h0l-.91,1.63a.32.32,0,0,0,.14.44l-.57,1-.33-.59h0a.23.23,0,0,0,.15-.33L20.54,50.8a.11.11,0,0,0-.19,0L18.57,54a.23.23,0,0,0,.15.33h0L17.82,56a.31.31,0,0,0,0,.16,28,28,0,0,0,20,3.29l-.65-1.18A.26.26,0,0,0,37.18,57.89Z"/><path class="cls-8" d="M48.43,9.33A33.08,33.08,0,0,1,40,13.46s4-1.12,9.55-3.23Q49,9.76,48.43,9.33Z"/><path class="cls-9" d="M54,14.73a7.06,7.06,0,0,0-2.71,1.08c-.8.81-3.26,1.8-6,2.19a72.94,72.94,0,0,0,9.87-1.75C54.79,15.73,54.42,15.22,54,14.73Z"/><path class="cls-10" d="M32.47,19s-4.61.86-7.29.29-4.09.61-5.9-.19a3.2,3.2,0,0,0-3.88,1c-.51.76-1.87,0-2.9.68s-3.57.62-3.57.62S16.71,23.84,32.47,19Z"/><path class="cls-11" d="M32,13.36a11.24,11.24,0,0,1-4.07.22c-1.54-.38-2.26.42-3.32-.12a1.53,1.53,0,0,0-2.12.69c-.24.52-1.05,0-1.59.47a3.86,3.86,0,0,1-2,.43S23.44,16.71,32,13.36Z"/><path class="cls-12" d="M8.06,16.09s5.17.85,7.57-.2a6.06,6.06,0,0,1-2.08-.7,2.2,2.2,0,0,0-2.44-.05c-.53.52-.79-.4-1.39.1A6.46,6.46,0,0,1,8.06,16.09Z"/><path class="cls-13" d="M39.3,9.18s-3,1-4.37.73a4.47,4.47,0,0,0,1.18-.57A1.51,1.51,0,0,1,37.51,9c.32.2.44-.28.8-.1A3.58,3.58,0,0,0,39.3,9.18Z"/><path class="cls-14" d="M20.61,10s-3,1-4.37.73a4.47,4.47,0,0,0,1.18-.57,1.51,1.51,0,0,1,1.4-.29c.32.2.44-.28.8-.1A3.58,3.58,0,0,0,20.61,10Z"/><path class="cls-15" d="M24.79,9.8a9.36,9.36,0,0,0,3.15-.75A3.27,3.27,0,0,1,27,9a1.1,1.1,0,0,0-1,.2c-.16.22-.38-.07-.57.16A2.62,2.62,0,0,1,24.79,9.8Z"/><path id="_Path_" data-name="&lt;Path&gt;" class="cls-16" d="M22.13,49.45l-.51,1.62a.79.79,0,0,0,.72,1c2.2.1,6.93.21,3.79-.9-.7-.25-2.38-1.05-2.54-1.74Z"/><path class="cls-17" d="M40.72,33.65a.82.82,0,0,1-.66-1.31A5.91,5.91,0,0,1,44.59,30a8.13,8.13,0,0,1,5.28,1.67.82.82,0,0,1-1,1.32,6.49,6.49,0,0,0-4.2-1.35,4.3,4.3,0,0,0-3.3,1.66A.82.82,0,0,1,40.72,33.65Z"/><path class="cls-18" d="M39.56,29.9s2.53-.26,3,.41-.59,2.77-1,2.1l-.44-.67a11.91,11.91,0,0,0-1.51-.5"/><path class="cls-19" d="M12,51.63A12.58,12.58,0,0,0,13,45.89a9.29,9.29,0,0,0-3.8-7.05A8.79,8.79,0,0,0,4.5,37.26c.11.57.23,1.13.37,1.68a7.11,7.11,0,0,1,3.36,1.24A7.68,7.68,0,0,1,11.35,46a10.78,10.78,0,0,1-.56,4.25C11.19,50.73,11.6,51.19,12,51.63Z"/><path id="_Path_2" data-name="&lt;Path&gt;" class="cls-18" d="M30.15,19.25s1.69,12,9.9,12V30s-5.14-2-5.14-11.28Z"/><path class="cls-20" d="M41.68,15.62l-.23-.43a2.16,2.16,0,0,1-.26-1c0-.2,0-.38,0-.56s0-.43,0-.59a0,0,0,0,0,0,0c0-.3,0-.49,0-.49a.48.48,0,0,0-.11-.14c-.89-.77-4.82.66-4.82.66l-.05.58-.05,1.3a.58.58,0,0,1-.63.56h0L33.82,20l2.88-1.71c.62-.31,1.46-.94,2.32-.76,1.08.23,2,.34,2.05-.17,0-.29.07-.63.09-1a.13.13,0,0,1,.13-.12h0A.45.45,0,0,0,41.68,15.62Z"/><path class="cls-21" d="M41.36,15.84c0-.15-.5-.61-.3-.76s.14-.45.14-.72c0-.06,0-.11,0-.17s0-.11,0-.16l-3.54-.19L36,15.25a.58.58,0,0,1-.22.19l-.43.37L35,16.88l.18,1.27a3.67,3.67,0,0,0,1.56-.5,1.57,1.57,0,0,1,1.56-.07h0a1.67,1.67,0,0,1,.73,0,9.88,9.88,0,0,0,1,.17c-.42-.1-.82-.48-.82-1.38s.63-.88,1.26-.93.67.93.67.93h0a.13.13,0,0,1,.12-.08.44.44,0,0,0,.4-.26C41.6,16.12,41.32,16,41.36,15.84Z"/><path id="_Path_3" data-name="&lt;Path&gt;" class="cls-18" d="M16.24,30l7.89,9.15-2,10.33h1.46s9.85-17.07-2.33-22.51Z"/><path class="cls-22" d="M21.72,27.16,21.15,27l-4.91,3,3,3.49a28.83,28.83,0,0,0,4.43,1.24.81.81,0,0,1,.39,1.39l-1.43,1.29,1.49,1.73-.35,1.79a17.29,17.29,0,0,0,3.5-2.79C27.64,33.9,26.56,29.55,21.72,27.16Z"/><path class="cls-23" d="M43.21,35.85H23.62a19,19,0,0,0-11.56,3.95L6.68,44c.29.61.6,1.2.92,1.78l5.66-4.38a17,17,0,0,1,10.35-3.54H40.33l-4,3.12a32,32,0,0,1-19.53,6.7h-8c.46.68.95,1.34,1.46,2H16.8a34,34,0,0,0,20.74-7.11l6.28-4.88a1,1,0,0,0-.6-1.76Z"/><path class="cls-24" d="M28.45,45.41h0A31.9,31.9,0,0,1,16.8,47.63H12.88a13.52,13.52,0,0,0-.26,2H16.8a33.82,33.82,0,0,0,10.89-1.81C27.75,46.67,28,45.73,28.45,45.41Z"/><path class="cls-25" d="M21.18,36h0c.08,0,1,.34-.81,2.13a16.81,16.81,0,0,1,3.27-.32H33.1a4.18,4.18,0,0,0-.13-2H24.89Z"/><circle class="cls-19" cx="19.61" cy="47.68" r="3.37"/><path id="_Path_4" data-name="&lt;Path&gt;" class="cls-20" d="M19.72,43.53l-1.36-.82L26,35.77a.81.81,0,0,0-.39-1.39c-3.29-.66-10.46-2.62-10.46-7.33a10.69,10.69,0,0,1,.3-2.59L24.41,27C41.61,35.59,19.72,43.53,19.72,43.53Z"/><path class="cls-26" d="M27.23,28.67l-6.75,1.71-.79,2.12a26.13,26.13,0,0,0,5.93,1.88A.81.81,0,0,1,26,35.77l-7.64,6.94,1.05.63c.82-.23,1.78-.5,2.57-.77.52-.24,1.1-.52,1.71-.84a3.24,3.24,0,0,0,.05-2.47c-.25-.42,3.17-2.46,4.07-4.11s-1.31-2.35-1.31-2.35l2.63-2.63A13.45,13.45,0,0,0,27.23,28.67Z"/><path id="_Path_5" data-name="&lt;Path&gt;" class="cls-16" d="M35.55,15.5,35.25,18a4.12,4.12,0,0,1-2.42,3.27l-3.29,1.45A11.84,11.84,0,0,0,24.47,27l-.06.09-8.95-2.59C18.12,13.59,35.55,15.5,35.55,15.5Z"/><path class="cls-27" d="M15.46,24.46l1.61.47c.94.24,4.22.95,5.24-.62,1.2-1.83.44-3.45,3.19-3.83S29,22.93,29,22.93s2.16-7.3,3.83-5.83,2,1,2.25,1.07c.06,0,.11-.07.15-.2h0l.12-.95h0l.19-1.52S18.12,13.59,15.46,24.46Z"/><path class="cls-28" d="M36.18,13.16a9.32,9.32,0,0,1-4.11-1c-2.35-1.11-2.81,2.19.43,3.45s4.28.07,4.88-.42,2.49.28,3.16-.28.61-1,.67-1.76"/><path class="cls-29" d="M32.06,12.16c-2.21-1-2.75,1.82-.1,3.21,1.26,0,0-.6-.06-1.7s2.42.08,3.38,1.11a1.89,1.89,0,0,0,2.17.36l.08,0h0c-1.75-.59-.26-1.39.93-1.18,2.23.4,2.71-.76,2.71-.76h-5A9.32,9.32,0,0,1,32.06,12.16Z"/><path class="cls-20" d="M33.81,19.24a2.88,2.88,0,1,0-5.69.61h0s3.07,13.94,11.44,13.94v-1.5S33.81,30,33.81,19.24Z"/><path id="_Path_6" data-name="&lt;Path&gt;" class="cls-30" d="M41.2,13.16h-5l.05-.35s3.93-1.31,4.82-.55a4.42,4.42,0,0,1,.12.68.5.5,0,0,0,0-.17A1.23,1.23,0,0,1,41.2,13.16Z"/><path id="_Path_7" data-name="&lt;Path&gt;" class="cls-31" d="M41.2,13.16s.21-2.61-2-2.61c-1.06,0-4.73,2.61-3.45,2.61Z"/><path id="_Path_8" data-name="&lt;Path&gt;" class="cls-16" d="M18.78,42.31l-.87.62a1,1,0,0,0,.18,1.73c2.42,1.06,6.48,2.71,4.14.71-.57-.48-1.62-1.69-2-2Z"/><path class="cls-32" d="M21.25,26.94l-5,3,4.65,5.4a1.16,1.16,0,0,0,1.7.06l3.74-3.74A9.72,9.72,0,0,0,21.25,26.94Z"/><path class="cls-19" d="M19.55,35.25H18.08a1.18,1.18,0,0,1-1.18-1.18v-.66a1.18,1.18,0,0,1,1.18-1.18h4.8a.48.48,0,0,1,.3.87l-2.09,1.62A2.5,2.5,0,0,1,19.55,35.25Z"/><path class="cls-33" d="M24.41,27l-8.95-2.59h0a10.69,10.69,0,0,0-.3,2.59c0,4,5.28,6.06,8.86,7l4.43-4.43A20.67,20.67,0,0,0,24.41,27Z"/><path class="cls-34" d="M15.46,24.46a10.69,10.69,0,0,0-.3,2.59c0,3.65,4.32,5.65,7.79,6.67-3.63-1.25-4.55-4.56-1.16-4.67,3.71-.12,2.61-2,2.61-2l-8.95-2.59Z"/><path class="cls-35" d="M31.64,23.38c.74-2-2.67-3-2-5.22a1.94,1.94,0,0,1,2.68-1.42,2.88,2.88,0,0,0-4.23,3.11h0s3.07,13.94,11.44,13.94C32.58,32.55,30.9,25.39,31.64,23.38Z"/><path class="cls-19" d="M47.5,60a8.85,8.85,0,0,1-5.17-1.61,9.29,9.29,0,0,1-3.8-7.05A13.64,13.64,0,0,1,48.24,37.6,9,9,0,0,1,60,45.89a13.14,13.14,0,0,1-2.49,8.54h0a13.14,13.14,0,0,1-7.22,5.19A10.61,10.61,0,0,1,47.5,60ZM51,38.87a8.94,8.94,0,0,0-2.32.32,12,12,0,0,0-8.5,12A7.38,7.38,0,0,0,49.83,58a11.5,11.5,0,0,0,6.31-4.55h0A11.5,11.5,0,0,0,58.33,46a7.68,7.68,0,0,0-3.12-5.84A7.24,7.24,0,0,0,51,38.87Z"/><path class="cls-23" d="M49.16,49.6c-3.93,0-7.13-4.12-7.13-9.17s3.2-9.17,7.13-9.17a1,1,0,0,1,0,2c-2.85,0-5.16,3.23-5.16,7.2s2.31,7.2,5.16,7.2a1,1,0,0,1,0,2Z"/><path class="cls-17" d="M39.83,35.23a.82.82,0,0,1-.75-1.16,6.15,6.15,0,0,1,4.07-3.36,8.47,8.47,0,0,1,5.74.51.82.82,0,0,1-.68,1.5,6.82,6.82,0,0,0-4.62-.43,4.54,4.54,0,0,0-3,2.45A.82.82,0,0,1,39.83,35.23Z"/><path class="cls-20" d="M39.56,32.29s2.84-.29,3.34.46-.66,3.11-1.16,2.35l-.49-.75s-1.53-.48-2.15-.61"/></svg>