<svg xmlns="http://www.w3.org/2000/svg" xmlns:xlink="http://www.w3.org/1999/xlink" viewBox="0 0 64 64"><defs><style>.cls-1{isolation:isolate;}.cls-2{fill:url(#linear-gradient);}.cls-3{fill:url(#linear-gradient-2);}.cls-4{fill:url(#linear-gradient-3);}.cls-5{fill:url(#linear-gradient-4);}.cls-6{fill:url(#linear-gradient-5);}.cls-7{fill:url(#linear-gradient-6);}.cls-8{fill:url(#linear-gradient-7);}.cls-9{fill:url(#linear-gradient-8);}.cls-10{fill:url(#linear-gradient-9);}.cls-11{fill:url(#linear-gradient-10);}.cls-12{fill:url(#linear-gradient-11);}.cls-13{fill:url(#linear-gradient-12);}.cls-14{fill:url(#linear-gradient-13);}.cls-15{fill:url(#linear-gradient-14);}.cls-16{fill:url(#linear-gradient-15);}.cls-17{fill:url(#linear-gradient-16);}.cls-18{fill:url(#linear-gradient-17);}.cls-19{fill:url(#linear-gradient-18);}.cls-20{fill:url(#linear-gradient-19);}.cls-21{fill:url(#linear-gradient-20);}.cls-22{fill:url(#linear-gradient-21);}.cls-23{fill:url(#linear-gradient-22);}.cls-24{fill:url(#linear-gradient-23);}.cls-25{fill:url(#linear-gradient-24);}.cls-26{fill:url(#linear-gradient-25);}.cls-27{fill:url(#linear-gradient-61);}.cls-28{opacity:0.49;mix-blend-mode:color-burn;fill:url(#linear-gradient-62);}.cls-29{fill:url(#linear-gradient-63);}.cls-30{fill:url(#linear-gradient-64);}.cls-31{fill:#003a42;}.cls-32{fill:url(#linear-gradient-65);}.cls-33{fill:#f16c52;}.cls-34{fill:#0b143a;}.cls-35{fill:url(#linear-gradient-66);}.cls-36{fill:#f9aa8f;}.cls-37{fill:url(#linear-gradient-67);}.cls-38{fill:#f27c1c;}.cls-39{fill:url(#linear-gradient-68);}.cls-40{fill:#211a4c;}.cls-41{fill:url(#linear-gradient-69);}.cls-42{fill:url(#linear-gradient-70);}.cls-43{fill:url(#linear-gradient-71);}.cls-44{fill:url(#linear-gradient-72);}.cls-45{fill:url(#linear-gradient-73);}.cls-46{fill:url(#linear-gradient-74);}.cls-47{fill:url(#linear-gradient-75);}.cls-48{fill:#162873;}</style><linearGradient id="linear-gradient" x1="32.35" y1="97.4" x2="32.35" y2="9.29" gradientUnits="userSpaceOnUse"><stop offset="0.02" stop-color="#edd7ad"/><stop offset="0.52" stop-color="#ff9661"/><stop offset="1" stop-color="#e74a69"/></linearGradient><linearGradient id="linear-gradient-2" x1="49.82" y1="49.21" x2="49.82" y2="-11.09" xlink:href="#linear-gradient"/><linearGradient id="linear-gradient-3" x1="1255.25" y1="33.91" x2="1255.25" y2="-11.1" gradientTransform="matrix(-1, 0, 0, 1, 1304, 0)" xlink:href="#linear-gradient"/><linearGradient id="linear-gradient-4" x1="1251.77" y1="33.91" x2="1251.77" y2="-11.1" gradientTransform="matrix(-1, 0, 0, 1, 1304, 0)" xlink:href="#linear-gradient"/><linearGradient id="linear-gradient-5" x1="1261.74" y1="33.91" x2="1261.74" y2="-11.1" gradientTransform="matrix(-1, 0, 0, 1, 1304, 0)" xlink:href="#linear-gradient"/><linearGradient id="linear-gradient-6" x1="1251.11" y1="33.91" x2="1251.11" y2="-11.1" gradientTransform="matrix(-1, 0, 0, 1, 1304, 0)" xlink:href="#linear-gradient"/><linearGradient id="linear-gradient-7" x1="59.98" y1="37.22" x2="59.98" y2="35.18" xlink:href="#linear-gradient"/><linearGradient id="linear-gradient-8" x1="49.82" y1="43.61" x2="49.82" y2="24.85" xlink:href="#linear-gradient"/><linearGradient id="linear-gradient-9" x1="1249.65" y1="39.51" x2="1249.65" y2="22.36" gradientTransform="matrix(-1, 0, 0, 1, 1304, 0)" xlink:href="#linear-gradient"/><linearGradient id="linear-gradient-10" x1="21.07" y1="49.21" x2="21.07" y2="-11.09" xlink:href="#linear-gradient"/><linearGradient id="linear-gradient-11" x1="11.75" y1="35.55" x2="11.75" y2="-3.54" xlink:href="#linear-gradient"/><linearGradient id="linear-gradient-12" x1="8.48" y1="32.64" x2="8.48" y2="5.9" xlink:href="#linear-gradient"/><linearGradient id="linear-gradient-13" x1="1274.58" y1="40.59" x2="1274.58" y2="-14.81" gradientTransform="matrix(-1, 0, 0, 1, 1304, 0)" xlink:href="#linear-gradient"/><linearGradient id="linear-gradient-14" x1="1272.47" y1="40.59" x2="1272.47" y2="-14.81" gradientTransform="matrix(-1, 0, 0, 1, 1304, 0)" xlink:href="#linear-gradient"/><linearGradient id="linear-gradient-15" x1="1278.48" y1="40.59" x2="1278.48" y2="-14.81" gradientTransform="matrix(-1, 0, 0, 1, 1304, 0)" xlink:href="#linear-gradient"/><linearGradient id="linear-gradient-16" x1="1286.59" y1="40.59" x2="1286.59" y2="-14.81" gradientTransform="matrix(-1, 0, 0, 1, 1304, 0)" xlink:href="#linear-gradient"/><linearGradient id="linear-gradient-17" x1="1287.8" y1="40.59" x2="1287.8" y2="-14.81" gradientTransform="matrix(-1, 0, 0, 1, 1304, 0)" xlink:href="#linear-gradient"/><linearGradient id="linear-gradient-18" x1="1269.85" y1="40.59" x2="1269.85" y2="-14.81" gradientTransform="matrix(-1, 0, 0, 1, 1304, 0)" xlink:href="#linear-gradient"/><linearGradient id="linear-gradient-19" x1="10.89" y1="39.09" x2="10.89" y2="20.78" xlink:href="#linear-gradient"/><linearGradient id="linear-gradient-20" x1="21.36" y1="46.09" x2="21.36" y2="15.22" xlink:href="#linear-gradient"/><linearGradient id="linear-gradient-21" x1="3756.44" y1="41.74" x2="3756.44" y2="13.67" gradientTransform="translate(-3745.83)" xlink:href="#linear-gradient"/><linearGradient id="linear-gradient-22" x1="3757.61" y1="41.74" x2="3757.61" y2="13.67" gradientTransform="translate(-3745.83)" xlink:href="#linear-gradient"/><linearGradient id="linear-gradient-23" x1="3758.79" y1="41.74" x2="3758.79" y2="13.67" gradientTransform="translate(-3745.83)" xlink:href="#linear-gradient"/><linearGradient id="linear-gradient-24" x1="3759.96" y1="41.74" x2="3759.96" y2="13.67" gradientTransform="translate(-3745.83)" xlink:href="#linear-gradient"/><linearGradient id="linear-gradient-25" x1="3761.14" y1="41.74" x2="3761.14" y2="13.67" gradientTransform="translate(-3745.83)" xlink:href="#linear-gradient"/><linearGradient id="linear-gradient-61" x1="3768.55" y1="39.51" x2="3768.55" y2="22.36" gradientTransform="translate(-3745.83)" xlink:href="#linear-gradient"/><linearGradient id="linear-gradient-62" x1="3749.63" y1="28.53" x2="3749.63" y2="28.21" gradientTransform="translate(-3745.83)" xlink:href="#linear-gradient"/><linearGradient id="linear-gradient-63" x1="38.35" y1="9.59" x2="38.35" y2="-2.72" xlink:href="#linear-gradient"/><linearGradient id="linear-gradient-64" x1="38.35" y1="18.78" x2="38.35" y2="-4.74" xlink:href="#linear-gradient"/><linearGradient id="linear-gradient-65" x1="31.84" y1="27.27" x2="43.3" y2="27.27" gradientUnits="userSpaceOnUse"><stop offset="0" stop-color="#003a42"/><stop offset="1" stop-color="#002b30"/></linearGradient><linearGradient id="linear-gradient-66" x1="18.3" y1="36.89" x2="33.97" y2="12.62" gradientUnits="userSpaceOnUse"><stop offset="0" stop-color="#f16c52"/><stop offset="0.21" stop-color="#ef5644"/><stop offset="0.47" stop-color="#ed4337"/><stop offset="0.73" stop-color="#ec3730"/><stop offset="1" stop-color="#ec332d"/></linearGradient><linearGradient id="linear-gradient-67" x1="40.94" y1="21.74" x2="26.32" y2="10.55" gradientUnits="userSpaceOnUse"><stop offset="0" stop-color="#f9aa8f"/><stop offset="1" stop-color="#f78e6b"/></linearGradient><linearGradient id="linear-gradient-68" x1="39.24" y1="17.06" x2="27.79" y2="8.3" gradientUnits="userSpaceOnUse"><stop offset="0" stop-color="#f27c1c"/><stop offset="0.42" stop-color="#ea6c18"/><stop offset="1" stop-color="#da4f11"/></linearGradient><linearGradient id="linear-gradient-69" x1="35.92" y1="76.28" x2="35.61" y2="43.35" gradientUnits="userSpaceOnUse"><stop offset="0" stop-color="#1c1651"/><stop offset="1" stop-color="#130f38"/></linearGradient><linearGradient id="linear-gradient-70" x1="27.81" y1="36.06" x2="35.85" y2="36.06" gradientUnits="userSpaceOnUse"><stop offset="0" stop-color="#6e7d87"/><stop offset="0.05" stop-color="#6f7e88"/><stop offset="1" stop-color="#83939b"/></linearGradient><linearGradient id="linear-gradient-71" x1="39.76" y1="37.85" x2="21.8" y2="30.38" xlink:href="#linear-gradient-70"/><linearGradient id="linear-gradient-72" x1="20" y1="53.1" x2="29.08" y2="53.1" xlink:href="#linear-gradient-70"/><linearGradient id="linear-gradient-73" x1="24.65" y1="56.56" x2="25.57" y2="47.41" xlink:href="#linear-gradient-70"/><linearGradient id="linear-gradient-74" x1="22" y1="38.92" x2="30.08" y2="38.92" xlink:href="#linear-gradient-65"/><linearGradient id="linear-gradient-75" x1="26.2" y1="16.94" x2="31.44" y2="16.94" xlink:href="#linear-gradient-65"/></defs><title>burglar</title><g class="cls-1"><g id="Layer_1" data-name="Layer 1"><circle class="cls-2" cx="32.35" cy="32.15" r="28"/><path class="cls-3" d="M60.35,32.15a27.86,27.86,0,0,0-5-16H41.07a1.78,1.78,0,0,0-1.78,1.78V39.77h20A28,28,0,0,0,60.35,32.15Z"/><path class="cls-4" d="M57.36,25.93a18,18,0,0,1-5.33.22c-2-.41-3,.44-4.32-.14a2.34,2.34,0,0,0-2.84.74c-.37.55-1.37,0-2.12.49a6.24,6.24,0,0,1-2.61.45S45.82,29.5,57.36,25.93Z"/><path class="cls-5" d="M57,21.83A8.22,8.22,0,0,1,54,22c-1.13-.28-1.65.31-2.43-.09a1.12,1.12,0,0,0-1.55.51c-.18.38-.77,0-1.16.34a2.83,2.83,0,0,1-1.44.31S50.74,24.28,57,21.83Z"/><path class="cls-6" d="M39.49,23.82s3.78.62,5.54-.15a4.43,4.43,0,0,1-1.52-.51,1.61,1.61,0,0,0-1.78,0c-.39.38-.58-.29-1,.07A4.73,4.73,0,0,1,39.49,23.82Z"/><path class="cls-7" d="M51.74,19.23a6.85,6.85,0,0,0,2.3-.55,2.39,2.39,0,0,1-.7,0,.81.81,0,0,0-.75.15c-.12.16-.28,0-.42.12A1.92,1.92,0,0,1,51.74,19.23Z"/><path class="cls-8" d="M60.09,35.94H60l-.13,1.37Q60,36.62,60.09,35.94Z"/><path class="cls-9" d="M60.35,32.15a28.3,28.3,0,0,0-.16-3v4.72H59a.55.55,0,0,0-.55.55v1.15H54.22v-3a.61.61,0,0,0-.61-.61H50.26V30.2a3.08,3.08,0,0,0-3.08-3.08H43.83V35H39.29v4.73h20A28,28,0,0,0,60.35,32.15Z"/><path class="cls-10" d="M53.61,32a.61.61,0,0,1,.61.61v3h4.22v.15a2.68,2.68,0,0,1-2.68,2.73H53.94V37.38H50.26V32Z"/><path class="cls-11" d="M36,16.12H9.4a28,28,0,0,0-4,23.65H37.78V17.9A1.78,1.78,0,0,0,36,16.12Z"/><path class="cls-12" d="M16.44,23.46c-3.8-1.27-7-3.31-7.91-4.66A2.39,2.39,0,0,0,8,18.28q-.52.92-1,1.88C12.38,22.31,16.44,23.46,16.44,23.46Z"/><path class="cls-13" d="M11.44,25.22A9.17,9.17,0,0,1,7,23.62a2.66,2.66,0,0,0-1.15-.55c-.13.39-.26.78-.38,1.18A52.81,52.81,0,0,0,11.44,25.22Z"/><path class="cls-14" d="M20.81,25.93a18,18,0,0,0,5.33.22c2-.41,3,.44,4.32-.14a2.34,2.34,0,0,1,2.84.74c.37.55,1.37,0,2.12.49a6.24,6.24,0,0,0,2.61.45S32.35,29.5,20.81,25.93Z"/><path class="cls-15" d="M26.75,22.63a8.22,8.22,0,0,0,3,.16c1.13-.28,1.65.31,2.43-.09a1.12,1.12,0,0,1,1.55.51c.18.38.77,0,1.16.34a2.83,2.83,0,0,0,1.44.31S33,25.08,26.75,22.63Z"/><path class="cls-16" d="M28.22,19.47s-3.83-.13-5.4-1.23A4.43,4.43,0,0,0,24.41,18a1.61,1.61,0,0,1,1.75.31c.31.45.62-.17,1,.27A4.73,4.73,0,0,0,28.22,19.47Z"/><path class="cls-17" d="M15.82,18.78a9.37,9.37,0,0,0,3.2.53,3.27,3.27,0,0,1-.86-.42,1.11,1.11,0,0,0-1-.21c-.23.14-.32-.21-.59-.08A2.62,2.62,0,0,1,15.82,18.78Z"/><path class="cls-18" d="M14.61,25.19a9.37,9.37,0,0,0,3.2.53,3.27,3.27,0,0,1-.86-.42,1.11,1.11,0,0,0-1-.21c-.23.14-.32-.21-.59-.08A2.62,2.62,0,0,1,14.61,25.19Z"/><path class="cls-19" d="M35.33,18A6.85,6.85,0,0,1,33,17.84a2.39,2.39,0,0,0,.68-.17.81.81,0,0,1,.77,0c.15.14.26-.1.43,0A1.92,1.92,0,0,0,35.33,18Z"/><path class="cls-20" d="M17.07,35.94H7.63v-4H6.4V29.26a1.73,1.73,0,0,0-1.66-1.72,27.91,27.91,0,0,0,.67,12.23h12Z"/><path class="cls-21" d="M33.24,19h-.05a6.38,6.38,0,0,0-6.38,6.38V32H23.46a.61.61,0,0,0-.61.61v3H18.63V34.47a.55.55,0,0,0-.55-.55h-1.2V27.21a.53.53,0,0,0-.53-.53H9.4a.53.53,0,0,0-.53.53V37.87H4.94c.13.64.3,1.28.47,1.9H37.78V35H33.24Z"/><rect class="cls-22" x="10.27" y="27.53" width="0.68" height="0.68" rx="0.05" ry="0.05"/><rect class="cls-23" x="11.44" y="27.53" width="0.68" height="0.68" rx="0.05" ry="0.05"/><rect class="cls-24" x="12.61" y="27.53" width="0.68" height="0.68" rx="0.05" ry="0.05"/><rect class="cls-25" x="13.79" y="27.53" width="0.68" height="0.68" rx="0.05" ry="0.05"/><rect class="cls-26" x="14.96" y="27.53" width="0.68" height="0.68" rx="0.05" ry="0.05"/><rect class="cls-22" x="10.27" y="28.77" width="0.68" height="0.68" rx="0.05" ry="0.05"/><rect class="cls-23" x="11.44" y="28.77" width="0.68" height="0.68" rx="0.05" ry="0.05"/><rect class="cls-24" x="12.61" y="28.77" width="0.68" height="0.68" rx="0.05" ry="0.05"/><rect class="cls-25" x="13.79" y="28.77" width="0.68" height="0.68" rx="0.05" ry="0.05"/><rect class="cls-26" x="14.96" y="28.77" width="0.68" height="0.68" rx="0.05" ry="0.05"/><rect class="cls-22" x="10.27" y="30.01" width="0.68" height="0.68" rx="0.05" ry="0.05"/><rect class="cls-23" x="11.44" y="30.01" width="0.68" height="0.68" rx="0.05" ry="0.05"/><rect class="cls-24" x="12.61" y="30.01" width="0.68" height="0.68" rx="0.05" ry="0.05"/><rect class="cls-25" x="13.79" y="30.01" width="0.68" height="0.68" rx="0.05" ry="0.05"/><rect class="cls-26" x="14.96" y="30.01" width="0.68" height="0.68" rx="0.05" ry="0.05"/><rect class="cls-22" x="10.27" y="31.24" width="0.68" height="0.68" rx="0.05" ry="0.05"/><rect class="cls-23" x="11.44" y="31.24" width="0.68" height="0.68" rx="0.05" ry="0.05"/><rect class="cls-24" x="12.61" y="31.24" width="0.68" height="0.68" rx="0.05" ry="0.05"/><rect class="cls-25" x="13.79" y="31.24" width="0.68" height="0.68" rx="0.05" ry="0.05"/><rect class="cls-26" x="14.96" y="31.24" width="0.68" height="0.68" rx="0.05" ry="0.05"/><rect class="cls-22" x="10.27" y="32.48" width="0.68" height="0.68" rx="0.05" ry="0.05"/><rect class="cls-23" x="11.44" y="32.48" width="0.68" height="0.68" rx="0.05" ry="0.05"/><rect class="cls-24" x="12.61" y="32.48" width="0.68" height="0.68" rx="0.05" ry="0.05"/><rect class="cls-25" x="13.79" y="32.48" width="0.68" height="0.68" rx="0.05" ry="0.05"/><rect class="cls-26" x="14.96" y="32.48" width="0.68" height="0.68" rx="0.05" ry="0.05"/><rect class="cls-22" x="10.27" y="33.72" width="0.68" height="0.68" rx="0.05" ry="0.05"/><rect class="cls-23" x="11.44" y="33.72" width="0.68" height="0.68" rx="0.05" ry="0.05"/><rect class="cls-24" x="12.61" y="33.72" width="0.68" height="0.68" rx="0.05" ry="0.05"/><rect class="cls-25" x="13.79" y="33.72" width="0.68" height="0.68" rx="0.05" ry="0.05"/><rect class="cls-26" x="14.96" y="33.72" width="0.68" height="0.68" rx="0.05" ry="0.05"/><rect class="cls-22" x="10.27" y="34.95" width="0.68" height="0.68" rx="0.05" ry="0.05"/><rect class="cls-23" x="11.44" y="34.95" width="0.68" height="0.68" rx="0.05" ry="0.05"/><rect class="cls-24" x="12.61" y="34.95" width="0.68" height="0.68" rx="0.05" ry="0.05"/><rect class="cls-25" x="13.79" y="34.95" width="0.68" height="0.68" rx="0.05" ry="0.05"/><rect class="cls-26" x="14.96" y="34.95" width="0.68" height="0.68" rx="0.05" ry="0.05"/><rect class="cls-22" x="10.27" y="36.19" width="0.68" height="0.68" rx="0.05" ry="0.05"/><rect class="cls-23" x="11.44" y="36.19" width="0.68" height="0.68" rx="0.05" ry="0.05"/><rect class="cls-24" x="12.61" y="36.19" width="0.68" height="0.68" rx="0.05" ry="0.05"/><rect class="cls-25" x="13.79" y="36.19" width="0.68" height="0.68" rx="0.05" ry="0.05"/><rect class="cls-26" x="14.96" y="36.19" width="0.68" height="0.68" rx="0.05" ry="0.05"/><path class="cls-27" d="M23.46,32a.61.61,0,0,0-.61.61v3H18.63v.15A2.68,2.68,0,0,0,21.3,38.5h1.82V37.38H26.8V32Z"/><path class="cls-28" d="M3.66,28.36s0,.07.11.12h0l.06,0a.23.23,0,0,0,.12-.07A.9.9,0,0,0,3.66,28.36Z"/><path class="cls-29" d="M38.15,4.89v-1h.4v1a1.43,1.43,0,0,0,1,1.37,4,4,0,1,1-2.43,0A1.45,1.45,0,0,0,38.15,4.89Z"/><circle class="cls-30" cx="38.35" cy="10.11" r="4.04"/><path id="_Path_" data-name="&lt;Path&gt;" class="cls-31" d="M27.7,28S45.74,39.05,58,22.9l-1.42-.8s-12,7.25-19.65,1.11a4.22,4.22,0,0,0-6,.67Z"/><path class="cls-32" d="M39.1,28.41a9.32,9.32,0,0,0-2.88-5.51h0L32,23l-.2.13.53,7.07A29.33,29.33,0,0,0,43.3,31.58C41.54,31.48,39.51,30.76,39.1,28.41Z"/><path class="cls-33" d="M28.73,35.76s8.39-2.76,7.71-8.87-6.1-5.63-7.19-5.34a5.14,5.14,0,0,1,5-.81c3,1.07,5.9,5.6,3.37,10.94s-12.33,7.84-12.33,7.84"/><path class="cls-34" d="M58,22.9s1.36-1.08,1.46-1.55c0,0,.35.89.65.66a1.48,1.48,0,0,0-.26-2c-.84-.83-1.89-1.13-2.37-.22s-.28,2-.9,2.36"/><path id="_Path_2" data-name="&lt;Path&gt;" class="cls-33" d="M24,44.78s-7.74,1-7.29-5.83c.34-5.14,1.49-16,9.72-16v1.47"/><path class="cls-35" d="M25.27,34l.84-7.05L22,26.48l-2.27.29A21.41,21.41,0,0,0,17.08,35s1.06-3,3.46-2.6-.86,4.41,2.91,2.83A5.66,5.66,0,0,0,25.27,34Z"/><path id="_Path_3" data-name="&lt;Path&gt;" class="cls-31" d="M33.92,8.78s2-.77,2.76,2.82l-3.39.74Z"/><polyline id="_Path_4" data-name="&lt;Path&gt;" class="cls-31" points="31.39 20.28 35.87 18.34 38.5 51.35 29.08 52.2 31.26 20.88"/><polyline id="_Path_5" data-name="&lt;Path&gt;" class="cls-31" points="31.39 20.28 35.87 18.34 38.5 51.35 29.08 52.2 31.26 20.88"/><path class="cls-36" d="M37.74,15.21c-.78-7.88-5.67-4.9-5.67-4.9v5.75a10.74,10.74,0,0,1-1.15,3.49c0,1.74,3.58,2.94,3.58,2.94V19.8a.61.61,0,0,1,.54-.61,1.3,1.3,0,0,0,.64-.21,6.56,6.56,0,0,0,.86-2.61.62.62,0,0,1,.56-.51C37.42,15.83,37.79,15.69,37.74,15.21Z"/><path class="cls-37" d="M37.11,15.4a7.36,7.36,0,0,0-.1-.85l-.34-1.6-2.61.29-.93,2-.09.16-.4,4.37.26,1.37.89.07s.49,0,.39-.62a1.11,1.11,0,0,1,.36-1h0a.62.62,0,0,1,.49-.37,2.08,2.08,0,0,0,.38-.08c-1.43,0-.93-2.18-.88-3.32s1.63-1.63,1.88-1.09a4.47,4.47,0,0,1,.12,1.71v0a.62.62,0,0,1,.56-.51.87.87,0,0,0,.48-.17C37.38,15.79,37.13,15.75,37.11,15.4Z"/><path class="cls-34" d="M36.95,14.88l.75-.06a11.55,11.55,0,0,0-.48-2.25l-4.08-.65L34.27,15l.48.24a1.18,1.18,0,0,0,1,0l.5-.22A2.15,2.15,0,0,1,36.95,14.88Z"/><path class="cls-38" d="M34.77,9.81s3.07.71,2.79,2.53c-.22,1.42-2.12,1.7-2.94,1.75a.23.23,0,0,0-.21.31.93.93,0,0,1-.18.94.84.84,0,0,0-.19.57.77.77,0,0,1-.6.89c-.86.2-1.61-2-1.61-2l.73-3.46"/><path class="cls-39" d="M34.71,13.41a3.73,3.73,0,0,0,1.54-.46c.67-.4-1.26-.47-1.27-1.84s1.35-.67,1.41-.65a6.48,6.48,0,0,0-1.61-.65l-1,.65-1.44,5.49c.29.5.67.94,1.08.85a.77.77,0,0,0,.6-.89.84.84,0,0,1,.19-.57.93.93,0,0,0,.18-.94.23.23,0,0,1,.21-.31l.36,0C34,14.16,34.24,13.51,34.71,13.41Z"/><path class="cls-40" d="M23,41.38l-.65,5.51s2.12,8.45,16,9.45a5.18,5.18,0,0,1,3.77,2.08,27.91,27.91,0,0,0,5.89-3C39.93,40.41,23,41.38,23,41.38Z"/><path class="cls-41" d="M32.93,42.94l-1.1.34-6.48,4.65-.09,3.42c2.28,2.2,6.25,4.5,13.05,5a5.18,5.18,0,0,1,3.77,2.08l.22-.09c-.7-2-1.68-5.61,0-6.39a3.12,3.12,0,0,1,3.83.83A25.54,25.54,0,0,0,32.93,42.94Z"/><path id="_Path_6" data-name="&lt;Path&gt;" class="cls-42" d="M35.18,23l.67,20.76a.68.68,0,0,1-.42.66c-2.18.89-6.35,7.51-6.35,7.51S23.8,11.22,34.79,22.08A1.32,1.32,0,0,1,35.18,23Z"/><path class="cls-43" d="M34.53,41.83c-1.57-2.14-.49-9,.31-10.75s-1.44-5.2-1.05-8c.24-1.73,1.32-.5,1.32-.5a1.31,1.31,0,0,0-.33-.54c-3-3-4.79-2.08-5.81.78l2.28,25.87c1.35-1.83,3-3.86,4.17-4.33C35.84,44,36.1,44,34.53,41.83Z"/><path class="cls-40" d="M27.71,59.76c5.66-6.32,5.54-11,5.54-11l-11.19.87s.31,2.92-2.19,7.55A27.79,27.79,0,0,0,27.71,59.76Z"/><path id="_Path_7" data-name="&lt;Path&gt;" class="cls-44" d="M29.08,51.9s-1.49,6.22-8.71,3.72a.55.55,0,0,1-.21-.91A7.24,7.24,0,0,0,22,50Z"/><path class="cls-45" d="M22,50A7.45,7.45,0,0,1,21,53.63a2.24,2.24,0,0,1,2.89-.91c1.37.63,3.09,1.37,4.29,1.11a6.38,6.38,0,0,0,.92-1.94Z"/><path id="_Path_8" data-name="&lt;Path&gt;" class="cls-31" d="M22,50.69s1.07-19.41,4.28-30.25c.23-.79,5.79-1.64,7.16-2.26V48.8C33.44,54.4,22,50.69,22,50.69Z"/><path class="cls-46" d="M30,25.93,24.74,27A213.6,213.6,0,0,0,22,50.69a26.35,26.35,0,0,0,7,1.2c-4.1,0-4.34-3.08-3.1-4s3.9-3,.73-5.36-3.6-5.79.21-9.52S30,25.93,30,25.93Z"/><path id="_Path_9" data-name="&lt;Path&gt;" class="cls-31" d="M33.44,19.23s-.16-7.63,1.33-9.41c2.13-2.55-8.06-1.59-8.58,12C26.2,21.78,30.23,23.43,33.44,19.23Z"/><path class="cls-47" d="M26.2,22.75a5,5,0,0,0,1.21.28L29,22.48a3.7,3.7,0,0,1-.6-4.07c1.16-2.19,4.29-2.32,2.53-3.47-1.61-1.06-.18-3.48.39-4.09C29,12.52,26.45,16.14,26.2,22.75Z"/><path id="_Path_10" data-name="&lt;Path&gt;" class="cls-31" d="M30.92,20.44S9.77,19.62,7,39.68H8.66s6.95-12.21,16.59-10.59a4.22,4.22,0,0,0,4.87-3.5Z"/><path class="cls-40" d="M7,39.68a6,6,0,0,0-.51,2.06s-.74-.6-.89-.26a1.48,1.48,0,0,0,1.23,1.66c1.14.31,2.2.06,2.17-1s-.74-1.89-.37-2.49"/><path class="cls-48" d="M35.46,14.29h.28a.36.36,0,0,1,.36.36v0a.11.11,0,0,1-.11.11h-.35a.32.32,0,0,1-.32-.32v0a.14.14,0,0,1,.14-.14Z" transform="translate(74.22 16.51) rotate(160.83)"/><path class="cls-33" d="M22.36,35.76s8.39-2.76,7.71-8.87-6.1-5.63-7.19-5.34a5.14,5.14,0,0,1,5-.81c3,1.07,5.9,5.6,3.37,10.94S19,39.52,19,39.52"/></g></g></svg>