<svg xmlns="http://www.w3.org/2000/svg" xmlns:xlink="http://www.w3.org/1999/xlink" viewBox="0 0 64 64"><defs><style>.cls-1{isolation:isolate;}.cls-2{fill:url(#linear-gradient);}.cls-3{fill:url(#linear-gradient-2);}.cls-4{fill:url(#linear-gradient-3);}.cls-5{fill:url(#linear-gradient-4);}.cls-6{fill:url(#linear-gradient-5);}.cls-7{fill:url(#linear-gradient-6);}.cls-8{fill:url(#linear-gradient-7);}.cls-9{fill:url(#linear-gradient-8);}.cls-10{fill:url(#linear-gradient-9);}.cls-11{fill:url(#linear-gradient-10);}.cls-12{fill:url(#linear-gradient-11);}.cls-13{fill:url(#linear-gradient-12);}.cls-14{fill:url(#linear-gradient-13);}.cls-15{fill:url(#linear-gradient-14);}.cls-16{fill:url(#linear-gradient-15);}.cls-17{fill:url(#linear-gradient-16);}.cls-18{fill:url(#linear-gradient-17);}.cls-19{fill:url(#linear-gradient-18);}.cls-20{fill:url(#linear-gradient-19);}.cls-21{fill:url(#linear-gradient-20);}.cls-22{fill:url(#linear-gradient-21);}.cls-23{fill:url(#linear-gradient-22);}.cls-24{fill:url(#linear-gradient-23);}.cls-25{fill:url(#linear-gradient-24);}.cls-26{fill:url(#linear-gradient-25);}.cls-27{fill:url(#linear-gradient-26);}.cls-28{fill:url(#linear-gradient-27);}.cls-29{fill:url(#linear-gradient-28);}.cls-30{fill:url(#linear-gradient-29);}.cls-31{fill:url(#linear-gradient-30);}.cls-32{fill:url(#linear-gradient-31);}.cls-33{fill:url(#linear-gradient-32);}.cls-34{fill:url(#linear-gradient-33);}.cls-35{fill:url(#linear-gradient-34);}.cls-36{fill:url(#linear-gradient-35);}.cls-37{fill:url(#linear-gradient-36);}.cls-38{fill:url(#linear-gradient-37);}.cls-39{fill:url(#linear-gradient-38);}.cls-40{fill:url(#linear-gradient-39);}.cls-41{fill:url(#linear-gradient-40);}.cls-42{fill:url(#linear-gradient-41);}.cls-43{fill:url(#linear-gradient-42);}.cls-44{fill:url(#linear-gradient-43);}.cls-45{fill:url(#linear-gradient-44);}.cls-46{fill:url(#linear-gradient-45);}.cls-47{fill:url(#linear-gradient-46);}.cls-48{fill:url(#linear-gradient-47);}.cls-49{fill:url(#linear-gradient-48);}.cls-50{fill:url(#linear-gradient-49);}.cls-51{fill:url(#linear-gradient-50);}.cls-52{fill:url(#linear-gradient-51);}.cls-53{fill:url(#linear-gradient-52);}.cls-54{fill:url(#linear-gradient-53);}.cls-55{fill:url(#linear-gradient-54);}.cls-56{fill:url(#linear-gradient-55);}.cls-57{fill:url(#linear-gradient-56);}.cls-58{fill:url(#linear-gradient-57);}.cls-59{fill:url(#linear-gradient-58);}.cls-60{fill:url(#linear-gradient-59);}.cls-61{fill:url(#linear-gradient-60);}.cls-62{opacity:0.49;mix-blend-mode:color-burn;fill:url(#linear-gradient-61);}.cls-63{fill:url(#linear-gradient-62);}.cls-64{fill:url(#linear-gradient-63);}.cls-65{fill:#15154c;}.cls-66{fill:url(#linear-gradient-64);}.cls-67{fill:url(#linear-gradient-65);}.cls-68{fill:url(#linear-gradient-66);}.cls-69{fill:#00a887;}.cls-70{fill:url(#linear-gradient-67);}.cls-71{fill:url(#linear-gradient-68);}.cls-72{fill:url(#linear-gradient-69);}.cls-73{fill:url(#linear-gradient-70);}.cls-74{fill:url(#linear-gradient-71);}.cls-75{fill:#f9aa8f;}.cls-76{fill:url(#linear-gradient-72);}.cls-77{fill:url(#linear-gradient-73);}.cls-78{fill:url(#linear-gradient-74);}.cls-79{fill:url(#linear-gradient-75);}.cls-80{fill:#f27c1c;}.cls-81{fill:url(#linear-gradient-76);}.cls-82{fill:url(#linear-gradient-77);}</style><linearGradient id="linear-gradient" x1="31.65" y1="97.25" x2="31.65" y2="9.14" gradientUnits="userSpaceOnUse"><stop offset="0" stop-color="#caf1d8"/><stop offset="0.51" stop-color="#7defa4"/><stop offset="1" stop-color="#2fbca4"/></linearGradient><linearGradient id="linear-gradient-2" x1="14.18" y1="49.06" x2="14.18" y2="-11.24" xlink:href="#linear-gradient"/><linearGradient id="linear-gradient-3" x1="1519.25" y1="33.76" x2="1519.25" y2="-11.25" gradientTransform="translate(-1504)" xlink:href="#linear-gradient"/><linearGradient id="linear-gradient-4" x1="1515.77" y1="33.76" x2="1515.77" y2="-11.25" gradientTransform="translate(-1504)" xlink:href="#linear-gradient"/><linearGradient id="linear-gradient-5" x1="1525.74" y1="33.76" x2="1525.74" y2="-11.25" gradientTransform="translate(-1504)" xlink:href="#linear-gradient"/><linearGradient id="linear-gradient-6" x1="1515.11" y1="33.76" x2="1515.11" y2="-11.25" gradientTransform="translate(-1504)" xlink:href="#linear-gradient"/><linearGradient id="linear-gradient-7" x1="14.18" y1="43.46" x2="14.18" y2="24.7" xlink:href="#linear-gradient"/><linearGradient id="linear-gradient-8" x1="1513.65" y1="39.36" x2="1513.65" y2="22.21" gradientTransform="translate(-1504)" xlink:href="#linear-gradient"/><linearGradient id="linear-gradient-9" x1="42.93" y1="49.06" x2="42.93" y2="-11.24" xlink:href="#linear-gradient"/><linearGradient id="linear-gradient-10" x1="52.25" y1="35.4" x2="52.25" y2="-3.69" xlink:href="#linear-gradient"/><linearGradient id="linear-gradient-11" x1="55.52" y1="32.49" x2="55.52" y2="5.75" xlink:href="#linear-gradient"/><linearGradient id="linear-gradient-12" x1="1538.58" y1="40.44" x2="1538.58" y2="-14.96" gradientTransform="translate(-1504)" xlink:href="#linear-gradient"/><linearGradient id="linear-gradient-13" x1="1536.47" y1="40.44" x2="1536.47" y2="-14.96" gradientTransform="translate(-1504)" xlink:href="#linear-gradient"/><linearGradient id="linear-gradient-14" x1="1542.48" y1="40.44" x2="1542.48" y2="-14.96" gradientTransform="translate(-1504)" xlink:href="#linear-gradient"/><linearGradient id="linear-gradient-15" x1="1550.59" y1="40.44" x2="1550.59" y2="-14.96" gradientTransform="translate(-1504)" xlink:href="#linear-gradient"/><linearGradient id="linear-gradient-16" x1="1551.8" y1="40.44" x2="1551.8" y2="-14.96" gradientTransform="translate(-1504)" xlink:href="#linear-gradient"/><linearGradient id="linear-gradient-17" x1="1533.85" y1="40.44" x2="1533.85" y2="-14.96" gradientTransform="translate(-1504)" xlink:href="#linear-gradient"/><linearGradient id="linear-gradient-18" x1="53.11" y1="38.94" x2="53.11" y2="20.63" xlink:href="#linear-gradient"/><linearGradient id="linear-gradient-19" x1="42.64" y1="45.94" x2="42.64" y2="15.07" xlink:href="#linear-gradient"/><linearGradient id="linear-gradient-20" x1="3334.44" y1="41.59" x2="3334.44" y2="13.52" gradientTransform="matrix(1, 0, 0, -1, -3281.04, 55.45)" xlink:href="#linear-gradient"/><linearGradient id="linear-gradient-21" x1="3335.61" y1="41.59" x2="3335.61" y2="13.52" gradientTransform="matrix(1, 0, 0, -1, -3283.39, 55.45)" xlink:href="#linear-gradient"/><linearGradient id="linear-gradient-22" x1="3336.79" y1="41.59" x2="3336.79" y2="13.52" gradientTransform="matrix(1, 0, 0, -1, -3285.74, 55.45)" xlink:href="#linear-gradient"/><linearGradient id="linear-gradient-23" x1="3337.96" y1="41.59" x2="3337.96" y2="13.52" gradientTransform="matrix(1, 0, 0, -1, -3288.09, 55.45)" xlink:href="#linear-gradient"/><linearGradient id="linear-gradient-24" x1="3339.14" y1="41.59" x2="3339.14" y2="13.52" gradientTransform="matrix(1, 0, 0, -1, -3290.44, 55.45)" xlink:href="#linear-gradient"/><linearGradient id="linear-gradient-25" x1="3334.44" y1="41.59" x2="3334.44" y2="13.52" gradientTransform="matrix(1, 0, 0, -1, -3281.04, 57.92)" xlink:href="#linear-gradient"/><linearGradient id="linear-gradient-26" x1="3335.61" y1="41.59" x2="3335.61" y2="13.52" gradientTransform="matrix(1, 0, 0, -1, -3283.39, 57.92)" xlink:href="#linear-gradient"/><linearGradient id="linear-gradient-27" x1="3336.79" y1="41.59" x2="3336.79" y2="13.52" gradientTransform="matrix(1, 0, 0, -1, -3285.74, 57.92)" xlink:href="#linear-gradient"/><linearGradient id="linear-gradient-28" x1="3337.96" y1="41.59" x2="3337.96" y2="13.52" gradientTransform="matrix(1, 0, 0, -1, -3288.09, 57.92)" xlink:href="#linear-gradient"/><linearGradient id="linear-gradient-29" x1="3339.14" y1="41.59" x2="3339.14" y2="13.52" gradientTransform="matrix(1, 0, 0, -1, -3290.44, 57.92)" xlink:href="#linear-gradient"/><linearGradient id="linear-gradient-30" x1="3334.44" y1="41.59" x2="3334.44" y2="13.52" gradientTransform="matrix(1, 0, 0, -1, -3281.04, 60.39)" xlink:href="#linear-gradient"/><linearGradient id="linear-gradient-31" x1="3335.61" y1="41.59" x2="3335.61" y2="13.52" gradientTransform="matrix(1, 0, 0, -1, -3283.39, 60.39)" xlink:href="#linear-gradient"/><linearGradient id="linear-gradient-32" x1="3336.79" y1="41.59" x2="3336.79" y2="13.52" gradientTransform="matrix(1, 0, 0, -1, -3285.74, 60.39)" xlink:href="#linear-gradient"/><linearGradient id="linear-gradient-33" x1="3337.96" y1="41.59" x2="3337.96" y2="13.52" gradientTransform="matrix(1, 0, 0, -1, -3288.09, 60.39)" xlink:href="#linear-gradient"/><linearGradient id="linear-gradient-34" x1="3339.14" y1="41.59" x2="3339.14" y2="13.52" gradientTransform="matrix(1, 0, 0, -1, -3290.44, 60.39)" xlink:href="#linear-gradient"/><linearGradient id="linear-gradient-35" x1="3334.44" y1="41.59" x2="3334.44" y2="13.52" gradientTransform="matrix(1, 0, 0, -1, -3281.04, 62.87)" xlink:href="#linear-gradient"/><linearGradient id="linear-gradient-36" x1="3335.61" y1="41.59" x2="3335.61" y2="13.52" gradientTransform="matrix(1, 0, 0, -1, -3283.39, 62.87)" xlink:href="#linear-gradient"/><linearGradient id="linear-gradient-37" x1="3336.79" y1="41.59" x2="3336.79" y2="13.52" gradientTransform="matrix(1, 0, 0, -1, -3285.74, 62.87)" xlink:href="#linear-gradient"/><linearGradient id="linear-gradient-38" x1="3337.96" y1="41.59" x2="3337.96" y2="13.52" gradientTransform="matrix(1, 0, 0, -1, -3288.09, 62.87)" xlink:href="#linear-gradient"/><linearGradient id="linear-gradient-39" x1="3339.14" y1="41.59" x2="3339.14" y2="13.52" gradientTransform="matrix(1, 0, 0, -1, -3290.44, 62.87)" xlink:href="#linear-gradient"/><linearGradient id="linear-gradient-40" x1="3334.44" y1="41.59" x2="3334.44" y2="13.52" gradientTransform="matrix(1, 0, 0, -1, -3281.04, 65.34)" xlink:href="#linear-gradient"/><linearGradient id="linear-gradient-41" x1="3335.61" y1="41.59" x2="3335.61" y2="13.52" gradientTransform="matrix(1, 0, 0, -1, -3283.39, 65.34)" xlink:href="#linear-gradient"/><linearGradient id="linear-gradient-42" x1="3336.79" y1="41.59" x2="3336.79" y2="13.52" gradientTransform="matrix(1, 0, 0, -1, -3285.74, 65.34)" xlink:href="#linear-gradient"/><linearGradient id="linear-gradient-43" x1="3337.96" y1="41.59" x2="3337.96" y2="13.52" gradientTransform="matrix(1, 0, 0, -1, -3288.09, 65.34)" xlink:href="#linear-gradient"/><linearGradient id="linear-gradient-44" x1="3339.14" y1="41.59" x2="3339.14" y2="13.52" gradientTransform="matrix(1, 0, 0, -1, -3290.44, 65.34)" xlink:href="#linear-gradient"/><linearGradient id="linear-gradient-45" x1="3334.44" y1="41.59" x2="3334.44" y2="13.52" gradientTransform="matrix(1, 0, 0, -1, -3281.04, 67.81)" xlink:href="#linear-gradient"/><linearGradient id="linear-gradient-46" x1="3335.61" y1="41.59" x2="3335.61" y2="13.52" gradientTransform="matrix(1, 0, 0, -1, -3283.39, 67.81)" xlink:href="#linear-gradient"/><linearGradient id="linear-gradient-47" x1="3336.79" y1="41.59" x2="3336.79" y2="13.52" gradientTransform="matrix(1, 0, 0, -1, -3285.74, 67.81)" xlink:href="#linear-gradient"/><linearGradient id="linear-gradient-48" x1="3337.96" y1="41.59" x2="3337.96" y2="13.52" gradientTransform="matrix(1, 0, 0, -1, -3288.09, 67.81)" xlink:href="#linear-gradient"/><linearGradient id="linear-gradient-49" x1="3339.14" y1="41.59" x2="3339.14" y2="13.52" gradientTransform="matrix(1, 0, 0, -1, -3290.44, 67.81)" xlink:href="#linear-gradient"/><linearGradient id="linear-gradient-50" x1="3334.44" y1="41.59" x2="3334.44" y2="13.52" gradientTransform="matrix(1, 0, 0, -1, -3281.04, 70.29)" xlink:href="#linear-gradient"/><linearGradient id="linear-gradient-51" x1="3335.61" y1="41.59" x2="3335.61" y2="13.52" gradientTransform="matrix(1, 0, 0, -1, -3283.39, 70.29)" xlink:href="#linear-gradient"/><linearGradient id="linear-gradient-52" x1="3336.79" y1="41.59" x2="3336.79" y2="13.52" gradientTransform="matrix(1, 0, 0, -1, -3285.74, 70.29)" xlink:href="#linear-gradient"/><linearGradient id="linear-gradient-53" x1="3337.96" y1="41.59" x2="3337.96" y2="13.52" gradientTransform="matrix(1, 0, 0, -1, -3288.09, 70.29)" xlink:href="#linear-gradient"/><linearGradient id="linear-gradient-54" x1="3339.14" y1="41.59" x2="3339.14" y2="13.52" gradientTransform="matrix(1, 0, 0, -1, -3290.44, 70.29)" xlink:href="#linear-gradient"/><linearGradient id="linear-gradient-55" x1="3334.44" y1="41.59" x2="3334.44" y2="13.52" gradientTransform="matrix(1, 0, 0, -1, -3281.04, 72.76)" xlink:href="#linear-gradient"/><linearGradient id="linear-gradient-56" x1="3335.61" y1="41.59" x2="3335.61" y2="13.52" gradientTransform="matrix(1, 0, 0, -1, -3283.39, 72.76)" xlink:href="#linear-gradient"/><linearGradient id="linear-gradient-57" x1="3336.79" y1="41.59" x2="3336.79" y2="13.52" gradientTransform="matrix(1, 0, 0, -1, -3285.74, 72.76)" xlink:href="#linear-gradient"/><linearGradient id="linear-gradient-58" x1="3337.96" y1="41.59" x2="3337.96" y2="13.52" gradientTransform="matrix(1, 0, 0, -1, -3288.09, 72.76)" xlink:href="#linear-gradient"/><linearGradient id="linear-gradient-59" x1="3339.14" y1="41.59" x2="3339.14" y2="13.52" gradientTransform="matrix(1, 0, 0, -1, -3290.44, 72.76)" xlink:href="#linear-gradient"/><linearGradient id="linear-gradient-60" x1="3346.55" y1="39.36" x2="3346.55" y2="22.21" gradientTransform="matrix(-1, 0, 0, 1, 3387.83, 0)" xlink:href="#linear-gradient"/><linearGradient id="linear-gradient-61" x1="3327.63" y1="28.38" x2="3327.63" y2="28.06" gradientTransform="matrix(-1, 0, 0, 1, 3387.83, 0)" xlink:href="#linear-gradient"/><linearGradient id="linear-gradient-62" x1="23.79" y1="3.4" x2="23.79" y2="9.2" xlink:href="#linear-gradient"/><linearGradient id="linear-gradient-63" x1="1527.79" y1="13.5" x2="1527.79" y2="-0.84" gradientTransform="translate(-1504)" xlink:href="#linear-gradient"/><linearGradient id="linear-gradient-64" x1="51.84" y1="47.23" x2="34.02" y2="52.93" gradientUnits="userSpaceOnUse"><stop offset="0" stop-color="#1c1651"/><stop offset="1" stop-color="#130f38"/></linearGradient><linearGradient id="linear-gradient-65" x1="6.33" y1="12.76" x2="68.95" y2="58.76" gradientUnits="userSpaceOnUse"><stop offset="0" stop-color="#af3e5e"/><stop offset="0.96" stop-color="#000741"/></linearGradient><linearGradient id="linear-gradient-66" x1="74.61" y1="54.12" x2="-6.64" y2="9.99" xlink:href="#linear-gradient-65"/><linearGradient id="linear-gradient-67" x1="54.68" y1="13.02" x2="33.75" y2="14.97" gradientUnits="userSpaceOnUse"><stop offset="0" stop-color="#00a887"/><stop offset="1" stop-color="#256351"/></linearGradient><linearGradient id="linear-gradient-68" x1="38.27" y1="33.26" x2="47.85" y2="49.84" xlink:href="#linear-gradient-67"/><linearGradient id="linear-gradient-69" x1="28.46" y1="42.31" x2="47.34" y2="75.01" xlink:href="#linear-gradient-67"/><linearGradient id="linear-gradient-70" x1="20.67" y1="41.47" x2="32.67" y2="62.26" xlink:href="#linear-gradient-67"/><linearGradient id="linear-gradient-71" x1="29.04" y1="38.59" x2="62.04" y2="95.75" gradientUnits="userSpaceOnUse"><stop offset="0" stop-color="#0d3d61"/><stop offset="1" stop-color="#053559"/></linearGradient><linearGradient id="linear-gradient-72" x1="18.29" y1="41.58" x2="31.13" y2="6.58" xlink:href="#linear-gradient-65"/><linearGradient id="linear-gradient-73" x1="38" y1="25.6" x2="28.71" y2="13.34" gradientUnits="userSpaceOnUse"><stop offset="0" stop-color="#f78e6b"/><stop offset="1" stop-color="#f9aa8f"/></linearGradient><linearGradient id="linear-gradient-74" x1="3.42" y1="16.72" x2="66.04" y2="62.72" xlink:href="#linear-gradient-65"/><linearGradient id="linear-gradient-75" x1="31.59" y1="15.34" x2="35.08" y2="2.83" xlink:href="#linear-gradient-73"/><linearGradient id="linear-gradient-76" x1="47.62" y1="21.1" x2="73.24" y2="33.1" gradientUnits="userSpaceOnUse"><stop offset="0" stop-color="#f56800"/><stop offset="0.06" stop-color="#f56d05"/><stop offset="0.45" stop-color="#f78926"/><stop offset="0.78" stop-color="#f99b3a"/><stop offset="1" stop-color="#f9a141"/></linearGradient><linearGradient id="linear-gradient-77" x1="9.81" y1="8.01" x2="72.44" y2="54.01" xlink:href="#linear-gradient-65"/></defs><title>cello</title><g class="cls-1"><g id="Layer_1" data-name="Layer 1"><circle class="cls-2" cx="31.65" cy="32" r="28"/><path class="cls-3" d="M22.93,16H8.69a28,28,0,0,0-4,23.65h20V17.75A1.78,1.78,0,0,0,22.93,16Z"/><path class="cls-4" d="M6.64,25.78A18,18,0,0,0,12,26c2-.41,3,.44,4.32-.14a2.34,2.34,0,0,1,2.84.74c.37.55,1.37,0,2.12.49a6.24,6.24,0,0,0,2.61.45S18.18,29.35,6.64,25.78Z"/><path class="cls-5" d="M7,21.68a8.22,8.22,0,0,0,3,.16c1.13-.28,1.65.31,2.43-.09a1.12,1.12,0,0,1,1.55.51c.18.38.77,0,1.16.34a2.83,2.83,0,0,0,1.44.31S13.26,24.13,7,21.68Z"/><path class="cls-6" d="M24.51,23.67s-3.78.62-5.54-.15A4.43,4.43,0,0,0,20.49,23a1.61,1.61,0,0,1,1.78,0c.39.38.58-.29,1,.07A4.73,4.73,0,0,0,24.51,23.67Z"/><path class="cls-7" d="M12.26,19.08a6.85,6.85,0,0,1-2.3-.55,2.39,2.39,0,0,0,.7,0,.81.81,0,0,1,.75.15c.12.16.28,0,.42.12A1.92,1.92,0,0,0,12.26,19.08Z"/><path class="cls-8" d="M20.17,27H16.81A3.08,3.08,0,0,0,13.74,30v1.83H10.39a.61.61,0,0,0-.61.61v3H5.56V34.32A.55.55,0,0,0,5,33.77H3.8V29.2c-.09.92-.16,1.86-.16,2.8A28,28,0,0,0,4.7,39.62h20V34.89H20.17Z"/><path class="cls-9" d="M10.39,31.88a.61.61,0,0,0-.61.61v3H5.56v.15a2.68,2.68,0,0,0,2.68,2.73h1.82V37.23h3.68V31.88Z"/><path class="cls-10" d="M59.65,32a27.86,27.86,0,0,0-5-16H28a1.78,1.78,0,0,0-1.78,1.78V39.62H58.59A28,28,0,0,0,59.65,32Z"/><path class="cls-11" d="M56.93,20q-.46-1-1-1.88a2.39,2.39,0,0,0-.48.52C54.55,20,51.36,22,47.56,23.31,47.56,23.31,51.62,22.16,56.93,20Z"/><path class="cls-12" d="M58.49,24.1c-.12-.4-.24-.79-.38-1.18a2.66,2.66,0,0,0-1.15.55,9.17,9.17,0,0,1-4.41,1.6A52.81,52.81,0,0,0,58.49,24.1Z"/><path class="cls-13" d="M43.19,25.78a18,18,0,0,1-5.33.22c-2-.41-3,.44-4.32-.14a2.34,2.34,0,0,0-2.84.74c-.37.55-1.37,0-2.12.49a6.24,6.24,0,0,1-2.61.45S31.65,29.35,43.19,25.78Z"/><path class="cls-14" d="M37.25,22.48a8.22,8.22,0,0,1-3,.16c-1.13-.28-1.65.31-2.43-.09a1.12,1.12,0,0,0-1.55.51c-.18.38-.77,0-1.16.34a2.83,2.83,0,0,1-1.44.31S31,24.93,37.25,22.48Z"/><path class="cls-15" d="M35.78,19.32s3.83-.13,5.4-1.23a4.43,4.43,0,0,1-1.59-.21,1.61,1.61,0,0,0-1.75.31c-.31.45-.62-.17-1,.27A4.73,4.73,0,0,1,35.78,19.32Z"/><path class="cls-16" d="M48.18,18.63a9.37,9.37,0,0,1-3.2.53,3.27,3.27,0,0,0,.86-.42,1.11,1.11,0,0,1,1-.21c.23.14.32-.21.59-.08A2.62,2.62,0,0,0,48.18,18.63Z"/><path class="cls-17" d="M49.39,25a9.37,9.37,0,0,1-3.2.53,3.27,3.27,0,0,0,.86-.42,1.11,1.11,0,0,1,1-.21c.23.14.32-.21.59-.08A2.62,2.62,0,0,0,49.39,25Z"/><path class="cls-18" d="M28.67,17.81A6.85,6.85,0,0,0,31,17.69a2.39,2.39,0,0,1-.68-.17.81.81,0,0,0-.77,0c-.15.14-.26-.1-.43,0A1.92,1.92,0,0,1,28.67,17.81Z"/><path class="cls-19" d="M59.65,32a28.17,28.17,0,0,0-.38-4.61,1.73,1.73,0,0,0-1.66,1.72v2.66H56.37v4H46.93l-.35,3.84h12A28,28,0,0,0,59.65,32Z"/><path class="cls-20" d="M59.06,37.72H55.13V27.06a.53.53,0,0,0-.53-.53H47.67a.53.53,0,0,0-.53.53v6.71h-1.2a.55.55,0,0,0-.55.55v1.15H41.15v-3a.61.61,0,0,0-.61-.61H37.2v-6.7a6.38,6.38,0,0,0-6.38-6.38h-.05V34.89H26.22v4.73H58.59C58.76,39,58.93,38.36,59.06,37.72Z"/><rect class="cls-21" x="53.06" y="27.38" width="0.68" height="0.68" rx="0.05" ry="0.05" transform="translate(106.79 55.45) rotate(-180)"/><rect class="cls-22" x="51.88" y="27.38" width="0.68" height="0.68" rx="0.05" ry="0.05" transform="translate(104.44 55.45) rotate(-180)"/><rect class="cls-23" x="50.71" y="27.38" width="0.68" height="0.68" rx="0.05" ry="0.05" transform="translate(102.09 55.45) rotate(-180)"/><rect class="cls-24" x="49.53" y="27.38" width="0.68" height="0.68" rx="0.05" ry="0.05" transform="translate(99.75 55.45) rotate(-180)"/><rect class="cls-25" x="48.36" y="27.38" width="0.68" height="0.68" rx="0.05" ry="0.05" transform="translate(97.4 55.45) rotate(-180)"/><rect class="cls-26" x="53.06" y="28.62" width="0.68" height="0.68" rx="0.05" ry="0.05" transform="translate(106.79 57.92) rotate(-180)"/><rect class="cls-27" x="51.88" y="28.62" width="0.68" height="0.68" rx="0.05" ry="0.05" transform="translate(104.44 57.92) rotate(-180)"/><rect class="cls-28" x="50.71" y="28.62" width="0.68" height="0.68" rx="0.05" ry="0.05" transform="translate(102.09 57.92) rotate(-180)"/><rect class="cls-29" x="49.53" y="28.62" width="0.68" height="0.68" rx="0.05" ry="0.05" transform="translate(99.75 57.92) rotate(-180)"/><rect class="cls-30" x="48.36" y="28.62" width="0.68" height="0.68" rx="0.05" ry="0.05" transform="translate(97.4 57.92) rotate(-180)"/><rect class="cls-31" x="53.06" y="29.86" width="0.68" height="0.68" rx="0.05" ry="0.05" transform="translate(106.79 60.39) rotate(-180)"/><rect class="cls-32" x="51.88" y="29.86" width="0.68" height="0.68" rx="0.05" ry="0.05" transform="translate(104.44 60.39) rotate(-180)"/><rect class="cls-33" x="50.71" y="29.86" width="0.68" height="0.68" rx="0.05" ry="0.05" transform="translate(102.09 60.39) rotate(-180)"/><rect class="cls-34" x="49.53" y="29.86" width="0.68" height="0.68" rx="0.05" ry="0.05" transform="translate(99.75 60.39) rotate(-180)"/><rect class="cls-35" x="48.36" y="29.86" width="0.68" height="0.68" rx="0.05" ry="0.05" transform="translate(97.4 60.39) rotate(-180)"/><rect class="cls-36" x="53.06" y="31.09" width="0.68" height="0.68" rx="0.05" ry="0.05" transform="translate(106.79 62.87) rotate(-180)"/><rect class="cls-37" x="51.88" y="31.09" width="0.68" height="0.68" rx="0.05" ry="0.05" transform="translate(104.44 62.87) rotate(-180)"/><rect class="cls-38" x="50.71" y="31.09" width="0.68" height="0.68" rx="0.05" ry="0.05" transform="translate(102.09 62.87) rotate(-180)"/><rect class="cls-39" x="49.53" y="31.09" width="0.68" height="0.68" rx="0.05" ry="0.05" transform="translate(99.75 62.87) rotate(-180)"/><rect class="cls-40" x="48.36" y="31.09" width="0.68" height="0.68" rx="0.05" ry="0.05" transform="translate(97.4 62.87) rotate(-180)"/><rect class="cls-41" x="53.06" y="32.33" width="0.68" height="0.68" rx="0.05" ry="0.05" transform="translate(106.79 65.34) rotate(-180)"/><rect class="cls-42" x="51.88" y="32.33" width="0.68" height="0.68" rx="0.05" ry="0.05" transform="translate(104.44 65.34) rotate(-180)"/><rect class="cls-43" x="50.71" y="32.33" width="0.68" height="0.68" rx="0.05" ry="0.05" transform="translate(102.09 65.34) rotate(-180)"/><rect class="cls-44" x="49.53" y="32.33" width="0.68" height="0.68" rx="0.05" ry="0.05" transform="translate(99.75 65.34) rotate(-180)"/><rect class="cls-45" x="48.36" y="32.33" width="0.68" height="0.68" rx="0.05" ry="0.05" transform="translate(97.4 65.34) rotate(-180)"/><rect class="cls-46" x="53.06" y="33.57" width="0.68" height="0.68" rx="0.05" ry="0.05" transform="translate(106.79 67.81) rotate(-180)"/><rect class="cls-47" x="51.88" y="33.57" width="0.68" height="0.68" rx="0.05" ry="0.05" transform="translate(104.44 67.81) rotate(-180)"/><rect class="cls-48" x="50.71" y="33.57" width="0.68" height="0.68" rx="0.05" ry="0.05" transform="translate(102.09 67.81) rotate(-180)"/><rect class="cls-49" x="49.53" y="33.57" width="0.68" height="0.68" rx="0.05" ry="0.05" transform="translate(99.75 67.81) rotate(-180)"/><rect class="cls-50" x="48.36" y="33.57" width="0.68" height="0.68" rx="0.05" ry="0.05" transform="translate(97.4 67.81) rotate(-180)"/><rect class="cls-51" x="53.06" y="34.8" width="0.68" height="0.68" rx="0.05" ry="0.05" transform="translate(106.79 70.29) rotate(-180)"/><rect class="cls-52" x="51.88" y="34.8" width="0.68" height="0.68" rx="0.05" ry="0.05" transform="translate(104.44 70.29) rotate(-180)"/><rect class="cls-53" x="50.71" y="34.8" width="0.68" height="0.68" rx="0.05" ry="0.05" transform="translate(102.09 70.29) rotate(-180)"/><rect class="cls-54" x="49.53" y="34.8" width="0.68" height="0.68" rx="0.05" ry="0.05" transform="translate(99.75 70.29) rotate(-180)"/><rect class="cls-55" x="48.36" y="34.8" width="0.68" height="0.68" rx="0.05" ry="0.05" transform="translate(97.4 70.29) rotate(-180)"/><rect class="cls-56" x="53.06" y="36.04" width="0.68" height="0.68" rx="0.05" ry="0.05" transform="translate(106.79 72.76) rotate(-180)"/><rect class="cls-57" x="51.88" y="36.04" width="0.68" height="0.68" rx="0.05" ry="0.05" transform="translate(104.44 72.76) rotate(-180)"/><rect class="cls-58" x="50.71" y="36.04" width="0.68" height="0.68" rx="0.05" ry="0.05" transform="translate(102.09 72.76) rotate(-180)"/><rect class="cls-59" x="49.53" y="36.04" width="0.68" height="0.68" rx="0.05" ry="0.05" transform="translate(99.75 72.76) rotate(-180)"/><rect class="cls-60" x="48.36" y="36.04" width="0.68" height="0.68" rx="0.05" ry="0.05" transform="translate(97.4 72.76) rotate(-180)"/><path class="cls-61" d="M40.54,31.88a.61.61,0,0,1,.61.61v3h4.22v.15a2.68,2.68,0,0,1-2.68,2.73H40.88V37.23H37.2V31.88Z"/><path class="cls-62" d="M60.34,28.21s0,.07-.11.12h-.07a.23.23,0,0,1-.12-.07A.9.9,0,0,1,60.34,28.21Z"/><path class="cls-63" d="M22.59,6.11a4,4,0,1,0,2.42,0,1.45,1.45,0,0,1-1-1.06l-.53.15A1.42,1.42,0,0,1,22.59,6.11Z"/><circle class="cls-64" cx="23.79" cy="9.96" r="4.04"/><path class="cls-65" d="M39.63,47.9S23.85,49.23,22.19,58.36a28,28,0,0,0,26.22-3.93,56.05,56.05,0,0,0-.1-13.78Z"/><path class="cls-66" d="M39.63,47.9A36.29,36.29,0,0,0,33.74,49c-.27.87.16,1.46,1.69,1.56,5.71.39,5.94,5.76,2.88,8.62a27.88,27.88,0,0,0,10.1-4.77,56,56,0,0,0-.1-13.78Z"/><path class="cls-67" d="M28.36,19.05s-2.76,7.42-2.6,13S24.41,45,23.8,48s22.69,4.11,24.54-1.15.62-31.6-9.64-32.07"/><path class="cls-68" d="M30,50.32h0c6.87.74,17.19,0,18.39-3.43,1.85-5.26.62-31.6-9.64-32.07l-6.94,2.84-1.61,7.23s7.36,8.37,3.9,13.5,1.06,6.4,4,7.52S36.54,49.79,30,50.32Z"/><path class="cls-69" d="M48.2,9.42c-.46.72-.73,1.23-.73,1.23L31.73,35.17a2,2,0,0,1-1.79.92c-2.29-.1-4.31.3-5.43,1.46A9.91,9.91,0,0,0,21.92,44v1S21.85,47.49,18,48.8a36,36,0,0,0-6.28,2.9A27.91,27.91,0,0,0,31.65,60c.66,0,1.31,0,2-.08,0-3.57.1-6.58,2.95-8,6.37-3.24,6.82-10.9,2.63-13.23-.3-.17-.63-.33-1-.49a2,2,0,0,1-.89-2.76L47,17.53a1.42,1.42,0,0,1,1-.74,1.45,1.45,0,0,0,.87-.5,10.51,10.51,0,0,1,3.68-2.87A28.15,28.15,0,0,0,48.2,9.42Z"/><path class="cls-69" d="M39.31,31.74,47,17.53a1.42,1.42,0,0,1,1-.74,1.45,1.45,0,0,0,.87-.5c.62-.72,3.19-3.57,5.44-3,2.74.64,4.1-6.6.82-8.66s-7.7,6.06-7.7,6.06l-12.84,20A39.26,39.26,0,0,1,39.31,31.74Z"/><path class="cls-69" d="M29.89,40.33c1.36.77,3.4.22,5.77,2.62s6.24,1.27,5.2,4.83c1.83-3.38,1.2-7.35-1.51-9l-9.47-.83S28.53,39.56,29.89,40.33Z"/><path class="cls-70" d="M48,16.79a1.45,1.45,0,0,0,.87-.5c.62-.72,3.19-3.57,5.44-3a1.4,1.4,0,0,0,.87-.07c-.38.1-.9-.13-1-1-.16-1.09,1.54-2.52-.46-2.82S47,17.53,47,17.53A1.42,1.42,0,0,1,48,16.79Z"/><polygon class="cls-71" points="38.38 33.44 38.38 33.45 38.38 33.44 38.38 33.44"/><path class="cls-72" d="M39.18,38.66c-.3-.17-.63-.33-1-.49a2,2,0,0,1-.92-2.71L24.49,59.07a28,28,0,0,0,7.15.93c.66,0,1.31,0,2-.08,0-3.57.1-6.58,2.95-8C42.92,48.65,43.37,41,39.18,38.66Z"/><path class="cls-73" d="M17.69,56.27l14-21.1a2,2,0,0,1-1.79.92,5,5,0,0,0-4.42,1.85A16.12,16.12,0,0,0,21.92,44v1S21.85,47.49,18,48.8A23.48,23.48,0,0,0,12,52,28.1,28.1,0,0,0,17.69,56.27Z"/><path class="cls-74" d="M33.36,46.07c-7.19.44-13,.73-13,.64s-2-.36,5.19-.8,20.84-.89,20.85-.8S40.55,45.63,33.36,46.07Z"/><path class="cls-75" d="M21.83,44.89s2.51-1,2.9-.72a4.8,4.8,0,0,1,.75,2.7c-.19.24-1.21,1.23-1.37.81h0a.75.75,0,0,0-.74-.48,8.94,8.94,0,0,1-2.61-.3c-2.12-.53-.62-2.66-.62-2.66"/><path class="cls-76" d="M27.81,20S14,30.53,13.72,38.05s7,8.84,7,8.84a1.73,1.73,0,0,1,1.07-2s-6.13-7,6-12.19"/><path class="cls-75" d="M38.82,12.16s-.61,2.53,1.27,3.49-3.2,6.49-8.16,9.67a1.28,1.28,0,0,1-1.78-.43,5.43,5.43,0,0,1-.72-4.35"/><path class="cls-77" d="M37.66,18.52a12.62,12.62,0,0,1-.77-4.05l-5.5,4.31-2,1.76a5.43,5.43,0,0,0,.72,4.35,1.28,1.28,0,0,0,1.78.43,33.08,33.08,0,0,0,4.55-3.55C36.61,21.62,38.32,19.8,37.66,18.52Z"/><path class="cls-78" d="M27.81,32.7V20S16.89,28.32,14.28,35.45c1.9-3.43,4.1.46,3.94,3.18s3.62,6.26,3.62,6.26S15.7,37.91,27.81,32.7Z"/><path class="cls-75" d="M29.73,8a12,12,0,0,1,.62,5.33c-.48,2.28,3.23,3.9,6,2.38s3.71-6.95,1.9-8.56S30.45,4.14,29.73,8Z"/><path class="cls-79" d="M34.45,7.15s-2.3-.42-4-.66A2.81,2.81,0,0,0,29.73,8s.16.46.34,1.15h0s.92.05,1.12.54a4.58,4.58,0,0,1-.08,2.08c-.06.37-.13.23-.39.28s-.18.46,0,.56.64.5.87-.2-.15-2.6,1-2.7,2.59,1.15,2,2.21-1.25.85-2,.69,1.25,2.93,1.25,2.93l2.05-1.34V10.43l-.18-2.31Z"/><path class="cls-80" d="M30.86,12.37a.53.53,0,0,0-.47.42,12.34,12.34,0,0,1-2.66,5.49c-2.21,2.41.51,4.51,3.54,4.82s6-1.91,5.69-6.85.21-7.3.92-6.74c.45.35.34,1.08.19,1.59a.72.72,0,0,0,.32.82l.41.25s1.43-3.06.71-5.53-6.27-2.92-8.77-2.26-3.44.1-2.87,2.41,4,1.86,4.82,1.64c1.08-.29,3.42-.53,2.8,2.79s-1.23,3.69-1.44,2.7S32.53,12.23,30.86,12.37Z"/><path class="cls-81" d="M37,16.25c-.31-4.94.21-7.3.92-6.74.45.35.34,1.08.19,1.59a.72.72,0,0,0,.32.82l.41.25a10.6,10.6,0,0,0,.91-4.26c0,.42-.18.7-.72,0-.7-.87-2.74-2.39-2.45-1.19S34,5,33.17,5.16s1.35,1.23,0,2.51a3.76,3.76,0,0,1-3.2.84,6.93,6.93,0,0,0,2.74-.09c1.08-.29,3.42-.53,2.8,2.79s-1.23,3.69-1.44,2.7-1.54-1.69-3.22-1.56a.51.51,0,0,0-.26.1c.75-.11,1.54.85,1,2.24s2.22,1.26,2.86,3.77S31,23.07,31,23.07l.29,0C34.3,23.41,37.27,21.2,37,16.25Z"/><path class="cls-82" d="M45.42,20.49,40,30.41s5.74,1.86,3.79,5.25S35.42,37,35.42,37l-1.85,2.15s11.79,7.9,16.4,0S45.42,20.49,45.42,20.49Z"/><path class="cls-75" d="M35.42,37s-.05-.07-.94-1-2.57-1.35-3.11-.86-2,2.68-1.68,3.07a.51.51,0,0,0,.49.17,3.59,3.59,0,0,1,1.51.15l2.05.7A2.24,2.24,0,0,0,35.42,37Z"/><circle class="cls-69" cx="48.01" cy="6.19" r="0.71"/><circle class="cls-69" cx="46.32" cy="8.51" r="0.71"/><circle class="cls-69" cx="44.63" cy="10.82" r="0.71"/><circle class="cls-69" cx="58.77" cy="11.83" r="0.71"/><circle class="cls-69" cx="57.08" cy="14.15" r="0.71"/><circle class="cls-69" cx="55.39" cy="16.46" r="0.71"/></g></g></svg>