<svg id="Layer_1" data-name="Layer 1" xmlns="http://www.w3.org/2000/svg" xmlns:xlink="http://www.w3.org/1999/xlink" viewBox="0 0 64 64"><defs><style>.cls-1{fill:url(#linear-gradient);}.cls-2{fill:url(#linear-gradient-2);}.cls-3{fill:url(#linear-gradient-3);}.cls-4{fill:url(#linear-gradient-4);}.cls-5{fill:url(#linear-gradient-5);}.cls-6{fill:url(#linear-gradient-6);}.cls-7{fill:url(#linear-gradient-7);}.cls-8{fill:url(#linear-gradient-8);}.cls-9{fill:url(#linear-gradient-9);}.cls-10{fill:url(#linear-gradient-10);}.cls-11{fill:url(#linear-gradient-11);}.cls-12{fill:url(#linear-gradient-12);}.cls-13{fill:url(#linear-gradient-13);}.cls-14{fill:url(#linear-gradient-14);}.cls-15{fill:url(#linear-gradient-15);}.cls-16{fill:url(#linear-gradient-16);}.cls-17{fill:#f27c1c;}.cls-18{fill:url(#linear-gradient-17);}.cls-19{fill:url(#linear-gradient-18);}.cls-20{fill:#f9aa8f;}.cls-21{fill:url(#linear-gradient-19);}.cls-22{fill:#3f4241;}.cls-23{fill:url(#linear-gradient-20);}.cls-24{fill:url(#linear-gradient-21);}.cls-25{fill:url(#linear-gradient-22);}.cls-26{fill:url(#linear-gradient-23);}.cls-27{fill:#dd6710;}.cls-28{fill:#db7d37;}.cls-29{fill:url(#linear-gradient-24);}.cls-30{fill:url(#linear-gradient-25);}.cls-31{fill:url(#linear-gradient-26);}.cls-32{fill:#f9a141;}.cls-33{fill:url(#linear-gradient-27);}</style><linearGradient id="linear-gradient" x1="32" y1="97.25" x2="32" y2="9.14" gradientUnits="userSpaceOnUse"><stop offset="0" stop-color="#fff"/><stop offset="0.84" stop-color="#cddfec"/></linearGradient><linearGradient id="linear-gradient-2" x1="32" y1="1381.9" x2="32" y2="-2671.02" gradientUnits="userSpaceOnUse"><stop offset="0.02" stop-color="#97efe7"/><stop offset="0.52" stop-color="#3db6d3"/><stop offset="1" stop-color="#3d6fd3"/></linearGradient><linearGradient id="linear-gradient-3" x1="33.68" y1="36.91" x2="33.68" y2="-42.61" xlink:href="#linear-gradient-2"/><linearGradient id="linear-gradient-4" x1="15.04" y1="43.43" x2="15.04" y2="-25.27" xlink:href="#linear-gradient-2"/><linearGradient id="linear-gradient-5" x1="33.09" y1="45.35" x2="33.09" y2="-39.57" xlink:href="#linear-gradient-2"/><linearGradient id="linear-gradient-6" x1="38.29" y1="64.77" x2="38.29" y2="18.27" xlink:href="#linear-gradient-2"/><linearGradient id="linear-gradient-7" x1="22.33" y1="64.5" x2="22.33" y2="18.78" xlink:href="#linear-gradient-2"/><linearGradient id="linear-gradient-8" x1="44.63" y1="24.01" x2="44.63" y2="-12.25" xlink:href="#linear-gradient-2"/><linearGradient id="linear-gradient-9" x1="50.22" y1="24.35" x2="50.22" y2="-8.58" xlink:href="#linear-gradient-2"/><linearGradient id="linear-gradient-10" x1="1155.51" y1="29.88" x2="1155.51" y2="-31.66" gradientTransform="matrix(-1, 0, 0, 1, 1176.22, 0)" xlink:href="#linear-gradient-2"/><linearGradient id="linear-gradient-11" x1="1150.75" y1="29.88" x2="1150.75" y2="-31.66" gradientTransform="matrix(-1, 0, 0, 1, 1176.22, 0)" xlink:href="#linear-gradient-2"/><linearGradient id="linear-gradient-12" x1="12.26" y1="29.88" x2="12.26" y2="-31.66" xlink:href="#linear-gradient-2"/><linearGradient id="linear-gradient-13" x1="1139.1" y1="29.88" x2="1139.1" y2="-31.66" gradientTransform="matrix(-1, 0, 0, 1, 1176.22, 0)" xlink:href="#linear-gradient-2"/><linearGradient id="linear-gradient-14" x1="1137.44" y1="29.88" x2="1137.44" y2="-31.66" gradientTransform="matrix(-1, 0, 0, 1, 1176.22, 0)" xlink:href="#linear-gradient-2"/><linearGradient id="linear-gradient-15" x1="1149.85" y1="29.88" x2="1149.85" y2="-31.66" gradientTransform="matrix(-1, 0, 0, 1, 1176.22, 0)" xlink:href="#linear-gradient-2"/><linearGradient id="linear-gradient-16" x1="50.36" y1="12.45" x2="50.36" y2="0.17" xlink:href="#linear-gradient"/><linearGradient id="linear-gradient-17" x1="16.72" y1="33.35" x2="16.38" y2="-0.79" gradientUnits="userSpaceOnUse"><stop offset="0" stop-color="#f27c1c"/><stop offset="0.42" stop-color="#ea6c18"/><stop offset="1" stop-color="#da4f11"/></linearGradient><linearGradient id="linear-gradient-18" x1="42.7" y1="29.54" x2="36.6" y2="6.66" xlink:href="#linear-gradient-17"/><linearGradient id="linear-gradient-19" x1="30.97" y1="17.55" x2="29.92" y2="3.38" gradientUnits="userSpaceOnUse"><stop offset="0" stop-color="#f78e6b"/><stop offset="1" stop-color="#f9aa8f"/></linearGradient><linearGradient id="linear-gradient-20" x1="30.65" y1="52.55" x2="32.43" y2="34.48" gradientUnits="userSpaceOnUse"><stop offset="0" stop-color="#3f4241"/><stop offset="1" stop-color="#2c2f2e"/></linearGradient><linearGradient id="linear-gradient-21" x1="30.17" y1="51.06" x2="30.17" y2="65.58" xlink:href="#linear-gradient-20"/><linearGradient id="linear-gradient-22" x1="24.59" y1="51.11" x2="26.24" y2="34.38" xlink:href="#linear-gradient-20"/><linearGradient id="linear-gradient-23" x1="30.16" y1="28.52" x2="37.58" y2="22.17" xlink:href="#linear-gradient-17"/><linearGradient id="linear-gradient-24" x1="56.55" y1="1.63" x2="52.55" y2="11.5" gradientUnits="userSpaceOnUse"><stop offset="0" stop-color="#3db6d3"/><stop offset="0.5" stop-color="#3d6fd3"/><stop offset="1" stop-color="#252784"/></linearGradient><linearGradient id="linear-gradient-25" x1="52.69" y1="16.27" x2="54.69" y2="4.19" xlink:href="#linear-gradient-24"/><linearGradient id="linear-gradient-26" x1="29.96" y1="12.61" x2="32.14" y2="-2.62" gradientUnits="userSpaceOnUse"><stop offset="0.12" stop-color="#db7d37"/><stop offset="1" stop-color="#db5e00"/></linearGradient><linearGradient id="linear-gradient-27" x1="25.15" y1="18.05" x2="31.03" y2="14.97" gradientUnits="userSpaceOnUse"><stop offset="0" stop-color="#dd6710"/><stop offset="0.41" stop-color="#d6610c"/><stop offset="1" stop-color="#c25200"/></linearGradient></defs><title>cheer</title><circle class="cls-1" cx="32" cy="32" r="28"/><circle class="cls-2" cx="32" cy="32" r="28"/><path class="cls-3" d="M32,60A28,28,0,0,0,59.53,37.1L48,24.52a2.35,2.35,0,0,0-3.29-.17L28.2,39a1.47,1.47,0,0,1-2,0l-4.18-3.85a1.71,1.71,0,0,0-2.32,0l-11.89,11A28,28,0,0,0,32,60Z"/><path class="cls-4" d="M19.72,39.07A4.72,4.72,0,0,0,21,35.88v-.2a.73.73,0,0,0-1.21-.55h0l-11.89,11a28.14,28.14,0,0,0,8.57,9.11l5.82-8.8-2.59-3A3.31,3.31,0,0,1,19.72,39.07Z"/><path class="cls-5" d="M52.44,36.66l-4.2-5.72a9.88,9.88,0,0,1-1.92-5.85,1,1,0,0,0-1.62-.75h0l-16,14.27-15.56,14A27.89,27.89,0,0,0,31.6,60l10-5.25,8-11a14.58,14.58,0,0,1,2.32-2.51A3.37,3.37,0,0,0,52.44,36.66Z"/><path class="cls-6" d="M47.69,54.28l-.84-1.52a.05.05,0,0,0-.09,0l-.84,1.52a.11.11,0,0,0,.07.16h0l-.3.54-.57-1h0a.19.19,0,0,0,.12-.27l-1.45-2.61a.09.09,0,0,0-.16,0l-1.45,2.61a.19.19,0,0,0,.12.27h0l-.39.7-.83-1.5a.26.26,0,0,0,.11-.36l-.74-1.33h0a.19.19,0,0,0,.12-.27l-1.45-2.61a.09.09,0,0,0-.16,0L37.51,51.2a.19.19,0,0,0,.12.27h0l-.74,1.33a.26.26,0,0,0,.11.36l-.47.84-.27-.48h0a.19.19,0,0,0,.12-.27l-1.45-2.61a.09.09,0,0,0-.16,0l-1.45,2.61a.19.19,0,0,0,.12.27h0l-.74,1.33a.26.26,0,0,0,.11.36l-.26.47-.3-.54a.15.15,0,0,0,.07-.21l-.43-.77h0A.11.11,0,0,0,32,54l-.84-1.52a.05.05,0,0,0-.09,0L30.19,54a.11.11,0,0,0,.07.16h0l-.43.77a.15.15,0,0,0,.07.21l-.56,1a.21.21,0,0,0,.07.28l-.71,1.28a.29.29,0,0,0,.19.42,9.78,9.78,0,0,0,2.57.24l-.7,1.26a.48.48,0,0,0,0,.31c.43,0,.87,0,1.31,0a28,28,0,0,0,6.71-.82l-.24-.43a16.83,16.83,0,0,0,1.89,0l0,0A27.88,27.88,0,0,0,47.94,55l-.32-.58h0A.11.11,0,0,0,47.69,54.28Z"/><path class="cls-7" d="M29.54,56.72a.21.21,0,0,0,.07-.28l-.56-1a.15.15,0,0,0,.07-.21l-.43-.77h0a.11.11,0,0,0,.07-.16l-.84-1.52a.05.05,0,0,0-.09,0L27,54.28a.11.11,0,0,0,.07.16h0l-.3.54-.57-1h0a.19.19,0,0,0,.12-.27l-1.45-2.61a.09.09,0,0,0-.16,0l-1.45,2.61a.19.19,0,0,0,.12.27h0l-.39.7-.83-1.5a.26.26,0,0,0,.11-.36l-.74-1.33h0a.19.19,0,0,0,.12-.27l-1.45-2.61a.09.09,0,0,0-.16,0L18.57,51.2a.19.19,0,0,0,.12.27h0l-.74,1.33a.26.26,0,0,0,.11.36l-.47.84-.27-.48h0a.19.19,0,0,0,.12-.27L16,50.64a.09.09,0,0,0-.16,0l-1.45,2.61a.19.19,0,0,0,.12.27h0l-.13.23a27.86,27.86,0,0,0,14.35,6l-.63-1.13a9.78,9.78,0,0,0,2-.25.29.29,0,0,0,.19-.42Z"/><path class="cls-8" d="M48.89,9.67C47.3,11.5,43.23,14,38.45,15.58c0,0,5.32-1.5,12.36-4.33C50.2,10.7,49.56,10.18,48.89,9.67Z"/><path class="cls-9" d="M54,14.73a7.06,7.06,0,0,0-2.71,1.08c-.8.81-3.26,1.8-6,2.19a72.94,72.94,0,0,0,9.87-1.75C54.79,15.73,54.42,15.22,54,14.73Z"/><path class="cls-10" d="M32.47,19s-4.61.86-7.29.29-4.09.61-5.9-.19a3.2,3.2,0,0,0-3.88,1c-.51.76-1.87,0-2.9.68s-3.57.62-3.57.62S16.71,23.84,32.47,19Z"/><path class="cls-11" d="M32,13.36a11.24,11.24,0,0,1-4.07.22c-1.54-.38-2.26.42-3.32-.12a1.53,1.53,0,0,0-2.12.69c-.24.52-1.05,0-1.59.47a3.86,3.86,0,0,1-2,.43S23.44,16.71,32,13.36Z"/><path class="cls-12" d="M15.63,15.88a6.06,6.06,0,0,1-2.08-.7,2.2,2.2,0,0,0-2.44-.05c-.53.52-.79-.4-1.39.1a3,3,0,0,1-.3.21l-.54.76C10.44,16.39,13.82,16.68,15.63,15.88Z"/><path class="cls-13" d="M39.3,9.18s-3,1-4.37.73a4.47,4.47,0,0,0,1.18-.57A1.51,1.51,0,0,1,37.51,9c.32.2.44-.28.8-.1A3.58,3.58,0,0,0,39.3,9.18Z"/><path class="cls-14" d="M41,18s-3,1-4.37.73a4.47,4.47,0,0,0,1.18-.57,1.51,1.51,0,0,1,1.4-.29c.32.2.44-.28.8-.1A3.58,3.58,0,0,0,41,18Z"/><path class="cls-15" d="M24.79,9.8a9.36,9.36,0,0,0,3.15-.75A3.27,3.27,0,0,1,27,9a1.1,1.1,0,0,0-1,.2c-.16.22-.38-.07-.57.16A2.62,2.62,0,0,1,24.79,9.8Z"/><path class="cls-16" d="M51.25,5.35A.89.89,0,1,0,49.78,6,.76.76,0,0,1,50,6.6v7h.64v-7A.78.78,0,0,1,51,6,.88.88,0,0,0,51.25,5.35Z"/><g id="_Group_" data-name="&lt;Group&gt;"><path id="_Path_" data-name="&lt;Path&gt;" class="cls-17" d="M25,16.51C15.82,19,9.6,10.07,9.6,10.07H8.31c5.51,16.34,13.74,18.44,13.74,18.44l4.31-2.08Z"/><path class="cls-18" d="M8.31,10.07c5.51,16.34,13.74,18.44,13.74,18.44l2.78-1.34-.47-10.51a7.81,7.81,0,0,0-3.28,4.63c-.63,3-4.49.89-5.58-2.32s-2,.17-3.3-2.05c-1-1.79-2.75-5.46-3.39-6.85Z"/><path id="_Path_2" data-name="&lt;Path&gt;" class="cls-17" d="M33.25,28.73S42.31,31,49.79,16H48.29a16.9,16.9,0,0,1-15.21,1.22l-7.55,3.47Z"/><path class="cls-19" d="M41.57,21.35c-1.76-1.54-4.44,4.27-5.63-.23a6.2,6.2,0,0,0-5.73-4.57L32,27.48l1.2,1.25s8.74,2.15,16.15-12C47.52,18.52,43,22.56,41.57,21.35Z"/><path class="cls-20" d="M31.13,5.72s-5-.48-3.56,5.7L27,15l1,3.07,3.72-2a3.09,3.09,0,0,1-1.33-1.83.63.63,0,0,1,.71-.77h0c1.48.23,2-1.48,2.18-2.16a.38.38,0,0,1,.35-.29h.09a.63.63,0,0,0,.59-.69C34.13,9.05,33.56,6.09,31.13,5.72Z"/><path class="cls-21" d="M34.24,10.63a.63.63,0,0,1-.6,0,2.4,2.4,0,0,1-.28-1.38c.08-.22.63-.36.63-.36a7.17,7.17,0,0,0-.27-.8L28.95,6.65l-1.2.79a5.89,5.89,0,0,0-.17,4L27,15l.19.61a4.73,4.73,0,0,0,1.36,0c.85-.19.43-.79.18-1.39s1.42-.66,2-.64h0a.63.63,0,0,1,.34,0,1.5,1.5,0,0,0,.84-.1c-1.06-.06-.69-1.29-.94-2.55s.68-1.43,1.39-1.45.59,1.4.93,1.85a.38.38,0,0,1,.32-.22h.09A.63.63,0,0,0,34.24,10.63Z"/><path class="cls-22" d="M28,39v.9l0,6v0l0,.33a64.08,64.08,0,0,1,.87,9,12.64,12.64,0,0,1-1.46,4.37,28.17,28.17,0,0,0,4.19.36A42.67,42.67,0,0,0,35,47.61a64.47,64.47,0,0,0,.53-7.46c0-1,0-1.63,0-1.63Z"/><path class="cls-23" d="M35.56,40.15A64.48,64.48,0,0,1,35,47.61a2.58,2.58,0,0,1-3.54.21c-2-1.75-3.39-1.5-3.39-1.5l0,0L28,46v0l0-6,7.14-1.16S35.32,39.33,35.56,40.15Z"/><path class="cls-24" d="M27.48,59.63a28.16,28.16,0,0,0,4.28.36,14.38,14.38,0,0,0,1.11-2.92c-1.3,1.76-2.62,1.77-3.07,1.09s-.88-5.07-1-6.4a24.23,24.23,0,0,1,.17,3.5A12.65,12.65,0,0,1,27.48,59.63Z"/><path class="cls-22" d="M21,38.55c0,4.76,1.68,13.36,3.2,20.35a27.84,27.84,0,0,0,4.18.87c-.14-6.57-.31-13.65-.31-13.65l2.55-7.56Z"/><path class="cls-25" d="M21.68,45.48c1.08.87,3.25,2.32,4.68,1.3a3.23,3.23,0,0,1,1.73-.46v-.22l2.55-7.56H21A54,54,0,0,0,21.68,45.48Z"/><path id="_Path_3" data-name="&lt;Path&gt;" class="cls-17" d="M35.93,39.22c-.82-18.56-2.44-22.91-7.85-22.91-4.55,0-4.07.27-7.56,21.56C20,40.91,23.46,44,28,44S36.07,42.32,35.93,39.22Z"/><path class="cls-26" d="M31,43.7c-.82.07-3-.43-3.32-7.55-.4-8.82,2.22-8.31.29-11.89a3.45,3.45,0,0,1,1.66-5.09l-4.49-2.24c-1.66,1.39-2.15,6-4.61,21C20,40.91,23.46,44,28,44A15.73,15.73,0,0,0,31,43.7Z"/><path id="_Path_4" data-name="&lt;Path&gt;" class="cls-27" d="M24.37,16.66a3.21,3.21,0,0,0,1.5-2.11.77.77,0,0,1,.29-.55c.24-.18.64-.25,1.23.34,1.07,1.07,3.53,0,3.53,0s.8-.34.91,1.06a2,2,0,0,0,1.25,1.78L31.4,18.4A4.38,4.38,0,0,1,25.8,18Z"/><path id="_Path_5" data-name="&lt;Path&gt;" class="cls-28" d="M35.23,6.8A1,1,0,0,0,35,6c-.55-.6-1.43-2.16-2.59-2-2.6.29-2.3,1.55-4,1.29s-2.35,2.19-2.19,3a20.57,20.57,0,0,0,1.32,3.1V9.67a1.37,1.37,0,0,1,1.93-1.28C30.46,8.68,35,9.48,35.23,6.8Z"/><path class="cls-20" d="M51.61,13.42c0-.28-.47-.45-.47-.45a2.73,2.73,0,0,0-1.15.23l0,0a2.23,2.23,0,0,1,.17-.44,1,1,0,0,0,0-.62A.23.23,0,0,0,49.8,12a7.06,7.06,0,0,1-.61.71,3.39,3.39,0,0,0-.52,1.78h0a3.4,3.4,0,0,1-.15.74l-.22.72H50.2c1.6,0,1.52-1.36,1.39-2A1.43,1.43,0,0,1,51.61,13.42Z"/><path id="_Path_6" data-name="&lt;Path&gt;" class="cls-20" d="M9.6,10.07,8.33,6.57s-1,.31,0,1.47c0,0-3.36-3.7-2.86-1.47s1.59,3.51,2.86,3.51"/></g><path class="cls-29" d="M55.07,7c-1.63-2.14-4.39-.65-4.39-.65v4a4.09,4.09,0,0,1,4.12-.74,2.56,2.56,0,0,0,2.51-.37A.63.63,0,0,0,57,8.11,2.62,2.62,0,0,1,55.07,7Z"/><path class="cls-30" d="M55.49,9.78a2.34,2.34,0,0,0,.56,0h.07a2.57,2.57,0,0,0,.5-.14l.08,0a3.18,3.18,0,0,0,.44-.23l.07,0,.14-.11a.62.62,0,0,0,.22-.53c-.42.24-.81.34-.89-.07a1.8,1.8,0,0,0-.3-.63l-.31-.14L56,7.8a2.71,2.71,0,0,1-.42-.3l0,0a3.38,3.38,0,0,1-.29-.29,1.83,1.83,0,0,1,.14,1.09c-.2.76-.35,0-.35,0-.34-.86-1.77,0-2-1.37s-2.34-.59-2.34-.59v4a4.09,4.09,0,0,1,4.12-.74,2.56,2.56,0,0,0,.64.16Z"/><path class="cls-31" d="M35.12,6.28c.14.78-1.57.24-2.44-1s-1.51,0-.51.81-.3,2.47-1.28,1.64-2.58.9-2.35.3-.32-.68-1.47-.79,0-1.43,0-1.43h0a3.49,3.49,0,0,0-.84,2.52,20.57,20.57,0,0,0,1.32,3.1V9.67a1.37,1.37,0,0,1,1.93-1.28c1,.28,5.51,1.09,5.76-1.59A1,1,0,0,0,35.12,6.28Z"/><circle class="cls-32" cx="28.21" cy="27.81" r="3.84"/><path class="cls-33" d="M30,18.1c-1.11-1.2.34-1.53.83-2s-.46-1.61-.46-1.61h0c-.78.25-2.25.58-3-.18-.59-.59-1-.52-1.23-.34a.77.77,0,0,0-.29.55,3.21,3.21,0,0,1-1.5,2.11L25.8,18a4.36,4.36,0,0,0,1.85,1l.27.07a4.39,4.39,0,0,0,1.7,0C30.18,19,30.61,18.73,30,18.1Z"/></svg>