<svg xmlns="http://www.w3.org/2000/svg" xmlns:xlink="http://www.w3.org/1999/xlink" viewBox="0 0 64 64"><defs><style>.cls-1{isolation:isolate;}.cls-2{fill:url(#linear-gradient);}.cls-3{fill:url(#linear-gradient-2);}.cls-4{fill:url(#linear-gradient-3);}.cls-5{fill:url(#linear-gradient-4);}.cls-6{fill:url(#linear-gradient-5);}.cls-7{fill:url(#linear-gradient-6);}.cls-8{fill:url(#linear-gradient-7);}.cls-9{fill:url(#linear-gradient-8);}.cls-10{fill:url(#linear-gradient-9);}.cls-11{fill:url(#linear-gradient-10);}.cls-12{fill:url(#linear-gradient-11);}.cls-13{fill:url(#linear-gradient-12);}.cls-14{fill:url(#linear-gradient-13);}.cls-15{fill:url(#linear-gradient-14);}.cls-16{fill:url(#linear-gradient-15);}.cls-17{fill:url(#linear-gradient-16);}.cls-18{fill:url(#linear-gradient-17);}.cls-19{fill:url(#linear-gradient-18);}.cls-20{fill:url(#linear-gradient-19);}.cls-21{fill:url(#linear-gradient-20);}.cls-22{fill:url(#linear-gradient-21);}.cls-23{fill:url(#linear-gradient-22);}.cls-24{fill:url(#linear-gradient-23);}.cls-25{fill:url(#linear-gradient-24);}.cls-26{fill:url(#linear-gradient-25);}.cls-27{fill:url(#linear-gradient-26);}.cls-28{fill:url(#linear-gradient-27);}.cls-29{fill:url(#linear-gradient-28);}.cls-30{fill:url(#linear-gradient-29);}.cls-31{fill:url(#linear-gradient-30);}.cls-32{fill:url(#linear-gradient-31);}.cls-33{fill:url(#linear-gradient-32);}.cls-34{fill:url(#linear-gradient-33);}.cls-35{fill:url(#linear-gradient-34);}.cls-36{fill:url(#linear-gradient-35);}.cls-37{fill:url(#linear-gradient-36);}.cls-38{fill:url(#linear-gradient-37);}.cls-39{fill:url(#linear-gradient-38);}.cls-40{fill:url(#linear-gradient-39);}.cls-41{fill:url(#linear-gradient-40);}.cls-42{fill:url(#linear-gradient-41);}.cls-43{fill:url(#linear-gradient-42);}.cls-44{fill:url(#linear-gradient-43);}.cls-45{fill:url(#linear-gradient-44);}.cls-46{fill:url(#linear-gradient-45);}.cls-47{fill:url(#linear-gradient-46);}.cls-48{fill:url(#linear-gradient-47);}.cls-49{fill:url(#linear-gradient-48);}.cls-50{fill:url(#linear-gradient-49);}.cls-51{fill:url(#linear-gradient-50);}.cls-52{fill:url(#linear-gradient-51);}.cls-53{fill:url(#linear-gradient-52);}.cls-54{fill:url(#linear-gradient-53);}.cls-55{fill:url(#linear-gradient-54);}.cls-56{fill:url(#linear-gradient-55);}.cls-57{fill:url(#linear-gradient-56);}.cls-58{fill:url(#linear-gradient-57);}.cls-59{fill:url(#linear-gradient-58);}.cls-60{fill:url(#linear-gradient-59);}.cls-61{fill:url(#linear-gradient-60);}.cls-62{fill:url(#linear-gradient-61);}.cls-63{fill:url(#linear-gradient-62);}.cls-64{fill:url(#linear-gradient-63);}.cls-65{fill:url(#linear-gradient-64);}.cls-66{fill:url(#linear-gradient-65);}.cls-67{fill:url(#linear-gradient-66);}.cls-68{fill:url(#linear-gradient-67);}.cls-69{opacity:0.49;mix-blend-mode:color-burn;fill:url(#linear-gradient-68);}.cls-70{fill:url(#linear-gradient-69);}.cls-71{fill:url(#linear-gradient-70);}.cls-72{fill:#f9aa8f;}.cls-73{fill:url(#linear-gradient-71);}.cls-74{fill:url(#linear-gradient-72);}.cls-75{fill:url(#linear-gradient-73);}.cls-76{fill:url(#linear-gradient-74);}.cls-77{fill:url(#linear-gradient-75);}.cls-78{fill:url(#linear-gradient-76);}.cls-79{fill:url(#linear-gradient-77);}.cls-80{fill:url(#linear-gradient-78);}.cls-81{fill:#ffe4d9;}.cls-82{fill:url(#linear-gradient-79);}.cls-83{fill:url(#linear-gradient-80);}.cls-84{fill:url(#linear-gradient-81);}.cls-85{fill:url(#linear-gradient-82);}.cls-86{fill:url(#linear-gradient-83);}</style><linearGradient id="linear-gradient" x1="32" y1="97.25" x2="32" y2="9.14" gradientUnits="userSpaceOnUse"><stop offset="0" stop-color="#d1efe7"/><stop offset="0.53" stop-color="#97efe7"/><stop offset="1" stop-color="#3ccbe3"/></linearGradient><linearGradient id="linear-gradient-2" x1="32" y1="51.67" x2="32" y2="11.21" xlink:href="#linear-gradient"/><linearGradient id="linear-gradient-3" x1="41.29" y1="29.11" x2="41.29" y2="-23.81" xlink:href="#linear-gradient"/><linearGradient id="linear-gradient-4" x1="48.51" y1="29.95" x2="48.51" y2="-22.06" xlink:href="#linear-gradient"/><linearGradient id="linear-gradient-5" x1="14.9" y1="34.85" x2="14.9" y2="-42.43" xlink:href="#linear-gradient"/><linearGradient id="linear-gradient-6" x1="16.51" y1="35.09" x2="16.51" y2="-43.57" xlink:href="#linear-gradient"/><linearGradient id="linear-gradient-7" x1="295.38" y1="35.09" x2="295.38" y2="-43.58" gradientTransform="matrix(-1, 0, 0, 1, 326.22, 0)" xlink:href="#linear-gradient"/><linearGradient id="linear-gradient-8" x1="293.26" y1="35.09" x2="293.26" y2="-43.58" gradientTransform="matrix(-1, 0, 0, 1, 326.22, 0)" gradientUnits="userSpaceOnUse"><stop offset="0" stop-color="#fff"/><stop offset="0.84" stop-color="#cddfec"/></linearGradient><linearGradient id="linear-gradient-9" x1="17.29" y1="34.1" x2="17.29" y2="-41.64" xlink:href="#linear-gradient"/><linearGradient id="linear-gradient-10" x1="44.41" y1="48.14" x2="44.41" y2="24.36" xlink:href="#linear-gradient"/><linearGradient id="linear-gradient-11" x1="31.4" y1="59.83" x2="31.4" y2="38.87" xlink:href="#linear-gradient"/><linearGradient id="linear-gradient-12" x1="285.41" y1="48.78" x2="285.41" y2="-0.28" gradientTransform="matrix(1, 0, 0, -1, -244.6, 36.11)" xlink:href="#linear-gradient"/><linearGradient id="linear-gradient-13" x1="287.46" y1="48.78" x2="287.46" y2="-0.28" gradientTransform="matrix(1, 0, 0, -1, -248.7, 36.11)" xlink:href="#linear-gradient"/><linearGradient id="linear-gradient-14" x1="289.51" y1="48.78" x2="289.51" y2="-0.28" gradientTransform="matrix(1, 0, 0, -1, -252.81, 36.11)" xlink:href="#linear-gradient"/><linearGradient id="linear-gradient-15" x1="291.56" y1="48.78" x2="291.56" y2="-0.28" gradientTransform="matrix(1, 0, 0, -1, -256.91, 36.11)" xlink:href="#linear-gradient"/><linearGradient id="linear-gradient-16" x1="293.62" y1="48.78" x2="293.62" y2="-0.28" gradientTransform="matrix(1, 0, 0, -1, -261.01, 36.11)" xlink:href="#linear-gradient"/><linearGradient id="linear-gradient-17" x1="285.41" y1="48.78" x2="285.41" y2="-0.28" gradientTransform="matrix(1, 0, 0, -1, -244.6, 40.44)" xlink:href="#linear-gradient"/><linearGradient id="linear-gradient-18" x1="287.46" y1="48.78" x2="287.46" y2="-0.28" gradientTransform="matrix(1, 0, 0, -1, -248.7, 40.44)" xlink:href="#linear-gradient"/><linearGradient id="linear-gradient-19" x1="289.51" y1="48.78" x2="289.51" y2="-0.28" gradientTransform="matrix(1, 0, 0, -1, -252.81, 40.44)" xlink:href="#linear-gradient"/><linearGradient id="linear-gradient-20" x1="291.56" y1="48.78" x2="291.56" y2="-0.28" gradientTransform="matrix(1, 0, 0, -1, -256.91, 40.44)" xlink:href="#linear-gradient"/><linearGradient id="linear-gradient-21" x1="293.62" y1="48.78" x2="293.62" y2="-0.28" gradientTransform="matrix(1, 0, 0, -1, -261.01, 40.44)" xlink:href="#linear-gradient"/><linearGradient id="linear-gradient-22" x1="285.41" y1="48.78" x2="285.41" y2="-0.28" gradientTransform="matrix(1, 0, 0, -1, -244.6, 44.76)" xlink:href="#linear-gradient"/><linearGradient id="linear-gradient-23" x1="287.46" y1="48.78" x2="287.46" y2="-0.28" gradientTransform="matrix(1, 0, 0, -1, -248.7, 44.76)" xlink:href="#linear-gradient"/><linearGradient id="linear-gradient-24" x1="289.51" y1="48.78" x2="289.51" y2="-0.28" gradientTransform="matrix(1, 0, 0, -1, -252.81, 44.76)" xlink:href="#linear-gradient"/><linearGradient id="linear-gradient-25" x1="291.56" y1="48.78" x2="291.56" y2="-0.28" gradientTransform="matrix(1, 0, 0, -1, -256.91, 44.76)" xlink:href="#linear-gradient"/><linearGradient id="linear-gradient-26" x1="293.62" y1="48.78" x2="293.62" y2="-0.28" gradientTransform="matrix(1, 0, 0, -1, -261.01, 44.76)" xlink:href="#linear-gradient"/><linearGradient id="linear-gradient-27" x1="285.41" y1="48.78" x2="285.41" y2="-0.28" gradientTransform="matrix(1, 0, 0, -1, -244.6, 49.08)" xlink:href="#linear-gradient"/><linearGradient id="linear-gradient-28" x1="287.46" y1="48.78" x2="287.46" y2="-0.28" gradientTransform="matrix(1, 0, 0, -1, -248.7, 49.08)" xlink:href="#linear-gradient"/><linearGradient id="linear-gradient-29" x1="289.51" y1="48.78" x2="289.51" y2="-0.28" gradientTransform="matrix(1, 0, 0, -1, -252.81, 49.08)" xlink:href="#linear-gradient"/><linearGradient id="linear-gradient-30" x1="291.56" y1="48.78" x2="291.56" y2="-0.28" gradientTransform="matrix(1, 0, 0, -1, -256.91, 49.08)" xlink:href="#linear-gradient"/><linearGradient id="linear-gradient-31" x1="293.62" y1="48.78" x2="293.62" y2="-0.28" gradientTransform="matrix(1, 0, 0, -1, -261.01, 49.08)" xlink:href="#linear-gradient"/><linearGradient id="linear-gradient-32" x1="285.41" y1="48.78" x2="285.41" y2="-0.28" gradientTransform="matrix(1, 0, 0, -1, -244.6, 53.4)" xlink:href="#linear-gradient"/><linearGradient id="linear-gradient-33" x1="287.46" y1="48.78" x2="287.46" y2="-0.28" gradientTransform="matrix(1, 0, 0, -1, -248.7, 53.4)" xlink:href="#linear-gradient"/><linearGradient id="linear-gradient-34" x1="289.51" y1="48.78" x2="289.51" y2="-0.28" gradientTransform="matrix(1, 0, 0, -1, -252.81, 53.4)" xlink:href="#linear-gradient"/><linearGradient id="linear-gradient-35" x1="291.56" y1="48.78" x2="291.56" y2="-0.28" gradientTransform="matrix(1, 0, 0, -1, -256.91, 53.4)" xlink:href="#linear-gradient"/><linearGradient id="linear-gradient-36" x1="293.62" y1="48.78" x2="293.62" y2="-0.28" gradientTransform="matrix(1, 0, 0, -1, -261.01, 53.4)" xlink:href="#linear-gradient"/><linearGradient id="linear-gradient-37" x1="285.41" y1="48.78" x2="285.41" y2="-0.28" gradientTransform="matrix(1, 0, 0, -1, -244.6, 57.73)" xlink:href="#linear-gradient"/><linearGradient id="linear-gradient-38" x1="287.46" y1="48.78" x2="287.46" y2="-0.28" gradientTransform="matrix(1, 0, 0, -1, -248.7, 57.73)" xlink:href="#linear-gradient"/><linearGradient id="linear-gradient-39" x1="289.51" y1="48.78" x2="289.51" y2="-0.28" gradientTransform="matrix(1, 0, 0, -1, -252.81, 57.73)" xlink:href="#linear-gradient"/><linearGradient id="linear-gradient-40" x1="291.56" y1="48.78" x2="291.56" y2="-0.28" gradientTransform="matrix(1, 0, 0, -1, -256.91, 57.73)" xlink:href="#linear-gradient"/><linearGradient id="linear-gradient-41" x1="293.62" y1="48.78" x2="293.62" y2="-0.28" gradientTransform="matrix(1, 0, 0, -1, -261.01, 57.73)" xlink:href="#linear-gradient"/><linearGradient id="linear-gradient-42" x1="285.41" y1="48.78" x2="285.41" y2="-0.28" gradientTransform="matrix(1, 0, 0, -1, -244.6, 62.05)" xlink:href="#linear-gradient"/><linearGradient id="linear-gradient-43" x1="287.46" y1="48.78" x2="287.46" y2="-0.28" gradientTransform="matrix(1, 0, 0, -1, -248.7, 62.05)" xlink:href="#linear-gradient"/><linearGradient id="linear-gradient-44" x1="289.51" y1="48.78" x2="289.51" y2="-0.28" gradientTransform="matrix(1, 0, 0, -1, -252.81, 62.05)" xlink:href="#linear-gradient"/><linearGradient id="linear-gradient-45" x1="291.56" y1="48.78" x2="291.56" y2="-0.28" gradientTransform="matrix(1, 0, 0, -1, -256.91, 62.05)" xlink:href="#linear-gradient"/><linearGradient id="linear-gradient-46" x1="293.62" y1="48.78" x2="293.62" y2="-0.28" gradientTransform="matrix(1, 0, 0, -1, -261.01, 62.05)" xlink:href="#linear-gradient"/><linearGradient id="linear-gradient-47" x1="285.41" y1="48.78" x2="285.41" y2="-0.28" gradientTransform="matrix(1, 0, 0, -1, -244.6, 66.37)" xlink:href="#linear-gradient"/><linearGradient id="linear-gradient-48" x1="287.46" y1="48.78" x2="287.46" y2="-0.28" gradientTransform="matrix(1, 0, 0, -1, -248.7, 66.37)" xlink:href="#linear-gradient"/><linearGradient id="linear-gradient-49" x1="289.51" y1="48.78" x2="289.51" y2="-0.28" gradientTransform="matrix(1, 0, 0, -1, -252.81, 66.37)" xlink:href="#linear-gradient"/><linearGradient id="linear-gradient-50" x1="291.56" y1="48.78" x2="291.56" y2="-0.28" gradientTransform="matrix(1, 0, 0, -1, -256.91, 66.37)" xlink:href="#linear-gradient"/><linearGradient id="linear-gradient-51" x1="293.62" y1="48.78" x2="293.62" y2="-0.28" gradientTransform="matrix(1, 0, 0, -1, -261.01, 66.37)" xlink:href="#linear-gradient"/><linearGradient id="linear-gradient-52" x1="285.41" y1="48.78" x2="285.41" y2="-0.28" gradientTransform="matrix(1, 0, 0, -1, -244.6, 70.69)" xlink:href="#linear-gradient"/><linearGradient id="linear-gradient-53" x1="287.46" y1="48.78" x2="287.46" y2="-0.28" gradientTransform="matrix(1, 0, 0, -1, -248.7, 70.69)" xlink:href="#linear-gradient"/><linearGradient id="linear-gradient-54" x1="289.51" y1="48.78" x2="289.51" y2="-0.28" gradientTransform="matrix(1, 0, 0, -1, -252.81, 70.69)" xlink:href="#linear-gradient"/><linearGradient id="linear-gradient-55" x1="291.56" y1="48.78" x2="291.56" y2="-0.28" gradientTransform="matrix(1, 0, 0, -1, -256.91, 70.69)" xlink:href="#linear-gradient"/><linearGradient id="linear-gradient-56" x1="293.62" y1="48.78" x2="293.62" y2="-0.28" gradientTransform="matrix(1, 0, 0, -1, -261.01, 70.69)" xlink:href="#linear-gradient"/><linearGradient id="linear-gradient-57" x1="285.41" y1="48.78" x2="285.41" y2="-0.28" gradientTransform="matrix(1, 0, 0, -1, -244.6, 75.01)" xlink:href="#linear-gradient"/><linearGradient id="linear-gradient-58" x1="287.46" y1="48.78" x2="287.46" y2="-0.28" gradientTransform="matrix(1, 0, 0, -1, -248.7, 75.01)" xlink:href="#linear-gradient"/><linearGradient id="linear-gradient-59" x1="289.51" y1="48.78" x2="289.51" y2="-0.28" gradientTransform="matrix(1, 0, 0, -1, -252.81, 75.01)" xlink:href="#linear-gradient"/><linearGradient id="linear-gradient-60" x1="291.56" y1="48.78" x2="291.56" y2="-0.28" gradientTransform="matrix(1, 0, 0, -1, -256.91, 75.01)" xlink:href="#linear-gradient"/><linearGradient id="linear-gradient-61" x1="293.62" y1="48.78" x2="293.62" y2="-0.28" gradientTransform="matrix(1, 0, 0, -1, -261.01, 75.01)" xlink:href="#linear-gradient"/><linearGradient id="linear-gradient-62" x1="285.41" y1="48.78" x2="285.41" y2="-0.28" gradientTransform="matrix(1, 0, 0, -1, -244.6, 79.34)" xlink:href="#linear-gradient"/><linearGradient id="linear-gradient-63" x1="287.46" y1="48.78" x2="287.46" y2="-0.28" gradientTransform="matrix(1, 0, 0, -1, -248.7, 79.34)" xlink:href="#linear-gradient"/><linearGradient id="linear-gradient-64" x1="289.51" y1="48.78" x2="289.51" y2="-0.28" gradientTransform="matrix(1, 0, 0, -1, -252.81, 79.34)" xlink:href="#linear-gradient"/><linearGradient id="linear-gradient-65" x1="291.56" y1="48.78" x2="291.56" y2="-0.28" gradientTransform="matrix(1, 0, 0, -1, -256.91, 79.34)" xlink:href="#linear-gradient"/><linearGradient id="linear-gradient-66" x1="293.62" y1="48.78" x2="293.62" y2="-0.28" gradientTransform="matrix(1, 0, 0, -1, -261.01, 79.34)" xlink:href="#linear-gradient"/><linearGradient id="linear-gradient-67" x1="306.57" y1="48.83" x2="306.57" y2="19.16" gradientTransform="matrix(-1, 0, 0, 1, 326.22, 0)" xlink:href="#linear-gradient"/><linearGradient id="linear-gradient-68" x1="273.51" y1="25.69" x2="273.51" y2="25.13" xlink:href="#linear-gradient-8"/><linearGradient id="linear-gradient-69" x1="32" y1="65" x2="32" y2="9.3" gradientUnits="userSpaceOnUse"><stop offset="0" stop-color="#3db6d3"/><stop offset="0.5" stop-color="#3d6fd3"/><stop offset="1" stop-color="#252784"/></linearGradient><linearGradient id="linear-gradient-70" x1="36.51" y1="16.07" x2="40.22" y2="16.07" gradientUnits="userSpaceOnUse"><stop offset="0" stop-color="#1a305d"/><stop offset="0.76" stop-color="#03153b"/></linearGradient><linearGradient id="linear-gradient-71" x1="49.96" y1="37.16" x2="42.06" y2="12.84" gradientUnits="userSpaceOnUse"><stop offset="0" stop-color="#fbc19e"/><stop offset="0.48" stop-color="#ffb699"/><stop offset="1" stop-color="#f47e6d"/></linearGradient><linearGradient id="linear-gradient-72" x1="28.19" y1="35.9" x2="23.93" y2="26.58" xlink:href="#linear-gradient-71"/><linearGradient id="linear-gradient-73" x1="31.63" y1="13.39" x2="36.56" y2="20.97" xlink:href="#linear-gradient-71"/><linearGradient id="linear-gradient-74" x1="36.13" y1="12.58" x2="37.82" y2="20.43" xlink:href="#linear-gradient-71"/><linearGradient id="linear-gradient-75" x1="37.54" y1="12.27" x2="39.24" y2="20.12" xlink:href="#linear-gradient-71"/><linearGradient id="linear-gradient-76" x1="31.38" y1="82.91" x2="36.13" y2="39.91" xlink:href="#linear-gradient-69"/><linearGradient id="linear-gradient-77" x1="45.32" y1="71.26" x2="38.82" y2="25.43" xlink:href="#linear-gradient-69"/><linearGradient id="linear-gradient-78" x1="36.57" y1="17.49" x2="34.16" y2="46.49" gradientUnits="userSpaceOnUse"><stop offset="0" stop-color="#fba680"/><stop offset="0.52" stop-color="#ef5048"/><stop offset="1" stop-color="#971434"/></linearGradient><linearGradient id="linear-gradient-79" x1="6.56" y1="19.41" x2="14.51" y2="59.58" gradientTransform="translate(15.91 -0.81) rotate(24.81)" gradientUnits="userSpaceOnUse"><stop offset="0.28" stop-color="#249380"/><stop offset="0.55" stop-color="#007377"/></linearGradient><linearGradient id="linear-gradient-80" x1="56.66" y1="-2.23" x2="46.8" y2="24.11" gradientTransform="matrix(1, 0, 0, 1, 0, 0)" xlink:href="#linear-gradient-79"/><linearGradient id="linear-gradient-81" x1="33.77" y1="14.67" x2="33.77" y2="46.11" xlink:href="#linear-gradient-78"/><linearGradient id="linear-gradient-82" x1="30.47" y1="17.04" x2="40.09" y2="17.04" xlink:href="#linear-gradient-70"/><linearGradient id="linear-gradient-83" x1="33.87" y1="20.63" x2="34.16" y2="14.43" xlink:href="#linear-gradient-70"/></defs><title>cheerleading</title><g class="cls-1"><g id="Layer_1" data-name="Layer 1"><circle class="cls-2" cx="32" cy="32" r="28"/><path class="cls-3" d="M4,32A27.87,27.87,0,0,0,7.37,45.33H56.63A28,28,0,1,0,4,32Z"/><path class="cls-4" d="M46.74,8.2a4.34,4.34,0,0,0-.38.48C44.75,11,39.18,14.6,32.54,16.82A177.1,177.1,0,0,0,50,10.6,28.08,28.08,0,0,0,46.74,8.2Z"/><path class="cls-5" d="M54,14.74a5.47,5.47,0,0,0-1,.71c-.61.52-3,.62-4,1.65s-4.16,2.31-7.71,2.8a93.24,93.24,0,0,0,14.48-2.73A28.05,28.05,0,0,0,54,14.74Z"/><path class="cls-6" d="M24.9,21.15s-5.89,1.1-9.32.38-5.22.78-7.54-.24a4.1,4.1,0,0,0-1.76-.36,27.78,27.78,0,0,0-1.39,4A81.33,81.33,0,0,0,24.9,21.15Z"/><path class="cls-7" d="M24.29,14a14.37,14.37,0,0,1-5.2.28c-2-.48-2.88.54-4.24-.15a2,2,0,0,0-2.7.89c-.31.66-1.34,0-2,.59A2.42,2.42,0,0,1,9,16l-.27.39C10.91,16.8,16.17,17.15,24.29,14Z"/><path class="cls-8" d="M33.63,8.64S29.85,9.9,28,9.57a5.71,5.71,0,0,0,1.5-.73,1.93,1.93,0,0,1,1.79-.37c.41.25.57-.36,1-.13A4.58,4.58,0,0,0,33.63,8.64Z"/><path class="cls-9" d="M35.75,19.85s-3.78,1.26-5.58.93a5.71,5.71,0,0,0,1.5-.73,1.93,1.93,0,0,1,1.79-.37c.41.25.57-.36,1-.13A4.58,4.58,0,0,0,35.75,19.85Z"/><path class="cls-10" d="M16.57,8.66a.24.24,0,0,1-.21.11c-.29.2-.58.41-.87.62a10.29,10.29,0,0,0,3.62-.92,4.18,4.18,0,0,1-1.22-.07,1.64,1.64,0,0,0-1.06.07l-.05,0A.59.59,0,0,0,16.57,8.66Z"/><path class="cls-11" d="M59.91,34.17h-5.7V27a3,3,0,0,0-6,0v4.65H46v7H29.52l-.61,6.7H56.63A27.83,27.83,0,0,0,59.91,34.17Z"/><path class="cls-12" d="M58.8,40.1H53.53V42H43.85V15.87a.93.93,0,0,0-.93-.93H30.8a.93.93,0,0,0-.93.93V35.1h-2.1a1,1,0,0,0-1,1v2H19.42V32.88a1.07,1.07,0,0,0-1.07-1.07H12.5V28.61a5.38,5.38,0,0,0-5.38-5.38H5.41a28,28,0,0,0,2,22.11H56.63A27.83,27.83,0,0,0,58.8,40.1Z"/><rect class="cls-13" x="40.22" y="17.46" width="1.18" height="1.18" rx="0.09" ry="0.09" transform="translate(81.62 36.11) rotate(-180)"/><rect class="cls-14" x="38.17" y="17.46" width="1.18" height="1.18" rx="0.09" ry="0.09" transform="translate(77.52 36.11) rotate(-180)"/><rect class="cls-15" x="36.11" y="17.46" width="1.18" height="1.18" rx="0.09" ry="0.09" transform="translate(73.41 36.11) rotate(-180)"/><rect class="cls-16" x="34.06" y="17.46" width="1.18" height="1.18" rx="0.09" ry="0.09" transform="translate(69.31 36.11) rotate(-180)"/><rect class="cls-17" x="32.01" y="17.46" width="1.18" height="1.18" rx="0.09" ry="0.09" transform="translate(65.21 36.11) rotate(-180)"/><rect class="cls-18" x="40.22" y="19.63" width="1.18" height="1.18" rx="0.09" ry="0.09" transform="translate(81.62 40.44) rotate(-180)"/><rect class="cls-19" x="38.17" y="19.63" width="1.18" height="1.18" rx="0.09" ry="0.09" transform="translate(77.52 40.44) rotate(-180)"/><rect class="cls-20" x="36.11" y="19.63" width="1.18" height="1.18" rx="0.09" ry="0.09" transform="translate(73.41 40.44) rotate(-180)"/><rect class="cls-21" x="34.06" y="19.63" width="1.18" height="1.18" rx="0.09" ry="0.09" transform="translate(69.31 40.44) rotate(-180)"/><rect class="cls-22" x="32.01" y="19.63" width="1.18" height="1.18" rx="0.09" ry="0.09" transform="translate(65.21 40.44) rotate(-180)"/><rect class="cls-23" x="40.22" y="21.79" width="1.18" height="1.18" rx="0.09" ry="0.09" transform="translate(81.62 44.76) rotate(-180)"/><rect class="cls-24" x="38.17" y="21.79" width="1.18" height="1.18" rx="0.09" ry="0.09" transform="translate(77.52 44.76) rotate(-180)"/><rect class="cls-25" x="36.11" y="21.79" width="1.18" height="1.18" rx="0.09" ry="0.09" transform="translate(73.41 44.76) rotate(-180)"/><rect class="cls-26" x="34.06" y="21.79" width="1.18" height="1.18" rx="0.09" ry="0.09" transform="translate(69.31 44.76) rotate(-180)"/><rect class="cls-27" x="32.01" y="21.79" width="1.18" height="1.18" rx="0.09" ry="0.09" transform="translate(65.21 44.76) rotate(-180)"/><rect class="cls-28" x="40.22" y="23.95" width="1.18" height="1.18" rx="0.09" ry="0.09" transform="translate(81.62 49.08) rotate(-180)"/><rect class="cls-29" x="38.17" y="23.95" width="1.18" height="1.18" rx="0.09" ry="0.09" transform="translate(77.52 49.08) rotate(-180)"/><rect class="cls-30" x="36.11" y="23.95" width="1.18" height="1.18" rx="0.09" ry="0.09" transform="translate(73.41 49.08) rotate(-180)"/><rect class="cls-31" x="34.06" y="23.95" width="1.18" height="1.18" rx="0.09" ry="0.09" transform="translate(69.31 49.08) rotate(-180)"/><rect class="cls-32" x="32.01" y="23.95" width="1.18" height="1.18" rx="0.09" ry="0.09" transform="translate(65.21 49.08) rotate(-180)"/><rect class="cls-33" x="40.22" y="26.11" width="1.18" height="1.18" rx="0.09" ry="0.09" transform="translate(81.62 53.4) rotate(-180)"/><rect class="cls-34" x="38.17" y="26.11" width="1.18" height="1.18" rx="0.09" ry="0.09" transform="translate(77.52 53.4) rotate(-180)"/><rect class="cls-35" x="36.11" y="26.11" width="1.18" height="1.18" rx="0.09" ry="0.09" transform="translate(73.41 53.4) rotate(-180)"/><rect class="cls-36" x="34.06" y="26.11" width="1.18" height="1.18" rx="0.09" ry="0.09" transform="translate(69.31 53.4) rotate(-180)"/><rect class="cls-37" x="32.01" y="26.11" width="1.18" height="1.18" rx="0.09" ry="0.09" transform="translate(65.21 53.4) rotate(-180)"/><rect class="cls-38" x="40.22" y="28.27" width="1.18" height="1.18" rx="0.09" ry="0.09" transform="translate(81.62 57.73) rotate(-180)"/><rect class="cls-39" x="38.17" y="28.27" width="1.18" height="1.18" rx="0.09" ry="0.09" transform="translate(77.52 57.73) rotate(-180)"/><rect class="cls-40" x="36.11" y="28.27" width="1.18" height="1.18" rx="0.09" ry="0.09" transform="translate(73.41 57.73) rotate(-180)"/><rect class="cls-41" x="34.06" y="28.27" width="1.18" height="1.18" rx="0.09" ry="0.09" transform="translate(69.31 57.73) rotate(-180)"/><rect class="cls-42" x="32.01" y="28.27" width="1.18" height="1.18" rx="0.09" ry="0.09" transform="translate(65.21 57.73) rotate(-180)"/><rect class="cls-43" x="40.22" y="30.43" width="1.18" height="1.18" rx="0.09" ry="0.09" transform="translate(81.62 62.05) rotate(-180)"/><rect class="cls-44" x="38.17" y="30.43" width="1.18" height="1.18" rx="0.09" ry="0.09" transform="translate(77.52 62.05) rotate(-180)"/><rect class="cls-45" x="36.11" y="30.43" width="1.18" height="1.18" rx="0.09" ry="0.09" transform="translate(73.41 62.05) rotate(-180)"/><rect class="cls-46" x="34.06" y="30.43" width="1.18" height="1.18" rx="0.09" ry="0.09" transform="translate(69.31 62.05) rotate(-180)"/><rect class="cls-47" x="32.01" y="30.43" width="1.18" height="1.18" rx="0.09" ry="0.09" transform="translate(65.21 62.05) rotate(-180)"/><rect class="cls-48" x="40.22" y="32.59" width="1.18" height="1.18" rx="0.09" ry="0.09" transform="translate(81.62 66.37) rotate(-180)"/><rect class="cls-49" x="38.17" y="32.59" width="1.18" height="1.18" rx="0.09" ry="0.09" transform="translate(77.52 66.37) rotate(-180)"/><rect class="cls-50" x="36.11" y="32.59" width="1.18" height="1.18" rx="0.09" ry="0.09" transform="translate(73.41 66.37) rotate(-180)"/><rect class="cls-51" x="34.06" y="32.59" width="1.18" height="1.18" rx="0.09" ry="0.09" transform="translate(69.31 66.37) rotate(-180)"/><rect class="cls-52" x="32.01" y="32.59" width="1.18" height="1.18" rx="0.09" ry="0.09" transform="translate(65.21 66.37) rotate(-180)"/><rect class="cls-53" x="40.22" y="34.75" width="1.18" height="1.18" rx="0.09" ry="0.09" transform="translate(81.62 70.69) rotate(-180)"/><rect class="cls-54" x="38.17" y="34.75" width="1.18" height="1.18" rx="0.09" ry="0.09" transform="translate(77.52 70.69) rotate(-180)"/><rect class="cls-55" x="36.11" y="34.75" width="1.18" height="1.18" rx="0.09" ry="0.09" transform="translate(73.41 70.69) rotate(-180)"/><rect class="cls-56" x="34.06" y="34.75" width="1.18" height="1.18" rx="0.09" ry="0.09" transform="translate(69.31 70.69) rotate(-180)"/><rect class="cls-57" x="32.01" y="34.75" width="1.18" height="1.18" rx="0.09" ry="0.09" transform="translate(65.21 70.69) rotate(-180)"/><rect class="cls-58" x="40.22" y="36.92" width="1.18" height="1.18" rx="0.09" ry="0.09" transform="translate(81.62 75.01) rotate(-180)"/><rect class="cls-59" x="38.17" y="36.92" width="1.18" height="1.18" rx="0.09" ry="0.09" transform="translate(77.52 75.01) rotate(-180)"/><rect class="cls-60" x="36.11" y="36.92" width="1.18" height="1.18" rx="0.09" ry="0.09" transform="translate(73.41 75.01) rotate(-180)"/><rect class="cls-61" x="34.06" y="36.92" width="1.18" height="1.18" rx="0.09" ry="0.09" transform="translate(69.31 75.01) rotate(-180)"/><rect class="cls-62" x="32.01" y="36.92" width="1.18" height="1.18" rx="0.09" ry="0.09" transform="translate(65.21 75.01) rotate(-180)"/><rect class="cls-63" x="40.22" y="39.08" width="1.18" height="1.18" rx="0.09" ry="0.09" transform="translate(81.62 79.34) rotate(-180)"/><rect class="cls-64" x="38.17" y="39.08" width="1.18" height="1.18" rx="0.09" ry="0.09" transform="translate(77.52 79.34) rotate(-180)"/><rect class="cls-65" x="36.11" y="39.08" width="1.18" height="1.18" rx="0.09" ry="0.09" transform="translate(73.41 79.34) rotate(-180)"/><rect class="cls-66" x="34.06" y="39.08" width="1.18" height="1.18" rx="0.09" ry="0.09" transform="translate(69.31 79.34) rotate(-180)"/><rect class="cls-67" x="32.01" y="39.08" width="1.18" height="1.18" rx="0.09" ry="0.09" transform="translate(65.21 79.34) rotate(-180)"/><path class="cls-68" d="M18.35,31.81a1.07,1.07,0,0,1,1.07,1.07v5.19h7.38v.27a4.69,4.69,0,0,1-4.69,4.77H18.93v-2H12.5V31.81Z"/><path class="cls-69" d="M53,25.39c.07,0-.05.12-.19.21h0l-.11,0a.39.39,0,0,1-.2-.12A1.58,1.58,0,0,1,53,25.39Z"/><path class="cls-70" d="M13.25,52.79a28,28,0,0,0,37.51,0c-5.47-.55-11.89-.87-18.75-.87S18.72,52.24,13.25,52.79Z"/><path class="cls-71" d="M39.95,14.77s1.16,1.6-1.33,2.48c-1.88.67-2.11-1.67-2.11-1.67"/><path class="cls-72" d="M48.95,12.76c-.11,0-5.34,7.4-9.17,7.86a23.53,23.53,0,0,1-3.08.26.29.29,0,0,1-.21-.47,1.54,1.54,0,0,1,1.36-.56c.8.06,1-1,1-1.48a.73.73,0,0,1,.24-.48.43.43,0,0,0,.15-.41l-.8-3.79a3.61,3.61,0,0,0-3.89.37C33,15.11,32.7,18.48,32.65,20.3a.88.88,0,0,1-.71.84c-3.17.65-4,2.14-4,2.14C25.33,26.51,23,30.83,14.39,33.83V35s7.45-.69,14.65-7.73a.88.88,0,0,1,1.3.09c2.18,2.69,2.62.19,3.75-.8.64-.56,3.72.88,4.19.19.69.16-.54-2.11,1.66-3a17.31,17.31,0,0,0,10.21-10.9Z"/><path class="cls-72" d="M48.95,12.76c-.11,0-5.34,7.4-9.17,7.86a23.54,23.54,0,0,1-3.08.26.29.29,0,0,1-.21-.47,1.54,1.54,0,0,1,1.36-.56c.8.06,1-1,1-1.48a.73.73,0,0,1,.24-.48.43.43,0,0,0,.15-.41l-.8-3.79a3.61,3.61,0,0,0-3.89.37C33,15.11,32.7,18.48,32.65,20.3a.88.88,0,0,1-.71.83c-2.7.55-3.71,1.71-3.94,2l-.19.25c-2.56,3.21-4.92,7.45-13.42,10.4V35s7.45-.69,14.65-7.73a.88.88,0,0,1,1.3.09c2.18,2.69,2.62.19,3.75-.8.64-.56,3.72.88,4.19.19.69.16-.54-2.11,1.66-3a17.31,17.31,0,0,0,10.21-10.9Z"/><path class="cls-73" d="M49.46,14.59,49,12.76h0s-.53.68-1.3,1.62a1.51,1.51,0,0,0,.78.68c-.15,1.15-4.07,5.72-6.44,6.69-2.81,1.14-3.09,2.72-3.09,2.72a2.26,2.26,0,0,1,1-.8A17.84,17.84,0,0,0,49.46,14.59Z"/><path class="cls-74" d="M36.28,24.81c.24-.5-1.66-.42-1.29,0a1.75,1.75,0,0,1,.41.9S32,28.62,32,28s-.92-2.24-1.58-2.94-1.62.22-3.64,3-9.35,6-9.31,5.56-.53-.82-.53-.82h0c-.8.35-1.66.7-2.6,1V35s7.45-.69,14.65-7.73a.88.88,0,0,1,1.3.09c2.18,2.69,2.62.19,3.75-.8.45-.39,2.12.21,3.23.35l.09-.06A9.83,9.83,0,0,0,36.3,26C36,25.92,36,25.31,36.28,24.81Z"/><path class="cls-75" d="M36.34,19.77a3.55,3.55,0,0,1,1.25,0c-.5-.11-.84-.52-.82-1.53s1.61-1.53,1.93-1.1a2,2,0,0,1,.19,1.24v-.06a.73.73,0,0,1,.24-.48l0,0c-.08,0-.14,0-.11-.15s-.34-.9-.13-1a.62.62,0,0,0,.17-.09l-.33-1.57-.85.31-1.86.45-3.19,2.49-.08.07c-.09.71-.13,1.38-.14,1.92a.88.88,0,0,1-.71.84,10.74,10.74,0,0,0-1.13.29l.17,0c2.17-.41,2.82.43,3.79.49S36.26,19.9,36.34,19.77Z"/><path class="cls-76" d="M37.59,19.81l.2,0Z"/><path class="cls-77" d="M38.88,18.45v0Z"/><path class="cls-78" d="M31,60l1,0c.82,0,1.62,0,2.42-.11a55.46,55.46,0,0,0,6.22-21.6l-9.37,6.1C33.75,48.75,32.57,55.06,31,60Z"/><path class="cls-79" d="M36.9,37.91c-1.46-6-7.4,3.63-7.4,3.63s.11,7.3,22.66,9.88q.89-.92,1.69-1.92C47.87,47.72,38.39,44,36.9,37.91Z"/><path id="_Path_" data-name="&lt;Path&gt;" class="cls-80" d="M39,28.08a3,3,0,0,1-.63,1c-.74.82-2.38,3.3.84,6.76a8.9,8.9,0,0,1,1.3,2c.56,1.09.63,3.37-.59,3.24-4.45-.47-4.65,3-6.1,4-2,1.38-4.9-2.07-5.07-4.45a11.9,11.9,0,0,1,.91-5.94,12.82,12.82,0,0,0,.69-7.3.47.47,0,0,1,.05-.36c.47-.76,2.53-3.64,5.49-1a.23.23,0,0,0,.37-.08c.26-.64,1-1.91,2.2-.64A2.55,2.55,0,0,1,39,28.08Z"/><path id="_Path_2" data-name="&lt;Path&gt;" class="cls-81" d="M48.86,12.76s.29-1.23,1-.9,3-.81,3.11-.49-1.68,1.4-2.61,1.4Z"/><path id="_Path_3" data-name="&lt;Path&gt;" class="cls-81" d="M14.36,33.83s-1,0-1.08,1.42c0,1.63-1.35,1-.93,1.48S14.64,36.75,14.36,33.83Z"/><circle id="_Path_4" data-name="&lt;Path&gt;" class="cls-82" cx="9.8" cy="35.76" r="5.79" transform="translate(-14.1 7.41) rotate(-24.81)"/><circle id="_Path_5" data-name="&lt;Path&gt;" class="cls-83" cx="52.16" cy="9.8" r="5.8"/><path class="cls-84" d="M30.3,27.41a12.82,12.82,0,0,1-.69,7.3,11.9,11.9,0,0,0-.91,5.94,4.19,4.19,0,0,0,4.66,3.89,7.93,7.93,0,0,0,1.34-.3c-.11,0-4.3.68-3.61-2.74S37,36.57,36,34.44c-.4-.85.28-1.69,1.23-2.4a4.07,4.07,0,0,1,1.08-2.92,3.09,3.09,0,0,0,.56-.86c-.14.27-.55.73-1.69.62-1.58-.15-3.64.84-4.71,0s-1.4-2.33-2.14-1.85A.47.47,0,0,0,30.3,27.41Z"/><path class="cls-85" d="M40,14.91a.47.47,0,0,1-.08.58,3.89,3.89,0,0,1-2.43,1.07c-1.18.07-1.84,1.48-2,3a2,2,0,0,1-2.17,1.74,7.58,7.58,0,0,0-2.74.21S29.51,14.65,34,13C37.82,11.61,39.49,14,40,14.91Z"/><path class="cls-86" d="M35,15.69c.9-1.09-1.29,0-2.83-.07s.27-1.66.43-1.8c-2.84,2.4-2,7.69-2,7.69a7.58,7.58,0,0,1,2.74-.21,2,2,0,0,0,2.17-1.74c.18-1.53.83-2.93,2-3C37.51,16.56,34.09,16.78,35,15.69Z"/></g></g></svg>