<?xml version="1.0" standalone="no"?><!DOCTYPE svg PUBLIC "-//W3C//DTD SVG 1.1//EN" "http://www.w3.org/Graphics/SVG/1.1/DTD/svg11.dtd"><svg class="icon" width="200px" height="200.00px" viewBox="0 0 1024 1024" version="1.1" xmlns="http://www.w3.org/2000/svg"><path d="M828.6 730.3c0.2 0 0.5-0.1 0.7-0.1-0.3 0-0.5 0.1-0.7 0.1" fill="#edb52b" /><path d="M468.2 526.7c0.4 0.1 0.7 0.2 1.1 0.4-0.4-0.1-0.7-0.2-1.1-0.4" fill="#eee3d2" /><path d="M863.1 730.2c0.2 0 0.4 0.1 0.7 0.1-0.3-0.1-0.5-0.1-0.7-0.1" fill="#edb52b" /><path d="M819.9 526.7c0.4 0.1 0.7 0.2 1.1 0.4-0.3-0.1-0.7-0.2-1.1-0.4M133.2 526.7c0.4 0.1 0.7 0.2 1.1 0.4-0.4-0.1-0.7-0.2-1.1-0.4M184.5 527.1c0.4-0.1 0.7-0.2 1.1-0.4-0.3 0.2-0.7 0.3-1.1 0.4" fill="#eee3d2" /><path d="M476.3 663.6c0.5-0.1 1-0.2 1.6-0.2-0.5 0.1-1 0.1-1.6 0.2" fill="#edb52b" /><path d="M519.5 527.1c0.4-0.1 0.8-0.2 1.1-0.4-0.3 0.2-0.7 0.3-1.1 0.4" fill="#eee3d2" /><path d="M511 663.4c0.5 0.1 1 0.2 1.6 0.2-0.6-0.1-1.1-0.1-1.6-0.2" fill="#edb52b" /><path d="M109.2 260.3h100.5v201H109.2z" fill="#67c1b2" /><path d="M109.2 494.8c0 12.4 6.8 23.1 16.8 28.9 2.3 1.3 4.7 2.3 7.3 3.1 0.4 0.1 0.7 0.3 1.1 0.3 2.7 0.7 5.5 1.2 8.4 1.2h33.5c2.9 0 5.7-0.4 8.4-1.2 0.4-0.1 0.8-0.2 1.1-0.3 2.5-0.8 5-1.8 7.2-3.1 10-5.8 16.8-16.5 16.8-28.9v-33.5H109.2v33.5zM109.2 193.3h100.5v67H109.2z" fill="#eee3d2" /><path d="M159.4 92.8c-27.7 0-50.3 22.5-50.3 50.2v50.2h100.5V143c0.1-27.7-22.4-50.2-50.2-50.2" fill="#67c1b2" /><path d="M184.5 527.1c-2.7 0.7-5.4 1.2-8.4 1.2h-33.5c-2.9 0-5.7-0.5-8.4-1.2-0.4-0.1-0.7-0.2-1.1-0.4-2.6-0.8-5-1.8-7.3-3.1v172.2h67V523.6c-2.3 1.3-4.7 2.4-7.2 3.1-0.3 0.2-0.7 0.3-1.1 0.4" fill="#edb52b" /><path d="M185.7 526.7c2.6-0.8 5-1.8 7.2-3.1-2.2 1.4-4.7 2.4-7.2 3.1M134.3 527.1c2.7 0.7 5.5 1.2 8.4 1.2-2.9 0-5.7-0.5-8.4-1.2M125.9 523.6c2.3 1.3 4.7 2.4 7.3 3.1-2.6-0.7-5-1.7-7.3-3.1M176.2 528.3c2.9 0 5.7-0.5 8.4-1.2-2.8 0.7-5.5 1.2-8.4 1.2" fill="#eee3d2" /><path d="M92.4 695.8c-37 0-67 30-67 67v201c0 18.5 15 33.5 33.5 33.5h201c18.5 0 33.5-15 33.5-33.5v-201c0-37-30-67-67-67h-134z m0 251.2V796.3 947z m134-150.7V947 796.3z m-67-33.5V947 762.8z" fill="#edb52b" /><path d="M444.2 260.3h100.5v201H444.2z" fill="#67c1b2" /><path d="M444.2 494.8c0 12.4 6.8 23.1 16.7 28.9 2.3 1.3 4.7 2.3 7.3 3.1 0.4 0.1 0.7 0.3 1.1 0.3 2.7 0.7 5.5 1.2 8.4 1.2h33.5c2.9 0 5.7-0.4 8.4-1.2 0.4-0.1 0.8-0.2 1.1-0.3 2.5-0.8 5-1.8 7.3-3.1 10-5.8 16.7-16.5 16.7-28.9v-33.5H444.2v33.5zM444.2 193.3h100.5v67H444.2z" fill="#eee3d2" /><path d="M494.4 92.8c-27.7 0-50.2 22.5-50.2 50.2v50.2h100.5V143c0-27.7-22.5-50.2-50.3-50.2" fill="#67c1b2" /><path d="M512.5 663.6c-0.5-0.1-1-0.2-1.6-0.2-5.4-0.7-10.9-1.1-16.5-1.1s-11.1 0.4-16.5 1.1c-0.5 0.1-1 0.2-1.6 0.2-5.2 0.7-10.4 1.7-15.4 3C403.2 681.5 360.4 735 360.4 813c0 92.5 60 184.3 134 184.3s134-91.7 134-184.3c0-78-42.7-131.5-100.5-146.4-5-1.3-10.1-2.2-15.4-3m48.9 132.7c0-37-30-67-67-67 37.1 0 67 30 67 67" fill="#edb52b" /><path d="M519.5 527.1c-2.7 0.7-5.5 1.2-8.4 1.2h-33.5c-2.9 0-5.7-0.5-8.4-1.2-0.4-0.1-0.7-0.2-1.1-0.4-2.6-0.8-5-1.8-7.3-3.1v143c5-1.3 10.2-2.3 15.4-3 0.5-0.1 1-0.2 1.6-0.2 5.4-0.7 10.9-1.1 16.5-1.1s11.1 0.4 16.5 1.1c0.5 0.1 1 0.1 1.6 0.2 5.2 0.7 10.4 1.7 15.4 3v-143c-2.3 1.3-4.7 2.4-7.3 3.1-0.2 0.2-0.6 0.3-1 0.4" fill="#edb52b" /><path d="M469.3 527.1c2.7 0.7 5.5 1.2 8.4 1.2-2.9 0-5.7-0.5-8.4-1.2M460.9 523.6c2.3 1.3 4.7 2.4 7.3 3.1-2.5-0.7-5-1.7-7.3-3.1M511.2 528.3c2.9 0 5.7-0.5 8.3-1.2-2.6 0.7-5.4 1.2-8.3 1.2M520.7 526.7c2.6-0.8 5-1.8 7.2-3.1-2.2 1.4-4.7 2.4-7.2 3.1" fill="#eee3d2" /><path d="M477.9 663.4c5.4-0.7 10.9-1.1 16.5-1.1-5.6 0-11.1 0.4-16.5 1.1M476.3 663.6c-5.2 0.7-10.4 1.7-15.4 3 5.1-1.3 10.2-2.2 15.4-3M494.4 662.3c5.6 0 11.1 0.4 16.5 1.1-5.4-0.7-10.9-1.1-16.5-1.1M527.9 666.6c-5-1.3-10.2-2.3-15.4-3 5.3 0.8 10.4 1.7 15.4 3" fill="#edb52b" /><path d="M795.9 260.3h100.5v201H795.9z" fill="#67c1b2" /><path d="M795.9 494.8c0 12.4 6.8 23.1 16.7 28.9 2.3 1.3 4.7 2.3 7.3 3.1 0.4 0.1 0.7 0.3 1.1 0.3 2.7 0.7 5.5 1.2 8.3 1.2h33.5c2.9 0 5.7-0.4 8.4-1.2 0.4-0.1 0.7-0.2 1.1-0.3 2.5-0.8 5-1.8 7.3-3.1 10-5.8 16.8-16.5 16.8-28.9v-33.5H795.9v33.5zM795.9 193.3h100.5v67H795.9z" fill="#eee3d2" /><path d="M846.2 92.8c-27.8 0-50.3 22.5-50.3 50.2v50.2h100.5V143c0-27.7-22.5-50.2-50.2-50.2" fill="#67c1b2" /><path d="M863.1 730.2c-5.5-0.6-11.2-0.9-16.9-0.9-5.7 0-11.4 0.3-16.9 0.9-0.2 0-0.5 0.1-0.7 0.1-5.4 0.6-10.7 1.4-15.9 2.4-67.1 13.6-117.3 66.8-117.3 130.6 0 74 67.5 134 150.8 134 83.3 0 150.7-60 150.7-134 0-63.8-50.1-117-117.3-130.6-5.2-1-10.5-1.9-15.9-2.4-0.1-0.1-0.4-0.1-0.6-0.1m66.8 116.3c0-27.8-22.5-50.2-50.3-50.2 27.9 0 50.3 22.5 50.3 50.2" fill="#edb52b" /><path d="M871.3 527.1c-2.7 0.7-5.5 1.2-8.4 1.2h-33.5c-2.9 0-5.7-0.5-8.3-1.2-0.4-0.1-0.7-0.2-1.1-0.4-2.6-0.8-5-1.8-7.2-3.1v209.1c5.2-1 10.5-1.9 15.9-2.4 0.2 0 0.4-0.1 0.7-0.1 5.5-0.6 11.2-0.9 16.9-0.9 5.7 0 11.3 0.3 16.9 0.9 0.2 0 0.5 0.1 0.7 0.1 5.4 0.6 10.7 1.4 15.9 2.4V523.6c-2.3 1.3-4.7 2.4-7.3 3.1-0.5 0.2-0.8 0.3-1.2 0.4" fill="#edb52b" /><path d="M862.9 528.3c2.9 0 5.7-0.5 8.4-1.2-2.7 0.7-5.5 1.2-8.4 1.2M821.1 527.1c2.7 0.7 5.4 1.2 8.3 1.2-2.9 0-5.7-0.5-8.3-1.2M872.4 526.7c2.6-0.8 5-1.8 7.3-3.1-2.3 1.4-4.7 2.4-7.3 3.1M812.7 523.6c2.3 1.3 4.7 2.4 7.3 3.1-2.6-0.7-5-1.7-7.3-3.1" fill="#eee3d2" /><path d="M812.7 732.7c5.2-1 10.5-1.9 15.9-2.4-5.4 0.5-10.7 1.4-15.9 2.4M879.7 732.7c-5.2-1-10.5-1.9-15.9-2.4 5.4 0.5 10.7 1.4 15.9 2.4M929.9 25.8H92.4c-37 0-67 30-67 67V143h83.8c0-27.8 22.5-50.2 50.2-50.2 27.8 0 50.2 22.5 50.2 50.2h234.5c0-27.8 22.5-50.2 50.2-50.2 27.8 0 50.3 22.5 50.3 50.2h251.2c0-27.8 22.5-50.2 50.3-50.2 27.7 0 50.2 22.5 50.2 50.2h100.5V92.8c0.1-37-29.9-67-66.9-67" fill="#edb52b" /><path d="M209.7 210H109.2c-9.3 0-16.8-7.5-16.8-16.8V143c0-36.9 30.1-67 67-67s67 30.1 67 67v50.2c0 9.3-7.5 16.8-16.7 16.8z m-83.8-33.5h67V143c0-18.5-15-33.5-33.5-33.5s-33.5 15-33.5 33.5v33.5zM209.7 478H109.2c-9.3 0-16.8-7.5-16.8-16.8v-201c0-9.3 7.5-16.8 16.8-16.8h100.5c9.3 0 16.8 7.5 16.8 16.8v201c-0.1 9.3-7.6 16.8-16.8 16.8z m-83.8-33.5h67V277h-67v167.5z" fill="#353535" /><path d="M176.2 545h-33.5c-27.7 0-50.2-22.5-50.2-50.2v-33.5c0-9.3 7.5-16.8 16.8-16.8h100.5c9.3 0 16.8 7.5 16.8 16.8v33.5c-0.2 27.7-22.7 50.2-50.4 50.2z m-50.3-67v16.8c0 9.2 7.5 16.7 16.7 16.7h33.5c9.2 0 16.7-7.5 16.7-16.7V478h-66.9zM209.7 277H109.2c-9.3 0-16.8-7.5-16.8-16.8v-67c0-9.3 7.5-16.8 16.8-16.8h100.5c9.3 0 16.8 7.5 16.8 16.8v67c-0.1 9.3-7.6 16.8-16.8 16.8z m-83.8-33.5h67V210h-67v33.5z" fill="#353535" /><path d="M209.7 210H109.2c-9.3 0-16.8-7.5-16.8-16.8V143c0-36.9 30.1-67 67-67s67 30.1 67 67v50.2c0 9.3-7.5 16.8-16.7 16.8z m-83.8-33.5h67V143c0-18.5-15-33.5-33.5-33.5s-33.5 15-33.5 33.5v33.5zM192.9 712.5h-67c-9.3 0-16.8-7.5-16.8-16.8V523.6c0-6 3.2-11.5 8.4-14.5s11.6-3 16.8 0c2.7 1.6 5.5 2.4 8.3 2.4h33.5c2.8 0 5.6-0.8 8.3-2.4 5.2-3 11.6-3 16.8 0 5.2 3 8.4 8.5 8.4 14.5v172.2c0.1 9.2-7.4 16.7-16.7 16.7zM142.7 679h33.5V545h-33.5v134z" fill="#353535" /><path d="M259.9 1014h-201c-27.7 0-50.2-22.5-50.2-50.2v-201c0-46.2 37.6-83.8 83.7-83.8h134c46.2 0 83.8 37.6 83.8 83.8v201c0 27.7-22.6 50.2-50.3 50.2zM92.4 712.5c-27.7 0-50.2 22.5-50.2 50.2v201c0 9.2 7.5 16.7 16.7 16.7h201c9.2 0 16.7-7.5 16.7-16.7v-201c0-27.7-22.5-50.2-50.2-50.2h-134z" fill="#353535" /><path d="M142.7 762.8h33.5v184.3h-33.5zM209.7 796.3h33.5V947h-33.5zM75.7 796.3h33.5V947H75.7zM544.7 210H444.2c-9.3 0-16.8-7.5-16.8-16.8V143c0-36.9 30.1-67 67-67s67 30.1 67 67v50.2c0 9.3-7.5 16.8-16.7 16.8z m-83.8-33.5h67V143c0-18.5-15-33.5-33.5-33.5s-33.5 15-33.5 33.5v33.5zM544.7 478H444.2c-9.3 0-16.8-7.5-16.8-16.8v-201c0-9.3 7.5-16.8 16.8-16.8h100.5c9.3 0 16.8 7.5 16.8 16.8v201c-0.1 9.3-7.6 16.8-16.8 16.8z m-83.8-33.5h67V277h-67v167.5z" fill="#353535" /><path d="M511.2 545h-33.5c-27.7 0-50.3-22.5-50.3-50.2v-33.5c0-9.3 7.5-16.8 16.8-16.8h100.5c9.3 0 16.8 7.5 16.8 16.8v33.5c-0.1 27.7-22.6 50.2-50.3 50.2z m-50.3-67v16.8c0 9.2 7.5 16.7 16.8 16.7h33.5c9.2 0 16.7-7.5 16.7-16.7V478h-67zM544.7 277H444.2c-9.3 0-16.8-7.5-16.8-16.8v-67c0-9.3 7.5-16.8 16.8-16.8h100.5c9.3 0 16.8 7.5 16.8 16.8v67c-0.1 9.3-7.6 16.8-16.8 16.8z m-83.8-33.5h67V210h-67v33.5z" fill="#353535" /><path d="M544.7 210H444.2c-9.3 0-16.8-7.5-16.8-16.8V143c0-36.9 30.1-67 67-67s67 30.1 67 67v50.2c0 9.3-7.5 16.8-16.7 16.8z m-83.8-33.5h67V143c0-18.5-15-33.5-33.5-33.5s-33.5 15-33.5 33.5v33.5zM494.4 1014c-88.8 0-150.8-105.9-150.8-201 0-97.1 63.4-167.5 150.8-167.5S645.2 716 645.2 813c0 95.1-61.9 201-150.8 201z m0-335c-69 0-117.2 55.1-117.2 134 0 87.7 55.9 167.5 117.2 167.5 61.4 0 117.3-79.8 117.3-167.5 0-78.9-48.2-134-117.3-134z" fill="#353535" /><path d="M527.9 683.4c-1.4 0-2.8-0.2-4.2-0.5-19.8-5.1-38.9-5.1-58.6 0-5 1.3-10.3 0.2-14.4-3s-6.5-8.1-6.5-13.2v-143c0-6 3.2-11.5 8.4-14.5s11.6-3 16.8 0c2.7 1.6 5.5 2.4 8.3 2.4h33.5c2.8 0 5.6-0.8 8.3-2.4 5.2-3 11.6-3 16.8-0.1 5.2 3 8.4 8.5 8.4 14.5v143c0 5.2-2.4 10.1-6.5 13.2-3 2.4-6.6 3.6-10.3 3.6z m-33.5-37.9c5.5 0 11.1 0.3 16.7 1V545h-33.5v101.5c5.7-0.6 11.3-1 16.8-1zM896.4 210H795.9c-9.3 0-16.8-7.5-16.8-16.8V143c0-36.9 30.1-67 67-67s67 30.1 67 67v50.2c0.1 9.3-7.4 16.8-16.7 16.8z m-83.7-33.5h67V143c0-18.5-15-33.5-33.5-33.5s-33.5 15-33.5 33.5v33.5zM896.4 478H795.9c-9.3 0-16.8-7.5-16.8-16.8v-201c0-9.3 7.5-16.8 16.8-16.8h100.5c9.3 0 16.8 7.5 16.8 16.8v201c0 9.3-7.5 16.8-16.8 16.8z m-83.7-33.5h67V277h-67v167.5z" fill="#353535" /><path d="M862.9 545h-33.5c-27.7 0-50.2-22.5-50.2-50.2v-33.5c0-9.3 7.5-16.8 16.8-16.8h100.5c9.3 0 16.8 7.5 16.8 16.8v33.5c-0.1 27.7-22.7 50.2-50.4 50.2z m-50.2-67v16.8c0 9.2 7.5 16.7 16.7 16.7h33.5c9.2 0 16.7-7.5 16.7-16.7V478h-66.9zM896.4 277H795.9c-9.3 0-16.8-7.5-16.8-16.8v-67c0-9.3 7.5-16.8 16.8-16.8h100.5c9.3 0 16.8 7.5 16.8 16.8v67c0 9.3-7.5 16.8-16.8 16.8z m-83.7-33.5h67V210h-67v33.5z" fill="#353535" /><path d="M896.4 210H795.9c-9.3 0-16.8-7.5-16.8-16.8V143c0-36.9 30.1-67 67-67s67 30.1 67 67v50.2c0.1 9.3-7.4 16.8-16.7 16.8z m-83.7-33.5h67V143c0-18.5-15-33.5-33.5-33.5s-33.5 15-33.5 33.5v33.5zM846.2 1014c-92.4 0-167.5-67.6-167.5-150.8 0-83.1 75.1-150.8 167.5-150.8s167.5 67.6 167.5 150.8c0 83.2-75.1 150.8-167.5 150.8z m0-268c-73.9 0-134 52.6-134 117.3 0 64.7 60.1 117.2 134 117.2s134-52.6 134-117.2c0-64.7-60.1-117.3-134-117.3z" fill="#353535" /><path d="M879.7 749.5c-1.1 0-2.2-0.1-3.3-0.3-20.4-4.1-39.9-4.1-60.4 0-4.9 1-10-0.3-13.9-3.5-3.9-3.2-6.1-7.9-6.1-13V523.6c0-6 3.2-11.5 8.4-14.5s11.6-3 16.8 0.1c2.7 1.6 5.5 2.4 8.3 2.4H863c2.8 0 5.6-0.8 8.3-2.4 5.2-3 11.6-3 16.8 0 5.2 3 8.4 8.5 8.4 14.5v209.1c0 5-2.3 9.8-6.1 13-3.1 2.4-6.9 3.7-10.7 3.7z m-33.5-37c5.5 0 11.1 0.3 16.7 0.8V545h-33.5v168.3c5.7-0.5 11.3-0.8 16.8-0.8zM996.9 159.8H896.4c-9.3 0-16.8-7.5-16.8-16.8 0-18.5-15-33.5-33.5-33.5s-33.5 15-33.5 33.5c0 9.3-7.5 16.8-16.8 16.8H544.7c-9.3 0-16.8-7.5-16.8-16.8 0-18.5-15-33.5-33.5-33.5s-33.5 15-33.5 33.5c0 9.3-7.5 16.8-16.8 16.8H209.7c-9.3 0-16.8-7.5-16.8-16.8 0-18.5-15-33.5-33.5-33.5s-33.5 15-33.5 33.5c0 9.3-7.5 16.8-16.8 16.8H25.4c-9.3 0-16.8-7.5-16.8-16.8V92.8C8.7 46.6 46.2 9 92.4 9h837.5c46.2 0 83.8 37.6 83.8 83.8V143c0 9.3-7.5 16.8-16.8 16.8z m-85.8-33.5h69.1V92.8c0-27.7-22.5-50.2-50.2-50.2H92.4c-27.7 0-50.2 22.5-50.2 50.2v33.5h52.4C102 97.4 128.3 76 159.4 76c31.2 0 57.4 21.4 64.9 50.2h205.2C437 97.4 463.3 76 494.4 76c31.2 0 57.4 21.4 64.9 50.2h222C788.8 97.4 815 76 846.2 76c31.1 0 57.4 21.4 64.9 50.3zM578.2 796.3h-33.5c0-27.7-22.5-50.2-50.2-50.2v-33.5c46.1-0.1 83.7 37.5 83.7 83.7zM946.7 846.5h-33.5c0-18.5-15-33.5-33.5-33.5v-33.5c36.9 0 67 30.1 67 67z" fill="#353535" /></svg>