<svg xmlns="http://www.w3.org/2000/svg" xmlns:xlink="http://www.w3.org/1999/xlink" viewBox="0 0 64 64"><defs><style>.cls-1{isolation:isolate;}.cls-2{fill:url(#linear-gradient);}.cls-3{fill:url(#linear-gradient-2);}.cls-4{fill:url(#linear-gradient-3);}.cls-5{fill:url(#linear-gradient-4);}.cls-6{fill:url(#linear-gradient-5);}.cls-7{fill:url(#linear-gradient-6);}.cls-8{fill:url(#linear-gradient-7);}.cls-9{fill:url(#linear-gradient-8);}.cls-10{fill:url(#linear-gradient-9);}.cls-11{fill:url(#linear-gradient-10);}.cls-12{fill:url(#linear-gradient-11);}.cls-13{fill:url(#linear-gradient-12);}.cls-14{fill:url(#linear-gradient-13);}.cls-15{fill:url(#linear-gradient-14);}.cls-16{fill:url(#linear-gradient-15);}.cls-17{fill:url(#linear-gradient-16);}.cls-18{fill:url(#linear-gradient-17);}.cls-19{fill:url(#linear-gradient-18);}.cls-20{fill:url(#linear-gradient-19);}.cls-21{fill:url(#linear-gradient-20);}.cls-22{fill:url(#linear-gradient-21);}.cls-23{fill:url(#linear-gradient-22);}.cls-24{fill:url(#linear-gradient-23);}.cls-25{fill:url(#linear-gradient-24);}.cls-26{fill:url(#linear-gradient-25);}.cls-27{fill:url(#linear-gradient-26);}.cls-28{fill:url(#linear-gradient-27);}.cls-29{fill:url(#linear-gradient-28);}.cls-30{fill:url(#linear-gradient-29);}.cls-31{fill:url(#linear-gradient-30);}.cls-32{fill:url(#linear-gradient-31);}.cls-33{fill:url(#linear-gradient-32);}.cls-34{fill:url(#linear-gradient-33);}.cls-35{fill:url(#linear-gradient-34);}.cls-36{fill:url(#linear-gradient-35);}.cls-37{fill:url(#linear-gradient-36);}.cls-38{fill:url(#linear-gradient-37);}.cls-39{fill:url(#linear-gradient-38);}.cls-40{fill:url(#linear-gradient-39);}.cls-41{fill:url(#linear-gradient-40);}.cls-42{fill:url(#linear-gradient-41);}.cls-43{fill:url(#linear-gradient-42);}.cls-44{fill:url(#linear-gradient-43);}.cls-45{fill:url(#linear-gradient-44);}.cls-46{fill:url(#linear-gradient-45);}.cls-47{fill:url(#linear-gradient-46);}.cls-48{fill:url(#linear-gradient-47);}.cls-49{fill:url(#linear-gradient-48);}.cls-50{fill:url(#linear-gradient-49);}.cls-51{fill:url(#linear-gradient-50);}.cls-52{fill:url(#linear-gradient-51);}.cls-53{fill:url(#linear-gradient-52);}.cls-54{fill:url(#linear-gradient-53);}.cls-55{fill:url(#linear-gradient-54);}.cls-56{fill:url(#linear-gradient-55);}.cls-57{fill:url(#linear-gradient-56);}.cls-58{fill:url(#linear-gradient-57);}.cls-59{fill:url(#linear-gradient-58);}.cls-60{fill:url(#linear-gradient-59);}.cls-61{fill:url(#linear-gradient-60);}.cls-62{fill:url(#linear-gradient-61);}.cls-63{fill:url(#linear-gradient-62);}.cls-64{fill:url(#linear-gradient-63);}.cls-65{fill:url(#linear-gradient-64);}.cls-66{fill:url(#linear-gradient-65);}.cls-67{fill:url(#linear-gradient-66);}.cls-68{opacity:0.49;mix-blend-mode:color-burn;fill:url(#linear-gradient-67);}.cls-69{fill:url(#linear-gradient-68);}.cls-70{fill:url(#linear-gradient-69);}.cls-71{fill:url(#linear-gradient-70);}.cls-72{fill:url(#linear-gradient-71);}.cls-73{fill:url(#linear-gradient-72);}.cls-74{fill:url(#linear-gradient-73);}.cls-75{fill:url(#linear-gradient-74);}.cls-76{fill:url(#linear-gradient-75);}.cls-77{fill:url(#linear-gradient-76);}.cls-78{fill:url(#linear-gradient-77);}.cls-79{fill:#cf7f00;}.cls-80{fill:url(#linear-gradient-78);}.cls-81{fill:#e08a00;}.cls-82{fill:#e0c292;}.cls-83{fill:#f9aa8f;}.cls-84{fill:url(#linear-gradient-79);}.cls-85{fill:#8e241c;}.cls-86{fill:url(#linear-gradient-80);}.cls-87{fill:url(#linear-gradient-81);}.cls-88{fill:url(#linear-gradient-82);}.cls-89{fill:url(#linear-gradient-83);}.cls-90{fill:url(#linear-gradient-84);}.cls-91{fill:url(#linear-gradient-85);}.cls-92{fill:url(#linear-gradient-86);}.cls-93{fill:url(#linear-gradient-87);}.cls-94{fill:url(#linear-gradient-88);}.cls-95{fill:url(#linear-gradient-89);}</style><linearGradient id="linear-gradient" x1="32" y1="97.25" x2="32" y2="9.14" gradientUnits="userSpaceOnUse"><stop offset="0.02" stop-color="#edd7ad"/><stop offset="0.52" stop-color="#ff9661"/><stop offset="1" stop-color="#e74a69"/></linearGradient><linearGradient id="linear-gradient-2" x1="32" y1="60" x2="32" y2="18.19" xlink:href="#linear-gradient"/><linearGradient id="linear-gradient-3" x1="41.29" y1="29.11" x2="41.29" y2="-23.81" gradientUnits="userSpaceOnUse"><stop offset="0" stop-color="#fff"/><stop offset="0.84" stop-color="#cddfec"/></linearGradient><linearGradient id="linear-gradient-4" x1="48.51" y1="29.95" x2="48.51" y2="-22.06" xlink:href="#linear-gradient-3"/><linearGradient id="linear-gradient-5" x1="16.51" y1="35.09" x2="16.51" y2="-43.57" xlink:href="#linear-gradient-3"/><linearGradient id="linear-gradient-6" x1="-644.62" y1="35.09" x2="-644.62" y2="-43.58" gradientTransform="matrix(-1, 0, 0, 1, -613.78, 0)" xlink:href="#linear-gradient-3"/><linearGradient id="linear-gradient-7" x1="-646.74" y1="35.09" x2="-646.74" y2="-43.58" gradientTransform="matrix(-1, 0, 0, 1, -613.78, 0)" xlink:href="#linear-gradient-3"/><linearGradient id="linear-gradient-8" x1="-630.87" y1="35.09" x2="-630.87" y2="-43.58" gradientTransform="matrix(-1, 0, 0, 1, -613.78, 0)" xlink:href="#linear-gradient-3"/><linearGradient id="linear-gradient-9" x1="44.41" y1="56.69" x2="44.41" y2="28.94" xlink:href="#linear-gradient"/><linearGradient id="linear-gradient-10" x1="31.4" y1="54.55" x2="31.4" y2="9.48" xlink:href="#linear-gradient"/><linearGradient id="linear-gradient-11" x1="-654.59" y1="48.78" x2="-654.59" y2="-0.28" gradientTransform="matrix(1, 0, 0, -1, 695.4, 36.11)" xlink:href="#linear-gradient-3"/><linearGradient id="linear-gradient-12" x1="-652.54" y1="48.78" x2="-652.54" y2="-0.28" gradientTransform="matrix(1, 0, 0, -1, 691.3, 36.11)" xlink:href="#linear-gradient-3"/><linearGradient id="linear-gradient-13" x1="-650.49" y1="48.78" x2="-650.49" y2="-0.28" gradientTransform="matrix(1, 0, 0, -1, 687.19, 36.11)" xlink:href="#linear-gradient-3"/><linearGradient id="linear-gradient-14" x1="-648.44" y1="48.78" x2="-648.44" y2="-0.28" gradientTransform="matrix(1, 0, 0, -1, 683.09, 36.11)" xlink:href="#linear-gradient-3"/><linearGradient id="linear-gradient-15" x1="-646.38" y1="48.78" x2="-646.38" y2="-0.28" gradientTransform="matrix(1, 0, 0, -1, 678.99, 36.11)" xlink:href="#linear-gradient-3"/><linearGradient id="linear-gradient-16" x1="-654.59" y1="48.78" x2="-654.59" y2="-0.28" gradientTransform="matrix(1, 0, 0, -1, 695.4, 40.44)" xlink:href="#linear-gradient-3"/><linearGradient id="linear-gradient-17" x1="-652.54" y1="48.78" x2="-652.54" y2="-0.28" gradientTransform="matrix(1, 0, 0, -1, 691.3, 40.44)" xlink:href="#linear-gradient-3"/><linearGradient id="linear-gradient-18" x1="-650.49" y1="48.78" x2="-650.49" y2="-0.28" gradientTransform="matrix(1, 0, 0, -1, 687.19, 40.44)" xlink:href="#linear-gradient-3"/><linearGradient id="linear-gradient-19" x1="-648.44" y1="48.78" x2="-648.44" y2="-0.28" gradientTransform="matrix(1, 0, 0, -1, 683.09, 40.44)" xlink:href="#linear-gradient-3"/><linearGradient id="linear-gradient-20" x1="-646.38" y1="48.78" x2="-646.38" y2="-0.28" gradientTransform="matrix(1, 0, 0, -1, 678.99, 40.44)" xlink:href="#linear-gradient-3"/><linearGradient id="linear-gradient-21" x1="-654.59" y1="48.78" x2="-654.59" y2="-0.28" gradientTransform="matrix(1, 0, 0, -1, 695.4, 44.76)" xlink:href="#linear-gradient-3"/><linearGradient id="linear-gradient-22" x1="-652.54" y1="48.78" x2="-652.54" y2="-0.28" gradientTransform="matrix(1, 0, 0, -1, 691.3, 44.76)" xlink:href="#linear-gradient-3"/><linearGradient id="linear-gradient-23" x1="-650.49" y1="48.78" x2="-650.49" y2="-0.28" gradientTransform="matrix(1, 0, 0, -1, 687.19, 44.76)" xlink:href="#linear-gradient-3"/><linearGradient id="linear-gradient-24" x1="-648.44" y1="48.78" x2="-648.44" y2="-0.28" gradientTransform="matrix(1, 0, 0, -1, 683.09, 44.76)" xlink:href="#linear-gradient-3"/><linearGradient id="linear-gradient-25" x1="-646.38" y1="48.78" x2="-646.38" y2="-0.28" gradientTransform="matrix(1, 0, 0, -1, 678.99, 44.76)" xlink:href="#linear-gradient-3"/><linearGradient id="linear-gradient-26" x1="-654.59" y1="48.78" x2="-654.59" y2="-0.28" gradientTransform="matrix(1, 0, 0, -1, 695.4, 49.08)" xlink:href="#linear-gradient-3"/><linearGradient id="linear-gradient-27" x1="-652.54" y1="48.78" x2="-652.54" y2="-0.28" gradientTransform="matrix(1, 0, 0, -1, 691.3, 49.08)" xlink:href="#linear-gradient-3"/><linearGradient id="linear-gradient-28" x1="-650.49" y1="48.78" x2="-650.49" y2="-0.28" gradientTransform="matrix(1, 0, 0, -1, 687.19, 49.08)" xlink:href="#linear-gradient-3"/><linearGradient id="linear-gradient-29" x1="-648.44" y1="48.78" x2="-648.44" y2="-0.28" gradientTransform="matrix(1, 0, 0, -1, 683.09, 49.08)" xlink:href="#linear-gradient-3"/><linearGradient id="linear-gradient-30" x1="-646.38" y1="48.78" x2="-646.38" y2="-0.28" gradientTransform="matrix(1, 0, 0, -1, 678.99, 49.08)" xlink:href="#linear-gradient-3"/><linearGradient id="linear-gradient-31" x1="-654.59" y1="48.78" x2="-654.59" y2="-0.28" gradientTransform="matrix(1, 0, 0, -1, 695.4, 53.4)" xlink:href="#linear-gradient-3"/><linearGradient id="linear-gradient-32" x1="-652.54" y1="48.78" x2="-652.54" y2="-0.28" gradientTransform="matrix(1, 0, 0, -1, 691.3, 53.4)" xlink:href="#linear-gradient-3"/><linearGradient id="linear-gradient-33" x1="-650.49" y1="48.78" x2="-650.49" y2="-0.28" gradientTransform="matrix(1, 0, 0, -1, 687.19, 53.4)" xlink:href="#linear-gradient-3"/><linearGradient id="linear-gradient-34" x1="-648.44" y1="48.78" x2="-648.44" y2="-0.28" gradientTransform="matrix(1, 0, 0, -1, 683.09, 53.4)" xlink:href="#linear-gradient-3"/><linearGradient id="linear-gradient-35" x1="-646.38" y1="48.78" x2="-646.38" y2="-0.28" gradientTransform="matrix(1, 0, 0, -1, 678.99, 53.4)" xlink:href="#linear-gradient-3"/><linearGradient id="linear-gradient-36" x1="-654.59" y1="48.78" x2="-654.59" y2="-0.28" gradientTransform="matrix(1, 0, 0, -1, 695.4, 57.73)" xlink:href="#linear-gradient-3"/><linearGradient id="linear-gradient-37" x1="-652.54" y1="48.78" x2="-652.54" y2="-0.28" gradientTransform="matrix(1, 0, 0, -1, 691.3, 57.73)" xlink:href="#linear-gradient-3"/><linearGradient id="linear-gradient-38" x1="-650.49" y1="48.78" x2="-650.49" y2="-0.28" gradientTransform="matrix(1, 0, 0, -1, 687.19, 57.73)" xlink:href="#linear-gradient-3"/><linearGradient id="linear-gradient-39" x1="-648.44" y1="48.78" x2="-648.44" y2="-0.28" gradientTransform="matrix(1, 0, 0, -1, 683.09, 57.73)" xlink:href="#linear-gradient-3"/><linearGradient id="linear-gradient-40" x1="-646.38" y1="48.78" x2="-646.38" y2="-0.28" gradientTransform="matrix(1, 0, 0, -1, 678.99, 57.73)" xlink:href="#linear-gradient-3"/><linearGradient id="linear-gradient-41" x1="-654.59" y1="48.78" x2="-654.59" y2="-0.28" gradientTransform="matrix(1, 0, 0, -1, 695.4, 62.05)" xlink:href="#linear-gradient-3"/><linearGradient id="linear-gradient-42" x1="-652.54" y1="48.78" x2="-652.54" y2="-0.28" gradientTransform="matrix(1, 0, 0, -1, 691.3, 62.05)" xlink:href="#linear-gradient-3"/><linearGradient id="linear-gradient-43" x1="-650.49" y1="48.78" x2="-650.49" y2="-0.28" gradientTransform="matrix(1, 0, 0, -1, 687.19, 62.05)" xlink:href="#linear-gradient-3"/><linearGradient id="linear-gradient-44" x1="-648.44" y1="48.78" x2="-648.44" y2="-0.28" gradientTransform="matrix(1, 0, 0, -1, 683.09, 62.05)" xlink:href="#linear-gradient-3"/><linearGradient id="linear-gradient-45" x1="-646.38" y1="48.78" x2="-646.38" y2="-0.28" gradientTransform="matrix(1, 0, 0, -1, 678.99, 62.05)" xlink:href="#linear-gradient-3"/><linearGradient id="linear-gradient-46" x1="-654.59" y1="48.78" x2="-654.59" y2="-0.28" gradientTransform="matrix(1, 0, 0, -1, 695.4, 66.37)" xlink:href="#linear-gradient-3"/><linearGradient id="linear-gradient-47" x1="-652.54" y1="48.78" x2="-652.54" y2="-0.28" gradientTransform="matrix(1, 0, 0, -1, 691.3, 66.37)" xlink:href="#linear-gradient-3"/><linearGradient id="linear-gradient-48" x1="-650.49" y1="48.78" x2="-650.49" y2="-0.28" gradientTransform="matrix(1, 0, 0, -1, 687.19, 66.37)" xlink:href="#linear-gradient-3"/><linearGradient id="linear-gradient-49" x1="-648.44" y1="48.78" x2="-648.44" y2="-0.28" gradientTransform="matrix(1, 0, 0, -1, 683.09, 66.37)" xlink:href="#linear-gradient-3"/><linearGradient id="linear-gradient-50" x1="-646.38" y1="48.78" x2="-646.38" y2="-0.28" gradientTransform="matrix(1, 0, 0, -1, 678.99, 66.37)" xlink:href="#linear-gradient-3"/><linearGradient id="linear-gradient-51" x1="-654.59" y1="48.78" x2="-654.59" y2="-0.28" gradientTransform="matrix(1, 0, 0, -1, 695.4, 70.69)" xlink:href="#linear-gradient-3"/><linearGradient id="linear-gradient-52" x1="-652.54" y1="48.78" x2="-652.54" y2="-0.28" gradientTransform="matrix(1, 0, 0, -1, 691.3, 70.69)" xlink:href="#linear-gradient-3"/><linearGradient id="linear-gradient-53" x1="-650.49" y1="48.78" x2="-650.49" y2="-0.28" gradientTransform="matrix(1, 0, 0, -1, 687.19, 70.69)" xlink:href="#linear-gradient-3"/><linearGradient id="linear-gradient-54" x1="-648.44" y1="48.78" x2="-648.44" y2="-0.28" gradientTransform="matrix(1, 0, 0, -1, 683.09, 70.69)" xlink:href="#linear-gradient-3"/><linearGradient id="linear-gradient-55" x1="-646.38" y1="48.78" x2="-646.38" y2="-0.28" gradientTransform="matrix(1, 0, 0, -1, 678.99, 70.69)" xlink:href="#linear-gradient-3"/><linearGradient id="linear-gradient-56" x1="-654.59" y1="48.78" x2="-654.59" y2="-0.28" gradientTransform="matrix(1, 0, 0, -1, 695.4, 75.01)" xlink:href="#linear-gradient-3"/><linearGradient id="linear-gradient-57" x1="-652.54" y1="48.78" x2="-652.54" y2="-0.28" gradientTransform="matrix(1, 0, 0, -1, 691.3, 75.01)" xlink:href="#linear-gradient-3"/><linearGradient id="linear-gradient-58" x1="-650.49" y1="48.78" x2="-650.49" y2="-0.28" gradientTransform="matrix(1, 0, 0, -1, 687.19, 75.01)" xlink:href="#linear-gradient-3"/><linearGradient id="linear-gradient-59" x1="-648.44" y1="48.78" x2="-648.44" y2="-0.28" gradientTransform="matrix(1, 0, 0, -1, 683.09, 75.01)" xlink:href="#linear-gradient-3"/><linearGradient id="linear-gradient-60" x1="-646.38" y1="48.78" x2="-646.38" y2="-0.28" gradientTransform="matrix(1, 0, 0, -1, 678.99, 75.01)" xlink:href="#linear-gradient-3"/><linearGradient id="linear-gradient-61" x1="-654.59" y1="48.78" x2="-654.59" y2="-0.28" gradientTransform="matrix(1, 0, 0, -1, 695.4, 79.34)" xlink:href="#linear-gradient-3"/><linearGradient id="linear-gradient-62" x1="-652.54" y1="48.78" x2="-652.54" y2="-0.28" gradientTransform="matrix(1, 0, 0, -1, 691.3, 79.34)" xlink:href="#linear-gradient-3"/><linearGradient id="linear-gradient-63" x1="-650.49" y1="48.78" x2="-650.49" y2="-0.28" gradientTransform="matrix(1, 0, 0, -1, 687.19, 79.34)" xlink:href="#linear-gradient-3"/><linearGradient id="linear-gradient-64" x1="-648.44" y1="48.78" x2="-648.44" y2="-0.28" gradientTransform="matrix(1, 0, 0, -1, 683.09, 79.34)" xlink:href="#linear-gradient-3"/><linearGradient id="linear-gradient-65" x1="-646.38" y1="48.78" x2="-646.38" y2="-0.28" gradientTransform="matrix(1, 0, 0, -1, 678.99, 79.34)" xlink:href="#linear-gradient-3"/><linearGradient id="linear-gradient-66" x1="-633.43" y1="44.87" x2="-633.43" y2="14.91" gradientTransform="matrix(-1, 0, 0, 1, -613.78, 0)" xlink:href="#linear-gradient-3"/><linearGradient id="linear-gradient-67" x1="-666.49" y1="25.69" x2="-666.49" y2="25.13" gradientTransform="matrix(-1, 0, 0, 1, -613.78, 0)" xlink:href="#linear-gradient-3"/><linearGradient id="linear-gradient-68" x1="53.49" y1="57.06" x2="53.49" y2="32.81" gradientUnits="userSpaceOnUse"><stop offset="0" stop-color="#7ff1a4"/><stop offset="0.52" stop-color="#2fbca4"/><stop offset="1" stop-color="#2f7da4"/></linearGradient><linearGradient id="linear-gradient-69" x1="54.21" y1="50.1" x2="54.21" y2="38.56" xlink:href="#linear-gradient-3"/><linearGradient id="linear-gradient-70" x1="48.92" y1="59.34" x2="48.92" y2="41.81" xlink:href="#linear-gradient-68"/><linearGradient id="linear-gradient-71" x1="48.34" y1="54.45" x2="48.34" y2="51.76" xlink:href="#linear-gradient-3"/><linearGradient id="linear-gradient-72" x1="49.15" y1="54.28" x2="49.15" y2="51.58" xlink:href="#linear-gradient-3"/><linearGradient id="linear-gradient-73" x1="13.49" y1="50.12" x2="16.18" y2="46.87" gradientUnits="userSpaceOnUse"><stop offset="0" stop-color="#1a305d"/><stop offset="0.76" stop-color="#03153b"/></linearGradient><linearGradient id="linear-gradient-74" x1="24.86" y1="55.18" x2="24" y2="34.98" xlink:href="#linear-gradient-73"/><linearGradient id="linear-gradient-75" x1="17.71" y1="21.32" x2="19.32" y2="48.1" gradientUnits="userSpaceOnUse"><stop offset="0.27" stop-color="#8f3c00"/><stop offset="1" stop-color="#601a00"/></linearGradient><linearGradient id="linear-gradient-76" x1="-1.75" y1="20.14" x2="33.49" y2="38.22" xlink:href="#linear-gradient-75"/><linearGradient id="linear-gradient-77" x1="15.98" y1="31.78" x2="14.83" y2="23.95" gradientUnits="userSpaceOnUse"><stop offset="0" stop-color="#e0ab00"/><stop offset="0.53" stop-color="#e08a00"/><stop offset="1" stop-color="#cb6900"/></linearGradient><linearGradient id="linear-gradient-78" x1="9.54" y1="46.75" x2="16.02" y2="46.75" gradientUnits="userSpaceOnUse"><stop offset="0.09" stop-color="#e08a00"/><stop offset="0.75" stop-color="#cf7f00"/></linearGradient><linearGradient id="linear-gradient-79" x1="32.42" y1="28.87" x2="15" y2="8.75" gradientUnits="userSpaceOnUse"><stop offset="0" stop-color="#fbc19e"/><stop offset="0.48" stop-color="#ffb699"/><stop offset="1" stop-color="#f47e6d"/></linearGradient><linearGradient id="linear-gradient-80" x1="18.3" y1="12.14" x2="17.98" y2="6.8" xlink:href="#linear-gradient-77"/><linearGradient id="linear-gradient-81" x1="15.02" y1="3.99" x2="21.74" y2="16.96" xlink:href="#linear-gradient-77"/><linearGradient id="linear-gradient-82" x1="17.15" y1="10.55" x2="15.9" y2="2.05" xlink:href="#linear-gradient-77"/><linearGradient id="linear-gradient-83" x1="13.98" y1="18.13" x2="14.11" y2="11.22" gradientUnits="userSpaceOnUse"><stop offset="0.32" stop-color="#8e241c"/><stop offset="0.75" stop-color="#64241c"/></linearGradient><linearGradient id="linear-gradient-84" x1="14.22" y1="21.61" x2="27.54" y2="10.11" xlink:href="#linear-gradient-83"/><linearGradient id="linear-gradient-85" x1="11.27" y1="18.19" x2="24.58" y2="6.69" xlink:href="#linear-gradient-83"/><linearGradient id="linear-gradient-86" x1="7.87" y1="38.03" x2="45.51" y2="-18.18" xlink:href="#linear-gradient-75"/><linearGradient id="linear-gradient-87" x1="14.85" y1="34.26" x2="19.05" y2="29.48" xlink:href="#linear-gradient-75"/><linearGradient id="linear-gradient-88" x1="25.79" y1="30.18" x2="24.8" y2="23.44" xlink:href="#linear-gradient-77"/><linearGradient id="linear-gradient-89" x1="23.74" y1="29.81" x2="25.75" y2="12.52" xlink:href="#linear-gradient-75"/></defs><title>construction</title><g class="cls-1"><g id="Layer_1" data-name="Layer 1"><circle class="cls-2" cx="32" cy="32" r="28"/><path class="cls-3" d="M4,32A27.87,27.87,0,0,0,7.37,45.33H56.63A28,28,0,1,0,4,32Z"/><path class="cls-4" d="M46.36,8.68C44.75,11,39.18,14.6,32.54,16.82A177.1,177.1,0,0,0,50,10.6a28.08,28.08,0,0,0-3.3-2.4A4.34,4.34,0,0,0,46.36,8.68Z"/><path class="cls-5" d="M54,14.74a5.47,5.47,0,0,0-1,.71c-.61.52-3,.62-4,1.65s-4.16,2.31-7.71,2.8a93.24,93.24,0,0,0,14.48-2.73A28.05,28.05,0,0,0,54,14.74Z"/><path class="cls-6" d="M24.29,14a14.37,14.37,0,0,1-5.2.28c-2-.48-2.88.54-4.24-.15a2,2,0,0,0-2.7.89c-.31.66-1.34,0-2,.59A2.42,2.42,0,0,1,9,16l-.27.39C10.91,16.8,16.17,17.15,24.29,14Z"/><path class="cls-7" d="M33.63,8.64S29.85,9.9,28,9.57a5.71,5.71,0,0,0,1.5-.73,1.93,1.93,0,0,1,1.79-.37c.41.25.57-.36,1-.13A4.58,4.58,0,0,0,33.63,8.64Z"/><path class="cls-8" d="M35.75,19.85s-3.78,1.26-5.58.93a5.71,5.71,0,0,0,1.5-.73,1.93,1.93,0,0,1,1.79-.37c.41.25.57-.36,1-.13A4.58,4.58,0,0,0,35.75,19.85Z"/><path class="cls-9" d="M15.08,9.43s2.9-.23,4-1a4.18,4.18,0,0,1-1.22-.07,1.41,1.41,0,0,0-1.31.26c-.2.29-.48-.08-.73.2A3.35,3.35,0,0,1,15.08,9.43Z"/><path class="cls-10" d="M59.91,34.17h-5.7V27a3,3,0,0,0-6,0v4.65H46v7H29.52l-.61,6.7H56.63A27.83,27.83,0,0,0,59.91,34.17Z"/><path class="cls-11" d="M58.8,40.1H53.53V42H43.85V15.87a.93.93,0,0,0-.93-.93H30.8a.93.93,0,0,0-.93.93V35.1h-2.1a1,1,0,0,0-1,1v2H19.42V32.88a1.07,1.07,0,0,0-1.07-1.07H12.5V28.61a5.38,5.38,0,0,0-5.38-5.38H5.41a28,28,0,0,0,2,22.11H56.63A27.83,27.83,0,0,0,58.8,40.1Z"/><rect class="cls-12" x="40.22" y="17.46" width="1.18" height="1.18" rx="0.09" ry="0.09" transform="translate(81.62 36.11) rotate(-180)"/><rect class="cls-13" x="38.17" y="17.46" width="1.18" height="1.18" rx="0.09" ry="0.09" transform="translate(77.52 36.11) rotate(-180)"/><rect class="cls-14" x="36.11" y="17.46" width="1.18" height="1.18" rx="0.09" ry="0.09" transform="translate(73.41 36.11) rotate(-180)"/><rect class="cls-15" x="34.06" y="17.46" width="1.18" height="1.18" rx="0.09" ry="0.09" transform="translate(69.31 36.11) rotate(-180)"/><rect class="cls-16" x="32.01" y="17.46" width="1.18" height="1.18" rx="0.09" ry="0.09" transform="translate(65.21 36.11) rotate(-180)"/><rect class="cls-17" x="40.22" y="19.63" width="1.18" height="1.18" rx="0.09" ry="0.09" transform="translate(81.62 40.44) rotate(-180)"/><rect class="cls-18" x="38.17" y="19.63" width="1.18" height="1.18" rx="0.09" ry="0.09" transform="translate(77.52 40.44) rotate(-180)"/><rect class="cls-19" x="36.11" y="19.63" width="1.18" height="1.18" rx="0.09" ry="0.09" transform="translate(73.41 40.44) rotate(-180)"/><rect class="cls-20" x="34.06" y="19.63" width="1.18" height="1.18" rx="0.09" ry="0.09" transform="translate(69.31 40.44) rotate(-180)"/><rect class="cls-21" x="32.01" y="19.63" width="1.18" height="1.18" rx="0.09" ry="0.09" transform="translate(65.21 40.44) rotate(-180)"/><rect class="cls-22" x="40.22" y="21.79" width="1.18" height="1.18" rx="0.09" ry="0.09" transform="translate(81.62 44.76) rotate(-180)"/><rect class="cls-23" x="38.17" y="21.79" width="1.18" height="1.18" rx="0.09" ry="0.09" transform="translate(77.52 44.76) rotate(-180)"/><rect class="cls-24" x="36.11" y="21.79" width="1.18" height="1.18" rx="0.09" ry="0.09" transform="translate(73.41 44.76) rotate(-180)"/><rect class="cls-25" x="34.06" y="21.79" width="1.18" height="1.18" rx="0.09" ry="0.09" transform="translate(69.31 44.76) rotate(-180)"/><rect class="cls-26" x="32.01" y="21.79" width="1.18" height="1.18" rx="0.09" ry="0.09" transform="translate(65.21 44.76) rotate(-180)"/><rect class="cls-27" x="40.22" y="23.95" width="1.18" height="1.18" rx="0.09" ry="0.09" transform="translate(81.62 49.08) rotate(-180)"/><rect class="cls-28" x="38.17" y="23.95" width="1.18" height="1.18" rx="0.09" ry="0.09" transform="translate(77.52 49.08) rotate(-180)"/><rect class="cls-29" x="36.11" y="23.95" width="1.18" height="1.18" rx="0.09" ry="0.09" transform="translate(73.41 49.08) rotate(-180)"/><rect class="cls-30" x="34.06" y="23.95" width="1.18" height="1.18" rx="0.09" ry="0.09" transform="translate(69.31 49.08) rotate(-180)"/><rect class="cls-31" x="32.01" y="23.95" width="1.18" height="1.18" rx="0.09" ry="0.09" transform="translate(65.21 49.08) rotate(-180)"/><rect class="cls-32" x="40.22" y="26.11" width="1.18" height="1.18" rx="0.09" ry="0.09" transform="translate(81.62 53.4) rotate(-180)"/><rect class="cls-33" x="38.17" y="26.11" width="1.18" height="1.18" rx="0.09" ry="0.09" transform="translate(77.52 53.4) rotate(-180)"/><rect class="cls-34" x="36.11" y="26.11" width="1.18" height="1.18" rx="0.09" ry="0.09" transform="translate(73.41 53.4) rotate(-180)"/><rect class="cls-35" x="34.06" y="26.11" width="1.18" height="1.18" rx="0.09" ry="0.09" transform="translate(69.31 53.4) rotate(-180)"/><rect class="cls-36" x="32.01" y="26.11" width="1.18" height="1.18" rx="0.09" ry="0.09" transform="translate(65.21 53.4) rotate(-180)"/><rect class="cls-37" x="40.22" y="28.27" width="1.18" height="1.18" rx="0.09" ry="0.09" transform="translate(81.62 57.73) rotate(-180)"/><rect class="cls-38" x="38.17" y="28.27" width="1.18" height="1.18" rx="0.09" ry="0.09" transform="translate(77.52 57.73) rotate(-180)"/><rect class="cls-39" x="36.11" y="28.27" width="1.18" height="1.18" rx="0.09" ry="0.09" transform="translate(73.41 57.73) rotate(-180)"/><rect class="cls-40" x="34.06" y="28.27" width="1.18" height="1.18" rx="0.09" ry="0.09" transform="translate(69.31 57.73) rotate(-180)"/><rect class="cls-41" x="32.01" y="28.27" width="1.18" height="1.18" rx="0.09" ry="0.09" transform="translate(65.21 57.73) rotate(-180)"/><rect class="cls-42" x="40.22" y="30.43" width="1.18" height="1.18" rx="0.09" ry="0.09" transform="translate(81.62 62.05) rotate(-180)"/><rect class="cls-43" x="38.17" y="30.43" width="1.18" height="1.18" rx="0.09" ry="0.09" transform="translate(77.52 62.05) rotate(-180)"/><rect class="cls-44" x="36.11" y="30.43" width="1.18" height="1.18" rx="0.09" ry="0.09" transform="translate(73.41 62.05) rotate(-180)"/><rect class="cls-45" x="34.06" y="30.43" width="1.18" height="1.18" rx="0.09" ry="0.09" transform="translate(69.31 62.05) rotate(-180)"/><rect class="cls-46" x="32.01" y="30.43" width="1.18" height="1.18" rx="0.09" ry="0.09" transform="translate(65.21 62.05) rotate(-180)"/><rect class="cls-47" x="40.22" y="32.59" width="1.18" height="1.18" rx="0.09" ry="0.09" transform="translate(81.62 66.37) rotate(-180)"/><rect class="cls-48" x="38.17" y="32.59" width="1.18" height="1.18" rx="0.09" ry="0.09" transform="translate(77.52 66.37) rotate(-180)"/><rect class="cls-49" x="36.11" y="32.59" width="1.18" height="1.18" rx="0.09" ry="0.09" transform="translate(73.41 66.37) rotate(-180)"/><rect class="cls-50" x="34.06" y="32.59" width="1.18" height="1.18" rx="0.09" ry="0.09" transform="translate(69.31 66.37) rotate(-180)"/><rect class="cls-51" x="32.01" y="32.59" width="1.18" height="1.18" rx="0.09" ry="0.09" transform="translate(65.21 66.37) rotate(-180)"/><rect class="cls-52" x="40.22" y="34.75" width="1.18" height="1.18" rx="0.09" ry="0.09" transform="translate(81.62 70.69) rotate(-180)"/><rect class="cls-53" x="38.17" y="34.75" width="1.18" height="1.18" rx="0.09" ry="0.09" transform="translate(77.52 70.69) rotate(-180)"/><rect class="cls-54" x="36.11" y="34.75" width="1.18" height="1.18" rx="0.09" ry="0.09" transform="translate(73.41 70.69) rotate(-180)"/><rect class="cls-55" x="34.06" y="34.75" width="1.18" height="1.18" rx="0.09" ry="0.09" transform="translate(69.31 70.69) rotate(-180)"/><rect class="cls-56" x="32.01" y="34.75" width="1.18" height="1.18" rx="0.09" ry="0.09" transform="translate(65.21 70.69) rotate(-180)"/><rect class="cls-57" x="40.22" y="36.92" width="1.18" height="1.18" rx="0.09" ry="0.09" transform="translate(81.62 75.01) rotate(-180)"/><rect class="cls-58" x="38.17" y="36.92" width="1.18" height="1.18" rx="0.09" ry="0.09" transform="translate(77.52 75.01) rotate(-180)"/><rect class="cls-59" x="36.11" y="36.92" width="1.18" height="1.18" rx="0.09" ry="0.09" transform="translate(73.41 75.01) rotate(-180)"/><rect class="cls-60" x="34.06" y="36.92" width="1.18" height="1.18" rx="0.09" ry="0.09" transform="translate(69.31 75.01) rotate(-180)"/><rect class="cls-61" x="32.01" y="36.92" width="1.18" height="1.18" rx="0.09" ry="0.09" transform="translate(65.21 75.01) rotate(-180)"/><rect class="cls-62" x="40.22" y="39.08" width="1.18" height="1.18" rx="0.09" ry="0.09" transform="translate(81.62 79.34) rotate(-180)"/><rect class="cls-63" x="38.17" y="39.08" width="1.18" height="1.18" rx="0.09" ry="0.09" transform="translate(77.52 79.34) rotate(-180)"/><rect class="cls-64" x="36.11" y="39.08" width="1.18" height="1.18" rx="0.09" ry="0.09" transform="translate(73.41 79.34) rotate(-180)"/><rect class="cls-65" x="34.06" y="39.08" width="1.18" height="1.18" rx="0.09" ry="0.09" transform="translate(69.31 79.34) rotate(-180)"/><rect class="cls-66" x="32.01" y="39.08" width="1.18" height="1.18" rx="0.09" ry="0.09" transform="translate(65.21 79.34) rotate(-180)"/><path class="cls-67" d="M18.35,31.81a1.07,1.07,0,0,1,1.07,1.07v5.19h7.38v.27a4.69,4.69,0,0,1-4.69,4.77H18.93v-2H12.5V31.81Z"/><path class="cls-68" d="M53,25.39c.07,0-.05.12-.19.21h0l-.11,0a.39.39,0,0,1-.2-.12A1.58,1.58,0,0,1,53,25.39Z"/><path class="cls-69" d="M56,41.44a2.66,2.66,0,0,0-5.19.51,2.69,2.69,0,0,0,0,.6,1.06,1.06,0,0,1-.47,1,2.66,2.66,0,0,0-.39,4.12,1.72,1.72,0,0,1,.4.56,1.89,1.89,0,0,0,1.74,1.16l.24,0a1.9,1.9,0,0,1,1.24.24l.14.06a28,28,0,0,0,4.12-6.87,2.65,2.65,0,0,0-1.09-.62A1.11,1.11,0,0,1,56,41.44Z"/><path class="cls-70" d="M54,49.33l0-2.88.45-.24a2.07,2.07,0,0,0,.23-.13.87.87,0,0,0,.19-.19l0-.06h0l.47-.25a2.07,2.07,0,0,0,.23-.13.87.87,0,0,0,.32-.43c0-.09,0-.17.07-.26l.14-.51-.15.51c0,.08,0,.17-.08.25a.84.84,0,0,1-.32.4,2,2,0,0,1-.23.12l-.4.2,0-.08c0-.09,0-.17.07-.26l.14-.51-.15.51c0,.08,0,.17-.08.25l0,.11,0,0h0a0,0,0,0,0,0,0h0l0,0a.83.83,0,0,1-.19.18,2,2,0,0,1-.23.12l-.43.21,0-2.4,0,3.13L53.63,47a.91.91,0,0,1-.27-.19.82.82,0,0,1-.18-.27c0-.05,0-.1-.05-.16a.34.34,0,0,0-.1-.14.36.36,0,0,0-.16-.07l-.16,0a.37.37,0,0,1-.22-.22c-.06-.21-.11-.43-.16-.65,0,.22.09.44.15.66a.39.39,0,0,0,.23.24l.16,0a.33.33,0,0,1,.14.07.31.31,0,0,1,.09.13s0,.11,0,.16a.87.87,0,0,0,.18.29,1,1,0,0,0,.28.2l.26.14,0,2.35Z"/><path class="cls-71" d="M51.44,51.55a.68.68,0,0,1-.3-.66A1.71,1.71,0,0,0,49.57,49a1.71,1.71,0,0,0-1.76,1.22.72.72,0,0,1-.48.49,1.71,1.71,0,0,0-.73,2.86.6.6,0,0,1,.18.43v0a1.7,1.7,0,0,0,.68,1.36,28.13,28.13,0,0,0,4.3-3.51A1.71,1.71,0,0,0,51.44,51.55Z"/><path class="cls-72" d="M48.85,54.25l-.15-.08a.54.54,0,0,1-.12-.11l0,0h0a0,0,0,0,0,0,0h0l0-.07-.05-.16-.1-.33.09.33,0,.17,0,.05-.26-.13-.15-.08a.54.54,0,0,1-.2-.26l-.05-.16-.1-.33.09.33,0,.17a.56.56,0,0,0,.2.28l.15.09.3.16h0l0,0a.56.56,0,0,0,.12.12l.15.09.07,0,0,0Z"/><path class="cls-73" d="M49.15,52.85l0,1.3,0,0Z"/><path class="cls-74" d="M11.41,51A28.09,28.09,0,0,0,19.46,57c2.27-7.23,3.49-12.31,3.49-12.31L11.36,38.57A55.92,55.92,0,0,1,11.41,51Z"/><path class="cls-75" d="M28.66,36.31s-9-2.58-9,4.28c0,2.68,1.09,9.85,2.41,17.58a27.83,27.83,0,0,0,7.47,1.71C29.15,47,28.66,36.31,28.66,36.31Z"/><path id="_Path_" data-name="&lt;Path&gt;" class="cls-76" d="M27.32,21.53a11,11,0,0,1,1.46,5c.28,6-.53,6.94.14,11.37s-2.51,7.92-6.13,7.85c0,0-9.43,0-14.23-12.57,0,0-4.86-13.11,4.2-16.25A16.31,16.31,0,0,1,17.37,16a11,11,0,0,1,10,5.54Z"/><path class="cls-77" d="M19.07,36.87a18.3,18.3,0,0,0,9.59-3.09s-8.56-5-9-7.65,4.43-6.66,4.43-6.66l-7.81-3.38a17.15,17.15,0,0,0-3.5.83c-9.05,3.13-4.2,16.25-4.2,16.25a21,21,0,0,0,6.94,9.74C13.65,41.19,13.22,37.12,19.07,36.87Z"/><path class="cls-78" d="M17.93,27.87s-2.44-1.77-3.87,0a2.93,2.93,0,0,0-.6,3.25,24.86,24.86,0,0,0,3,.36"/><path id="_Path_2" data-name="&lt;Path&gt;" class="cls-79" d="M18.18,45V48.4a2.11,2.11,0,0,1-2,2.18H13.31A3.89,3.89,0,0,1,9.54,46.9V45a2.34,2.34,0,0,1,2.27-2.11h4.42A2.05,2.05,0,0,1,18.18,45Z"/><path id="_Path_3" data-name="&lt;Path&gt;" class="cls-80" d="M16,45V48.4a2.12,2.12,0,0,1-2,2.18h-.75A3.89,3.89,0,0,1,9.54,46.9V45a2.34,2.34,0,0,1,2.27-2.11h2.25A2.06,2.06,0,0,1,16,45Z"/><path id="_Path_4" data-name="&lt;Path&gt;" class="cls-81" d="M12.06,46.66h2.31a1.69,1.69,0,0,0,1.69-1.55L16.23,43H11.32a1.46,1.46,0,0,0-1.46,1.52h0A2.21,2.21,0,0,0,12.06,46.66Z"/><circle id="_Path_5" data-name="&lt;Path&gt;" class="cls-82" cx="12.78" cy="45.9" r="0.53"/><path id="_Path_6" data-name="&lt;Path&gt;" class="cls-81" d="M16.11,44.52s-.08-1.14,1.28-1.14A1.92,1.92,0,0,0,16.23,43a.93.93,0,0,0-.91.5Z"/><path class="cls-83" d="M23,11.3l-3.21-5a.65.65,0,0,0-.58-.3C13.94,6.25,14,11.37,14.59,14c.53,2.21-1.25,2.55-1.83,3,0,0-.69,3.17,4.49,3.17,3.37,0,4.6-1.15,5-2.34a1.66,1.66,0,0,0,.07-.77,16.49,16.49,0,0,0-1.68-.64.35.35,0,0,1-.12-.62,3.31,3.31,0,0,0,1.29-2.38h0a1.21,1.21,0,0,1,.84-1.08A.65.65,0,0,0,23,11.3Z"/><path class="cls-84" d="M23,12.08c-.8.44-2.19-2.28-1.94-2.62A1.69,1.69,0,0,1,21.58,9l-.52-.81-1.87.2L16.37,11l-2.05.8A10.48,10.48,0,0,0,14.59,14a2.29,2.29,0,0,1-.12,1.68A2.07,2.07,0,0,1,15.73,17c.57,1.32,3.37,3,3.38,3h0l-.9-4.86,1.94.1s1.61-2.56,1.3-2.43a1.39,1.39,0,0,1-1.87-.8c-.34-1.13,1-1.65,1.29-1.13a16,16,0,0,0,1.28,1.8,1.24,1.24,0,0,1,.55-.37l.07,0,.21-.15Z"/><path class="cls-85" d="M22.42,12.39a8,8,0,0,0-2.55,1.32c-1.43,1.4-2.1-1.83-1.33-2.75,1.19-1.42,1.17-2,1.17-2l-5.84,1.37a6,6,0,0,0-.76,3.41,2.6,2.6,0,0,0,1.31,1.89A3.46,3.46,0,0,0,15,13.31c-.37-1.35,1.65-2.24,1.94.25s-.07,6.34,3.71,6.93S26,17.73,22.86,15C22.12,14.3,22.42,12.39,22.42,12.39Z"/><path id="_Path_7" data-name="&lt;Path&gt;" class="cls-79" d="M29,39.26s.63,7.66-12.93,7v2.45s13.29.93,13.29-5.84Z"/><path id="_Path_8" data-name="&lt;Path&gt;" class="cls-79" d="M24.32,44.58l4.58-2a.26.26,0,0,1,.33.14h0a3.71,3.71,0,0,1-1.66,5l-.43.19a1.56,1.56,0,0,1-2-.87l-.91-2A.26.26,0,0,1,24.32,44.58Z"/><path id="_Path_9" data-name="&lt;Path&gt;" class="cls-81" d="M25.68,44l3.88-1.73a.24.24,0,0,1,.3.16h0c.87,1.95.34,4.08-1.17,4.75l-1.33.59a.24.24,0,0,1-.3-.16L25.6,44.3A.24.24,0,0,1,25.68,44Z"/><path class="cls-86" d="M22.82,7.52a.43.43,0,0,0-.3-.23h-.08l-1.2,0h-.17l-.09,0-.06,0s-.06,0-.07,0l-.07,0s-.21,0-.11-.09S20.56,7,20.54,7L19.57,5l0-.57c-.07-.19-.18,0-.38,0a6.66,6.66,0,0,0-3.77,1.25h0l-.22-.06c-1.34.93-2.44,2.29-1.59,4.44a.39.39,0,0,0,.28.25,5.43,5.43,0,0,0,3.4,0h0c.53-.16,1-.34,1.46-.53l3.9-1.7A.43.43,0,0,0,22.82,7.52Z"/><path id="_Path_10" data-name="&lt;Path&gt;" class="cls-87" d="M13.88,10.37a.44.44,0,0,1-.3-.26A3.48,3.48,0,0,1,15,5.59v0h0A11.53,11.53,0,0,1,19.32,4a.43.43,0,0,1,.47.29l.22.62.72,2a.41.41,0,0,0,.07.12l0,0,0,0,.05,0,.06,0,.09,0h.13a4.08,4.08,0,0,0-3.45,1.94,2.5,2.5,0,0,1-2,1.33A5.46,5.46,0,0,1,13.88,10.37Z"/><path class="cls-88" d="M20.21,7.38c-.42.08-.56-.33-.85-1.51s-2.75-.61-4.64,1a2.85,2.85,0,0,0-1.08,3.33.46.46,0,0,0,.24.16,5.46,5.46,0,0,0,1.83.15,2.5,2.5,0,0,0,2-1.33,3.72,3.72,0,0,1,2.47-1.81Z"/><path class="cls-89" d="M15.07,12.54s-.48,1.17-1.32,1.21-.6-1.34-.6-1.36a3.53,3.53,0,0,0,0,1.39,2.6,2.6,0,0,0,1.31,1.89A3.46,3.46,0,0,0,15,13.31a1.13,1.13,0,0,1,.05-.77Z"/><path class="cls-90" d="M18.13,15.38c-.79.2-1.12-1.52-1.2-2l0,.14c.29,2.48-.07,6.34,3.71,6.93a4.85,4.85,0,0,0,1.65,0c-.43.05-.83-.16.16-.61,1.15-.52,1.28-1.74.5-2.23s-2.2.08-2.48-1.54,1.93-3.72,1.93-3.72-.43.13-1,.36c-.68.38-1.43.82-1.6,1C19.56,14,19,15.15,18.13,15.38Z"/><path class="cls-91" d="M16.92,13.31h0Z"/><path class="cls-92" d="M12.61,17A13.66,13.66,0,0,0,4.15,27.18c-1.57,7.93,9.53,13.07,23,.42l-1.47-.17a7.84,7.84,0,0,0-3.46.38c-3.53,1.22-11.58,3.72-10.56.58C13,24.4,12.61,17,12.61,17Z"/><path class="cls-93" d="M19.24,28.77a22.48,22.48,0,0,1-6,1.14h0s3.31,3.24,5.69,3.52a28.41,28.41,0,0,0,4.48-2.7Z"/><path class="cls-94" d="M23.15,27.55S25,25.65,26,26.24,27.88,29,27.88,29l-1.1.83"/><path class="cls-95" d="M23.71,17.59S35,23.9,31.55,31.17s-16.14-1.42-16.14-1.42,1.5-2.61,3.39-1.67c1.29.63,5.45.06,8-.37A2.25,2.25,0,0,0,28.61,25,14,14,0,0,0,23.71,17.59Z"/></g></g></svg>