<?xml version="1.0" standalone="no"?><!DOCTYPE svg PUBLIC "-//W3C//DTD SVG 1.1//EN" "http://www.w3.org/Graphics/SVG/1.1/DTD/svg11.dtd"><svg class="icon" width="200px" height="200.00px" viewBox="0 0 1024 1024" version="1.1" xmlns="http://www.w3.org/2000/svg"><path d="M907.5 113.6H207.8c-35.1 0-63.6 28.5-63.6 63.6v286.2H971V177.2c0.1-35.1-28.4-63.6-63.5-63.6M732.6 399.8c-17.6 0-31.8-14.2-31.8-31.8s14.2-31.8 31.8-31.8 31.8 14.2 31.8 31.8-14.3 31.8-31.8 31.8m127.2 0c-17.6 0-31.8-14.2-31.8-31.8s14.2-31.8 31.8-31.8 31.8 14.2 31.8 31.8-14.3 31.8-31.8 31.8m31.8-127.2H700.8v-95.4h190.8v95.4z" fill="#67c1b2" /><path d="M144.3 495.2c0 35.1 28.5 63.6 63.6 63.6h699.6c35.1 0 63.6-28.5 63.6-63.6v-31.8H144.3v31.8z" fill="#58b09a" /><path d="M700.8 177.2h190.8v95.4H700.8z" fill="#edb52b" /><path d="M859.8 336.2c-17.6 0-31.8 14.2-31.8 31.8s14.2 31.8 31.8 31.8 31.8-14.2 31.8-31.8c0-17.5-14.2-31.8-31.8-31.8M732.6 336.2c-17.6 0-31.8 14.2-31.8 31.8s14.2 31.8 31.8 31.8 31.8-14.2 31.8-31.8c0-17.5-14.3-31.8-31.8-31.8M239.7 590.6c0 17.6 14.2 31.8 31.8 31.8h31.8c17.6 0 31.8-14.2 31.8-31.8v-31.8h-95.4v31.8zM494.1 590.6c0 17.6 14.2 31.8 31.8 31.8h31.8c17.6 0 31.8-14.2 31.8-31.8v-31.8h-95.4v31.8zM207.9 113.6h2.3l-67.3-52.4C133.4 54 121.9 50 110 50h-7.8c-29.5 0-53.4 23.9-53.4 53.4 0 16.5 7.6 32 20.6 42.1l74.8 58.2v-26.5c0.1-35.1 28.5-63.6 63.7-63.6" fill="#eee3d2" /><path d="M971.1 479.3H144.3c-8.8 0-15.9-7.1-15.9-15.9V177.2c0-43.8 35.7-79.5 79.5-79.5h699.6c43.8 0 79.5 35.7 79.5 79.5v286.2c0 8.8-7.1 15.9-15.9 15.9z m-810.9-31.8h795V177.2c0-26.3-21.4-47.7-47.7-47.7H207.9c-26.3 0-47.7 21.4-47.7 47.7v270.3z" fill="#353535" /><path d="M907.5 574.7H207.9c-43.8 0-79.5-35.7-79.5-79.5v-31.8c0-8.8 7.1-15.9 15.9-15.9h826.8c8.8 0 15.9 7.1 15.9 15.9v31.8c0 43.9-35.7 79.5-79.5 79.5z m-747.3-95.4v15.9c0 26.3 21.4 47.7 47.7 47.7h699.6c26.3 0 47.7-21.4 47.7-47.7v-15.9h-795zM891.6 288.5H700.8c-8.8 0-15.9-7.1-15.9-15.9v-95.4c0-8.8 7.1-15.9 15.9-15.9h190.8c8.8 0 15.9 7.1 15.9 15.9v95.4c0 8.8-7.1 15.9-15.9 15.9z m-174.9-31.8h159v-63.6h-159v63.6zM859.8 415.7c-26.3 0-47.7-21.4-47.7-47.7 0-26.3 21.4-47.7 47.7-47.7 26.3 0 47.7 21.4 47.7 47.7 0 26.3-21.4 47.7-47.7 47.7z m0-63.6c-8.8 0-15.9 7.1-15.9 15.9s7.1 15.9 15.9 15.9 15.9-7.1 15.9-15.9c0-8.7-7.1-15.9-15.9-15.9zM732.6 415.7c-26.3 0-47.7-21.4-47.7-47.7 0-26.3 21.4-47.7 47.7-47.7 26.3 0 47.7 21.4 47.7 47.7 0 26.3-21.4 47.7-47.7 47.7z m0-63.6c-8.8 0-15.9 7.1-15.9 15.9s7.1 15.9 15.9 15.9 15.9-7.1 15.9-15.9c0-8.7-7.1-15.9-15.9-15.9z" fill="#353535" /><path d="M303.3 638.4h-31.8c-26.3 0-47.7-21.4-47.7-47.7v-31.8c0-8.8 7.1-15.9 15.9-15.9h95.4c8.8 0 15.9 7.1 15.9 15.9v31.8c0 26.3-21.4 47.7-47.7 47.7z m-47.7-63.7v15.9c0 8.8 7.1 15.9 15.9 15.9h31.8c8.8 0 15.9-7.1 15.9-15.9v-15.9h-63.6zM319.2 988.2h-63.6c-43.8 0-79.5-35.7-79.5-79.5v-95.4c0-43.8 35.7-79.5 79.5-79.5h63.6c43.8 0 79.5 35.7 79.5 79.5v95.4c0 43.8-35.7 79.5-79.5 79.5z m-63.6-222.6c-26.3 0-47.7 21.4-47.7 47.7v95.4c0 26.3 21.4 47.7 47.7 47.7h63.6c26.3 0 47.7-21.4 47.7-47.7v-95.4c0-26.3-21.4-47.7-47.7-47.7h-63.6z" fill="#353535" /><path d="M287.4 988.2c-46.4 0-47.7-114.2-47.7-127.2s1.3-127.2 47.7-127.2c46.4 0 47.7 114.2 47.7 127.2s-1.4 127.2-47.7 127.2z m0-219.9c-6.6 10.7-15.9 42.8-15.9 92.7 0 49.9 9.3 82 15.9 92.7 6.6-10.7 15.9-42.8 15.9-92.7 0-49.9-9.3-82-15.9-92.7z" fill="#353535" /><path d="M271.5 622.4h31.8v127.2h-31.8zM557.7 638.4h-31.8c-26.3 0-47.7-21.4-47.7-47.7v-31.8c0-8.8 7.1-15.9 15.9-15.9h95.4c8.8 0 15.9 7.1 15.9 15.9v31.8c0 26.3-21.4 47.7-47.7 47.7zM510 574.7v15.9c0 8.8 7.1 15.9 15.9 15.9h31.8c8.8 0 15.9-7.1 15.9-15.9v-15.9H510zM144.3 219.6c-3.5 0-6.9-1.1-9.8-3.4L59.7 158c-17-13.2-26.7-33.2-26.7-54.7C33 65.1 64.1 34 102.3 34h7.8c15.3 0 30.4 5.2 42.5 14.6l67.3 52.3c5.4 4.2 7.5 11.3 5.3 17.7-2.2 6.4-8.3 10.7-15 10.7h-2.3c-26.3 0-47.7 21.4-47.7 47.7v26.5c0 6.1-3.5 11.6-8.9 14.3-2.3 1.3-4.7 1.8-7 1.8zM102.2 65.9c-20.7 0-37.5 16.8-37.5 37.5 0 11.7 5.3 22.4 14.5 29.6l49.3 38.4c2.1-29.1 20-53.9 45.1-66L133 73.8c-6.6-5.1-14.7-7.9-23-7.9h-7.8zM923.4 654.2h31.8v47.7h-31.8zM923.4 749.7h31.8v174.9h-31.8zM812.1 686h31.8v47.7h-31.8zM812.1 781.4h31.8v174.9h-31.8zM573.6 988.2H510c-43.8 0-79.5-35.7-79.5-79.5v-95.4c0-43.8 35.7-79.5 79.5-79.5h63.6c43.8 0 79.5 35.7 79.5 79.5v95.4c0 43.8-35.7 79.5-79.5 79.5zM510 765.6c-26.3 0-47.7 21.4-47.7 47.7v95.4c0 26.3 21.4 47.7 47.7 47.7h63.6c26.3 0 47.7-21.4 47.7-47.7v-95.4c0-26.3-21.4-47.7-47.7-47.7H510z" fill="#353535" /><path d="M541.8 988.2c-46.4 0-47.7-114.2-47.7-127.2s1.3-127.2 47.7-127.2c46.4 0 47.7 114.2 47.7 127.2s-1.4 127.2-47.7 127.2z m0-219.9c-6.6 10.7-15.9 42.8-15.9 92.7 0 49.9 9.3 82 15.9 92.7 6.6-10.7 15.9-42.8 15.9-92.7 0-49.9-9.3-82-15.9-92.7z" fill="#353535" /><path d="M525.9 622.4h31.8v127.2h-31.8z" fill="#353535" /></svg>