<svg id="Layer_1" data-name="Layer 1" xmlns="http://www.w3.org/2000/svg" xmlns:xlink="http://www.w3.org/1999/xlink" viewBox="0 0 64 64"><defs><style>.cls-1{fill:url(#linear-gradient);}.cls-2{fill:url(#linear-gradient-2);}.cls-3{fill:url(#linear-gradient-3);}.cls-4{fill:url(#linear-gradient-4);}.cls-5{fill:url(#linear-gradient-5);}.cls-6{fill:url(#linear-gradient-6);}.cls-7{fill:url(#linear-gradient-7);}.cls-8{fill:url(#linear-gradient-8);}.cls-9{fill:url(#linear-gradient-9);}.cls-10{fill:#f9aa8f;}.cls-11{fill:url(#linear-gradient-10);}.cls-12{fill:url(#linear-gradient-11);}.cls-13{fill:url(#linear-gradient-12);}.cls-14{fill:url(#linear-gradient-13);}.cls-15{fill:url(#linear-gradient-14);}.cls-16{fill:url(#linear-gradient-15);}.cls-17{fill:url(#linear-gradient-16);}.cls-18{fill:url(#linear-gradient-17);}.cls-19{fill:url(#linear-gradient-18);}.cls-20{fill:url(#linear-gradient-19);}.cls-21{fill:url(#linear-gradient-20);}.cls-22{fill:#f16c52;}.cls-23{fill:url(#linear-gradient-21);}.cls-24{fill:#00a887;}.cls-25{fill:url(#linear-gradient-22);}.cls-26{fill:url(#linear-gradient-23);}.cls-27{fill:url(#linear-gradient-24);}.cls-28{fill:url(#linear-gradient-25);}.cls-29{fill:url(#linear-gradient-26);}.cls-30{fill:none;stroke:#00a887;stroke-linecap:round;stroke-miterlimit:10;stroke-width:0.75px;}.cls-31{fill:url(#linear-gradient-27);}.cls-32{fill:url(#linear-gradient-28);}.cls-33{fill:url(#linear-gradient-29);}.cls-34{fill:url(#linear-gradient-30);}</style><linearGradient id="linear-gradient" x1="32" y1="45.25" x2="32" y2="-39.82" gradientUnits="userSpaceOnUse"><stop offset="0" stop-color="#3db6d3"/><stop offset="0.5" stop-color="#3d6fd3"/><stop offset="1" stop-color="#252784"/></linearGradient><linearGradient id="linear-gradient-2" x1="18.86" y1="8.64" x2="18.86" y2="-14.2" xlink:href="#linear-gradient"/><linearGradient id="linear-gradient-3" x1="12.67" y1="11.68" x2="12.67" y2="-7.37" xlink:href="#linear-gradient"/><linearGradient id="linear-gradient-4" x1="42.72" y1="4" x2="42.72" y2="-28.39" xlink:href="#linear-gradient"/><linearGradient id="linear-gradient-5" x1="56.1" y1="9.02" x2="56.1" y2="-13.57" xlink:href="#linear-gradient"/><linearGradient id="linear-gradient-6" x1="28.67" y1="4" x2="28.67" y2="-28.39" xlink:href="#linear-gradient"/><linearGradient id="linear-gradient-7" x1="26.67" y1="4" x2="26.67" y2="-28.39" xlink:href="#linear-gradient"/><linearGradient id="linear-gradient-8" x1="41.63" y1="4" x2="41.63" y2="-28.39" xlink:href="#linear-gradient"/><linearGradient id="linear-gradient-9" x1="32" y1="62.97" x2="32" y2="27.82" xlink:href="#linear-gradient"/><linearGradient id="linear-gradient-10" x1="595.16" y1="2218.63" x2="574.45" y2="2242.22" gradientTransform="translate(-1939.32 -1118.45) rotate(-45)" gradientUnits="userSpaceOnUse"><stop offset="0" stop-color="#fff"/><stop offset="0.84" stop-color="#cddfec"/></linearGradient><linearGradient id="linear-gradient-11" x1="25.52" y1="24.66" x2="24.35" y2="37.66" gradientUnits="userSpaceOnUse"><stop offset="0.23" stop-color="#40d3ba"/><stop offset="1" stop-color="#15a189"/></linearGradient><linearGradient id="linear-gradient-12" x1="17.66" y1="34.52" x2="30.66" y2="34.52" xlink:href="#linear-gradient-11"/><linearGradient id="linear-gradient-13" x1="52.98" y1="66.37" x2="48.23" y2="56.37" xlink:href="#linear-gradient"/><linearGradient id="linear-gradient-14" x1="32.02" y1="76.33" x2="27.27" y2="66.33" xlink:href="#linear-gradient"/><linearGradient id="linear-gradient-15" x1="30.09" y1="77.24" x2="25.34" y2="67.24" xlink:href="#linear-gradient"/><linearGradient id="linear-gradient-16" x1="39.18" y1="72.92" x2="34.43" y2="62.92" xlink:href="#linear-gradient"/><linearGradient id="linear-gradient-17" x1="24.35" y1="50.72" x2="21.19" y2="37.3" xlink:href="#linear-gradient"/><linearGradient id="linear-gradient-18" x1="28.55" y1="49.72" x2="25.39" y2="36.31" xlink:href="#linear-gradient"/><linearGradient id="linear-gradient-19" x1="41.15" y1="71.99" x2="36.4" y2="61.99" xlink:href="#linear-gradient"/><linearGradient id="linear-gradient-20" x1="38.15" y1="41.74" x2="37.47" y2="32.68" gradientUnits="userSpaceOnUse"><stop offset="0" stop-color="#f9aa8f"/><stop offset="1" stop-color="#f78e6b"/></linearGradient><linearGradient id="linear-gradient-21" x1="39.36" y1="28.99" x2="39.17" y2="35.18" xlink:href="#linear-gradient"/><linearGradient id="linear-gradient-22" x1="40.7" y1="38.46" x2="40.7" y2="35.44" gradientUnits="userSpaceOnUse"><stop offset="0" stop-color="#00a887"/><stop offset="1" stop-color="#256351"/></linearGradient><linearGradient id="linear-gradient-23" x1="39.27" y1="39.56" x2="41.45" y2="40.52" xlink:href="#linear-gradient-22"/><linearGradient id="linear-gradient-24" x1="38.79" y1="40.7" x2="43.06" y2="39.83" xlink:href="#linear-gradient-22"/><linearGradient id="linear-gradient-25" x1="22.4" y1="23.1" x2="19.9" y2="42.85" xlink:href="#linear-gradient-11"/><linearGradient id="linear-gradient-26" x1="22.16" y1="45.25" x2="19.66" y2="27.5" xlink:href="#linear-gradient-11"/><linearGradient id="linear-gradient-27" x1="40.14" y1="56.38" x2="40.14" y2="12.24" xlink:href="#linear-gradient"/><linearGradient id="linear-gradient-28" x1="15.84" y1="56.37" x2="15.84" y2="12.24" xlink:href="#linear-gradient"/><linearGradient id="linear-gradient-29" x1="-5030.37" y1="56.37" x2="-5030.37" y2="12.24" gradientTransform="matrix(-1, 0, 0, 1, -5006.53, 0)" xlink:href="#linear-gradient"/><linearGradient id="linear-gradient-30" x1="-5047.93" y1="56.37" x2="-5047.93" y2="12.24" gradientTransform="matrix(-1, 0, 0, 1, -5006.53, 0)" xlink:href="#linear-gradient"/></defs><title>diving</title><circle class="cls-1" cx="32" cy="32" r="28"/><path class="cls-2" d="M10.65,13.9a166.76,166.76,0,0,0,16.41,5.83C20.8,17.63,15.55,14.27,14,12a4,4,0,0,0-.78-.85A28.16,28.16,0,0,0,10.65,13.9Z"/><path class="cls-3" d="M18.83,22.64c-3.34-.47-6.3-1.67-7.27-2.64s-3.23-1.07-3.81-1.56l-.17-.14q-.58,1-1.07,2.12A88.18,88.18,0,0,0,18.83,22.64Z"/><path class="cls-4" d="M34.85,17a13.55,13.55,0,0,0,4.91.26c1.85-.45,2.72.51,4-.14a1.84,1.84,0,0,1,2.55.84c.29.62,1.27,0,1.91.56a4.66,4.66,0,0,0,2.37.51S45.17,21.08,34.85,17Z"/><path class="cls-5" d="M57,19.32a8,8,0,0,1-2.38.77,9.21,9.21,0,0,0,3,.6Q57.3,20,57,19.32Z"/><path class="cls-6" d="M26,12s3.56,1.19,5.27.88a5.39,5.39,0,0,1-1.42-.69,1.82,1.82,0,0,0-1.69-.35c-.39.24-.53-.34-1-.13A4.32,4.32,0,0,1,26,12Z"/><path class="cls-7" d="M24,22.58s3.56,1.19,5.27.88a5.39,5.39,0,0,1-1.42-.69,1.82,1.82,0,0,0-1.69-.35c-.39.24-.53-.34-1-.13A4.32,4.32,0,0,1,24,22.58Z"/><path class="cls-8" d="M43.53,12.76a11.29,11.29,0,0,1-3.8-.91,3.94,3.94,0,0,0,1.15-.06,1.33,1.33,0,0,1,1.24.24c.19.27.46-.08.69.19A3.16,3.16,0,0,0,43.53,12.76Z"/><path class="cls-9" d="M53.7,21.33a10.44,10.44,0,0,1-4.14-.84,3.23,3.23,0,0,0-2.57,0,10.56,10.56,0,0,1-8.27,0,3.23,3.23,0,0,0-2.57,0,10.56,10.56,0,0,1-8.27,0,3.23,3.23,0,0,0-2.57,0,10.56,10.56,0,0,1-8.27,0,3.23,3.23,0,0,0-2.57,0,10.55,10.55,0,0,1-8,.11,28,28,0,1,0,51.14,0A10.46,10.46,0,0,1,53.7,21.33Z"/><path class="cls-10" d="M53.55,41.94a9.42,9.42,0,0,0,.79-1.3c.19-.46,1.67,1.08.83,1.94a7.18,7.18,0,0,1-2,1.35"/><path class="cls-11" d="M58.16,44.65,42.65,29.14a.5.5,0,0,0-.71,0h0a.5.5,0,0,0,0,.71L57.45,45.37a.64.64,0,0,1,.19.45v0a.49.49,0,0,0,.27.44l1.85.9A.17.17,0,0,0,60,47l-.9-1.85a.49.49,0,0,0-.44-.27h0A.64.64,0,0,1,58.16,44.65Z"/><path class="cls-10" d="M53.15,42.31s-.32-1.07.32-1.33,1.47.31,1.1.44a6.4,6.4,0,0,1-.71.19s1.36,1.19.21,1.82-1.64-.1-1.64-.1"/><path class="cls-10" d="M31.8,55.43s0,.07,1-.68c.73-.58,1.55.79,1.29,1.22s-2.27.71-3.6-.25"/><rect class="cls-12" x="17.66" y="31.22" width="14.09" height="5.11" rx="2.55" ry="2.55"/><path class="cls-13" d="M17.66,33.77a2.56,2.56,0,0,0,2.55,2.55h9a2.53,2.53,0,0,0,1.46-.47c-.23,0-.44-.17-.35-.67.18-1-1.12-1-1.12-1s-6.62,0-9.29,0c-2.47,0-2.09-1.27-2-1.46A2.53,2.53,0,0,0,17.66,33.77Z"/><path class="cls-14" d="M25.84,34.5s4.43-1.48,17,6.65c7,4.54,10.33,1.16,10.33,1.16l.93,1.13A14.4,14.4,0,0,1,40.36,44c-7-3.33-9.84-1.12-9.84-1.12"/><path class="cls-15" d="M4.54,26.54A28.12,28.12,0,0,0,4,32c0,.1,0,.2,0,.3,3.69,14.29,18.82,9,18.82,9l-7.44-7C9.19,34.6,5.77,29.07,4.54,26.54Z"/><path class="cls-16" d="M4.13,34.63a27.84,27.84,0,0,0,1.33,6.29,27.6,27.6,0,0,0,11.63,1.87l1.22-5.86A42.47,42.47,0,0,1,4.13,34.63Z"/><path id="_Path_" data-name="&lt;Path&gt;" class="cls-17" d="M14.73,34.36s12-1.89,20.38,4.49l-.52,3.21s-15.5,1.39-21.89.61Z"/><path class="cls-18" d="M22.81,34.31c-.79-.09-1.54-.14-2.26-.17a9.11,9.11,0,0,0,0,8.74l2.35-.07C22.31,41.53,20.73,37.3,22.81,34.31Z"/><path class="cls-19" d="M27.11,35.09c-.69-.18-1.38-.33-2.06-.45a9,9,0,0,0,.13,8.06l2.34-.13C27,41.21,25.82,37.82,27.11,35.09Z"/><path class="cls-20" d="M30,38.83s-7.45,2.43-6.14,9.46a9.93,9.93,0,0,0,8,8v-.86s-5.54-3.87-4.35-8.62a6,6,0,0,1,5.84-4.63L31.1,38.83Z"/><path class="cls-10" d="M37.82,34.54a1,1,0,0,0-1.1,1V37a1.22,1.22,0,0,1-1.09,1.21,6.25,6.25,0,0,1-.67,0c-1.39,0-1.37,2.82.41,2.94l.2,0c.68.11,4.51.54,5-.23A1.65,1.65,0,0,0,41,39.67a.5.5,0,0,1,.45-.5c.32,0,.69-.14.7-.49C42.16,35.55,39.41,34.74,37.82,34.54Z"/><path class="cls-21" d="M42,39c-.13,0-.37.08-.43-.06s.1-.52,0-.7a.8.8,0,0,1,0-.41L38.1,36.4l-1.38.24V37a1.22,1.22,0,0,1-1.09,1.21,6.25,6.25,0,0,1-.67,0c-.67,0-1,.66-1,1.36.22-.75,1.37-.52,2.12.34a7.46,7.46,0,0,0,3.07,1.34c-.44-.27-.51-1.08-.48-1.79,0-.88,1.2-.7,1.89-.85s.68.47.68.59l.15,0A1,1,0,0,0,42,39Z"/><path class="cls-22" d="M35.3,38.24s1.6.15,1.9-.27a2.2,2.2,0,0,0,.21-.48c.1-.32.94-.29.86.48a5.19,5.19,0,0,0,0,.57.2.2,0,0,0,.2.2h0a.2.2,0,0,0,.2-.17.34.34,0,0,1,.2-.27c.26-.11.42-.91.42-.91l-.66-.73-1.87.19a1.92,1.92,0,0,0-.47.5A5.1,5.1,0,0,1,35.3,38.24Z"/><path class="cls-23" d="M36.72,36.84a17.37,17.37,0,0,0-.23-2.07c-.15-.68,4.31-.87,5.34,1.95C41.83,36.72,38.77,37.72,36.72,36.84Z"/><path class="cls-24" d="M41.59,36.6H39.65a.89.89,0,0,0-.89.89h0a.89.89,0,0,0,.89.89h.81a.81.81,0,0,0,.57-.24l.11-.11a.79.79,0,0,1,.56-.23H42a.22.22,0,0,0,.21-.25h0a1.74,1.74,0,0,0-.34-.83h0A.3.3,0,0,0,41.59,36.6Z"/><path class="cls-25" d="M40.94,37.75a.88.88,0,0,1,.62-.26h.6A1.74,1.74,0,0,0,42,37H39.92a.86.86,0,0,0-.23,0l-.11,0a.45.45,0,0,0-.33.44v.08a.45.45,0,0,0,.2.38,1.16,1.16,0,0,0,.65.2A1.19,1.19,0,0,0,40.94,37.75Z"/><path class="cls-24" d="M40.1,39.42l-.12.12a.84.84,0,0,0-.25.59v.49a.71.71,0,0,0,.71.71h0a.71.71,0,0,0,.46-.17h0a1.41,1.41,0,0,0,.5-1.08v-.92h-.71A.84.84,0,0,0,40.1,39.42Z"/><path class="cls-26" d="M40.1,39.42l-.12.12a.84.84,0,0,0-.25.59v.49a.71.71,0,0,0,.71.71h0a.71.71,0,0,0,.46-.17h0a1.41,1.41,0,0,0,.5-1.08v-.92h-.71A.84.84,0,0,0,40.1,39.42Z"/><path class="cls-24" d="M40.76,39.65l-.08.08a.58.58,0,0,0-.17.41v.34A.49.49,0,0,0,41,41h0a.49.49,0,0,0,.32-.12h0a1,1,0,0,0,.35-.75v-.31a.33.33,0,0,0-.33-.33h-.17A.58.58,0,0,0,40.76,39.65Z"/><path class="cls-27" d="M40.76,39.65l-.08.08a.58.58,0,0,0-.17.41v.34A.49.49,0,0,0,41,41h0a.49.49,0,0,0,.32-.12h0a1,1,0,0,0,.35-.75v-.31a.33.33,0,0,0-.33-.33h-.17A.58.58,0,0,0,40.76,39.65Z"/><rect class="cls-28" x="14.09" y="30.46" width="14.09" height="5.11" rx="2.55" ry="2.55"/><path class="cls-29" d="M14.09,33a2.56,2.56,0,0,0,2.55,2.55h9a2.53,2.53,0,0,0,1.46-.47c-.23,0-.44-.17-.35-.67.18-1-1.12-1-1.12-1s-6.62,0-9.29,0c-2.47,0-2.09-1.27-2-1.46A2.53,2.53,0,0,0,14.09,33Z"/><ellipse class="cls-24" cx="28.04" cy="33.23" rx="0.52" ry="0.86"/><ellipse class="cls-24" cx="31.75" cy="33.86" rx="0.52" ry="0.86"/><path class="cls-30" d="M28.19,33.23S33.31,33,33,36.32s-.35,7.84,5.58,9.15,5.33-4.66,2.77-5.22"/><path class="cls-31" d="M42.12,24.54a.31.31,0,0,1-.42,0,2.82,2.82,0,0,0-4.09.16.24.24,0,0,0,0,.32,2.82,2.82,0,0,0,4.09.16.31.31,0,0,1,.42,0,2.85,2.85,0,0,0,.35.29.18.18,0,0,0,.28-.14V24.4a.18.18,0,0,0-.28-.14A2.85,2.85,0,0,0,42.12,24.54Z"/><path class="cls-32" d="M17.81,46.46a.31.31,0,0,1-.42,0,2.82,2.82,0,0,0-4.09.16.24.24,0,0,0,0,.32,2.82,2.82,0,0,0,4.09.16.31.31,0,0,1,.42,0,2.85,2.85,0,0,0,.35.29.18.18,0,0,0,.28-.14v-.93a.18.18,0,0,0-.28-.14A2.85,2.85,0,0,0,17.81,46.46Z"/><path class="cls-33" d="M22.52,25a.21.21,0,0,0,.29,0,1.89,1.89,0,0,1,2.74.11.16.16,0,0,1,0,.21,1.89,1.89,0,0,1-2.74.11.21.21,0,0,0-.29,0,1.91,1.91,0,0,1-.23.19.12.12,0,0,1-.19-.1v-.63a.12.12,0,0,1,.19-.1A1.91,1.91,0,0,1,22.52,25Z"/><path class="cls-34" d="M40.08,50.33a.21.21,0,0,0,.29,0,1.89,1.89,0,0,1,2.74.11.16.16,0,0,1,0,.21,1.89,1.89,0,0,1-2.74.11.21.21,0,0,0-.29,0,1.91,1.91,0,0,1-.23.19.12.12,0,0,1-.19-.1v-.63a.12.12,0,0,1,.19-.1A1.91,1.91,0,0,1,40.08,50.33Z"/></svg>