<svg xmlns="http://www.w3.org/2000/svg" xmlns:xlink="http://www.w3.org/1999/xlink" viewBox="0 0 64 64"><defs><style>.cls-1{isolation:isolate;}.cls-2{fill:url(#linear-gradient);}.cls-3{fill:url(#linear-gradient-2);}.cls-4{fill:url(#linear-gradient-3);}.cls-5{fill:url(#linear-gradient-4);}.cls-6{fill:url(#linear-gradient-5);}.cls-7{fill:url(#linear-gradient-6);}.cls-8{fill:url(#linear-gradient-7);}.cls-9{fill:url(#linear-gradient-8);}.cls-10{fill:url(#linear-gradient-9);}.cls-11{fill:url(#linear-gradient-10);}.cls-12{fill:url(#linear-gradient-11);}.cls-13{fill:url(#linear-gradient-12);}.cls-14{fill:url(#linear-gradient-13);}.cls-15{fill:url(#linear-gradient-14);}.cls-16{fill:url(#linear-gradient-15);}.cls-17{fill:url(#linear-gradient-16);}.cls-18{fill:url(#linear-gradient-17);}.cls-19{fill:url(#linear-gradient-18);}.cls-20{fill:url(#linear-gradient-19);}.cls-21{fill:url(#linear-gradient-20);}.cls-22{fill:url(#linear-gradient-21);}.cls-23{fill:url(#linear-gradient-57);}.cls-24{opacity:0.49;mix-blend-mode:color-burn;fill:url(#linear-gradient-58);}.cls-25{fill:url(#linear-gradient-59);}.cls-26{fill:url(#linear-gradient-60);}.cls-27{fill:url(#linear-gradient-61);}.cls-28{fill:url(#linear-gradient-62);}.cls-29{fill:url(#linear-gradient-63);}.cls-30{fill:url(#linear-gradient-64);}.cls-31{fill:url(#linear-gradient-65);}.cls-32{fill:url(#linear-gradient-66);}.cls-33{fill:url(#linear-gradient-67);}.cls-34{fill:url(#linear-gradient-68);}.cls-35{fill:url(#linear-gradient-69);}.cls-36{fill:url(#linear-gradient-70);}.cls-37{fill:url(#linear-gradient-71);}.cls-38{fill:url(#linear-gradient-72);}.cls-39{fill:url(#linear-gradient-73);}.cls-40{fill:#f9aa8f;}.cls-41{fill:url(#linear-gradient-74);}.cls-42{fill:url(#linear-gradient-75);}.cls-43{fill:url(#linear-gradient-76);}.cls-44{fill:url(#linear-gradient-77);}.cls-45{fill:url(#linear-gradient-78);}.cls-46{fill:url(#linear-gradient-79);}.cls-47{fill:url(#linear-gradient-80);}.cls-48{fill:url(#linear-gradient-81);}.cls-49{fill:url(#linear-gradient-82);}.cls-50{fill:url(#linear-gradient-83);}.cls-51{fill:url(#linear-gradient-84);}.cls-52{fill:url(#linear-gradient-85);}.cls-53{fill:url(#linear-gradient-86);}.cls-54{fill:url(#linear-gradient-87);}</style><linearGradient id="linear-gradient" x1="32.26" y1="97.34" x2="32.26" y2="9.23" gradientUnits="userSpaceOnUse"><stop offset="0.02" stop-color="#97efe7"/><stop offset="0.52" stop-color="#3db6d3"/><stop offset="1" stop-color="#3d6fd3"/></linearGradient><linearGradient id="linear-gradient-2" x1="49.72" y1="49.15" x2="49.72" y2="-11.15" gradientUnits="userSpaceOnUse"><stop offset="0" stop-color="#d1efe7"/><stop offset="0.53" stop-color="#97efe7"/><stop offset="1" stop-color="#3ccbe3"/></linearGradient><linearGradient id="linear-gradient-3" x1="939.35" y1="33.85" x2="939.35" y2="-11.16" gradientTransform="matrix(-1, 0, 0, 1, 988, 0)" xlink:href="#linear-gradient-2"/><linearGradient id="linear-gradient-4" x1="935.87" y1="33.85" x2="935.87" y2="-11.16" gradientTransform="matrix(-1, 0, 0, 1, 988, 0)" xlink:href="#linear-gradient-2"/><linearGradient id="linear-gradient-5" x1="945.83" y1="33.85" x2="945.83" y2="-11.16" gradientTransform="matrix(-1, 0, 0, 1, 988, 0)" xlink:href="#linear-gradient-2"/><linearGradient id="linear-gradient-6" x1="935.21" y1="33.85" x2="935.21" y2="-11.16" gradientTransform="matrix(-1, 0, 0, 1, 988, 0)" xlink:href="#linear-gradient-2"/><linearGradient id="linear-gradient-7" x1="933.74" y1="39.45" x2="933.74" y2="22.3" gradientTransform="matrix(-1, 0, 0, 1, 988, 0)" xlink:href="#linear-gradient-2"/><linearGradient id="linear-gradient-8" x1="20.97" y1="23.72" x2="20.97" y2="5.11" xlink:href="#linear-gradient-2"/><linearGradient id="linear-gradient-9" x1="11.65" y1="35.5" x2="11.65" y2="-3.63" xlink:href="#linear-gradient-2"/><linearGradient id="linear-gradient-10" x1="958.67" y1="40.53" x2="958.67" y2="-14.87" gradientTransform="matrix(-1, 0, 0, 1, 988, 0)" xlink:href="#linear-gradient-2"/><linearGradient id="linear-gradient-11" x1="956.57" y1="40.53" x2="956.57" y2="-14.87" gradientTransform="matrix(-1, 0, 0, 1, 988, 0)" xlink:href="#linear-gradient-2"/><linearGradient id="linear-gradient-12" x1="962.58" y1="40.53" x2="962.58" y2="-14.87" gradientTransform="matrix(-1, 0, 0, 1, 988, 0)" xlink:href="#linear-gradient-2"/><linearGradient id="linear-gradient-13" x1="970.68" y1="40.53" x2="970.68" y2="-14.87" gradientTransform="matrix(-1, 0, 0, 1, 988, 0)" xlink:href="#linear-gradient-2"/><linearGradient id="linear-gradient-14" x1="971.89" y1="40.53" x2="971.89" y2="-14.87" gradientTransform="matrix(-1, 0, 0, 1, 988, 0)" xlink:href="#linear-gradient-2"/><linearGradient id="linear-gradient-15" x1="953.95" y1="40.53" x2="953.95" y2="-14.87" gradientTransform="matrix(-1, 0, 0, 1, 988, 0)" xlink:href="#linear-gradient-2"/><linearGradient id="linear-gradient-16" x1="10.79" y1="39.03" x2="10.79" y2="20.72" xlink:href="#linear-gradient-2"/><linearGradient id="linear-gradient-17" x1="3756.34" y1="41.68" x2="3756.34" y2="13.61" gradientTransform="translate(-3745.83)" xlink:href="#linear-gradient-2"/><linearGradient id="linear-gradient-18" x1="3757.52" y1="41.68" x2="3757.52" y2="13.61" gradientTransform="translate(-3745.83)" xlink:href="#linear-gradient-2"/><linearGradient id="linear-gradient-19" x1="3758.69" y1="41.68" x2="3758.69" y2="13.61" gradientTransform="translate(-3745.83)" xlink:href="#linear-gradient-2"/><linearGradient id="linear-gradient-20" x1="3759.86" y1="41.68" x2="3759.86" y2="13.61" gradientTransform="translate(-3745.83)" xlink:href="#linear-gradient-2"/><linearGradient id="linear-gradient-21" x1="3761.04" y1="41.68" x2="3761.04" y2="13.61" gradientTransform="translate(-3745.83)" xlink:href="#linear-gradient-2"/><linearGradient id="linear-gradient-57" x1="3768.45" y1="39.45" x2="3768.45" y2="22.3" gradientTransform="translate(-3745.83)" xlink:href="#linear-gradient-2"/><linearGradient id="linear-gradient-58" x1="3749.53" y1="28.47" x2="3749.53" y2="28.15" gradientTransform="translate(-3745.83)" xlink:href="#linear-gradient-2"/><linearGradient id="linear-gradient-59" x1="955.74" y1="1.88" x2="955.74" y2="8.57" gradientTransform="matrix(-1, 0, 0, 1, 988, 0)" xlink:href="#linear-gradient"/><linearGradient id="linear-gradient-60" x1="955.74" y1="13.59" x2="955.74" y2="-0.75" gradientTransform="matrix(-1, 0, 0, 1, 988, 0)" xlink:href="#linear-gradient"/><linearGradient id="linear-gradient-61" x1="47.77" y1="51.43" x2="47.77" y2="20.54" xlink:href="#linear-gradient"/><linearGradient id="linear-gradient-62" x1="46.26" y1="41.92" x2="46.26" y2="15.92" xlink:href="#linear-gradient"/><linearGradient id="linear-gradient-63" x1="45.05" y1="30.68" x2="45.05" y2="11" xlink:href="#linear-gradient"/><linearGradient id="linear-gradient-64" x1="45.05" y1="39.72" x2="45.05" y2="37.33" xlink:href="#linear-gradient"/><linearGradient id="linear-gradient-65" x1="52.64" y1="30.68" x2="52.64" y2="11" xlink:href="#linear-gradient"/><linearGradient id="linear-gradient-66" x1="52.64" y1="39.72" x2="52.64" y2="37.33" xlink:href="#linear-gradient"/><linearGradient id="linear-gradient-67" x1="48.99" y1="39.63" x2="48.27" y2="36.51" gradientUnits="userSpaceOnUse"><stop offset="0" stop-color="#fbc19e"/><stop offset="0.48" stop-color="#ffb699"/><stop offset="1" stop-color="#f47e6d"/></linearGradient><linearGradient id="linear-gradient-68" x1="49.27" y1="48.87" x2="49.27" y2="21.04" gradientUnits="userSpaceOnUse"><stop offset="0" stop-color="#889c00"/><stop offset="0.51" stop-color="#377f00"/><stop offset="1" stop-color="#203c6b"/></linearGradient><linearGradient id="linear-gradient-69" x1="49.27" y1="37.5" x2="49.27" y2="29.84" gradientUnits="userSpaceOnUse"><stop offset="0.01" stop-color="#ffc00f"/><stop offset="0.49" stop-color="#ff9c0f"/><stop offset="1" stop-color="#ff5d0f"/></linearGradient><linearGradient id="linear-gradient-70" x1="49.69" y1="39.98" x2="43.02" y2="30.17" xlink:href="#linear-gradient-67"/><linearGradient id="linear-gradient-71" x1="52.05" y1="36.09" x2="48.09" y2="35.29" xlink:href="#linear-gradient-67"/><linearGradient id="linear-gradient-72" x1="22.26" y1="11.78" x2="48.63" y2="48.83" gradientUnits="userSpaceOnUse"><stop offset="0.02" stop-color="#005369"/><stop offset="0.96" stop-color="#000741"/></linearGradient><linearGradient id="linear-gradient-73" x1="23.9" y1="78.82" x2="23.9" y2="24.91" xlink:href="#linear-gradient-72"/><linearGradient id="linear-gradient-74" x1="21.84" y1="41.06" x2="21.84" y2="18.9" xlink:href="#linear-gradient-67"/><linearGradient id="linear-gradient-75" x1="-2345.61" y1="-271.61" x2="-2333.37" y2="-257.09" gradientTransform="matrix(-0.97, -0.24, -0.24, 0.97, -2315.51, -283.94)" xlink:href="#linear-gradient-67"/><linearGradient id="linear-gradient-76" x1="20.15" y1="72.1" x2="20.65" y2="33.43" gradientUnits="userSpaceOnUse"><stop offset="0.07" stop-color="#595959"/><stop offset="0.9"/></linearGradient><linearGradient id="linear-gradient-77" x1="9.24" y1="38.12" x2="16.62" y2="52.37" xlink:href="#linear-gradient-76"/><linearGradient id="linear-gradient-78" x1="27.74" y1="71.82" x2="25.86" y2="28.2" xlink:href="#linear-gradient-76"/><linearGradient id="linear-gradient-79" x1="18.7" y1="10.16" x2="33.97" y2="25.43" gradientUnits="userSpaceOnUse"><stop offset="0" stop-color="#af3e5e"/><stop offset="0.96" stop-color="#000741"/></linearGradient><linearGradient id="linear-gradient-80" x1="20.99" y1="56.88" x2="24.67" y2="32.2" xlink:href="#linear-gradient-67"/><linearGradient id="linear-gradient-81" x1="22.78" y1="59.37" x2="22.78" y2="-4.47" gradientUnits="userSpaceOnUse"><stop offset="0" stop-color="#fcfbff"/><stop offset="0.48" stop-color="#f5ede9"/><stop offset="1" stop-color="#a5adbe"/></linearGradient><linearGradient id="linear-gradient-82" x1="28.16" y1="51.62" x2="16.25" y2="22.18" xlink:href="#linear-gradient-81"/><linearGradient id="linear-gradient-83" x1="14.05" y1="13.77" x2="14.05" y2="57.87" xlink:href="#linear-gradient-72"/><linearGradient id="linear-gradient-84" x1="33.05" y1="33.97" x2="1.22" y2="29.35" xlink:href="#linear-gradient-72"/><linearGradient id="linear-gradient-85" x1="0.99" y1="17.24" x2="27.75" y2="54.83" xlink:href="#linear-gradient-72"/><linearGradient id="linear-gradient-86" x1="224.23" y1="403.78" x2="208.37" y2="419.64" gradientTransform="translate(-208.77 -382.08)" xlink:href="#linear-gradient-79"/><linearGradient id="linear-gradient-87" x1="19.37" y1="16.54" x2="35.54" y2="-12.9" xlink:href="#linear-gradient-79"/></defs><title>drinking</title><g class="cls-1"><g id="Layer_1" data-name="Layer 1"><circle class="cls-2" cx="32.26" cy="32.09" r="28"/><path class="cls-3" d="M60.26,32.09a27.86,27.86,0,0,0-5-16H41a1.78,1.78,0,0,0-1.78,1.78V39.71h20A28,28,0,0,0,60.26,32.09Z"/><path class="cls-4" d="M57.26,25.87a18,18,0,0,1-5.33.22c-2-.41-3,.44-4.32-.14a2.34,2.34,0,0,0-2.84.74c-.37.55-1.37,0-2.12.49a6.24,6.24,0,0,1-2.61.45S45.72,29.44,57.26,25.87Z"/><path class="cls-5" d="M56.91,21.77a8.22,8.22,0,0,1-3,.16c-1.13-.28-1.65.31-2.43-.09a1.12,1.12,0,0,0-1.55.51c-.18.38-.77,0-1.16.34a2.83,2.83,0,0,1-1.44.31S50.65,24.22,56.91,21.77Z"/><path class="cls-6" d="M39.4,23.77s3.78.62,5.54-.15a4.43,4.43,0,0,1-1.52-.51,1.61,1.61,0,0,0-1.78,0c-.39.38-.58-.29-1,.07A4.73,4.73,0,0,1,39.4,23.77Z"/><path class="cls-7" d="M51.64,19.17a6.85,6.85,0,0,0,2.3-.55,2.39,2.39,0,0,1-.7,0,.81.81,0,0,0-.75.15c-.12.16-.28,0-.42.12A1.92,1.92,0,0,1,51.64,19.17Z"/><path class="cls-8" d="M53.51,32a.61.61,0,0,1,.61.61v3h4.22v.15a2.68,2.68,0,0,1-2.68,2.73H53.84V37.32H50.17V32Z"/><path class="cls-9" d="M35.9,16.06H9.31a28,28,0,0,0-4,23.65H37.68V17.84A1.78,1.78,0,0,0,35.9,16.06Z"/><path class="cls-10" d="M16.34,23.4c-3.8-1.27-7-3.31-7.91-4.66a2.38,2.38,0,0,0-.49-.52c-.35.61-.68,1.24-1,1.88C12.27,22.25,16.34,23.4,16.34,23.4Z"/><path class="cls-11" d="M20.72,25.87a18,18,0,0,0,5.33.22c2-.41,3,.44,4.32-.14a2.34,2.34,0,0,1,2.84.74c.37.55,1.37,0,2.12.49a6.24,6.24,0,0,0,2.61.45S32.25,29.44,20.72,25.87Z"/><path class="cls-12" d="M26.66,22.57a8.22,8.22,0,0,0,3,.16c1.13-.28,1.65.31,2.43-.09a1.12,1.12,0,0,1,1.55.51c.18.38.77,0,1.16.34a2.83,2.83,0,0,0,1.44.31S32.92,25,26.66,22.57Z"/><path class="cls-13" d="M28.12,19.41s-3.83-.13-5.4-1.23A4.43,4.43,0,0,0,24.31,18a1.61,1.61,0,0,1,1.75.31c.31.45.62-.17,1,.27A4.73,4.73,0,0,0,28.12,19.41Z"/><path class="cls-14" d="M15.72,18.72a9.37,9.37,0,0,0,3.2.53,3.27,3.27,0,0,1-.86-.42,1.11,1.11,0,0,0-1-.21c-.23.14-.32-.21-.59-.08A2.62,2.62,0,0,1,15.72,18.72Z"/><path class="cls-15" d="M14.51,25.13a9.37,9.37,0,0,0,3.2.53,3.27,3.27,0,0,1-.86-.42,1.11,1.11,0,0,0-1-.21c-.23.14-.32-.21-.59-.08A2.62,2.62,0,0,1,14.51,25.13Z"/><path class="cls-16" d="M35.23,17.9a6.85,6.85,0,0,1-2.37-.11,2.39,2.39,0,0,0,.68-.17.81.81,0,0,1,.77,0c.15.14.26-.1.43,0A1.92,1.92,0,0,0,35.23,17.9Z"/><path class="cls-17" d="M17,35.88H7.53v-4H6.3V29.2a1.73,1.73,0,0,0-1.66-1.72,27.91,27.91,0,0,0,.67,12.23h12Z"/><rect class="cls-18" x="10.17" y="27.47" width="0.68" height="0.68" rx="0.05" ry="0.05"/><rect class="cls-19" x="11.34" y="27.47" width="0.68" height="0.68" rx="0.05" ry="0.05"/><rect class="cls-20" x="12.52" y="27.47" width="0.68" height="0.68" rx="0.05" ry="0.05"/><rect class="cls-21" x="13.69" y="27.47" width="0.68" height="0.68" rx="0.05" ry="0.05"/><rect class="cls-22" x="14.87" y="27.47" width="0.68" height="0.68" rx="0.05" ry="0.05"/><rect class="cls-18" x="10.17" y="28.71" width="0.68" height="0.68" rx="0.05" ry="0.05"/><rect class="cls-19" x="11.34" y="28.71" width="0.68" height="0.68" rx="0.05" ry="0.05"/><rect class="cls-20" x="12.52" y="28.71" width="0.68" height="0.68" rx="0.05" ry="0.05"/><rect class="cls-21" x="13.69" y="28.71" width="0.68" height="0.68" rx="0.05" ry="0.05"/><rect class="cls-22" x="14.87" y="28.71" width="0.68" height="0.68" rx="0.05" ry="0.05"/><rect class="cls-18" x="10.17" y="29.95" width="0.68" height="0.68" rx="0.05" ry="0.05"/><rect class="cls-19" x="11.34" y="29.95" width="0.68" height="0.68" rx="0.05" ry="0.05"/><rect class="cls-20" x="12.52" y="29.95" width="0.68" height="0.68" rx="0.05" ry="0.05"/><rect class="cls-21" x="13.69" y="29.95" width="0.68" height="0.68" rx="0.05" ry="0.05"/><rect class="cls-22" x="14.87" y="29.95" width="0.68" height="0.68" rx="0.05" ry="0.05"/><rect class="cls-18" x="10.17" y="31.18" width="0.68" height="0.68" rx="0.05" ry="0.05"/><rect class="cls-19" x="11.34" y="31.18" width="0.68" height="0.68" rx="0.05" ry="0.05"/><rect class="cls-20" x="12.52" y="31.18" width="0.68" height="0.68" rx="0.05" ry="0.05"/><rect class="cls-21" x="13.69" y="31.18" width="0.68" height="0.68" rx="0.05" ry="0.05"/><rect class="cls-22" x="14.87" y="31.18" width="0.68" height="0.68" rx="0.05" ry="0.05"/><rect class="cls-18" x="10.17" y="32.42" width="0.68" height="0.68" rx="0.05" ry="0.05"/><rect class="cls-19" x="11.34" y="32.42" width="0.68" height="0.68" rx="0.05" ry="0.05"/><rect class="cls-20" x="12.52" y="32.42" width="0.68" height="0.68" rx="0.05" ry="0.05"/><rect class="cls-21" x="13.69" y="32.42" width="0.68" height="0.68" rx="0.05" ry="0.05"/><rect class="cls-22" x="14.87" y="32.42" width="0.68" height="0.68" rx="0.05" ry="0.05"/><rect class="cls-18" x="10.17" y="33.66" width="0.68" height="0.68" rx="0.05" ry="0.05"/><rect class="cls-19" x="11.34" y="33.66" width="0.68" height="0.68" rx="0.05" ry="0.05"/><rect class="cls-20" x="12.52" y="33.66" width="0.68" height="0.68" rx="0.05" ry="0.05"/><rect class="cls-21" x="13.69" y="33.66" width="0.68" height="0.68" rx="0.05" ry="0.05"/><rect class="cls-22" x="14.87" y="33.66" width="0.68" height="0.68" rx="0.05" ry="0.05"/><rect class="cls-18" x="10.17" y="34.89" width="0.68" height="0.68" rx="0.05" ry="0.05"/><rect class="cls-19" x="11.34" y="34.89" width="0.68" height="0.68" rx="0.05" ry="0.05"/><rect class="cls-20" x="12.52" y="34.89" width="0.68" height="0.68" rx="0.05" ry="0.05"/><rect class="cls-21" x="13.69" y="34.89" width="0.68" height="0.68" rx="0.05" ry="0.05"/><rect class="cls-22" x="14.87" y="34.89" width="0.68" height="0.68" rx="0.05" ry="0.05"/><rect class="cls-18" x="10.17" y="36.13" width="0.68" height="0.68" rx="0.05" ry="0.05"/><rect class="cls-19" x="11.34" y="36.13" width="0.68" height="0.68" rx="0.05" ry="0.05"/><rect class="cls-20" x="12.52" y="36.13" width="0.68" height="0.68" rx="0.05" ry="0.05"/><rect class="cls-21" x="13.69" y="36.13" width="0.68" height="0.68" rx="0.05" ry="0.05"/><rect class="cls-22" x="14.87" y="36.13" width="0.68" height="0.68" rx="0.05" ry="0.05"/><path class="cls-23" d="M23.36,32a.61.61,0,0,0-.61.61v3H18.53v.15a2.68,2.68,0,0,0,2.68,2.73H23V37.32h3.68V32Z"/><path class="cls-24" d="M3.56,28.3s0,.07.11.12h.07a.23.23,0,0,0,.12-.07A.9.9,0,0,0,3.56,28.3Z"/><path class="cls-25" d="M32.06,4.83v-1h.4v1a1.43,1.43,0,0,0,1,1.37,4,4,0,1,1-2.43,0A1.45,1.45,0,0,0,32.06,4.83Z"/><circle class="cls-26" cx="32.26" cy="10.05" r="4.04"/><path class="cls-27" d="M35.08,60.21A28,28,0,0,0,60.45,32.34H35.08Z"/><path class="cls-28" d="M32.06,29.11v1.52a1.75,1.75,0,0,0,1.75,1.75H60.45v0a28.14,28.14,0,0,0-.45-5H33.82A1.75,1.75,0,0,0,32.06,29.11Z"/><path class="cls-29" d="M46.57,17.93h-3a.67.67,0,0,0-.67.67v2.65A2.2,2.2,0,0,0,44.3,23.3a.67.67,0,0,1,.44.63v1.94a.58.58,0,0,1-.58.58.33.33,0,0,0-.33.33.53.53,0,0,0,.53.53h1.37a.53.53,0,0,0,.53-.56.33.33,0,0,0-.33-.3h0a.58.58,0,0,1-.58-.58V23.93a.67.67,0,0,1,.44-.63,2.2,2.2,0,0,0,1.44-2.06V18.6A.67.67,0,0,0,46.57,17.93Z"/><path class="cls-30" d="M46.65,20.51a19.06,19.06,0,0,1-3.8.35v.38A2.2,2.2,0,0,0,44.3,23.3a.67.67,0,0,1,.44.63v1.94a.58.58,0,0,1-.58.58.33.33,0,0,0-.33.33.53.53,0,0,0,.53.53h1.37a.53.53,0,0,0,.53-.56.33.33,0,0,0-.33-.3h0a.58.58,0,0,1-.58-.58V23.93a.67.67,0,0,1,.44-.63,2.2,2.2,0,0,0,1.44-2.06v-.85Z"/><path class="cls-31" d="M54.16,17.93h-3a.67.67,0,0,0-.67.67v2.65a2.2,2.2,0,0,0,1.44,2.06.67.67,0,0,1,.44.63v1.94a.58.58,0,0,1-.58.58.33.33,0,0,0-.33.33.53.53,0,0,0,.53.53h1.37a.53.53,0,0,0,.53-.56.33.33,0,0,0-.33-.3h0a.58.58,0,0,1-.58-.58V23.93a.67.67,0,0,1,.44-.63,2.2,2.2,0,0,0,1.44-2.06V18.6A.67.67,0,0,0,54.16,17.93Z"/><path class="cls-32" d="M54.24,20.51a19.06,19.06,0,0,1-3.8.35v.38a2.2,2.2,0,0,0,1.44,2.06.67.67,0,0,1,.44.63v1.94a.58.58,0,0,1-.58.58.33.33,0,0,0-.33.33.53.53,0,0,0,.53.53h1.37a.53.53,0,0,0,.53-.56.33.33,0,0,0-.33-.3h0a.58.58,0,0,1-.58-.58V23.93a.67.67,0,0,1,.44-.63,2.2,2.2,0,0,0,1.44-2.06v-.85Z"/><path class="cls-33" d="M46.13,37.83s1,.92,4.86-.11l-.37-1.23"/><path class="cls-34" d="M50,28V26.3a.51.51,0,0,0-.51-.51h-.39a.51.51,0,0,0-.51.51V28a2.89,2.89,0,0,1-.73,1.85,1.24,1.24,0,0,0-.29.8v7.11a1.25,1.25,0,0,0,1.25,1.25h.95A1.25,1.25,0,0,0,51,37.82V30.71a1.24,1.24,0,0,0-.29-.8A2.89,2.89,0,0,1,50,28Z"/><circle id="_Path_" data-name="&lt;Path&gt;" class="cls-35" cx="49.27" cy="34.26" r="1.36"/><path id="_Path_2" data-name="&lt;Path&gt;" class="cls-36" d="M46.05,35.11s1.77.51,1.64-2c0-.5.79-.47.85,0l.19,1.69a2.66,2.66,0,0,1-3.4,2.85,7.29,7.29,0,0,1-1-.39Z"/><rect id="_Rectangle_" data-name="&lt;Rectangle&gt;" class="cls-37" x="49.54" y="33.86" width="2.01" height="3.85" rx="0.83" ry="0.83"/><path class="cls-38" d="M26.29,19.39a30.88,30.88,0,0,1,7.14,9.75c2.74,6,13.23,6,13.23,6s.08,2.8-.69,2.75c0,0-9.87,1.56-15.78-4"/><path class="cls-39" d="M23.15,17.39H27.2a1,1,0,0,1,1,1h0a1,1,0,0,1-1,1h-.26a.17.17,0,0,0-.15.27c1.94,2.95,18.42,29.09-11.31,24.17l-.78-23.44.62-3Z"/><path class="cls-40" d="M17.5,18.56s0,.77-2.26.83c0,0,2.54,7,5.33,7.47a6.55,6.55,0,0,0,5.09-1.64l.27-2.48-1.33-3.35s-2-.13-2.14-1.59a2.68,2.68,0,0,0-1.23-2.07"/><path class="cls-41" d="M22.46,17.8a2.71,2.71,0,0,0-1.1-2l-.76.4-2.85,2.15c.18.67.8,1.63,3,1.67,3.3.05,4.82,2.25,4.63,3.89s-1,1.88-1,1.88-.84,0-.4-1-2.46-.89-2-.27,2,1.82,0,1.26c-1.31-.36-1.41.41-1.32,1a6.56,6.56,0,0,0,5.07-1.65l.27-2.48-1.33-3.35S22.59,19.26,22.46,17.8Z"/><path class="cls-40" d="M14.84,7.54l-1.45,5.14a.61.61,0,0,0,.16.6h0a1,1,0,0,1,.29.68c0,.71.2,2.15,1.31,2.14a2.35,2.35,0,0,1,2.35,2.45l4.75-.71s.82-7.19-2.06-9.42A5,5,0,0,0,14.84,7.54Z"/><path class="cls-42" d="M13.39,13c.1,0,.46,0,.52-.2a11,11,0,0,0,.62-2.08c-.09-.05-.34-.24-.47-.35l.79-2.79h0L15,7.45h0l1,.12,4.22,1c1.21,1,1.73,3,1.93,4.85v0l0,.26h0c0,.16,0,.32,0,.48v.43q0,.13,0,.26c0,.06,0,.13,0,.19s0,.1,0,.15,0,.12,0,.18,0,.08,0,.13,0,.19,0,.27v.08c0,.07,0,.14,0,.21v.09c0,.08,0,.16,0,.24v0l-.09,1.43s-.37,0-.39.06l-.4.06a6.38,6.38,0,0,1-4.89-1.4,2.11,2.11,0,0,0-.89-.41h0l.22,0c2.06-.38,2-4.69-.52-4.48C14,11.77,13.84,14,13.84,14a1,1,0,0,0-.06-.3,1,1,0,0,0-.14-.27l-.1-.12A.61.61,0,0,1,13.39,13Z"/><path class="cls-43" d="M24.37,48.07c-4.06,0-6.27-1-7.34-1.73a7.16,7.16,0,0,0-2.13-1.22A11.71,11.71,0,0,0,13,52.41a27.9,27.9,0,0,0,14.75,7.31A47.42,47.42,0,0,0,24.37,48.07Z"/><path class="cls-44" d="M16.22,48.15c.11-.68,1.48-.33,1.48-.33l-.87-1.63a6.23,6.23,0,0,0-1.93-1.08A11.76,11.76,0,0,0,13,51.95a2.7,2.7,0,0,1,.79-.38A3.44,3.44,0,0,0,16.22,48.15Z"/><path class="cls-45" d="M30.11,45.16a7.7,7.7,0,0,1-6.54,2.91l-.14.08a45.84,45.84,0,0,1-.36,10.39A27.87,27.87,0,0,0,30.47,60a43.58,43.58,0,0,0-.21-14.91Z"/><path id="_Path_3" data-name="&lt;Path&gt;" class="cls-46" d="M17.75,17.38a1.64,1.64,0,0,0,2.45,1.78l3.38-2c1.19-.73,2.77-2,2.24-3-2-3.77.23-8.57-4.63-9.75a9.16,9.16,0,0,0-7,.8,2.24,2.24,0,0,0-.42,3.52l1.73,1.7a2.8,2.8,0,0,0,2.8.68c.92-.29,2.09-.49,2.31.44.4,1.76-1.06,1-2.77,5.65Z"/><polygon id="_Path_4" data-name="&lt;Path&gt;" points="15.43 44.92 15.43 44.93 15.43 44.92 15.43 44.92"/><path class="cls-47" d="M17.08,40.62l-2.47,5a14.3,14.3,0,0,0,10,3.95c6.29-.14,5.92-3,5.92-3a13.34,13.34,0,0,0-3.32-7.18"/><path class="cls-48" d="M28.72,37.13a3.73,3.73,0,0,1-.67-1.6,3,3,0,0,1,.69-2.88c.79-.88,1.67-2.75-.37-6a33.36,33.36,0,0,1-1.76-3.13l-2-4.13s2.2,6-.77,6.62c-3.68.74-8-5.33-8.59-6.62,0,0,3.57,8.17,1.5,11a.54.54,0,0,0,0,.63l1.23,1.84a3.93,3.93,0,0,1-.11,4.24c-3.29,4.37-6.58,6.57,4.64,9.93C28.81,48.9,33.92,43,28.72,37.13Z"/><path class="cls-49" d="M29.47,31.32a1.72,1.72,0,0,1-1.89.94c-1.52-.11-4.37.12-6.1,0S19,31.46,18.8,30c-.07-.66-.79-.86-1.54-.88a3.2,3.2,0,0,1-.52,1.23.54.54,0,0,0,0,.63l1.23,1.84a3.93,3.93,0,0,1-.11,4.24c-.88,1.17-1.76,2.19-2.36,3.11v3.64l0,0A12.87,12.87,0,0,0,20,46.19c-.08-.06-4.5-3.12-.1-5.19s8.37-7.61,8.37-7.61h0a3.2,3.2,0,0,1,.49-.73A3.37,3.37,0,0,0,29.47,31.32Z"/><path class="cls-50" d="M15.33,17.39h.4a1,1,0,0,1,1,1h0a1,1,0,0,1-1,1h-.48a23.13,23.13,0,0,1,.24,24.44S9.61,38.61,9.25,31.61C9,26,12.36,20.33,13.75,18.23A1.88,1.88,0,0,1,15.33,17.39Z"/><path class="cls-51" d="M15.43,21.37,9.56,27.84a15.24,15.24,0,0,0-.31,3.77,16.7,16.7,0,0,0,2.77,8l.12.19.23.34c1.06,1.4,2.84,1.44,2.33.37s-1.25-3,1.07-8S15.43,21.37,15.43,21.37Z"/><path class="cls-52" d="M14.61,19.39s-8.69.45-10,14.82c-.76,8.48,10,16.87,10,16.87s.91,0,1.38-1.73c0,0-9.71-11-3.65-17.59S14.61,19.39,14.61,19.39Z"/><rect class="cls-53" x="8.64" y="25.31" width="3.19" height="3.19" rx="0.82" ry="0.82" transform="translate(-6.76 3.67) rotate(-15.35)"/><path class="cls-54" d="M23.39,5.58c1.53,1.64.37,3.63-1.3,3S17.84,6.37,18.52,9c.5,2-.6,2.21-1.2,2.2a2.79,2.79,0,0,0,.95-.12c.92-.29,2.09-.49,2.31.44.4,1.76-1.06,1-2.77,5.65l-.05.16a1.64,1.64,0,0,0,2.45,1.78l3.38-2c1.19-.73,2.77-2,2.24-3C24.2,11.19,25.3,7.54,23.39,5.58Z"/></g></g></svg>