<svg id="Layer_1" data-name="Layer 1" xmlns="http://www.w3.org/2000/svg" xmlns:xlink="http://www.w3.org/1999/xlink" viewBox="0 0 64 64"><defs><style>.cls-1{fill:url(#linear-gradient);}.cls-2{fill:url(#linear-gradient-2);}.cls-3{fill:url(#linear-gradient-3);}.cls-4{fill:url(#linear-gradient-4);}.cls-5{fill:url(#linear-gradient-5);}.cls-6{fill:url(#linear-gradient-6);}.cls-7{fill:url(#linear-gradient-7);}.cls-8{fill:url(#linear-gradient-8);}.cls-9{fill:url(#linear-gradient-9);}.cls-10{fill:url(#linear-gradient-10);}.cls-11{fill:url(#linear-gradient-11);}.cls-12{fill:url(#linear-gradient-12);}.cls-13{fill:url(#linear-gradient-13);}.cls-14{fill:url(#linear-gradient-14);}.cls-15{fill:url(#linear-gradient-15);}.cls-16{fill:url(#linear-gradient-16);}.cls-17{fill:url(#linear-gradient-17);}.cls-18{fill:url(#linear-gradient-18);}.cls-19{fill:url(#linear-gradient-19);}.cls-20{fill:#f9aa8f;}.cls-21{fill:#e5656f;}.cls-22{fill:#de626c;}.cls-23{fill:#f17076;}.cls-24{fill:url(#linear-gradient-20);}.cls-25{fill:#690b13;}.cls-26{fill:url(#linear-gradient-21);}.cls-27{fill:#744239;}.cls-28{fill:url(#linear-gradient-22);}.cls-29{fill:url(#linear-gradient-23);}.cls-30{fill:url(#linear-gradient-24);}</style><linearGradient id="linear-gradient" x1="32" y1="97.25" x2="32" y2="9.14" gradientUnits="userSpaceOnUse"><stop offset="0.02" stop-color="#97efe7"/><stop offset="0.52" stop-color="#3db6d3"/><stop offset="1" stop-color="#3d6fd3"/></linearGradient><linearGradient id="linear-gradient-2" x1="36.81" y1="48.85" x2="36.81" y2="-34.57" xlink:href="#linear-gradient"/><linearGradient id="linear-gradient-3" x1="36.81" y1="41.45" x2="36.81" y2="-10.47" gradientUnits="userSpaceOnUse"><stop offset="0" stop-color="#d1efe7"/><stop offset="0.53" stop-color="#97efe7"/><stop offset="1" stop-color="#3ccbe3"/></linearGradient><linearGradient id="linear-gradient-4" x1="955.58" y1="46.54" x2="955.58" y2="7.53" gradientTransform="matrix(-1, 0, 0, 1, 975.04, 0)" xlink:href="#linear-gradient-3"/><linearGradient id="linear-gradient-5" x1="30.43" y1="45.11" x2="30.43" y2="7.98" xlink:href="#linear-gradient-3"/><linearGradient id="linear-gradient-6" x1="36.81" y1="42.5" x2="36.81" y2="29.82" xlink:href="#linear-gradient-3"/><linearGradient id="linear-gradient-7" x1="24.49" y1="41.93" x2="24.49" y2="29.93" xlink:href="#linear-gradient-3"/><linearGradient id="linear-gradient-8" x1="34.51" y1="13.59" x2="34.51" y2="4.98" xlink:href="#linear-gradient-3"/><linearGradient id="linear-gradient-9" x1="38.78" y1="17.94" x2="38.78" y2="-1.85" xlink:href="#linear-gradient-3"/><linearGradient id="linear-gradient-10" x1="22.23" y1="20.74" x2="22.23" y2="-13.55" xlink:href="#linear-gradient-3"/><linearGradient id="linear-gradient-11" x1="1326.76" y1="20.74" x2="1326.76" y2="-13.55" gradientTransform="matrix(-1, 0, 0, 1, 1351.26, 0)" xlink:href="#linear-gradient-3"/><linearGradient id="linear-gradient-12" x1="30.82" y1="18.29" x2="30.82" y2="-8.44" xlink:href="#linear-gradient-3"/><linearGradient id="linear-gradient-13" x1="1330.68" y1="16.32" x2="1330.68" y2="-17.98" gradientTransform="matrix(-1, 0, 0, 1, 1351.26, 0)" xlink:href="#linear-gradient-3"/><linearGradient id="linear-gradient-14" x1="1326.26" y1="20.74" x2="1326.26" y2="-13.55" gradientTransform="matrix(-1, 0, 0, 1, 1351.26, 0)" xlink:href="#linear-gradient-3"/><linearGradient id="linear-gradient-15" x1="50.58" y1="31.41" x2="37.74" y2="23.64" gradientUnits="userSpaceOnUse"><stop offset="0.53" stop-color="#00076d"/><stop offset="1" stop-color="#000030"/></linearGradient><linearGradient id="linear-gradient-16" x1="35.68" y1="57.74" x2="38.18" y2="48.16" gradientTransform="translate(-6.71 14.79) rotate(-18.02)" xlink:href="#linear-gradient-15"/><linearGradient id="linear-gradient-17" x1="6.64" y1="29.21" x2="6.64" y2="22.9" gradientUnits="userSpaceOnUse"><stop offset="0" stop-color="#fff"/><stop offset="0.84" stop-color="#cddfec"/></linearGradient><linearGradient id="linear-gradient-18" x1="3" y1="68.75" x2="41.32" y2="15.78" xlink:href="#linear-gradient-15"/><linearGradient id="linear-gradient-19" x1="-12.93" y1="69.53" x2="20.41" y2="46.2" xlink:href="#linear-gradient-15"/><linearGradient id="linear-gradient-20" x1="18.67" y1="24.29" x2="30.89" y2="8.85" gradientUnits="userSpaceOnUse"><stop offset="0" stop-color="#f9aa8f"/><stop offset="1" stop-color="#f78e6b"/></linearGradient><linearGradient id="linear-gradient-21" x1="23.24" y1="32.36" x2="10.39" y2="43.71" gradientUnits="userSpaceOnUse"><stop offset="0" stop-color="#690b13"/><stop offset="0.12" stop-color="#640a12"/><stop offset="0.51" stop-color="#5a0911"/><stop offset="1" stop-color="#570910"/></linearGradient><linearGradient id="linear-gradient-22" x1="18.95" y1="15.04" x2="22.58" y2="15.04" gradientUnits="userSpaceOnUse"><stop offset="0" stop-color="#744239"/><stop offset="0.45" stop-color="#713d34"/><stop offset="0.98" stop-color="#693026"/><stop offset="1" stop-color="#692f25"/></linearGradient><linearGradient id="linear-gradient-23" x1="-16.16" y1="54.89" x2="22.15" y2="1.92" xlink:href="#linear-gradient-15"/><linearGradient id="linear-gradient-24" x1="55.09" y1="53.33" x2="55.09" y2="33.1" xlink:href="#linear-gradient-15"/></defs><title>driving</title><circle class="cls-1" cx="32" cy="32" r="28"/><path class="cls-2" d="M54.69,38H18.93A2.88,2.88,0,0,1,16,35.1V15.64A6.6,6.6,0,0,1,22.65,9H28A27.64,27.64,0,0,1,52.87,24.67l4.42,9.18A2.88,2.88,0,0,1,54.69,38Z"/><path class="cls-3" d="M18.93,38H54.69a2.88,2.88,0,0,0,2.6-4.14l-2.44-5.06a.94.94,0,0,0-.53.14l-.84.53a1,1,0,0,1-1.29-.17L41,17.1a1.44,1.44,0,0,0-2-.1L28.85,26a.9.9,0,0,1-1.21,0l-2.57-2.37a1.05,1.05,0,0,0-1.43,0l-7.59,7V35.1A2.88,2.88,0,0,0,18.93,38Z"/><path class="cls-4" d="M13.76,35.24V32.78l9.88-9.15h0a.45.45,0,0,1,.74.34v.12a2.9,2.9,0,0,1-.76,2h0a2,2,0,0,0,0,2.69l1.59,1.85-5.6,8.46h-.71Z"/><path class="cls-5" d="M37.1,35.68,42,28.91a9,9,0,0,1,1.42-1.54,2.07,2.07,0,0,0,.32-2.8l-2.58-3.51A6.07,6.07,0,0,1,40,17.45.6.6,0,0,0,39,17h0l-9.86,8.77L16.72,36.94A2.87,2.87,0,0,0,18.93,38H32.68Z"/><path class="cls-6" d="M37.5,38h5.12l-.29-.52a6.66,6.66,0,0,0,1.34-.17A.2.2,0,0,0,43.8,37l-.48-.87a.14.14,0,0,0,0-.19L43,35.26a.1.1,0,0,0,0-.14l-.29-.53h0a.07.07,0,0,0,0-.11l-.57-1a0,0,0,0,0-.06,0l-.57,1a.07.07,0,0,0,0,.11h0l-.2.36L41,34.26h0a.13.13,0,0,0,.08-.18l-1-1.78a.06.06,0,0,0-.11,0l-1,1.78a.13.13,0,0,0,.08.19h0l-.27.48-.57-1a.18.18,0,0,0,.08-.25l-.5-.91h0a.13.13,0,0,0,.08-.19l-1-1.78a.06.06,0,0,0-.11,0l-1,1.78a.13.13,0,0,0,.08.19h0l-.5.91a.18.18,0,0,0,.08.25l-.32.57L35,34h0a.13.13,0,0,0,.08-.19l-1-1.78A.06.06,0,0,0,34,32l-1,1.78a.13.13,0,0,0,.08.19h0l-.5.91a.18.18,0,0,0,.08.25l-.18.32-.2-.37a.1.1,0,0,0,0-.14L32,34.4h0a.07.07,0,0,0,0-.11l-.57-1a0,0,0,0,0-.06,0l-.57,1a.07.07,0,0,0,0,.11h0l-.29.53a.1.1,0,0,0,0,.14l-.38.69a.14.14,0,0,0,0,.19l-.48.87a.2.2,0,0,0,.13.29,6.66,6.66,0,0,0,1.75.17l-.39.71h5.44l-.26-.47a11.47,11.47,0,0,0,1.29,0Z"/><path class="cls-7" d="M25.4,38h4.67L30,37.87a6.66,6.66,0,0,0,1.34-.17.2.2,0,0,0,.13-.29L31,36.54a.14.14,0,0,0,0-.19l-.38-.69a.1.1,0,0,0,0-.14L30.4,35h0a.07.07,0,0,0,0-.11l-.57-1a0,0,0,0,0-.06,0l-.57,1a.07.07,0,0,0,0,.11h0l-.2.36-.39-.69h0a.13.13,0,0,0,.08-.18l-1-1.78a.06.06,0,0,0-.11,0l-1,1.78a.13.13,0,0,0,.08.19h0l-.27.48-.57-1a.18.18,0,0,0,.08-.25l-.5-.91h0a.13.13,0,0,0,.08-.19l-1-1.78a.06.06,0,0,0-.11,0l-1,1.78a.13.13,0,0,0,.08.19h0l-.5.91a.18.18,0,0,0,.08.25l-.32.57-.18-.33h0a.13.13,0,0,0,.08-.19l-1-1.78a.06.06,0,0,0-.11,0l-1,1.78a.13.13,0,0,0,.08.19h0l-.5.91a.18.18,0,0,0,.08.25l-.18.32-.2-.37a.1.1,0,0,0,0-.14l-.29-.53h0a.07.07,0,0,0,0-.11l-.57-1a0,0,0,0,0-.06,0l-.57,1a.07.07,0,0,0,0,.11h0l-.29.53a.1.1,0,0,0,0,.14l-.38.69a.14.14,0,0,0,0,.19l-.48.87a.2.2,0,0,0,.13.29,6.66,6.66,0,0,0,1.75.17l-.17.31h5l0-.06a11.47,11.47,0,0,0,1.29,0Z"/><path class="cls-8" d="M35.85,10.19a19.9,19.9,0,0,1-3.22,1.4s1.5-.42,3.75-1.23Z"/><path class="cls-9" d="M40.7,12.15l0,0c-.27.22-1.31.27-1.76.72a7,7,0,0,1-3.36,1.22A40.61,40.61,0,0,0,42,12.89C41.58,12.63,41.15,12.39,40.7,12.15Z"/><path class="cls-10" d="M16,16.16c1.58.26,5.68.56,12.36-1.5a13.68,13.68,0,0,1-4.06.16c-1.5-.31-2.28.34-3.29-.11a1.78,1.78,0,0,0-2.16.56c-.28.42-1,0-1.61.38A3,3,0,0,1,16,16Z"/><path class="cls-11" d="M28.14,11.54a6.27,6.27,0,0,1-2.27.12c-.86-.21-1.26.23-1.85-.06a.85.85,0,0,0-1.18.39c-.13.29-.59,0-.88.26a2.15,2.15,0,0,1-1.1.24S23.37,13.4,28.14,11.54Z"/><path class="cls-12" d="M31.87,9.31c-.41-.06-.83-.09-1.25-.13a.73.73,0,0,0-.18.11,2.49,2.49,0,0,1-.66.32A5.79,5.79,0,0,0,31.87,9.31Z"/><path class="cls-13" d="M21.8,9.67a7.14,7.14,0,0,1-2.43.4A2.49,2.49,0,0,0,20,9.76a.84.84,0,0,1,.78-.16c.18.11.25-.16.45-.06A2,2,0,0,0,21.8,9.67Z"/><path class="cls-14" d="M24.13,9.56a5.22,5.22,0,0,0,1.75-.42,1.82,1.82,0,0,1-.53,0,.62.62,0,0,0-.57.11c-.09.12-.21,0-.32.09A1.46,1.46,0,0,1,24.13,9.56Z"/><polygon class="cls-15" points="51.72 31.53 43.81 29.68 44.11 28.06 52.02 29.91 51.72 31.53"/><rect class="cls-16" x="42.35" y="22.58" width="1.88" height="11.95" rx="0.94" ry="0.94" transform="translate(10.95 -11.99) rotate(18.02)"/><rect class="cls-17" x="6.02" y="26.25" width="1.25" height="4.06"/><path class="cls-18" d="M9.79,31.6A3,3,0,0,0,4,32.74c0,.14,0,.27,0,.41a3,3,0,0,0,.05.46l2.27,9.63A28,28,0,0,0,32,60a28.29,28.29,0,0,0,3.08-.17,2.17,2.17,0,0,0,.07-.53V53.41h-15Z"/><path class="cls-19" d="M34.5,53.41H20.15l-10-21a13.08,13.08,0,0,0-.35,6.85,4.34,4.34,0,0,1-3,4.9h0A28.1,28.1,0,0,0,21.52,58l1.36-.49a10.55,10.55,0,0,1,3.61-.64h8.67Z"/><path class="cls-20" d="M41,28.79a12.6,12.6,0,0,0,2.12-2c.58-.8,1.58-1.84,2-.33S44.5,30,43.77,29.85s-1.27-.51-1.93-.08"/><path class="cls-21" d="M40.91,50.13a39.1,39.1,0,0,0-11.36-2.78l-3.81,7.9h6.67l.9,0c.88,0,3.8.15,3.64,4.33a27.8,27.8,0,0,0,4.57-1.22C42.75,54.93,43.35,51.26,40.91,50.13Z"/><path class="cls-22" d="M42.21,56.12c.66-2.66.62-5.11-1.3-6a39.1,39.1,0,0,0-11.36-2.78l-3.81,7.9h6.67l.9,0h.38a6.56,6.56,0,0,0,3.76-1.53c1.66-1.47,5.48-1.74,4.74,2.43Z"/><path class="cls-23" d="M27.31,41.78l-13.46-.34s-1.79,4.48,2.89,9.16c0,0,6.22,7.38,13.51,3.52a5.7,5.7,0,0,0,.9-.61c1.7-1.37,9.5-6.82,16.44,1.74a28.12,28.12,0,0,0,3.68-3C47.48,45.78,40.41,39.59,27.31,41.78Z"/><path class="cls-21" d="M38.56,50.55c-13.91.25-9-9.16-9-9.16L16,49.85c.22.25.45.51.7.76,0,0,6.22,7.38,13.51,3.52a5.7,5.7,0,0,0,.9-.61A13.38,13.38,0,0,1,38.56,50.55Z"/><path class="cls-20" d="M28,18.82l-.4-1.33a4.89,4.89,0,0,1-.21-1.59c0-.32,0-.64,0-.94a2.57,2.57,0,0,0-3.07-2.59l-2.08.41-3,2.89v1.51a2.69,2.69,0,0,1-1.2,2.25,9.81,9.81,0,0,0-1.77,1.41l-1.47,5.94,9-1.75V22.73a.91.91,0,0,1,.84-.91c1.1-.1,2-.38,2.22-1a5.32,5.32,0,0,0,.21-1,.42.42,0,0,1,.41-.35A.52.52,0,0,0,28,18.82Z"/><path class="cls-24" d="M27.56,19.49a.52.52,0,0,0,.49-.38s-.13,0-.35,0a5.68,5.68,0,0,1-.62-2.93.77.77,0,0,0,.36-.24v0c0-.32,0-.64,0-.94a2.58,2.58,0,0,0-.09-.76l-.76.16-7.33,2.4v.41a2.69,2.69,0,0,1-1.2,2.25l-.05,0,2.3,3.21s2.33,1.81,2.64.77a1.57,1.57,0,0,1,1-1.19h0a.92.92,0,0,1,.7-.42,6.47,6.47,0,0,0,.95-.15c-.67.08-1.39-.94-1.36-2.47,0-1.69,1.36-2.51,2.2-1.89s.64,2.52.64,2.52A.42.42,0,0,1,27.56,19.49Z"/><path class="cls-25" d="M25.17,34.7l-1.28-9.77a8.43,8.43,0,0,1-6.72-2.83l4.05-1.41s-3.32-2.58-5.15-2.62c-1.28,0-1.18,2.57-1,4.13-8.78,10.53-2,24.54,1.68,28.4,4,4.21,12.81-9.22,12.81-9.22h0C27.15,39.94,26,44.07,25.17,34.7Z"/><path class="cls-26" d="M24.37,43.53c-.1-1.56-2.74,1.56-3.82.88s-.09-1.37.9-4-7.15-2.39-5.58-5,9.56,1.72,9.56,1.72L18,23h0a4.42,4.42,0,0,0-4.94,2.13c-5.61,10.06.32,22,3.67,25.53,4,4.21,12.81-9.22,12.81-9.22S24.47,45.1,24.37,43.53Z"/><path id="_Path_" data-name="&lt;Path&gt;" class="cls-25" d="M16,24.39c1.27,4.78,7.61,23.51,25.81,5.38l-.84-1s-14.89,8.48-16.92-3.06a8.36,8.36,0,0,0-2.73-4.93A3.74,3.74,0,0,0,19,19.72a2.86,2.86,0,0,0-2.77,1.8A4.32,4.32,0,0,0,16,24.39Z"/><path class="cls-27" d="M27.13,12a2,2,0,0,1,.32,3.31,3,3,0,0,1-1.13.52,3.28,3.28,0,0,0-2.42,2,.33.33,0,0,1-.31.21h0a.34.34,0,0,1-.34-.32c0-.41-.11-1.07-.59-1.14s-1.11.7-.93,1.49a.35.35,0,0,1-.41.41c-.83-.15-2.17-.43-2.13-.61s-1.7-5.73,3.51-6.35A7.52,7.52,0,0,1,27.13,12Z"/><path class="cls-28" d="M22.58,11.56l-.18,0c-4.84.79-3.16,6.06-3.22,6.31s1.3.45,2.13.61a.35.35,0,0,0,.41-.41,1.29,1.29,0,0,1,.62-1.45c-.43.11-1.64.38-1.32-.22s2.27-1.29.43-3C20,12.15,21.72,11.7,22.58,11.56Z"/><path class="cls-29" d="M6.76,18.51h0a2.76,2.76,0,0,1,2.76,2.76v4.15a1.81,1.81,0,0,1-1.81,1.81H5.81A1.81,1.81,0,0,1,4,25.42V21.27A2.76,2.76,0,0,1,6.76,18.51Z"/><path class="cls-30" d="M59.63,32.61a21.42,21.42,0,0,0-8.53-3.2.77.77,0,0,0-.9.76v4.67a2.33,2.33,0,0,0,.68,1.65l1.45,1.45A2.34,2.34,0,0,1,53,39.59v4.3a10.2,10.2,0,0,0,1.31,5,27.86,27.86,0,0,0,5.64-16A3.88,3.88,0,0,0,59.63,32.61Z"/></svg>