<svg xmlns="http://www.w3.org/2000/svg" xmlns:xlink="http://www.w3.org/1999/xlink" viewBox="0 0 64 64"><defs><style>.cls-1{isolation:isolate;}.cls-2{fill:url(#linear-gradient);}.cls-3{fill:url(#linear-gradient-2);}.cls-4{fill:url(#linear-gradient-3);}.cls-5{fill:url(#linear-gradient-4);}.cls-6{fill:url(#linear-gradient-5);}.cls-7{fill:url(#linear-gradient-6);}.cls-8{fill:url(#linear-gradient-7);}.cls-9{fill:url(#linear-gradient-8);}.cls-10{fill:url(#linear-gradient-9);}.cls-11{fill:url(#linear-gradient-10);}.cls-12{fill:url(#linear-gradient-11);}.cls-13{fill:url(#linear-gradient-12);}.cls-14{fill:url(#linear-gradient-13);}.cls-15{fill:url(#linear-gradient-14);}.cls-16{fill:url(#linear-gradient-15);}.cls-17{fill:url(#linear-gradient-16);}.cls-18{fill:url(#linear-gradient-67);}.cls-19,.cls-28{opacity:0.49;}.cls-19{mix-blend-mode:color-burn;fill:url(#linear-gradient-68);}.cls-20{fill:url(#linear-gradient-69);}.cls-21{fill:url(#linear-gradient-70);}.cls-22{fill:url(#linear-gradient-71);}.cls-23{fill:url(#linear-gradient-72);}.cls-24{fill:url(#linear-gradient-73);}.cls-25{fill:#f9aa8f;}.cls-26{fill:url(#linear-gradient-74);}.cls-27{fill:url(#linear-gradient-75);}.cls-29{fill:url(#linear-gradient-76);}.cls-30{fill:url(#linear-gradient-77);}.cls-31{fill:#fac4b3;}.cls-32{fill:url(#linear-gradient-78);}.cls-33{fill:url(#linear-gradient-79);}.cls-34{fill:url(#linear-gradient-80);}.cls-35{fill:url(#linear-gradient-81);}.cls-36{fill:url(#linear-gradient-82);}.cls-37{fill:url(#linear-gradient-83);}.cls-38{fill:url(#linear-gradient-84);}.cls-39{fill:url(#linear-gradient-85);}.cls-40{fill:url(#linear-gradient-86);}.cls-41{fill:url(#linear-gradient-87);}.cls-42{fill:url(#linear-gradient-88);}.cls-43{fill:url(#linear-gradient-89);}</style><linearGradient id="linear-gradient" x1="32" y1="97.25" x2="32" y2="9.14" gradientUnits="userSpaceOnUse"><stop offset="0.02" stop-color="#97efe7"/><stop offset="0.52" stop-color="#3db6d3"/><stop offset="1" stop-color="#3d6fd3"/></linearGradient><linearGradient id="linear-gradient-2" x1="32" y1="61.83" x2="32" y2="-43.55" xlink:href="#linear-gradient"/><linearGradient id="linear-gradient-3" x1="22.71" y1="29.11" x2="22.71" y2="-23.81" xlink:href="#linear-gradient"/><linearGradient id="linear-gradient-4" x1="15.49" y1="29.95" x2="15.49" y2="-22.06" xlink:href="#linear-gradient"/><linearGradient id="linear-gradient-5" x1="49.1" y1="34.85" x2="49.1" y2="-42.43" xlink:href="#linear-gradient"/><linearGradient id="linear-gradient-6" x1="424.28" y1="35.09" x2="424.28" y2="-43.58" gradientTransform="translate(-376.22)" xlink:href="#linear-gradient"/><linearGradient id="linear-gradient-7" x1="409.38" y1="35.09" x2="409.38" y2="-43.58" gradientTransform="translate(-376.22)" xlink:href="#linear-gradient"/><linearGradient id="linear-gradient-8" x1="407.26" y1="35.09" x2="407.26" y2="-43.58" gradientTransform="translate(-376.22)" xlink:href="#linear-gradient"/><linearGradient id="linear-gradient-9" x1="423.13" y1="35.09" x2="423.13" y2="-43.58" gradientTransform="translate(-376.22)" xlink:href="#linear-gradient"/><linearGradient id="linear-gradient-10" x1="19.59" y1="44.15" x2="19.59" y2="12.12" xlink:href="#linear-gradient"/><linearGradient id="linear-gradient-11" x1="32.6" y1="54.55" x2="32.6" y2="9.48" xlink:href="#linear-gradient"/><linearGradient id="linear-gradient-12" x1="399.41" y1="48.78" x2="399.41" y2="-0.28" gradientTransform="translate(-376.22)" xlink:href="#linear-gradient"/><linearGradient id="linear-gradient-13" x1="401.46" y1="48.78" x2="401.46" y2="-0.28" gradientTransform="translate(-376.22)" xlink:href="#linear-gradient"/><linearGradient id="linear-gradient-14" x1="403.51" y1="48.78" x2="403.51" y2="-0.28" gradientTransform="translate(-376.22)" xlink:href="#linear-gradient"/><linearGradient id="linear-gradient-15" x1="405.56" y1="48.78" x2="405.56" y2="-0.28" gradientTransform="translate(-376.22)" xlink:href="#linear-gradient"/><linearGradient id="linear-gradient-16" x1="407.62" y1="48.78" x2="407.62" y2="-0.28" gradientTransform="translate(-376.22)" xlink:href="#linear-gradient"/><linearGradient id="linear-gradient-67" x1="420.57" y1="44.87" x2="420.57" y2="14.91" gradientTransform="translate(-376.22)" xlink:href="#linear-gradient"/><linearGradient id="linear-gradient-68" x1="387.51" y1="25.69" x2="387.51" y2="25.13" gradientTransform="translate(-376.22)" xlink:href="#linear-gradient"/><linearGradient id="linear-gradient-69" x1="421.91" y1="60.07" x2="421.91" y2="35.06" gradientTransform="translate(-376.22)" gradientUnits="userSpaceOnUse"><stop offset="0" stop-color="#7ff1a4"/><stop offset="0.52" stop-color="#2fbca4"/><stop offset="1" stop-color="#2f7da4"/></linearGradient><linearGradient id="linear-gradient-70" x1="-13844.26" y1="58.66" x2="-13844.26" y2="38.66" gradientTransform="matrix(-1, 0, 0, 1, -13798.87, 0)" gradientUnits="userSpaceOnUse"><stop offset="0" stop-color="#fff"/><stop offset="0.84" stop-color="#cddfec"/></linearGradient><linearGradient id="linear-gradient-71" x1="16536.01" y1="51.96" x2="16536.01" y2="33.46" gradientTransform="translate(-16481.43)" xlink:href="#linear-gradient-69"/><linearGradient id="linear-gradient-72" x1="16536.2" y1="51.72" x2="16536.2" y2="38.86" gradientTransform="translate(-16481.43)" xlink:href="#linear-gradient-70"/><linearGradient id="linear-gradient-73" x1="37.7" y1="69.26" x2="25.45" y2="45.1" gradientUnits="userSpaceOnUse"><stop offset="0" stop-color="#182ebd"/><stop offset="0.58" stop-color="#0d1226"/></linearGradient><linearGradient id="linear-gradient-74" x1="35" y1="24.85" x2="16.12" y2="27.54" gradientUnits="userSpaceOnUse"><stop offset="0" stop-color="#f9aa8f"/><stop offset="1" stop-color="#f78e6b"/></linearGradient><linearGradient id="linear-gradient-75" x1="19.15" y1="21.55" x2="4.46" y2="17.01" xlink:href="#linear-gradient-74"/><linearGradient id="linear-gradient-76" x1="18.61" y1="33.26" x2="9.9" y2="35.82" xlink:href="#linear-gradient-74"/><linearGradient id="linear-gradient-77" x1="15.04" y1="51.98" x2="26.23" y2="51.98" xlink:href="#linear-gradient-73"/><linearGradient id="linear-gradient-78" x1="3.69" y1="34.33" x2="22.19" y2="31.26" gradientUnits="userSpaceOnUse"><stop offset="0" stop-color="#fac4b3"/><stop offset="1" stop-color="#fab6a3"/></linearGradient><linearGradient id="linear-gradient-79" x1="52.72" y1="39.93" x2="10.72" y2="30.68" xlink:href="#linear-gradient-73"/><linearGradient id="linear-gradient-80" x1="60.34" y1="4.88" x2="43.21" y2="29.38" gradientTransform="matrix(1, 0, 0, 1, 0, 0)" xlink:href="#linear-gradient-69"/><linearGradient id="linear-gradient-81" x1="50.94" y1="47.82" x2="8.94" y2="47.19" gradientTransform="matrix(1, 0, 0, 1, 0, 0)" xlink:href="#linear-gradient-69"/><linearGradient id="linear-gradient-82" x1="67.53" y1="68.94" x2="8.66" y2="42.44" gradientTransform="matrix(1, 0, 0, 1, 0, 0)" xlink:href="#linear-gradient-69"/><linearGradient id="linear-gradient-83" x1="20.8" y1="44.6" x2="16.61" y2="53.04" gradientTransform="matrix(1, 0, 0, 1, 0, 0)" xlink:href="#linear-gradient-69"/><linearGradient id="linear-gradient-84" x1="17.65" y1="22.74" x2="24.18" y2="4.02" xlink:href="#linear-gradient-74"/><linearGradient id="linear-gradient-85" x1="125.44" y1="458.84" x2="127.2" y2="449.51" gradientTransform="translate(51.22 -438.72) rotate(20.79)" xlink:href="#linear-gradient-74"/><linearGradient id="linear-gradient-86" x1="33.15" y1="-1.37" x2="12.32" y2="19.97" xlink:href="#linear-gradient-73"/><linearGradient id="linear-gradient-87" x1="19.34" y1="41.8" x2="-1.63" y2="51.68" xlink:href="#linear-gradient-74"/><linearGradient id="linear-gradient-88" x1="56.49" y1="6.57" x2="9.33" y2="19.9" gradientUnits="userSpaceOnUse"><stop offset="0" stop-color="#d1efe7"/><stop offset="0.53" stop-color="#97efe7"/><stop offset="1" stop-color="#3ccbe3"/></linearGradient><linearGradient id="linear-gradient-89" x1="40" y1="28.66" x2="40" y2="-16.86" xlink:href="#linear-gradient-88"/></defs><title>electric guitar</title><g class="cls-1"><g id="Layer_1" data-name="Layer 1"><circle class="cls-2" cx="32" cy="32" r="28"/><path class="cls-3" d="M4,32A27.87,27.87,0,0,0,7.37,45.33H56.63A28,28,0,1,0,4,32Z"/><path class="cls-4" d="M31.46,16.82C24.82,14.6,19.25,11,17.64,8.68a4.34,4.34,0,0,0-.38-.48A28.08,28.08,0,0,0,14,10.6,177.1,177.1,0,0,0,31.46,16.82Z"/><path class="cls-5" d="M22.73,19.91c-3.55-.49-6.68-1.77-7.71-2.8S11.59,16,11,15.46a5.47,5.47,0,0,0-1-.71,28.05,28.05,0,0,0-1.71,2.44A93.24,93.24,0,0,0,22.73,19.91Z"/><path class="cls-6" d="M57.72,20.93a4.1,4.1,0,0,0-1.76.36c-2.32,1-4.11-.48-7.54.24s-9.32-.38-9.32-.38a81.33,81.33,0,0,0,20,3.81A27.78,27.78,0,0,0,57.72,20.93Z"/><path class="cls-7" d="M39.71,14a14.37,14.37,0,0,0,5.2.28c2-.48,2.88.54,4.24-.15a2,2,0,0,1,2.7.89c.31.66,1.34,0,2,.59a4.94,4.94,0,0,0,2.51.54S50.66,18.26,39.71,14Z"/><path class="cls-8" d="M30.37,8.64S34.15,9.9,36,9.57a5.71,5.71,0,0,1-1.5-.73,1.93,1.93,0,0,0-1.79-.37c-.41.25-.57-.36-1-.13A4.58,4.58,0,0,1,30.37,8.64Z"/><path class="cls-9" d="M28.25,19.85s3.78,1.26,5.58.93a5.71,5.71,0,0,1-1.5-.73,1.93,1.93,0,0,0-1.79-.37c-.41.25-.57-.36-1-.13A4.58,4.58,0,0,1,28.25,19.85Z"/><path class="cls-10" d="M48.92,9.43s-2.9-.23-4-1a4.18,4.18,0,0,0,1.22-.07,1.41,1.41,0,0,1,1.31.26c.2.29.48-.08.73.2A3.35,3.35,0,0,0,48.92,9.43Z"/><path class="cls-11" d="M34.48,38.63H18v-7H15.84V27a3,3,0,0,0-6,0v7.2H4.09A27.83,27.83,0,0,0,7.37,45.33H35.1Z"/><path class="cls-12" d="M60,32a28,28,0,0,0-1.41-8.77H56.88a5.38,5.38,0,0,0-5.38,5.38v3.21H45.65a1.07,1.07,0,0,0-1.07,1.07v5.19H37.21v-2a1,1,0,0,0-1-1h-2.1V15.87a.93.93,0,0,0-.93-.93H21.08a.93.93,0,0,0-.93.93V42H10.47V40.1H5.2a27.83,27.83,0,0,0,2.18,5.23H56.63A27.87,27.87,0,0,0,60,32Z"/><rect class="cls-13" x="22.6" y="17.46" width="1.18" height="1.18" rx="0.09" ry="0.09"/><rect class="cls-14" x="24.65" y="17.46" width="1.18" height="1.18" rx="0.09" ry="0.09"/><rect class="cls-15" x="26.7" y="17.46" width="1.18" height="1.18" rx="0.09" ry="0.09"/><rect class="cls-16" x="28.75" y="17.46" width="1.18" height="1.18" rx="0.09" ry="0.09"/><rect class="cls-17" x="30.81" y="17.46" width="1.18" height="1.18" rx="0.09" ry="0.09"/><rect class="cls-13" x="22.6" y="19.63" width="1.18" height="1.18" rx="0.09" ry="0.09"/><rect class="cls-14" x="24.65" y="19.63" width="1.18" height="1.18" rx="0.09" ry="0.09"/><rect class="cls-15" x="26.7" y="19.63" width="1.18" height="1.18" rx="0.09" ry="0.09"/><rect class="cls-16" x="28.75" y="19.63" width="1.18" height="1.18" rx="0.09" ry="0.09"/><rect class="cls-17" x="30.81" y="19.63" width="1.18" height="1.18" rx="0.09" ry="0.09"/><rect class="cls-13" x="22.6" y="21.79" width="1.18" height="1.18" rx="0.09" ry="0.09"/><rect class="cls-14" x="24.65" y="21.79" width="1.18" height="1.18" rx="0.09" ry="0.09"/><rect class="cls-15" x="26.7" y="21.79" width="1.18" height="1.18" rx="0.09" ry="0.09"/><rect class="cls-16" x="28.75" y="21.79" width="1.18" height="1.18" rx="0.09" ry="0.09"/><rect class="cls-17" x="30.81" y="21.79" width="1.18" height="1.18" rx="0.09" ry="0.09"/><rect class="cls-13" x="22.6" y="23.95" width="1.18" height="1.18" rx="0.09" ry="0.09"/><rect class="cls-14" x="24.65" y="23.95" width="1.18" height="1.18" rx="0.09" ry="0.09"/><rect class="cls-15" x="26.7" y="23.95" width="1.18" height="1.18" rx="0.09" ry="0.09"/><rect class="cls-16" x="28.75" y="23.95" width="1.18" height="1.18" rx="0.09" ry="0.09"/><rect class="cls-17" x="30.81" y="23.95" width="1.18" height="1.18" rx="0.09" ry="0.09"/><rect class="cls-13" x="22.6" y="26.11" width="1.18" height="1.18" rx="0.09" ry="0.09"/><rect class="cls-14" x="24.65" y="26.11" width="1.18" height="1.18" rx="0.09" ry="0.09"/><rect class="cls-15" x="26.7" y="26.11" width="1.18" height="1.18" rx="0.09" ry="0.09"/><rect class="cls-16" x="28.75" y="26.11" width="1.18" height="1.18" rx="0.09" ry="0.09"/><rect class="cls-17" x="30.81" y="26.11" width="1.18" height="1.18" rx="0.09" ry="0.09"/><rect class="cls-13" x="22.6" y="28.27" width="1.18" height="1.18" rx="0.09" ry="0.09"/><rect class="cls-14" x="24.65" y="28.27" width="1.18" height="1.18" rx="0.09" ry="0.09"/><rect class="cls-15" x="26.7" y="28.27" width="1.18" height="1.18" rx="0.09" ry="0.09"/><rect class="cls-16" x="28.75" y="28.27" width="1.18" height="1.18" rx="0.09" ry="0.09"/><rect class="cls-17" x="30.81" y="28.27" width="1.18" height="1.18" rx="0.09" ry="0.09"/><rect class="cls-13" x="22.6" y="30.43" width="1.18" height="1.18" rx="0.09" ry="0.09"/><rect class="cls-14" x="24.65" y="30.43" width="1.18" height="1.18" rx="0.09" ry="0.09"/><rect class="cls-15" x="26.7" y="30.43" width="1.18" height="1.18" rx="0.09" ry="0.09"/><rect class="cls-16" x="28.75" y="30.43" width="1.18" height="1.18" rx="0.09" ry="0.09"/><rect class="cls-17" x="30.81" y="30.43" width="1.18" height="1.18" rx="0.09" ry="0.09"/><rect class="cls-13" x="22.6" y="32.59" width="1.18" height="1.18" rx="0.09" ry="0.09"/><rect class="cls-14" x="24.65" y="32.59" width="1.18" height="1.18" rx="0.09" ry="0.09"/><rect class="cls-15" x="26.7" y="32.59" width="1.18" height="1.18" rx="0.09" ry="0.09"/><rect class="cls-16" x="28.75" y="32.59" width="1.18" height="1.18" rx="0.09" ry="0.09"/><rect class="cls-17" x="30.81" y="32.59" width="1.18" height="1.18" rx="0.09" ry="0.09"/><rect class="cls-13" x="22.6" y="34.75" width="1.18" height="1.18" rx="0.09" ry="0.09"/><rect class="cls-14" x="24.65" y="34.75" width="1.18" height="1.18" rx="0.09" ry="0.09"/><rect class="cls-15" x="26.7" y="34.75" width="1.18" height="1.18" rx="0.09" ry="0.09"/><rect class="cls-16" x="28.75" y="34.75" width="1.18" height="1.18" rx="0.09" ry="0.09"/><rect class="cls-17" x="30.81" y="34.75" width="1.18" height="1.18" rx="0.09" ry="0.09"/><rect class="cls-13" x="22.6" y="36.92" width="1.18" height="1.18" rx="0.09" ry="0.09"/><rect class="cls-14" x="24.65" y="36.92" width="1.18" height="1.18" rx="0.09" ry="0.09"/><rect class="cls-15" x="26.7" y="36.92" width="1.18" height="1.18" rx="0.09" ry="0.09"/><rect class="cls-16" x="28.75" y="36.92" width="1.18" height="1.18" rx="0.09" ry="0.09"/><rect class="cls-17" x="30.81" y="36.92" width="1.18" height="1.18" rx="0.09" ry="0.09"/><rect class="cls-13" x="22.6" y="39.08" width="1.18" height="1.18" rx="0.09" ry="0.09"/><rect class="cls-14" x="24.65" y="39.08" width="1.18" height="1.18" rx="0.09" ry="0.09"/><rect class="cls-15" x="26.7" y="39.08" width="1.18" height="1.18" rx="0.09" ry="0.09"/><rect class="cls-16" x="28.75" y="39.08" width="1.18" height="1.18" rx="0.09" ry="0.09"/><rect class="cls-17" x="30.81" y="39.08" width="1.18" height="1.18" rx="0.09" ry="0.09"/><path class="cls-18" d="M45.65,31.81a1.07,1.07,0,0,0-1.07,1.07v5.19H37.21v.27a4.69,4.69,0,0,0,4.69,4.77h3.18v-2H51.5V31.81Z"/><path class="cls-19" d="M11,25.39c-.07,0,.05.12.19.21h0l.11,0a.39.39,0,0,0,.2-.12A1.58,1.58,0,0,0,11,25.39Z"/><path class="cls-20" d="M40.93,47.21a2.66,2.66,0,0,1,1.93-2.55,1.11,1.11,0,0,0,.75-.76,2.66,2.66,0,0,1,5.19.51,2.69,2.69,0,0,1,0,.6,1.06,1.06,0,0,0,.47,1,2.66,2.66,0,0,1,.39,4.12,1.72,1.72,0,0,0-.4.56,1.89,1.89,0,0,1-1.74,1.16l-.24,0a1.9,1.9,0,0,0-1.24.24,2.66,2.66,0,0,1-4-2.27v0a.93.93,0,0,0-.28-.67A2.65,2.65,0,0,1,40.93,47.21Z"/><path class="cls-21" d="M43.66,48.82c0,.08,0,.17.08.25a.84.84,0,0,0,.32.4,2,2,0,0,0,.23.12l.4.2,0-.08c0-.09,0-.17-.07-.26l-.14-.51.15.51c0,.08,0,.17.08.25l0,.11,0,0h0a0,0,0,0,1,0,0h0l0,0a.83.83,0,0,0,.19.18,2,2,0,0,0,.23.12l.43.21,0-2.4,0,3.13L46,51a.91.91,0,0,0,.27-.19.82.82,0,0,0,.18-.27c0-.05,0-.1.05-.16a.34.34,0,0,1,.1-.14.36.36,0,0,1,.16-.07l.16,0a.37.37,0,0,0,.22-.22c.06-.21.11-.43.16-.65,0,.22-.09.44-.15.66a.39.39,0,0,1-.23.24l-.16,0a.33.33,0,0,0-.14.07.31.31,0,0,0-.09.13s0,.11,0,.16a.87.87,0,0,1-.18.29,1,1,0,0,1-.28.2l-.26.14.09,6.28h0a.14.14,0,0,1-.28,0l.1-7-.45-.24a2.08,2.08,0,0,1-.23-.13.87.87,0,0,1-.19-.19l0-.06h0l-.47-.25a2.08,2.08,0,0,1-.23-.13.87.87,0,0,1-.32-.43c0-.09,0-.17-.07-.26l-.14-.51Z"/><path class="cls-22" d="M57.64,44.36a1.71,1.71,0,0,0-1.24-1.64.72.72,0,0,1-.48-.49,1.71,1.71,0,0,0-3.34.33,1.73,1.73,0,0,0,0,.39.68.68,0,0,1-.3.66A1.71,1.71,0,0,0,52,46.25a1.11,1.11,0,0,1,.26.36,1.21,1.21,0,0,0,1.12.74h.16a1.22,1.22,0,0,1,.79.15A1.71,1.71,0,0,0,56.94,46v0a.6.6,0,0,1,.18-.43A1.7,1.7,0,0,0,57.64,44.36Z"/><path class="cls-23" d="M55.88,45.39l-.05.16a.54.54,0,0,1-.2.26l-.15.08-.26.13,0-.05,0-.17.09-.33-.1.33-.05.16,0,.07h0a0,0,0,0,0,0,0h0l0,0a.53.53,0,0,1-.12.11l-.15.08-.27.13,0-1.54,0,2-.15-.08a.58.58,0,0,1-.17-.12.53.53,0,0,1-.11-.18s0-.07,0-.1a.22.22,0,0,0-.07-.09.23.23,0,0,0-.1,0l-.1,0a.24.24,0,0,1-.14-.14c0-.14-.07-.28-.1-.42,0,.14.06.28.09.42a.25.25,0,0,0,.15.16l.1,0,.09,0a.2.2,0,0,1,.06.08s0,.07,0,.1a.56.56,0,0,0,.11.19.62.62,0,0,0,.18.13l.17.09-.06,4h0a.09.09,0,1,0,.18,0l-.07-4.51.29-.15.15-.09a.56.56,0,0,0,.12-.12l0,0h0l.3-.16.15-.09a.56.56,0,0,0,.2-.28l0-.17.09-.33Z"/><path class="cls-24" d="M30.63,44.08h-.43l-4.3,1.46a37.13,37.13,0,0,1-.75,12.31,23.89,23.89,0,0,1,2.2,1.75A28,28,0,0,0,39.24,59C36.67,53.29,32.18,46.58,30.63,44.08Z"/><path id="_Path_" data-name="&lt;Path&gt;" class="cls-25" d="M20,19.51S34.19,35,43.56,29a5,5,0,0,1,.13,1.87c-1.06,2.2-14.22,7.11-25-3.63Z"/><path class="cls-26" d="M20,19.51l-.31,1.85,2.57,8.8a21.33,21.33,0,0,0,6.57,3c0-1.14-1.43-3.28-.56-4.68,1-1.61,4,.27,4,.27h0C25.74,25.78,20,19.51,20,19.51Z"/><path class="cls-25" d="M20.45,20.68h0A19.81,19.81,0,0,1,19,14.18l-2.52-.58C6.4,19.37,4.78,30.85,4.78,30.85l4.49-2L13,30.43q.07.77.2,1.57l-1.28-.25a45.37,45.37,0,0,1,3.3,14.49L17.74,46l8.15-.78,6-.58C25.77,30.87,20.66,21.07,20.45,20.68Z"/><path class="cls-25" d="M25,12.37c0,.09,0,.2,0,.3-.06,1-.17,2.56-.4,5.23-.06.71-.63,1.15-1.42,1.33h0v0h0a7.72,7.72,0,0,1-1.9.24c-.57,0-1.16,0-1.7-.06a21.65,21.65,0,0,1-2.3-.31l-.66-7.88H25S25,11.43,25,12.37Z"/><path class="cls-27" d="M19.63,28.08c-2-1.17-1.29-2.83-.9-5.14s-4.81-3.17-4-5.92a3,3,0,0,1,3.63-2.11V13.47l-1.8.14a22.47,22.47,0,0,0-6.74,5.94l3.8,5.7,5.35,4.06S21.63,29.24,19.63,28.08Z"/><g class="cls-28"><path class="cls-29" d="M14.48,31.51c-.42.33-.71-.36-.84-.88a11.49,11.49,0,0,1-1,2.7l.07.39a45.36,45.36,0,0,1,1.41,4.93l1.69-.48,1.57-2.08S15.2,30.94,14.48,31.51Z"/></g><path class="cls-30" d="M17.74,45.57l-2.53.24A47.06,47.06,0,0,1,15,54.27a27.88,27.88,0,0,0,10.14,4.89c.13-.55.26-1.12.37-1.69a40.11,40.11,0,0,0,.34-12.67Z"/><path id="_Path_2" data-name="&lt;Path&gt;" class="cls-31" d="M9.93,19.33S25,38.17,20.45,20.66c0,0,7.72,13.12,11.73,22.11a1.58,1.58,0,0,1-.48,1.9,19.73,19.73,0,0,0-2.43,2l-1.34,1.44L15.21,46.24,13.12,38a1.61,1.61,0,0,1,.28-1.38c1.17-1.52,3.42-6.35-4.85-15.32A14,14,0,0,1,9.93,19.33Z"/><path class="cls-32" d="M23.67,35.89c-3.74,3.13-8.93,3.43-4.75-2s1.74-12.45,1.74-12.45h0c3.9,16.13-10.72-2.12-10.72-2.12a14,14,0,0,0-1.39,2c8.24,8.93,6,13.76,4.87,15.31a1.64,1.64,0,0,0-.29,1.4l2.09,8.24,1.65-.13,6-3.71S27.4,32.76,23.67,35.89Z"/><path id="_Path_3" data-name="&lt;Path&gt;" class="cls-33" d="M44.44,27.7,42.76,26,24.14,42.86a.61.61,0,0,0-.05.84l1.58,1.85a.61.61,0,0,0,.89,0Z"/><path id="_Path_4" data-name="&lt;Path&gt;" class="cls-34" d="M44.44,27.7a1.76,1.76,0,0,1,1.08-.19.86.86,0,0,0,.91-.36c.82-1.27,2.74-4,4.32-4.31a1.64,1.64,0,0,0,.72-.29,1.13,1.13,0,0,0,.41-1.44.91.91,0,0,0-1.23-.44l-7.39,3.66a.78.78,0,0,0-.42.83c.05.32.07.69-.08.84Z"/><path id="_Path_5" data-name="&lt;Path&gt;" class="cls-25" d="M41.94,31.57a2.37,2.37,0,0,1-.42-3.08c.75-1,.12-1,.42-1.58.11-.2,2.08.54,1.74,3.94A7,7,0,0,1,41.94,31.57Z"/><path class="cls-35" d="M30.72,46.79c-1.16.66-3.15,1.31-3.88-1.49h0a1,1,0,0,1-1.45-.06L24.32,44a1,1,0,0,1,.09-1.38l2.24-2s-3.56,0-.69-4.18a.89.89,0,0,0-1.09-1.32c-1.28.56-2.79,2-3.64,5.68,0,0-.59,3.3-6.09,3.68-.46,0-.91.18-1.37.22a5.3,5.3,0,0,0-1.55.37h0a4.38,4.38,0,0,0-1.44,1c-2.38,2.37-1.52,7.08,1.91,10.52s8.14,4.28,10.52,1.91a4.62,4.62,0,0,0,1.27-2.6h0s.64-5.22,4.77-6.15a3.83,3.83,0,0,0,1.89-1,2.9,2.9,0,0,0,.65-.94A.76.76,0,0,0,30.72,46.79Z"/><path class="cls-36" d="M24.42,56.17a4.52,4.52,0,0,1-1.2,2.24c-2.38,2.38-7.08,1.52-10.52-1.91S8.45,48.37,10.82,46a4.32,4.32,0,0,1,1.47-1v0h-.07l.1,0c.75,1.1,3,3.82,6.57,3,4.43-1.06,3.13-8.64,5.3-10.56,1.2-1.07,1.28-.56,1.11.1a4.47,4.47,0,0,0-.41,1.14h0c-.37,2,1.75,1.94,1.75,1.94l-2.24,2A1,1,0,0,0,24.33,44l1.07,1.26a1,1,0,0,0,1.45.06l-7.37,7.37S16.9,55.22,19,57.86C20.91,60.23,23.67,58.74,24.42,56.17Z"/><path class="cls-25" d="M18.66,49.88h-.61c.43,0-.28-.32-.78-.53a1,1,0,0,0-.81,0,6.39,6.39,0,0,1-.61.25h0c-1.3-.75-9.94-6.27-2.66-17.19a3,3,0,0,0,0-3.29L8.22,21.79S-3.71,42.32,13.11,51.22C16.79,53.11,19.78,49.88,18.66,49.88Z"/><path id="_Path_6" data-name="&lt;Path&gt;" class="cls-37" d="M17.73,50.31s1.28,0,1.28-.55-1-.72-1.45-.28C17.56,49.48,18.56,49.79,17.73,50.31Z"/><path class="cls-38" d="M23.78,15.87c0,.64.7.29.66.42a.79.79,0,0,1-.56.59c-.26.07-.85.26-.81-1.24s-.34-2-1-2.11-1.59.13-1.32,1.54S19,19.79,23.13,19.24h0v0h0a19,19,0,0,1-1.9.24,6.48,6.48,0,0,1-1.7-.06.85.85,0,0,1-.62-.36c-.43-.89-.29-4.42-1-5.21a4.47,4.47,0,0,1-.7-2.6c0-.07,0-.11,0-.11l5.33-.89,1.73.19.5.26.08.55L25,12.38c0,.09,0,.19,0,.3a1.23,1.23,0,0,1-.81.2C23.69,12.8,23.75,15.37,23.78,15.87Z"/><path class="cls-39" d="M10,29.34a.27.27,0,0,1,0,.49L9.67,30a.27.27,0,0,0-.16.2l-.07.36a.27.27,0,0,1-.47.13l-.24-.28a.27.27,0,0,0-.24-.09l-.37,0a.27.27,0,0,1-.27-.41L8,29.61a.27.27,0,0,0,0-.25L7.9,29a.27.27,0,0,1,.31-.38l.36.08a.27.27,0,0,0,.24-.07l.27-.25a.27.27,0,0,1,.46.17l0,.37"/><path class="cls-40" d="M15,14.57a5.1,5.1,0,0,1,2-.84.7.7,0,0,0,.6-.78c0-.38.11-.72.73-.65,1,.1.94,1.3.86,2a.38.38,0,0,0,.38.43h0a.38.38,0,0,0,.38-.39c0-.89.13-3,2-2.62,2.35.44,6.62,1.92,6.91-3.26s-6.22-5.14-6.42-3.22S18.86,8.06,17.66,8s-3.17,2.56-2.35,4A2.12,2.12,0,0,1,15,14.57Z"/><path class="cls-41" d="M13.11,51.19c-5.38-2.84-7.82-6.86-8.65-11,.32,1.06,1,2.07,2.25,2.1,2.62.06,3.86-4.16,4-4.55-2,7.44,4.08,11.37,5.15,11.93h0l.61-.26a1,1,0,0,1,.81,0c.5.21,1.21.5.78.5h.61C19.78,49.82,16.79,53.09,13.11,51.19Z"/><path class="cls-42" d="M44,4,37.25,5.4a1.48,1.48,0,0,0-1.19,1.45v7.51a.43.43,0,0,1-.43.43h0a1.52,1.52,0,0,0-1.54,1.43,1.48,1.48,0,0,0,1.48,1.52h0A2.46,2.46,0,0,0,38,15.29V11.58a.52.52,0,0,1,.42-.51l4.85-1a.52.52,0,0,1,.63.51v2.8a.43.43,0,0,1-.43.43h0A1.52,1.52,0,0,0,42,15.11a1.48,1.48,0,0,0,1.47,1.65h0a2.46,2.46,0,0,0,2.46-2.46V5.59A1.59,1.59,0,0,0,44,4Z"/><path class="cls-43" d="M39.34,5l-2.09.42a1.48,1.48,0,0,0-1.19,1.45v7.51a.43.43,0,0,1-.43.43,1.52,1.52,0,0,0-1.54,1.43,1.48,1.48,0,0,0,1.48,1.52A2.46,2.46,0,0,0,38,15.29V11.58a.52.52,0,0,1,.42-.51l4.85-1a.52.52,0,0,1,.63.51v2.8a.43.43,0,0,1-.43.43A1.52,1.52,0,0,0,42,15.11a1.48,1.48,0,0,0,1.47,1.65,2.46,2.46,0,0,0,2.46-2.46V7.7A27.82,27.82,0,0,0,39.34,5Z"/></g></g></svg>