<svg id="Layer_1" data-name="Layer 1" xmlns="http://www.w3.org/2000/svg" xmlns:xlink="http://www.w3.org/1999/xlink" viewBox="0 0 64 64"><defs><style>.cls-1{fill:url(#linear-gradient);}.cls-2{fill:#161a49;}.cls-3{fill:#f9aa8f;}.cls-4{fill:url(#linear-gradient-2);}.cls-5{fill:url(#linear-gradient-3);}.cls-6{fill:url(#linear-gradient-4);}.cls-7{fill:url(#linear-gradient-5);}.cls-8{fill:url(#linear-gradient-6);}.cls-9{fill:url(#linear-gradient-7);}.cls-10{fill:url(#linear-gradient-8);}.cls-11{fill:url(#linear-gradient-9);}.cls-12{fill:url(#linear-gradient-10);}.cls-13{fill:url(#linear-gradient-11);}.cls-14{fill:url(#linear-gradient-12);}.cls-15{fill:url(#linear-gradient-13);}.cls-16{fill:url(#linear-gradient-14);}.cls-17{fill:url(#linear-gradient-15);}.cls-18{fill:url(#linear-gradient-16);}.cls-19{fill:url(#linear-gradient-17);}.cls-20{fill:url(#linear-gradient-18);}</style><linearGradient id="linear-gradient" x1="32.07" y1="97.25" x2="32.07" y2="9.14" gradientUnits="userSpaceOnUse"><stop offset="0.02" stop-color="#97efe7"/><stop offset="0.52" stop-color="#3db6d3"/><stop offset="1" stop-color="#3d6fd3"/></linearGradient><linearGradient id="linear-gradient-2" x1="12.5" y1="42.72" x2="49.54" y2="42.72" gradientUnits="userSpaceOnUse"><stop offset="0" stop-color="#082338"/><stop offset="1" stop-color="#09283f"/></linearGradient><linearGradient id="linear-gradient-3" x1="69.29" y1="21.3" x2="10.45" y2="50.03" gradientUnits="userSpaceOnUse"><stop offset="0" stop-color="#7ff1a4"/><stop offset="0.52" stop-color="#2fbca4"/><stop offset="1" stop-color="#2f7da4"/></linearGradient><linearGradient id="linear-gradient-4" x1="65.09" y1="49.84" x2="30.22" y2="56.09" xlink:href="#linear-gradient-3"/><linearGradient id="linear-gradient-5" x1="63.34" y1="58.42" x2="32.59" y2="17.04" xlink:href="#linear-gradient-3"/><linearGradient id="linear-gradient-6" x1="51.18" y1="67.45" x2="20.43" y2="26.08" xlink:href="#linear-gradient-3"/><linearGradient id="linear-gradient-7" x1="64.26" y1="45.18" x2="29.38" y2="51.43" xlink:href="#linear-gradient-3"/><linearGradient id="linear-gradient-8" x1="41.12" y1="30.11" x2="21.42" y2="8.78" gradientUnits="userSpaceOnUse"><stop offset="0" stop-color="#f9aa8f"/><stop offset="1" stop-color="#f78e6b"/></linearGradient><linearGradient id="linear-gradient-9" x1="24.3" y1="25.27" x2="32.96" y2="44.93" gradientUnits="userSpaceOnUse"><stop offset="0.02" stop-color="#98372a"/><stop offset="0.34" stop-color="#6a2922"/><stop offset="0.79" stop-color="#301818"/><stop offset="1" stop-color="#1a1114"/></linearGradient><linearGradient id="linear-gradient-10" x1="36.92" y1="19.71" x2="45.58" y2="39.37" xlink:href="#linear-gradient-9"/><linearGradient id="linear-gradient-11" x1="53.57" y1="66.97" x2="27.07" y2="25.1" xlink:href="#linear-gradient-3"/><linearGradient id="linear-gradient-12" x1="33.58" y1="10.4" x2="32.74" y2="28.4" gradientUnits="userSpaceOnUse"><stop offset="0" stop-color="#182ebd"/><stop offset="0.58" stop-color="#0d1226"/></linearGradient><linearGradient id="linear-gradient-13" x1="37.17" y1="40.15" x2="35.17" y2="8.9" gradientUnits="userSpaceOnUse"><stop offset="0" stop-color="#f7dc8d"/><stop offset="0.46" stop-color="#f27c1c"/><stop offset="0.99" stop-color="#f2591c"/></linearGradient><linearGradient id="linear-gradient-14" x1="620.87" y1="28.27" x2="620.87" y2="1.45" gradientTransform="matrix(-1, 0, 0, 1, 640.02, 0)" xlink:href="#linear-gradient"/><linearGradient id="linear-gradient-15" x1="9.89" y1="35.71" x2="9.89" y2="9.23" xlink:href="#linear-gradient"/><linearGradient id="linear-gradient-16" x1="680.65" y1="41.37" x2="680.65" y2="14.89" gradientTransform="matrix(-1, 0, 0, 1, 732.01, 0)" xlink:href="#linear-gradient"/><linearGradient id="linear-gradient-17" x1="49.72" y1="16.4" x2="49.72" y2="-4.35" gradientTransform="translate(-9.36)" xlink:href="#linear-gradient"/><linearGradient id="linear-gradient-18" x1="65.86" y1="1.8" x2="-15.52" y2="41.55" xlink:href="#linear-gradient-3"/></defs><title>flying</title><circle class="cls-1" cx="32.07" cy="32" r="28"/><path class="cls-2" d="M43.71,28.71v0Z"/><path class="cls-2" d="M47.28,42.5c-9.54-1.3-3.78-13.3-3.57-13.78L36,35.62c-3.35-4.94-1.79-2.13-.37-7.1a2.41,2.41,0,0,0-3.55-2.73L30,27S13.68,34.7,14.19,45.54A9.57,9.57,0,0,1,12.5,52a28,28,0,0,0,35.93,2.7,27.44,27.44,0,0,0,.71-3.23C49.74,47.62,50,42.87,47.28,42.5Z"/><path class="cls-3" d="M19.16,50.48a9.92,9.92,0,0,0,1.54,1.93s-.91.5,0,.91,3.81-1.15.14-3.78"/><path class="cls-4" d="M47.28,42.5c-9.54-1.3-3.78-13.3-3.57-13.78L36,35.62c-3.35-4.94-1.79-2.13-.37-7.1a2.41,2.41,0,0,0-3.55-2.73L30,27S13.68,34.7,14.19,45.54A9.57,9.57,0,0,1,12.5,52a28.12,28.12,0,0,0,4.2,3.39c1-1.83,1.18-4.17.9-7.11-.74-7.65,8.06-7.63,7.88.61-.06,2.73-1.21,6.07-2.79,9.48A28,28,0,0,0,41,58.53a40.7,40.7,0,0,0,1.83-8.18c.88-7.17,6.78-6.21,6.46,0C49.76,46.73,49.74,42.83,47.28,42.5Z"/><path class="cls-5" d="M47.45,8.6h0a33.34,33.34,0,0,1-4.13,10.13c-.68,1-3,2.83-4.21,4.23-2.6,3-4.6,3.15-8.43,3.52A12.16,12.16,0,0,0,23.39,32c-2.65,4.9-10,13.34-3.75,19.16l1.72-1.25s-3.81-6.81,7.1-12.82c.63-.35.48,1.62.11,3.76q0,.24-.09.48t-.12.47q-.06.23-.14.46t-.16.46q-.09.23-.18.45c-.27.61-.7,1.13-1,1.71A11,11,0,0,0,26,47c-.23.77-.37,1.57-.55,2.35l-.11.45c-.33,1.35-.67,2.69-1.08,4a24.43,24.43,0,0,1-1.32,3.53l-.48,1a27.83,27.83,0,0,0,6,1.46,69,69,0,0,0,4.87-7.35c.2.37.39.74.55,1.11.07.16.14.36.21.52A13.21,13.21,0,0,1,35,59.85a27.85,27.85,0,0,0,5.59-1.17,32.33,32.33,0,0,0-.88-13.35,13.89,13.89,0,0,1,.75-9.13L45,26c.37-.84.77-1.66,1.19-2.47,2.41-4.7,2.4-7.89,2.93-13.8Q48.29,9.16,47.45,8.6Z"/><path class="cls-6" d="M38,51c-2.37-1.77-4.19.59-4.73,1.41.2.37.39.74.55,1.1.07.16.14.36.21.52a13.22,13.22,0,0,1,.87,5.83,27.88,27.88,0,0,0,3.53-.6C39.25,56.24,39.88,52.36,38,51Z"/><path class="cls-7" d="M34.56,29.48s2.51,1.21,3,0a19.22,19.22,0,0,0,.74-3.54S41,22,43.23,18.74c-.71,1-3,2.81-4.19,4.2-2.59,3-4.59,3.15-8.41,3.52l-.23.27Z"/><path class="cls-8" d="M24.66,34.65c5.11-1.79,2.3-5,4.54-5.45a13.29,13.29,0,0,1,5.17.44l-2.27-2.32-2-.71A12,12,0,0,0,23.33,32c-1.08,2-2.94,4.58-4.34,7.34A10.37,10.37,0,0,1,24.66,34.65Z"/><path class="cls-9" d="M25.91,47.2c-.65,2.49-1.46,6.71-3,10.13l-.48,1c.59.22,1.19.41,1.79.58,1.5-2.91,2.66-6,2-7.76a7.55,7.55,0,0,1,.34-5.68A9.36,9.36,0,0,0,25.91,47.2Z"/><path class="cls-3" d="M37.09,23.26a.39.39,0,0,1,0-.69,4.51,4.51,0,0,0,1.41-1c.21-.3-.1-.81-.48-1.38-.13-.2-.32-.5-.47-.76a.63.63,0,0,1,.07-.75.47.47,0,0,0,0-.71c-1-1.06-3.89-2.14-4.91-1.84C28.23,17.41,30,19.26,30,19.26l1.59,3.21a3.1,3.1,0,0,1-1.15,4l-.05,0s4.26.42,5.34.07c1.47-.46,3.33-3.66,3.33-3.66A1.77,1.77,0,0,1,37.09,23.26Z"/><path class="cls-10" d="M36.36,25.78c-.07-.41-1.47,0-1.56-1.05S37,22.67,37,22.67h0a.38.38,0,0,1,.11-.1,7.6,7.6,0,0,0,1-.61l.43-.41A2.42,2.42,0,0,1,36,20.9c-1.18-1.16-2.06-2.78-1.09-3.05s2.73,1.72,2.73,1.72h0l-.09-.15a.63.63,0,0,1,.07-.75.76.76,0,0,0,.11-.15v-.12s-.22.43-.62,0a18.88,18.88,0,0,0-2-1.38c-.54-.46.2-.36.2-.36l-.09-.05a4.86,4.86,0,0,0-2.51-.43A5.48,5.48,0,0,0,30,17.55l-.11,1.57a1.18,1.18,0,0,0,.11.15l1.59,3.21a3.1,3.1,0,0,1-1.15,4l-.05,0s2.57.25,4.22.2l1-.09h.1C36,26.52,36.43,26.16,36.36,25.78Z"/><path id="_Path_" data-name="&lt;Path&gt;" class="cls-11" d="M19.71,34.16S29,24.63,33.89,29.59a.39.39,0,0,0,.48.06h0a.39.39,0,0,0,.11-.56c-.6-.83-2.28-2.84-4.51-2.77C26.9,26.42,19.71,34.16,19.71,34.16Z"/><path id="_Path_2" data-name="&lt;Path&gt;" class="cls-12" d="M40.36,21.59a10.23,10.23,0,0,0-1.88,5.9.34.34,0,0,1-.23.35h0a.34.34,0,0,1-.44-.3c-.06-1.24-.14-4.7.91-5.11A9.83,9.83,0,0,0,40.36,21.59Z"/><path class="cls-13" d="M31.56,35.6a1,1,0,0,0,0-.55.48.48,0,0,0-.92-.1A4,4,0,0,1,28.49,37c.52-.11.37,1.76,0,3.79q0,.24-.09.48t-.12.47q-.06.23-.14.47T28,42.7q-.09.23-.18.45l-.21.44-.23.43-.27.46,0,0c.11-.14.21-.28.31-.42l.29-.41.26-.38.24-.36.22-.34.2-.32.18-.3.17-.29a13,13,0,0,0,.69-1.28,3.12,3.12,0,0,1,.76-1.21,3.22,3.22,0,0,1,1.93-.42l2-.13a19.42,19.42,0,0,0,3.94-.5c.87-.25,1.09,1.18,1.09,1.18h0a13.89,13.89,0,0,1,1-3.15l2.45-5.52C40.36,37.58,31.31,36.24,31.56,35.6Z"/><path class="cls-14" d="M36.45,16.84a1.19,1.19,0,0,0,.86-.51.18.18,0,0,0-.24-.24c-.27.15-.68.18-1.24-.38-1-1-2.22-2.94-5.74,1.69-.13.17-.28.34-.43.5-.35.38-.94,1.52,0,2.11a7.42,7.42,0,0,1,2.23,3.55.11.11,0,0,0,.19.05c.4-.42,1.29-1.51.62-2.21-.85-.88-1-1.94-.09-2a1,1,0,0,1,1,.53.35.35,0,0,0,.55.06h0a.35.35,0,0,0,0-.47c-.41-.45-1.16-1.48-.28-2.34a1.62,1.62,0,0,1,1.91-.4A1.2,1.2,0,0,0,36.45,16.84Z"/><path class="cls-15" d="M34,33.16a4.16,4.16,0,0,0,5.33-1.56.58.58,0,0,1,1,0h0a.58.58,0,0,1,0,.61l-2.95,5.06a.58.58,0,0,1-.9.13l-3.23-3.05a.58.58,0,0,1-.1-.72l.15-.25A.58.58,0,0,1,34,33.16Z"/><path class="cls-16" d="M13.12,19.9c0-.32.6-.61,1.56-.81a2.74,2.74,0,0,0,1.72-1.22,1.91,1.91,0,0,1,3.2,0l.08.11a2.66,2.66,0,0,0,2,1.07c2,.13,3.52.56,3.52,1.06,0,.32-.6.61-1.56.81a2.74,2.74,0,0,0-1.72,1.22,1.91,1.91,0,0,1-3.2,0v0A2.68,2.68,0,0,0,16.64,21C14.6,20.82,13.12,20.4,13.12,19.9Z"/><path class="cls-17" d="M15.85,27.44c0-.31-.59-.6-1.54-.8a2.71,2.71,0,0,1-1.7-1.2,1.89,1.89,0,0,0-3.16,0l-.08.11a2.63,2.63,0,0,1-2,1.05c-2,.13-3.48.55-3.48,1,0,.31.59.6,1.54.8a2.71,2.71,0,0,1,1.7,1.2,1.89,1.89,0,0,0,3.16,0v0a2.64,2.64,0,0,1,2-1.15C14.38,28.35,15.85,27.94,15.85,27.44Z"/><path class="cls-18" d="M45.4,33.1c0-.31.59-.6,1.54-.8a2.71,2.71,0,0,0,1.7-1.2,1.89,1.89,0,0,1,3.16,0l.08.11a2.63,2.63,0,0,0,2,1.05c2,.13,3.48.55,3.48,1,0,.31-.59.6-1.54.8a2.71,2.71,0,0,0-1.7,1.2,1.89,1.89,0,0,1-3.16,0v0a2.64,2.64,0,0,0-2-1.15C46.87,34,45.4,33.59,45.4,33.1Z"/><path class="cls-19" d="M45,9.92c0-.25-.46-.47-1.21-.63a2.12,2.12,0,0,1-1.33-.94,1.48,1.48,0,0,0-2.48,0L40,8.43a2.06,2.06,0,0,1-1.54.83c-1.57.1-2.73.43-2.73.82s.46.47,1.21.63a2.12,2.12,0,0,1,1.33.94,1.48,1.48,0,0,0,2.48,0h0a2.07,2.07,0,0,1,1.6-.9C43.89,10.64,45,10.31,45,9.92Z"/><path id="_Path_3" data-name="&lt;Path&gt;" class="cls-3" d="M47.38,8.71,47.28,6A13.54,13.54,0,0,0,49,4.15c.35-.59.44.71.06,1.23a1.9,1.9,0,0,0-.28,1.75c.22.36.51-1.25.78-.7s-.45,2.47-.45,2.47Z"/><path class="cls-20" d="M46.45,12.09a8.15,8.15,0,0,0,1.91.22l.51,0c.09-1,.18-2.16.3-3.4L47.44,8.6A35.36,35.36,0,0,1,46.45,12.09Z"/></svg>