<svg xmlns="http://www.w3.org/2000/svg" xmlns:xlink="http://www.w3.org/1999/xlink" viewBox="0 0 64 64"><defs><style>.cls-1{isolation:isolate;}.cls-2{fill:url(#linear-gradient);}.cls-3{fill:url(#linear-gradient-2);}.cls-4{fill:url(#linear-gradient-3);}.cls-5{fill:url(#linear-gradient-4);}.cls-6{fill:url(#linear-gradient-5);}.cls-7{fill:url(#linear-gradient-6);}.cls-8{fill:url(#linear-gradient-7);}.cls-9{fill:url(#linear-gradient-8);}.cls-10{fill:url(#linear-gradient-9);}.cls-11{fill:url(#linear-gradient-10);}.cls-12{fill:url(#linear-gradient-11);}.cls-13{fill:url(#linear-gradient-12);}.cls-14{fill:url(#linear-gradient-13);}.cls-15{fill:url(#linear-gradient-14);}.cls-16{fill:url(#linear-gradient-15);}.cls-17{fill:url(#linear-gradient-66);}.cls-18{opacity:0.49;mix-blend-mode:color-burn;fill:url(#linear-gradient-67);}.cls-19{fill:url(#linear-gradient-68);}.cls-20{fill:url(#linear-gradient-69);}.cls-21{fill:url(#linear-gradient-70);}.cls-22{fill:url(#linear-gradient-71);}.cls-23{fill:url(#linear-gradient-72);}.cls-24{fill:url(#linear-gradient-73);}.cls-25{fill:#dfecf4;}.cls-26{fill:#0c141e;}.cls-27{fill:url(#linear-gradient-74);}.cls-28{fill:#431119;}.cls-29{fill:#00a887;}.cls-30{fill:#f9aa8f;}.cls-31{fill:url(#linear-gradient-75);}.cls-32{fill:url(#linear-gradient-76);}.cls-33{fill:#1a305d;}.cls-34{fill:url(#linear-gradient-77);}.cls-35{fill:url(#linear-gradient-78);}.cls-36{fill:#fdc781;}.cls-37{fill:url(#linear-gradient-79);}</style><linearGradient id="linear-gradient" x1="32" y1="97.25" x2="32" y2="9.14" gradientUnits="userSpaceOnUse"><stop offset="0.02" stop-color="#edd7ad"/><stop offset="0.52" stop-color="#ff9661"/><stop offset="1" stop-color="#e74a69"/></linearGradient><linearGradient id="linear-gradient-2" x1="32" y1="56.25" x2="32" y2="14.63" xlink:href="#linear-gradient"/><linearGradient id="linear-gradient-3" x1="22.71" y1="29.11" x2="22.71" y2="-23.81" gradientUnits="userSpaceOnUse"><stop offset="0" stop-color="#fff"/><stop offset="0.84" stop-color="#cddfec"/></linearGradient><linearGradient id="linear-gradient-4" x1="15.49" y1="29.95" x2="15.49" y2="-22.06" xlink:href="#linear-gradient-3"/><linearGradient id="linear-gradient-5" x1="424.28" y1="35.09" x2="424.28" y2="-43.58" gradientTransform="translate(-376.22)" xlink:href="#linear-gradient-3"/><linearGradient id="linear-gradient-6" x1="409.38" y1="35.09" x2="409.38" y2="-43.58" gradientTransform="translate(-376.22)" xlink:href="#linear-gradient-3"/><linearGradient id="linear-gradient-7" x1="407.26" y1="35.09" x2="407.26" y2="-43.58" gradientTransform="translate(-376.22)" xlink:href="#linear-gradient-3"/><linearGradient id="linear-gradient-8" x1="423.13" y1="35.09" x2="423.13" y2="-43.58" gradientTransform="translate(-376.22)" xlink:href="#linear-gradient-3"/><linearGradient id="linear-gradient-9" x1="19.59" y1="44.15" x2="19.59" y2="12.12" xlink:href="#linear-gradient"/><linearGradient id="linear-gradient-10" x1="32.6" y1="57" x2="32.6" y2="5.12" xlink:href="#linear-gradient"/><linearGradient id="linear-gradient-11" x1="399.41" y1="48.78" x2="399.41" y2="-0.28" gradientTransform="translate(-376.22)" xlink:href="#linear-gradient-3"/><linearGradient id="linear-gradient-12" x1="401.46" y1="48.78" x2="401.46" y2="-0.28" gradientTransform="translate(-376.22)" xlink:href="#linear-gradient-3"/><linearGradient id="linear-gradient-13" x1="403.51" y1="48.78" x2="403.51" y2="-0.28" gradientTransform="translate(-376.22)" xlink:href="#linear-gradient-3"/><linearGradient id="linear-gradient-14" x1="405.56" y1="48.78" x2="405.56" y2="-0.28" gradientTransform="translate(-376.22)" xlink:href="#linear-gradient-3"/><linearGradient id="linear-gradient-15" x1="407.62" y1="48.78" x2="407.62" y2="-0.28" gradientTransform="translate(-376.22)" xlink:href="#linear-gradient-3"/><linearGradient id="linear-gradient-66" x1="420.57" y1="44.87" x2="420.57" y2="14.91" gradientTransform="translate(-376.22)" xlink:href="#linear-gradient"/><linearGradient id="linear-gradient-67" x1="387.51" y1="25.69" x2="387.51" y2="25.13" gradientTransform="translate(-376.22)" xlink:href="#linear-gradient-3"/><linearGradient id="linear-gradient-68" x1="393.06" y1="57.61" x2="393.06" y2="32.59" gradientTransform="translate(-376.22)" gradientUnits="userSpaceOnUse"><stop offset="0" stop-color="#7ff1a4"/><stop offset="0.52" stop-color="#2fbca4"/><stop offset="1" stop-color="#2f7da4"/></linearGradient><linearGradient id="linear-gradient-69" x1="-13973.41" y1="54.59" x2="-13973.41" y2="34.59" gradientTransform="matrix(-1, 0, 0, 1, -13956.87, 0)" xlink:href="#linear-gradient-3"/><linearGradient id="linear-gradient-70" x1="15.08" y1="59.34" x2="15.08" y2="41.81" gradientTransform="matrix(1, 0, 0, 1, 0, 0)" xlink:href="#linear-gradient-68"/><linearGradient id="linear-gradient-71" x1="14.85" y1="54.28" x2="14.85" y2="51.58" xlink:href="#linear-gradient-3"/><linearGradient id="linear-gradient-72" x1="15.66" y1="54.45" x2="15.66" y2="51.76" xlink:href="#linear-gradient-3"/><linearGradient id="linear-gradient-73" x1="17.5" y1="31.27" x2="66.25" y2="31.27" gradientUnits="userSpaceOnUse"><stop offset="0.02" stop-color="#97efe7"/><stop offset="0.52" stop-color="#3db6d3"/><stop offset="1" stop-color="#3d6fd3"/></linearGradient><linearGradient id="linear-gradient-74" x1="41.71" y1="43.38" x2="41.71" y2="56.5" gradientUnits="userSpaceOnUse"><stop offset="0" stop-color="#2c1015"/><stop offset="0.99" stop-color="#431119"/></linearGradient><linearGradient id="linear-gradient-75" x1="40.21" y1="36.97" x2="47.07" y2="43.2" gradientUnits="userSpaceOnUse"><stop offset="0" stop-color="#2c1015"/><stop offset="0.41" stop-color="#311016"/><stop offset="0.86" stop-color="#3e1118"/><stop offset="0.99" stop-color="#431119"/></linearGradient><linearGradient id="linear-gradient-76" x1="38.68" y1="33.42" x2="31.61" y2="23.96" gradientUnits="userSpaceOnUse"><stop offset="0" stop-color="#041b35"/><stop offset="0.55" stop-color="#11284d"/><stop offset="1" stop-color="#1a305d"/></linearGradient><linearGradient id="linear-gradient-77" x1="40.87" y1="30.41" x2="57.85" y2="27.79" gradientUnits="userSpaceOnUse"><stop offset="0.09" stop-color="#052e5b"/><stop offset="1" stop-color="#071e30"/></linearGradient><linearGradient id="linear-gradient-78" x1="38.14" y1="24.63" x2="42.9" y2="-2.07" gradientUnits="userSpaceOnUse"><stop offset="0" stop-color="#f9aa8f"/><stop offset="1" stop-color="#f78e6b"/></linearGradient><linearGradient id="linear-gradient-79" x1="39.86" y1="12.61" x2="42.06" y2="0.29" gradientUnits="userSpaceOnUse"><stop offset="0" stop-color="#ffe49f"/><stop offset="1" stop-color="#f8cd5e"/></linearGradient></defs><title>gardening</title><g class="cls-1"><g id="Layer_1" data-name="Layer 1"><circle class="cls-2" cx="32" cy="32" r="28"/><path class="cls-3" d="M4,32A27.87,27.87,0,0,0,7.37,45.33H56.63A28,28,0,1,0,4,32Z"/><path class="cls-4" d="M31.46,16.82C24.82,14.6,19.25,11,17.64,8.68a4.34,4.34,0,0,0-.38-.48A28.08,28.08,0,0,0,14,10.6,177.1,177.1,0,0,0,31.46,16.82Z"/><path class="cls-5" d="M22.73,19.91c-3.55-.49-6.68-1.77-7.71-2.8S11.59,16,11,15.46a5.47,5.47,0,0,0-1-.71,28.05,28.05,0,0,0-1.71,2.44A93.24,93.24,0,0,0,22.73,19.91Z"/><path class="cls-6" d="M39.71,14a14.37,14.37,0,0,0,5.2.28c2-.48,2.88.54,4.24-.15a2,2,0,0,1,2.7.89c.31.66,1.34,0,2,.59a4.94,4.94,0,0,0,2.51.54S50.66,18.26,39.71,14Z"/><path class="cls-7" d="M30.37,8.64S34.15,9.9,36,9.57a5.71,5.71,0,0,1-1.5-.73,1.93,1.93,0,0,0-1.79-.37c-.41.25-.57-.36-1-.13A4.58,4.58,0,0,1,30.37,8.64Z"/><path class="cls-8" d="M28.25,19.85s3.78,1.26,5.58.93a5.71,5.71,0,0,1-1.5-.73,1.93,1.93,0,0,0-1.79-.37c-.41.25-.57-.36-1-.13A4.58,4.58,0,0,1,28.25,19.85Z"/><path class="cls-9" d="M48.92,9.43s-2.9-.23-4-1a4.18,4.18,0,0,0,1.22-.07,1.41,1.41,0,0,1,1.31.26c.2.29.48-.08.73.2A3.35,3.35,0,0,0,48.92,9.43Z"/><path class="cls-10" d="M34.48,38.63H18v-7H15.84V27a3,3,0,0,0-6,0v7.2H4.09A27.83,27.83,0,0,0,7.37,45.33H35.1Z"/><path class="cls-11" d="M60,32a28,28,0,0,0-1.41-8.77H56.88a5.38,5.38,0,0,0-5.38,5.38v3.21H45.65a1.07,1.07,0,0,0-1.07,1.07v5.19H37.21v-2a1,1,0,0,0-1-1h-2.1V15.87a.93.93,0,0,0-.93-.93H21.08a.93.93,0,0,0-.93.93V42H10.47V40.1H5.2a27.83,27.83,0,0,0,2.18,5.23H56.63A27.87,27.87,0,0,0,60,32Z"/><rect class="cls-12" x="22.6" y="17.46" width="1.18" height="1.18" rx="0.09" ry="0.09"/><rect class="cls-13" x="24.65" y="17.46" width="1.18" height="1.18" rx="0.09" ry="0.09"/><rect class="cls-14" x="26.7" y="17.46" width="1.18" height="1.18" rx="0.09" ry="0.09"/><rect class="cls-15" x="28.75" y="17.46" width="1.18" height="1.18" rx="0.09" ry="0.09"/><rect class="cls-16" x="30.81" y="17.46" width="1.18" height="1.18" rx="0.09" ry="0.09"/><rect class="cls-12" x="22.6" y="19.63" width="1.18" height="1.18" rx="0.09" ry="0.09"/><rect class="cls-13" x="24.65" y="19.63" width="1.18" height="1.18" rx="0.09" ry="0.09"/><rect class="cls-14" x="26.7" y="19.63" width="1.18" height="1.18" rx="0.09" ry="0.09"/><rect class="cls-15" x="28.75" y="19.63" width="1.18" height="1.18" rx="0.09" ry="0.09"/><rect class="cls-16" x="30.81" y="19.63" width="1.18" height="1.18" rx="0.09" ry="0.09"/><rect class="cls-12" x="22.6" y="21.79" width="1.18" height="1.18" rx="0.09" ry="0.09"/><rect class="cls-13" x="24.65" y="21.79" width="1.18" height="1.18" rx="0.09" ry="0.09"/><rect class="cls-14" x="26.7" y="21.79" width="1.18" height="1.18" rx="0.09" ry="0.09"/><rect class="cls-15" x="28.75" y="21.79" width="1.18" height="1.18" rx="0.09" ry="0.09"/><rect class="cls-16" x="30.81" y="21.79" width="1.18" height="1.18" rx="0.09" ry="0.09"/><rect class="cls-12" x="22.6" y="23.95" width="1.18" height="1.18" rx="0.09" ry="0.09"/><rect class="cls-13" x="24.65" y="23.95" width="1.18" height="1.18" rx="0.09" ry="0.09"/><rect class="cls-14" x="26.7" y="23.95" width="1.18" height="1.18" rx="0.09" ry="0.09"/><rect class="cls-15" x="28.75" y="23.95" width="1.18" height="1.18" rx="0.09" ry="0.09"/><rect class="cls-16" x="30.81" y="23.95" width="1.18" height="1.18" rx="0.09" ry="0.09"/><rect class="cls-12" x="22.6" y="26.11" width="1.18" height="1.18" rx="0.09" ry="0.09"/><rect class="cls-13" x="24.65" y="26.11" width="1.18" height="1.18" rx="0.09" ry="0.09"/><rect class="cls-14" x="26.7" y="26.11" width="1.18" height="1.18" rx="0.09" ry="0.09"/><rect class="cls-15" x="28.75" y="26.11" width="1.18" height="1.18" rx="0.09" ry="0.09"/><rect class="cls-16" x="30.81" y="26.11" width="1.18" height="1.18" rx="0.09" ry="0.09"/><rect class="cls-12" x="22.6" y="28.27" width="1.18" height="1.18" rx="0.09" ry="0.09"/><rect class="cls-13" x="24.65" y="28.27" width="1.18" height="1.18" rx="0.09" ry="0.09"/><rect class="cls-14" x="26.7" y="28.27" width="1.18" height="1.18" rx="0.09" ry="0.09"/><rect class="cls-15" x="28.75" y="28.27" width="1.18" height="1.18" rx="0.09" ry="0.09"/><rect class="cls-16" x="30.81" y="28.27" width="1.18" height="1.18" rx="0.09" ry="0.09"/><rect class="cls-12" x="22.6" y="30.43" width="1.18" height="1.18" rx="0.09" ry="0.09"/><rect class="cls-13" x="24.65" y="30.43" width="1.18" height="1.18" rx="0.09" ry="0.09"/><rect class="cls-14" x="26.7" y="30.43" width="1.18" height="1.18" rx="0.09" ry="0.09"/><rect class="cls-15" x="28.75" y="30.43" width="1.18" height="1.18" rx="0.09" ry="0.09"/><rect class="cls-16" x="30.81" y="30.43" width="1.18" height="1.18" rx="0.09" ry="0.09"/><rect class="cls-12" x="22.6" y="32.59" width="1.18" height="1.18" rx="0.09" ry="0.09"/><rect class="cls-13" x="24.65" y="32.59" width="1.18" height="1.18" rx="0.09" ry="0.09"/><rect class="cls-14" x="26.7" y="32.59" width="1.18" height="1.18" rx="0.09" ry="0.09"/><rect class="cls-15" x="28.75" y="32.59" width="1.18" height="1.18" rx="0.09" ry="0.09"/><rect class="cls-16" x="30.81" y="32.59" width="1.18" height="1.18" rx="0.09" ry="0.09"/><rect class="cls-12" x="22.6" y="34.75" width="1.18" height="1.18" rx="0.09" ry="0.09"/><rect class="cls-13" x="24.65" y="34.75" width="1.18" height="1.18" rx="0.09" ry="0.09"/><rect class="cls-14" x="26.7" y="34.75" width="1.18" height="1.18" rx="0.09" ry="0.09"/><rect class="cls-15" x="28.75" y="34.75" width="1.18" height="1.18" rx="0.09" ry="0.09"/><rect class="cls-16" x="30.81" y="34.75" width="1.18" height="1.18" rx="0.09" ry="0.09"/><rect class="cls-12" x="22.6" y="36.92" width="1.18" height="1.18" rx="0.09" ry="0.09"/><rect class="cls-13" x="24.65" y="36.92" width="1.18" height="1.18" rx="0.09" ry="0.09"/><rect class="cls-14" x="26.7" y="36.92" width="1.18" height="1.18" rx="0.09" ry="0.09"/><rect class="cls-15" x="28.75" y="36.92" width="1.18" height="1.18" rx="0.09" ry="0.09"/><rect class="cls-16" x="30.81" y="36.92" width="1.18" height="1.18" rx="0.09" ry="0.09"/><rect class="cls-12" x="22.6" y="39.08" width="1.18" height="1.18" rx="0.09" ry="0.09"/><rect class="cls-13" x="24.65" y="39.08" width="1.18" height="1.18" rx="0.09" ry="0.09"/><rect class="cls-14" x="26.7" y="39.08" width="1.18" height="1.18" rx="0.09" ry="0.09"/><rect class="cls-15" x="28.75" y="39.08" width="1.18" height="1.18" rx="0.09" ry="0.09"/><rect class="cls-16" x="30.81" y="39.08" width="1.18" height="1.18" rx="0.09" ry="0.09"/><path class="cls-17" d="M45.65,31.81a1.07,1.07,0,0,0-1.07,1.07v5.19H37.21v.27a4.69,4.69,0,0,0,4.69,4.77h3.18v-2H51.5V31.81Z"/><path class="cls-18" d="M11,25.39c-.07,0,.05.12.19.21h0l.11,0a.39.39,0,0,0,.2-.12A1.58,1.58,0,0,0,11,25.39Z"/><path class="cls-19" d="M12.08,44.75A2.66,2.66,0,0,1,14,42.2a1.11,1.11,0,0,0,.75-.76,2.66,2.66,0,0,1,5.19.51,2.69,2.69,0,0,1,0,.6,1.06,1.06,0,0,0,.47,1,2.66,2.66,0,0,1,.39,4.12,1.72,1.72,0,0,0-.4.56,1.89,1.89,0,0,1-1.74,1.16l-.24,0a1.9,1.9,0,0,0-1.24.24,2.66,2.66,0,0,1-4-2.27v0a.93.93,0,0,0-.28-.67A2.65,2.65,0,0,1,12.08,44.75Z"/><path class="cls-20" d="M14.81,44.75c0,.08,0,.17.08.25a.84.84,0,0,0,.32.4,2,2,0,0,0,.23.12l.4.2,0-.08c0-.09,0-.17-.07-.26l-.14-.51.15.51c0,.08,0,.17.08.25l0,.11,0,0h0a0,0,0,0,1,0,0h0l0,0a.83.83,0,0,0,.19.18,2,2,0,0,0,.23.12l.43.21,0-2.4,0,3.13.24-.12a.91.91,0,0,0,.27-.19.82.82,0,0,0,.18-.27c0-.05,0-.1.05-.16a.34.34,0,0,1,.1-.14.36.36,0,0,1,.16-.07l.16,0a.37.37,0,0,0,.22-.22c.06-.21.11-.43.16-.65,0,.22-.09.44-.15.66a.39.39,0,0,1-.23.24l-.16,0a.33.33,0,0,0-.14.07.31.31,0,0,0-.09.13s0,.11,0,.16a.87.87,0,0,1-.18.29,1,1,0,0,1-.28.2l-.26.14L17,53.46h0a.14.14,0,0,1-.28,0l.1-7-.45-.24a2.08,2.08,0,0,1-.23-.13.87.87,0,0,1-.19-.19l0-.06h0l-.47-.25a2.08,2.08,0,0,1-.23-.13.87.87,0,0,1-.32-.43c0-.09,0-.17-.07-.26l-.14-.51Z"/><path class="cls-21" d="M16.68,50.67a.72.72,0,0,1-.48-.49,1.71,1.71,0,0,0-3.34.33,1.73,1.73,0,0,0,0,.39.68.68,0,0,1-.3.66,1.71,1.71,0,0,0-.32.28,28.13,28.13,0,0,0,4.3,3.51A1.7,1.7,0,0,0,17.22,54v0a.6.6,0,0,1,.18-.43,1.71,1.71,0,0,0-.73-2.86Z"/><path class="cls-22" d="M14.87,54.14l0-1.3,0,1.27Z"/><path class="cls-23" d="M16.11,53.51a.54.54,0,0,1-.2.26l-.15.08L15.5,54l0-.05,0-.17.09-.33-.1.33-.05.16,0,.07h0a0,0,0,0,0,0,0h0l0,0a.54.54,0,0,1-.12.11l-.15.08-.08,0,0,0,.07,0,.15-.09a.56.56,0,0,0,.12-.12l0,0h0l.3-.16.15-.09a.56.56,0,0,0,.2-.28l0-.17.09-.33-.1.33Z"/><path class="cls-24" d="M16.71,31s-7.26-1.19-6.95-6.77c.29-5.18-5.61,0-3.63,4.75a.15.15,0,0,1-.25.17c-.72-.69-1.67-1.37-1.86-.42-.24,1.22,1.29,3.21,2.87,4.05A.67.67,0,0,1,7,33.86a2,2,0,0,0-.78,1.69c0,.66.28.86.56.85a.44.44,0,0,1,.39.63c-.54,1.18-1,2.89.23,3.44,2,.87,5.43-9,10.2-8.66"/><path class="cls-25" d="M20.27,31H16.71a.43.43,0,0,0-.43.43h0a.43.43,0,0,0,.43.43h.89a.84.84,0,0,1,.58.24,2,2,0,0,0,2.86,0"/><path id="_Path_" data-name="&lt;Path&gt;" class="cls-26" d="M50,37.66s.52,6.54-4.49,8.33A13.18,13.18,0,0,1,44.65,42s1-.9,1.11-1.11l1.37.89A4.73,4.73,0,0,0,50,37.66Z"/><path class="cls-27" d="M49.12,36.39l-14.65.88S32.34,47.32,43.1,57.71a28,28,0,0,0,5.66-3.28C46,49.25,44.62,42.72,49.12,36.39Z"/><path class="cls-28" d="M39.87,35.82c-10.65,0-17.1,12.27-20.39,21.22a27.82,27.82,0,0,0,3.81,1.57c3.12-5,7.38-10.73,10.76-10.92,17.69-1,15.57-10.06,15.57-10.06Z"/><path class="cls-29" d="M53,45.52c-3.15,7.32-9.82,10.09-14.79,9-4.68-1-7.44-5-7.39-10.68,0-4.9-1.16-8.49-3.59-10.68A8.75,8.75,0,0,0,20.86,31L21,32.24a7.57,7.57,0,0,1,5.43,1.87c2.16,1.94,3.23,5.23,3.18,9.76A13.14,13.14,0,0,0,32,52a10,10,0,0,0,6,3.75,11.6,11.6,0,0,0,2.39.25A13.58,13.58,0,0,0,47,54.21,16.87,16.87,0,0,0,54.15,46,16.12,16.12,0,0,1,59,39.44c.16-.59.31-1.19.44-1.8A16.57,16.57,0,0,0,53,45.52Z"/><path id="_Path_2" data-name="&lt;Path&gt;" class="cls-30" d="M22.44,30.23,20.27,31a.31.31,0,0,0-.17.44c.21.38.6.95,1,.89S22.44,32.32,22.44,30.23Z"/><path class="cls-31" d="M49.54,39.89c-2.92-1.59-9.3-3.1-11.92-3,0,0,7.9,3.91,6.16,8.85C47.81,44.07,49.14,41.65,49.54,39.89Z"/><path id="_Path_3" data-name="&lt;Path&gt;" class="cls-32" d="M37.22,28.85S34,32.62,22.31,31.37V30.29s16.16-7.94,17.67-15Z"/><path id="_Path_4" data-name="&lt;Path&gt;" class="cls-33" d="M40,15.32s12.94-1.68,9.73,25.6c-.43,3.64-9.62-6.3-15.58-3.61Z"/><path class="cls-34" d="M49.7,40.92c1-8.47.44-14.15-.81-18l-8.62-5A12.94,12.94,0,0,0,42.48,26c5,7.26,2.93,12.28-4.49,10.87a3.69,3.69,0,0,0-1.2-.07C42.48,37.13,49.33,44,49.7,40.92Z"/><path class="cls-33" d="M39.89,11.16,41,18.27a11.34,11.34,0,0,0,7.22,9,36.34,36.34,0,0,1,11.7,7.25C60,33.65,60,32.83,60,32a28.3,28.3,0,0,0-.17-3C53.52,16.41,39.89,11.16,39.89,11.16Z"/><path class="cls-30" d="M41.93,7.19c-.46-3.19-4.8-.33-5.29.06-.5,1-1.26,5-.19,4.77h0a.29.29,0,0,1,.35.21c.3,1.35.94,2.37,2.21,2.19h0a.76.76,0,0,1,.83.5,10,10,0,0,1,.42,3.42c0,2.53,4.63-4.65,4.63-4.65S42.7,12.53,41.93,7.19Z"/><path class="cls-35" d="M40.93,15.64c.38.87-.46,1.54-.05,2.1s.32.76.18.88c1.32-1.06,3.84-4.93,3.84-4.93s-2.2-1.16-3-6.5c-.45-3.11-4.6-.46-5.25,0l-.54,1.71V9c0,.1-.06.5.26.61s-.05,1.05.08,1.65,0,.79-.29.75a.31.31,0,0,0,.28.05h0a.29.29,0,0,1,.35.21l0,.18c0-.17-.42-2.39.53-2.66a1.7,1.7,0,0,1,2.28,1.61c-.1,1.33,0,3.19-1.19,3.06a1.81,1.81,0,0,0,.55,0A2.17,2.17,0,0,1,40.93,15.64Z"/><path id="_Path_5" data-name="&lt;Path&gt;" class="cls-36" d="M38.09,5.45A4.61,4.61,0,0,0,36.32,8.2a2.28,2.28,0,0,0-.05.39c0,1.12,1.6-.45,2.56-.45.65,0,.61.48.51.79a.24.24,0,0,0,.32.29,1.08,1.08,0,0,0,.47-.6c.4-.93.72-1.2,1.2-.8s.49,2.33,1.24,2.24a15.46,15.46,0,0,1-.35-5.47C42.31,3.39,39.78,4.19,38.09,5.45Z"/><path class="cls-37" d="M42.23,4.59c0-.75-.93-.72-2.08-.28.66-.19,1.07,0,.89.59-.23.73-2.48.85-1.61,1.77s-1.05,1.56-1.05,1.56a1.47,1.47,0,0,1,.46-.09c.65,0,.61.48.51.79a.24.24,0,0,0,.32.29,1.08,1.08,0,0,0,.47-.6c.4-.93.72-1.2,1.2-.8s.49,2.33,1.24,2.24A15.46,15.46,0,0,1,42.23,4.59Z"/></g></g></svg>