<svg xmlns="http://www.w3.org/2000/svg" xmlns:xlink="http://www.w3.org/1999/xlink" viewBox="0 0 64 64"><defs><style>.cls-1{isolation:isolate;}.cls-2{fill:url(#linear-gradient);}.cls-3{fill:url(#linear-gradient-2);}.cls-4{fill:url(#linear-gradient-3);}.cls-5{fill:url(#linear-gradient-4);}.cls-6{fill:url(#linear-gradient-5);}.cls-7{fill:url(#linear-gradient-6);}.cls-8{fill:url(#linear-gradient-7);}.cls-9{fill:url(#linear-gradient-8);}.cls-10{fill:url(#linear-gradient-9);}.cls-11{fill:url(#linear-gradient-60);}.cls-12{opacity:0.49;mix-blend-mode:color-burn;fill:url(#linear-gradient-61);}.cls-13{fill:url(#linear-gradient-62);}.cls-14{fill:url(#linear-gradient-63);}.cls-15{fill:url(#linear-gradient-64);}.cls-16{fill:url(#linear-gradient-65);}.cls-17{fill:url(#linear-gradient-66);}.cls-18{fill:url(#linear-gradient-67);}.cls-19{fill:url(#linear-gradient-68);}.cls-20{fill:#f9aa8f;}.cls-21{fill:#30426a;}.cls-22{fill:url(#linear-gradient-69);}.cls-23{fill:url(#linear-gradient-70);}.cls-24{fill:url(#linear-gradient-71);}.cls-25{fill:#e5e5e2;}.cls-26{fill:url(#linear-gradient-72);}.cls-27{fill:#253453;}.cls-28{fill:url(#linear-gradient-73);}.cls-29{fill:url(#linear-gradient-74);}.cls-30{fill:#744239;}.cls-31{fill:url(#linear-gradient-75);}.cls-32{fill:url(#linear-gradient-76);}.cls-33{fill:url(#linear-gradient-77);}.cls-34{fill:#3e5784;}.cls-35{fill:url(#linear-gradient-78);}.cls-36{fill:url(#linear-gradient-79);}.cls-37{fill:url(#linear-gradient-80);}.cls-38{fill:url(#linear-gradient-81);}.cls-39{fill:url(#linear-gradient-82);}.cls-40{fill:url(#linear-gradient-83);}.cls-41{fill:url(#linear-gradient-84);}.cls-42{fill:url(#linear-gradient-85);}.cls-43{fill:url(#linear-gradient-86);}.cls-44{fill:url(#linear-gradient-87);}.cls-45{fill:url(#linear-gradient-88);}.cls-46{fill:url(#linear-gradient-89);}</style><linearGradient id="linear-gradient" x1="32" y1="61.83" x2="32" y2="-43.55" gradientUnits="userSpaceOnUse"><stop offset="0" stop-color="#caf1d8"/><stop offset="0.51" stop-color="#7defa4"/><stop offset="1" stop-color="#2fbca4"/></linearGradient><linearGradient id="linear-gradient-2" x1="32.6" y1="59.78" x2="32.6" y2="8.76" xlink:href="#linear-gradient"/><linearGradient id="linear-gradient-3" x1="407.26" y1="35.09" x2="407.26" y2="-43.58" gradientTransform="translate(-376.22)" xlink:href="#linear-gradient"/><linearGradient id="linear-gradient-4" x1="423.13" y1="35.09" x2="423.13" y2="-43.58" gradientTransform="translate(-376.22)" xlink:href="#linear-gradient"/><linearGradient id="linear-gradient-5" x1="399.41" y1="48.78" x2="399.41" y2="-0.28" gradientTransform="translate(-376.22)" xlink:href="#linear-gradient"/><linearGradient id="linear-gradient-6" x1="401.46" y1="48.78" x2="401.46" y2="-0.28" gradientTransform="translate(-376.22)" xlink:href="#linear-gradient"/><linearGradient id="linear-gradient-7" x1="403.51" y1="48.78" x2="403.51" y2="-0.28" gradientTransform="translate(-376.22)" xlink:href="#linear-gradient"/><linearGradient id="linear-gradient-8" x1="405.56" y1="48.78" x2="405.56" y2="-0.28" gradientTransform="translate(-376.22)" xlink:href="#linear-gradient"/><linearGradient id="linear-gradient-9" x1="407.62" y1="48.78" x2="407.62" y2="-0.28" gradientTransform="translate(-376.22)" xlink:href="#linear-gradient"/><linearGradient id="linear-gradient-60" x1="420.57" y1="44.87" x2="420.57" y2="14.91" gradientTransform="translate(-376.22)" xlink:href="#linear-gradient"/><linearGradient id="linear-gradient-61" x1="387.51" y1="25.69" x2="387.51" y2="25.13" gradientTransform="translate(-376.22)" xlink:href="#linear-gradient"/><linearGradient id="linear-gradient-62" x1="19.59" y1="44.15" x2="19.59" y2="12.12" xlink:href="#linear-gradient"/><linearGradient id="linear-gradient-63" x1="385.43" y1="48.52" x2="385.43" y2="32.59" gradientTransform="translate(-376.22)" gradientUnits="userSpaceOnUse"><stop offset="0" stop-color="#7ff1a4"/><stop offset="0.52" stop-color="#2fbca4"/><stop offset="1" stop-color="#2f7da4"/></linearGradient><linearGradient id="linear-gradient-64" x1="-13807.9" y1="47.62" x2="-13807.9" y2="34.89" gradientTransform="matrix(-1, 0, 0, 1, -13798.87, 0)" gradientUnits="userSpaceOnUse"><stop offset="0" stop-color="#fff"/><stop offset="0.84" stop-color="#cddfec"/></linearGradient><linearGradient id="linear-gradient-65" x1="16495.73" y1="47.42" x2="16495.73" y2="36.52" gradientTransform="translate(-16481.43)" xlink:href="#linear-gradient-63"/><linearGradient id="linear-gradient-66" x1="16495.84" y1="47.28" x2="16495.84" y2="39.7" gradientTransform="translate(-16481.43)" xlink:href="#linear-gradient-64"/><linearGradient id="linear-gradient-67" x1="32.32" y1="78.25" x2="32.32" y2="12.31" gradientTransform="matrix(1, 0, 0, 1, 0, 0)" xlink:href="#linear-gradient-63"/><linearGradient id="linear-gradient-68" x1="33.26" y1="-6.54" x2="29.26" y2="-26.2" gradientTransform="matrix(1, 0, 0, 1, 0, 0)" xlink:href="#linear-gradient-64"/><linearGradient id="linear-gradient-69" x1="22.1" y1="30.48" x2="40.99" y2="31.9" gradientUnits="userSpaceOnUse"><stop offset="0" stop-color="#f9aa8f"/><stop offset="1" stop-color="#f78e6b"/></linearGradient><linearGradient id="linear-gradient-70" x1="34.91" y1="20.03" x2="41.92" y2="34.24" gradientUnits="userSpaceOnUse"><stop offset="0" stop-color="#30426a"/><stop offset="1" stop-color="#283759"/></linearGradient><linearGradient id="linear-gradient-71" x1="43.18" y1="55.19" x2="44.94" y2="47.5" gradientUnits="userSpaceOnUse"><stop offset="0" stop-color="#c6c5c5"/><stop offset="1" stop-color="#e5e5e2"/></linearGradient><linearGradient id="linear-gradient-72" x1="45.95" y1="45.36" x2="46.56" y2="42.72" xlink:href="#linear-gradient-71"/><linearGradient id="linear-gradient-73" x1="40.5" y1="30.13" x2="73.86" y2="45.06" xlink:href="#linear-gradient-70"/><linearGradient id="linear-gradient-74" x1="52.86" y1="1.47" x2="29.56" y2="30.68" xlink:href="#linear-gradient-69"/><linearGradient id="linear-gradient-75" x1="45.53" y1="9.77" x2="42.34" y2="13.76" xlink:href="#linear-gradient-69"/><linearGradient id="linear-gradient-76" x1="40.53" y1="9.76" x2="47.82" y2="9.76" gradientUnits="userSpaceOnUse"><stop offset="0" stop-color="#744239"/><stop offset="1" stop-color="#59342d"/></linearGradient><linearGradient id="linear-gradient-77" x1="40.9" y1="24.47" x2="46.25" y2="25.86" xlink:href="#linear-gradient-70"/><linearGradient id="linear-gradient-78" x1="45.31" y1="21.74" x2="45.9" y2="18.19" xlink:href="#linear-gradient-70"/><linearGradient id="linear-gradient-79" x1="40.78" y1="21.47" x2="40.61" y2="20.12" xlink:href="#linear-gradient-70"/><linearGradient id="linear-gradient-80" x1="58.35" y1="36.53" x2="49.74" y2="25.14" xlink:href="#linear-gradient-69"/><linearGradient id="linear-gradient-81" x1="48.63" y1="28.82" x2="59.82" y2="11.06" xlink:href="#linear-gradient-70"/><linearGradient id="linear-gradient-82" x1="-654.05" y1="15.14" x2="-654.05" y2="3.59" gradientTransform="matrix(-1, 0, 0, 1, -639.09, 0)" xlink:href="#linear-gradient"/><linearGradient id="linear-gradient-83" x1="-650.23" y1="12.58" x2="-650.23" y2="-1.44" gradientTransform="matrix(-1, 0, 0, 1, -639.09, 0)" xlink:href="#linear-gradient"/><linearGradient id="linear-gradient-84" x1="-120.49" y1="11.56" x2="-120.49" y2="5.87" gradientTransform="translate(147.51)" xlink:href="#linear-gradient"/><linearGradient id="linear-gradient-85" x1="-118.6" y1="10.3" x2="-118.6" y2="3.39" gradientTransform="translate(147.51)" xlink:href="#linear-gradient"/><linearGradient id="linear-gradient-86" x1="16.76" y1="43" x2="16.76" y2="48.09" gradientTransform="matrix(1, 0, 0, 1, 0, 0)" xlink:href="#linear-gradient-64"/><linearGradient id="linear-gradient-87" x1="25.02" y1="38.71" x2="14.52" y2="38.3" gradientUnits="userSpaceOnUse"><stop offset="0" stop-color="#fba680"/><stop offset="0.52" stop-color="#ef5048"/><stop offset="1" stop-color="#971434"/></linearGradient><linearGradient id="linear-gradient-88" x1="30.04" y1="45.44" x2="11.6" y2="35.01" xlink:href="#linear-gradient-87"/><linearGradient id="linear-gradient-89" x1="16.76" y1="51.41" x2="16.76" y2="49.33" gradientTransform="matrix(1, 0, 0, 1, 0, 0)" xlink:href="#linear-gradient-63"/></defs><title>golf</title><g class="cls-1"><g id="Layer_1" data-name="Layer 1"><path class="cls-2" d="M4,32A27.87,27.87,0,0,0,7.37,45.33H56.63A28,28,0,1,0,4,32Z"/><path class="cls-3" d="M60,32a28,28,0,0,0-1.41-8.77H56.88a5.38,5.38,0,0,0-5.38,5.38v3.21H45.65a1.07,1.07,0,0,0-1.07,1.07v5.19H37.21v-2a1,1,0,0,0-1-1h-2.1V15.87a.93.93,0,0,0-.93-.93H21.08a.93.93,0,0,0-.93.93V42H10.47V40.1H5.2A27.91,27.91,0,0,0,10,49.35H54A27.87,27.87,0,0,0,60,32Z"/><path class="cls-4" d="M28.25,19.85s3.78,1.26,5.58.93a5.71,5.71,0,0,1-1.5-.73,1.93,1.93,0,0,0-1.79-.37c-.41.25-.57-.36-1-.13A4.58,4.58,0,0,1,28.25,19.85Z"/><path class="cls-5" d="M48.92,9.43s-2.9-.23-4-1a4.18,4.18,0,0,0,1.22-.07,1.41,1.41,0,0,1,1.31.26c.2.29.48-.08.73.2A3.35,3.35,0,0,0,48.92,9.43Z"/><rect class="cls-6" x="22.6" y="17.46" width="1.18" height="1.18" rx="0.09" ry="0.09"/><rect class="cls-7" x="24.65" y="17.46" width="1.18" height="1.18" rx="0.09" ry="0.09"/><rect class="cls-8" x="26.7" y="17.46" width="1.18" height="1.18" rx="0.09" ry="0.09"/><rect class="cls-9" x="28.75" y="17.46" width="1.18" height="1.18" rx="0.09" ry="0.09"/><rect class="cls-10" x="30.81" y="17.46" width="1.18" height="1.18" rx="0.09" ry="0.09"/><rect class="cls-6" x="22.6" y="19.63" width="1.18" height="1.18" rx="0.09" ry="0.09"/><rect class="cls-7" x="24.65" y="19.63" width="1.18" height="1.18" rx="0.09" ry="0.09"/><rect class="cls-8" x="26.7" y="19.63" width="1.18" height="1.18" rx="0.09" ry="0.09"/><rect class="cls-9" x="28.75" y="19.63" width="1.18" height="1.18" rx="0.09" ry="0.09"/><rect class="cls-10" x="30.81" y="19.63" width="1.18" height="1.18" rx="0.09" ry="0.09"/><rect class="cls-6" x="22.6" y="21.79" width="1.18" height="1.18" rx="0.09" ry="0.09"/><rect class="cls-7" x="24.65" y="21.79" width="1.18" height="1.18" rx="0.09" ry="0.09"/><rect class="cls-8" x="26.7" y="21.79" width="1.18" height="1.18" rx="0.09" ry="0.09"/><rect class="cls-9" x="28.75" y="21.79" width="1.18" height="1.18" rx="0.09" ry="0.09"/><rect class="cls-10" x="30.81" y="21.79" width="1.18" height="1.18" rx="0.09" ry="0.09"/><rect class="cls-6" x="22.6" y="23.95" width="1.18" height="1.18" rx="0.09" ry="0.09"/><rect class="cls-7" x="24.65" y="23.95" width="1.18" height="1.18" rx="0.09" ry="0.09"/><rect class="cls-8" x="26.7" y="23.95" width="1.18" height="1.18" rx="0.09" ry="0.09"/><rect class="cls-9" x="28.75" y="23.95" width="1.18" height="1.18" rx="0.09" ry="0.09"/><rect class="cls-10" x="30.81" y="23.95" width="1.18" height="1.18" rx="0.09" ry="0.09"/><rect class="cls-6" x="22.6" y="26.11" width="1.18" height="1.18" rx="0.09" ry="0.09"/><rect class="cls-7" x="24.65" y="26.11" width="1.18" height="1.18" rx="0.09" ry="0.09"/><rect class="cls-8" x="26.7" y="26.11" width="1.18" height="1.18" rx="0.09" ry="0.09"/><rect class="cls-9" x="28.75" y="26.11" width="1.18" height="1.18" rx="0.09" ry="0.09"/><rect class="cls-10" x="30.81" y="26.11" width="1.18" height="1.18" rx="0.09" ry="0.09"/><rect class="cls-6" x="22.6" y="28.27" width="1.18" height="1.18" rx="0.09" ry="0.09"/><rect class="cls-7" x="24.65" y="28.27" width="1.18" height="1.18" rx="0.09" ry="0.09"/><rect class="cls-8" x="26.7" y="28.27" width="1.18" height="1.18" rx="0.09" ry="0.09"/><rect class="cls-9" x="28.75" y="28.27" width="1.18" height="1.18" rx="0.09" ry="0.09"/><rect class="cls-10" x="30.81" y="28.27" width="1.18" height="1.18" rx="0.09" ry="0.09"/><rect class="cls-6" x="22.6" y="30.43" width="1.18" height="1.18" rx="0.09" ry="0.09"/><rect class="cls-7" x="24.65" y="30.43" width="1.18" height="1.18" rx="0.09" ry="0.09"/><rect class="cls-8" x="26.7" y="30.43" width="1.18" height="1.18" rx="0.09" ry="0.09"/><rect class="cls-9" x="28.75" y="30.43" width="1.18" height="1.18" rx="0.09" ry="0.09"/><rect class="cls-10" x="30.81" y="30.43" width="1.18" height="1.18" rx="0.09" ry="0.09"/><rect class="cls-6" x="22.6" y="32.59" width="1.18" height="1.18" rx="0.09" ry="0.09"/><rect class="cls-7" x="24.65" y="32.59" width="1.18" height="1.18" rx="0.09" ry="0.09"/><rect class="cls-8" x="26.7" y="32.59" width="1.18" height="1.18" rx="0.09" ry="0.09"/><rect class="cls-9" x="28.75" y="32.59" width="1.18" height="1.18" rx="0.09" ry="0.09"/><rect class="cls-10" x="30.81" y="32.59" width="1.18" height="1.18" rx="0.09" ry="0.09"/><rect class="cls-6" x="22.6" y="34.75" width="1.18" height="1.18" rx="0.09" ry="0.09"/><rect class="cls-7" x="24.65" y="34.75" width="1.18" height="1.18" rx="0.09" ry="0.09"/><rect class="cls-8" x="26.7" y="34.75" width="1.18" height="1.18" rx="0.09" ry="0.09"/><rect class="cls-9" x="28.75" y="34.75" width="1.18" height="1.18" rx="0.09" ry="0.09"/><rect class="cls-10" x="30.81" y="34.75" width="1.18" height="1.18" rx="0.09" ry="0.09"/><rect class="cls-6" x="22.6" y="36.92" width="1.18" height="1.18" rx="0.09" ry="0.09"/><rect class="cls-7" x="24.65" y="36.92" width="1.18" height="1.18" rx="0.09" ry="0.09"/><rect class="cls-8" x="26.7" y="36.92" width="1.18" height="1.18" rx="0.09" ry="0.09"/><rect class="cls-9" x="28.75" y="36.92" width="1.18" height="1.18" rx="0.09" ry="0.09"/><rect class="cls-10" x="30.81" y="36.92" width="1.18" height="1.18" rx="0.09" ry="0.09"/><rect class="cls-6" x="22.6" y="39.08" width="1.18" height="1.18" rx="0.09" ry="0.09"/><rect class="cls-7" x="24.65" y="39.08" width="1.18" height="1.18" rx="0.09" ry="0.09"/><rect class="cls-8" x="26.7" y="39.08" width="1.18" height="1.18" rx="0.09" ry="0.09"/><rect class="cls-9" x="28.75" y="39.08" width="1.18" height="1.18" rx="0.09" ry="0.09"/><rect class="cls-10" x="30.81" y="39.08" width="1.18" height="1.18" rx="0.09" ry="0.09"/><path class="cls-11" d="M45.65,31.81a1.07,1.07,0,0,0-1.07,1.07v5.19H37.21v.27a4.69,4.69,0,0,0,4.69,4.77h3.18v-2H51.5V31.81Z"/><path class="cls-12" d="M11,25.39c-.07,0,.05.12.19.21h0l.11,0a.39.39,0,0,0,.2-.12A1.58,1.58,0,0,0,11,25.39Z"/><path class="cls-13" d="M34.48,38.63H18v-7H15.84V27a3,3,0,0,0-6,0v7.2H4.09A27.83,27.83,0,0,0,7.37,45.33H35.1Z"/><path class="cls-14" d="M6.18,40.33a1.69,1.69,0,0,1,1.23-1.63.71.71,0,0,0,.48-.48,1.69,1.69,0,0,1,3.3.32,1.71,1.71,0,0,1,0,.38.68.68,0,0,0,.3.65,1.69,1.69,0,0,1,.25,2.62,1.1,1.1,0,0,0-.25.35,1.2,1.2,0,0,1-1.11.74h-.16a1.21,1.21,0,0,0-.79.15A1.69,1.69,0,0,1,6.87,42v0a.59.59,0,0,0-.18-.43A1.69,1.69,0,0,1,6.18,40.33Z"/><path class="cls-15" d="M7.92,41.36l0,.16a.53.53,0,0,0,.2.26l.15.08.26.12,0,0,0-.16-.09-.33.1.32,0,.16,0,.07h0a0,0,0,0,1,0,0h0l0,0a.53.53,0,0,0,.12.11l.15.08.27.13,0-1.53,0,2,.15-.08a.58.58,0,0,0,.17-.12.52.52,0,0,0,.11-.17s0-.06,0-.1a.22.22,0,0,1,.07-.09.23.23,0,0,1,.1,0l.1,0a.24.24,0,0,0,.14-.14c0-.14.07-.28.1-.41,0,.14-.06.28-.09.42a.25.25,0,0,1-.15.15l-.1,0-.09,0a.19.19,0,0,0-.06.08s0,.07,0,.1a.55.55,0,0,1-.11.19.61.61,0,0,1-.18.13l-.17.09.06,4h0a.09.09,0,0,1-.18,0l.06-4.47-.29-.15-.15-.08a.55.55,0,0,1-.12-.12l0,0h0l-.3-.16-.15-.08a.56.56,0,0,1-.2-.27l0-.16L7.82,41Z"/><path class="cls-16" d="M16.1,42.94a1,1,0,0,0-.73-1,.42.42,0,0,1-.29-.29,1,1,0,0,0-2,.19,1,1,0,0,0,0,.23.4.4,0,0,1-.18.39,1,1,0,0,0-.15,1.56.65.65,0,0,1,.15.21.72.72,0,0,0,.66.44h.09a.72.72,0,0,1,.47.09,1,1,0,0,0,1.53-.86h0a.35.35,0,0,1,.11-.26A1,1,0,0,0,16.1,42.94Z"/><path class="cls-17" d="M15.06,43.55l0,.1a.32.32,0,0,1,0,.09l-.07.07-.09,0-.15.07v0l0-.1.05-.19-.06.19,0,.1,0,0h0a0,0,0,0,0,0,0h0v0l-.07.07-.09,0-.16.08v-.91l0,1.19-.09,0a.34.34,0,0,1-.1-.07.31.31,0,0,1-.07-.1l0-.06,0-.05-.06,0-.06,0a.14.14,0,0,1-.08-.09l-.06-.25.06.25a.15.15,0,0,0,.09.09l.06,0,.05,0,0,0,0,.06a.33.33,0,0,0,.07.11.37.37,0,0,0,.1.08l.1.05,0,2.38h0a.05.05,0,1,0,.1,0l0-2.66.17-.09.09-.05.07-.07v0h0l.18-.09.09-.05.07-.07a.33.33,0,0,0,0-.09l0-.1.05-.19Z"/><path class="cls-18" d="M56.48,45.59a152.93,152.93,0,0,0-20.86-1.38A144,144,0,0,0,8.16,46.69a28,28,0,0,0,48.32-1.1Z"/><path class="cls-19" d="M53.56,12.48a1.34,1.34,0,0,0-1.41-.25h0L22,24.76a.78.78,0,0,0-.44,1h0a.78.78,0,0,0,1,.46L50.3,14.7a.92.92,0,0,1,1.25.65c.66,2.94,2.36,4.5,4.11,2.73S54.83,13.64,53.56,12.48Z"/><path id="_Path_" data-name="&lt;Path&gt;" class="cls-20" d="M23.29,27.13s-1.17-3.28,2.45-5.62a.63.63,0,0,1,.93.32l1.06,3-3.13,2Z"/><path id="_Path_2" data-name="&lt;Path&gt;" class="cls-20" d="M25.18,26.36s3.79-1,3.2-2.69l-3.63,1.5Z"/><path id="_Path_3" data-name="&lt;Path&gt;" class="cls-21" d="M27.73,24.08l-5.17,2.13a.78.78,0,0,1-1-.46h0a.78.78,0,0,1,.44-1l5.17-2.13a.78.78,0,0,1,1,.46h0A.78.78,0,0,1,27.73,24.08Z"/><path id="_Path_4" data-name="&lt;Path&gt;" class="cls-20" d="M23.9,24h0a.44.44,0,0,0,.52.15l2.46-1a.42.42,0,0,0,.22-.56l-.38-.8a.46.46,0,0,0-.76-.11Z"/><path id="_Path_5" data-name="&lt;Path&gt;" class="cls-20" d="M27.1,24.53s-.06-1.4.61-1.68c0,0,.3-.19.71.95Z"/><path id="_Path_6" data-name="&lt;Path&gt;" class="cls-20" d="M23.29,27.13s3.89,17.4,11.84,2.23l-3.61-3.28L29.25,29.8a1,1,0,0,1-1.79.1l-2.28-3.54Z"/><path class="cls-22" d="M34.88,29.83l-3.67-3.24-.48.79h0s3,3.36,1.14,4a3.7,3.7,0,0,1-4.09-1.21,1,1,0,0,1-.25-.23c.76,1.3,1.68,3.3.9,4.38-.6.83-1.31.49-1.88-.06C28.46,36.38,31.23,36.54,34.88,29.83Z"/><path id="_Path_7" data-name="&lt;Path&gt;" class="cls-21" d="M35.71,32.34l-4.77-5.51a.77.77,0,0,1,0-1c1.44-1.78,6.57-7.71,11.7-8.39l-5.44,11.9Z"/><path class="cls-23" d="M37.19,29.36l4.64-10.14L41,17.84a14.26,14.26,0,0,0-3.36,1.68C35.78,21,33.7,23,33.49,25c-.39,3.82-2.55,1.82-2.55,1.82l4.77,5.51Z"/><path class="cls-24" d="M39.59,42.45a35.78,35.78,0,0,0-.45,5.66s.34,4.51.49,10.83a27.92,27.92,0,0,0,10.47-5.59A80.13,80.13,0,0,0,51,41C48.08,42.76,42.65,42.49,39.59,42.45Z"/><path class="cls-25" d="M43.77,54c-.85-5.21-1.39-9.45-.93-13.5-.89.07-2.43,1.61-3.25,1.6-3.29,0-5.62-1.86-5.77-3.22,0,0-.27,2.14-.27,2.14a52.7,52.7,0,0,0,3.27,18.53,27.79,27.79,0,0,0,7.6-2.48C44.16,56.09,43.94,55.07,43.77,54Z"/><path class="cls-26" d="M51,41c-1.67,1-4.18,1.31-6.6,1.41L41,44.36s6.12,4.32,9.62,2.6l.18-.1C50.94,44.83,51,42.87,51,41Z"/><path id="_Path_8" data-name="&lt;Path&gt;" class="cls-27" d="M50.3,28.63l-3.92,5-2.44-2.39V21.15a66.72,66.72,0,0,1,5,6s.19,0,.18,0,.3.29.41.43c.26.36.49.64.61.81A1.83,1.83,0,0,0,50.3,28.63Z"/><path class="cls-21" d="M38.74,18.92S32,30.35,33.61,43.78c0,0,1.57-2.83,7.38.58a13.45,13.45,0,0,0,2.12,1A5.85,5.85,0,0,0,51,40c.11-5.86.12-19.06-2-21.06C46.29,16.36,42.48,16.58,38.74,18.92Z"/><path class="cls-20" d="M40.26,6.51S39.88,8,39.6,9.79a4.72,4.72,0,0,1-.4,1.28l-.29.6a.55.55,0,0,0,.05.57l.12.13a.55.55,0,0,1,.21.42,3.86,3.86,0,0,0,.53,2.48,3.65,3.65,0,0,0,1.91.7l-.62,3.1a2.74,2.74,0,0,0,2.69,3.28h0a2.74,2.74,0,0,0,2.74-2.74V6.51Z"/><path class="cls-21" d="M43.59,22.36,41.74,16l-.14,0a1,1,0,0,0-1.1.55l-.87,1.9,1,4.44,3.15.85Z"/><path class="cls-28" d="M51,40c.1-5.16.11-16-1.31-19.89l-2.55-.31-3.53,2.55a12.18,12.18,0,0,0,3,11.68c3.27,3.63,1.64,13.55-6.48,9.81h0c.29.15.6.32.92.5a13.45,13.45,0,0,0,2.12,1A5.85,5.85,0,0,0,51,40Z"/><path class="cls-29" d="M43.28,6.51h-3s-.25,1-.5,2.3l.09,0a4.94,4.94,0,0,1-.77,2.85c-.25.27-.17.11-.22.16a.54.54,0,0,0,.1.4l.12.13a.55.55,0,0,1,.21.42h0s.3-3.29,1.6-3.22,2.06,6,1.19,6.22A2.67,2.67,0,0,1,40,15.42a4.45,4.45,0,0,0,1.76.57h0s2.58,0,2.48,1.27-1.31,1.67-.94,2.66a8.63,8.63,0,0,1,.31,2.44h.23a2.74,2.74,0,0,0,.46,0l2.22-2.13a2.74,2.74,0,0,0,.06-.58V7.89Z"/><path class="cls-21" d="M45.89,22.88h0Z"/><path class="cls-30" d="M38.77,5.86a2.43,2.43,0,0,0,2,2.81,2.5,2.5,0,0,1,2.17,2.43.28.28,0,0,0,.28.27h0a.28.28,0,0,0,.28-.25c0-.4.24-1.12,1.09-1,1,.2.53,1.91,0,2.3a.27.27,0,0,0-.06.36,1.68,1.68,0,0,0,2,.81s.68-4.14,1.25-5.94C48.18,6.51,39.94,1.25,38.77,5.86Z"/><path class="cls-31" d="M43.94,11.06s.11-.57.61-.47,0,1.66-.52,1.7-.41-.61-.26-.6.49-.17.43-.4A.28.28,0,0,0,43.94,11.06Z"/><path class="cls-32" d="M47.28,6.76c1.45,1.63-2.4-.49-1.84.47s-1.1,1.78-1.24,0S42,5.8,42,5.8a1.38,1.38,0,0,1,.67,2.37,2.65,2.65,0,0,1-2.18.45l.23.05a2.5,2.5,0,0,1,2.17,2.43.28.28,0,0,0,.56,0c0-.4.24-1.12,1.09-1,1,.2.53,1.91,0,2.3a.27.27,0,0,0-.06.36,1.68,1.68,0,0,0,2,.81s.68-4.14,1.25-5.94C47.87,7.48,47.66,7.15,47.28,6.76Z"/><path class="cls-21" d="M47.77,16.22a.86.86,0,0,0-1.21-.43l-3.07,6.78,2.39.31c0-.15,2.93-4.12,2.93-4.12Z"/><path class="cls-33" d="M43.59,22.36,42.9,20l-2,5.66a.46.46,0,0,0,0,.4l1,1.57a1,1,0,0,1,.16.68L42,29.74l.83-1.53a1,1,0,0,0,0-.9l-.38-.86a1.5,1.5,0,0,1,0-1.17Z"/><circle class="cls-34" cx="43.72" cy="25.72" r="0.36"/><path class="cls-35" d="M43.49,22.71l2.16-2.85a.49.49,0,0,1,.87.18L47,21.88"/><path class="cls-36" d="M42.24,21.39l-1-1.31a.42.42,0,0,0-.66,0l-1.25,1.51"/><path class="cls-20" d="M59.86,36.48c0-4.74-10-16.06-10-16.06L49,29.71l4.7,5A4,4,0,0,1,54,39.9L50.29,45a.88.88,0,0,1-.71.36h-1a.55.55,0,0,0-.37.15l-.7.64a.22.22,0,0,0,.14.39,1.27,1.27,0,0,0,.87-.23s.17,1.68,2.44.54h0C56.14,42.35,59.86,39.93,59.86,36.48Z"/><path class="cls-37" d="M50,30.83l.81.87L52.06,33s3.64-4.6,7.13.83c-1.39-3.35-4.67-7.73-6.93-10.55l-.87-.38Z"/><path id="_Path_9" data-name="&lt;Path&gt;" class="cls-21" d="M51.2,32l4-4.34a.9.9,0,0,0,.08-1.13A50.81,50.81,0,0,0,49,18.95c-1.15-1-1.91,2.39-2.35,5.51a7.86,7.86,0,0,0,2.88,7.22l.51.41A.85.85,0,0,0,51.2,32Z"/><path class="cls-38" d="M51.4,31.78l3.77-4.12a.9.9,0,0,0,.08-1.13A51,51,0,0,0,49,19a6.23,6.23,0,0,1,.47,5.45C48.23,28,51.4,31.78,51.4,31.78Z"/><path class="cls-39" d="M19,13.22a3.07,3.07,0,0,1-3.1,3H10.94a22.87,22.87,0,0,0,1.94-3,3,3,0,1,1,6.1,0Z"/><path class="cls-40" d="M8.15,11.35A4.11,4.11,0,0,1,12.23,8a4.28,4.28,0,0,1,4,4,4.1,4.1,0,0,1-4.1,4.16h-4a2.13,2.13,0,0,1-2.1-1.55,2.11,2.11,0,0,1,1.34-2.43A1.19,1.19,0,0,0,8.15,11.35Z"/><path class="cls-41" d="M25,10.61a1.51,1.51,0,0,0,1.53,1.49H29a11.27,11.27,0,0,1-1-1.49,1.5,1.5,0,1,0-3,0Z"/><path class="cls-42" d="M30.38,9.69a2,2,0,0,0-2-1.63,2.11,2.11,0,0,0-2,2,2,2,0,0,0,2,2.05h2a1.05,1.05,0,0,0,1-.76,1,1,0,0,0-.66-1.2A.59.59,0,0,1,30.38,9.69Z"/><path class="cls-43" d="M17.32,36.7a.56.56,0,1,0-.93.42.48.48,0,0,1,.16.36v11H17v-11a.49.49,0,0,1,.17-.37A.56.56,0,0,0,17.32,36.7Z"/><path class="cls-44" d="M19.72,37.71c-1-1.35-2.76-.41-2.76-.41v2.55a2.58,2.58,0,0,1,2.6-.47,1.56,1.56,0,0,0,1.4-.12.46.46,0,0,0-.17-.85A1.71,1.71,0,0,1,19.72,37.71Z"/><path class="cls-45" d="M19.66,39.43h0l.07,0h.8l.06,0h0l.08,0h0l.07,0h0l.05,0,0,0,0,0a.43.43,0,0,0,.22-.41c-.21.1-.4.11-.44-.11a1.14,1.14,0,0,0-.19-.4H20.5l-.09,0h0l-.11-.06,0,0-.08-.05,0,0L20,38l0,0-.07-.07,0,0h0a1.15,1.15,0,0,1,.09.69c-.13.48-.22,0-.22,0-.21-.54-1.11,0-1.27-.86S17,37.31,17,37.31v2.55a2.69,2.69,0,0,1,1-.55l.1,0a2.42,2.42,0,0,1,1.47.11Z"/><ellipse class="cls-46" cx="16.76" cy="48.86" rx="1.71" ry="0.49"/></g></g></svg>