<svg id="Layer_1" data-name="Layer 1" xmlns="http://www.w3.org/2000/svg" xmlns:xlink="http://www.w3.org/1999/xlink" viewBox="0 0 64 64"><defs><style>.cls-1{fill:url(#linear-gradient);}.cls-2{fill:url(#linear-gradient-2);}.cls-3{fill:url(#linear-gradient-3);}.cls-4{fill:url(#linear-gradient-4);}.cls-5{fill:url(#linear-gradient-5);}.cls-6{fill:url(#linear-gradient-6);}.cls-7{fill:url(#linear-gradient-7);}.cls-8{fill:url(#linear-gradient-8);}.cls-9{fill:url(#linear-gradient-9);}.cls-10{fill:url(#linear-gradient-10);}.cls-11{fill:url(#linear-gradient-11);}.cls-12{fill:url(#linear-gradient-12);}.cls-13{fill:url(#linear-gradient-13);}.cls-14{fill:url(#linear-gradient-14);}.cls-15{fill:url(#linear-gradient-15);}.cls-16{fill:url(#linear-gradient-16);}.cls-17{fill:url(#linear-gradient-17);}.cls-18{fill:url(#linear-gradient-18);}.cls-19{fill:url(#linear-gradient-19);}.cls-20{fill:url(#linear-gradient-20);}.cls-21{fill:url(#linear-gradient-21);}.cls-22{fill:url(#linear-gradient-22);}.cls-23{fill:url(#linear-gradient-23);}.cls-24{fill:url(#linear-gradient-24);}.cls-25{fill:url(#linear-gradient-25);}.cls-26{fill:url(#linear-gradient-26);}.cls-27{fill:url(#linear-gradient-27);}.cls-28{fill:#ff9040;}.cls-29{fill:url(#linear-gradient-28);}.cls-30{fill:url(#linear-gradient-29);}</style><linearGradient id="linear-gradient" x1="32.14" y1="97.25" x2="32.14" y2="9.14" gradientUnits="userSpaceOnUse"><stop offset="0" stop-color="#ffd654"/><stop offset="0.3" stop-color="#ffa646"/><stop offset="0.48" stop-color="#ff9040"/><stop offset="1" stop-color="#bb442e"/></linearGradient><linearGradient id="linear-gradient-2" x1="32.11" y1="50.67" x2="32.11" y2="10.5" gradientUnits="userSpaceOnUse"><stop offset="0.02" stop-color="#edd7ad"/><stop offset="0.52" stop-color="#ff9661"/><stop offset="1" stop-color="#e74a69"/></linearGradient><linearGradient id="linear-gradient-3" x1="-13619.3" y1="-28.69" x2="-13619.3" y2="-58.94" gradientTransform="matrix(-0.82, 0.57, 0.57, 0.82, -11201.47, 7760.83)" xlink:href="#linear-gradient-2"/><linearGradient id="linear-gradient-4" x1="-13620.56" y1="-28.69" x2="-13620.56" y2="-58.94" gradientTransform="matrix(-0.82, 0.57, 0.57, 0.82, -11201.47, 7760.83)" xlink:href="#linear-gradient-2"/><linearGradient id="linear-gradient-5" x1="22304.16" y1="-28.69" x2="22304.16" y2="-58.94" gradientTransform="translate(-18358.22 12667.42) rotate(-34.43)" xlink:href="#linear-gradient-2"/><linearGradient id="linear-gradient-6" x1="22305.31" y1="-28.69" x2="22305.31" y2="-58.94" gradientTransform="translate(-18358.22 12667.42) rotate(-34.43)" gradientUnits="userSpaceOnUse"><stop offset="0" stop-color="#fff"/><stop offset="0.84" stop-color="#cddfec"/></linearGradient><linearGradient id="linear-gradient-7" x1="60.33" y1="41.59" x2="41.08" y2="16.79" gradientUnits="userSpaceOnUse"><stop offset="0" stop-color="#fbc19e"/><stop offset="0.48" stop-color="#ffb699"/><stop offset="1" stop-color="#f47e6d"/></linearGradient><linearGradient id="linear-gradient-8" x1="51.73" y1="14.24" x2="44.52" y2="22.26" xlink:href="#linear-gradient"/><linearGradient id="linear-gradient-9" x1="37.55" y1="55.83" x2="36.91" y2="16.75" gradientUnits="userSpaceOnUse"><stop offset="0.02" stop-color="#98372a"/><stop offset="0.34" stop-color="#6a2922"/><stop offset="0.79" stop-color="#301818"/><stop offset="1" stop-color="#1a1114"/></linearGradient><linearGradient id="linear-gradient-10" x1="38.74" y1="59.6" x2="35.68" y2="24.38" xlink:href="#linear-gradient-9"/><linearGradient id="linear-gradient-11" x1="48.58" y1="20.47" x2="23.33" y2="-4.42" xlink:href="#linear-gradient-7"/><linearGradient id="linear-gradient-12" x1="41.13" y1="17.64" x2="41.35" y2="17.64" xlink:href="#linear-gradient-7"/><linearGradient id="linear-gradient-13" x1="47.16" y1="22.03" x2="37.21" y2="7.5" xlink:href="#linear-gradient-7"/><linearGradient id="linear-gradient-14" x1="46.05" y1="1.41" x2="24.49" y2="16.6" xlink:href="#linear-gradient-9"/><linearGradient id="linear-gradient-15" x1="31.24" y1="31.58" x2="26.06" y2="2.83" xlink:href="#linear-gradient-9"/><linearGradient id="linear-gradient-16" x1="36.77" y1="72.77" x2="36.77" y2="-9.19" xlink:href="#linear-gradient"/><linearGradient id="linear-gradient-17" x1="62.64" y1="51.22" x2="-0.03" y2="23.88" gradientUnits="userSpaceOnUse"><stop offset="0" stop-color="#ffd654"/><stop offset="0.15" stop-color="#ffa646"/><stop offset="0.24" stop-color="#ff9040"/><stop offset="1" stop-color="#bb442e"/></linearGradient><linearGradient id="linear-gradient-18" x1="5.48" y1="58.32" x2="34.73" y2="27.07" gradientUnits="userSpaceOnUse"><stop offset="0" stop-color="#ffd697"/><stop offset="0.11" stop-color="#e4bc86"/><stop offset="0.36" stop-color="#aa8562"/><stop offset="0.48" stop-color="#946f54"/><stop offset="1" stop-color="#73442e"/></linearGradient><linearGradient id="linear-gradient-19" x1="49.2" y1="45.22" x2="43.28" y2="20.05" xlink:href="#linear-gradient-18"/><linearGradient id="linear-gradient-20" x1="30.7" y1="49.09" x2="30.45" y2="29.97" xlink:href="#linear-gradient-18"/><linearGradient id="linear-gradient-21" x1="22.63" y1="53.8" x2="26.38" y2="43.43" xlink:href="#linear-gradient-18"/><linearGradient id="linear-gradient-22" x1="25.91" y1="39.16" x2="27.52" y2="18.8" xlink:href="#linear-gradient-7"/><linearGradient id="linear-gradient-23" x1="50.21" y1="25.26" x2="45.82" y2="53.56" xlink:href="#linear-gradient-7"/><linearGradient id="linear-gradient-24" x1="49.63" y1="21.61" x2="39.78" y2="19.49" xlink:href="#linear-gradient"/><linearGradient id="linear-gradient-25" x1="49.42" y1="22.59" x2="39.57" y2="20.47" xlink:href="#linear-gradient"/><linearGradient id="linear-gradient-26" x1="46.96" y1="2.7" x2="25.4" y2="17.89" xlink:href="#linear-gradient-9"/><linearGradient id="linear-gradient-27" x1="60.35" y1="42.6" x2="54.43" y2="17.43" xlink:href="#linear-gradient-18"/><linearGradient id="linear-gradient-28" x1="6.78" y1="-10.09" x2="1.28" y2="-45.59" xlink:href="#linear-gradient"/><linearGradient id="linear-gradient-29" x1="17.34" y1="23.52" x2="1.34" y2="-29.64" xlink:href="#linear-gradient"/></defs><title>guitar</title><circle class="cls-1" cx="32.14" cy="32" r="28"/><path class="cls-2" d="M32,37A47.2,47.2,0,0,0,6.79,43.91,28,28,0,0,0,57.43,44,47.12,47.12,0,0,0,32,37Z"/><path class="cls-3" d="M8,31.67A4.25,4.25,0,0,1,9.47,29h0l-4.7,3.23a4.25,4.25,0,0,1,1.8-2.43A4.26,4.26,0,0,1,9.47,29h0L3.86,28a4.25,4.25,0,0,1,3-.44,4.63,4.63,0,0,1,2.13,1L5.54,24.9a4.25,4.25,0,0,1,2.68,1.39,5.05,5.05,0,0,1,.74,1A5.05,5.05,0,0,1,9,26.05a4.25,4.25,0,0,1,1.49-2.63L9.48,29h0a4.25,4.25,0,0,1,1.8-2.42,4.25,4.25,0,0,1,2.91-.8L9.48,29h0a20,20,0,0,0,3.18,3.79c3.78,3.55,8,5.07,9.45,3.4a2,2,0,0,0,.43-1,2.89,2.89,0,0,1-.72,2.53c-1.73,1.56-4.78,1.44-8.22-2.46a35.31,35.31,0,0,1-4.13-6.3l-1,5.6A4.25,4.25,0,0,1,8,31.67Z"/><path class="cls-4" d="M15.09,30.09,9.48,29a4.25,4.25,0,0,1,3-.44A4.25,4.25,0,0,1,15.09,30.09Z"/><path class="cls-5" d="M30.37,35.53c-1.32,1.53-5.21.13-8.69-3.13a18.39,18.39,0,0,1-2.93-3.48h0l4.33-3a4.27,4.27,0,0,0-4.33,3h0l1-5.16a3.91,3.91,0,0,0-1.37,2.42,4.65,4.65,0,0,0-.07,1.13,4.65,4.65,0,0,0-.68-.91,3.91,3.91,0,0,0-2.47-1.28l3.17,3.32a4.26,4.26,0,0,0-2-.89,3.91,3.91,0,0,0-2.75.41l5.15,1h0a3.91,3.91,0,0,0-2.67.74,3.91,3.91,0,0,0-1.66,2.23l4.33-3h0a4.27,4.27,0,0,0-1,5.16l1-5.15a32.47,32.47,0,0,0,3.8,5.79c3.16,3.58,6,3.7,7.55,2.26a2.66,2.66,0,0,0,.66-2.33A1.81,1.81,0,0,1,30.37,35.53Z"/><path class="cls-6" d="M21.51,28.51a3.91,3.91,0,0,0-2.75.41l5.16,1A3.91,3.91,0,0,0,21.51,28.51Z"/><path id="_Path_" data-name="&lt;Path&gt;" class="cls-7" d="M51.47,24.54s4.7,8.22,3.27,11.64l-6.1-3.89s.13-4.8-.85-7.21S50.17,22,51.47,24.54Z"/><path id="_Path_2" data-name="&lt;Path&gt;" class="cls-8" d="M42.16,15.49s5.28,1.37,9.22,8.66l-5,.5S39.52,16.77,42.16,15.49Z"/><path class="cls-9" d="M52.54,51.17A56.84,56.84,0,0,0,50,40.57s-14.48-3.76-26,3.14a45.7,45.7,0,0,0-1.45,14.62A27.94,27.94,0,0,0,32.14,60a28.26,28.26,0,0,0,3.18-.18,2.28,2.28,0,0,0,.56-.85l2.64-8.17,1.18,6.68a1.9,1.9,0,0,0,.81,1.25A28,28,0,0,0,52.54,51.17Z"/><path class="cls-10" d="M52.54,51.17a71.94,71.94,0,0,0-1.77-8.45l-.28-.53-4.65-2.34a43.26,43.26,0,0,0-8.54-.16L23.49,51.23s4.73,2,14.38-2.21a.71.71,0,0,1,1,.85l-.31,1,1.16,6.58a1.9,1.9,0,0,0,.81,1.25A28,28,0,0,0,52.54,51.17Z"/><path id="_Path_3" data-name="&lt;Path&gt;" class="cls-11" d="M44.5,13.33a1.27,1.27,0,0,0-.87,1.14,3.7,3.7,0,0,1-.5,1.69,3.42,3.42,0,0,1-1.84,1.47l-1,3.67a2.67,2.67,0,0,1-.3.38l-.09.09-3.3-7.72L34,13.18C36,9,43.34,5.41,43.34,5.41l1.94,6.42a1.21,1.21,0,0,1-.78,1.5Z"/><path class="cls-12" d="M41.35,17.61l-.22.06.22-.06Z"/><path class="cls-13" d="M44.5,13.33a1.21,1.21,0,0,0,.24-.11c-.36.13-.78-.06-.63-.62s-.7-2.23-.38-2.44a4.63,4.63,0,0,0,.77-.9l-.81-2.69L38.37,8.46A14.24,14.24,0,0,0,34,13.18l2.26,1.35L39,19.76h0c-.1-1.3,1.51-1.9,2.12-2.08-.89.16-2-.7-2-2.7-.06-2.16,1.42-2.92,3.18-3.28s1.32,2.77,1.32,2.77A1.27,1.27,0,0,1,44.5,13.33Z"/><path id="_Path_4" data-name="&lt;Path&gt;" class="cls-14" d="M37.27,12.11s8.14-1.79,7.42-5.47S39.21,3.16,35,7,21,9.14,17.87,15.82s3.29,9.71,5.28,8.45S31.86,13.4,37.27,12.11Z"/><path class="cls-15" d="M17.87,15.82c-3.18,6.68,3.29,9.71,5.28,8.45,1.8-1.14,7.44-9.06,12.5-11.55a2.79,2.79,0,0,1,1-.43h0c.2-.07.41-.13.61-.18l.22-.05c2.61-.95,3-3.39-.83-2.82C32.52,9.87,35,7,35,7,30.83,10.84,21,9.14,17.87,15.82Z"/><path class="cls-16" d="M49.23,29.53a40.36,40.36,0,0,0-6.1-13.37,3.45,3.45,0,0,1-1.78,1.45.14.14,0,0,0-.09.09l-1,2.87a.49.49,0,0,1-.91,0L37.2,15.53a3.58,3.58,0,0,0-2.14-2L34,13.18,33.34,13a1.78,1.78,0,0,0-1.73.34h0a18.5,18.5,0,0,1-2.16,1.6c-4.52,2.88-7.32,8-8,9.33a.22.22,0,0,0,.19.32l5.4.26a1.13,1.13,0,0,1,1,1.59c-1.73,3.84-6.43,15.92-6,22.7.28,4.5,9.43,2,14.65-2A12.47,12.47,0,0,0,41,40.3l.3,2.6a9.31,9.31,0,0,0,1.57,4.26,5,5,0,0,0,2.45,2c6.45,2,6.77-1.56,6.77-1.56A87.65,87.65,0,0,0,49.23,29.53Z"/><path class="cls-17" d="M46.19,27.86,41,25.62a8.57,8.57,0,0,0-7.5-2.85c-3.49.42-4.86,2.34-5.35,3.35a1.14,1.14,0,0,1-.09.28l-.16.35-2.15,5.4c-1.91,5.26-4,12.33-3.71,16.95s9.43,2,14.65-2a12.58,12.58,0,0,0,4.25-6.35l.1-.42a37.62,37.62,0,0,0,.71-4.25,12.49,12.49,0,0,1,4.45-8.19Z"/><path id="_Path_5" data-name="&lt;Path&gt;" class="cls-18" d="M37.2,23.89a6.79,6.79,0,0,0-5.43,2c-1,1-2.39,2.17-3.33,2.09C26.88,27.83,18.1,25.18,17,33.3s6.45,11,8.83,10.32c4.66-1.3,4.77-5.21,9.11-5.46s9.12-4.27,7.81-9.32A6.22,6.22,0,0,0,37.2,23.89Z"/><path id="_Path_6" data-name="&lt;Path&gt;" class="cls-19" d="M36.24,28l14.9-7.53a1.71,1.71,0,0,1,2.32.81h0a1.71,1.71,0,0,1-.8,2.25L37.94,30.77a1.63,1.63,0,0,1-1.79-2.71Z"/><circle id="_Path_7" data-name="&lt;Path&gt;" class="cls-20" cx="30.49" cy="32.94" r="2.53"/><path class="cls-21" d="M28.47,33.79a2.53,2.53,0,0,1,4.39-1.71,2.53,2.53,0,1,0-4.23,2.59A2.52,2.52,0,0,1,28.47,33.79Z"/><path id="_Path_8" data-name="&lt;Path&gt;" class="cls-22" d="M21.54,24.54S18.24,31.73,27.59,37a3.3,3.3,0,0,0,3.93-.51l.21-.22a1.21,1.21,0,0,0-.19-1.84,2.41,2.41,0,0,0-2.6-.06c-2.16,1.11-2.66-4.12-.77-8.39a.88.88,0,0,0-.75-1.24C25.9,24.68,23.4,24.52,21.54,24.54Z"/><path class="cls-23" d="M49.11,28.88a4.65,4.65,0,0,1-1.61-3.52.44.44,0,0,0,0-.12c-.14-.56-1-.52-1-1a.6.6,0,0,0-1-.52A2.77,2.77,0,0,0,44,27a3.81,3.81,0,0,0,.23.76h0c1.12,3.17,5.44,11.28,9.39,9.72C56.72,36.23,52.46,31.92,49.11,28.88Z"/><path class="cls-24" d="M41.35,17.61a.14.14,0,0,0-.09.09l-1,2.87a.49.49,0,0,1-.91,0c.36.82,1.31,2.87,1.95,3.24.81.47.9-4.45,1.63-5.11.36-.32.4-1.35.36-2.31l-.18-.28A3.45,3.45,0,0,1,41.35,17.61Z"/><path class="cls-25" d="M39.23,20.28l.11.26Z"/><path class="cls-26" d="M44.69,6.64C44,3,39.21,3.16,35,7l-.15.12a14.66,14.66,0,0,1,6.44,3.61C43.23,9.82,45,8.47,44.69,6.64Z"/><path class="cls-27" d="M58.57,22,53.4,23.86a2.35,2.35,0,0,1-2.87-1.14h0a2.35,2.35,0,0,1,1-3.15L56.36,17a2.35,2.35,0,0,1,3.25,1.13l.33.76A2.35,2.35,0,0,1,58.57,22Z"/><circle class="cls-28" cx="51.38" cy="18.3" r="0.68"/><circle class="cls-28" cx="53.73" cy="16.99" r="0.68"/><circle class="cls-28" cx="56.43" cy="15.65" r="0.68"/><circle class="cls-28" cx="54.3" cy="24.67" r="0.68"/><circle class="cls-28" cx="56.94" cy="23.88" r="0.68"/><circle class="cls-28" cx="59.46" cy="23.03" r="0.68"/><path class="cls-29" d="M14,4,7.3,5.4A1.48,1.48,0,0,0,6.11,6.86v7.51a.43.43,0,0,1-.43.43h0a1.52,1.52,0,0,0-1.54,1.43,1.48,1.48,0,0,0,1.48,1.52h0a2.46,2.46,0,0,0,2.46-2.46V11.58a.52.52,0,0,1,.42-.51l4.85-1a.52.52,0,0,1,.63.51v2.8a.43.43,0,0,1-.43.43h0A1.52,1.52,0,0,0,12,15.11a1.48,1.48,0,0,0,1.47,1.65h0a2.46,2.46,0,0,0,2.46-2.46V5.59A1.59,1.59,0,0,0,14,4Z"/><path class="cls-30" d="M14,10.7v2.69a.43.43,0,0,1-.43.43A1.52,1.52,0,0,0,12,15.11a1.48,1.48,0,0,0,1.47,1.65,2.46,2.46,0,0,0,2.46-2.46V9.17Q14.93,9.89,14,10.7Z"/></svg>