<svg xmlns="http://www.w3.org/2000/svg" xmlns:xlink="http://www.w3.org/1999/xlink" viewBox="0 0 64 64"><defs><style>.cls-1{isolation:isolate;}.cls-2{fill:url(#linear-gradient);}.cls-3{fill:url(#linear-gradient-2);}.cls-4{fill:url(#linear-gradient-3);}.cls-5{fill:url(#linear-gradient-4);}.cls-6{fill:url(#linear-gradient-5);}.cls-7{fill:url(#linear-gradient-6);}.cls-8{fill:url(#linear-gradient-7);}.cls-9{fill:url(#linear-gradient-8);}.cls-10{fill:url(#linear-gradient-9);}.cls-11{fill:url(#linear-gradient-10);}.cls-12{fill:url(#linear-gradient-11);}.cls-13{fill:url(#linear-gradient-12);}.cls-14{fill:url(#linear-gradient-13);}.cls-15{fill:url(#linear-gradient-14);}.cls-16{fill:url(#linear-gradient-15);}.cls-17{fill:url(#linear-gradient-16);}.cls-18{fill:url(#linear-gradient-67);}.cls-19{opacity:0.49;mix-blend-mode:color-burn;fill:url(#linear-gradient-68);}.cls-20{fill:url(#linear-gradient-69);}.cls-21{fill:url(#linear-gradient-70);}.cls-22{fill:url(#linear-gradient-71);}.cls-23{fill:url(#linear-gradient-72);}.cls-24{fill:#f9aa8f;}.cls-25{fill:url(#linear-gradient-73);}.cls-26{fill:url(#linear-gradient-74);}.cls-27{fill:url(#linear-gradient-75);}.cls-28{fill:#ea534b;}.cls-29{fill:url(#linear-gradient-76);}.cls-30{fill:url(#linear-gradient-77);}.cls-31{fill:url(#linear-gradient-78);}.cls-32{fill:url(#linear-gradient-79);}.cls-33{fill:url(#linear-gradient-80);}.cls-34{fill:url(#linear-gradient-81);}.cls-35{fill:url(#linear-gradient-83);}.cls-36{fill:url(#linear-gradient-85);}.cls-37{fill:url(#linear-gradient-86);}.cls-38{fill:url(#linear-gradient-87);}.cls-39{fill:url(#linear-gradient-88);}</style><linearGradient id="linear-gradient" x1="32" y1="85.17" x2="32" y2="40.68" gradientUnits="userSpaceOnUse"><stop offset="0.02" stop-color="#edd7ad"/><stop offset="0.52" stop-color="#dd8c93"/><stop offset="1" stop-color="#cb1e45"/></linearGradient><linearGradient id="linear-gradient-2" x1="32" y1="61.83" x2="32" y2="-43.55" xlink:href="#linear-gradient"/><linearGradient id="linear-gradient-3" x1="22.71" y1="29.11" x2="22.71" y2="-23.81" xlink:href="#linear-gradient"/><linearGradient id="linear-gradient-4" x1="15.49" y1="29.95" x2="15.49" y2="-22.06" xlink:href="#linear-gradient"/><linearGradient id="linear-gradient-5" x1="49.1" y1="34.85" x2="49.1" y2="-42.43" xlink:href="#linear-gradient"/><linearGradient id="linear-gradient-6" x1="48.06" y1="35.09" x2="48.06" y2="-43.58" gradientUnits="userSpaceOnUse"><stop offset="0" stop-color="#fff"/><stop offset="0.84" stop-color="#cddfec"/></linearGradient><linearGradient id="linear-gradient-7" x1="33.16" y1="35.09" x2="33.16" y2="-43.58" xlink:href="#linear-gradient"/><linearGradient id="linear-gradient-8" x1="31.04" y1="35.09" x2="31.04" y2="-43.58" xlink:href="#linear-gradient-6"/><linearGradient id="linear-gradient-9" x1="46.91" y1="35.09" x2="46.91" y2="-43.58" xlink:href="#linear-gradient-6"/><linearGradient id="linear-gradient-10" x1="19.59" y1="44.15" x2="19.59" y2="12.12" xlink:href="#linear-gradient-6"/><linearGradient id="linear-gradient-11" x1="32.6" y1="54.55" x2="32.6" y2="9.48" xlink:href="#linear-gradient"/><linearGradient id="linear-gradient-12" x1="23.19" y1="48.78" x2="23.19" y2="-0.28" xlink:href="#linear-gradient"/><linearGradient id="linear-gradient-13" x1="25.24" y1="48.78" x2="25.24" y2="-0.28" xlink:href="#linear-gradient"/><linearGradient id="linear-gradient-14" x1="27.29" y1="48.78" x2="27.29" y2="-0.28" xlink:href="#linear-gradient"/><linearGradient id="linear-gradient-15" x1="29.35" y1="48.78" x2="29.35" y2="-0.28" xlink:href="#linear-gradient"/><linearGradient id="linear-gradient-16" x1="31.4" y1="48.78" x2="31.4" y2="-0.28" xlink:href="#linear-gradient"/><linearGradient id="linear-gradient-67" x1="44.35" y1="44.87" x2="44.35" y2="14.91" xlink:href="#linear-gradient"/><linearGradient id="linear-gradient-68" x1="11.29" y1="25.69" x2="11.29" y2="25.13" xlink:href="#linear-gradient-6"/><linearGradient id="linear-gradient-69" x1="45.69" y1="60.07" x2="45.69" y2="35.06" gradientUnits="userSpaceOnUse"><stop offset="0" stop-color="#7ff1a4"/><stop offset="0.52" stop-color="#2fbca4"/><stop offset="1" stop-color="#2f7da4"/></linearGradient><linearGradient id="linear-gradient-70" x1="-13152.04" y1="58.66" x2="-13152.04" y2="38.66" gradientTransform="matrix(-1, 0, 0, 1, -13106.66, 0)" xlink:href="#linear-gradient-6"/><linearGradient id="linear-gradient-71" x1="16159.79" y1="51.96" x2="16159.79" y2="33.46" gradientTransform="translate(-16105.22)" xlink:href="#linear-gradient-69"/><linearGradient id="linear-gradient-72" x1="16159.98" y1="51.72" x2="16159.98" y2="38.86" gradientTransform="translate(-16105.22)" xlink:href="#linear-gradient-6"/><linearGradient id="linear-gradient-73" x1="10.63" y1="36.85" x2="6.65" y2="43.11" gradientUnits="userSpaceOnUse"><stop offset="0" stop-color="#f78e6b"/><stop offset="1" stop-color="#f9aa8f"/></linearGradient><linearGradient id="linear-gradient-74" x1="30.28" y1="37.39" x2="20.08" y2="39.64" xlink:href="#linear-gradient-73"/><linearGradient id="linear-gradient-75" x1="30.9" y1="52.1" x2="-5.21" y2="53.64" xlink:href="#linear-gradient-73"/><linearGradient id="linear-gradient-76" x1="15.06" y1="31.64" x2="14.23" y2="39.45" gradientUnits="userSpaceOnUse"><stop offset="0" stop-color="#f9aa8f"/><stop offset="1" stop-color="#f78e6b"/></linearGradient><linearGradient id="linear-gradient-77" x1="4.69" y1="15.29" x2="28.07" y2="23.36" xlink:href="#linear-gradient-73"/><linearGradient id="linear-gradient-78" x1="25.13" y1="50.59" x2="6.86" y2="26.86" gradientUnits="userSpaceOnUse"><stop offset="0" stop-color="#f16c52"/><stop offset="0.03" stop-color="#f16850"/><stop offset="0.23" stop-color="#ef5140"/><stop offset="0.45" stop-color="#ed4036"/><stop offset="0.7" stop-color="#ec362f"/><stop offset="1" stop-color="#ec332d"/></linearGradient><linearGradient id="linear-gradient-79" x1="31.34" y1="-14.88" x2="3.59" y2="37.12" gradientUnits="userSpaceOnUse"><stop offset="0" stop-color="#182ebd"/><stop offset="0.58" stop-color="#0d1226"/></linearGradient><linearGradient id="linear-gradient-80" x1="36.24" y1="1.56" x2="67.91" y2="42.07" gradientUnits="userSpaceOnUse"><stop offset="0" stop-color="#e8bd00"/><stop offset="0.51" stop-color="#e88300"/><stop offset="1" stop-color="#d0471e"/></linearGradient><linearGradient id="linear-gradient-81" x1="47.98" y1="54.25" x2="47.98" y2="41.75" xlink:href="#linear-gradient-80"/><linearGradient id="linear-gradient-83" x1="47.98" y1="54.25" x2="47.98" y2="41.75" xlink:href="#linear-gradient-80"/><linearGradient id="linear-gradient-85" x1="47.98" y1="66.39" x2="47.98" y2="21.65" xlink:href="#linear-gradient-80"/><linearGradient id="linear-gradient-86" x1="29.33" y1="6.93" x2="56.58" y2="21.18" xlink:href="#linear-gradient-6"/><linearGradient id="linear-gradient-87" x1="31.41" y1="2.96" x2="58.66" y2="17.21" xlink:href="#linear-gradient-6"/><linearGradient id="linear-gradient-88" x1="27.35" y1="10.73" x2="54.6" y2="24.98" xlink:href="#linear-gradient-6"/></defs><title>idea</title><g class="cls-1"><g id="Layer_1" data-name="Layer 1"><circle class="cls-2" cx="32" cy="32" r="28"/><path class="cls-3" d="M4,32A27.87,27.87,0,0,0,7.37,45.33H56.63A28,28,0,1,0,4,32Z"/><path class="cls-4" d="M31.46,16.82C24.82,14.6,19.25,11,17.64,8.68a4.34,4.34,0,0,0-.38-.48A28.08,28.08,0,0,0,14,10.6,177.1,177.1,0,0,0,31.46,16.82Z"/><path class="cls-5" d="M22.73,19.91c-3.55-.49-6.68-1.77-7.71-2.8S11.59,16,11,15.46a5.47,5.47,0,0,0-1-.71,28.05,28.05,0,0,0-1.71,2.44A93.24,93.24,0,0,0,22.73,19.91Z"/><path class="cls-6" d="M57.72,20.93a4.1,4.1,0,0,0-1.76.36c-2.32,1-4.11-.48-7.54.24s-9.32-.38-9.32-.38a81.33,81.33,0,0,0,20,3.81A27.78,27.78,0,0,0,57.72,20.93Z"/><path class="cls-7" d="M39.71,14a14.37,14.37,0,0,0,5.2.28c2-.48,2.88.54,4.24-.15a2,2,0,0,1,2.7.89c.31.66,1.34,0,2,.59a4.94,4.94,0,0,0,2.51.54S50.66,18.26,39.71,14Z"/><path class="cls-8" d="M30.37,8.64S34.15,9.9,36,9.57a5.71,5.71,0,0,1-1.5-.73,1.93,1.93,0,0,0-1.79-.37c-.41.25-.57-.36-1-.13A4.58,4.58,0,0,1,30.37,8.64Z"/><path class="cls-9" d="M28.25,19.85s3.78,1.26,5.58.93a5.71,5.71,0,0,1-1.5-.73,1.93,1.93,0,0,0-1.79-.37c-.41.25-.57-.36-1-.13A4.58,4.58,0,0,1,28.25,19.85Z"/><path class="cls-10" d="M48.92,9.43s-2.9-.23-4-1a4.18,4.18,0,0,0,1.22-.07,1.41,1.41,0,0,1,1.31.26c.2.29.48-.08.73.2A3.35,3.35,0,0,0,48.92,9.43Z"/><path class="cls-11" d="M34.48,38.63H18v-7H15.84V27a3,3,0,0,0-6,0v7.2H4.09A27.83,27.83,0,0,0,7.37,45.33H35.1Z"/><path class="cls-12" d="M60,32a28,28,0,0,0-1.41-8.77H56.88a5.38,5.38,0,0,0-5.38,5.38v3.21H45.65a1.07,1.07,0,0,0-1.07,1.07v5.19H37.21v-2a1,1,0,0,0-1-1h-2.1V15.87a.93.93,0,0,0-.93-.93H21.08a.93.93,0,0,0-.93.93V42H10.47V40.1H5.2a27.83,27.83,0,0,0,2.18,5.23H56.63A27.87,27.87,0,0,0,60,32Z"/><rect class="cls-13" x="22.6" y="17.46" width="1.18" height="1.18" rx="0.09" ry="0.09"/><rect class="cls-14" x="24.65" y="17.46" width="1.18" height="1.18" rx="0.09" ry="0.09"/><rect class="cls-15" x="26.7" y="17.46" width="1.18" height="1.18" rx="0.09" ry="0.09"/><rect class="cls-16" x="28.75" y="17.46" width="1.18" height="1.18" rx="0.09" ry="0.09"/><rect class="cls-17" x="30.81" y="17.46" width="1.18" height="1.18" rx="0.09" ry="0.09"/><rect class="cls-13" x="22.6" y="19.63" width="1.18" height="1.18" rx="0.09" ry="0.09"/><rect class="cls-14" x="24.65" y="19.63" width="1.18" height="1.18" rx="0.09" ry="0.09"/><rect class="cls-15" x="26.7" y="19.63" width="1.18" height="1.18" rx="0.09" ry="0.09"/><rect class="cls-16" x="28.75" y="19.63" width="1.18" height="1.18" rx="0.09" ry="0.09"/><rect class="cls-17" x="30.81" y="19.63" width="1.18" height="1.18" rx="0.09" ry="0.09"/><rect class="cls-13" x="22.6" y="21.79" width="1.18" height="1.18" rx="0.09" ry="0.09"/><rect class="cls-14" x="24.65" y="21.79" width="1.18" height="1.18" rx="0.09" ry="0.09"/><rect class="cls-15" x="26.7" y="21.79" width="1.18" height="1.18" rx="0.09" ry="0.09"/><rect class="cls-16" x="28.75" y="21.79" width="1.18" height="1.18" rx="0.09" ry="0.09"/><rect class="cls-17" x="30.81" y="21.79" width="1.18" height="1.18" rx="0.09" ry="0.09"/><rect class="cls-13" x="22.6" y="23.95" width="1.18" height="1.18" rx="0.09" ry="0.09"/><rect class="cls-14" x="24.65" y="23.95" width="1.18" height="1.18" rx="0.09" ry="0.09"/><rect class="cls-15" x="26.7" y="23.95" width="1.18" height="1.18" rx="0.09" ry="0.09"/><rect class="cls-16" x="28.75" y="23.95" width="1.18" height="1.18" rx="0.09" ry="0.09"/><rect class="cls-17" x="30.81" y="23.95" width="1.18" height="1.18" rx="0.09" ry="0.09"/><rect class="cls-13" x="22.6" y="26.11" width="1.18" height="1.18" rx="0.09" ry="0.09"/><rect class="cls-14" x="24.65" y="26.11" width="1.18" height="1.18" rx="0.09" ry="0.09"/><rect class="cls-15" x="26.7" y="26.11" width="1.18" height="1.18" rx="0.09" ry="0.09"/><rect class="cls-16" x="28.75" y="26.11" width="1.18" height="1.18" rx="0.09" ry="0.09"/><rect class="cls-17" x="30.81" y="26.11" width="1.18" height="1.18" rx="0.09" ry="0.09"/><rect class="cls-13" x="22.6" y="28.27" width="1.18" height="1.18" rx="0.09" ry="0.09"/><rect class="cls-14" x="24.65" y="28.27" width="1.18" height="1.18" rx="0.09" ry="0.09"/><rect class="cls-15" x="26.7" y="28.27" width="1.18" height="1.18" rx="0.09" ry="0.09"/><rect class="cls-16" x="28.75" y="28.27" width="1.18" height="1.18" rx="0.09" ry="0.09"/><rect class="cls-17" x="30.81" y="28.27" width="1.18" height="1.18" rx="0.09" ry="0.09"/><rect class="cls-13" x="22.6" y="30.43" width="1.18" height="1.18" rx="0.09" ry="0.09"/><rect class="cls-14" x="24.65" y="30.43" width="1.18" height="1.18" rx="0.09" ry="0.09"/><rect class="cls-15" x="26.7" y="30.43" width="1.18" height="1.18" rx="0.09" ry="0.09"/><rect class="cls-16" x="28.75" y="30.43" width="1.18" height="1.18" rx="0.09" ry="0.09"/><rect class="cls-17" x="30.81" y="30.43" width="1.18" height="1.18" rx="0.09" ry="0.09"/><rect class="cls-13" x="22.6" y="32.59" width="1.18" height="1.18" rx="0.09" ry="0.09"/><rect class="cls-14" x="24.65" y="32.59" width="1.18" height="1.18" rx="0.09" ry="0.09"/><rect class="cls-15" x="26.7" y="32.59" width="1.18" height="1.18" rx="0.09" ry="0.09"/><rect class="cls-16" x="28.75" y="32.59" width="1.18" height="1.18" rx="0.09" ry="0.09"/><rect class="cls-17" x="30.81" y="32.59" width="1.18" height="1.18" rx="0.09" ry="0.09"/><rect class="cls-13" x="22.6" y="34.75" width="1.18" height="1.18" rx="0.09" ry="0.09"/><rect class="cls-14" x="24.65" y="34.75" width="1.18" height="1.18" rx="0.09" ry="0.09"/><rect class="cls-15" x="26.7" y="34.75" width="1.18" height="1.18" rx="0.09" ry="0.09"/><rect class="cls-16" x="28.75" y="34.75" width="1.18" height="1.18" rx="0.09" ry="0.09"/><rect class="cls-17" x="30.81" y="34.75" width="1.18" height="1.18" rx="0.09" ry="0.09"/><rect class="cls-13" x="22.6" y="36.92" width="1.18" height="1.18" rx="0.09" ry="0.09"/><rect class="cls-14" x="24.65" y="36.92" width="1.18" height="1.18" rx="0.09" ry="0.09"/><rect class="cls-15" x="26.7" y="36.92" width="1.18" height="1.18" rx="0.09" ry="0.09"/><rect class="cls-16" x="28.75" y="36.92" width="1.18" height="1.18" rx="0.09" ry="0.09"/><rect class="cls-17" x="30.81" y="36.92" width="1.18" height="1.18" rx="0.09" ry="0.09"/><rect class="cls-13" x="22.6" y="39.08" width="1.18" height="1.18" rx="0.09" ry="0.09"/><rect class="cls-14" x="24.65" y="39.08" width="1.18" height="1.18" rx="0.09" ry="0.09"/><rect class="cls-15" x="26.7" y="39.08" width="1.18" height="1.18" rx="0.09" ry="0.09"/><rect class="cls-16" x="28.75" y="39.08" width="1.18" height="1.18" rx="0.09" ry="0.09"/><rect class="cls-17" x="30.81" y="39.08" width="1.18" height="1.18" rx="0.09" ry="0.09"/><path class="cls-18" d="M45.65,31.81a1.07,1.07,0,0,0-1.07,1.07v5.19H37.21v.27a4.69,4.69,0,0,0,4.69,4.77h3.18v-2H51.5V31.81Z"/><path class="cls-19" d="M11,25.39c-.07,0,.05.12.19.21h0l.11,0a.39.39,0,0,0,.2-.12A1.58,1.58,0,0,0,11,25.39Z"/><path class="cls-20" d="M40.93,47.21a2.66,2.66,0,0,1,1.93-2.55,1.11,1.11,0,0,0,.75-.76,2.66,2.66,0,0,1,5.19.51,2.69,2.69,0,0,1,0,.6,1.06,1.06,0,0,0,.47,1,2.66,2.66,0,0,1,.39,4.12,1.72,1.72,0,0,0-.4.56,1.89,1.89,0,0,1-1.74,1.16l-.24,0a1.9,1.9,0,0,0-1.24.24,2.66,2.66,0,0,1-4-2.27v0a.93.93,0,0,0-.28-.67A2.65,2.65,0,0,1,40.93,47.21Z"/><path class="cls-21" d="M43.66,48.82c0,.08,0,.17.08.25a.84.84,0,0,0,.32.4,2,2,0,0,0,.23.12l.4.2,0-.08c0-.09,0-.17-.07-.26l-.14-.51.15.51c0,.08,0,.17.08.25l0,.11,0,0h0a0,0,0,0,1,0,0h0l0,0a.83.83,0,0,0,.19.18,2,2,0,0,0,.23.12l.43.21,0-2.4,0,3.13L46,51a.91.91,0,0,0,.27-.19.82.82,0,0,0,.18-.27c0-.05,0-.1.05-.16a.34.34,0,0,1,.1-.14.36.36,0,0,1,.16-.07l.16,0a.37.37,0,0,0,.22-.22c.06-.21.11-.43.16-.65,0,.22-.09.44-.15.66a.39.39,0,0,1-.23.24l-.16,0a.33.33,0,0,0-.14.07.31.31,0,0,0-.09.13s0,.11,0,.16a.87.87,0,0,1-.18.29,1,1,0,0,1-.28.2l-.26.14.09,6.28h0a.14.14,0,0,1-.28,0l.1-7-.45-.24a2.08,2.08,0,0,1-.23-.13.87.87,0,0,1-.19-.19l0-.06h0l-.47-.25a2.08,2.08,0,0,1-.23-.13.87.87,0,0,1-.32-.43c0-.09,0-.17-.07-.26l-.14-.51Z"/><path class="cls-22" d="M57.64,44.36a1.71,1.71,0,0,0-1.24-1.64.72.72,0,0,1-.48-.49,1.71,1.71,0,0,0-3.34.33,1.73,1.73,0,0,0,0,.39.68.68,0,0,1-.3.66A1.71,1.71,0,0,0,52,46.25a1.11,1.11,0,0,1,.26.36,1.21,1.21,0,0,0,1.12.74h.16a1.22,1.22,0,0,1,.79.15A1.71,1.71,0,0,0,56.94,46v0a.6.6,0,0,1,.18-.43A1.7,1.7,0,0,0,57.64,44.36Z"/><path class="cls-23" d="M55.88,45.39l-.05.16a.54.54,0,0,1-.2.26l-.15.08-.26.13,0-.05,0-.17.09-.33-.1.33-.05.16,0,.07h0a0,0,0,0,0,0,0h0l0,0a.53.53,0,0,1-.12.11l-.15.08-.27.13,0-1.54,0,2-.15-.08a.58.58,0,0,1-.17-.12.53.53,0,0,1-.11-.18s0-.07,0-.1a.22.22,0,0,0-.07-.09.23.23,0,0,0-.1,0l-.1,0a.24.24,0,0,1-.14-.14c0-.14-.07-.28-.1-.42,0,.14.06.28.09.42a.25.25,0,0,0,.15.16l.1,0,.09,0a.2.2,0,0,1,.06.08s0,.07,0,.1a.56.56,0,0,0,.11.19.62.62,0,0,0,.18.13l.17.09-.06,4h0a.09.09,0,1,0,.18,0l-.07-4.51.29-.15.15-.09a.56.56,0,0,0,.12-.12l0,0h0l.3-.16.15-.09a.56.56,0,0,0,.2-.28l0-.17.09-.33Z"/><path class="cls-24" d="M8.59,26.85,6.9,29.15a38.19,38.19,0,0,0-2.87,4A27.85,27.85,0,0,0,6.54,43.66,17.69,17.69,0,0,1,10.4,40C24.7,30.07,8.59,26.85,8.59,26.85Z"/><path class="cls-25" d="M7.07,37.7S6.58,39,5.57,41.23q.43,1.24,1,2.42A17.69,17.69,0,0,1,10.4,40a29.47,29.47,0,0,0,2.42-1.86Z"/><path class="cls-24" d="M23.61,25l.07,10.32-1,4.49s4.44,6.25,5.13,6,.68-2.39,1.27-3.42,2.71-1.06,4.57,9.71A17.39,17.39,0,0,1,33.11,60a28,28,0,0,0,5.9-.86,30,30,0,0,0,.49-12.93C36.28,27.58,23.61,25,23.61,25Z"/><path class="cls-26" d="M23.61,41c1.34,1.81,3.73,4.94,4.22,4.76.68-.24.68-2.39,1.27-3.42.27-.47.86-.73,1.6.16a19.52,19.52,0,0,0-3.31-3.09c-2.6-2-2-7-1.71-8.91Z"/><path class="cls-24" d="M26.56,49c1.89-4.4-11.21-3.44-11.21-3.44l-4.59,2.78a6,6,0,0,1,1.15,3.14,27.94,27.94,0,0,0,14.74,8l.35-.11S24.67,53.41,26.56,49Z"/><path class="cls-27" d="M26.56,49c1.89-4.4-11.21-3.44-11.21-3.44l-4.59,2.78h0a11,11,0,0,0,7,3.15c4.11.1,5.63,4.64,4.75,6.79l0,0a27.79,27.79,0,0,0,4.16,1.14l.36-.11S24.67,53.41,26.56,49Z"/><path class="cls-28" d="M15,24.7a7.28,7.28,0,0,1-3.05,1.5.9.9,0,0,0-.58.49c-.75,1.65-3.63,8.13-4.3,11C6.29,41,9.87,42.34,9.38,44.31s1.38,4,1.38,4a36.92,36.92,0,0,1,15.8.66s1.89-2.43,1.89-4.4c0,0-5.36-2.5-2-18.29a.54.54,0,0,0-.32-.61,24.17,24.17,0,0,1-2.93-1.32"/><path class="cls-24" d="M25.95,9.34a7.39,7.39,0,0,0-.21-1h0a3.68,3.68,0,0,0-3.86-3c-3.9.16-7.28,2.44-7.11,8a6.53,6.53,0,0,0,.06.67h0s1,9,0,11.16-6.22,11.42-2,12.23C20.66,39,21.39,27,23.21,24.39c0,0-2.76-1.24-2.25-3.09a1.9,1.9,0,0,1,1.49-1.51l.23,0h0a2.83,2.83,0,0,0,1.23-.43c.87-.61,1.38-2.18,1.68-3.84a.92.92,0,0,1,.31-.54l.3-.26a1,1,0,0,0,.35-.78A28.29,28.29,0,0,0,25.95,9.34Z"/><path class="cls-29" d="M15,36.45c.81-.75,1.56-2.13,1-2.5s-3.3-.76-2.64,1.42-.26,2.15-.29,2.15a6.22,6.22,0,0,0,1.81,0C14.53,37.49,14.32,37.07,15,36.45Z"/><path class="cls-30" d="M26.27,11.08c-.11-.65-.22-1.26-.32-1.74a7.39,7.39,0,0,0-.21-1h0v0l-7.37.41L14.8,13.9l0,.16h0s1,9,0,11.16a58.13,58.13,0,0,0-3,6.75c6.09-2.27,6.65-9,7-10.65s3.4-1.56,3.81-1.55c-2.07,0-2.49-3.73-1.22-4.23,2.93-1.17,2.32-2,3.42-2s.8,2,.78,2.12l0-.19a.92.92,0,0,1,.31-.54l.3-.26.12-.13c-.17,0-.35-.16-.35-.54,0-1.22-.6-1.22-.36-1.73A7.19,7.19,0,0,0,26.27,11.08Z"/><path class="cls-31" d="M25.37,34.46s-.08,4.2-2.38,6.25-6.4.73-10.89,1.07-5-2-5-2.3c.52,2.08,2.71,3.25,2.32,4.82-.49,2,1.38,4,1.38,4a36.92,36.92,0,0,1,15.8.66s1.89-2.43,1.89-4.4c0,0-3.38-1.58-3.08-10.15Z"/><path class="cls-32" d="M25.95,9.34s.14,3.51-5.29,4.72-5.35,4.35-5.42,8.24-.36,10-5.92,10.26S3,24.65,8.52,22.89,6.76,13.22,11.67,7.44,26.61,3.77,25.95,9.34Z"/><path class="cls-33" d="M59,15a11,11,0,1,0-18.66,7.84,11,11,0,0,1,2.81,6.79.59.59,0,0,0,.59.56h8.56a.59.59,0,0,0,.59-.56,10.93,10.93,0,0,1,2.81-6.79A11,11,0,0,0,59,15Z"/><path class="cls-34" d="M52.8,35.53H43.16a4.43,4.43,0,0,0,.31,1.16h9A4.43,4.43,0,0,0,52.8,35.53Z"/><polygon class="cls-34" points="52.84 33.53 43.12 33.53 43.12 33.53 43.12 34.69 43.12 34.69 52.84 34.69 52.84 34.69 52.84 33.53 52.84 33.53"/><path class="cls-35" d="M43.94,37.52a4.45,4.45,0,0,0,3.64,1.89h.81A4.45,4.45,0,0,0,52,37.52Z"/><path class="cls-34" d="M43.12,32.7h9.72V31.3H43.13c0-.05,0-.1,0-.15V32.7Z"/><path class="cls-36" d="M50.66,18.83a1.74,1.74,0,0,0-1.74,1.74v1.18H47V20.57a1.74,1.74,0,1,0-1.74,1.74h.58v-.56h-.58a1.18,1.18,0,1,1,1.18-1.18v9.6H47V22.31h1.87v7.86h.56v-9.6a1.18,1.18,0,1,1,1.18,1.18h-.58v.56h.58a1.74,1.74,0,0,0,0-3.48Z"/><path class="cls-37" d="M34.08,9.93a.73.73,0,0,1-.56,0l-.87-.4a.73.73,0,0,1,.61-1.33l.87.4a.73.73,0,0,1,0,1.35Z"/><path class="cls-38" d="M37.28,6.94a.73.73,0,0,1-.94-.43L36,5.62a.73.73,0,1,1,1.37-.51l.34.89A.73.73,0,0,1,37.28,6.94Z"/><path class="cls-39" d="M33.93,14.32l-.89.34a.73.73,0,0,1-.51-1.37l.89-.34a.73.73,0,0,1,.51,1.37Z"/></g></g></svg>