<svg xmlns="http://www.w3.org/2000/svg" xmlns:xlink="http://www.w3.org/1999/xlink" viewBox="48.024 8.327 402.55 609.582" width="398.55" height="450.58"><defs><path d="M264.46 536.87l.05.61.02.62-.01.61-.02.61-.05.6-.08.6-.09.6-.12.59-.14.58-.16.58-.19.57-.21.56-.22.55-.25.54-.27.54-.29.52-.31.51-.33.5-.34.49-.37.48-.39.46-.4.44-.42.44-.45.41-.45.4-.48.39-.49.37-.51.35-2.07 1.36-.32-.83-.3-.83-.28-.83-.28-.83-.26-.84-.25-.84-.24-.85-.23-.85-.21-.85-.2-.85-.18-.86-.18-.86-.16-.86-.15-.87-.13-.86-.13-.87-.11-.87-.09-.87-.09-.88-.07-.87-.05-.88-.05-.88-.03-.87-.02-.88v-1.76l.02-.88.04-.88.51-11.04 5.66-32.66 5 32.66 1.82 19.26zm-20.58.27l.02.55.01.56-.02.55-.04.54-.06.55-.07.54-.1.53-.12.53-.13.53-.16.52-.17.51-.2.51-.21.49-.23.49-.24.49-.27.47-.28.46-.3.46-.32.44-.33.43-.35.42-.37.41-.38.39-.4.38-.42.37-.43.35-.6-.56-.33-.32-.32-.33-.31-.34-.3-.34-.28-.35-.28-.37-.26-.36-.25-.38-.24-.38-.23-.39-.21-.4-.21-.4-.19-.41-.18-.41-.16-.42-.16-.42-.14-.43-.13-.43-.11-.44-.11-.44-.08-.44-.08-.45-.06-.45-.05-.45-.04-.46-.02-.45V523.56l.01-.74.01-.74.01-.74.02-.74.03-.74.03-.74.03-.74.04-.74.04-.74.05-.74.05-.74.06-.74.06-.74.06-.73.07-.74.07-.74.08-.73.09-.74.08-.74.09-.73.1-.73.1-.74.11-.73.11-.73.11-.74.12-.73 3.7-22.44 5.52 54.63.05.56zm34.27-33.1l.33 1.81.29 1.82.24 1.83.2 1.82.15 1.83.11 1.83.06 1.83.03 1.83-.03 1.83-.06 1.83-.11 1.83-.16 1.82-.19 1.82-.24 1.81-.29 1.81-.33 1.8-.37 1.8-.41 1.78-.46 1.78-.5 1.77-.54 1.76-.59 1.74-.63 1.74-.67 1.72-.55-.57-.52-.58-.5-.6-.47-.62-.45-.63-.42-.65-.4-.66-.37-.67-.35-.69-.32-.69-.3-.71-.27-.72-.24-.73-.22-.73-.18-.75-.17-.75-.13-.76-.1-.76-.08-.77-.05-.77-.02-.77.01-.78.03-.78.07-.78.1-.78.56-3.97 5.34-40.66 3.8 17.28.37 1.81zm-56.34.23l.51 1.75.47 1.76.45 1.77.43 1.77.4 1.78.37 1.78.35 1.79.32 1.79.3 1.8.27 1.8.25 1.81.22 1.81.19 1.81.17 1.81.14 1.82.12 1.82.09 1.82.06 1.82.04 1.83.02 1.82-.02.37-.04.36-.07.35-.09.34-.12.34-.14.32-.17.3-.18.29-.21.28-.22.26-.25.24-.26.23-.28.21-.29.18-.3.17-.32.14-.33.12-.35.09-.35.07-.36.04-.37.02h-3.62l-1.1-4.61-.27-1.14-.24-1.15-.23-1.14-.2-1.16-.19-1.15-.16-1.16-.15-1.16-.13-1.16-.11-1.16-.09-1.16-.07-1.17-.05-1.17-.03-1.16-.01-1.17.01-1.17.03-1.17.04-1.17.07-1.16.09-1.17.1-1.17.13-1.16 2.56-22.01 2.65 8.57.52 1.75zm69.01-10.87l.25 1.22.24 1.23.22 1.24.22 1.23.2 1.24.2 1.23.18 1.24.17 1.24.15 1.24.15 1.25.13 1.24.13 1.25.11 1.24.1 1.25.09 1.25.07 1.25.07 1.25.05 1.25.04 1.26.03 1.25.02 1.25v2.13l-.03.87-.04.88-.06.87-.07.87-.09.87-.1.86-.12.87-.14.86-.15.86-.17.85-.18.85-.2.85-.21.85-.23.84-.25.83-.26.84-.28.82-.29.83-.31.81-.32.82-.34.8-.35.8-.11.24-.03.06-.03.06-.04.05-.03.05-.05.05-.04.05-.05.04-.05.04-.05.04-.05.03-.06.03-.05.03-.06.02-.06.02-.06.02-.06.01-.07.01-.06.01h-.13l-.06-.01-.07-.01-.06-.02-1.92-.5-.26-.08-.25-.09-.25-.11-.24-.12-.22-.14-.22-.15-.2-.16-.2-.17-.18-.19-.17-.19-.16-.21-.14-.21-.14-.22-.12-.23-.1-.24-.09-.24-.08-.25-.06-.26-.04-.26-.03-.26-.01-.27v-.27l.03-.27 5.91-51.01 1.58 7.22.26 1.23zm-107.56-26.34l.01-.02.01-.02.02-.01.01-.02.01-.01.02-.01.01-.01.02-.01.02-.01h.01l.02-.01h.02l.01-.01H183.52l.02.01h.03l.02.01.02.01h.01l.02.01.01.01.02.01.01.01.01.01.02.02.01.01.01.01.01.02.01.01v.02l.01.02.01.02v.08l-.72 25.49 5.75-14.75v4.71l.58 15.55.67 9.24 5.75-19.5v8.88l.01.39v.39l.01.39.01.39.01.39.01.39.02.4.02.39.02.39.03.39.03.39.03.39.03.38.04.39.04.39.04.39.04.39.05.39.05.38.05.39.06.39.05.38.07.39.06.39.06.38.07.39.07.38.08.38.07.39.08.38.08.38.09.38.08.39.09.38.1.38.09.38.1.37.1.38.1.38.11.38 1.85 6.58 5.75-36.9.01 1.22.01 1.22.02 1.22.03 1.21.03 1.22.04 1.22.05 1.22.06 1.22.06 1.21.07 1.22.08 1.22.09 1.21.1 1.22.1 1.21.11 1.21.11 1.22.13 1.21.13 1.21.14 1.21.15 1.21.15 1.2.17 1.21.17 1.21.17 1.2.19 1.21.19 1.2.2 1.2.21 1.2.21 1.2.23 1.2.22 1.2.24 1.19.25 1.19.25 1.2.26 1.19.27 1.19.27 1.19.28 1.18.29 1.19.3 1.18.85 3.37.04.14.03.15.02.15.02.15.02.15.01.15v.3l-.01.15-.01.15-.01.14-.02.15-.03.14-.03.15-.03.14-.04.14-.04.14-.05.14-.05.13-.06.14-.06.13-.07.13-.07.13-.07.13-.08.12-.08.12-.09.12-.09.12-.09.11-.1.11-.1.11-.1.1-.11.1-.12.1-.11.09-.12.09-.13.09-.13.08-.13.08-.13.07-2.55 1.37-.08.04-.09.04-.09.03-.08.03-.09.03-.09.02-.09.02-.09.02-.08.01h-.09l-.09.01h-.09l-.09-.01-.09-.01-.08-.01-.09-.01-.08-.02-.09-.02-.08-.03-.08-.03-.09-.03-.08-.04-.07-.03-.08-.05-.08-.04-.07-.05-.07-.05-.07-.06-.07-.05-.06-.07-.06-.06-.06-.06-.06-.07-.05-.08-.06-.07-.04-.08-.05-.08-.04-.08-.04-.09-.04-.08-4.02-10.6-.04-.09-.04-.1-.04-.09-.05-.09-.06-.08-.05-.09-.06-.08-.06-.08-.06-.08-.07-.07-.06-.07-.07-.07-.08-.07-.07-.06-.08-.06-.08-.06-.08-.05-.08-.05-.09-.05-.09-.04-.08-.04-.09-.04-.09-.04-.1-.03-.09-.03-.09-.02-.1-.02-.1-.02-.09-.02-.1-.01h-.1l-.1-.01h-.1l-.1.01-.1.01-.1.01-.1.01-.1.02-.1.03-.1.03 1.13-.34-.18.05-.18.04-.17.04-.18.04-.18.03-.18.03-.18.03-.18.01-.18.02-.18.01h-.18l-.18.01-.18-.01-.17-.01-.18-.01-.18-.01-.18-.02-.18-.03-.17-.03-.18-.03-.17-.04-.18-.04-.17-.05-.17-.05-.17-.05-.17-.06-.17-.07-.16-.06-.17-.08-.16-.07-.16-.08-.16-.08-.16-.09-.15-.09-.16-.1-.15-.1-.15-.1-.15-.11-.14-.11-.08-.07-.08-.07-.15-.13-.14-.13-.13-.13-.14-.13-.13-.14-.12-.14-.13-.15-.12-.14-.11-.15-.12-.15-.11-.16-.1-.15-.11-.16-.1-.16-.09-.16-.09-.16-.09-.17-.09-.17-.08-.17-.08-.17-.07-.17-.07-.17-.07-.18-.06-.18-.06-.18-.06-.18-.05-.18-.04-.18-.05-.18-.04-.19-.03-.18-.03-.19-.03-.19-.02-.19-.02-.19-.02-.19-.01-.19v-.19l-.01-.19v-7.95l-5.09-2.63-.12-.07-.12-.07-.12-.07-.11-.07-.11-.08-.11-.08-.11-.08-.1-.08-.1-.09-.1-.09-.1-.09-.09-.1-.09-.1-.09-.1-.09-.1-.08-.1-.08-.11-.07-.11-.08-.11-.07-.11-.07-.11-.06-.12-.06-.12-.06-.12-.06-.12-.05-.12-.04-.13-.05-.12-.04-.13-.04-.13-.03-.13-.04-.13-.02-.13-.03-.13-.02-.13-.01-.14-.02-.13-.01-.14v-.14l-.01-.13V497.48l-.01-.14-.01-.13-.01-.13-.01-.14-.02-.13-.01-.13-.02-.14-.03-.13-.02-.13-.03-.13-.03-.13-.03-.13-.04-.13-.04-.13-.03-.12-.05-.13-.04-.13-.05-.12-.05-.13-.05-.12-.05-.12-.05-.12-.06-.12-.06-.12-.06-.12-.07-.12-.06-.11-.07-.12-.07-.11-.07-.12-.08-.11-.07-.11-.08-.11-.08-.1-.09-.11-.08-.1-.09-.11-.09-.1-.56-.63-.08-.09-.07-.09-.07-.08-.07-.09-.06-.09-.07-.1-.06-.09-.06-.09-.06-.1-.06-.09-.05-.1-.06-.1-.05-.1-.05-.1-.04-.1-.05-.1-.04-.1-.04-.11-.04-.1-.04-.11-.03-.1-.04-.11-.03-.11-.02-.11-.03-.1-.02-.11-.02-.11-.02-.11-.02-.11-.02-.11-.01-.11-.01-.12-.01-.11v-.11l-.01-.11V488.31l.01-.11.01-.12.4-5.29.01-.08v-.16l-.01-.08-.01-.08-.01-.07-.02-.08-.02-.07-.02-.08-.03-.07-.03-.07-.03-.07-.04-.06-.03-.07-.04-.06-.05-.06-.04-.06-.05-.06-.05-.05-.05-.06-.06-.05-.05-.05-.06-.04-.06-.05-.06-.04-.07-.04-.06-.03-.07-.03-.07-.03-.07-.03-.07-.02-.08-.02-.07-.02-.08-.02-.08-.01-.07-.01h-.24l-.08.01-4.92.53.01-.32v-.32l.01-.32.02-.32.02-.32.02-.31.03-.32.03-.32.04-.31.04-.32.04-.31.05-.31.05-.32.06-.31.06-.31.06-.31.07-.31.07-.3.08-.31.08-.31.08-.3.09-.31.1-.3.09-.3.1-.3.11-.3.11-.3.11-.29.12-.3.12-.29.12-.29.13-.29.13-.29.14-.29.14-.28.14-.29.15-.28.15-.28.16-.28.16-.27 4.46-7.64v13.25l4.71-7.89zm8.65 57.98l-.12-.11.06.05.06.06zm135.02-88.97h.03l.02.01h.01l.02.01.01.01.02.01.01.01.02.01.01.01.01.01.01.02.01.01 1.86 2.83.14.22.14.22.14.23.13.22.14.23.12.22.13.23.12.23.12.23.12.23.11.24.11.23.11.24.11.23.1.24.1.24.1.24.09.24.1.25.08.24.09.24.08.25.08.25.08.24.07.25.07.25.07.25.07.25.06.26.06.25.06.25.05.26.05.25.05.26.04.26.04.25.04.26.04.26.03.26.03.26v.01l.02.2.01.2.01.2v.2l.01.2-.01.19-.01.2-.01.2-.02.2-.02.19-.02.2-.03.19-.04.2-.04.19-.04.19-.04.19-.06.19-.05.19-.06.19-.06.19-.07.18-.07.18-.08.18-.08.18-.08.18-.09.18-.09.17-.1.17-.1.17-.1.17-.11.17-.11.16-.11.16-.12.16-.12.16-.13.15-.13.16-.13.15-.05.05-.02.01-.01.01-.02.01-.01.01-.02.01-.02.01-.01.01h-.02l-.02.01-.02.01h-.01l-.02.01h-.02l-.02.01h-.02l-.01.01h-.04l-.02.01h-.13l-.02-.01h-.04l-.02-.01h-.03l-.02-.01-.02-.01h-.02l-1.75-.65.63 6.21.02.17.01.17.01.18.01.17v.18l.01.17-.01.17v.17l-.01.18-.01.17-.02.17-.01.17-.02.17-.03.18-.02.17-.03.17-.03.16-.04.17-.04.17-.04.17-.04.16-.05.17-.05.17-.05.16-.06.16-.06.16-.06.17-.06.16-.07.15-.07.16-.07.16-.07.16-.08.15-.08.15-.09.15-.08.16-.09.14-.09.15-.1.15-.02.03-.03.03-.03.04-.03.04-.04.03-.03.04-.04.03-.03.03-.04.03-.04.03-.04.02-.04.03-.05.02-.04.02-.04.02-.04.02-.05.02-.04.01-.05.02-.04.01-.05.01-.05.01h-.04l-.05.01h-.24l-.05-.01-.04-.01h-.05l-.05-.02-.05-.01-.04-.01-.05-.02-.04-.02-.05-.02-.04-.02-.05-.02-1.78-.99-.03-.01-.02-.02-.03-.01-.02-.01h-.03l-.03-.01h-.05l-.03-.01h-.02l-.03.01h-.05l-.03.01-.02.01h-.03l-.02.01-.02.01-.03.02-.02.01-.02.01-.02.02-.02.01-.02.02-.02.02-.02.02-.02.02-.01.02-.02.02-.01.02-.01.03-.01.02-.01.02-.01.03-.01.03v.02l-.01.03v.09l.32 11.56v.13l-.01.06-.01.07-.01.06-.01.06-.02.06-.02.06-.02.05-.02.06-.03.05-.03.06-.03.05-.04.05-.03.05-.04.04-.04.05-.04.04-.05.04-.04.04-.05.03-.05.04-.05.03-.05.03-.05.03-.06.02-.05.03-.06.02-.06.02-.05.01-.06.01-.06.02h-.07l-.06.01h-.12l-.07-.01h-.06l-.06-.01-.07-.02-1.82-.43-.03-.01h-.03l-.02-.01h-.1l-.03.01h-.02l-.02.01h-.03l-.02.01-.02.01-.03.01-.02.01-.02.01-.02.01-.02.01-.02.02-.02.01-.02.02-.02.01-.01.02-.02.02-.02.01-.01.02-.02.02-.01.02-.01.02-.01.03-.01.02-.01.02-.01.02-.01.03v.02l-.01.03v.02l-.01.03v9.89l-.01.18v.18l-.01.18-.01.18-.01.17-.02.18-.01.18-.02.18-.02.18-.02.17-.02.18-.03.18-.03.17-.02.18-.03.17-.04.18-.03.17-.04.18-.03.17-.04.18-.04.17-.05.17-.04.18-.05.17-.05.17-.05.17-.05.17-.05.17-.06.17-.05.17-.06.17-.06.17-.06.17-.07.16-.06.17-.07.17-.07.16-.04.1-.02.04-.03.06-.04.06-.03.05-.04.05-.04.05-.04.05-.04.05-.04.04-.05.04-.05.04-.05.04-.05.03-.05.03-.05.03-.05.03-.06.02-.06.03-.05.02-.06.01-.06.02-.06.01-.06.01-.06.01-.06.01h-.18l-.06-.01-.06-.01-.06-.01-.06-.01-.06-.02-.06-.02-.06-.02-.06-.02-.06-.03-.05-.03-.06-.03-.06-.04-2.09-1.43-.36 5.58-.01.19-.02.18-.02.18-.02.18-.03.18-.03.18-.03.18-.04.18-.04.18-.04.17-.05.18-.05.17-.06.18-.05.17-.06.17-.07.17-.06.17-.07.16-.08.17-.07.16-.08.16-.08.17-.09.15-.09.16-.09.16-.09.15-.1.16-.1.15-.1.15-.11.14-.11.15-.11.14-.11.14-.12.14-.12.14-.12.14-.13.13-.12.13-.02.01-.01.01-.01.01-.02.01-.01.01-.02.01h-.02l-.01.01-.02.01h-.02l-.02.01h-.01l-.02.01h-.04l-.01.01h-.13l-.02-.01h-.03l-.02-.01h-.02l-.02-.01h-.01l-.02-.01-.02-.01h-.02l-.01-.01-.02-.01-.02-.01-.01-.01-3.53-2.29-.01-.01H305.77l-.01.01-.01.01-.01.01v.01l-.01.01v9.36l-.01.27-.01.27-.01.27-.02.28-.02.27-.03.27-.03.27-.04.27-.04.26-.04.27-.05.27-.05.27-.05.26-.06.26-.07.27-.06.26-.07.26-.08.26-.08.26-.08.26-.09.25-.09.26-.09.25-.1.25-.1.25-.11.25-.11.25-.11.25-.12.24-.12.24-.13.25-.12.23-.14.24-.13.24-.14.23-.15.23-.14.23-.15.23-.16.23-2.1-1.4-.15-.11-.15-.11-.15-.11-.14-.11-.14-.12-.14-.12-.13-.13-.13-.12-.13-.13-.12-.14-.12-.13-.11-.14-.11-.14-.11-.15-.11-.15-.1-.14-.1-.16-.09-.15-.09-.16-.08-.15-.09-.16-.07-.17-.08-.16-.07-.17-.06-.16-.06-.17-.06-.17-.06-.18-.04-.17-.05-.18-.04-.17-.03-.18-.04-.18-.02-.18-.03-.18-.01-.18-.02-.19-.01-.18v-.37l.42-28.29v-.05l.01-.02v-.03l.01-.02.01-.02.01-.02.01-.02.01-.02.02-.01.01-.02.02-.01.02-.02.01-.01.02-.01.02-.01.02-.01h.02l.02-.01h.02l.02-.01H297.98l.02.01h.02l.02.01.02.01.02.01.02.01.02.01.02.01.01.02.02.01.02.02.01.02.01.02.01.02.01.03 5.9 14.97v-28.54l.01-.02v-.01l.01-.02v-.02l.01-.01.01-.01.01-.02.01-.01.01-.01.01-.01.02-.01.01-.01.01-.01.02-.01h.01l.02-.01h.01l.02-.01h.09l.02.01h.01l.02.01h.01l.01.01.02.01.01.01.01.01.02.01.01.02.01.01.01.02.01.01v.02l6.29 15.84v-25.23l.01-.03v-.02l.01-.02.01-.02.01-.02.01-.02.01-.02.02-.01.01-.02.02-.01.01-.02.02-.01.02-.01.02-.01.01-.01h.02l.02-.01h.02l.02-.01H311.26l.02.01h.02l.02.01.02.01.01.01.02.01.02.01.02.02.01.01.02.02.01.02.01.02.02.02.01.02 5.14 12.31-.93-20.61v-.03l.01-.03v-.03l.01-.03v-.03l.01-.03.01-.02.02-.03.01-.02.02-.03.01-.02.02-.02.02-.02.02-.01.03-.02.02-.01.02-.02.03-.01.02-.01.03-.01h.02l.03-.01h.03l.02-.01h.06l.02.01h.03l.03.01h.02l.03.01.02.02.03.01.02.01.03.02.02.02.02.02.02.02.02.03.02.03 4.38 7.1-.72-20.12v-.04l.01-.01v-.04l.01-.01.01-.02v-.01l.01-.02.01-.01.01-.01.01-.02.01-.01.02-.01.01-.01.01-.01h.02l.01-.01.01-.01h.02l.01-.01h.03l.02-.01h.03l.02.01h.05l.01.01.02.01h.01l.01.01.02.01.01.01.02.01.01.02.01.01.01.02 5.09 7.43.02.03.02.03.02.02.03.02.03.02.02.02.03.02.03.01.03.02.03.01h.03l.03.01.03.01h.09l.03-.01h.03l.03-.01h.03l.03-.01.03-.02.02-.01.03-.01.03-.02.02-.02.02-.02.03-.02.02-.02.02-.02.02-.03.01-.03.02-.02.01-.03.01-.03.01-.03.01-.04.01-.03v-15.11l.01-.02v-.02l.01-.01v-.02l.01-.01.01-.02.01-.01.01-.02.01-.01.01-.01.01-.01.01-.01.02-.01.01-.01.01-.01h.02l.01-.01.02-.01h.05l.01-.01h.03l.02.01zm-17.07 71.95l.12-.12h.01l.01-.01.02-.01.01-.02.02-.01-.32.3.13-.13zm7.45-11.02v-.02l-.03.09.03-.07zm9.46-29.19l.03-.05-.11.16.08-.11zm3.25-12.01l.09-.09.01-.01.02-.02.01-.01.02-.01.01-.01-.3.3.14-.15z" id="a"/><path d="M65.45 533.24c2.87 1.18 5.42 3.01 7.47 5.33 1.93 2.18-1.1-1.25-.59-.67a54.643 54.643 0 0 1 12.85 26.84c.43 2.46-.38-2.22.18 1.04l4.76 22.33 2.42 9.5a17.83 17.83 0 0 0 9.34 11.57c2.75 1.37-.12-.06 1.68.84a46.646 46.646 0 0 0 25.51 4.65c2.54-.26-.15.01 3.17-.33 5.9-.6 11.02-4.35 13.36-9.8 1.37-3.2.64-1.49 1.75-4.07 3.39-7.9 5.39-16.32 5.9-24.89.95-15.61 2.85-47.12 3.76-62.14a103.5 103.5 0 0 1 6.66-30.78c1.16-3.03-.31.82 1.04-2.69a48.263 48.263 0 0 1 15.22-20.67c1.98-1.55-.28.23 2.27-1.78a37.796 37.796 0 0 1 17.16-7.57c1.09-.19-1.69.28.28-.05 3.24-.54 6.54.52 8.87 2.84l.07.07a99.867 99.867 0 0 1 14.34 18.12c.87 1.42-1.17-1.88.07.12 2.76 4.47 7.2 7.63 12.33 8.77 2.9.64 4.76 1.06 7.95 1.76 4.27.95 8.72.68 12.84-.79 1.54-.55-1.63.58-.46.16 5.05-1.8 8.77-6.15 9.78-11.42.07-.4-.33 1.7 0 0 .24-1.27-.07-2.58-.86-3.6-1.32-1.72.25.32 0 0a20.214 20.214 0 0 0-17.42-7.88c-1.47.09 2.39-.17.28-.02-4.89.32-9.73-1.25-13.5-4.39-3.15-2.62-2.34-1.94-4.39-3.65a92.436 92.436 0 0 0-25.14-14.93c-1.02-.41 2.75 1.09 0 0a19.847 19.847 0 0 0-10.51-1.14c-2.61.43.3-.05-.98.16-8.06 1.32-16.21 1.98-24.37 1.98-.95 0 2.45 0 0 0-3.1 0-6.14-.84-8.79-2.44-1.19-.72-.91-.55-2.16-1.3a11.774 11.774 0 0 0-8.14-1.51c-.83.14 2.02-.36 1.44-.26-3.59.63-6.79 2.62-8.95 5.55-2.73 3.68-5.21 7.03-7.35 9.93a63.696 63.696 0 0 0-9.48 18.59c-1.26 3.98.64-2.02 0 0a86.527 86.527 0 0 0-2.82 40.52c.27 1.58.94 5.55 2.01 11.9 5.51 22.24 8.96 36.14 10.34 41.7a72.56 72.56 0 0 1 1.62 25.89c-.09.78.32-2.68.01-.08-.31 2.64-1.06 5.2-2.23 7.58-1.15 2.34-1.25 2.53-2 4.06-2.29 4.66-7 7.65-12.2 7.74-1.62.02.69-.01-1.25.02-4.24.07-8.2-2.14-10.37-5.79-1.49-2.51.7 1.18 0 0a79.989 79.989 0 0 1-10.01-26.93c-.38-2.14.51 2.88 0 0a80.7 80.7 0 0 0-6.57-20.5c-1.97-4.14-3.19-6.71-5.15-10.84a20.383 20.383 0 0 0-15.48-11.43c-1.94-.29-3.18-.47-6.67-.98-1.6-.23-3.04 1.01-3.04 2.62v-.64a3.1 3.1 0 0 0 1.93 2.87c1.31.54 1.39.57 2.22.91z" id="b"/><path d="M364.63 19.92l1.65 1.09 1.63 1.1 1.63 1.11 1.61 1.12 1.6 1.14 1.6 1.16 1.58 1.16 1.57 1.19 1.56 1.19 1.55 1.21 1.54 1.22 1.53 1.24 1.51 1.25 1.51 1.26 1.49 1.28 1.48 1.29 1.47 1.3 1.46 1.32 1.45 1.32 1.43 1.35 1.42 1.35 1.41 1.37 1.4 1.38 1.39 1.39 1.37 1.4 1.36 1.42 1.35 1.43 1.33 1.44 1.33 1.45 1.31 1.47 1.29 1.48 1.29 1.49 1.27 1.5 1.26 1.51 1.24 1.53 1.23 1.53 1.22 1.55 1.2 1.56 1.2 1.57.65 1.87.65 1.88.64 1.87.63 1.88.63 1.89.62 1.88.61 1.89.6 1.88.6 1.89.59 1.9.58 1.89.57 1.9.57 1.9.56 1.9.55 1.9.55 1.91.54 1.91.53 1.91.52 1.91.52 1.91.5 1.92.51 1.92.49 1.91.49 1.93.47 1.92.48 1.92.46 1.93.46 1.93.45 1.93.44 1.93.43 1.94.43 1.93.42 1.94.41 1.94.4 1.94.4 1.94.39 1.95.38 1.95.38 1.94.37 1.95 6.75 36.26-4.59-2.72-.21-.11-.21-.1-.21-.1-.21-.08-.22-.06-.21-.06-.22-.05-.22-.03-.21-.02-.22-.02h-.22l-.21.01-.22.01-.21.03-.21.04-.21.05-.2.05-.2.07-.2.08-.2.08-.19.09-.18.11-.19.11-.17.12-.17.12-.17.14-.16.14-.15.15-.15.16-.13.17-.13.17-.13.18-.11.19-.11.2-.09.2-.09.2-.08.22-.07.22-.05.22-.05.24-2.66 15.21v7.49l.01.44.01.44.02.44.03.44.04.44.04.43.06.44.06.43.07.43.07.43.09.43.09.42.1.42.11.42.11.42.13.42.13.41.14.41.14.41.16.41.16.4.17.4.17.4.19.39.19.39.2.39.2.38.21.38.22.37.23.38.23.36.25.37.24.36.26.35.26.35.27.35.27.34.29.34.28.33.3.33 2.46 2.68-36.31 61.86v-11.27l-.01-.15-.02-.14-.03-.15-.03-.14-.04-.13-.05-.14-.05-.13-.06-.13-.06-.12-.07-.12-.08-.11-.08-.11-.09-.11-.09-.1-.1-.1-.1-.09-.1-.09-.11-.08-.11-.08-.12-.07-.12-.06-.12-.06-.13-.06-.12-.05-.13-.04-.14-.03-.13-.03-.14-.03-.13-.01-.14-.01-.14-.01-.14.01-.14.01-.15.02-.14.03-.14.03-.14.04-.14.05-.14.06-8.76 3.89-.71.32-.71.33-.7.33-.69.35-.7.35-.68.35-.69.37-.68.37-.67.38-.67.39-.67.39-.66.41-.65.41-.66.41-.64.43-.64.43-.64.43-.63.45-.63.45-.62.46-.62.46-.61.48-.61.48-.6.48-.59.49-.59.5-.59.51-.58.51-.57.52-.57.53-.56.53-.56.54-.55.54-.54.55-.54.56-.54.56-.52.57-.52.58-.52.58-.51.59-15.08 17.66-6.96-1.35-.86-.16-.86-.16-.86-.14-.87-.14-.86-.14-.86-.12-.87-.12-.87-.11-.86-.1-.87-.1-.87-.09-.87-.08-.86-.07-.87-.07-.87-.05-.87-.05-.88-.05-.87-.03-.87-.03-.87-.02-.87-.01-.87-.01h-.87l-.88.01-.87.02-.87.02-.87.04-.87.03-.87.05-.87.06-.87.06-.87.07-.87.08-.87.08-.87.09-.87.1-.86.11-.87.11-.87.13-.86.13v8.74l-11.88-7.21-.33-.2-.34-.19-.34-.18-.34-.18-.35-.17-.35-.15-.35-.16-.35-.14-.36-.14-.36-.13-.36-.12-.36-.11-.37-.1-.37-.1-.37-.09-.37-.08-.37-.08-.37-.06-.38-.06-.37-.05-.38-.04-.38-.04-.38-.03-.38-.01-.37-.01-.38-.01-.38.01-.39.01-.38.02-.38.03-.37.04-.38.04-.38.06-.38.06-.38.07-.37.08-.38.08-.37.1-.38.1-.37.11-20.47 6.34 7.49-13.38.05-.1.05-.1.03-.1.04-.1.02-.11.02-.1.01-.1.01-.1v-.1l-.01-.1-.01-.1-.01-.1-.03-.1-.02-.09-.04-.09-.04-.1-.04-.08-.04-.09-.06-.08-.05-.08-.06-.08-.07-.07-.07-.08-.07-.06-.07-.06-.08-.06-.08-.06-.09-.05-.09-.04-.09-.04-.09-.04-.1-.03-.1-.02-.1-.02-.11-.01-.1-.01h-.11l-.11.01-.11.01-.11.02-5.56 1.19.8-3.81.04-.22.04-.22.04-.22.03-.21.04-.22.02-.22.03-.23.02-.22.02-.22.01-.22.01-.22.01-.22v-.22l.01-.22-.01-.22v-.22l-.01-.22-.01-.22-.02-.22-.02-.22-.02-.22-.02-.22-.03-.22-.03-.22-.04-.22-.03-.22-.04-.21-.05-.22-.05-.21-.05-.22-.05-.21-.06-.22-.06-.21-.06-.21-.07-.22-.07-.21-.07-.21-.08-.21-.08-.2-.08-.21-2.03-4.98 32.95-53.79-8.06 22.47-.2.56-.19.56-.19.56-.18.57-.18.56-.17.57-.17.57-.17.57-.16.57-.15.57-.15.58-.14.57-.14.58-.14.58-.12.57-.13.58-.12.58-.11.58-.11.59-.1.58-.1.58-.1.59-.09.58-.08.59-.08.59-.07.59-.07.58-.07.59-.05.59-.06.59-.05.59-.04.6-.04.59-.03.59-.03.59-.02.6-.02.59-.01.59-.01.6v.59l20.27-24.17 13.35-37.02 1.11-.92 1.11-.93 1.1-.94 1.09-.94 1.08-.95 1.08-.96 1.07-.97 1.06-.98 1.06-.98 1.05-.99 1.04-1 1.04-1 1.02-1.02 1.02-1.02 1.01-1.02 1.01-1.04.99-1.04.99-1.05.98-1.06.98-1.06.96-1.07.96-1.08.95-1.08.94-1.09.94-1.1.92-1.1.92-1.12.91-1.11.9-1.13.9-1.13.88-1.14.88-1.14.87-1.16.86-1.15.86-1.17.84-1.17.84-1.18.83-1.18.81-1.19.82-1.2.32-.47 14.79-26.23 4.71 11.44 9.41-13.45.16-.91.17-.9.16-.89.16-.88.15-.88.16-.87.16-.86.15-.85.15-.85.15-.84.15-.83.15-.83.15-.82.14-.81.15-.81.14-.79.14-.79.14-.79.14-.77.13-.77.14-.76.13-.75.13-.75.13-.74.13-.73.13-.73.13-.72.12-.71.13-.7.12-.7.12-.69.12-.68.12-.67.11-.67.12-.66.11-.66.11-.64.11-.64.11-.63.11-.63.18-1.07.17-1.05.16-1.04.14-1.02.14-1 .13-.99.11-.96.11-.95.1-.93.09-.91.08-.89.07-.87.07-.85.06-.83.05-.81.05-.79.04-.77.04-.75.03-.72.02-.71.02-.68.02-.66.01-.64.01-.62.01-.59.01-.57V88.87l.01-.27v-.25l.02-.22.01-.34.02-.34.01-.35.01-.36v-.73l-.01-.38v-.38l-.01-.4-.02-.39-.02-.41-.02-.41-.02-.43-.03-.42-.04-.44-.03-.44-.04-.45-.05-.46-.05-.46-.05-.47-.05-.48-.06-.48-.06-.5-.07-.49-.07-.51-.07-.51-.08-.53-.08-.52-.08-.54-.09-.54-.09-.55-.09-.56-.1-.56-.1-.57-.11-.58-.11-.58-.11-.6-.12-.6-.12-.6-.12-.62-.29-1.37-.32-1.37-.33-1.35-.36-1.36-.38-1.34-.4-1.34-.42-1.33-.45-1.32-.46-1.31-.49-1.3-.51-1.29-.53-1.29-.55-1.27-.57-1.27-.59-1.26-.61-1.24-.63-1.24-.65-1.22-.67-1.21-.69-1.2-.71-1.19-.73-1.18-.75-1.17-.76-1.15-.79-1.15-.81-1.13-.82-1.11-.84-1.11-.86-1.09-.88-1.07-.9-1.06-.92-1.05-.93-1.04-.95-1.02-.97-1-.99-.99-1-.97-1.02-.96-1.04-.94-1.05-.93-14.62-12.63 14.91 9.53 1.66 1.06zm-231.76 2.97l-1.04.94-1.02.96-1.01.97-.98.99-.97 1-.95 1.02-.94 1.04-.91 1.05-.9 1.06-.88 1.07-.86 1.09-.84 1.11-.83 1.11-.8 1.13-.79 1.15-.77 1.15-.74 1.17-.73 1.18-.71 1.19-.69 1.2-.67 1.21-.65 1.22-.63 1.24-.62 1.24-.59 1.26-.57 1.27-.54 1.27-.53 1.29-.51 1.29-.49 1.3-.46 1.31-.45 1.32-.42 1.33-.4 1.34-.38 1.34-.36 1.36-.33 1.35-.32 1.37-.29 1.37-.12.62-.12.6-.12.6-.11.6-.11.58-.11.58-.1.57-.1.56-.09.56-.09.55-.09.54-.09.54-.08.52-.07.53-.08.51-.06.51-.07.49-.06.5-.06.48-.06.48-.05.47-.04.46-.05.46-.04.45-.03.44-.04.44-.03.42-.02.43-.02.41-.02.41-.02.39-.01.4-.01.38V86.74l.01.36.01.35.01.34.02.34.01.22.01.25.01.27v4.69l.01.57v.59l.01.62.02.64.02.66.02.68.02.71.03.72.04.75.04.77.05.79.05.81.06.83.06.85.08.87.08.89.09.91.1.93.11.95.11.96.13.99.13 1 .15 1.02.16 1.04.17 1.05.18 1.07.11.63.11.63.11.64.11.64.11.66.12.66.11.67.12.67.12.68.12.69.12.7.13.7.12.71.13.72.13.73.12.73.14.74.13.75.13.75.14.76.13.77.14.77.14.79.14.79.14.79.15.81.14.81.15.82.15.83.15.83.15.84.15.85.15.85.16.86.15.87.16.88.16.88.16.89.16.9.17.91 9.41 13.45 4.71-11.44 14.79 26.23.32.47.81 1.2.82 1.19.83 1.18.84 1.18.84 1.17.86 1.17.86 1.15.87 1.16.87 1.14.89 1.14.89 1.13.91 1.13.91 1.11.92 1.12.92 1.1.94 1.1.94 1.09.95 1.08.96 1.08.96 1.07.98 1.06.98 1.06.99 1.05.99 1.04 1.01 1.04 1.01 1.02 1.02 1.02 1.02 1.02 1.04 1 1.04 1 1.05.99 1.05.98 1.07.98 1.07.97 1.07.96 1.09.95 1.09.94 1.1.94 1.11.93 1.11.92 13.35 37.02 20.27 24.17v-.59l-.01-.6-.01-.59-.02-.59-.02-.6-.03-.59-.03-.59-.04-.59-.05-.6-.04-.59-.06-.59-.06-.59-.06-.59-.07-.58-.07-.59-.08-.59-.09-.59-.08-.58-.1-.59-.1-.58-.1-.58-.11-.59-.11-.58-.12-.58-.13-.58-.13-.57-.13-.58-.14-.58-.14-.57-.15-.58-.16-.57-.16-.57-.16-.57-.17-.57-.17-.57-.18-.56-.18-.57-.19-.56-.2-.56-.19-.56-8.06-22.47 32.95 53.79-2.03 4.98-.09.21-.08.2-.07.21-.07.21-.07.21-.07.22-.06.21-.06.21-.06.22-.06.21-.05.22-.04.21-.05.22-.04.21-.04.22-.03.22-.03.22-.03.22-.02.22-.03.22-.01.22-.02.22-.01.22-.01.22-.01.22v.44l.01.22.01.22.01.22.01.22.02.22.02.22.02.23.03.22.03.22.04.21.04.22.04.22.04.22.8 3.81-5.56-1.19-.11-.02-.11-.01-.11-.01h-.11l-.11.01-.1.01-.1.02-.1.02-.1.03-.09.04-.09.04-.09.04-.09.05-.08.06-.08.06-.07.06-.08.06-.06.08-.07.07-.06.08-.06.08-.05.08-.04.09-.05.08-.03.1-.04.09-.02.09-.03.1-.01.1-.02.1v.2l.01.1.01.1.02.1.02.11.03.1.04.1.05.1.05.1 7.49 13.38-20.47-6.34-.38-.11-.37-.1-.37-.1-.38-.08-.37-.08-.38-.07-.38-.06-.38-.06-.38-.04-.38-.04-.38-.03-.38-.02-.38-.01-.38-.01-.38.01-.38.01-.38.01-.37.03-.38.04-.38.04-.37.05-.38.06-.37.06-.38.08-.37.08-.37.09-.36.1-.37.1-.36.11-.36.12-.36.13-.36.14-.35.14-.36.16-.34.15-.35.17-.34.18-.34.18-.34.19-.33.2-11.88 7.21v-8.74l-.86-.13-.87-.13-.87-.11-.86-.11-.87-.1-.87-.09-.87-.08-.87-.08-.87-.07-.87-.06-.87-.06-.87-.05-.87-.03-.87-.04-.88-.02-.87-.02-.87-.01h-.87l-.87.01-.87.01-.87.02-.88.03-.87.03-.87.05-.87.05-.87.05-.87.07-.87.07-.86.08-.87.09-.87.1-.87.1-.86.11-.87.12-.86.12-.86.14-.87.14-.86.14-.86.16-.86.16-6.96 1.35-15.09-17.66-.5-.59-.52-.58-.52-.58-.53-.57-.53-.56-.54-.56-.54-.55-.55-.54-.56-.54-.56-.53-.57-.53-.57-.52-.58-.51-.59-.51-.59-.5-.59-.49-.6-.48-.61-.48-.61-.48-.62-.46-.62-.46-.63-.45-.63-.45-.64-.43-.64-.43-.65-.43-.65-.41-.65-.41-.66-.41-.67-.39-.67-.39-.67-.38-.68-.37-.69-.37-.69-.35-.69-.35-.69-.35-.7-.33-.71-.33-.71-.32-8.76-3.89-.14-.06-.14-.05-.14-.04-.14-.03-.15-.03-.14-.02-.14-.01-.14-.01-.14.01-.14.01-.14.01-.13.03-.14.03-.13.03-.13.04-.13.05-.12.06-.12.06-.12.06-.12.07-.11.08-.11.08-.1.09-.11.09-.09.1-.09.1-.09.11-.08.11-.08.11-.07.12-.06.12-.06.13-.06.13-.04.14-.04.13-.04.14-.02.15-.02.14-.01.15-.01.16v11.11L54.4 226.52l2.47-2.68.29-.33.29-.33.28-.34.28-.34.27-.35.26-.35.25-.35.25-.36.24-.37.24-.36.22-.38.22-.37.22-.38.2-.38.2-.39.19-.39.18-.39.18-.4.17-.4.16-.4.15-.41.15-.41.14-.41.13-.41.12-.42.12-.42.11-.42.1-.42.09-.42.09-.43.07-.43.07-.43.06-.43.06-.44.04-.43.04-.44.03-.44.02-.44.01-.44V200.46l-2.65-15.21-.05-.24-.06-.22-.06-.22-.08-.22-.09-.2-.1-.2-.1-.2-.12-.19-.12-.18-.13-.17-.14-.17-.14-.16-.15-.15-.16-.14-.17-.14-.17-.12-.18-.12-.18-.11-.18-.11-.19-.09-.2-.08-.2-.08-.2-.07-.21-.05-.2-.05-.21-.04-.22-.03-.21-.01-.22-.01h-.21l-.22.02-.22.02-.21.03-.22.05-.21.06-.22.06-.21.08-.21.1-.21.1-.21.11-4.6 2.72 6.76-36.26.37-1.95.37-1.94.39-1.95.39-1.95.39-1.94.41-1.94.41-1.94.42-1.94.43-1.93.43-1.94.44-1.93.45-1.93.46-1.93.46-1.93.47-1.92.48-1.92.49-1.93.49-1.91.5-1.92.51-1.92.52-1.91.52-1.91.53-1.91.54-1.91.55-1.91.55-1.9.56-1.9.56-1.9.58-1.9.58-1.89.59-1.9.6-1.89.6-1.88.61-1.89.62-1.88.63-1.89.63-1.88.64-1.87.65-1.88.65-1.87 1.19-1.57 1.21-1.56 1.22-1.55 1.23-1.53 1.24-1.53 1.26-1.51 1.27-1.5 1.29-1.49 1.29-1.48 1.31-1.47 1.33-1.45 1.33-1.44 1.35-1.43 1.36-1.42 1.37-1.4 1.39-1.39 1.4-1.38 1.41-1.37 1.42-1.35 1.43-1.35 1.45-1.32 1.46-1.32 1.47-1.3 1.48-1.29 1.49-1.28 1.5-1.26 1.52-1.25 1.53-1.24 1.54-1.22 1.55-1.21 1.56-1.19 1.57-1.19 1.58-1.16 1.59-1.16 1.61-1.14 1.61-1.12 1.63-1.11 1.63-1.1 1.65-1.09 1.65-1.06 14.92-9.53-14.62 12.63-1.05.93z" id="c"/><path d="M267.65 376.03l.16.65.15.66.15.65.15.66.14.65.13.66.13.66.12.66.12.66.12.66.1.67.11.66.09.66.1.67.08.66.08.67.08.67.07.66.07.67.06.67.05.67.05.67.05.67.04.67.03.67.03.67.03.67.01.67.02.67.01.68v.67l-.01 1.39-.03 1.39-.05 1.39-.06 1.39-.09 1.39-.1 1.38-.12 1.38-.15 1.38-.16 1.38-.17 1.38-.2 1.37-.22 1.37-.23 1.36-.25 1.36-.28 1.36-.28 1.36-.31 1.35-.33 1.34-.34 1.34-.37 1.34-.38 1.33-.39 1.33-.42 1.32-.44 1.32-.45 1.31-.47 1.31-.49 1.3-.51 1.29-.52 1.29-.54 1.28-.56 1.27-.58 1.27-1.17 2.51v-2.62l-.01-1.06-.02-1.07-.02-1.07-.03-1.06-.04-1.07-.04-1.06-.05-1.07-.05-1.06-.07-1.07-.06-1.06-.08-1.07-.08-1.06-.09-1.06-.09-1.06-.11-1.06-.1-1.06-.12-1.06-.12-1.06-.13-1.06-.13-1.06-.14-1.06-.15-1.05-.15-1.06-.16-1.05-.17-1.05-.17-1.06-.18-1.05-.19-1.05-.19-1.05-.2-1.05-.2-1.04-.01-.04-.2-.94-.2-.94-.2-.92-.2-.9-.19-.9-.2-.89-.19-.87-.19-.86-.18-.84-.19-.83-.18-.81-.18-.8-.17-.77-.17-.76-.17-.74-.16-.72-.16-.7-.15-.68-.15-.66-.14-.63-.13-.62-.14-.58-.12-.56-.12-.54-.11-.51-.11-.48-.1-.46-.09-.42-.08-.4-.08-.37-.07-.33-.06-.31 12.34-20 .79-1.1 2.97 11.54.17.65zm-31.8-17.19l10.51 20.25.09.18.09.19.08.18.09.19.07.18.08.19.07.19.07.19.07.19.06.2.06.19.05.19.05.2.05.19.04.2.05.2.03.2.04.19.03.2.02.2.03.2.02.2.02.2.01.2.01.2v.21l.01.2v.2l-.01.2-.01.2-.01.2-.01.21-.02.2-.02.2-.03.2-.03.2-.03.2-.04.2-.04.2-.04.2-11.51 50.22-1.56-5.47-.29-1.01-.27-1.01-.27-1.01-.26-1.01-.26-1.01-.25-1.01-.24-1.02-.23-1.01-.23-1.02-.22-1.02-.21-1.02-.21-1.03-.2-1.02-.19-1.02-.18-1.03-.18-1.03-.17-1.03-.16-1.03-.15-1.03-.15-1.03-.14-1.03-.14-1.04-.12-1.03-.12-1.04-.12-1.03-.1-1.04-.1-1.04-.09-1.04-.08-1.04-.08-1.04-.07-1.04-.06-1.04-.05-1.04-.05-1.04-.04-1.05-.03-1.04-.03-1.04-.02-1.05-.01-1.04v-1.05l-.31.36-.3.36-.3.36-.29.36-.28.37-.28.37-.28.38-.27.38-.26.38-.26.39-.26.39-.24.39-.25.39-.24.4-.23.41-.23.4-.22.41-.21.41-.21.41-.21.42-.2.42-.19.42-.19.42-.18.43-.18.43-.17.43-.16.44-.16.43-.16.44-.14.44-.14.44-.14.45-.13.45-.12.45-.12.45-.11.45-.11.45-.1.46-.09.46-.09.46-.05.29-.02.08-.01.07-.01.08-.02.07-.01.07-.01.08-.01.07-.01.08-.01.07-.01.08-.01.07-.01.08-.01.07-.01.07-.01.08-.01.07-.01.08v.07l-.01.08-.01.07v.08l-.01.07-.01.08v.07l-.01.08v.07l-.01.08V409.52l-.01.07V409.74l-.01.08V410.2l-.01.07V433.84l-.42-.81-.41-.81-.41-.82-.4-.82-.38-.83-.38-.83-.37-.83-.36-.84-.35-.84-.34-.84-.34-.85-.32-.84-.31-.86-.31-.85-.29-.86-.29-.87-.27-.86-.27-.87-.26-.87-.25-.87-.24-.88-.23-.88-.22-.88-.21-.88-.2-.89-.19-.89-.18-.89-.17-.89-.16-.9-.16-.89-.14-.9-.13-.9-.13-.9-.11-.91-.11-.9-.09-.91-.08-.91-.08-.91-.06-.91-.06-.91-.29-5.22-.04-.92-.04-.93-.04-.93-.02-.92-.02-.93-.01-.92v-.93l.01-.93.01-.92.02-.93.03-.92.03-.93.05-.92.05-.93.06-.92.06-.92.08-.92.08-.92.09-.92.09-.92.11-.92.11-.92.11-.92.13-.92.13-.91.14-.91.15-.92.16-.91.16-.91.17-.91.18-.91.18-.91.2-.9.2-.91.21-.9.21-.9.22-.9.23-.9.24-.89.24-.9 14.34 28 7.33-26.33zm38.4 28.2l-.06-.32-.05-.32-.05-.31-.04-.32-.04-.32-.03-.32-.02-.32-.02-.32-.01-.32-.01-.32.01-.32v-.32l.02-.32.02-.32.03-.32.03-.32.04-.32.04-.32.06-.31.05-.32.07-.31.07-.31.07-.32.09-.31.09-.31.09-.3.1-.31.11-.3.11-.31.12-.3 6.99-17.08.35.21.35.2.33.21.32.21.32.21.3.22.29.22.29.23.27.22.27.23.25.24.24.24.24.24.22.24.21.25.21.25.19.25.18.26.18.26.16.26.15.27.14.27.14.27.12.28.11.28.11.29.09.28.08.29.07.3.07.29.05.3.04.31.03.2.03.29.05.38.05.45.07.53.07.59.08.65.08.71.09.75.1.8.1.83.1.86.1.89.11.9.11.92.11.92.1.92.11.91.11.91.1.88.1.86.1.84.09.79.08.75.08.71.08.65.06.59.06.53.05.46.04.37.02.3.02.2.07 1.49.02 1.49-.04 1.5-.08 1.49-.13 1.49-.18 1.48-.22 1.49-.27 1.49-.3 1.48-.35 1.48-.38 1.48-.41 1.47-.45 1.47-.47 1.47-.51 1.46-.53 1.46-.55 1.45-.58 1.45-.59 1.45-.62 1.43-.63 1.44-.64 1.42-.66 1.42-.67 1.41-.67 1.41-.68 1.4-.69 1.39-.68 1.38-.69 1.38-.69 1.36-.68 1.36-.67 1.34-.53 1.07 1.33-22.33v-4.58l-.01-.76-.02-.76-.02-.76-.02-.75-.03-.76-.04-.76-.04-.75-.05-.76-.06-.76-.06-.75-.06-.75-.07-.76-.08-.75-.08-.75-.09-.75-.09-.76-.1-.75-.11-.75-.11-.74-.11-.75-.12-.75-.13-.75-.13-.74-.14-.75-.15-.74-.15-.74-.15-.74-.16-.74-.17-.74-.17-.74-.18-.74.16.66-.07-.32-.07-.31zm32.99-16.88l.18.51.18.5.17.51.17.51.15.51.16.51.14.52.13.52.13.52.12.52.12.52.11.52.1.53.09.53.08.52.08.53.07.53.07.53.05.53.05.54.04.53.04.53.02.54.02.53.01.54.01.53-.01.54-.01.54v.21l-.03.4-.07.76-.07.76-.08.76-.09.75-.09.76-.11.75-.12.75-.12.75-.13.75-.14.75-.15.74-.16.75-.16.74-.17.74-.19.73-.19.74-.2.73-.2.73-.22.73-.22.73-.24.72-.24.72-.24.72-.26.72-.27.71-.27.71-.28.71-.29.7-.3.7-9.95 23.07 2.67-25.34v-2.96l-.01-.79-.02-.79-.02-.79-.03-.79-.04-.79-.04-.8-.04-.79-.06-.78-.06-.79-.06-.79-.08-.79-.07-.79-.09-.78-.09-.79-.1-.78-.1-.79-.11-.78-.12-.78-.12-.79-.13-.78-.13-.78-.15-.77-.14-.78-.16-.78-.16-.77-.16-.78-.18-.77-.17-.77-.19-.77-.19-.77-.08-.33-.07-.32-.06-.33-.05-.32-.04-.33-.04-.33-.02-.32-.02-.33-.01-.33v-.65l.02-.33.02-.33.03-.32.04-.33.05-.32.05-.32.07-.32.07-.32.08-.32.08-.31.1-.32.1-.31.11-.31.12-.3.13-.31.14-.3.14-.3.15-.29.16-.29.17-.29 6.58-11.05 4.91 12.49.2.5zm-101.64.11l.13.27.13.28.12.28.11.28.11.29.09.28.1.29.08.29.08.3.07.29.06.29.05.3.05.3.04.3.04.3.02.3.02.3.02.3v.6l-.01.3-.02.3-.02.3-.03.3-.04.31-.04.3-.06.29-.06.3-.07.3-.07.3-.08.29-.12.4-.25.87-.25.88-.23.87-.23.88-.22.89-.21.88-.21.88-.19.89-.19.89-.18.89-.18.89-.16.89-.16.9-.15.89-.14.9-.13.9-.13.89-.11.9-.11.91-.1.9-.1.9-.08.9-.08.91-.07.91-.06.9-.05.91-.04.91-.04.9-.03.91-.02.91-.01.91-.01.91v19.03l-.8-1.15-.78-1.16-.76-1.17-.74-1.19-.72-1.2-.69-1.21-.67-1.22-.64-1.24-.63-1.24-.6-1.26-.57-1.27-.55-1.27-.53-1.29-.51-1.29-.48-1.3-.46-1.31-.43-1.32-.41-1.33-.39-1.34-.36-1.34-.33-1.35-.32-1.35-.28-1.36-.27-1.37-.23-1.37-.22-1.38-.18-1.38-.16-1.39-.14-1.39-.11-1.4-.09-1.4-.06-1.4-.06-1.92-.01-.3v-.29l-.01-.3.01-.3v-.29l.01-.3.01-.29.01-.3.02-.29.02-.3.02-.29.03-.29.02-.3.04-.29.03-.29.04-.3.04-.29.04-.29.05-.29.05-.29.06-.29.05-.29.06-.29.06-.29.07-.29.07-.28.07-.29.07-.28.08-.29.08-.28.09-.29.08-.28 6.91-22.12 9.28 17.5.14.27zm116.6-14.02l.33 1.15.31 1.12.3 1.1.29 1.05.28 1.03.27.99.25.97.23.93.23.89.21.87.2.83.19.8.17.77.16.74.14.7.14.67.12.64.11.61.09.57.08.54.07.51.06.48.04.45.03.41.02.38V381.2l-.01 1.56-.07 1.55-.13 1.53-.18 1.52-.24 1.5-.28 1.5-.33 1.48-.38 1.47-.42 1.47-.46 1.45-.5 1.45-.53 1.43-.56 1.43-.59 1.43-.62 1.42-.64 1.41-.66 1.41-.68 1.4-.69 1.4-.7 1.4-.72 1.39-.72 1.4-.73 1.39-.72 1.39-.73 1.4-.72 1.39-.71 1.4 1.33-17.17 1.33-17.5-.99-12.34-.02-.32-.01-.31-.01-.31-.01-.32.01-.31.01-.32.01-.31.02-.31.03-.31.04-.31.04-.31.04-.31.05-.31.06-.31.07-.3.07-.31.08-.3.08-.3.09-.3.09-.3.1-.3.11-.29.11-.29.12-.29.12-.29.13-.29.14-.28 5.46-11.11.35 1.22.35 1.19zM148.65 335.5l.64.78.12.16.13.16.12.16.12.17.12.16.12.17.12.17.11.17.11.17.11.17.1.17.11.18.1.17.1.18.1.18.09.18.09.18.09.18.09.18.09.18.08.19.08.18.08.19.08.19.07.19.07.19.07.19.07.19.07.19.06.19.06.2.06.19.05.2.05.2.05.19.05.2.05.2.04.2.04.2.04.2.75 4.16 4.25-7.5.75 1.14.14.23.15.23.15.23.14.24.14.23.14.24.14.23.14.24.13.24.13.24.13.24.13.24.13.24.13.24.12.24.12.25.12.24.12.25.11.25.12.25.11.24.11.25.11.25.11.26.1.25.1.25.11.25.1.26.09.25.1.26.09.26.09.25.09.26.09.26.09.26.08.26.08.26.08.26.08.27.08.26.98 3.45 3.75-7 .88 1.31.13.2.13.2.12.2.13.2.12.2.12.2.13.2.12.2.11.2.12.21.11.2.12.21.11.2.11.21.11.21.11.21.1.21.11.21.1.21.1.21.1.22.1.21.09.21.1.22.09.21.09.22.09.22.09.21.09.22.08.22.09.22.08.22.08.22.08.22.08.23.07.22.08.22.07.23.07.22.07.23 1.12 3.71 4.5-13.5 7.13 15.64.09.2.09.2.08.21.08.2.08.21.08.21.07.2.07.21.07.21.06.21.06.22.06.21.05.21.05.21.05.22.05.21.04.22.04.21.04.22.03.22.03.21.03.22.02.22.02.22.02.22.02.22.01.22.01.22v.22l.01.22v.22l-.01.22v.22l-.01.22-.01.22-.02.22-.02.22-.02.22-.03.22-.02.22-.31 2.25-.09.67-.09.68-.08.67-.08.68-.08.68-.08.67-.07.68-.07.68-.07.67-.06.68-.07.68-.05.67-.06.68-.05.68-.05.68-.05.68-.04.68-.05.68-.04.67-.03.68-.03.68-.03.68-.03.68-.03.68-.02.68-.02.68-.01.68-.02.68-.01.68v.68l-.01.68v1.36l.01.68v.68l.01.68.02.68.01.68.02.68.02.69.54 16.11-4.86-9.65-.27-.53-.26-.53-.25-.54-.25-.53-.25-.54-.24-.54-.24-.55-.23-.54-.22-.55-.23-.55-.21-.55-.22-.55-.2-.56-.21-.55-.19-.56-.2-.56-.18-.56-.19-.56-.18-.56-.17-.57-.17-.57-.16-.57-.16-.56-.15-.58-.15-.57-.15-.57-.14-.58-.13-.57-.13-.58-.12-.58-.12-.58-.12-.58-.11-.58-.1-.59-.1-.58-.09-.59-.09-.58-.08-.59-.08-.59-.08-.59-.82-6.79-.12.23-.12.22-.12.23-.11.22-.12.23-.11.23-.11.23-.11.23-.11.23-.1.23-.1.24-.1.23-.1.24-.1.23-.09.24-.09.24-.09.23-.09.24-.08.24-.08.24-.08.24-.08.25-.08.24-.07.24-.07.25-.07.24-.07.25-.07.24-.06.25-.06.25-.06.24-.05.25-.06.25-.05.25-.05.25-.05.25-.04.25-.04.25-.04.26-.04.25-2.01 13.65-3.03-9.1-.04-.11-.03-.11-.04-.1-.03-.11-.03-.11-.04-.11-.03-.1-.03-.11-.03-.11-.03-.11-.03-.11-.04-.11-.02-.1-.03-.11-.03-.11-.03-.11-.03-.11-.03-.11-.02-.11-.03-.11-.03-.11-.02-.11-.03-.11-.02-.11-.03-.11-.02-.11-.02-.11-.02-.11-.03-.11-.02-.11-.02-.11-.02-.11-.02-.11-.02-.11-.02-.11-.02-.12-.02-.11-.01-.11-.02-.11-.02-.11-2.17-14.52-3 12.5-1.94-5.73-.15-.45-.15-.45-.14-.45-.15-.46-.13-.45-.14-.45-.13-.46-.13-.45-.13-.46-.12-.45-.12-.46-.12-.46-.11-.46-.11-.46-.11-.46-.11-.46-.1-.46-.1-.46-.09-.46-.09-.47-.09-.46-.09-.47-.08-.46-.08-.47-.08-.46-.08-.47-.07-.47-.06-.47-.07-.46-.06-.47-.06-.47-.06-.47-.05-.47-.05-.47-.04-.47-.05-.47-.04-.48-.03-.47-.04-.47-.03-.47-.17-2.76-4 11V383l-3.25-7.22-.13-.27-.12-.28-.11-.28-.12-.27-.11-.28-.11-.28-.11-.28-.1-.28-.1-.28-.1-.29-.1-.28-.1-.29-.09-.28-.09-.29-.09-.28-.08-.29-.08-.29-.08-.29-.08-.29-.07-.29-.07-.29-.07-.29-.07-.29-.06-.29-.07-.3-.05-.29-.06-.3-.05-.29-.06-.3-.04-.29-.05-.3-.04-.3-.04-.29-.04-.3-.04-.3-.03-.3-.03-.3-.03-.29-.02-.3-.02-.3-.59-8.46-.98 1.35-.13.16-.11.17-.12.17-.12.18-.11.17-.11.17-.1.18-.1.18-.11.18-.09.18-.1.18-.09.18-.09.19-.09.18-.08.19-.09.19-.07.19-.08.19-.07.19-.08.19-.06.2-.07.19-.06.2-.06.19-.06.2-.05.2-.05.2-.05.2-.05.2-.04.2-.04.2-.04.2-.03.2-.03.21-.03.2-.02.21-.03.2-.02.21-.01.2-.01.21-.52 9.02-3.48-9.39-.11-.3-.11-.3-.1-.31-.1-.3-.09-.31-.1-.31-.08-.3-.09-.31-.08-.31-.08-.31-.07-.31-.07-.31-.07-.32-.06-.31-.06-.31-.06-.32-.05-.31-.05-.32-.04-.31-.04-.32-.04-.32-.03-.31-.03-.32-.03-.32-.02-.32-.02-.32-.02-.31-.01-.32-.01-.32v-.96l.01-.32.01-.32.01-.32.02-.32.02-.32.03-.32.03-.32.03-.32.1-.94.02-.2.03-.2.02-.21.03-.2.03-.2.02-.21.03-.2.04-.2.03-.2.03-.2.04-.21.03-.2.04-.2.04-.2.04-.2.04-.2.04-.2.04-.2.05-.2.04-.2.05-.2.05-.2.05-.2.05-.19.05-.2.05-.2.06-.2.05-.19.06-.2.06-.2.05-.19.06-.2.06-.2.07-.19.06-.19.06-.2.07-.19.07-.2.07-.19.06-.19 3.85-10.64 4.5 13.75 5.75-10.5zm187.34 28.64l.14 1.43.11 1.43.08 1.43.04 1.43.01 1.43-.02 1.43-.06 1.43-.09 1.43-.12 1.42-.16 1.42-.19 1.42-.23 1.41-.25 1.41-.29 1.4-.33 1.39-.35 1.39-.39 1.38-.43 1.37-.45 1.37-3.55 10.21v-19.65l-.01-1.11-.03-1.11-.02-1.11-.04-1.11-.05-1.11-.05-1.11-.07-1.11-.07-1.11-.08-1.1-.08-1.11-.1-1.11-.1-1.1-.12-1.11-.12-1.1-.13-1.1-.13-1.11-.15-1.1-.15-1.1-.16-1.1 6.33-10 1.68 12.21.18 1.43zm10.23-4.39l-.02 1.68-.04 1.68-.07 1.68-.11 1.68-.13 1.68-.16 1.67-.19 1.67-.23 1.66-.25 1.66-.27 1.66-.31 1.65-.34 1.65-.37 1.64-.39 1.63-.43 1.63-.45 1.62-.48 1.61-.51 1.6-1-13.66-.35-5.11-.05-.63-.06-.64-.06-.63-.08-.63-.08-.63-.09-.63-.09-.62-.11-.63-.11-.62-.12-.63-.13-.62-.14-.62-.15-.61-.15-.62-.17-.61-.17-.61-.17-.61-.19-.61-1.03-3.28 5.25-12.75 4 11.75v4.5zm5.28-21.41l.05.01.06.02.05.02.04.03.05.04.04.04.03.05.03.05.03.06.62 1.78.56 1.8.5 1.82.43 1.82.37 1.84.3 1.85.24 1.85.17 1.86.11 1.87.04 1.87-.02 1.86-.08 1.87-.15 1.86-.22 1.86-.28 1.86-.34 1.84-.41 1.84-.47 1.82-.54 1.82-3.92 12.35v-22l-1-12.25-1.05-4.17-.04-.21-.04-.21-.03-.21-.02-.21-.01-.21v-.21l.01-.21.02-.21.03-.21.03-.21.05-.2.06-.21.06-.2.07-.2.09-.19.09-.19.1-.19.11-.18.11-.18 3.57-5.19.04-.05.04-.04.05-.04.05-.03.05-.02.05-.02.05-.01.06-.01h.05l.06.01zm-41.81 47.04l.02-.32.02-.36.05-.76-.11 1.98.02-.54zm53.89-41.7l.13.51.11.51.11.52.1.51.09.52.08.52.07.52.06.52.06.52.05.53.04.52.03.52.02.53.01.53v.52l-.01 1.32-.06 1.31-.09 1.32-.13 1.3-.16 1.31-.2 1.29-.24 1.29-.27 1.29-.3 1.27-.35 1.27-.37 1.25-.41 1.25-.45 1.23-.48 1.23-.52 1.21-.55 1.2-1.16 2.43-1-17.75v-15.75l3-7.5 2.66 9.92.13.51z" id="d"/></defs><use xlink:href="#a" fill="#fff"/><use xlink:href="#a" fill-opacity="0" stroke="#000"/><use xlink:href="#b" fill="#c73030"/><use xlink:href="#b" fill-opacity="0" stroke="#c73030"/><g><use xlink:href="#c" fill="#fff"/><use xlink:href="#c" fill-opacity="0" stroke="#000"/></g><g><use xlink:href="#d" fill="#fff"/><use xlink:href="#d" fill-opacity="0" stroke="#000"/></g>
</svg>