<svg id="Layer_1" data-name="Layer 1" xmlns="http://www.w3.org/2000/svg" xmlns:xlink="http://www.w3.org/1999/xlink" viewBox="0 0 64 64"><defs><style>.cls-1{fill:url(#linear-gradient);}.cls-2{fill:url(#linear-gradient-2);}.cls-3{fill:url(#linear-gradient-3);}.cls-4{fill:url(#linear-gradient-4);}.cls-5{fill:url(#linear-gradient-5);}.cls-6{fill:url(#linear-gradient-6);}.cls-7{fill:url(#linear-gradient-7);}.cls-8{fill:url(#linear-gradient-8);}.cls-9{fill:url(#linear-gradient-9);}.cls-10{fill:url(#linear-gradient-10);}.cls-11{fill:url(#linear-gradient-11);}.cls-12{fill:url(#linear-gradient-12);}.cls-13{fill:url(#linear-gradient-13);}.cls-14{fill:url(#linear-gradient-14);}.cls-15{fill:url(#linear-gradient-15);}.cls-16{fill:url(#linear-gradient-16);}.cls-17{fill:url(#linear-gradient-17);}.cls-18{fill:url(#linear-gradient-18);}.cls-19{fill:url(#linear-gradient-19);}.cls-20{fill:url(#linear-gradient-20);}.cls-21{fill:url(#linear-gradient-21);}.cls-22{fill:url(#linear-gradient-22);}.cls-23{fill:url(#linear-gradient-23);}.cls-24{fill:url(#linear-gradient-24);}.cls-25{fill:url(#linear-gradient-25);}.cls-26{fill:url(#linear-gradient-26);}.cls-27{fill:url(#linear-gradient-27);}.cls-28{fill:url(#linear-gradient-28);}.cls-29{fill:url(#linear-gradient-29);}.cls-30{fill:url(#linear-gradient-30);}.cls-31{fill:url(#linear-gradient-31);}.cls-32{fill:url(#linear-gradient-32);}.cls-33{fill:url(#linear-gradient-33);}.cls-34{fill:url(#linear-gradient-34);}.cls-35{fill:url(#linear-gradient-35);}.cls-36{fill:url(#linear-gradient-36);}.cls-37{fill:url(#linear-gradient-37);}.cls-38{fill:url(#linear-gradient-38);}.cls-39{fill:url(#linear-gradient-39);}.cls-40{fill:url(#linear-gradient-40);}.cls-41{fill:url(#linear-gradient-41);}.cls-42{fill:url(#linear-gradient-42);}.cls-43{fill:url(#linear-gradient-43);}.cls-44{fill:url(#linear-gradient-44);}.cls-45{fill:url(#linear-gradient-45);}.cls-46{fill:url(#linear-gradient-46);}.cls-47{fill:url(#linear-gradient-47);}.cls-48{fill:url(#linear-gradient-48);}.cls-49{fill:url(#linear-gradient-49);}.cls-50{fill:url(#linear-gradient-50);}.cls-51{fill:url(#linear-gradient-51);}.cls-52{fill:url(#linear-gradient-52);}.cls-53{fill:url(#linear-gradient-53);}.cls-54{fill:url(#linear-gradient-54);}.cls-55{fill:url(#linear-gradient-55);}.cls-56{fill:url(#linear-gradient-56);}.cls-57{fill:url(#linear-gradient-57);}.cls-58{fill:url(#linear-gradient-58);}.cls-59{fill:url(#linear-gradient-59);}.cls-60{fill:url(#linear-gradient-60);}.cls-61{fill:url(#linear-gradient-61);}.cls-62{fill:url(#linear-gradient-62);}.cls-63{fill:url(#linear-gradient-63);}.cls-64{fill:url(#linear-gradient-64);}.cls-65{fill:url(#linear-gradient-65);}.cls-66{fill:url(#linear-gradient-66);}.cls-67{fill:url(#linear-gradient-67);}.cls-68{fill:url(#linear-gradient-68);}.cls-69{fill:url(#linear-gradient-69);}.cls-70{fill:url(#linear-gradient-70);}.cls-71{fill:url(#linear-gradient-71);}.cls-72{fill:#f9aa8f;}.cls-73{fill:url(#linear-gradient-72);}.cls-74{fill:url(#linear-gradient-73);}.cls-75{fill:url(#linear-gradient-74);}.cls-76{fill:url(#linear-gradient-75);}.cls-77{fill:url(#linear-gradient-76);}.cls-78{fill:url(#linear-gradient-77);}.cls-79{fill:url(#linear-gradient-78);}.cls-80{fill:url(#linear-gradient-79);}.cls-81{fill:url(#linear-gradient-80);}.cls-82{fill:#de806e;}.cls-83{fill:url(#linear-gradient-81);}.cls-84{fill:url(#linear-gradient-82);}.cls-85{fill:url(#linear-gradient-83);}.cls-86{fill:url(#linear-gradient-84);}.cls-87{fill:url(#linear-gradient-85);}</style><linearGradient id="linear-gradient" x1="32" y1="65.75" x2="32" y2="-50.53" gradientUnits="userSpaceOnUse"><stop offset="0" stop-color="#3345a2"/><stop offset="0.41" stop-color="#3b50a6"/><stop offset="1" stop-color="#4c68b0"/></linearGradient><linearGradient id="linear-gradient-2" x1="32" y1="43.28" x2="32" y2="36.28" xlink:href="#linear-gradient"/><linearGradient id="linear-gradient-3" x1="41.29" y1="29.11" x2="41.29" y2="-23.81" xlink:href="#linear-gradient"/><linearGradient id="linear-gradient-4" x1="48.51" y1="29.95" x2="48.51" y2="-22.06" xlink:href="#linear-gradient"/><linearGradient id="linear-gradient-5" x1="14.9" y1="34.85" x2="14.9" y2="-42.43" xlink:href="#linear-gradient"/><linearGradient id="linear-gradient-6" x1="16.51" y1="35.09" x2="16.51" y2="-43.57" xlink:href="#linear-gradient"/><linearGradient id="linear-gradient-7" x1="927.38" y1="35.09" x2="927.38" y2="-43.58" gradientTransform="matrix(-1, 0, 0, 1, 958.22, 0)" xlink:href="#linear-gradient"/><linearGradient id="linear-gradient-8" x1="925.26" y1="35.09" x2="925.26" y2="-43.58" gradientTransform="matrix(-1, 0, 0, 1, 958.22, 0)" xlink:href="#linear-gradient"/><linearGradient id="linear-gradient-9" x1="17.29" y1="34.1" x2="17.29" y2="-41.64" xlink:href="#linear-gradient"/><linearGradient id="linear-gradient-10" x1="44.41" y1="44.15" x2="44.41" y2="12.12" xlink:href="#linear-gradient"/><linearGradient id="linear-gradient-11" x1="31.4" y1="54.55" x2="31.4" y2="9.48" xlink:href="#linear-gradient"/><linearGradient id="linear-gradient-12" x1="917.41" y1="48.78" x2="917.41" y2="-0.28" gradientTransform="matrix(1, 0, 0, -1, -876.6, 36.11)" xlink:href="#linear-gradient"/><linearGradient id="linear-gradient-13" x1="919.46" y1="48.78" x2="919.46" y2="-0.28" gradientTransform="matrix(1, 0, 0, -1, -880.7, 36.11)" xlink:href="#linear-gradient"/><linearGradient id="linear-gradient-14" x1="921.51" y1="48.78" x2="921.51" y2="-0.28" gradientTransform="matrix(1, 0, 0, -1, -884.81, 36.11)" xlink:href="#linear-gradient"/><linearGradient id="linear-gradient-15" x1="923.56" y1="48.78" x2="923.56" y2="-0.28" gradientTransform="matrix(1, 0, 0, -1, -888.91, 36.11)" xlink:href="#linear-gradient"/><linearGradient id="linear-gradient-16" x1="925.62" y1="48.78" x2="925.62" y2="-0.28" gradientTransform="matrix(1, 0, 0, -1, -893.01, 36.11)" xlink:href="#linear-gradient"/><linearGradient id="linear-gradient-17" x1="917.41" y1="48.78" x2="917.41" y2="-0.28" gradientTransform="matrix(1, 0, 0, -1, -876.6, 40.44)" xlink:href="#linear-gradient"/><linearGradient id="linear-gradient-18" x1="919.46" y1="48.78" x2="919.46" y2="-0.28" gradientTransform="matrix(1, 0, 0, -1, -880.7, 40.44)" xlink:href="#linear-gradient"/><linearGradient id="linear-gradient-19" x1="921.51" y1="48.78" x2="921.51" y2="-0.28" gradientTransform="matrix(1, 0, 0, -1, -884.81, 40.44)" xlink:href="#linear-gradient"/><linearGradient id="linear-gradient-20" x1="923.56" y1="48.78" x2="923.56" y2="-0.28" gradientTransform="matrix(1, 0, 0, -1, -888.91, 40.44)" xlink:href="#linear-gradient"/><linearGradient id="linear-gradient-21" x1="925.62" y1="48.78" x2="925.62" y2="-0.28" gradientTransform="matrix(1, 0, 0, -1, -893.01, 40.44)" xlink:href="#linear-gradient"/><linearGradient id="linear-gradient-22" x1="917.41" y1="48.78" x2="917.41" y2="-0.28" gradientTransform="matrix(1, 0, 0, -1, -876.6, 44.76)" xlink:href="#linear-gradient"/><linearGradient id="linear-gradient-23" x1="919.46" y1="48.78" x2="919.46" y2="-0.28" gradientTransform="matrix(1, 0, 0, -1, -880.7, 44.76)" xlink:href="#linear-gradient"/><linearGradient id="linear-gradient-24" x1="921.51" y1="48.78" x2="921.51" y2="-0.28" gradientTransform="matrix(1, 0, 0, -1, -884.81, 44.76)" xlink:href="#linear-gradient"/><linearGradient id="linear-gradient-25" x1="923.56" y1="48.78" x2="923.56" y2="-0.28" gradientTransform="matrix(1, 0, 0, -1, -888.91, 44.76)" xlink:href="#linear-gradient"/><linearGradient id="linear-gradient-26" x1="925.62" y1="48.78" x2="925.62" y2="-0.28" gradientTransform="matrix(1, 0, 0, -1, -893.01, 44.76)" xlink:href="#linear-gradient"/><linearGradient id="linear-gradient-27" x1="917.41" y1="48.78" x2="917.41" y2="-0.28" gradientTransform="matrix(1, 0, 0, -1, -876.6, 49.08)" xlink:href="#linear-gradient"/><linearGradient id="linear-gradient-28" x1="919.46" y1="48.78" x2="919.46" y2="-0.28" gradientTransform="matrix(1, 0, 0, -1, -880.7, 49.08)" xlink:href="#linear-gradient"/><linearGradient id="linear-gradient-29" x1="921.51" y1="48.78" x2="921.51" y2="-0.28" gradientTransform="matrix(1, 0, 0, -1, -884.81, 49.08)" xlink:href="#linear-gradient"/><linearGradient id="linear-gradient-30" x1="923.56" y1="48.78" x2="923.56" y2="-0.28" gradientTransform="matrix(1, 0, 0, -1, -888.91, 49.08)" xlink:href="#linear-gradient"/><linearGradient id="linear-gradient-31" x1="925.62" y1="48.78" x2="925.62" y2="-0.28" gradientTransform="matrix(1, 0, 0, -1, -893.01, 49.08)" xlink:href="#linear-gradient"/><linearGradient id="linear-gradient-32" x1="917.41" y1="48.78" x2="917.41" y2="-0.28" gradientTransform="matrix(1, 0, 0, -1, -876.6, 53.4)" xlink:href="#linear-gradient"/><linearGradient id="linear-gradient-33" x1="919.46" y1="48.78" x2="919.46" y2="-0.28" gradientTransform="matrix(1, 0, 0, -1, -880.7, 53.4)" xlink:href="#linear-gradient"/><linearGradient id="linear-gradient-34" x1="921.51" y1="48.78" x2="921.51" y2="-0.28" gradientTransform="matrix(1, 0, 0, -1, -884.81, 53.4)" xlink:href="#linear-gradient"/><linearGradient id="linear-gradient-35" x1="923.56" y1="48.78" x2="923.56" y2="-0.28" gradientTransform="matrix(1, 0, 0, -1, -888.91, 53.4)" xlink:href="#linear-gradient"/><linearGradient id="linear-gradient-36" x1="925.62" y1="48.78" x2="925.62" y2="-0.28" gradientTransform="matrix(1, 0, 0, -1, -893.01, 53.4)" xlink:href="#linear-gradient"/><linearGradient id="linear-gradient-37" x1="917.41" y1="48.78" x2="917.41" y2="-0.28" gradientTransform="matrix(1, 0, 0, -1, -876.6, 57.73)" xlink:href="#linear-gradient"/><linearGradient id="linear-gradient-38" x1="919.46" y1="48.78" x2="919.46" y2="-0.28" gradientTransform="matrix(1, 0, 0, -1, -880.7, 57.73)" xlink:href="#linear-gradient"/><linearGradient id="linear-gradient-39" x1="921.51" y1="48.78" x2="921.51" y2="-0.28" gradientTransform="matrix(1, 0, 0, -1, -884.81, 57.73)" xlink:href="#linear-gradient"/><linearGradient id="linear-gradient-40" x1="923.56" y1="48.78" x2="923.56" y2="-0.28" gradientTransform="matrix(1, 0, 0, -1, -888.91, 57.73)" xlink:href="#linear-gradient"/><linearGradient id="linear-gradient-41" x1="925.62" y1="48.78" x2="925.62" y2="-0.28" gradientTransform="matrix(1, 0, 0, -1, -893.01, 57.73)" xlink:href="#linear-gradient"/><linearGradient id="linear-gradient-42" x1="917.41" y1="48.78" x2="917.41" y2="-0.28" gradientTransform="matrix(1, 0, 0, -1, -876.6, 62.05)" xlink:href="#linear-gradient"/><linearGradient id="linear-gradient-43" x1="919.46" y1="48.78" x2="919.46" y2="-0.28" gradientTransform="matrix(1, 0, 0, -1, -880.7, 62.05)" xlink:href="#linear-gradient"/><linearGradient id="linear-gradient-44" x1="921.51" y1="48.78" x2="921.51" y2="-0.28" gradientTransform="matrix(1, 0, 0, -1, -884.81, 62.05)" xlink:href="#linear-gradient"/><linearGradient id="linear-gradient-45" x1="923.56" y1="48.78" x2="923.56" y2="-0.28" gradientTransform="matrix(1, 0, 0, -1, -888.91, 62.05)" xlink:href="#linear-gradient"/><linearGradient id="linear-gradient-46" x1="925.62" y1="48.78" x2="925.62" y2="-0.28" gradientTransform="matrix(1, 0, 0, -1, -893.01, 62.05)" xlink:href="#linear-gradient"/><linearGradient id="linear-gradient-47" x1="917.41" y1="48.78" x2="917.41" y2="-0.28" gradientTransform="matrix(1, 0, 0, -1, -876.6, 66.37)" xlink:href="#linear-gradient"/><linearGradient id="linear-gradient-48" x1="919.46" y1="48.78" x2="919.46" y2="-0.28" gradientTransform="matrix(1, 0, 0, -1, -880.7, 66.37)" xlink:href="#linear-gradient"/><linearGradient id="linear-gradient-49" x1="921.51" y1="48.78" x2="921.51" y2="-0.28" gradientTransform="matrix(1, 0, 0, -1, -884.81, 66.37)" xlink:href="#linear-gradient"/><linearGradient id="linear-gradient-50" x1="923.56" y1="48.78" x2="923.56" y2="-0.28" gradientTransform="matrix(1, 0, 0, -1, -888.91, 66.37)" xlink:href="#linear-gradient"/><linearGradient id="linear-gradient-51" x1="925.62" y1="48.78" x2="925.62" y2="-0.28" gradientTransform="matrix(1, 0, 0, -1, -893.01, 66.37)" xlink:href="#linear-gradient"/><linearGradient id="linear-gradient-52" x1="917.41" y1="48.78" x2="917.41" y2="-0.28" gradientTransform="matrix(1, 0, 0, -1, -876.6, 70.69)" xlink:href="#linear-gradient"/><linearGradient id="linear-gradient-53" x1="919.46" y1="48.78" x2="919.46" y2="-0.28" gradientTransform="matrix(1, 0, 0, -1, -880.7, 70.69)" xlink:href="#linear-gradient"/><linearGradient id="linear-gradient-54" x1="921.51" y1="48.78" x2="921.51" y2="-0.28" gradientTransform="matrix(1, 0, 0, -1, -884.81, 70.69)" xlink:href="#linear-gradient"/><linearGradient id="linear-gradient-55" x1="923.56" y1="48.78" x2="923.56" y2="-0.28" gradientTransform="matrix(1, 0, 0, -1, -888.91, 70.69)" xlink:href="#linear-gradient"/><linearGradient id="linear-gradient-56" x1="925.62" y1="48.78" x2="925.62" y2="-0.28" gradientTransform="matrix(1, 0, 0, -1, -893.01, 70.69)" xlink:href="#linear-gradient"/><linearGradient id="linear-gradient-57" x1="917.41" y1="48.78" x2="917.41" y2="-0.28" gradientTransform="matrix(1, 0, 0, -1, -876.6, 75.01)" xlink:href="#linear-gradient"/><linearGradient id="linear-gradient-58" x1="919.46" y1="48.78" x2="919.46" y2="-0.28" gradientTransform="matrix(1, 0, 0, -1, -880.7, 75.01)" xlink:href="#linear-gradient"/><linearGradient id="linear-gradient-59" x1="921.51" y1="48.78" x2="921.51" y2="-0.28" gradientTransform="matrix(1, 0, 0, -1, -884.81, 75.01)" xlink:href="#linear-gradient"/><linearGradient id="linear-gradient-60" x1="923.56" y1="48.78" x2="923.56" y2="-0.28" gradientTransform="matrix(1, 0, 0, -1, -888.91, 75.01)" xlink:href="#linear-gradient"/><linearGradient id="linear-gradient-61" x1="925.62" y1="48.78" x2="925.62" y2="-0.28" gradientTransform="matrix(1, 0, 0, -1, -893.01, 75.01)" xlink:href="#linear-gradient"/><linearGradient id="linear-gradient-62" x1="917.41" y1="48.78" x2="917.41" y2="-0.28" gradientTransform="matrix(1, 0, 0, -1, -876.6, 79.34)" xlink:href="#linear-gradient"/><linearGradient id="linear-gradient-63" x1="919.46" y1="48.78" x2="919.46" y2="-0.28" gradientTransform="matrix(1, 0, 0, -1, -880.7, 79.34)" xlink:href="#linear-gradient"/><linearGradient id="linear-gradient-64" x1="921.51" y1="48.78" x2="921.51" y2="-0.28" gradientTransform="matrix(1, 0, 0, -1, -884.81, 79.34)" xlink:href="#linear-gradient"/><linearGradient id="linear-gradient-65" x1="923.56" y1="48.78" x2="923.56" y2="-0.28" gradientTransform="matrix(1, 0, 0, -1, -888.91, 79.34)" xlink:href="#linear-gradient"/><linearGradient id="linear-gradient-66" x1="925.62" y1="48.78" x2="925.62" y2="-0.28" gradientTransform="matrix(1, 0, 0, -1, -893.01, 79.34)" xlink:href="#linear-gradient"/><linearGradient id="linear-gradient-67" x1="938.57" y1="44.87" x2="938.57" y2="14.91" gradientTransform="matrix(-1, 0, 0, 1, 958.22, 0)" xlink:href="#linear-gradient"/><linearGradient id="linear-gradient-68" x1="939.91" y1="60.07" x2="939.91" y2="35.06" gradientTransform="matrix(-1, 0, 0, 1, 958.22, 0)" xlink:href="#linear-gradient"/><linearGradient id="linear-gradient-69" x1="18.61" y1="57.36" x2="18.61" y2="39.8" xlink:href="#linear-gradient"/><linearGradient id="linear-gradient-70" x1="17054.01" y1="51.96" x2="17054.01" y2="33.46" gradientTransform="matrix(-1, 0, 0, 1, 17063.43, 0)" xlink:href="#linear-gradient"/><linearGradient id="linear-gradient-71" x1="9.23" y1="49.02" x2="9.23" y2="41.24" xlink:href="#linear-gradient"/><linearGradient id="linear-gradient-72" x1="22.97" y1="36.36" x2="21.52" y2="23.07" gradientUnits="userSpaceOnUse"><stop offset="0" stop-color="#f9aa8f"/><stop offset="1" stop-color="#f78e6b"/></linearGradient><linearGradient id="linear-gradient-73" x1="46.09" y1="61.83" x2="37.36" y2="45.48" gradientUnits="userSpaceOnUse"><stop offset="0" stop-color="#f9d5c5"/><stop offset="1" stop-color="#f78e6b"/></linearGradient><linearGradient id="linear-gradient-74" x1="36.79" y1="35.9" x2="35.71" y2="41.21" xlink:href="#linear-gradient-72"/><linearGradient id="linear-gradient-75" x1="38.81" y1="68.03" x2="28.98" y2="49.62" xlink:href="#linear-gradient-73"/><linearGradient id="linear-gradient-76" x1="20" y1="68.89" x2="29.25" y2="55.64" xlink:href="#linear-gradient-73"/><linearGradient id="linear-gradient-77" x1="41.05" y1="66.45" x2="32.21" y2="37.78" xlink:href="#linear-gradient-73"/><linearGradient id="linear-gradient-78" x1="53.88" y1="20.02" x2="29.44" y2="35.18" xlink:href="#linear-gradient-72"/><linearGradient id="linear-gradient-79" x1="27.74" y1="21.01" x2="37.6" y2="3.53" xlink:href="#linear-gradient-72"/><linearGradient id="linear-gradient-80" x1="31.67" y1="25.85" x2="35.67" y2="53.27" gradientUnits="userSpaceOnUse"><stop offset="0" stop-color="#ffe8e6"/><stop offset="1" stop-color="#f78d83"/></linearGradient><linearGradient id="linear-gradient-81" x1="43.3" y1="-4.24" x2="34.14" y2="27.92" gradientUnits="userSpaceOnUse"><stop offset="0" stop-color="#ff7d63"/><stop offset="0.52" stop-color="#ff5763"/><stop offset="1" stop-color="#8b3044"/></linearGradient><linearGradient id="linear-gradient-82" x1="40.33" y1="35.83" x2="38.83" y2="-8.29" xlink:href="#linear-gradient-81"/><linearGradient id="linear-gradient-83" x1="25.65" y1="15.41" x2="52.53" y2="60.53" xlink:href="#linear-gradient-80"/><linearGradient id="linear-gradient-84" x1="38.4" y1="53.3" x2="33.4" y2="36.74" xlink:href="#linear-gradient-81"/><linearGradient id="linear-gradient-85" x1="38.43" y1="70.25" x2="33.43" y2="32.25" xlink:href="#linear-gradient-81"/></defs><title>jogging</title><circle class="cls-1" cx="32" cy="32" r="28"/><path class="cls-2" d="M32,4A28,28,0,0,0,7.37,45.33H56.63A28,28,0,0,0,32,4Z"/><path class="cls-3" d="M46.36,8.68C44.75,11,39.18,14.6,32.54,16.82A177.1,177.1,0,0,0,50,10.6a28.08,28.08,0,0,0-3.3-2.4A4.34,4.34,0,0,0,46.36,8.68Z"/><path class="cls-4" d="M54,14.74a5.47,5.47,0,0,0-1,.71c-.61.52-3,.62-4,1.65s-4.16,2.31-7.71,2.8a93.24,93.24,0,0,0,14.48-2.73A28.05,28.05,0,0,0,54,14.74Z"/><path class="cls-5" d="M24.9,21.15s-5.89,1.1-9.32.38-5.22.78-7.54-.24a4.1,4.1,0,0,0-1.76-.36,27.78,27.78,0,0,0-1.39,4A81.33,81.33,0,0,0,24.9,21.15Z"/><path class="cls-6" d="M24.29,14a14.37,14.37,0,0,1-5.2.28c-2-.48-2.88.54-4.24-.15a2,2,0,0,0-2.7.89c-.31.66-1.34,0-2,.59A2.42,2.42,0,0,1,9,16l-.27.39C10.91,16.8,16.17,17.15,24.29,14Z"/><path class="cls-7" d="M33.63,8.64S29.85,9.9,28,9.57a5.71,5.71,0,0,0,1.5-.73,1.93,1.93,0,0,1,1.79-.37c.41.25.57-.36,1-.13A4.58,4.58,0,0,0,33.63,8.64Z"/><path class="cls-8" d="M35.75,19.85s-3.78,1.26-5.58.93a5.71,5.71,0,0,0,1.5-.73,1.93,1.93,0,0,1,1.79-.37c.41.25.57-.36,1-.13A4.58,4.58,0,0,0,35.75,19.85Z"/><path class="cls-9" d="M19.1,8.47a4.18,4.18,0,0,1-1.22-.07,1.64,1.64,0,0,0-1.06.07l-.05,0a.59.59,0,0,0-.2.15.24.24,0,0,1-.21.11c-.29.2-.58.41-.87.62A10.29,10.29,0,0,0,19.1,8.47Z"/><path class="cls-10" d="M59.91,34.17h-5.7V27a3,3,0,0,0-6,0v4.65H46v7H29.52l-.61,6.7H56.63A27.83,27.83,0,0,0,59.91,34.17Z"/><path class="cls-11" d="M58.8,40.1H53.53V42H43.85V15.87a.93.93,0,0,0-.93-.93H30.8a.93.93,0,0,0-.93.93V35.1h-2.1a1,1,0,0,0-1,1v2H19.42V32.88a1.07,1.07,0,0,0-1.07-1.07H12.5V28.61a5.38,5.38,0,0,0-5.38-5.38H5.41a28,28,0,0,0,2,22.11H56.63A27.83,27.83,0,0,0,58.8,40.1Z"/><rect class="cls-12" x="40.22" y="17.46" width="1.18" height="1.18" rx="0.09" ry="0.09" transform="translate(81.62 36.11) rotate(-180)"/><rect class="cls-13" x="38.17" y="17.46" width="1.18" height="1.18" rx="0.09" ry="0.09" transform="translate(77.52 36.11) rotate(-180)"/><rect class="cls-14" x="36.11" y="17.46" width="1.18" height="1.18" rx="0.09" ry="0.09" transform="translate(73.41 36.11) rotate(-180)"/><rect class="cls-15" x="34.06" y="17.46" width="1.18" height="1.18" rx="0.09" ry="0.09" transform="translate(69.31 36.11) rotate(-180)"/><rect class="cls-16" x="32.01" y="17.46" width="1.18" height="1.18" rx="0.09" ry="0.09" transform="translate(65.21 36.11) rotate(-180)"/><rect class="cls-17" x="40.22" y="19.63" width="1.18" height="1.18" rx="0.09" ry="0.09" transform="translate(81.62 40.44) rotate(-180)"/><rect class="cls-18" x="38.17" y="19.63" width="1.18" height="1.18" rx="0.09" ry="0.09" transform="translate(77.52 40.44) rotate(-180)"/><rect class="cls-19" x="36.11" y="19.63" width="1.18" height="1.18" rx="0.09" ry="0.09" transform="translate(73.41 40.44) rotate(-180)"/><rect class="cls-20" x="34.06" y="19.63" width="1.18" height="1.18" rx="0.09" ry="0.09" transform="translate(69.31 40.44) rotate(-180)"/><rect class="cls-21" x="32.01" y="19.63" width="1.18" height="1.18" rx="0.09" ry="0.09" transform="translate(65.21 40.44) rotate(-180)"/><rect class="cls-22" x="40.22" y="21.79" width="1.18" height="1.18" rx="0.09" ry="0.09" transform="translate(81.62 44.76) rotate(-180)"/><rect class="cls-23" x="38.17" y="21.79" width="1.18" height="1.18" rx="0.09" ry="0.09" transform="translate(77.52 44.76) rotate(-180)"/><rect class="cls-24" x="36.11" y="21.79" width="1.18" height="1.18" rx="0.09" ry="0.09" transform="translate(73.41 44.76) rotate(-180)"/><rect class="cls-25" x="34.06" y="21.79" width="1.18" height="1.18" rx="0.09" ry="0.09" transform="translate(69.31 44.76) rotate(-180)"/><rect class="cls-26" x="32.01" y="21.79" width="1.18" height="1.18" rx="0.09" ry="0.09" transform="translate(65.21 44.76) rotate(-180)"/><rect class="cls-27" x="40.22" y="23.95" width="1.18" height="1.18" rx="0.09" ry="0.09" transform="translate(81.62 49.08) rotate(-180)"/><rect class="cls-28" x="38.17" y="23.95" width="1.18" height="1.18" rx="0.09" ry="0.09" transform="translate(77.52 49.08) rotate(-180)"/><rect class="cls-29" x="36.11" y="23.95" width="1.18" height="1.18" rx="0.09" ry="0.09" transform="translate(73.41 49.08) rotate(-180)"/><rect class="cls-30" x="34.06" y="23.95" width="1.18" height="1.18" rx="0.09" ry="0.09" transform="translate(69.31 49.08) rotate(-180)"/><rect class="cls-31" x="32.01" y="23.95" width="1.18" height="1.18" rx="0.09" ry="0.09" transform="translate(65.21 49.08) rotate(-180)"/><rect class="cls-32" x="40.22" y="26.11" width="1.18" height="1.18" rx="0.09" ry="0.09" transform="translate(81.62 53.4) rotate(-180)"/><rect class="cls-33" x="38.17" y="26.11" width="1.18" height="1.18" rx="0.09" ry="0.09" transform="translate(77.52 53.4) rotate(-180)"/><rect class="cls-34" x="36.11" y="26.11" width="1.18" height="1.18" rx="0.09" ry="0.09" transform="translate(73.41 53.4) rotate(-180)"/><rect class="cls-35" x="34.06" y="26.11" width="1.18" height="1.18" rx="0.09" ry="0.09" transform="translate(69.31 53.4) rotate(-180)"/><rect class="cls-36" x="32.01" y="26.11" width="1.18" height="1.18" rx="0.09" ry="0.09" transform="translate(65.21 53.4) rotate(-180)"/><rect class="cls-37" x="40.22" y="28.27" width="1.18" height="1.18" rx="0.09" ry="0.09" transform="translate(81.62 57.73) rotate(-180)"/><rect class="cls-38" x="38.17" y="28.27" width="1.18" height="1.18" rx="0.09" ry="0.09" transform="translate(77.52 57.73) rotate(-180)"/><rect class="cls-39" x="36.11" y="28.27" width="1.18" height="1.18" rx="0.09" ry="0.09" transform="translate(73.41 57.73) rotate(-180)"/><rect class="cls-40" x="34.06" y="28.27" width="1.18" height="1.18" rx="0.09" ry="0.09" transform="translate(69.31 57.73) rotate(-180)"/><rect class="cls-41" x="32.01" y="28.27" width="1.18" height="1.18" rx="0.09" ry="0.09" transform="translate(65.21 57.73) rotate(-180)"/><rect class="cls-42" x="40.22" y="30.43" width="1.18" height="1.18" rx="0.09" ry="0.09" transform="translate(81.62 62.05) rotate(-180)"/><rect class="cls-43" x="38.17" y="30.43" width="1.18" height="1.18" rx="0.09" ry="0.09" transform="translate(77.52 62.05) rotate(-180)"/><rect class="cls-44" x="36.11" y="30.43" width="1.18" height="1.18" rx="0.09" ry="0.09" transform="translate(73.41 62.05) rotate(-180)"/><rect class="cls-45" x="34.06" y="30.43" width="1.18" height="1.18" rx="0.09" ry="0.09" transform="translate(69.31 62.05) rotate(-180)"/><rect class="cls-46" x="32.01" y="30.43" width="1.18" height="1.18" rx="0.09" ry="0.09" transform="translate(65.21 62.05) rotate(-180)"/><rect class="cls-47" x="40.22" y="32.59" width="1.18" height="1.18" rx="0.09" ry="0.09" transform="translate(81.62 66.37) rotate(-180)"/><rect class="cls-48" x="38.17" y="32.59" width="1.18" height="1.18" rx="0.09" ry="0.09" transform="translate(77.52 66.37) rotate(-180)"/><rect class="cls-49" x="36.11" y="32.59" width="1.18" height="1.18" rx="0.09" ry="0.09" transform="translate(73.41 66.37) rotate(-180)"/><rect class="cls-50" x="34.06" y="32.59" width="1.18" height="1.18" rx="0.09" ry="0.09" transform="translate(69.31 66.37) rotate(-180)"/><rect class="cls-51" x="32.01" y="32.59" width="1.18" height="1.18" rx="0.09" ry="0.09" transform="translate(65.21 66.37) rotate(-180)"/><rect class="cls-52" x="40.22" y="34.75" width="1.18" height="1.18" rx="0.09" ry="0.09" transform="translate(81.62 70.69) rotate(-180)"/><rect class="cls-53" x="38.17" y="34.75" width="1.18" height="1.18" rx="0.09" ry="0.09" transform="translate(77.52 70.69) rotate(-180)"/><rect class="cls-54" x="36.11" y="34.75" width="1.18" height="1.18" rx="0.09" ry="0.09" transform="translate(73.41 70.69) rotate(-180)"/><rect class="cls-55" x="34.06" y="34.75" width="1.18" height="1.18" rx="0.09" ry="0.09" transform="translate(69.31 70.69) rotate(-180)"/><rect class="cls-56" x="32.01" y="34.75" width="1.18" height="1.18" rx="0.09" ry="0.09" transform="translate(65.21 70.69) rotate(-180)"/><rect class="cls-57" x="40.22" y="36.92" width="1.18" height="1.18" rx="0.09" ry="0.09" transform="translate(81.62 75.01) rotate(-180)"/><rect class="cls-58" x="38.17" y="36.92" width="1.18" height="1.18" rx="0.09" ry="0.09" transform="translate(77.52 75.01) rotate(-180)"/><rect class="cls-59" x="36.11" y="36.92" width="1.18" height="1.18" rx="0.09" ry="0.09" transform="translate(73.41 75.01) rotate(-180)"/><rect class="cls-60" x="34.06" y="36.92" width="1.18" height="1.18" rx="0.09" ry="0.09" transform="translate(69.31 75.01) rotate(-180)"/><rect class="cls-61" x="32.01" y="36.92" width="1.18" height="1.18" rx="0.09" ry="0.09" transform="translate(65.21 75.01) rotate(-180)"/><rect class="cls-62" x="40.22" y="39.08" width="1.18" height="1.18" rx="0.09" ry="0.09" transform="translate(81.62 79.34) rotate(-180)"/><rect class="cls-63" x="38.17" y="39.08" width="1.18" height="1.18" rx="0.09" ry="0.09" transform="translate(77.52 79.34) rotate(-180)"/><rect class="cls-64" x="36.11" y="39.08" width="1.18" height="1.18" rx="0.09" ry="0.09" transform="translate(73.41 79.34) rotate(-180)"/><rect class="cls-65" x="34.06" y="39.08" width="1.18" height="1.18" rx="0.09" ry="0.09" transform="translate(69.31 79.34) rotate(-180)"/><rect class="cls-66" x="32.01" y="39.08" width="1.18" height="1.18" rx="0.09" ry="0.09" transform="translate(65.21 79.34) rotate(-180)"/><path class="cls-67" d="M18.35,31.81a1.07,1.07,0,0,1,1.07,1.07v5.19h7.38v.27a4.69,4.69,0,0,1-4.69,4.77H18.93v-2H12.5V31.81Z"/><path class="cls-68" d="M23.07,47.21a2.66,2.66,0,0,0-1.93-2.55,1.11,1.11,0,0,1-.75-.76,2.66,2.66,0,0,0-5.19.51,2.69,2.69,0,0,0,0,.6,1.06,1.06,0,0,1-.47,1,2.66,2.66,0,0,0-.39,4.12,1.72,1.72,0,0,1,.4.56,1.89,1.89,0,0,0,1.74,1.16l.24,0a1.9,1.9,0,0,1,1.24.24,2.66,2.66,0,0,0,4-2.27v0a.93.93,0,0,1,.28-.67A2.65,2.65,0,0,0,23.07,47.21Z"/><path class="cls-69" d="M20.26,49.07a.84.84,0,0,1-.32.4,2,2,0,0,1-.23.12l-.4.2,0-.08c0-.09,0-.17.07-.26l.14-.51-.15.51c0,.08,0,.17-.08.25l0,.11,0,0h0a0,0,0,0,0,0,0h0l0,0a.83.83,0,0,1-.19.18,2,2,0,0,1-.23.12l-.43.21,0-2.4,0,3.13L18,51a.91.91,0,0,1-.27-.19.82.82,0,0,1-.18-.27c0-.05,0-.1-.05-.16a.34.34,0,0,0-.1-.14.36.36,0,0,0-.16-.07l-.16,0a.37.37,0,0,1-.22-.22c-.06-.21-.11-.43-.16-.65,0,.22.09.44.15.66a.39.39,0,0,0,.23.24l.16,0a.33.33,0,0,1,.14.07.31.31,0,0,1,.09.13s0,.11,0,.16a.87.87,0,0,0,.18.29,1,1,0,0,0,.28.2l.26.14-.07,5.11.24.14-.09-6,.45-.24a2.08,2.08,0,0,0,.23-.13.87.87,0,0,0,.19-.19l0-.06h0l.47-.25a2.08,2.08,0,0,0,.23-.13.87.87,0,0,0,.32-.43c0-.09,0-.17.07-.26l.14-.51-.15.51C20.31,48.9,20.29,49,20.26,49.07Z"/><path class="cls-70" d="M6.36,44.36A1.71,1.71,0,0,1,7.6,42.72a.72.72,0,0,0,.48-.49,1.71,1.71,0,0,1,3.34.33,1.73,1.73,0,0,1,0,.39.68.68,0,0,0,.3.66A1.71,1.71,0,0,1,12,46.25a1.11,1.11,0,0,0-.26.36,1.21,1.21,0,0,1-1.12.74h-.16a1.22,1.22,0,0,0-.79.15A1.71,1.71,0,0,1,7.06,46v0a.6.6,0,0,0-.18-.43A1.7,1.7,0,0,1,6.36,44.36Z"/><path class="cls-71" d="M10.2,46.27l-.1,0a.23.23,0,0,0-.1,0,.22.22,0,0,0-.07.09s0,.07,0,.1a.53.53,0,0,1-.11.18.58.58,0,0,1-.17.12l-.15.08,0-2,0,1.54-.27-.13L9,46.22a.53.53,0,0,1-.12-.11l0,0h0a0,0,0,0,0,0,0h0l0-.07-.05-.16-.1-.33.09.33,0,.17,0,.05-.26-.13-.15-.08a.54.54,0,0,1-.2-.26l-.05-.16L8,45.07l.09.33,0,.17a.56.56,0,0,0,.2.28l.15.09.3.16h0l0,0a.56.56,0,0,0,.12.12l.15.09.29.15,0,2,.11.15,0-1.68.17-.09a.62.62,0,0,0,.18-.13.56.56,0,0,0,.11-.19s0-.07,0-.1a.2.2,0,0,1,.06-.08l.09,0,.1,0a.25.25,0,0,0,.15-.16c0-.14.06-.28.09-.42,0,.14-.07.28-.1.42A.24.24,0,0,1,10.2,46.27Z"/><path class="cls-72" d="M28.73,23.49l-1.28-3.86A2.74,2.74,0,0,0,26,21a5.24,5.24,0,0,0-.47,1.11l-.22.75a5.35,5.35,0,0,1-.23.64c-2.35,5.29-8.19,13-16.39,13v1.77S24.37,39.4,29.47,28.2Z"/><path class="cls-73" d="M29.47,28.2l0-.14c-1.55-2.27-3-3.94-3.42-2.62-.86,3-3.11,4.53-4.07,7.71s-6.22,4.6-6.23,4.6C20.58,36.83,26.65,34.41,29.47,28.2Z"/><path id="_Path_" data-name="&lt;Path&gt;" class="cls-72" d="M27.44,19.62l10.8-.22L39,29.7l-9.33,3.46S23.27,23.7,27.44,19.62Z"/><path id="_Path_2" data-name="&lt;Path&gt;" class="cls-74" d="M43.05,41.54s-1.85-5.4-5-14.14c-1.28-3.51-2.07-1.19-3.25,0C33,29.09,30.63,32.6,27,45.46,27,45.46,32.17,57.5,43.05,41.54Z"/><path class="cls-75" d="M41.41,36.84,28.6,39.77h0s12.28-1.46,12.89-.42-.89,1.47-1,1.5,1.25.39,2.53.74l0-.05S42.48,39.86,41.41,36.84Z"/><path class="cls-76" d="M37,59.55l-2.68-13.2-.9-4.44L28,41.83s-4.45,9.12-2.39,17.43A27.84,27.84,0,0,0,37,59.55Z"/><path class="cls-77" d="M29.7,59.9c.76.06,1.53.1,2.3.1a28.14,28.14,0,0,0,5-.45l-2.68-13.2-.58-2.86-5.54-1.23a35.63,35.63,0,0,0-2.46,7.55,2.66,2.66,0,0,1,3.78-1.46c2.83,1.22,2.44,6.08.78,9.55A7.28,7.28,0,0,0,29.7,59.9Z"/><path class="cls-78" d="M37.66,42s-4.38,9.55-8.35,17.82C30.2,60,31.09,60,32,60a28,28,0,0,0,8.32-1.26c6.17-10.27,2.4-18.18,2.4-18.18Z"/><path id="_Path_3" data-name="&lt;Path&gt;" class="cls-72" d="M38.75,19.1s17.14,4.88,18,24.83v.35H54.46S52.7,28,40.38,28C40.38,28,37.82,27.14,38.75,19.1Z"/><path class="cls-79" d="M50,32.76h0c-2.8-5-10.55-9.42-10.48-11.57,0-1.52.83-1.49,1.29-1.34a17.58,17.58,0,0,0-2-.76c-.94,8,1.63,8.89,1.63,8.89A11.74,11.74,0,0,1,50,32.76Z"/><path class="cls-72" d="M36.68,17.93A6.8,6.8,0,0,1,35,14v-.12h0c-.56-10.07-6.46-7.08-6.46-7.08s-.22.52-.51,1.26a14.18,14.18,0,0,1-.95,2l-1.17,2a.34.34,0,0,0,.22.5l.12,0a.56.56,0,0,1,.45.52c0,.95.31,2,1.13,2h1.89a1.24,1.24,0,0,1,1.13,1.45,4,4,0,0,1-2.3,2.52,1,1,0,0,0-.1,1.62L33.08,24l5.16-4.27Z"/><path class="cls-80" d="M36.68,17.93A6.8,6.8,0,0,1,35,14v-.12h0c-.56-10.07-6.46-7.08-6.46-7.08s-.22.52-.51,1.26l-.19.46a.39.39,0,0,0,.21.53h0c.35.11-.66,1.27-1.06,2.24-.27.67-1.05,1-1.13,1a.33.33,0,0,0,.27.32l.12,0a.56.56,0,0,1,.45.52c0,.14,0,.28,0,.42s.46-3.43,2.72-3.6,2,4.82-.47,5.17c.87,0,3.27,0,3.84,1.37C33.54,18.18,35.78,19,36.68,17.93Z"/><path id="_Path_4" data-name="&lt;Path&gt;" class="cls-81" d="M25.44,38.08c-4.29,3.59,12.91.52,16.32-.11a.45.45,0,0,0,.32-.64l-.44-.92a11.88,11.88,0,0,1-1-6.82l.22-1.53s-2.63-2.39-2.07-9l-2.07-1.17s.29,7.91-5,8.66c0,0-4.7,1-2.54-7.83l-1.69.87L27,22l-.17,1c-.16.93-.71,2.18-.92,3C24.62,31,31.91,32.67,25.44,38.08Z"/><circle id="_Path_5" data-name="&lt;Path&gt;" class="cls-82" cx="34.85" cy="40.46" r="0.36"/><path class="cls-83" d="M49.19,13.93c-3.13-3.13-1-1.09-5.09-5.2-2.8-2.8-2.6.56-5.12-2-5-5-6.34-1.85-10.25-.67-1.42.43-1,1.26.24,2.37a4.37,4.37,0,0,0,3.3,1,.45.45,0,0,1,.37.14,1.12,1.12,0,0,1,.19.94,1.61,1.61,0,0,0,0,.27A2.86,2.86,0,0,0,33,12.54,2.91,2.91,0,0,0,36.89,14a5.45,5.45,0,0,1,1.34-.4c1.08-.18,2.36-.08,4,1.58C45.89,18.87,52.15,16.89,49.19,13.93Z"/><path class="cls-84" d="M43,7.85l0,0h0c-1.38-.8-1.76.43-3-.27h0c3.38,3.58-1.8,1.18-3.28-.43s-3-1.47-2.88.43a1.6,1.6,0,0,1-1.53,1.92.45.45,0,0,1,.37.14,1.12,1.12,0,0,1,.19.94,1.61,1.61,0,0,0,0,.27A2.85,2.85,0,0,0,33,12.39c0-.81.65-1,1.33-.94a1.68,1.68,0,0,0,1.43-.67,1.25,1.25,0,0,1,2.14.45c1,1.89-1.16,2.91-1.16,2.91h0l.13-.05a6.61,6.61,0,0,1,1.28-.41,4.07,4.07,0,0,1,3.82,1.24c-1-1-3.9-4,.54-2.26,5.29,2.07,4.12-1.43,4.11-1.44h0Z"/><path class="cls-85" d="M36.68,38.84c2.24-.35,4.16-.7,5.09-.87a.45.45,0,0,0,.32-.64l-.44-.92a11.88,11.88,0,0,1-1-6.82l.22-1.53s-2.63-2.39-2.07-9l-.39-.22c-.41,1.66-.41,5.33-.25,8.82.19,3.91-3.93,3.94-8,4a4,4,0,0,1-4-2.46c1,2.22,2.92,3.92,1.38,6.5-.8,2.6,2,1.32,7.26,1.53S36.68,38.84,36.68,38.84Z"/><path class="cls-72" d="M9.73,36.5A9,9,0,0,1,7.48,35c-1.32-1.14-3.68,2.32-3.22,3.07s2.79,1.79,2.86,1.07a3.29,3.29,0,0,0,0-.83,19.84,19.84,0,0,0,4.4,0"/><path class="cls-72" d="M54.46,44.28s-.21,3.36.46,3.86,2.61.93,3.43.21,1.54-3,1.07-2.93-1.79.93-1.82.82.72-2-.86-2"/><path class="cls-86" d="M42.72,40.57,27.78,42.62l-.41,1.46,6.76,5.61c4.43-9.57,9.35-6.8,9.35-6.8A9,9,0,0,0,42.72,40.57Z"/><path class="cls-87" d="M42.39,40.61c-1.17.19-5.18,1.06-6.73,4.28a18.43,18.43,0,0,0-1.58,4.76l-7-5.68a6.87,6.87,0,0,1,.57-1.44Z"/></svg>