<?xml version="1.0" standalone="no"?><!DOCTYPE svg PUBLIC "-//W3C//DTD SVG 1.1//EN" "http://www.w3.org/Graphics/SVG/1.1/DTD/svg11.dtd"><svg class="icon" width="200px" height="200.00px" viewBox="0 0 1024 1024" version="1.1" xmlns="http://www.w3.org/2000/svg"><path d="M36.2 822c0 36.1 29.3 65.4 65.4 65.4h817.5c36.1 0 65.4-29.3 65.4-65.4V233.4H36.2V822zM118 331.4v-49 49h784.8v-49 98.1-49.1H118v49.1-49.1z m-16.4 98.2h817.5V822H101.6V429.6z" fill="#67c1b2" /><path d="M134.3 952.8c0 18.1 14.6 32.7 32.7 32.7h65.4c18.1 0 32.7-14.6 32.7-32.7v-65.4H134.3v65.4zM755.7 952.8c0 18.1 14.6 32.7 32.7 32.7h65.4c18.1 0 32.7-14.6 32.7-32.7v-65.4H755.7v65.4zM919.2 37.1H101.6c-36.1 0-65.4 29.3-65.4 65.4v130.8h948.3V102.5c0.1-36.1-29.2-65.4-65.3-65.4M118 135.2h179.9H118z m441.5 32.7H363.2v-65.4h196.2v65.4z m130.8 0c-18.1 0-32.7-14.6-32.7-32.7s14.6-32.7 32.7-32.7 32.7 14.6 32.7 32.7-14.7 32.7-32.7 32.7m147.1 0c-18.1 0-32.7-14.6-32.7-32.7s14.6-32.7 32.7-32.7 32.7 14.6 32.7 32.7-14.6 32.7-32.7 32.7" fill="#58b09a" /><path d="M919.2 429.5H101.6V822h817.5V429.5z m-163.5 98.2c-1.8-23.4-10.9-40.5-16.4-49.1 5.4 8.6 14.6 25.7 16.4 49.1 2.5 32.7-11.1 56.9-16.4 65.4 5.3-8.5 18.8-32.7 16.4-65.4m-474.2 0c1.8-23.4 10.9-40.5 16.3-49.1-5.4 8.6-14.5 25.7-16.3 49.1-2.5 32.7 11.1 56.9 16.3 65.4-5.2-8.5-18.8-32.7-16.3-65.4m-98.1 32.7c1.8-23.4 10.9-40.5 16.3-49-5.4 8.5-14.5 25.6-16.3 49-2.5 32.7 11.1 56.9 16.3 65.4-5.2-8.5-18.8-32.7-16.3-65.4m523.2 196.2H183.4h130.8v-65.4c0-54.2 43.9-98.1 98.1-98.1H445c0-27.1 22-49 49.1-49h32.7c27.1 0 49 22 49 49h32.7c54.2 0 98.1 43.9 98.1 98.1v65.4h130.8-130.8z m130.8-130.8c5.3-8.5 18.8-32.7 16.4-65.4-1.8-23.4-10.9-40.5-16.4-49 5.4 8.6 14.6 25.7 16.4 49 2.4 32.7-11.1 56.9-16.4 65.4" fill="#eee3d2" /><path d="M412.3 593.1c-54.2 0-98.1 43.9-98.1 98.1v65.4H445V593.1h-32.7z" fill="#edb52b" /><path d="M837.4 102.5c-18.1 0-32.7 14.6-32.7 32.7s14.6 32.7 32.7 32.7 32.7-14.6 32.7-32.7c0-18-14.6-32.7-32.7-32.7M690.3 102.5c-18.1 0-32.7 14.6-32.7 32.7s14.6 32.7 32.7 32.7 32.7-14.6 32.7-32.7c0-18-14.7-32.7-32.7-32.7" fill="#eee3d2" /><path d="M363.2 102.5h196.2v65.4H363.2zM526.7 544H494c-27.1 0-49.1 22-49.1 49v163.5h130.8V593.1c0.1-27.1-21.9-49.1-49-49.1M608.5 593.1h-32.7v163.5h130.8v-65.4c0-54.2-43.9-98.1-98.1-98.1" fill="#edb52b" /><path d="M919.2 903.7H101.6c-45.1 0-81.8-36.7-81.8-81.8V233.3c0-9 7.3-16.4 16.4-16.4h948.3c9 0 16.4 7.3 16.4 16.4V822c0 45.1-36.7 81.7-81.7 81.7z m-866.6-654V822c0 27.1 22 49.1 49.1 49.1h817.5c27 0 49-22 49-49.1V249.7H52.6z" fill="#353535" /><path d="M232.4 1001.8H167c-27.1 0-49.1-22-49.1-49.1v-65.4c0-9 7.3-16.4 16.4-16.4h130.8c9 0 16.4 7.3 16.4 16.4v65.4c0 27.1-22 49.1-49.1 49.1z m-81.7-98.1v49c0 9 7.3 16.4 16.4 16.4h65.4c9 0 16.3-7.3 16.3-16.4v-49h-98.1zM853.8 1001.8h-65.4c-27 0-49.1-22-49.1-49.1v-65.4c0-9 7.3-16.4 16.4-16.4h130.8c9 0 16.4 7.3 16.4 16.4v65.4c-0.1 27.1-22.1 49.1-49.1 49.1zM772 903.7v49c0 9 7.3 16.4 16.3 16.4h65.4c9 0 16.3-7.3 16.3-16.4v-49h-98zM984.6 249.7H36.2c-9 0-16.4-7.3-16.4-16.4V102.5c0-45.1 36.7-81.8 81.8-81.8h817.5c45.1 0 81.7 36.7 81.7 81.8v130.8c0.1 9.1-7.2 16.4-16.2 16.4zM52.6 217h915.6V102.5c0-27.1-22-49.1-49-49.1H101.6c-27.1 0-49.1 22-49.1 49.1V217zM919.2 838.3H101.6c-9 0-16.4-7.3-16.4-16.3V429.6c0-9 7.3-16.4 16.4-16.4h817.5c9 0 16.4 7.3 16.4 16.4V822c0 9-7.3 16.3-16.3 16.3zM118 805.6h784.8V445.9H118v359.7zM118 315.1h784.8v32.7H118z" fill="#353535" /><path d="M886.5 282.4h32.7v98.1h-32.7zM101.6 282.4h32.7v98.1h-32.7zM183.4 740.2h654v32.7h-654z" fill="#353535" /><path d="M445 772.9H314.2c-9 0-16.4-7.3-16.4-16.3v-65.4c0-63.1 51.3-114.5 114.5-114.5H445c9 0 16.4 7.3 16.4 16.3v163.5c-0.1 9.1-7.4 16.4-16.4 16.4z m-114.5-32.7h98.1V609.4h-16.3c-45.1 0-81.8 36.7-81.8 81.8v49zM837.4 184.3c-27 0-49-22-49-49 0-27.1 22-49.1 49-49.1 27.1 0 49.1 22 49.1 49.1 0 27-22 49-49.1 49z m0-65.4c-9 0-16.3 7.3-16.3 16.4 0 9 7.3 16.3 16.3 16.3s16.4-7.3 16.4-16.3c0-9.1-7.4-16.4-16.4-16.4zM690.3 184.3c-27.1 0-49-22-49-49 0-27.1 22-49.1 49-49.1s49 22 49 49.1c0 27-22 49-49 49z m0-65.4c-9 0-16.4 7.3-16.4 16.4 0 9 7.3 16.3 16.4 16.3s16.4-7.3 16.4-16.3c-0.1-9.1-7.4-16.4-16.4-16.4zM118 118.9h179.9v32.7H118zM559.5 184.3H363.2c-9 0-16.4-7.3-16.4-16.4v-65.4c0-9 7.3-16.4 16.4-16.4h196.2c9 0 16.3 7.3 16.3 16.4v65.4c0.1 9.1-7.2 16.4-16.2 16.4z m-179.9-32.7h163.5v-32.7H379.6v32.7z" fill="#353535" /><path d="M575.8 772.9H445c-9 0-16.4-7.3-16.4-16.3V593c0-36.1 29.3-65.4 65.4-65.4h32.7c36.1 0 65.4 29.3 65.4 65.4v163.5c0.1 9.1-7.3 16.4-16.3 16.4z m-114.5-32.7h98.1V593c0-18-14.7-32.7-32.7-32.7H494c-18 0-32.7 14.7-32.7 32.7v147.2z" fill="#353535" /><path d="M706.6 772.9H575.8c-9 0-16.4-7.3-16.4-16.3V593c0-9 7.3-16.3 16.4-16.3h32.7c63.1 0 114.4 51.3 114.4 114.5v65.4c0.1 9-7.3 16.3-16.3 16.3z m-114.4-32.7h98.1v-49c0-45.1-36.7-81.8-81.7-81.8h-16.4v130.8zM185.9 634.4c-8.2-13.1-21.4-40.3-18.8-75.3 1.5-19.9 8-39.4 18.8-56.5l27.7 17.5c-8 12.6-12.8 27-13.9 41.6-2 25.7 7.9 45.8 13.9 55.5l-27.7 17.2zM284 601.7c-8.2-13.1-21.5-40.2-18.8-75.3 1.5-19.9 8-39.4 18.8-56.5l27.7 17.5c-8 12.6-12.8 27-13.9 41.6-2 25.8 7.9 45.8 13.9 55.5L284 601.7zM851.3 634.4l-27.7-17.3c6-9.7 15.9-29.7 13.9-55.5-1.1-14.6-5.9-28.9-13.9-41.6l27.7-17.5c10.8 17.1 17.3 36.7 18.8 56.5 2.6 35.2-10.7 62.3-18.8 75.4zM753.2 601.7l-27.7-17.3c6-9.7 15.9-29.7 13.9-55.5-1.4-18.4-8.3-32.8-13.9-41.6l27.6-17.5c10.8 17.1 17.3 36.7 18.8 56.6 2.7 35.1-10.6 62.3-18.7 75.3z" fill="#353535" /></svg>