<svg id="Layer_1" data-name="Layer 1" xmlns="http://www.w3.org/2000/svg" xmlns:xlink="http://www.w3.org/1999/xlink" viewBox="0 0 64 64"><defs><style>.cls-1{fill:url(#linear-gradient);}.cls-2{fill:url(#linear-gradient-2);}.cls-3{fill:url(#linear-gradient-3);}.cls-4{fill:url(#linear-gradient-4);}.cls-5{fill:url(#linear-gradient-5);}.cls-6{fill:url(#linear-gradient-6);}.cls-7{fill:url(#linear-gradient-7);}.cls-8{fill:url(#linear-gradient-8);}.cls-9{fill:url(#linear-gradient-9);}.cls-10{fill:url(#linear-gradient-10);}.cls-11{fill:url(#linear-gradient-11);}.cls-12{fill:url(#linear-gradient-12);}.cls-13{fill:url(#linear-gradient-13);}.cls-14{fill:url(#linear-gradient-14);}.cls-15{fill:url(#linear-gradient-15);}.cls-16{fill:url(#linear-gradient-16);}.cls-17{fill:url(#linear-gradient-17);}.cls-18{fill:url(#linear-gradient-18);}.cls-19{fill:url(#linear-gradient-19);}.cls-20{fill:url(#linear-gradient-20);}.cls-21{fill:url(#linear-gradient-21);}.cls-22{fill:url(#linear-gradient-22);}.cls-23{fill:url(#linear-gradient-23);}.cls-24{fill:url(#linear-gradient-24);}.cls-25{fill:url(#linear-gradient-25);}.cls-26{fill:url(#linear-gradient-26);}.cls-27{fill:url(#linear-gradient-27);}.cls-28{fill:url(#linear-gradient-28);}.cls-29{fill:url(#linear-gradient-29);}.cls-30{fill:url(#linear-gradient-31);}.cls-31{fill:url(#linear-gradient-32);}.cls-32{fill:url(#linear-gradient-33);}.cls-33{fill:url(#linear-gradient-34);}.cls-34{fill:url(#linear-gradient-35);}.cls-35{fill:url(#linear-gradient-36);}.cls-36{fill:url(#linear-gradient-37);}.cls-37{fill:url(#linear-gradient-38);}.cls-38{fill:url(#linear-gradient-39);}.cls-39{fill:url(#linear-gradient-40);}.cls-40{fill:url(#linear-gradient-41);}.cls-41{fill:url(#linear-gradient-42);}.cls-42{fill:url(#linear-gradient-43);}.cls-43{fill:url(#linear-gradient-44);}.cls-44{fill:url(#linear-gradient-45);}.cls-45{fill:url(#linear-gradient-46);}.cls-46{fill:url(#linear-gradient-47);}.cls-47{fill:url(#linear-gradient-48);}.cls-48{fill:url(#linear-gradient-49);}.cls-49{fill:url(#linear-gradient-50);}.cls-50{fill:url(#linear-gradient-51);}.cls-51{fill:url(#linear-gradient-52);}.cls-52{fill:url(#linear-gradient-53);}.cls-53{fill:url(#linear-gradient-55);}.cls-54{fill:url(#linear-gradient-57);}.cls-55{fill:url(#linear-gradient-58);}.cls-56{fill:url(#linear-gradient-59);}.cls-57{fill:url(#linear-gradient-60);}.cls-58{fill:url(#linear-gradient-61);}.cls-59{fill:url(#linear-gradient-62);}.cls-60{fill:url(#linear-gradient-63);}.cls-61{fill:url(#linear-gradient-64);}.cls-62{fill:url(#linear-gradient-65);}.cls-63{fill:url(#linear-gradient-66);}.cls-64{fill:url(#linear-gradient-67);}.cls-65{fill:url(#linear-gradient-68);}.cls-66{fill:url(#linear-gradient-69);}.cls-67{fill:url(#linear-gradient-70);}.cls-68{fill:url(#linear-gradient-71);}.cls-69{fill:url(#linear-gradient-72);}.cls-70{fill:url(#linear-gradient-73);}.cls-71{fill:url(#linear-gradient-74);}.cls-72{fill:url(#linear-gradient-75);}.cls-73{fill:url(#linear-gradient-76);}.cls-74{fill:url(#linear-gradient-77);}.cls-75{fill:url(#linear-gradient-169);}.cls-76{fill:url(#linear-gradient-173);}.cls-77{fill:url(#linear-gradient-177);}.cls-78{fill:url(#linear-gradient-181);}.cls-79{fill:url(#linear-gradient-185);}.cls-80{fill:url(#linear-gradient-188);}.cls-81{fill:url(#linear-gradient-189);}.cls-82{fill:url(#linear-gradient-190);}.cls-83{fill:url(#linear-gradient-191);}.cls-84{fill:url(#linear-gradient-192);}.cls-85{fill:url(#linear-gradient-193);}.cls-86{fill:url(#linear-gradient-194);}.cls-87{fill:url(#linear-gradient-195);}.cls-88{fill:url(#linear-gradient-196);}.cls-89{fill:url(#linear-gradient-197);}.cls-90{fill:url(#linear-gradient-198);}.cls-91{fill:url(#linear-gradient-199);}.cls-92{fill:url(#linear-gradient-200);}.cls-93{fill:url(#linear-gradient-201);}.cls-94{fill:url(#linear-gradient-202);}.cls-95{fill:#c3802a;}.cls-96{fill:url(#linear-gradient-203);}.cls-97{fill:#a8392a;}.cls-98{fill:url(#linear-gradient-204);}.cls-99{fill:#661b0d;}.cls-100{fill:url(#linear-gradient-205);}.cls-101{fill:#2e3312;}.cls-102{fill:url(#linear-gradient-206);}.cls-103{fill:#343a19;}.cls-104{fill:#f9aa8f;}.cls-105{fill:url(#linear-gradient-207);}.cls-106{fill:url(#linear-gradient-208);}.cls-107{fill:#071c2a;}.cls-108{fill:url(#linear-gradient-209);}.cls-109{fill:url(#linear-gradient-210);}.cls-110{fill:#ffe8e6;}.cls-111{fill:url(#linear-gradient-211);}.cls-112{fill:url(#linear-gradient-212);}.cls-113{fill:url(#linear-gradient-213);}</style><linearGradient id="linear-gradient" x1="32" y1="97.25" x2="32" y2="9.14" gradientUnits="userSpaceOnUse"><stop offset="0.02" stop-color="#97efe7"/><stop offset="0.52" stop-color="#3db6d3"/><stop offset="1" stop-color="#3d6fd3"/></linearGradient><linearGradient id="linear-gradient-2" x1="32" y1="62.52" x2="32" y2="47.49" xlink:href="#linear-gradient"/><linearGradient id="linear-gradient-3" x1="14.61" y1="49.06" x2="14.61" y2="-11.24" xlink:href="#linear-gradient"/><linearGradient id="linear-gradient-4" x1="15.61" y1="49.06" x2="15.61" y2="-11.24" xlink:href="#linear-gradient"/><linearGradient id="linear-gradient-5" x1="15.61" y1="33.76" x2="15.61" y2="-11.25" xlink:href="#linear-gradient"/><linearGradient id="linear-gradient-6" x1="12.13" y1="49.06" x2="12.13" y2="-11.24" xlink:href="#linear-gradient"/><linearGradient id="linear-gradient-7" x1="12.13" y1="33.76" x2="12.13" y2="-11.25" xlink:href="#linear-gradient"/><linearGradient id="linear-gradient-8" x1="22.09" y1="49.06" x2="22.09" y2="-11.24" xlink:href="#linear-gradient"/><linearGradient id="linear-gradient-9" x1="22.09" y1="33.76" x2="22.09" y2="-11.25" xlink:href="#linear-gradient"/><linearGradient id="linear-gradient-10" x1="11.47" y1="49.06" x2="11.47" y2="-11.24" xlink:href="#linear-gradient"/><linearGradient id="linear-gradient-11" x1="11.47" y1="33.76" x2="11.47" y2="-11.25" xlink:href="#linear-gradient"/><linearGradient id="linear-gradient-12" x1="14.53" y1="49.06" x2="14.53" y2="-11.24" xlink:href="#linear-gradient"/><linearGradient id="linear-gradient-13" x1="14.53" y1="44.9" x2="14.53" y2="19.11" xlink:href="#linear-gradient"/><linearGradient id="linear-gradient-14" x1="17.89" y1="49.06" x2="17.89" y2="-11.24" xlink:href="#linear-gradient"/><linearGradient id="linear-gradient-15" x1="17.89" y1="33.76" x2="17.89" y2="-11.25" xlink:href="#linear-gradient"/><linearGradient id="linear-gradient-16" x1="17.89" y1="44.9" x2="17.89" y2="19.11" xlink:href="#linear-gradient"/><linearGradient id="linear-gradient-17" x1="4.37" y1="49.06" x2="4.37" y2="-11.24" xlink:href="#linear-gradient"/><linearGradient id="linear-gradient-18" x1="4.37" y1="38.77" x2="4.37" y2="15.91" xlink:href="#linear-gradient"/><linearGradient id="linear-gradient-19" x1="4.37" y1="44.9" x2="4.37" y2="19.11" xlink:href="#linear-gradient"/><linearGradient id="linear-gradient-20" x1="10" y1="49.06" x2="10" y2="-11.24" xlink:href="#linear-gradient"/><linearGradient id="linear-gradient-21" x1="10" y1="44.9" x2="10" y2="19.11" xlink:href="#linear-gradient"/><linearGradient id="linear-gradient-22" x1="10" y1="39.36" x2="10" y2="22.21" xlink:href="#linear-gradient"/><linearGradient id="linear-gradient-23" x1="4704.99" y1="49.06" x2="4704.99" y2="-11.24" gradientTransform="matrix(-1, 0, 0, 1, 4733.83, 0)" xlink:href="#linear-gradient"/><linearGradient id="linear-gradient-24" x1="4690.74" y1="49.06" x2="4690.74" y2="-11.24" gradientTransform="matrix(-1, 0, 0, 1, 4733.83, 0)" xlink:href="#linear-gradient"/><linearGradient id="linear-gradient-25" x1="4681.23" y1="49.06" x2="4681.23" y2="-11.24" gradientTransform="matrix(-1, 0, 0, 1, 4733.83, 0)" xlink:href="#linear-gradient"/><linearGradient id="linear-gradient-26" x1="52.61" y1="40.44" x2="52.61" y2="-14.96" xlink:href="#linear-gradient"/><linearGradient id="linear-gradient-27" x1="4677.95" y1="49.06" x2="4677.95" y2="-11.24" gradientTransform="matrix(-1, 0, 0, 1, 4733.83, 0)" xlink:href="#linear-gradient"/><linearGradient id="linear-gradient-28" x1="55.89" y1="40.44" x2="55.89" y2="-14.96" xlink:href="#linear-gradient"/><linearGradient id="linear-gradient-29" x1="26.45" y1="40.44" x2="26.45" y2="-14.96" xlink:href="#linear-gradient"/><linearGradient id="linear-gradient-31" x1="28.85" y1="40.44" x2="28.85" y2="-14.96" xlink:href="#linear-gradient"/><linearGradient id="linear-gradient-32" x1="4693.29" y1="49.06" x2="4693.29" y2="-11.24" gradientTransform="matrix(-1, 0, 0, 1, 4733.83, 0)" xlink:href="#linear-gradient"/><linearGradient id="linear-gradient-33" x1="40.55" y1="40.44" x2="40.55" y2="-14.96" xlink:href="#linear-gradient"/><linearGradient id="linear-gradient-34" x1="4696.53" y1="49.06" x2="4696.53" y2="-11.24" gradientTransform="matrix(-1, 0, 0, 1, 4733.83, 0)" xlink:href="#linear-gradient"/><linearGradient id="linear-gradient-35" x1="37.3" y1="40.44" x2="37.3" y2="-14.96" xlink:href="#linear-gradient"/><linearGradient id="linear-gradient-36" x1="4704.25" y1="49.06" x2="4704.25" y2="-11.24" gradientTransform="matrix(-1, 0, 0, 1, 4733.83, 0)" xlink:href="#linear-gradient"/><linearGradient id="linear-gradient-37" x1="29.58" y1="40.44" x2="29.58" y2="-14.96" xlink:href="#linear-gradient"/><linearGradient id="linear-gradient-38" x1="4695" y1="49.06" x2="4695" y2="-11.24" gradientTransform="matrix(-1, 0, 0, 1, 4733.83, 0)" xlink:href="#linear-gradient"/><linearGradient id="linear-gradient-39" x1="38.83" y1="40.44" x2="38.83" y2="-14.96" xlink:href="#linear-gradient"/><linearGradient id="linear-gradient-40" x1="4686.89" y1="49.06" x2="4686.89" y2="-11.24" gradientTransform="matrix(-1, 0, 0, 1, 4733.83, 0)" xlink:href="#linear-gradient"/><linearGradient id="linear-gradient-41" x1="46.94" y1="40.44" x2="46.94" y2="-14.96" xlink:href="#linear-gradient"/><linearGradient id="linear-gradient-42" x1="4685.68" y1="49.06" x2="4685.68" y2="-11.24" gradientTransform="matrix(-1, 0, 0, 1, 4733.83, 0)" xlink:href="#linear-gradient"/><linearGradient id="linear-gradient-43" x1="48.15" y1="40.44" x2="48.15" y2="-14.96" xlink:href="#linear-gradient"/><linearGradient id="linear-gradient-44" x1="4703.62" y1="49.06" x2="4703.62" y2="-11.24" gradientTransform="matrix(-1, 0, 0, 1, 4733.83, 0)" xlink:href="#linear-gradient"/><linearGradient id="linear-gradient-45" x1="30.21" y1="40.44" x2="30.21" y2="-14.96" xlink:href="#linear-gradient"/><linearGradient id="linear-gradient-46" x1="4676.09" y1="49.06" x2="4676.09" y2="-11.24" gradientTransform="matrix(-1, 0, 0, 1, 4733.83, 0)" xlink:href="#linear-gradient"/><linearGradient id="linear-gradient-47" x1="4676.09" y1="38.77" x2="4676.09" y2="15.91" gradientTransform="matrix(-1, 0, 0, 1, 4733.83, 0)" xlink:href="#linear-gradient"/><linearGradient id="linear-gradient-48" x1="4699.5" y1="49.06" x2="4699.5" y2="-11.24" gradientTransform="matrix(-1, 0, 0, 1, 4733.83, 0)" xlink:href="#linear-gradient"/><linearGradient id="linear-gradient-49" x1="4699.5" y1="45.94" x2="4699.5" y2="15.07" gradientTransform="matrix(-1, 0, 0, 1, 4733.83, 0)" xlink:href="#linear-gradient"/><linearGradient id="linear-gradient-50" x1="4699.77" y1="49.06" x2="4699.77" y2="-11.24" gradientTransform="matrix(-1, 0, 0, 1, 4733.83, 0)" xlink:href="#linear-gradient"/><linearGradient id="linear-gradient-51" x1="4699.77" y1="45.94" x2="4699.77" y2="15.07" gradientTransform="matrix(-1, 0, 0, 1, 4733.83, 0)" xlink:href="#linear-gradient"/><linearGradient id="linear-gradient-52" x1="4692.8" y1="49.06" x2="4692.8" y2="-11.24" gradientTransform="matrix(-1, 0, 0, 1, 4733.83, 0)" xlink:href="#linear-gradient"/><linearGradient id="linear-gradient-53" x1="4692.8" y1="45.94" x2="4692.8" y2="15.07" gradientTransform="matrix(-1, 0, 0, 1, 4733.83, 0)" xlink:href="#linear-gradient"/><linearGradient id="linear-gradient-55" x1="34.34" y1="40.44" x2="34.34" y2="-14.96" xlink:href="#linear-gradient"/><linearGradient id="linear-gradient-57" x1="4699.75" y1="49.06" x2="4699.75" y2="-11.24" gradientTransform="matrix(-1, 0, 0, 1, 4733.83, 0)" xlink:href="#linear-gradient"/><linearGradient id="linear-gradient-58" x1="34.08" y1="40.44" x2="34.08" y2="-14.96" xlink:href="#linear-gradient"/><linearGradient id="linear-gradient-59" x1="4699.75" y1="45.94" x2="4699.75" y2="15.07" gradientTransform="matrix(-1, 0, 0, 1, 4733.83, 0)" xlink:href="#linear-gradient"/><linearGradient id="linear-gradient-60" x1="4680.66" y1="49.06" x2="4680.66" y2="-11.24" gradientTransform="matrix(-1, 0, 0, 1, 4733.83, 0)" xlink:href="#linear-gradient"/><linearGradient id="linear-gradient-61" x1="4680.66" y1="38.77" x2="4680.66" y2="15.91" gradientTransform="matrix(-1, 0, 0, 1, 4733.83, 0)" xlink:href="#linear-gradient"/><linearGradient id="linear-gradient-62" x1="4680.66" y1="45.94" x2="4680.66" y2="15.07" gradientTransform="matrix(-1, 0, 0, 1, 4733.83, 0)" xlink:href="#linear-gradient"/><linearGradient id="linear-gradient-63" x1="4680.08" y1="49.06" x2="4680.08" y2="-11.24" gradientTransform="matrix(-1, 0, 0, 1, 4733.83, 0)" xlink:href="#linear-gradient"/><linearGradient id="linear-gradient-64" x1="4680.08" y1="45.94" x2="4680.08" y2="15.07" gradientTransform="matrix(-1, 0, 0, 1, 4733.83, 0)" xlink:href="#linear-gradient"/><linearGradient id="linear-gradient-65" x1="4680.08" y1="41.59" x2="4680.08" y2="13.52" gradientTransform="matrix(-1, 0, 0, 1, 4733.83, 0)" xlink:href="#linear-gradient"/><linearGradient id="linear-gradient-66" x1="4681.26" y1="49.06" x2="4681.26" y2="-11.24" gradientTransform="matrix(-1, 0, 0, 1, 4733.83, 0)" xlink:href="#linear-gradient"/><linearGradient id="linear-gradient-67" x1="4681.26" y1="45.94" x2="4681.26" y2="15.07" gradientTransform="matrix(-1, 0, 0, 1, 4733.83, 0)" xlink:href="#linear-gradient"/><linearGradient id="linear-gradient-68" x1="4681.26" y1="41.59" x2="4681.26" y2="13.52" gradientTransform="matrix(-1, 0, 0, 1, 4733.83, 0)" xlink:href="#linear-gradient"/><linearGradient id="linear-gradient-69" x1="4682.43" y1="49.06" x2="4682.43" y2="-11.24" gradientTransform="matrix(-1, 0, 0, 1, 4733.83, 0)" xlink:href="#linear-gradient"/><linearGradient id="linear-gradient-70" x1="4682.43" y1="45.94" x2="4682.43" y2="15.07" gradientTransform="matrix(-1, 0, 0, 1, 4733.83, 0)" xlink:href="#linear-gradient"/><linearGradient id="linear-gradient-71" x1="4682.43" y1="41.59" x2="4682.43" y2="13.52" gradientTransform="matrix(-1, 0, 0, 1, 4733.83, 0)" xlink:href="#linear-gradient"/><linearGradient id="linear-gradient-72" x1="4683.61" y1="49.06" x2="4683.61" y2="-11.24" gradientTransform="matrix(-1, 0, 0, 1, 4733.83, 0)" xlink:href="#linear-gradient"/><linearGradient id="linear-gradient-73" x1="4683.61" y1="45.94" x2="4683.61" y2="15.07" gradientTransform="matrix(-1, 0, 0, 1, 4733.83, 0)" xlink:href="#linear-gradient"/><linearGradient id="linear-gradient-74" x1="4683.61" y1="41.59" x2="4683.61" y2="13.52" gradientTransform="matrix(-1, 0, 0, 1, 4733.83, 0)" xlink:href="#linear-gradient"/><linearGradient id="linear-gradient-75" x1="4684.78" y1="49.06" x2="4684.78" y2="-11.24" gradientTransform="matrix(-1, 0, 0, 1, 4733.83, 0)" xlink:href="#linear-gradient"/><linearGradient id="linear-gradient-76" x1="4684.78" y1="45.94" x2="4684.78" y2="15.07" gradientTransform="matrix(-1, 0, 0, 1, 4733.83, 0)" xlink:href="#linear-gradient"/><linearGradient id="linear-gradient-77" x1="4684.78" y1="41.59" x2="4684.78" y2="13.52" gradientTransform="matrix(-1, 0, 0, 1, 4733.83, 0)" xlink:href="#linear-gradient"/><linearGradient id="linear-gradient-169" x1="4680.08" y1="38.77" x2="4680.08" y2="15.91" gradientTransform="matrix(-1, 0, 0, 1, 4733.83, 0)" xlink:href="#linear-gradient"/><linearGradient id="linear-gradient-173" x1="4681.26" y1="38.77" x2="4681.26" y2="15.91" gradientTransform="matrix(-1, 0, 0, 1, 4733.83, 0)" xlink:href="#linear-gradient"/><linearGradient id="linear-gradient-177" x1="4682.43" y1="38.77" x2="4682.43" y2="15.91" gradientTransform="matrix(-1, 0, 0, 1, 4733.83, 0)" xlink:href="#linear-gradient"/><linearGradient id="linear-gradient-181" x1="4683.61" y1="38.77" x2="4683.61" y2="15.91" gradientTransform="matrix(-1, 0, 0, 1, 4733.83, 0)" xlink:href="#linear-gradient"/><linearGradient id="linear-gradient-185" x1="4684.78" y1="38.77" x2="4684.78" y2="15.91" gradientTransform="matrix(-1, 0, 0, 1, 4733.83, 0)" xlink:href="#linear-gradient"/><linearGradient id="linear-gradient-188" x1="4692.19" y1="49.06" x2="4692.19" y2="-11.24" gradientTransform="matrix(-1, 0, 0, 1, 4733.83, 0)" xlink:href="#linear-gradient"/><linearGradient id="linear-gradient-189" x1="4692.19" y1="45.94" x2="4692.19" y2="15.07" gradientTransform="matrix(-1, 0, 0, 1, 4733.83, 0)" xlink:href="#linear-gradient"/><linearGradient id="linear-gradient-190" x1="4692.19" y1="39.36" x2="4692.19" y2="22.21" gradientTransform="matrix(-1, 0, 0, 1, 4733.83, 0)" xlink:href="#linear-gradient"/><linearGradient id="linear-gradient-191" x1="58.83" y1="17.8" x2="58.83" y2="7.46" gradientUnits="userSpaceOnUse"><stop offset="0" stop-color="#3db6d3"/><stop offset="0.5" stop-color="#3d6fd3"/><stop offset="1" stop-color="#252784"/></linearGradient><linearGradient id="linear-gradient-192" x1="56.98" y1="22.21" x2="56.98" y2="8.13" xlink:href="#linear-gradient-191"/><linearGradient id="linear-gradient-193" x1="55.37" y1="40.89" x2="55.37" y2="-20.02" gradientUnits="userSpaceOnUse"><stop offset="0" stop-color="#fff"/><stop offset="0.84" stop-color="#cddfec"/></linearGradient><linearGradient id="linear-gradient-194" x1="54.75" y1="21.09" x2="54.75" y2="-2.74" xlink:href="#linear-gradient-191"/><linearGradient id="linear-gradient-195" x1="52.23" y1="24.49" x2="52.23" y2="5.67" xlink:href="#linear-gradient-191"/><linearGradient id="linear-gradient-196" x1="32.3" y1="18.51" x2="33.8" y2="7.68" gradientUnits="userSpaceOnUse"><stop offset="0" stop-color="#1a305d"/><stop offset="0.76" stop-color="#03153b"/></linearGradient><linearGradient id="linear-gradient-197" x1="11.66" y1="21.09" x2="11.66" y2="-2.74" xlink:href="#linear-gradient-191"/><linearGradient id="linear-gradient-198" x1="9.14" y1="55.45" x2="9.14" y2="-40.07" xlink:href="#linear-gradient-191"/><linearGradient id="linear-gradient-199" x1="8.34" y1="18.98" x2="8.34" y2="3.79" xlink:href="#linear-gradient-191"/><linearGradient id="linear-gradient-200" x1="6.73" y1="40.89" x2="6.73" y2="-20.02" xlink:href="#linear-gradient-191"/><linearGradient id="linear-gradient-201" x1="5.93" y1="17.8" x2="5.93" y2="7.46" xlink:href="#linear-gradient-191"/><linearGradient id="linear-gradient-202" x1="4.83" y1="32.71" x2="4.83" y2="-8.74" xlink:href="#linear-gradient-191"/><linearGradient id="linear-gradient-203" x1="37.3" y1="21.88" x2="49.58" y2="21.88" gradientUnits="userSpaceOnUse"><stop offset="0" stop-color="#b87116"/><stop offset="0.84" stop-color="#c3802a"/></linearGradient><linearGradient id="linear-gradient-204" x1="31.03" y1="20.04" x2="37.33" y2="20.04" gradientUnits="userSpaceOnUse"><stop offset="0" stop-color="#570910"/><stop offset="1" stop-color="#a8392a"/></linearGradient><linearGradient id="linear-gradient-205" x1="46.68" y1="32.53" x2="32.72" y2="29.04" gradientUnits="userSpaceOnUse"><stop offset="0" stop-color="#690b13"/><stop offset="0.12" stop-color="#640a12"/><stop offset="0.51" stop-color="#5a0911"/><stop offset="1" stop-color="#570910"/></linearGradient><linearGradient id="linear-gradient-206" x1="30.17" y1="36.74" x2="28.73" y2="52.93" gradientUnits="userSpaceOnUse"><stop offset="0"/><stop offset="1" stop-color="#2e330f"/></linearGradient><linearGradient id="linear-gradient-207" x1="34.21" y1="15.13" x2="37.46" y2="19.4" gradientUnits="userSpaceOnUse"><stop offset="0" stop-color="#f9aa8f"/><stop offset="1" stop-color="#f78e6b"/></linearGradient><linearGradient id="linear-gradient-208" x1="34.84" y1="18.91" x2="41.72" y2="6.73" xlink:href="#linear-gradient-207"/><linearGradient id="linear-gradient-209" x1="25.5" y1="37.59" x2="28.4" y2="27.76" xlink:href="#linear-gradient-205"/><linearGradient id="linear-gradient-210" x1="29.86" y1="18.18" x2="36.16" y2="18.18" xlink:href="#linear-gradient-204"/><linearGradient id="linear-gradient-211" x1="34.91" y1="14.14" x2="35.75" y2="12.64" xlink:href="#linear-gradient-207"/><linearGradient id="linear-gradient-212" x1="35.35" y1="9.1" x2="40.41" y2="9.1" xlink:href="#linear-gradient-204"/><linearGradient id="linear-gradient-213" x1="15.54" y1="22.2" x2="34.16" y2="22.2" gradientUnits="userSpaceOnUse"><stop offset="0.16" stop-color="#c3802a"/><stop offset="1" stop-color="#b87116"/></linearGradient></defs><title>lifting weights</title><circle class="cls-1" cx="32" cy="32" r="28"/><path class="cls-2" d="M10.95,50.45a28,28,0,0,0,42.11,0Z"/><path class="cls-3" d="M5.36,33.77a.55.55,0,0,1,.55.55v1.15h4.22v-3a.61.61,0,0,1,.61-.61h3.34V30a3.06,3.06,0,0,1,1.16-2.39A51.53,51.53,0,0,1,7,25.78a18,18,0,0,0,5.33.22c2-.41,3,.44,4.32-.14a2.34,2.34,0,0,1,2.84.74c.37.55,1.37,0,2.12.49a6.24,6.24,0,0,0,2.61.45,15.06,15.06,0,0,1-3.69.44v6.91h4.54V17.75A1.78,1.78,0,0,0,23.29,16H9A27.83,27.83,0,0,0,4.16,29v4.72ZM20.84,23a1.61,1.61,0,0,1,1.78,0c.39.38.58-.29,1,.07a4.73,4.73,0,0,0,1.22.63s-3.78.62-5.54-.15A4.43,4.43,0,0,0,20.84,23ZM11,18.49a.81.81,0,0,1,.75.15c.12.16.28,0,.42.12a1.91,1.91,0,0,0,.44.33,6.85,6.85,0,0,1-2.3-.55A2.39,2.39,0,0,0,11,18.49Zm-.69,3.35c1.13-.28,1.65.31,2.43-.09a1.12,1.12,0,0,1,1.55.51c.18.38.77,0,1.16.34a2.83,2.83,0,0,0,1.44.31s-3.29,1.21-9.55-1.23A8.22,8.22,0,0,0,10.33,21.84Z"/><path class="cls-4" d="M21.6,27.09c-.75-.49-1.75.06-2.12-.49a2.34,2.34,0,0,0-2.84-.74c-1.33.58-2.35-.27-4.32.14A18,18,0,0,1,7,25.78a51.53,51.53,0,0,0,8.26,1.87A3,3,0,0,1,17.17,27h3.36v1a15.06,15.06,0,0,0,3.69-.44A6.24,6.24,0,0,1,21.6,27.09Z"/><path class="cls-5" d="M21.6,27.09c-.75-.49-1.75.06-2.12-.49a2.34,2.34,0,0,0-2.84-.74c-1.33.58-2.35-.27-4.32.14A18,18,0,0,1,7,25.78a51.53,51.53,0,0,0,8.26,1.87A3,3,0,0,1,17.17,27h3.36v1a15.06,15.06,0,0,0,3.69-.44A6.24,6.24,0,0,1,21.6,27.09Z"/><path class="cls-6" d="M16.9,22.91a2.83,2.83,0,0,1-1.44-.31c-.39-.34-1,0-1.16-.34a1.12,1.12,0,0,0-1.55-.51c-.78.39-1.3-.19-2.43.09a8.22,8.22,0,0,1-3-.16C13.61,24.13,16.9,22.91,16.9,22.91Z"/><path class="cls-7" d="M16.9,22.91a2.83,2.83,0,0,1-1.44-.31c-.39-.34-1,0-1.16-.34a1.12,1.12,0,0,0-1.55-.51c-.78.39-1.3-.19-2.43.09a8.22,8.22,0,0,1-3-.16C13.61,24.13,16.9,22.91,16.9,22.91Z"/><path class="cls-8" d="M24.86,23.67A4.73,4.73,0,0,1,23.64,23c-.44-.36-.63.31-1-.07a1.61,1.61,0,0,0-1.78,0,4.43,4.43,0,0,1-1.52.51C21.08,24.3,24.86,23.67,24.86,23.67Z"/><path class="cls-9" d="M24.86,23.67A4.73,4.73,0,0,1,23.64,23c-.44-.36-.63.31-1-.07a1.61,1.61,0,0,0-1.78,0,4.43,4.43,0,0,1-1.52.51C21.08,24.3,24.86,23.67,24.86,23.67Z"/><path class="cls-10" d="M12.18,18.75c-.14-.16-.3,0-.42-.12a.81.81,0,0,0-.75-.15,2.39,2.39,0,0,1-.7,0,6.85,6.85,0,0,0,2.3.55A1.91,1.91,0,0,1,12.18,18.75Z"/><path class="cls-11" d="M12.18,18.75c-.14-.16-.3,0-.42-.12a.81.81,0,0,0-.75-.15,2.39,2.39,0,0,1-.7,0,6.85,6.85,0,0,0,2.3.55A1.91,1.91,0,0,1,12.18,18.75Z"/><path class="cls-12" d="M25.07,34.89H20.52V28a33.06,33.06,0,0,1-5.27-.33A3.06,3.06,0,0,0,14.09,30v7.18H10.41v1.12H8.59a2.68,2.68,0,0,1-2.68-2.73v-1.3a.55.55,0,0,0-.55-.55H4.16V29a27.73,27.73,0,0,0,.11,6.74h.09l.13,1.37q.23,1.26.58,2.47h20Z"/><path class="cls-13" d="M25.07,34.89H20.52V28a33.06,33.06,0,0,1-5.27-.33A3.06,3.06,0,0,0,14.09,30v7.18H10.41v1.12H8.59a2.68,2.68,0,0,1-2.68-2.73v-1.3a.55.55,0,0,0-.55-.55H4.16V29a27.73,27.73,0,0,0,.11,6.74h.09l.13,1.37q.23,1.26.58,2.47h20Z"/><path class="cls-14" d="M17.17,27a3,3,0,0,0-1.91.69,33.06,33.06,0,0,0,5.27.33V27Z"/><path class="cls-15" d="M17.17,27a3,3,0,0,0-1.91.69,33.06,33.06,0,0,0,5.27.33V27Z"/><path class="cls-16" d="M17.17,27a3,3,0,0,0-1.91.69,33.06,33.06,0,0,0,5.27.33V27Z"/><path class="cls-17" d="M4.26,35.78q.09.69.22,1.37l-.13-1.37Z"/><path class="cls-18" d="M4.26,35.78q.09.69.22,1.37l-.13-1.37Z"/><path class="cls-19" d="M4.26,35.78q.09.69.22,1.37l-.13-1.37Z"/><path class="cls-20" d="M10.13,32.5v3H5.91v.15a2.68,2.68,0,0,0,2.68,2.73h1.82V37.23h3.68V31.88H10.75A.61.61,0,0,0,10.13,32.5Z"/><path class="cls-21" d="M10.13,32.5v3H5.91v.15a2.68,2.68,0,0,0,2.68,2.73h1.82V37.23h3.68V31.88H10.75A.61.61,0,0,0,10.13,32.5Z"/><path class="cls-22" d="M10.13,32.5v3H5.91v.15a2.68,2.68,0,0,0,2.68,2.73h1.82V37.23h3.68V31.88H10.75A.61.61,0,0,0,10.13,32.5Z"/><path class="cls-23" d="M31.12,28a18.93,18.93,0,0,1-4.54-.38v7.28h4.54Z"/><path class="cls-24" d="M26.58,17.75v9.79a5.4,5.4,0,0,0,2.36-.45c.75-.49,1.75.06,2.12-.49l.06-.08V24A8.51,8.51,0,0,1,28,23.71a2.83,2.83,0,0,0,1.44-.31c.39-.34,1,0,1.16-.34a1.2,1.2,0,0,1,.47-.5V18.8h.05A6.38,6.38,0,0,1,37,22.6l.6-.12-.56.2a6.36,6.36,0,0,1,.51,2.5v.72a5.38,5.38,0,0,1,.66.1,18,18,0,0,0,5.33-.22,55.23,55.23,0,0,1-6,1.51v4.59H40.9a.61.61,0,0,1,.61.61v3h4.22V34.32a.55.55,0,0,1,.55-.55h1.2V27.06a.53.53,0,0,1,.53-.53H55a.53.53,0,0,1,.53.53v8.72h1.24v-4H58V29.11a1.73,1.73,0,0,1,1.66-1.72,27.81,27.81,0,0,0-.76-3.3,52.8,52.8,0,0,1-5.95,1,9.17,9.17,0,0,0,4.41-1.6,2.68,2.68,0,0,1,1.16-.56A27.82,27.82,0,0,0,57.3,20c-5.32,2.15-9.39,3.31-9.39,3.31,3.8-1.27,7-3.31,7.91-4.66a2.38,2.38,0,0,1,.49-.52Q55.68,17,55,16H28.36A1.78,1.78,0,0,0,26.58,17.75Zm21.86,7.19c.23.14.32-.21.59-.08a2.62,2.62,0,0,0,.72.18,9.37,9.37,0,0,1-3.2.53,3.27,3.27,0,0,0,.86-.42A1.11,1.11,0,0,1,48.44,24.94Zm-2.24-6.2a1.11,1.11,0,0,1,1-.21c.23.14.32-.21.59-.08a2.62,2.62,0,0,0,.72.18,9.37,9.37,0,0,1-3.2.53A3.27,3.27,0,0,0,46.2,18.74Zm-9-.28c.36-.44.67.18,1-.27a1.61,1.61,0,0,1,1.75-.31,4.43,4.43,0,0,0,1.59.21c-1.57,1.1-5.4,1.23-5.4,1.23A4.73,4.73,0,0,0,37.21,18.46Zm-7.69-.89c.17-.13.29.1.43,0a.81.81,0,0,1,.77,0,2.39,2.39,0,0,0,.68.17,6.85,6.85,0,0,1-2.37.11A1.92,1.92,0,0,0,29.51,17.57Z"/><path class="cls-25" d="M55.82,18.65C54.9,20,51.71,22,47.92,23.31c0,0,4.07-1.15,9.39-3.31-.3-.64-.64-1.26-1-1.88A2.38,2.38,0,0,0,55.82,18.65Z"/><path class="cls-26" d="M55.82,18.65C54.9,20,51.71,22,47.92,23.31c0,0,4.07-1.15,9.39-3.31-.3-.64-.64-1.26-1-1.88A2.38,2.38,0,0,0,55.82,18.65Z"/><path class="cls-27" d="M52.91,25.07a52.8,52.8,0,0,0,5.95-1q-.18-.6-.38-1.18a2.68,2.68,0,0,0-1.16.56A9.17,9.17,0,0,1,52.91,25.07Z"/><path class="cls-28" d="M52.91,25.07a52.8,52.8,0,0,0,5.95-1q-.18-.6-.38-1.18a2.68,2.68,0,0,0-1.16.56A9.17,9.17,0,0,1,52.91,25.07Z"/><path class="cls-29" d="M26.32,27.54l.25.07v-.07Z"/><path class="cls-23" d="M31.12,28V26.52l-.06.08c-.37.55-1.37,0-2.12.49a5.4,5.4,0,0,1-2.36.45v.07A18.93,18.93,0,0,0,31.12,28Z"/><path class="cls-30" d="M31.12,28V26.52l-.06.08c-.37.55-1.37,0-2.12.49a5.4,5.4,0,0,1-2.36.45v.07A18.93,18.93,0,0,0,31.12,28Z"/><path class="cls-31" d="M43.54,25.78a18,18,0,0,1-5.33.22,5.38,5.38,0,0,0-.66-.1v1.39A55.23,55.23,0,0,0,43.54,25.78Z"/><path class="cls-32" d="M43.54,25.78a18,18,0,0,1-5.33.22,5.38,5.38,0,0,0-.66-.1v1.39A55.23,55.23,0,0,0,43.54,25.78Z"/><path class="cls-33" d="M37.6,22.48l-.6.12,0,.09Z"/><path class="cls-34" d="M37.6,22.48l-.6.12,0,.09Z"/><path class="cls-35" d="M30.65,23.06c-.18.38-.77,0-1.16.34a2.83,2.83,0,0,1-1.44.31,8.51,8.51,0,0,0,3.07.28V22.57A1.2,1.2,0,0,0,30.65,23.06Z"/><path class="cls-36" d="M30.65,23.06c-.18.38-.77,0-1.16.34a2.83,2.83,0,0,1-1.44.31,8.51,8.51,0,0,0,3.07.28V22.57A1.2,1.2,0,0,0,30.65,23.06Z"/><path class="cls-37" d="M39.95,17.88a1.61,1.61,0,0,0-1.75.31c-.31.45-.62-.17-1,.27a4.73,4.73,0,0,1-1.07.86s3.83-.13,5.4-1.23A4.43,4.43,0,0,1,39.95,17.88Z"/><path class="cls-38" d="M39.95,17.88a1.61,1.61,0,0,0-1.75.31c-.31.45-.62-.17-1,.27a4.73,4.73,0,0,1-1.07.86s3.83-.13,5.4-1.23A4.43,4.43,0,0,1,39.95,17.88Z"/><path class="cls-39" d="M48.54,18.63a2.62,2.62,0,0,1-.72-.18c-.26-.13-.35.22-.59.08a1.11,1.11,0,0,0-1,.21,3.27,3.27,0,0,1-.86.42A9.37,9.37,0,0,0,48.54,18.63Z"/><path class="cls-40" d="M48.54,18.63a2.62,2.62,0,0,1-.72-.18c-.26-.13-.35.22-.59.08a1.11,1.11,0,0,0-1,.21,3.27,3.27,0,0,1-.86.42A9.37,9.37,0,0,0,48.54,18.63Z"/><path class="cls-41" d="M46.55,25.57a9.37,9.37,0,0,0,3.2-.53,2.62,2.62,0,0,1-.72-.18c-.26-.13-.35.22-.59.08a1.11,1.11,0,0,0-1,.21A3.27,3.27,0,0,1,46.55,25.57Z"/><path class="cls-42" d="M46.55,25.57a9.37,9.37,0,0,0,3.2-.53,2.62,2.62,0,0,1-.72-.18c-.26-.13-.35.22-.59.08a1.11,1.11,0,0,0-1,.21A3.27,3.27,0,0,1,46.55,25.57Z"/><path class="cls-43" d="M31.39,17.69a2.39,2.39,0,0,1-.68-.17.81.81,0,0,0-.77,0c-.15.14-.26-.1-.43,0a1.92,1.92,0,0,1-.49.24A6.85,6.85,0,0,0,31.39,17.69Z"/><path class="cls-44" d="M31.39,17.69a2.39,2.39,0,0,1-.68-.17.81.81,0,0,0-.77,0c-.15.14-.26-.1-.43,0a1.92,1.92,0,0,1-.49.24A6.85,6.85,0,0,0,31.39,17.69Z"/><path class="cls-45" d="M58,29.11v2.66H56.73v4H55.49v1.94h3.93a28,28,0,0,0,.2-10.33A1.73,1.73,0,0,0,58,29.11Z"/><path class="cls-46" d="M58,29.11v2.66H56.73v4H55.49v1.94h3.93a28,28,0,0,0,.2-10.33A1.73,1.73,0,0,0,58,29.11Z"/><path class="cls-47" d="M33.89,25.86c1.17.52,2.11-.09,3.66,0v-.72a6.36,6.36,0,0,0-.51-2.5A20.3,20.3,0,0,1,31.12,24v2.52A2.34,2.34,0,0,1,33.89,25.86Z"/><path class="cls-48" d="M33.89,25.86c1.17.52,2.11-.09,3.66,0v-.72a6.36,6.36,0,0,0-.51-2.5A20.3,20.3,0,0,1,31.12,24v2.52A2.34,2.34,0,0,1,33.89,25.86Z"/><path class="cls-49" d="M32.19,22.55c.78.39,1.3-.19,2.43.09a6.69,6.69,0,0,0,2.38,0,6.38,6.38,0,0,0-5.83-3.79h-.05v3.76A1.07,1.07,0,0,1,32.19,22.55Z"/><path class="cls-50" d="M32.19,22.55c.78.39,1.3-.19,2.43.09a6.69,6.69,0,0,0,2.38,0,6.38,6.38,0,0,0-5.83-3.79h-.05v3.76A1.07,1.07,0,0,1,32.19,22.55Z"/><path class="cls-51" d="M55.49,35.78V27.06a.53.53,0,0,0-.53-.53H48a.53.53,0,0,0-.53.53v6.71h-1.2a.55.55,0,0,0-.55.55v1.3a2.68,2.68,0,0,1-2.68,2.73H41.23V37.23H37.55V27.29a37.54,37.54,0,0,1-6.43.7v6.9H26.58v4.73H46.94l.35-3.84Zm-2.08-8.35a.05.05,0,0,1,.05-.05H54a.05.05,0,0,1,.05.05V28a.05.05,0,0,1-.05.05h-.57a.05.05,0,0,1-.05-.05Zm0,1.24a.05.05,0,0,1,.05-.05H54a.05.05,0,0,1,.05.05v.57a.05.05,0,0,1-.05.05h-.57a.05.05,0,0,1-.05-.05Zm0,1.24a.05.05,0,0,1,.05-.05H54a.05.05,0,0,1,.05.05v.57a.05.05,0,0,1-.05.05h-.57a.05.05,0,0,1-.05-.05Zm0,1.24a.05.05,0,0,1,.05-.05H54a.05.05,0,0,1,.05.05v.57a.05.05,0,0,1-.05.05h-.57a.05.05,0,0,1-.05-.05Zm0,1.24a.05.05,0,0,1,.05-.05H54a.05.05,0,0,1,.05.05V33A.05.05,0,0,1,54,33h-.57a.05.05,0,0,1-.05-.05Zm0,1.24a.05.05,0,0,1,.05-.05H54a.05.05,0,0,1,.05.05v.57a.05.05,0,0,1-.05.05h-.57a.05.05,0,0,1-.05-.05Zm0,1.24a.05.05,0,0,1,.05-.05H54a.05.05,0,0,1,.05.05v.57a.05.05,0,0,1-.05.05h-.57a.05.05,0,0,1-.05-.05Zm-1.17-7.42a.05.05,0,0,1,.05-.05h.57a.05.05,0,0,1,.05.05V28a.05.05,0,0,1-.05.05h-.57a.05.05,0,0,1-.05-.05Zm0,1.24a.05.05,0,0,1,.05-.05h.57a.05.05,0,0,1,.05.05v.57a.05.05,0,0,1-.05.05h-.57a.05.05,0,0,1-.05-.05Zm0,1.24a.05.05,0,0,1,.05-.05h.57a.05.05,0,0,1,.05.05v.57a.05.05,0,0,1-.05.05h-.57a.05.05,0,0,1-.05-.05Zm0,1.24a.05.05,0,0,1,.05-.05h.57a.05.05,0,0,1,.05.05v.57a.05.05,0,0,1-.05.05h-.57a.05.05,0,0,1-.05-.05Zm0,1.24a.05.05,0,0,1,.05-.05h.57a.05.05,0,0,1,.05.05V33a.05.05,0,0,1-.05.05h-.57a.05.05,0,0,1-.05-.05Zm0,1.24a.05.05,0,0,1,.05-.05h.57a.05.05,0,0,1,.05.05v.57a.05.05,0,0,1-.05.05h-.57a.05.05,0,0,1-.05-.05Zm0,1.24a.05.05,0,0,1,.05-.05h.57a.05.05,0,0,1,.05.05v.57a.05.05,0,0,1-.05.05h-.57a.05.05,0,0,1-.05-.05Zm-1.17-7.42a.05.05,0,0,1,.05-.05h.57a.05.05,0,0,1,.05.05V28a.05.05,0,0,1-.05.05h-.57a.05.05,0,0,1-.05-.05Zm0,1.24a.05.05,0,0,1,.05-.05h.57a.05.05,0,0,1,.05.05v.57a.05.05,0,0,1-.05.05h-.57a.05.05,0,0,1-.05-.05Zm0,1.24a.05.05,0,0,1,.05-.05h.57a.05.05,0,0,1,.05.05v.57a.05.05,0,0,1-.05.05h-.57a.05.05,0,0,1-.05-.05Zm0,1.24a.05.05,0,0,1,.05-.05h.57a.05.05,0,0,1,.05.05v.57a.05.05,0,0,1-.05.05h-.57a.05.05,0,0,1-.05-.05Zm0,1.24a.05.05,0,0,1,.05-.05h.57a.05.05,0,0,1,.05.05V33a.05.05,0,0,1-.05.05h-.57a.05.05,0,0,1-.05-.05Zm0,1.24a.05.05,0,0,1,.05-.05h.57a.05.05,0,0,1,.05.05v.57a.05.05,0,0,1-.05.05h-.57a.05.05,0,0,1-.05-.05Zm0,1.24a.05.05,0,0,1,.05-.05h.57a.05.05,0,0,1,.05.05v.57a.05.05,0,0,1-.05.05h-.57a.05.05,0,0,1-.05-.05Zm-1.17-7.42a.05.05,0,0,1,.05-.05h.57a.05.05,0,0,1,.05.05V28a.05.05,0,0,1-.05.05h-.57a.05.05,0,0,1-.05-.05Zm0,1.24a.05.05,0,0,1,.05-.05h.57a.05.05,0,0,1,.05.05v.57a.05.05,0,0,1-.05.05h-.57a.05.05,0,0,1-.05-.05Zm0,1.24a.05.05,0,0,1,.05-.05h.57a.05.05,0,0,1,.05.05v.57a.05.05,0,0,1-.05.05h-.57a.05.05,0,0,1-.05-.05Zm0,1.24a.05.05,0,0,1,.05-.05h.57a.05.05,0,0,1,.05.05v.57a.05.05,0,0,1-.05.05h-.57a.05.05,0,0,1-.05-.05Zm0,1.24a.05.05,0,0,1,.05-.05h.57a.05.05,0,0,1,.05.05V33a.05.05,0,0,1-.05.05h-.57a.05.05,0,0,1-.05-.05Zm0,1.24a.05.05,0,0,1,.05-.05h.57a.05.05,0,0,1,.05.05v.57a.05.05,0,0,1-.05.05h-.57a.05.05,0,0,1-.05-.05Zm0,1.24a.05.05,0,0,1,.05-.05h.57a.05.05,0,0,1,.05.05v.57a.05.05,0,0,1-.05.05h-.57a.05.05,0,0,1-.05-.05Zm-1.17-7.42a.05.05,0,0,1,.05-.05h.57a.05.05,0,0,1,.05.05V28a.05.05,0,0,1-.05.05h-.57a.05.05,0,0,1-.05-.05Zm0,1.24a.05.05,0,0,1,.05-.05h.57a.05.05,0,0,1,.05.05v.57a.05.05,0,0,1-.05.05h-.57a.05.05,0,0,1-.05-.05Zm0,1.24a.05.05,0,0,1,.05-.05h.57a.05.05,0,0,1,.05.05v.57a.05.05,0,0,1-.05.05h-.57a.05.05,0,0,1-.05-.05Zm0,1.24a.05.05,0,0,1,.05-.05h.57a.05.05,0,0,1,.05.05v.57a.05.05,0,0,1-.05.05h-.57a.05.05,0,0,1-.05-.05Zm0,1.24a.05.05,0,0,1,.05-.05h.57a.05.05,0,0,1,.05.05V33a.05.05,0,0,1-.05.05h-.57a.05.05,0,0,1-.05-.05Zm0,1.24a.05.05,0,0,1,.05-.05h.57a.05.05,0,0,1,.05.05v.57a.05.05,0,0,1-.05.05h-.57a.05.05,0,0,1-.05-.05Zm0,1.24a.05.05,0,0,1,.05-.05h.57a.05.05,0,0,1,.05.05v.57a.05.05,0,0,1-.05.05h-.57a.05.05,0,0,1-.05-.05Z"/><path class="cls-52" d="M55.49,35.78V27.06a.53.53,0,0,0-.53-.53H48a.53.53,0,0,0-.53.53v6.71h-1.2a.55.55,0,0,0-.55.55v1.3a2.68,2.68,0,0,1-2.68,2.73H41.23V37.23H37.55V27.29a37.54,37.54,0,0,1-6.43.7v6.9H26.58v4.73H46.94l.35-3.84Zm-2.08-8.35a.05.05,0,0,1,.05-.05H54a.05.05,0,0,1,.05.05V28a.05.05,0,0,1-.05.05h-.57a.05.05,0,0,1-.05-.05Zm0,1.24a.05.05,0,0,1,.05-.05H54a.05.05,0,0,1,.05.05v.57a.05.05,0,0,1-.05.05h-.57a.05.05,0,0,1-.05-.05Zm0,1.24a.05.05,0,0,1,.05-.05H54a.05.05,0,0,1,.05.05v.57a.05.05,0,0,1-.05.05h-.57a.05.05,0,0,1-.05-.05Zm0,1.24a.05.05,0,0,1,.05-.05H54a.05.05,0,0,1,.05.05v.57a.05.05,0,0,1-.05.05h-.57a.05.05,0,0,1-.05-.05Zm0,1.24a.05.05,0,0,1,.05-.05H54a.05.05,0,0,1,.05.05V33A.05.05,0,0,1,54,33h-.57a.05.05,0,0,1-.05-.05Zm0,1.24a.05.05,0,0,1,.05-.05H54a.05.05,0,0,1,.05.05v.57a.05.05,0,0,1-.05.05h-.57a.05.05,0,0,1-.05-.05Zm0,1.24a.05.05,0,0,1,.05-.05H54a.05.05,0,0,1,.05.05v.57a.05.05,0,0,1-.05.05h-.57a.05.05,0,0,1-.05-.05Zm-1.17-7.42a.05.05,0,0,1,.05-.05h.57a.05.05,0,0,1,.05.05V28a.05.05,0,0,1-.05.05h-.57a.05.05,0,0,1-.05-.05Zm0,1.24a.05.05,0,0,1,.05-.05h.57a.05.05,0,0,1,.05.05v.57a.05.05,0,0,1-.05.05h-.57a.05.05,0,0,1-.05-.05Zm0,1.24a.05.05,0,0,1,.05-.05h.57a.05.05,0,0,1,.05.05v.57a.05.05,0,0,1-.05.05h-.57a.05.05,0,0,1-.05-.05Zm0,1.24a.05.05,0,0,1,.05-.05h.57a.05.05,0,0,1,.05.05v.57a.05.05,0,0,1-.05.05h-.57a.05.05,0,0,1-.05-.05Zm0,1.24a.05.05,0,0,1,.05-.05h.57a.05.05,0,0,1,.05.05V33a.05.05,0,0,1-.05.05h-.57a.05.05,0,0,1-.05-.05Zm0,1.24a.05.05,0,0,1,.05-.05h.57a.05.05,0,0,1,.05.05v.57a.05.05,0,0,1-.05.05h-.57a.05.05,0,0,1-.05-.05Zm0,1.24a.05.05,0,0,1,.05-.05h.57a.05.05,0,0,1,.05.05v.57a.05.05,0,0,1-.05.05h-.57a.05.05,0,0,1-.05-.05Zm-1.17-7.42a.05.05,0,0,1,.05-.05h.57a.05.05,0,0,1,.05.05V28a.05.05,0,0,1-.05.05h-.57a.05.05,0,0,1-.05-.05Zm0,1.24a.05.05,0,0,1,.05-.05h.57a.05.05,0,0,1,.05.05v.57a.05.05,0,0,1-.05.05h-.57a.05.05,0,0,1-.05-.05Zm0,1.24a.05.05,0,0,1,.05-.05h.57a.05.05,0,0,1,.05.05v.57a.05.05,0,0,1-.05.05h-.57a.05.05,0,0,1-.05-.05Zm0,1.24a.05.05,0,0,1,.05-.05h.57a.05.05,0,0,1,.05.05v.57a.05.05,0,0,1-.05.05h-.57a.05.05,0,0,1-.05-.05Zm0,1.24a.05.05,0,0,1,.05-.05h.57a.05.05,0,0,1,.05.05V33a.05.05,0,0,1-.05.05h-.57a.05.05,0,0,1-.05-.05Zm0,1.24a.05.05,0,0,1,.05-.05h.57a.05.05,0,0,1,.05.05v.57a.05.05,0,0,1-.05.05h-.57a.05.05,0,0,1-.05-.05Zm0,1.24a.05.05,0,0,1,.05-.05h.57a.05.05,0,0,1,.05.05v.57a.05.05,0,0,1-.05.05h-.57a.05.05,0,0,1-.05-.05Zm-1.17-7.42a.05.05,0,0,1,.05-.05h.57a.05.05,0,0,1,.05.05V28a.05.05,0,0,1-.05.05h-.57a.05.05,0,0,1-.05-.05Zm0,1.24a.05.05,0,0,1,.05-.05h.57a.05.05,0,0,1,.05.05v.57a.05.05,0,0,1-.05.05h-.57a.05.05,0,0,1-.05-.05Zm0,1.24a.05.05,0,0,1,.05-.05h.57a.05.05,0,0,1,.05.05v.57a.05.05,0,0,1-.05.05h-.57a.05.05,0,0,1-.05-.05Zm0,1.24a.05.05,0,0,1,.05-.05h.57a.05.05,0,0,1,.05.05v.57a.05.05,0,0,1-.05.05h-.57a.05.05,0,0,1-.05-.05Zm0,1.24a.05.05,0,0,1,.05-.05h.57a.05.05,0,0,1,.05.05V33a.05.05,0,0,1-.05.05h-.57a.05.05,0,0,1-.05-.05Zm0,1.24a.05.05,0,0,1,.05-.05h.57a.05.05,0,0,1,.05.05v.57a.05.05,0,0,1-.05.05h-.57a.05.05,0,0,1-.05-.05Zm0,1.24a.05.05,0,0,1,.05-.05h.57a.05.05,0,0,1,.05.05v.57a.05.05,0,0,1-.05.05h-.57a.05.05,0,0,1-.05-.05Zm-1.17-7.42a.05.05,0,0,1,.05-.05h.57a.05.05,0,0,1,.05.05V28a.05.05,0,0,1-.05.05h-.57a.05.05,0,0,1-.05-.05Zm0,1.24a.05.05,0,0,1,.05-.05h.57a.05.05,0,0,1,.05.05v.57a.05.05,0,0,1-.05.05h-.57a.05.05,0,0,1-.05-.05Zm0,1.24a.05.05,0,0,1,.05-.05h.57a.05.05,0,0,1,.05.05v.57a.05.05,0,0,1-.05.05h-.57a.05.05,0,0,1-.05-.05Zm0,1.24a.05.05,0,0,1,.05-.05h.57a.05.05,0,0,1,.05.05v.57a.05.05,0,0,1-.05.05h-.57a.05.05,0,0,1-.05-.05Zm0,1.24a.05.05,0,0,1,.05-.05h.57a.05.05,0,0,1,.05.05V33a.05.05,0,0,1-.05.05h-.57a.05.05,0,0,1-.05-.05Zm0,1.24a.05.05,0,0,1,.05-.05h.57a.05.05,0,0,1,.05.05v.57a.05.05,0,0,1-.05.05h-.57a.05.05,0,0,1-.05-.05Zm0,1.24a.05.05,0,0,1,.05-.05h.57a.05.05,0,0,1,.05.05v.57a.05.05,0,0,1-.05.05h-.57a.05.05,0,0,1-.05-.05Z"/><path class="cls-47" d="M37.55,27.29V25.9c-1.55-.13-2.49.47-3.66,0a2.34,2.34,0,0,0-2.77.66V28A37.54,37.54,0,0,0,37.55,27.29Z"/><path class="cls-53" d="M37.55,27.29V25.9c-1.55-.13-2.49.47-3.66,0a2.34,2.34,0,0,0-2.77.66V28A37.54,37.54,0,0,0,37.55,27.29Z"/><path class="cls-48" d="M37.55,27.29V25.9c-1.55-.13-2.49.47-3.66,0a2.34,2.34,0,0,0-2.77.66V28A37.54,37.54,0,0,0,37.55,27.29Z"/><path class="cls-54" d="M37,22.6a6.69,6.69,0,0,1-2.38,0c-1.13-.28-1.65.31-2.43-.09a1.07,1.07,0,0,0-1.08,0V24A20.3,20.3,0,0,0,37,22.69Z"/><path class="cls-55" d="M37,22.6a6.69,6.69,0,0,1-2.38,0c-1.13-.28-1.65.31-2.43-.09a1.07,1.07,0,0,0-1.08,0V24A20.3,20.3,0,0,0,37,22.69Z"/><path class="cls-56" d="M37,22.6a6.69,6.69,0,0,1-2.38,0c-1.13-.28-1.65.31-2.43-.09a1.07,1.07,0,0,0-1.08,0V24A20.3,20.3,0,0,0,37,22.69Z"/><path class="cls-57" d="M55.49,35.78h-8.2l-.35,3.84h12c.18-.63.34-1.26.47-1.9H55.49Zm-6.1.88a.05.05,0,0,1-.05.05h-.57a.05.05,0,0,1-.05-.05v-.57a.05.05,0,0,1,.05-.05h.57a.05.05,0,0,1,.05.05Zm1.17,0a.05.05,0,0,1-.05.05h-.57a.05.05,0,0,1-.05-.05v-.57a.05.05,0,0,1,.05-.05h.57a.05.05,0,0,1,.05.05Zm1.17,0a.05.05,0,0,1-.05.05h-.57a.05.05,0,0,1-.05-.05v-.57a.05.05,0,0,1,.05-.05h.57a.05.05,0,0,1,.05.05Zm1.17,0a.05.05,0,0,1-.05.05h-.57a.05.05,0,0,1-.05-.05v-.57a.05.05,0,0,1,.05-.05h.57a.05.05,0,0,1,.05.05Zm1.17,0a.05.05,0,0,1-.05.05h-.57a.05.05,0,0,1-.05-.05v-.57a.05.05,0,0,1,.05-.05H54a.05.05,0,0,1,.05.05Z"/><path class="cls-58" d="M55.49,35.78h-8.2l-.35,3.84h12c.18-.63.34-1.26.47-1.9H55.49Zm-6.1.88a.05.05,0,0,1-.05.05h-.57a.05.05,0,0,1-.05-.05v-.57a.05.05,0,0,1,.05-.05h.57a.05.05,0,0,1,.05.05Zm1.17,0a.05.05,0,0,1-.05.05h-.57a.05.05,0,0,1-.05-.05v-.57a.05.05,0,0,1,.05-.05h.57a.05.05,0,0,1,.05.05Zm1.17,0a.05.05,0,0,1-.05.05h-.57a.05.05,0,0,1-.05-.05v-.57a.05.05,0,0,1,.05-.05h.57a.05.05,0,0,1,.05.05Zm1.17,0a.05.05,0,0,1-.05.05h-.57a.05.05,0,0,1-.05-.05v-.57a.05.05,0,0,1,.05-.05h.57a.05.05,0,0,1,.05.05Zm1.17,0a.05.05,0,0,1-.05.05h-.57a.05.05,0,0,1-.05-.05v-.57a.05.05,0,0,1,.05-.05H54a.05.05,0,0,1,.05.05Z"/><path class="cls-59" d="M55.49,35.78h-8.2l-.35,3.84h12c.18-.63.34-1.26.47-1.9H55.49Zm-6.1.88a.05.05,0,0,1-.05.05h-.57a.05.05,0,0,1-.05-.05v-.57a.05.05,0,0,1,.05-.05h.57a.05.05,0,0,1,.05.05Zm1.17,0a.05.05,0,0,1-.05.05h-.57a.05.05,0,0,1-.05-.05v-.57a.05.05,0,0,1,.05-.05h.57a.05.05,0,0,1,.05.05Zm1.17,0a.05.05,0,0,1-.05.05h-.57a.05.05,0,0,1-.05-.05v-.57a.05.05,0,0,1,.05-.05h.57a.05.05,0,0,1,.05.05Zm1.17,0a.05.05,0,0,1-.05.05h-.57a.05.05,0,0,1-.05-.05v-.57a.05.05,0,0,1,.05-.05h.57a.05.05,0,0,1,.05.05Zm1.17,0a.05.05,0,0,1-.05.05h-.57a.05.05,0,0,1-.05-.05v-.57a.05.05,0,0,1,.05-.05H54a.05.05,0,0,1,.05.05Z"/><rect class="cls-60" x="53.41" y="27.38" width="0.68" height="0.68" rx="0.05" ry="0.05"/><rect class="cls-61" x="53.41" y="27.38" width="0.68" height="0.68" rx="0.05" ry="0.05"/><rect class="cls-62" x="53.41" y="27.38" width="0.68" height="0.68" rx="0.05" ry="0.05"/><rect class="cls-63" x="52.24" y="27.38" width="0.68" height="0.68" rx="0.05" ry="0.05"/><rect class="cls-64" x="52.24" y="27.38" width="0.68" height="0.68" rx="0.05" ry="0.05"/><rect class="cls-65" x="52.24" y="27.38" width="0.68" height="0.68" rx="0.05" ry="0.05"/><rect class="cls-66" x="51.06" y="27.38" width="0.68" height="0.68" rx="0.05" ry="0.05"/><rect class="cls-67" x="51.06" y="27.38" width="0.68" height="0.68" rx="0.05" ry="0.05"/><rect class="cls-68" x="51.06" y="27.38" width="0.68" height="0.68" rx="0.05" ry="0.05"/><rect class="cls-69" x="49.89" y="27.38" width="0.68" height="0.68" rx="0.05" ry="0.05"/><rect class="cls-70" x="49.89" y="27.38" width="0.68" height="0.68" rx="0.05" ry="0.05"/><rect class="cls-71" x="49.89" y="27.38" width="0.68" height="0.68" rx="0.05" ry="0.05"/><rect class="cls-72" x="48.71" y="27.38" width="0.68" height="0.68" rx="0.05" ry="0.05"/><rect class="cls-73" x="48.71" y="27.38" width="0.68" height="0.68" rx="0.05" ry="0.05"/><rect class="cls-74" x="48.71" y="27.38" width="0.68" height="0.68" rx="0.05" ry="0.05"/><rect class="cls-60" x="53.41" y="28.62" width="0.68" height="0.68" rx="0.05" ry="0.05"/><rect class="cls-61" x="53.41" y="28.62" width="0.68" height="0.68" rx="0.05" ry="0.05"/><rect class="cls-62" x="53.41" y="28.62" width="0.68" height="0.68" rx="0.05" ry="0.05"/><rect class="cls-63" x="52.24" y="28.62" width="0.68" height="0.68" rx="0.05" ry="0.05"/><rect class="cls-64" x="52.24" y="28.62" width="0.68" height="0.68" rx="0.05" ry="0.05"/><rect class="cls-65" x="52.24" y="28.62" width="0.68" height="0.68" rx="0.05" ry="0.05"/><rect class="cls-66" x="51.06" y="28.62" width="0.68" height="0.68" rx="0.05" ry="0.05"/><rect class="cls-67" x="51.06" y="28.62" width="0.68" height="0.68" rx="0.05" ry="0.05"/><rect class="cls-68" x="51.06" y="28.62" width="0.68" height="0.68" rx="0.05" ry="0.05"/><rect class="cls-69" x="49.89" y="28.62" width="0.68" height="0.68" rx="0.05" ry="0.05"/><rect class="cls-70" x="49.89" y="28.62" width="0.68" height="0.68" rx="0.05" ry="0.05"/><rect class="cls-71" x="49.89" y="28.62" width="0.68" height="0.68" rx="0.05" ry="0.05"/><rect class="cls-72" x="48.71" y="28.62" width="0.68" height="0.68" rx="0.05" ry="0.05"/><rect class="cls-73" x="48.71" y="28.62" width="0.68" height="0.68" rx="0.05" ry="0.05"/><rect class="cls-74" x="48.71" y="28.62" width="0.68" height="0.68" rx="0.05" ry="0.05"/><rect class="cls-60" x="53.41" y="29.86" width="0.68" height="0.68" rx="0.05" ry="0.05"/><rect class="cls-61" x="53.41" y="29.86" width="0.68" height="0.68" rx="0.05" ry="0.05"/><rect class="cls-62" x="53.41" y="29.86" width="0.68" height="0.68" rx="0.05" ry="0.05"/><rect class="cls-63" x="52.24" y="29.86" width="0.68" height="0.68" rx="0.05" ry="0.05"/><rect class="cls-64" x="52.24" y="29.86" width="0.68" height="0.68" rx="0.05" ry="0.05"/><rect class="cls-65" x="52.24" y="29.86" width="0.68" height="0.68" rx="0.05" ry="0.05"/><rect class="cls-66" x="51.06" y="29.86" width="0.68" height="0.68" rx="0.05" ry="0.05"/><rect class="cls-67" x="51.06" y="29.86" width="0.68" height="0.68" rx="0.05" ry="0.05"/><rect class="cls-68" x="51.06" y="29.86" width="0.68" height="0.68" rx="0.05" ry="0.05"/><rect class="cls-69" x="49.89" y="29.86" width="0.68" height="0.68" rx="0.05" ry="0.05"/><rect class="cls-70" x="49.89" y="29.86" width="0.68" height="0.68" rx="0.05" ry="0.05"/><rect class="cls-71" x="49.89" y="29.86" width="0.68" height="0.68" rx="0.05" ry="0.05"/><rect class="cls-72" x="48.71" y="29.86" width="0.68" height="0.68" rx="0.05" ry="0.05"/><rect class="cls-73" x="48.71" y="29.86" width="0.68" height="0.68" rx="0.05" ry="0.05"/><rect class="cls-74" x="48.71" y="29.86" width="0.68" height="0.68" rx="0.05" ry="0.05"/><rect class="cls-60" x="53.41" y="31.09" width="0.68" height="0.68" rx="0.05" ry="0.05"/><rect class="cls-61" x="53.41" y="31.09" width="0.68" height="0.68" rx="0.05" ry="0.05"/><rect class="cls-62" x="53.41" y="31.09" width="0.68" height="0.68" rx="0.05" ry="0.05"/><rect class="cls-63" x="52.24" y="31.09" width="0.68" height="0.68" rx="0.05" ry="0.05"/><rect class="cls-64" x="52.24" y="31.09" width="0.68" height="0.68" rx="0.05" ry="0.05"/><rect class="cls-65" x="52.24" y="31.09" width="0.68" height="0.68" rx="0.05" ry="0.05"/><rect class="cls-66" x="51.06" y="31.09" width="0.68" height="0.68" rx="0.05" ry="0.05"/><rect class="cls-67" x="51.06" y="31.09" width="0.68" height="0.68" rx="0.05" ry="0.05"/><rect class="cls-68" x="51.06" y="31.09" width="0.68" height="0.68" rx="0.05" ry="0.05"/><rect class="cls-69" x="49.89" y="31.09" width="0.68" height="0.68" rx="0.05" ry="0.05"/><rect class="cls-70" x="49.89" y="31.09" width="0.68" height="0.68" rx="0.05" ry="0.05"/><rect class="cls-71" x="49.89" y="31.09" width="0.68" height="0.68" rx="0.05" ry="0.05"/><rect class="cls-72" x="48.71" y="31.09" width="0.68" height="0.68" rx="0.05" ry="0.05"/><rect class="cls-73" x="48.71" y="31.09" width="0.68" height="0.68" rx="0.05" ry="0.05"/><rect class="cls-74" x="48.71" y="31.09" width="0.68" height="0.68" rx="0.05" ry="0.05"/><rect class="cls-60" x="53.41" y="32.33" width="0.68" height="0.68" rx="0.05" ry="0.05"/><rect class="cls-61" x="53.41" y="32.33" width="0.68" height="0.68" rx="0.05" ry="0.05"/><rect class="cls-62" x="53.41" y="32.33" width="0.68" height="0.68" rx="0.05" ry="0.05"/><rect class="cls-63" x="52.24" y="32.33" width="0.68" height="0.68" rx="0.05" ry="0.05"/><rect class="cls-64" x="52.24" y="32.33" width="0.68" height="0.68" rx="0.05" ry="0.05"/><rect class="cls-65" x="52.24" y="32.33" width="0.68" height="0.68" rx="0.05" ry="0.05"/><rect class="cls-66" x="51.06" y="32.33" width="0.68" height="0.68" rx="0.05" ry="0.05"/><rect class="cls-67" x="51.06" y="32.33" width="0.68" height="0.68" rx="0.05" ry="0.05"/><rect class="cls-68" x="51.06" y="32.33" width="0.68" height="0.68" rx="0.05" ry="0.05"/><rect class="cls-69" x="49.89" y="32.33" width="0.68" height="0.68" rx="0.05" ry="0.05"/><rect class="cls-70" x="49.89" y="32.33" width="0.68" height="0.68" rx="0.05" ry="0.05"/><rect class="cls-71" x="49.89" y="32.33" width="0.68" height="0.68" rx="0.05" ry="0.05"/><rect class="cls-72" x="48.71" y="32.33" width="0.68" height="0.68" rx="0.05" ry="0.05"/><rect class="cls-73" x="48.71" y="32.33" width="0.68" height="0.68" rx="0.05" ry="0.05"/><rect class="cls-74" x="48.71" y="32.33" width="0.68" height="0.68" rx="0.05" ry="0.05"/><rect class="cls-60" x="53.41" y="33.57" width="0.68" height="0.68" rx="0.05" ry="0.05"/><rect class="cls-61" x="53.41" y="33.57" width="0.68" height="0.68" rx="0.05" ry="0.05"/><rect class="cls-62" x="53.41" y="33.57" width="0.68" height="0.68" rx="0.05" ry="0.05"/><rect class="cls-63" x="52.24" y="33.57" width="0.68" height="0.68" rx="0.05" ry="0.05"/><rect class="cls-64" x="52.24" y="33.57" width="0.68" height="0.68" rx="0.05" ry="0.05"/><rect class="cls-65" x="52.24" y="33.57" width="0.68" height="0.68" rx="0.05" ry="0.05"/><rect class="cls-66" x="51.06" y="33.57" width="0.68" height="0.68" rx="0.05" ry="0.05"/><rect class="cls-67" x="51.06" y="33.57" width="0.68" height="0.68" rx="0.05" ry="0.05"/><rect class="cls-68" x="51.06" y="33.57" width="0.68" height="0.68" rx="0.05" ry="0.05"/><rect class="cls-69" x="49.89" y="33.57" width="0.68" height="0.68" rx="0.05" ry="0.05"/><rect class="cls-70" x="49.89" y="33.57" width="0.68" height="0.68" rx="0.05" ry="0.05"/><rect class="cls-71" x="49.89" y="33.57" width="0.68" height="0.68" rx="0.05" ry="0.05"/><rect class="cls-72" x="48.71" y="33.57" width="0.68" height="0.68" rx="0.05" ry="0.05"/><rect class="cls-73" x="48.71" y="33.57" width="0.68" height="0.68" rx="0.05" ry="0.05"/><rect class="cls-74" x="48.71" y="33.57" width="0.68" height="0.68" rx="0.05" ry="0.05"/><rect class="cls-60" x="53.41" y="34.8" width="0.68" height="0.68" rx="0.05" ry="0.05"/><rect class="cls-61" x="53.41" y="34.8" width="0.68" height="0.68" rx="0.05" ry="0.05"/><rect class="cls-62" x="53.41" y="34.8" width="0.68" height="0.68" rx="0.05" ry="0.05"/><rect class="cls-63" x="52.24" y="34.8" width="0.68" height="0.68" rx="0.05" ry="0.05"/><rect class="cls-64" x="52.24" y="34.8" width="0.68" height="0.68" rx="0.05" ry="0.05"/><rect class="cls-65" x="52.24" y="34.8" width="0.68" height="0.68" rx="0.05" ry="0.05"/><rect class="cls-66" x="51.06" y="34.8" width="0.68" height="0.68" rx="0.05" ry="0.05"/><rect class="cls-67" x="51.06" y="34.8" width="0.68" height="0.68" rx="0.05" ry="0.05"/><rect class="cls-68" x="51.06" y="34.8" width="0.68" height="0.68" rx="0.05" ry="0.05"/><rect class="cls-69" x="49.89" y="34.8" width="0.68" height="0.68" rx="0.05" ry="0.05"/><rect class="cls-70" x="49.89" y="34.8" width="0.68" height="0.68" rx="0.05" ry="0.05"/><rect class="cls-71" x="49.89" y="34.8" width="0.68" height="0.68" rx="0.05" ry="0.05"/><rect class="cls-72" x="48.71" y="34.8" width="0.68" height="0.68" rx="0.05" ry="0.05"/><rect class="cls-73" x="48.71" y="34.8" width="0.68" height="0.68" rx="0.05" ry="0.05"/><rect class="cls-74" x="48.71" y="34.8" width="0.68" height="0.68" rx="0.05" ry="0.05"/><rect class="cls-60" x="53.41" y="36.04" width="0.68" height="0.68" rx="0.05" ry="0.05"/><rect class="cls-75" x="53.41" y="36.04" width="0.68" height="0.68" rx="0.05" ry="0.05"/><rect class="cls-61" x="53.41" y="36.04" width="0.68" height="0.68" rx="0.05" ry="0.05"/><rect class="cls-62" x="53.41" y="36.04" width="0.68" height="0.68" rx="0.05" ry="0.05"/><rect class="cls-63" x="52.24" y="36.04" width="0.68" height="0.68" rx="0.05" ry="0.05"/><rect class="cls-76" x="52.24" y="36.04" width="0.68" height="0.68" rx="0.05" ry="0.05"/><rect class="cls-64" x="52.24" y="36.04" width="0.68" height="0.68" rx="0.05" ry="0.05"/><rect class="cls-65" x="52.24" y="36.04" width="0.68" height="0.68" rx="0.05" ry="0.05"/><rect class="cls-66" x="51.06" y="36.04" width="0.68" height="0.68" rx="0.05" ry="0.05"/><rect class="cls-77" x="51.06" y="36.04" width="0.68" height="0.68" rx="0.05" ry="0.05"/><rect class="cls-67" x="51.06" y="36.04" width="0.68" height="0.68" rx="0.05" ry="0.05"/><rect class="cls-68" x="51.06" y="36.04" width="0.68" height="0.68" rx="0.05" ry="0.05"/><rect class="cls-69" x="49.89" y="36.04" width="0.68" height="0.68" rx="0.05" ry="0.05"/><rect class="cls-78" x="49.89" y="36.04" width="0.68" height="0.68" rx="0.05" ry="0.05"/><rect class="cls-70" x="49.89" y="36.04" width="0.68" height="0.68" rx="0.05" ry="0.05"/><rect class="cls-71" x="49.89" y="36.04" width="0.68" height="0.68" rx="0.05" ry="0.05"/><rect class="cls-72" x="48.71" y="36.04" width="0.68" height="0.68" rx="0.05" ry="0.05"/><rect class="cls-79" x="48.71" y="36.04" width="0.68" height="0.68" rx="0.05" ry="0.05"/><rect class="cls-73" x="48.71" y="36.04" width="0.68" height="0.68" rx="0.05" ry="0.05"/><rect class="cls-74" x="48.71" y="36.04" width="0.68" height="0.68" rx="0.05" ry="0.05"/><path class="cls-80" d="M41.23,37.23v1.12h1.82a2.68,2.68,0,0,0,2.68-2.73v-.15H41.51v-3a.61.61,0,0,0-.61-.61H37.55v5.35Z"/><path class="cls-81" d="M41.23,37.23v1.12h1.82a2.68,2.68,0,0,0,2.68-2.73v-.15H41.51v-3a.61.61,0,0,0-.61-.61H37.55v5.35Z"/><path class="cls-82" d="M41.23,37.23v1.12h1.82a2.68,2.68,0,0,0,2.68-2.73v-.15H41.51v-3a.61.61,0,0,0-.61-.61H37.55v5.35Z"/><path class="cls-83" d="M59.1,13.26H57.74v4H59.1c.46,0,.83-.9.83-2S59.56,13.26,59.1,13.26Z"/><path class="cls-84" d="M57.37,12.31h-2v5.91h2c.67,0,1.22-1.32,1.22-3S58,12.31,57.37,12.31Z"/><ellipse class="cls-85" cx="55.37" cy="15.27" rx="1.22" ry="2.96"/><path class="cls-86" d="M55.36,10.63H52.23v9.27h3.13c1.06,0,1.92-2.08,1.92-4.64S56.42,10.63,55.36,10.63Z"/><ellipse class="cls-87" cx="52.23" cy="15.27" rx="1.92" ry="4.64"/><path class="cls-88" d="M13.36,14.81H51.67a.52.52,0,0,1,.52.52v0a.52.52,0,0,1-.52.52H13.36a0,0,0,0,1,0,0v-1A0,0,0,0,1,13.36,14.81Z"/><path class="cls-89" d="M12.27,10.63H9.14v9.27h3.13c1.06,0,1.92-2.08,1.92-4.64S13.33,10.63,12.27,10.63Z"/><ellipse class="cls-90" cx="9.14" cy="15.27" rx="1.92" ry="4.64"/><path class="cls-91" d="M8.73,12.31h-2v5.91h2c.67,0,1.22-1.32,1.22-3S9.41,12.31,8.73,12.31Z"/><ellipse class="cls-92" cx="6.73" cy="15.27" rx="1.22" ry="2.96"/><path class="cls-93" d="M6.19,13.26H4.83v4H6.19c.46,0,.83-.9.83-2S6.65,13.26,6.19,13.26Z"/><ellipse class="cls-94" cx="4.83" cy="15.27" rx="0.83" ry="2.01"/><path class="cls-95" d="M48.3,16.53c-7.92,9.39-12.72,2.56-12.72,2.56,0,3.48,3.77,8,3.77,8,5.66,0,9.37-8.27,10.29-10.56Z"/><path class="cls-96" d="M45.58,21.81c-2.32,1.66-2.3.67-4.48,1.8s-3.78-2.86-3.78-2.86v3.37a24.08,24.08,0,0,0,2,3c5.54,0,9.22-7.93,10.23-10.41C48.76,18.13,47.19,20.66,45.58,21.81Z"/><path class="cls-97" d="M30.16,21.4a10.19,10.19,0,0,1,7.17-.56V19.2a.48.48,0,0,0-.46-.48A9.37,9.37,0,0,0,30.16,21.4Z"/><path class="cls-98" d="M36.87,19.08A9.21,9.21,0,0,0,31,21a10.41,10.41,0,0,1,6.3-.18V19.55A.48.48,0,0,0,36.87,19.08Z"/><path class="cls-99" d="M37.32,20.75l-1.38,18.6a13.9,13.9,0,0,0,9.33-3.09.93.93,0,0,0,.08-1.32C41.12,30.21,37.32,20.75,37.32,20.75Z"/><path class="cls-100" d="M35.94,39.29l1.74,0,.85-.1c2.33-.52,4.69-2.95,2.56-4.82-2.39-2.1-.87-7.33-.87-7.33h0c-1.75-3.38-2.91-6.27-2.91-6.27Z"/><path class="cls-101" d="M25.56,59.25a27.93,27.93,0,0,0,4.09.65C37,44.74,35.83,35.59,35.83,35.59l-10.2.27,1.91,11.61a14.82,14.82,0,0,1-.45,6.73Z"/><path class="cls-102" d="M33.6,35.94l-1.13-.27-6.84.18,1.91,11.61a14.82,14.82,0,0,1-.45,6.73l-.48,1.59c1.86-6.1,7-5.68,7-5.68h0Z"/><path class="cls-103" d="M36.42,35.51l-9,.35s-.56,5.87,4.78,12.32a14.68,14.68,0,0,1,3.19,7.07l.7,4.45a27.82,27.82,0,0,0,4.11-.93C40,52.15,39.14,42.06,36.42,35.51Z"/><path class="cls-101" d="M33.36,41.5a18,18,0,0,0,3.22-.36A1.48,1.48,0,0,0,37.7,39.3c-.31-1.11-.65-2.18-1-3.17l-4.87-.44-2.51.1-1.82,1a19.37,19.37,0,0,0,4.79,11.43,14.72,14.72,0,0,1,1.55,2.27h0S29.93,41.57,33.36,41.5Z"/><path class="cls-104" d="M40.37,13.56l.17-.24a.3.3,0,0,0,0-.35l-1.38-1.79a6.31,6.31,0,0,1-.67-1.09l-.56-1.16-.12-.25-4.33,3.69.88,1.16a2.37,2.37,0,0,1,.09,2.75,3.59,3.59,0,0,1-.73.82l3.14,3.83,0-3a1.51,1.51,0,0,1,1-1.43l3.19-1-.76-1.56A.37.37,0,0,1,40.37,13.56Z"/><path class="cls-105" d="M36.16,13.89A4.3,4.3,0,0,1,33.84,17c-1.93.75,2.31,2.9,2.31,2.9s-.1-1.64.37-2.09-.11-.84.26-1A4.29,4.29,0,0,1,38,16.53"/><path class="cls-106" d="M39.77,14.44c-.22,1.05-1.15.28-1.09-.24s-.37-.72-1.34-1.49.57-1.63.88-1.36,1.87,2.44,1.87,2.44a.68.68,0,0,0,.2,0,.37.37,0,0,1,.06-.23l.17-.24a.3.3,0,0,0,.05-.19s-.06.1-.28.12S39,11.64,38.49,10.93a.39.39,0,0,1,.06-.5l.07-.07-.14-.27L38,9l-1,.33-1,.83-.38,1.4L38.07,16l.42.32,1.9-.62C40.14,14.74,39.88,13.94,39.77,14.44Z"/><path class="cls-107" d="M40.37,13.56a1.53,1.53,0,0,0-.63,1.59c.06.45-.57,1.08-1.49.5-.5-.31-2.55-3.32-2-4.23a1.48,1.48,0,0,0-.14-1.66l-2.61,2.59s1.53,2,1.36,2.74a4.36,4.36,0,0,0,.41-.63.41.41,0,0,0-.11-.51c-.24-.18-.57-.5-.55-.85,0-.64.64-1.08,1.2,0s2.76,5.85,5.86,5.75,2.14-2.43.66-3.59A12.32,12.32,0,0,1,40.37,13.56Z"/><path id="_Path_" data-name="&lt;Path&gt;" class="cls-99" d="M24.31,39.58H35.42a.74.74,0,0,0,.74-.74V17.61a6.27,6.27,0,0,0-5.49.64c-3.44,2.12-7.26,7.36-7.48,20.18A1.12,1.12,0,0,0,24.31,39.58Z"/><path class="cls-108" d="M26.32,34.68c-3.35-2,5.88-7.35,5.88-7.35l-3.41-5.14L26.1,23.52c-1.61,3.21-2.79,7.94-2.91,14.91a1.12,1.12,0,0,0,1.12,1.14h3.14C30,39.58,29.67,36.71,26.32,34.68Z"/><path class="cls-97" d="M29,19.54A10.19,10.19,0,0,1,36.16,19V17.34a.48.48,0,0,0-.46-.48A9.37,9.37,0,0,0,29,19.54Z"/><path class="cls-109" d="M35.7,17.21a9.21,9.21,0,0,0-5.84,1.94,10.41,10.41,0,0,1,6.3-.18V17.69A.48.48,0,0,0,35.7,17.21Z"/><path id="_Path_2" data-name="&lt;Path&gt;" class="cls-110" d="M37.32,20.75s-.08,11,.21,16.3c.07,1.23.15,1.59-1.38,1.53V19.91Z"/><path class="cls-95" d="M30.35,20.19a3.79,3.79,0,0,0-2.28.76c-6.73,4.29-11.35-4.42-11.35-4.42l-1.18,0c0,12.67,14.74,11.26,14.74,11.26h.07a3.81,3.81,0,1,0,0-7.62Z"/><path id="_Path_3" data-name="&lt;Path&gt;" class="cls-103" d="M33.46,12.37s-1.28-1.42.36-3.78c2.25-3.24,3.29-.86,4.25.1Z"/><path id="_Path_4" data-name="&lt;Path&gt;" class="cls-97" d="M38.07,8.68l2-1.33a.24.24,0,0,1,.35.29,5.35,5.35,0,0,1-5,3.21Z"/><path class="cls-111" d="M35.35,13s-.14-.19-.33-.15-.26.6.6,1.12c0,0,.19-.08,0-.33s-.35,0-.32-.18a.25.25,0,0,1,.08-.14.17.17,0,0,0,0-.22Z"/><path class="cls-101" d="M35.35,10.86A6.77,6.77,0,0,1,34.3,9.25c-.53-1.07.94-2.1,1-2.17a4.32,4.32,0,0,0-1.52,1.5c-1.64,2.36-.36,3.78-.36,3.78Z"/><path class="cls-112" d="M40.39,7.65a.23.23,0,0,0-.11-.31c-.09.33-.87,1.66-1.37,1.75a.94.94,0,0,1-.84-.4l-2.72,2.18A5.35,5.35,0,0,0,40.39,7.65Z"/><path class="cls-113" d="M30.28,27.8h.07a3.81,3.81,0,0,0,2.48-6.7A1.63,1.63,0,0,1,31,23.81c-1.66-.81-2.21,3.58-8.51,1.84s-7-9.1-7-9.1C15.54,29.22,30.28,27.8,30.28,27.8Z"/><path class="cls-104" d="M17.8,14.66c0-.59-1.47-.66-2-.22s-.29,2.1-.29,2.1l1.18,0c1.18,0,.66-1.3.66-1.3S17.83,15.25,17.8,14.66Z"/><path class="cls-104" d="M47.4,14.66c0-.59,2-.58,2.47-.14s-.21,2-.21,2l-1.18,0c-1.18,0-.66-1.3-.66-1.3S47.37,15.25,47.4,14.66Z"/></svg>