<svg xmlns="http://www.w3.org/2000/svg" xmlns:xlink="http://www.w3.org/1999/xlink" viewBox="0 0 64 64"><defs><style>.cls-1{isolation:isolate;}.cls-2{fill:url(#linear-gradient);}.cls-3{fill:url(#linear-gradient-2);}.cls-4{fill:url(#linear-gradient-3);}.cls-5{fill:url(#linear-gradient-4);}.cls-6{fill:url(#linear-gradient-5);}.cls-7{fill:url(#linear-gradient-6);}.cls-8{fill:url(#linear-gradient-7);}.cls-9{fill:url(#linear-gradient-8);}.cls-10{fill:url(#linear-gradient-9);}.cls-11{fill:url(#linear-gradient-10);}.cls-12{fill:url(#linear-gradient-11);}.cls-13{fill:url(#linear-gradient-12);}.cls-14{fill:url(#linear-gradient-13);}.cls-15{fill:url(#linear-gradient-14);}.cls-16{fill:url(#linear-gradient-15);}.cls-17{fill:url(#linear-gradient-16);}.cls-18{fill:url(#linear-gradient-17);}.cls-19{fill:url(#linear-gradient-18);}.cls-20{fill:url(#linear-gradient-19);}.cls-21{fill:url(#linear-gradient-20);}.cls-22{fill:url(#linear-gradient-21);}.cls-23{fill:url(#linear-gradient-22);}.cls-24{fill:url(#linear-gradient-23);}.cls-25{fill:url(#linear-gradient-24);}.cls-26{fill:url(#linear-gradient-25);}.cls-27{fill:url(#linear-gradient-26);}.cls-28{fill:url(#linear-gradient-27);}.cls-29{fill:url(#linear-gradient-28);}.cls-30{fill:url(#linear-gradient-29);}.cls-31{fill:url(#linear-gradient-30);}.cls-32{fill:url(#linear-gradient-31);}.cls-33{fill:url(#linear-gradient-32);}.cls-34{fill:url(#linear-gradient-33);}.cls-35{fill:url(#linear-gradient-34);}.cls-36{fill:url(#linear-gradient-35);}.cls-37{fill:url(#linear-gradient-36);}.cls-38{fill:url(#linear-gradient-37);}.cls-39{fill:url(#linear-gradient-38);}.cls-40{fill:url(#linear-gradient-39);}.cls-41{fill:url(#linear-gradient-40);}.cls-42{fill:url(#linear-gradient-41);}.cls-43{fill:url(#linear-gradient-42);}.cls-44{fill:url(#linear-gradient-43);}.cls-45{fill:url(#linear-gradient-44);}.cls-46{fill:url(#linear-gradient-45);}.cls-47{fill:url(#linear-gradient-46);}.cls-48{fill:url(#linear-gradient-47);}.cls-49{fill:url(#linear-gradient-48);}.cls-50{fill:url(#linear-gradient-49);}.cls-51{fill:url(#linear-gradient-50);}.cls-52{fill:url(#linear-gradient-51);}.cls-53{fill:url(#linear-gradient-52);}.cls-54{fill:url(#linear-gradient-53);}.cls-55{fill:url(#linear-gradient-54);}.cls-56{fill:url(#linear-gradient-55);}.cls-57{fill:url(#linear-gradient-56);}.cls-58{fill:url(#linear-gradient-57);}.cls-59{fill:url(#linear-gradient-58);}.cls-60{fill:url(#linear-gradient-59);}.cls-61{fill:url(#linear-gradient-60);}.cls-62{fill:url(#linear-gradient-61);}.cls-63{fill:url(#linear-gradient-62);}.cls-64{fill:url(#linear-gradient-63);}.cls-65{fill:url(#linear-gradient-64);}.cls-66{fill:url(#linear-gradient-65);}.cls-67{fill:url(#linear-gradient-66);}.cls-68{opacity:0.49;mix-blend-mode:color-burn;fill:url(#linear-gradient-67);}.cls-69{fill:url(#linear-gradient-68);}.cls-70{fill:url(#linear-gradient-69);}.cls-71{fill:url(#linear-gradient-70);}.cls-72{fill:url(#linear-gradient-71);}.cls-73{fill:#fff;}.cls-74{fill:url(#linear-gradient-72);}.cls-75{fill:#f9aa8f;}.cls-76{fill:#1b1c37;}.cls-77{fill:#212a60;}.cls-78{fill:url(#linear-gradient-73);}.cls-79{fill:url(#linear-gradient-74);}.cls-80{fill:url(#linear-gradient-75);}.cls-81{fill:url(#linear-gradient-76);}.cls-82{fill:url(#linear-gradient-77);}.cls-83{fill:url(#linear-gradient-78);}.cls-84{fill:url(#linear-gradient-79);}.cls-85{fill:url(#linear-gradient-80);}.cls-86{fill:#46519e;}.cls-87{fill:#dfecf4;}.cls-88{fill:#f27c1c;}</style><linearGradient id="linear-gradient" x1="32" y1="97.25" x2="32" y2="9.14" gradientUnits="userSpaceOnUse"><stop offset="0" stop-color="#fff"/><stop offset="0.84" stop-color="#cddfec"/></linearGradient><linearGradient id="linear-gradient-2" x1="32" y1="97.25" x2="32" y2="9.14" gradientUnits="userSpaceOnUse"><stop offset="0" stop-color="#ffeba7"/><stop offset="0.51" stop-color="#f6a000"/><stop offset="1" stop-color="#ff6d00"/></linearGradient><linearGradient id="linear-gradient-3" x1="47.16" y1="45.37" x2="37" y2="-9.47" xlink:href="#linear-gradient-2"/><linearGradient id="linear-gradient-4" x1="53.28" y1="44.23" x2="43.11" y2="-10.6" xlink:href="#linear-gradient-2"/><linearGradient id="linear-gradient-5" x1="19.97" y1="50.41" x2="9.8" y2="-4.43" xlink:href="#linear-gradient-2"/><linearGradient id="linear-gradient-6" x1="22.94" y1="49.86" x2="12.77" y2="-4.98" xlink:href="#linear-gradient-2"/><linearGradient id="linear-gradient-7" x1="333.38" y1="35.09" x2="333.38" y2="-43.58" gradientTransform="matrix(-1, 0, 0, 1, 364.22, 0)" xlink:href="#linear-gradient-2"/><linearGradient id="linear-gradient-8" x1="331.26" y1="35.09" x2="331.26" y2="-43.58" gradientTransform="matrix(-1, 0, 0, 1, 364.22, 0)" xlink:href="#linear-gradient-2"/><linearGradient id="linear-gradient-9" x1="44.41" y1="44.15" x2="44.41" y2="12.12" xlink:href="#linear-gradient-2"/><linearGradient id="linear-gradient-10" x1="31.4" y1="59" x2="31.4" y2="-31.47" xlink:href="#linear-gradient-2"/><linearGradient id="linear-gradient-11" x1="323.41" y1="48.78" x2="323.41" y2="-0.28" gradientTransform="matrix(1, 0, 0, -1, -282.6, 36.11)" xlink:href="#linear-gradient-2"/><linearGradient id="linear-gradient-12" x1="325.46" y1="48.78" x2="325.46" y2="-0.28" gradientTransform="matrix(1, 0, 0, -1, -286.7, 36.11)" xlink:href="#linear-gradient-2"/><linearGradient id="linear-gradient-13" x1="327.51" y1="48.78" x2="327.51" y2="-0.28" gradientTransform="matrix(1, 0, 0, -1, -290.81, 36.11)" xlink:href="#linear-gradient-2"/><linearGradient id="linear-gradient-14" x1="329.56" y1="48.78" x2="329.56" y2="-0.28" gradientTransform="matrix(1, 0, 0, -1, -294.91, 36.11)" xlink:href="#linear-gradient-2"/><linearGradient id="linear-gradient-15" x1="331.62" y1="48.78" x2="331.62" y2="-0.28" gradientTransform="matrix(1, 0, 0, -1, -299.01, 36.11)" xlink:href="#linear-gradient-2"/><linearGradient id="linear-gradient-16" x1="323.41" y1="48.78" x2="323.41" y2="-0.28" gradientTransform="matrix(1, 0, 0, -1, -282.6, 40.44)" xlink:href="#linear-gradient-2"/><linearGradient id="linear-gradient-17" x1="325.46" y1="48.78" x2="325.46" y2="-0.28" gradientTransform="matrix(1, 0, 0, -1, -286.7, 40.44)" xlink:href="#linear-gradient-2"/><linearGradient id="linear-gradient-18" x1="327.51" y1="48.78" x2="327.51" y2="-0.28" gradientTransform="matrix(1, 0, 0, -1, -290.81, 40.44)" xlink:href="#linear-gradient-2"/><linearGradient id="linear-gradient-19" x1="329.56" y1="48.78" x2="329.56" y2="-0.28" gradientTransform="matrix(1, 0, 0, -1, -294.91, 40.44)" xlink:href="#linear-gradient-2"/><linearGradient id="linear-gradient-20" x1="331.62" y1="48.78" x2="331.62" y2="-0.28" gradientTransform="matrix(1, 0, 0, -1, -299.01, 40.44)" xlink:href="#linear-gradient-2"/><linearGradient id="linear-gradient-21" x1="323.41" y1="48.78" x2="323.41" y2="-0.28" gradientTransform="matrix(1, 0, 0, -1, -282.6, 44.76)" xlink:href="#linear-gradient-2"/><linearGradient id="linear-gradient-22" x1="325.46" y1="48.78" x2="325.46" y2="-0.28" gradientTransform="matrix(1, 0, 0, -1, -286.7, 44.76)" xlink:href="#linear-gradient-2"/><linearGradient id="linear-gradient-23" x1="327.51" y1="48.78" x2="327.51" y2="-0.28" gradientTransform="matrix(1, 0, 0, -1, -290.81, 44.76)" xlink:href="#linear-gradient-2"/><linearGradient id="linear-gradient-24" x1="329.56" y1="48.78" x2="329.56" y2="-0.28" gradientTransform="matrix(1, 0, 0, -1, -294.91, 44.76)" xlink:href="#linear-gradient-2"/><linearGradient id="linear-gradient-25" x1="331.62" y1="48.78" x2="331.62" y2="-0.28" gradientTransform="matrix(1, 0, 0, -1, -299.01, 44.76)" xlink:href="#linear-gradient-2"/><linearGradient id="linear-gradient-26" x1="323.41" y1="48.78" x2="323.41" y2="-0.28" gradientTransform="matrix(1, 0, 0, -1, -282.6, 49.08)" xlink:href="#linear-gradient-2"/><linearGradient id="linear-gradient-27" x1="325.46" y1="48.78" x2="325.46" y2="-0.28" gradientTransform="matrix(1, 0, 0, -1, -286.7, 49.08)" xlink:href="#linear-gradient-2"/><linearGradient id="linear-gradient-28" x1="327.51" y1="48.78" x2="327.51" y2="-0.28" gradientTransform="matrix(1, 0, 0, -1, -290.81, 49.08)" xlink:href="#linear-gradient-2"/><linearGradient id="linear-gradient-29" x1="329.56" y1="48.78" x2="329.56" y2="-0.28" gradientTransform="matrix(1, 0, 0, -1, -294.91, 49.08)" xlink:href="#linear-gradient-2"/><linearGradient id="linear-gradient-30" x1="331.62" y1="48.78" x2="331.62" y2="-0.28" gradientTransform="matrix(1, 0, 0, -1, -299.01, 49.08)" xlink:href="#linear-gradient-2"/><linearGradient id="linear-gradient-31" x1="323.41" y1="48.78" x2="323.41" y2="-0.28" gradientTransform="matrix(1, 0, 0, -1, -282.6, 53.4)" xlink:href="#linear-gradient-2"/><linearGradient id="linear-gradient-32" x1="325.46" y1="48.78" x2="325.46" y2="-0.28" gradientTransform="matrix(1, 0, 0, -1, -286.7, 53.4)" xlink:href="#linear-gradient-2"/><linearGradient id="linear-gradient-33" x1="327.51" y1="48.78" x2="327.51" y2="-0.28" gradientTransform="matrix(1, 0, 0, -1, -290.81, 53.4)" xlink:href="#linear-gradient-2"/><linearGradient id="linear-gradient-34" x1="329.56" y1="48.78" x2="329.56" y2="-0.28" gradientTransform="matrix(1, 0, 0, -1, -294.91, 53.4)" xlink:href="#linear-gradient-2"/><linearGradient id="linear-gradient-35" x1="331.62" y1="48.78" x2="331.62" y2="-0.28" gradientTransform="matrix(1, 0, 0, -1, -299.01, 53.4)" xlink:href="#linear-gradient-2"/><linearGradient id="linear-gradient-36" x1="323.41" y1="48.78" x2="323.41" y2="-0.28" gradientTransform="matrix(1, 0, 0, -1, -282.6, 57.73)" xlink:href="#linear-gradient-2"/><linearGradient id="linear-gradient-37" x1="325.46" y1="48.78" x2="325.46" y2="-0.28" gradientTransform="matrix(1, 0, 0, -1, -286.7, 57.73)" xlink:href="#linear-gradient-2"/><linearGradient id="linear-gradient-38" x1="327.51" y1="48.78" x2="327.51" y2="-0.28" gradientTransform="matrix(1, 0, 0, -1, -290.81, 57.73)" xlink:href="#linear-gradient-2"/><linearGradient id="linear-gradient-39" x1="329.56" y1="48.78" x2="329.56" y2="-0.28" gradientTransform="matrix(1, 0, 0, -1, -294.91, 57.73)" xlink:href="#linear-gradient-2"/><linearGradient id="linear-gradient-40" x1="331.62" y1="48.78" x2="331.62" y2="-0.28" gradientTransform="matrix(1, 0, 0, -1, -299.01, 57.73)" xlink:href="#linear-gradient-2"/><linearGradient id="linear-gradient-41" x1="323.41" y1="48.78" x2="323.41" y2="-0.28" gradientTransform="matrix(1, 0, 0, -1, -282.6, 62.05)" xlink:href="#linear-gradient-2"/><linearGradient id="linear-gradient-42" x1="325.46" y1="48.78" x2="325.46" y2="-0.28" gradientTransform="matrix(1, 0, 0, -1, -286.7, 62.05)" xlink:href="#linear-gradient-2"/><linearGradient id="linear-gradient-43" x1="327.51" y1="48.78" x2="327.51" y2="-0.28" gradientTransform="matrix(1, 0, 0, -1, -290.81, 62.05)" xlink:href="#linear-gradient-2"/><linearGradient id="linear-gradient-44" x1="329.56" y1="48.78" x2="329.56" y2="-0.28" gradientTransform="matrix(1, 0, 0, -1, -294.91, 62.05)" xlink:href="#linear-gradient-2"/><linearGradient id="linear-gradient-45" x1="331.62" y1="48.78" x2="331.62" y2="-0.28" gradientTransform="matrix(1, 0, 0, -1, -299.01, 62.05)" xlink:href="#linear-gradient-2"/><linearGradient id="linear-gradient-46" x1="323.41" y1="48.78" x2="323.41" y2="-0.28" gradientTransform="matrix(1, 0, 0, -1, -282.6, 66.37)" xlink:href="#linear-gradient-2"/><linearGradient id="linear-gradient-47" x1="325.46" y1="48.78" x2="325.46" y2="-0.28" gradientTransform="matrix(1, 0, 0, -1, -286.7, 66.37)" xlink:href="#linear-gradient-2"/><linearGradient id="linear-gradient-48" x1="327.51" y1="48.78" x2="327.51" y2="-0.28" gradientTransform="matrix(1, 0, 0, -1, -290.81, 66.37)" xlink:href="#linear-gradient-2"/><linearGradient id="linear-gradient-49" x1="329.56" y1="48.78" x2="329.56" y2="-0.28" gradientTransform="matrix(1, 0, 0, -1, -294.91, 66.37)" xlink:href="#linear-gradient-2"/><linearGradient id="linear-gradient-50" x1="331.62" y1="48.78" x2="331.62" y2="-0.28" gradientTransform="matrix(1, 0, 0, -1, -299.01, 66.37)" xlink:href="#linear-gradient-2"/><linearGradient id="linear-gradient-51" x1="323.41" y1="48.78" x2="323.41" y2="-0.28" gradientTransform="matrix(1, 0, 0, -1, -282.6, 70.69)" xlink:href="#linear-gradient-2"/><linearGradient id="linear-gradient-52" x1="325.46" y1="48.78" x2="325.46" y2="-0.28" gradientTransform="matrix(1, 0, 0, -1, -286.7, 70.69)" xlink:href="#linear-gradient-2"/><linearGradient id="linear-gradient-53" x1="327.51" y1="48.78" x2="327.51" y2="-0.28" gradientTransform="matrix(1, 0, 0, -1, -290.81, 70.69)" xlink:href="#linear-gradient-2"/><linearGradient id="linear-gradient-54" x1="329.56" y1="48.78" x2="329.56" y2="-0.28" gradientTransform="matrix(1, 0, 0, -1, -294.91, 70.69)" xlink:href="#linear-gradient-2"/><linearGradient id="linear-gradient-55" x1="331.62" y1="48.78" x2="331.62" y2="-0.28" gradientTransform="matrix(1, 0, 0, -1, -299.01, 70.69)" xlink:href="#linear-gradient-2"/><linearGradient id="linear-gradient-56" x1="323.41" y1="48.78" x2="323.41" y2="-0.28" gradientTransform="matrix(1, 0, 0, -1, -282.6, 75.01)" xlink:href="#linear-gradient-2"/><linearGradient id="linear-gradient-57" x1="325.46" y1="48.78" x2="325.46" y2="-0.28" gradientTransform="matrix(1, 0, 0, -1, -286.7, 75.01)" xlink:href="#linear-gradient-2"/><linearGradient id="linear-gradient-58" x1="327.51" y1="48.78" x2="327.51" y2="-0.28" gradientTransform="matrix(1, 0, 0, -1, -290.81, 75.01)" xlink:href="#linear-gradient-2"/><linearGradient id="linear-gradient-59" x1="329.56" y1="48.78" x2="329.56" y2="-0.28" gradientTransform="matrix(1, 0, 0, -1, -294.91, 75.01)" xlink:href="#linear-gradient-2"/><linearGradient id="linear-gradient-60" x1="331.62" y1="48.78" x2="331.62" y2="-0.28" gradientTransform="matrix(1, 0, 0, -1, -299.01, 75.01)" xlink:href="#linear-gradient-2"/><linearGradient id="linear-gradient-61" x1="323.41" y1="48.78" x2="323.41" y2="-0.28" gradientTransform="matrix(1, 0, 0, -1, -282.6, 79.34)" xlink:href="#linear-gradient-2"/><linearGradient id="linear-gradient-62" x1="325.46" y1="48.78" x2="325.46" y2="-0.28" gradientTransform="matrix(1, 0, 0, -1, -286.7, 79.34)" xlink:href="#linear-gradient-2"/><linearGradient id="linear-gradient-63" x1="327.51" y1="48.78" x2="327.51" y2="-0.28" gradientTransform="matrix(1, 0, 0, -1, -290.81, 79.34)" xlink:href="#linear-gradient-2"/><linearGradient id="linear-gradient-64" x1="329.56" y1="48.78" x2="329.56" y2="-0.28" gradientTransform="matrix(1, 0, 0, -1, -294.91, 79.34)" xlink:href="#linear-gradient-2"/><linearGradient id="linear-gradient-65" x1="331.62" y1="48.78" x2="331.62" y2="-0.28" gradientTransform="matrix(1, 0, 0, -1, -299.01, 79.34)" xlink:href="#linear-gradient-2"/><linearGradient id="linear-gradient-66" x1="344.57" y1="44.87" x2="344.57" y2="14.91" gradientTransform="matrix(-1, 0, 0, 1, 364.22, 0)" xlink:href="#linear-gradient-2"/><linearGradient id="linear-gradient-67" x1="311.51" y1="25.69" x2="311.51" y2="25.13" gradientTransform="matrix(-1, 0, 0, 1, 364.22, 0)" xlink:href="#linear-gradient-2"/><linearGradient id="linear-gradient-68" x1="310.98" y1="56.76" x2="310.98" y2="31.74" gradientTransform="matrix(-1, 0, 0, 1, 364.22, 0)" gradientUnits="userSpaceOnUse"><stop offset="0" stop-color="#7ff1a4"/><stop offset="0.52" stop-color="#2fbca4"/><stop offset="1" stop-color="#2f7da4"/></linearGradient><linearGradient id="linear-gradient-69" x1="-13259.34" y1="55.34" x2="-13259.34" y2="35.35" gradientTransform="translate(13312.87)" xlink:href="#linear-gradient"/><linearGradient id="linear-gradient-70" x1="16460.01" y1="51.96" x2="16460.01" y2="33.46" gradientTransform="matrix(-1, 0, 0, 1, 16469.43, 0)" xlink:href="#linear-gradient-68"/><linearGradient id="linear-gradient-71" x1="16460.2" y1="51.72" x2="16460.2" y2="38.86" gradientTransform="matrix(-1, 0, 0, 1, 16469.43, 0)" xlink:href="#linear-gradient"/><linearGradient id="linear-gradient-72" x1="33.27" y1="30.79" x2="41.95" y2="30.79" gradientUnits="userSpaceOnUse"><stop offset="0" stop-color="#3345a2"/><stop offset="0.41" stop-color="#3b50a6"/><stop offset="1" stop-color="#4c68b0"/></linearGradient><linearGradient id="linear-gradient-73" x1="28.86" y1="12.29" x2="37.68" y2="12.29" gradientUnits="userSpaceOnUse"><stop offset="0" stop-color="#f9aa8f"/><stop offset="1" stop-color="#f78e6b"/></linearGradient><linearGradient id="linear-gradient-74" x1="36.84" y1="0.15" x2="27.3" y2="15.2" gradientUnits="userSpaceOnUse"><stop offset="0" stop-color="#182ebd"/><stop offset="0.58" stop-color="#0d1226"/></linearGradient><linearGradient id="linear-gradient-75" x1="19.61" y1="31.15" x2="36.5" y2="31.15" xlink:href="#linear-gradient-72"/><linearGradient id="linear-gradient-76" x1="19.67" y1="25.86" x2="41.11" y2="43.77" xlink:href="#linear-gradient-72"/><linearGradient id="linear-gradient-77" x1="30.84" y1="46.39" x2="20.77" y2="28.93" xlink:href="#linear-gradient-72"/><linearGradient id="linear-gradient-78" x1="27.75" y1="55.38" x2="27.75" y2="43.13" gradientUnits="userSpaceOnUse"><stop offset="0" stop-color="#f16c52"/><stop offset="0.03" stop-color="#f16850"/><stop offset="0.23" stop-color="#ef5140"/><stop offset="0.45" stop-color="#ed4036"/><stop offset="0.7" stop-color="#ec362f"/><stop offset="1" stop-color="#ec332d"/></linearGradient><linearGradient id="linear-gradient-79" x1="27.75" y1="56.4" x2="27.75" y2="41.37" xlink:href="#linear-gradient-78"/><linearGradient id="linear-gradient-80" x1="27.75" y1="50" x2="27.75" y2="36.75" xlink:href="#linear-gradient-78"/></defs><title>man smoking cigarette</title><g class="cls-1"><g id="Layer_1" data-name="Layer 1"><circle class="cls-2" cx="32" cy="32" r="28"/><circle class="cls-3" cx="32" cy="32" r="28"/><path class="cls-4" d="M46.74,8.2a4.34,4.34,0,0,0-.38.48C44.75,11,39.18,14.6,32.54,16.82A177.1,177.1,0,0,0,50,10.6,28.08,28.08,0,0,0,46.74,8.2Z"/><path class="cls-5" d="M54,14.74a5.47,5.47,0,0,0-1,.71c-.61.52-3,.62-4,1.65s-4.16,2.31-7.71,2.8a93.24,93.24,0,0,0,14.48-2.73A28.05,28.05,0,0,0,54,14.74Z"/><path class="cls-6" d="M24.9,21.15s-5.89,1.1-9.32.38-5.22.78-7.54-.24a4.1,4.1,0,0,0-1.76-.36,27.78,27.78,0,0,0-1.39,4A81.33,81.33,0,0,0,24.9,21.15Z"/><path class="cls-7" d="M24.29,14a14.37,14.37,0,0,1-5.2.28c-2-.48-2.88.54-4.24-.15a2,2,0,0,0-2.7.89c-.31.66-1.34,0-2,.59A2.42,2.42,0,0,1,9,16l-.27.39C10.91,16.8,16.17,17.15,24.29,14Z"/><path class="cls-8" d="M33.63,8.64S29.85,9.9,28,9.57a5.71,5.71,0,0,0,1.5-.73,1.93,1.93,0,0,1,1.79-.37c.41.25.57-.36,1-.13A4.58,4.58,0,0,0,33.63,8.64Z"/><path class="cls-9" d="M35.75,19.85s-3.78,1.26-5.58.93a5.71,5.71,0,0,0,1.5-.73,1.93,1.93,0,0,1,1.79-.37c.41.25.57-.36,1-.13A4.58,4.58,0,0,0,35.75,19.85Z"/><path class="cls-10" d="M59.91,34.17h-5.7V27a3,3,0,0,0-6,0v4.65H46v7H29.52l-.61,6.7H56.63A27.83,27.83,0,0,0,59.91,34.17Z"/><path class="cls-11" d="M58.8,40.1H53.53V42H43.85V15.87a.93.93,0,0,0-.93-.93H30.8a.93.93,0,0,0-.93.93V35.1h-2.1a1,1,0,0,0-1,1v2H19.42V32.88a1.07,1.07,0,0,0-1.07-1.07H12.5V28.61a5.38,5.38,0,0,0-5.38-5.38H5.41a28,28,0,0,0,2,22.11H56.63A27.83,27.83,0,0,0,58.8,40.1Z"/><rect class="cls-12" x="40.22" y="17.46" width="1.18" height="1.18" rx="0.09" ry="0.09" transform="translate(81.62 36.11) rotate(-180)"/><rect class="cls-13" x="38.17" y="17.46" width="1.18" height="1.18" rx="0.09" ry="0.09" transform="translate(77.52 36.11) rotate(-180)"/><rect class="cls-14" x="36.11" y="17.46" width="1.18" height="1.18" rx="0.09" ry="0.09" transform="translate(73.41 36.11) rotate(-180)"/><rect class="cls-15" x="34.06" y="17.46" width="1.18" height="1.18" rx="0.09" ry="0.09" transform="translate(69.31 36.11) rotate(-180)"/><rect class="cls-16" x="32.01" y="17.46" width="1.18" height="1.18" rx="0.09" ry="0.09" transform="translate(65.21 36.11) rotate(-180)"/><rect class="cls-17" x="40.22" y="19.63" width="1.18" height="1.18" rx="0.09" ry="0.09" transform="translate(81.62 40.44) rotate(-180)"/><rect class="cls-18" x="38.17" y="19.63" width="1.18" height="1.18" rx="0.09" ry="0.09" transform="translate(77.52 40.44) rotate(-180)"/><rect class="cls-19" x="36.11" y="19.63" width="1.18" height="1.18" rx="0.09" ry="0.09" transform="translate(73.41 40.44) rotate(-180)"/><rect class="cls-20" x="34.06" y="19.63" width="1.18" height="1.18" rx="0.09" ry="0.09" transform="translate(69.31 40.44) rotate(-180)"/><rect class="cls-21" x="32.01" y="19.63" width="1.18" height="1.18" rx="0.09" ry="0.09" transform="translate(65.21 40.44) rotate(-180)"/><rect class="cls-22" x="40.22" y="21.79" width="1.18" height="1.18" rx="0.09" ry="0.09" transform="translate(81.62 44.76) rotate(-180)"/><rect class="cls-23" x="38.17" y="21.79" width="1.18" height="1.18" rx="0.09" ry="0.09" transform="translate(77.52 44.76) rotate(-180)"/><rect class="cls-24" x="36.11" y="21.79" width="1.18" height="1.18" rx="0.09" ry="0.09" transform="translate(73.41 44.76) rotate(-180)"/><rect class="cls-25" x="34.06" y="21.79" width="1.18" height="1.18" rx="0.09" ry="0.09" transform="translate(69.31 44.76) rotate(-180)"/><rect class="cls-26" x="32.01" y="21.79" width="1.18" height="1.18" rx="0.09" ry="0.09" transform="translate(65.21 44.76) rotate(-180)"/><rect class="cls-27" x="40.22" y="23.95" width="1.18" height="1.18" rx="0.09" ry="0.09" transform="translate(81.62 49.08) rotate(-180)"/><rect class="cls-28" x="38.17" y="23.95" width="1.18" height="1.18" rx="0.09" ry="0.09" transform="translate(77.52 49.08) rotate(-180)"/><rect class="cls-29" x="36.11" y="23.95" width="1.18" height="1.18" rx="0.09" ry="0.09" transform="translate(73.41 49.08) rotate(-180)"/><rect class="cls-30" x="34.06" y="23.95" width="1.18" height="1.18" rx="0.09" ry="0.09" transform="translate(69.31 49.08) rotate(-180)"/><rect class="cls-31" x="32.01" y="23.95" width="1.18" height="1.18" rx="0.09" ry="0.09" transform="translate(65.21 49.08) rotate(-180)"/><rect class="cls-32" x="40.22" y="26.11" width="1.18" height="1.18" rx="0.09" ry="0.09" transform="translate(81.62 53.4) rotate(-180)"/><rect class="cls-33" x="38.17" y="26.11" width="1.18" height="1.18" rx="0.09" ry="0.09" transform="translate(77.52 53.4) rotate(-180)"/><rect class="cls-34" x="36.11" y="26.11" width="1.18" height="1.18" rx="0.09" ry="0.09" transform="translate(73.41 53.4) rotate(-180)"/><rect class="cls-35" x="34.06" y="26.11" width="1.18" height="1.18" rx="0.09" ry="0.09" transform="translate(69.31 53.4) rotate(-180)"/><rect class="cls-36" x="32.01" y="26.11" width="1.18" height="1.18" rx="0.09" ry="0.09" transform="translate(65.21 53.4) rotate(-180)"/><rect class="cls-37" x="40.22" y="28.27" width="1.18" height="1.18" rx="0.09" ry="0.09" transform="translate(81.62 57.73) rotate(-180)"/><rect class="cls-38" x="38.17" y="28.27" width="1.18" height="1.18" rx="0.09" ry="0.09" transform="translate(77.52 57.73) rotate(-180)"/><rect class="cls-39" x="36.11" y="28.27" width="1.18" height="1.18" rx="0.09" ry="0.09" transform="translate(73.41 57.73) rotate(-180)"/><rect class="cls-40" x="34.06" y="28.27" width="1.18" height="1.18" rx="0.09" ry="0.09" transform="translate(69.31 57.73) rotate(-180)"/><rect class="cls-41" x="32.01" y="28.27" width="1.18" height="1.18" rx="0.09" ry="0.09" transform="translate(65.21 57.73) rotate(-180)"/><rect class="cls-42" x="40.22" y="30.43" width="1.18" height="1.18" rx="0.09" ry="0.09" transform="translate(81.62 62.05) rotate(-180)"/><rect class="cls-43" x="38.17" y="30.43" width="1.18" height="1.18" rx="0.09" ry="0.09" transform="translate(77.52 62.05) rotate(-180)"/><rect class="cls-44" x="36.11" y="30.43" width="1.18" height="1.18" rx="0.09" ry="0.09" transform="translate(73.41 62.05) rotate(-180)"/><rect class="cls-45" x="34.06" y="30.43" width="1.18" height="1.18" rx="0.09" ry="0.09" transform="translate(69.31 62.05) rotate(-180)"/><rect class="cls-46" x="32.01" y="30.43" width="1.18" height="1.18" rx="0.09" ry="0.09" transform="translate(65.21 62.05) rotate(-180)"/><rect class="cls-47" x="40.22" y="32.59" width="1.18" height="1.18" rx="0.09" ry="0.09" transform="translate(81.62 66.37) rotate(-180)"/><rect class="cls-48" x="38.17" y="32.59" width="1.18" height="1.18" rx="0.09" ry="0.09" transform="translate(77.52 66.37) rotate(-180)"/><rect class="cls-49" x="36.11" y="32.59" width="1.18" height="1.18" rx="0.09" ry="0.09" transform="translate(73.41 66.37) rotate(-180)"/><rect class="cls-50" x="34.06" y="32.59" width="1.18" height="1.18" rx="0.09" ry="0.09" transform="translate(69.31 66.37) rotate(-180)"/><rect class="cls-51" x="32.01" y="32.59" width="1.18" height="1.18" rx="0.09" ry="0.09" transform="translate(65.21 66.37) rotate(-180)"/><rect class="cls-52" x="40.22" y="34.75" width="1.18" height="1.18" rx="0.09" ry="0.09" transform="translate(81.62 70.69) rotate(-180)"/><rect class="cls-53" x="38.17" y="34.75" width="1.18" height="1.18" rx="0.09" ry="0.09" transform="translate(77.52 70.69) rotate(-180)"/><rect class="cls-54" x="36.11" y="34.75" width="1.18" height="1.18" rx="0.09" ry="0.09" transform="translate(73.41 70.69) rotate(-180)"/><rect class="cls-55" x="34.06" y="34.75" width="1.18" height="1.18" rx="0.09" ry="0.09" transform="translate(69.31 70.69) rotate(-180)"/><rect class="cls-56" x="32.01" y="34.75" width="1.18" height="1.18" rx="0.09" ry="0.09" transform="translate(65.21 70.69) rotate(-180)"/><rect class="cls-57" x="40.22" y="36.92" width="1.18" height="1.18" rx="0.09" ry="0.09" transform="translate(81.62 75.01) rotate(-180)"/><rect class="cls-58" x="38.17" y="36.92" width="1.18" height="1.18" rx="0.09" ry="0.09" transform="translate(77.52 75.01) rotate(-180)"/><rect class="cls-59" x="36.11" y="36.92" width="1.18" height="1.18" rx="0.09" ry="0.09" transform="translate(73.41 75.01) rotate(-180)"/><rect class="cls-60" x="34.06" y="36.92" width="1.18" height="1.18" rx="0.09" ry="0.09" transform="translate(69.31 75.01) rotate(-180)"/><rect class="cls-61" x="32.01" y="36.92" width="1.18" height="1.18" rx="0.09" ry="0.09" transform="translate(65.21 75.01) rotate(-180)"/><rect class="cls-62" x="40.22" y="39.08" width="1.18" height="1.18" rx="0.09" ry="0.09" transform="translate(81.62 79.34) rotate(-180)"/><rect class="cls-63" x="38.17" y="39.08" width="1.18" height="1.18" rx="0.09" ry="0.09" transform="translate(77.52 79.34) rotate(-180)"/><rect class="cls-64" x="36.11" y="39.08" width="1.18" height="1.18" rx="0.09" ry="0.09" transform="translate(73.41 79.34) rotate(-180)"/><rect class="cls-65" x="34.06" y="39.08" width="1.18" height="1.18" rx="0.09" ry="0.09" transform="translate(69.31 79.34) rotate(-180)"/><rect class="cls-66" x="32.01" y="39.08" width="1.18" height="1.18" rx="0.09" ry="0.09" transform="translate(65.21 79.34) rotate(-180)"/><path class="cls-67" d="M18.35,31.81a1.07,1.07,0,0,1,1.07,1.07v5.19h7.38v.27a4.69,4.69,0,0,1-4.69,4.77H18.93v-2H12.5V31.81Z"/><path class="cls-68" d="M53,25.39c.07,0-.05.12-.19.21h0l-.11,0a.39.39,0,0,1-.2-.12A1.58,1.58,0,0,1,53,25.39Z"/><path class="cls-69" d="M58,43.9a2.66,2.66,0,0,0-1.93-2.55,1.11,1.11,0,0,1-.75-.76,2.66,2.66,0,0,0-5.19.51,2.69,2.69,0,0,0,0,.6,1.06,1.06,0,0,1-.47,1,2.66,2.66,0,0,0-.39,4.12,1.72,1.72,0,0,1,.4.56,1.89,1.89,0,0,0,1.74,1.16l.24,0a1.9,1.9,0,0,1,1.24.24,2.66,2.66,0,0,0,4-2.27v0a.93.93,0,0,1,.28-.67A2.65,2.65,0,0,0,58,43.9Z"/><path class="cls-70" d="M55.27,45.5c0,.08,0,.17-.08.25a.84.84,0,0,1-.32.4,2,2,0,0,1-.23.12l-.4.2,0-.08c0-.09,0-.17.07-.26l.14-.51-.15.51c0,.08,0,.17-.08.25l0,.11,0,0h0a0,0,0,0,0,0,0h0l0,0a.83.83,0,0,1-.19.18,2,2,0,0,1-.23.12l-.43.21,0-2.4,0,3.13L53,47.73a.91.91,0,0,1-.27-.19.82.82,0,0,1-.18-.27c0-.05,0-.1-.05-.16a.34.34,0,0,0-.1-.14.36.36,0,0,0-.16-.07l-.16,0a.37.37,0,0,1-.22-.22c-.06-.21-.11-.43-.16-.65,0,.22.09.44.15.66a.39.39,0,0,0,.23.24l.16,0a.33.33,0,0,1,.14.07.31.31,0,0,1,.09.13s0,.11,0,.16a.87.87,0,0,0,.18.29,1,1,0,0,0,.28.2l.26.14-.09,6.28h0a.14.14,0,0,0,.28,0l-.1-7,.45-.24a2.08,2.08,0,0,0,.23-.13.87.87,0,0,0,.19-.19l0-.06h0l.47-.25a2.08,2.08,0,0,0,.23-.13.87.87,0,0,0,.32-.43c0-.09,0-.17.07-.26l.14-.51Z"/><path class="cls-71" d="M6.36,44.36A1.71,1.71,0,0,1,7.6,42.72a.72.72,0,0,0,.48-.49,1.71,1.71,0,0,1,3.34.33,1.73,1.73,0,0,1,0,.39.68.68,0,0,0,.3.66A1.71,1.71,0,0,1,12,46.25a1.11,1.11,0,0,0-.26.36,1.21,1.21,0,0,1-1.12.74h-.16a1.22,1.22,0,0,0-.79.15A1.71,1.71,0,0,1,7.06,46v0a.6.6,0,0,0-.18-.43A1.7,1.7,0,0,1,6.36,44.36Z"/><path class="cls-72" d="M8.12,45.39l.05.16a.54.54,0,0,0,.2.26l.15.08.26.13,0-.05,0-.17-.09-.33.1.33.05.16,0,.07h0a0,0,0,0,1,0,0h0l0,0a.53.53,0,0,0,.12.11l.15.08.27.13,0-1.54,0,2,.15-.08a.58.58,0,0,0,.17-.12.53.53,0,0,0,.11-.18s0-.07,0-.1a.22.22,0,0,1,.07-.09.23.23,0,0,1,.1,0l.1,0a.24.24,0,0,0,.14-.14c0-.14.07-.28.1-.42,0,.14-.06.28-.09.42a.25.25,0,0,1-.15.16l-.1,0-.09,0a.2.2,0,0,0-.06.08s0,.07,0,.1a.56.56,0,0,1-.11.19.62.62,0,0,1-.18.13L9.46,47l.06,4h0a.09.09,0,1,1-.18,0l.07-4.51-.29-.15L9,46.24a.56.56,0,0,1-.12-.12l0,0h0l-.3-.16-.15-.09a.56.56,0,0,1-.2-.28l0-.17L8,45.07Z"/><path class="cls-73" d="M40.13,15.36l-3.81-.68a.19.19,0,0,1-.15-.23l0-.11a.19.19,0,0,1,.22-.15l3.81.68a.19.19,0,0,1,.15.23l0,.11A.19.19,0,0,1,40.13,15.36Z"/><path class="cls-74" d="M33.27,18.28s1.62-.69,3.18,9.83c.47,3.17.57,6.23,1.82-.69s2.9-6.48,3.26-5.33c.43,1.37,2,23.12-5.62,21.11"/><path class="cls-75" d="M40.38,20.2s1.41-2.3,2.13-2.2.41,4.88-1.67,5.24"/><path class="cls-76" d="M40.63,20.21a.41.41,0,0,0,.41.41h1.42a.41.41,0,0,0,.41-.41V18.4h-2a.27.27,0,0,0-.27.27Z"/><path class="cls-76" d="M43.87,18V16.57a.41.41,0,0,0-.41-.41H43.2a.34.34,0,0,0-.34.34v1.9h.6A.41.41,0,0,0,43.87,18Z"/><path class="cls-75" d="M37.62,11.6,37,10.19a8.51,8.51,0,0,1-.6-2L36,5.68c-9.48,0-9.31,6.21-9.31,6.21v0a4.22,4.22,0,0,0,3.64,4.18c2.08.29,4.49.41,5.58-.32a2.12,2.12,0,0,0,.58-.86,6.23,6.23,0,0,0,.5-2,.49.49,0,0,1,.23-.38l.13-.08A.73.73,0,0,0,37.62,11.6Z"/><path class="cls-77" d="M39.68,58.93C38.23,53.71,36,48.77,32.78,45.4L20.07,46.64s-1.21,5.77,5.26,12.55a28,28,0,0,0,14.35-.27Z"/><path class="cls-78" d="M37.21,12.59l.13-.08a.73.73,0,0,0,.34-.7c-.16.27-.64.25-.59,0a3.1,3.1,0,0,0-.35-1,.66.66,0,0,1,0-.58,1.32,1.32,0,0,0,.11-.39,8.5,8.5,0,0,1-.43-1.58l-2,1s-3.74.44-3.07,1.65.37,1.8-.31,2.34A.75.75,0,0,1,30,13l-1.09,2.62a4.22,4.22,0,0,0,1.46.49,17.44,17.44,0,0,0,3.84.18l1.27-.37a1.94,1.94,0,0,1-1.13,0c-.65-.28.8-2.16-.18-3s.39-2.54,1.56-2.21S37,13,37,13A.49.49,0,0,1,37.21,12.59Z"/><path class="cls-79" d="M37.91,8.27a10.92,10.92,0,0,1-4.39,2.11.71.71,0,0,0-.53.49l-.15.49a.64.64,0,0,1-.61.45h0a.64.64,0,0,1-.62-.5,1.2,1.2,0,0,0-.88-.85c-.7-.24-2.08.88-.78,2.54a1.84,1.84,0,0,1-1.18,2.86c-1.2.05-1.88.34-2-2.57s-1.76-8,2.54-9c3.92-.9,7.66.43,8.89,2.79A1,1,0,0,1,37.91,8.27Z"/><path class="cls-80" d="M35.76,25.26a7.69,7.69,0,0,0-.14-1.14,47.22,47.22,0,0,0-1.15-4.75c-.59-2.17,2.08-3.51,0-3.09S28,14.16,26.81,14.19c-1.73.05-.37,2.91-1.68,3.19s-1.52,2-1.52,2h0a7.37,7.37,0,0,0-1.21,1.11,11.68,11.68,0,0,0-2.34,4.17c-1.18,3.73.31,8.2.07,19.51-.05,1.66-.07.62-.07,2.49,0,0,16.43,3.32,16.43,0C36.5,41.74,36,31.22,35.76,25.26Z"/><path class="cls-81" d="M36.44,42.84A36,36,0,0,1,33,40.39c-.22-.35-5.38-6-2.2-10.42s-1.28-8.27.63-9.44,1.37-2,.33-3.42.66-1,.67-1c-2.15-.56-4.78-1.92-5.63-1.89-1.73.05-.37,2.91-1.68,3.19s-1.52,2-1.52,2h0a7.37,7.37,0,0,0-1.21,1.11,11.68,11.68,0,0,0-2.34,4.17c-1.18,3.73.31,8.2.07,19.51-.05,1.66-.07.62-.07,2.49,0,0,4.69.95,9.06,1.32-4.2-1.33-3.24-2.77.09-2.57,2.74.16,6-1.31,7.24-1.94Z"/><path class="cls-77" d="M36.73,47.06H35.07V45.69a35.28,35.28,0,0,0-1.73-10.91c-1-3.16-2.53-7.6-3.87-10.83-2-4.87-4.18-4.73-4.47-4.68-.47.27-4.49,2.86-4.56,12.66-.08,11,0,14.8,0,14.83l-1.66,0s-.08-3.86,0-14.88c.09-11.54,5.35-14.08,5.57-14.18l.08,0c.15-.05,3.74-1.19,6.57,5.61,1.37,3.29,2.89,7.77,3.92,11a36.94,36.94,0,0,1,1.81,11.43Z"/><path class="cls-75" d="M33,40.39l2-.23c1.35-.16,1.45-.1,2.18.78s.14,2.54-.74,2.38a3.64,3.64,0,0,1-.54-.13,2.41,2.41,0,0,0-1.08-.1c-.92.11-2.39.23-2.57-.17"/><path id="_Path_" data-name="&lt;Path&gt;" class="cls-82" d="M22.59,20.27C15.5,27,2.3,42.46,31.83,43a1.51,1.51,0,0,0,1.54-1.51v-.1A1.51,1.51,0,0,0,32.45,40l-7.88-3.39a2,2,0,0,1-.76-3.21c2.12-2.49,5.11-6.93,4.3-11.35A3.31,3.31,0,0,0,22.59,20.27Z"/><path class="cls-83" d="M18.77,45.88h18a0,0,0,0,1,0,0V57.52a2.2,2.2,0,0,1-2.2,2.2H21a2.2,2.2,0,0,1-2.2-2.2V45.88A0,0,0,0,1,18.77,45.88Z"/><path class="cls-84" d="M20.1,52l7,2.74a1.85,1.85,0,0,0,1.35,0l7-2.74a2.11,2.11,0,0,0,1.34-2V48.12h-18v1.95A2.11,2.11,0,0,0,20.1,52Z"/><path class="cls-85" d="M20.1,49.8l7,2.74a1.85,1.85,0,0,0,1.35,0l7-2.74a2.11,2.11,0,0,0,1.34-2V45.88h-18v1.95A2.11,2.11,0,0,0,20.1,49.8Z"/><circle class="cls-86" cx="27.75" cy="50.28" r="0.67"/><path class="cls-75" d="M40.56,23.24a.84.84,0,0,1-.73-.87,5.66,5.66,0,0,1,.29-1.89,15.1,15.1,0,0,1,2.3-1.87c.21-.09.06.93-.42,1.4-.13.12-.1.34-.07.51A2.93,2.93,0,0,1,41.27,23a.83.83,0,0,1-.71.25Z"/><path class="cls-87" d="M41.42,17.59h.67a.25.25,0,0,1,.25.25v.56a0,0,0,0,1,0,0H41.17a0,0,0,0,1,0,0v-.56A.25.25,0,0,1,41.42,17.59Z"/><path class="cls-88" d="M41.73,16.18h.73a0,0,0,0,1,0,0v.73a.7.7,0,0,1-.7.7h0a.73.73,0,0,1-.73-.73v0A.7.7,0,0,1,41.73,16.18Z" transform="translate(0.28 34.47) rotate(-45)"/></g></g></svg>