<svg xmlns="http://www.w3.org/2000/svg" xmlns:xlink="http://www.w3.org/1999/xlink" viewBox="0 0 64 64"><defs><style>.cls-1{isolation:isolate;}.cls-2{fill:url(#linear-gradient);}.cls-3{fill:url(#linear-gradient-2);}.cls-4{fill:url(#linear-gradient-3);}.cls-5{fill:url(#linear-gradient-4);}.cls-6{fill:url(#linear-gradient-5);}.cls-7{fill:url(#linear-gradient-6);}.cls-8{fill:url(#linear-gradient-7);}.cls-9{fill:url(#linear-gradient-8);}.cls-10{fill:url(#linear-gradient-9);}.cls-11{fill:url(#linear-gradient-10);}.cls-12{fill:url(#linear-gradient-11);}.cls-13{fill:url(#linear-gradient-12);}.cls-14{fill:url(#linear-gradient-13);}.cls-15{fill:url(#linear-gradient-14);}.cls-16{fill:url(#linear-gradient-15);}.cls-17{fill:url(#linear-gradient-16);}.cls-18{fill:url(#linear-gradient-17);}.cls-19{fill:url(#linear-gradient-18);}.cls-20{fill:url(#linear-gradient-19);}.cls-21{fill:url(#linear-gradient-20);}.cls-22{fill:url(#linear-gradient-21);}.cls-23{fill:url(#linear-gradient-22);}.cls-24{fill:url(#linear-gradient-23);}.cls-25{fill:url(#linear-gradient-24);}.cls-26{fill:url(#linear-gradient-25);}.cls-27{fill:url(#linear-gradient-26);}.cls-28{fill:url(#linear-gradient-27);}.cls-29{fill:url(#linear-gradient-28);}.cls-30{fill:url(#linear-gradient-29);}.cls-31{fill:url(#linear-gradient-30);}.cls-32{fill:url(#linear-gradient-31);}.cls-33{fill:url(#linear-gradient-32);}.cls-34{fill:url(#linear-gradient-33);}.cls-35{fill:url(#linear-gradient-34);}.cls-36{fill:url(#linear-gradient-35);}.cls-37{fill:url(#linear-gradient-36);}.cls-38{fill:url(#linear-gradient-37);}.cls-39{fill:url(#linear-gradient-38);}.cls-40{fill:url(#linear-gradient-39);}.cls-41{fill:url(#linear-gradient-40);}.cls-42{fill:url(#linear-gradient-41);}.cls-43{fill:url(#linear-gradient-42);}.cls-44{fill:url(#linear-gradient-43);}.cls-45{fill:url(#linear-gradient-44);}.cls-46{fill:url(#linear-gradient-45);}.cls-47{fill:url(#linear-gradient-46);}.cls-48{fill:url(#linear-gradient-47);}.cls-49{fill:url(#linear-gradient-48);}.cls-50{fill:url(#linear-gradient-49);}.cls-51{fill:url(#linear-gradient-50);}.cls-52{fill:url(#linear-gradient-51);}.cls-53{fill:url(#linear-gradient-52);}.cls-54{fill:url(#linear-gradient-53);}.cls-55{fill:url(#linear-gradient-54);}.cls-56{fill:url(#linear-gradient-55);}.cls-57{fill:url(#linear-gradient-56);}.cls-58{fill:url(#linear-gradient-57);}.cls-59{fill:url(#linear-gradient-58);}.cls-60{fill:url(#linear-gradient-59);}.cls-61{fill:url(#linear-gradient-60);}.cls-62{fill:url(#linear-gradient-61);}.cls-63{fill:url(#linear-gradient-62);}.cls-64{fill:url(#linear-gradient-63);}.cls-65{fill:url(#linear-gradient-64);}.cls-66{fill:url(#linear-gradient-65);}.cls-67{fill:url(#linear-gradient-66);}.cls-68{fill:url(#linear-gradient-67);}.cls-69{opacity:0.49;mix-blend-mode:color-burn;fill:url(#linear-gradient-68);}.cls-70{fill:url(#linear-gradient-69);}.cls-71{fill:url(#linear-gradient-70);}.cls-72{fill:url(#linear-gradient-71);}.cls-73{fill:url(#linear-gradient-72);}.cls-74{fill:url(#linear-gradient-73);}.cls-75{fill:url(#linear-gradient-74);}.cls-76{fill:url(#linear-gradient-75);}.cls-77{fill:url(#linear-gradient-76);}.cls-78{fill:url(#linear-gradient-77);}.cls-79{fill:url(#linear-gradient-78);}.cls-80{fill:url(#linear-gradient-79);}.cls-81{fill:url(#linear-gradient-80);}.cls-82{fill:url(#linear-gradient-81);}.cls-83{fill:#eaa22f;}.cls-84{fill:url(#linear-gradient-82);}.cls-85{fill:url(#linear-gradient-83);}.cls-86{fill:url(#linear-gradient-84);}.cls-87{fill:url(#linear-gradient-85);}.cls-88{fill:#f9aa8f;}.cls-89{fill:url(#linear-gradient-86);}.cls-90{fill:#0d123b;}.cls-91{fill:#052e5b;}.cls-92{fill:#164d7f;}</style><linearGradient id="linear-gradient" x1="31.2" y1="97.25" x2="31.2" y2="9.14" gradientUnits="userSpaceOnUse"><stop offset="0" stop-color="#7ff1a4"/><stop offset="0.52" stop-color="#2fbca4"/><stop offset="1" stop-color="#2f7da4"/></linearGradient><linearGradient id="linear-gradient-2" x1="10.98" y1="68.76" x2="10.98" y2="36.44" xlink:href="#linear-gradient"/><linearGradient id="linear-gradient-3" x1="42.93" y1="49.06" x2="42.93" y2="-11.24" gradientUnits="userSpaceOnUse"><stop offset="0" stop-color="#caf1d8"/><stop offset="0.51" stop-color="#7defa4"/><stop offset="1" stop-color="#2fbca4"/></linearGradient><linearGradient id="linear-gradient-4" x1="-394.13" y1="33.76" x2="-394.13" y2="-11.25" gradientTransform="matrix(-1, 0, 0, 1, -358, 0)" xlink:href="#linear-gradient-3"/><linearGradient id="linear-gradient-5" x1="-397.61" y1="33.76" x2="-397.61" y2="-11.25" gradientTransform="matrix(-1, 0, 0, 1, -358, 0)" xlink:href="#linear-gradient-3"/><linearGradient id="linear-gradient-6" x1="-387.64" y1="33.76" x2="-387.64" y2="-11.25" gradientTransform="matrix(-1, 0, 0, 1, -358, 0)" xlink:href="#linear-gradient-3"/><linearGradient id="linear-gradient-7" x1="-406.13" y1="33.76" x2="-406.13" y2="-11.25" gradientTransform="matrix(-1, 0, 0, 1, -358, 0)" xlink:href="#linear-gradient-3"/><linearGradient id="linear-gradient-8" x1="-407.34" y1="33.76" x2="-407.34" y2="-11.25" gradientTransform="matrix(-1, 0, 0, 1, -358, 0)" xlink:href="#linear-gradient-3"/><linearGradient id="linear-gradient-9" x1="-398.27" y1="33.76" x2="-398.27" y2="-11.25" gradientTransform="matrix(-1, 0, 0, 1, -358, 0)" xlink:href="#linear-gradient-3"/><linearGradient id="linear-gradient-10" x1="53.11" y1="38.96" x2="53.11" y2="21.03" xlink:href="#linear-gradient-3"/><linearGradient id="linear-gradient-11" x1="42.64" y1="44.9" x2="42.64" y2="19.11" xlink:href="#linear-gradient-3"/><linearGradient id="linear-gradient-12" x1="-411.84" y1="41.59" x2="-411.84" y2="13.52" gradientTransform="matrix(1, 0, 0, -1, 465.68, 48.03)" xlink:href="#linear-gradient-3"/><linearGradient id="linear-gradient-13" x1="-410.67" y1="41.59" x2="-410.67" y2="13.52" gradientTransform="matrix(1, 0, 0, -1, 463.33, 48.03)" xlink:href="#linear-gradient-3"/><linearGradient id="linear-gradient-14" x1="-409.49" y1="41.59" x2="-409.49" y2="13.52" gradientTransform="matrix(1, 0, 0, -1, 460.98, 48.03)" xlink:href="#linear-gradient-3"/><linearGradient id="linear-gradient-15" x1="-408.32" y1="41.59" x2="-408.32" y2="13.52" gradientTransform="matrix(1, 0, 0, -1, 458.63, 48.03)" xlink:href="#linear-gradient-3"/><linearGradient id="linear-gradient-16" x1="-407.14" y1="41.59" x2="-407.14" y2="13.52" gradientTransform="matrix(1, 0, 0, -1, 456.29, 48.03)" xlink:href="#linear-gradient-3"/><linearGradient id="linear-gradient-17" x1="-411.84" y1="41.59" x2="-411.84" y2="13.52" gradientTransform="matrix(1, 0, 0, -1, 465.68, 50.5)" xlink:href="#linear-gradient-3"/><linearGradient id="linear-gradient-18" x1="-410.67" y1="41.59" x2="-410.67" y2="13.52" gradientTransform="matrix(1, 0, 0, -1, 463.33, 50.5)" xlink:href="#linear-gradient-3"/><linearGradient id="linear-gradient-19" x1="-409.49" y1="41.59" x2="-409.49" y2="13.52" gradientTransform="matrix(1, 0, 0, -1, 460.98, 50.5)" xlink:href="#linear-gradient-3"/><linearGradient id="linear-gradient-20" x1="-408.32" y1="41.59" x2="-408.32" y2="13.52" gradientTransform="matrix(1, 0, 0, -1, 458.63, 50.5)" xlink:href="#linear-gradient-3"/><linearGradient id="linear-gradient-21" x1="-407.14" y1="41.59" x2="-407.14" y2="13.52" gradientTransform="matrix(1, 0, 0, -1, 456.29, 50.5)" xlink:href="#linear-gradient-3"/><linearGradient id="linear-gradient-22" x1="-411.84" y1="41.59" x2="-411.84" y2="13.52" gradientTransform="matrix(1, 0, 0, -1, 465.68, 52.97)" xlink:href="#linear-gradient-3"/><linearGradient id="linear-gradient-23" x1="-410.67" y1="41.59" x2="-410.67" y2="13.52" gradientTransform="matrix(1, 0, 0, -1, 463.33, 52.97)" xlink:href="#linear-gradient-3"/><linearGradient id="linear-gradient-24" x1="-409.49" y1="41.59" x2="-409.49" y2="13.52" gradientTransform="matrix(1, 0, 0, -1, 460.98, 52.97)" xlink:href="#linear-gradient-3"/><linearGradient id="linear-gradient-25" x1="-408.32" y1="41.59" x2="-408.32" y2="13.52" gradientTransform="matrix(1, 0, 0, -1, 458.63, 52.97)" xlink:href="#linear-gradient-3"/><linearGradient id="linear-gradient-26" x1="-407.14" y1="41.59" x2="-407.14" y2="13.52" gradientTransform="matrix(1, 0, 0, -1, 456.29, 52.97)" xlink:href="#linear-gradient-3"/><linearGradient id="linear-gradient-27" x1="-411.84" y1="41.59" x2="-411.84" y2="13.52" gradientTransform="matrix(1, 0, 0, -1, 465.68, 55.45)" xlink:href="#linear-gradient-3"/><linearGradient id="linear-gradient-28" x1="-410.67" y1="41.59" x2="-410.67" y2="13.52" gradientTransform="matrix(1, 0, 0, -1, 463.33, 55.45)" xlink:href="#linear-gradient-3"/><linearGradient id="linear-gradient-29" x1="-409.49" y1="41.59" x2="-409.49" y2="13.52" gradientTransform="matrix(1, 0, 0, -1, 460.98, 55.45)" xlink:href="#linear-gradient-3"/><linearGradient id="linear-gradient-30" x1="-408.32" y1="41.59" x2="-408.32" y2="13.52" gradientTransform="matrix(1, 0, 0, -1, 458.63, 55.45)" xlink:href="#linear-gradient-3"/><linearGradient id="linear-gradient-31" x1="-407.14" y1="41.59" x2="-407.14" y2="13.52" gradientTransform="matrix(1, 0, 0, -1, 456.29, 55.45)" xlink:href="#linear-gradient-3"/><linearGradient id="linear-gradient-32" x1="-411.84" y1="41.59" x2="-411.84" y2="13.52" gradientTransform="matrix(1, 0, 0, -1, 465.68, 57.92)" xlink:href="#linear-gradient-3"/><linearGradient id="linear-gradient-33" x1="-410.67" y1="41.59" x2="-410.67" y2="13.52" gradientTransform="matrix(1, 0, 0, -1, 463.33, 57.92)" xlink:href="#linear-gradient-3"/><linearGradient id="linear-gradient-34" x1="-409.49" y1="41.59" x2="-409.49" y2="13.52" gradientTransform="matrix(1, 0, 0, -1, 460.98, 57.92)" xlink:href="#linear-gradient-3"/><linearGradient id="linear-gradient-35" x1="-408.32" y1="41.59" x2="-408.32" y2="13.52" gradientTransform="matrix(1, 0, 0, -1, 458.63, 57.92)" xlink:href="#linear-gradient-3"/><linearGradient id="linear-gradient-36" x1="-407.14" y1="41.59" x2="-407.14" y2="13.52" gradientTransform="matrix(1, 0, 0, -1, 456.29, 57.92)" xlink:href="#linear-gradient-3"/><linearGradient id="linear-gradient-37" x1="-411.84" y1="41.59" x2="-411.84" y2="13.52" gradientTransform="matrix(1, 0, 0, -1, 465.68, 60.39)" xlink:href="#linear-gradient-3"/><linearGradient id="linear-gradient-38" x1="-410.67" y1="41.59" x2="-410.67" y2="13.52" gradientTransform="matrix(1, 0, 0, -1, 463.33, 60.39)" xlink:href="#linear-gradient-3"/><linearGradient id="linear-gradient-39" x1="-409.49" y1="41.59" x2="-409.49" y2="13.52" gradientTransform="matrix(1, 0, 0, -1, 460.98, 60.39)" xlink:href="#linear-gradient-3"/><linearGradient id="linear-gradient-40" x1="-408.32" y1="41.59" x2="-408.32" y2="13.52" gradientTransform="matrix(1, 0, 0, -1, 458.63, 60.39)" xlink:href="#linear-gradient-3"/><linearGradient id="linear-gradient-41" x1="-407.14" y1="41.59" x2="-407.14" y2="13.52" gradientTransform="matrix(1, 0, 0, -1, 456.29, 60.39)" xlink:href="#linear-gradient-3"/><linearGradient id="linear-gradient-42" x1="-411.84" y1="41.59" x2="-411.84" y2="13.52" gradientTransform="matrix(1, 0, 0, -1, 465.68, 62.87)" xlink:href="#linear-gradient-3"/><linearGradient id="linear-gradient-43" x1="-410.67" y1="41.59" x2="-410.67" y2="13.52" gradientTransform="matrix(1, 0, 0, -1, 463.33, 62.87)" xlink:href="#linear-gradient-3"/><linearGradient id="linear-gradient-44" x1="-409.49" y1="41.59" x2="-409.49" y2="13.52" gradientTransform="matrix(1, 0, 0, -1, 460.98, 62.87)" xlink:href="#linear-gradient-3"/><linearGradient id="linear-gradient-45" x1="-408.32" y1="41.59" x2="-408.32" y2="13.52" gradientTransform="matrix(1, 0, 0, -1, 458.63, 62.87)" xlink:href="#linear-gradient-3"/><linearGradient id="linear-gradient-46" x1="-407.14" y1="41.59" x2="-407.14" y2="13.52" gradientTransform="matrix(1, 0, 0, -1, 456.29, 62.87)" xlink:href="#linear-gradient-3"/><linearGradient id="linear-gradient-47" x1="-411.84" y1="41.59" x2="-411.84" y2="13.52" gradientTransform="matrix(1, 0, 0, -1, 465.68, 65.34)" xlink:href="#linear-gradient-3"/><linearGradient id="linear-gradient-48" x1="-410.67" y1="41.59" x2="-410.67" y2="13.52" gradientTransform="matrix(1, 0, 0, -1, 463.33, 65.34)" xlink:href="#linear-gradient-3"/><linearGradient id="linear-gradient-49" x1="-409.49" y1="41.59" x2="-409.49" y2="13.52" gradientTransform="matrix(1, 0, 0, -1, 460.98, 65.34)" xlink:href="#linear-gradient-3"/><linearGradient id="linear-gradient-50" x1="-408.32" y1="41.59" x2="-408.32" y2="13.52" gradientTransform="matrix(1, 0, 0, -1, 458.63, 65.34)" xlink:href="#linear-gradient-3"/><linearGradient id="linear-gradient-51" x1="-407.14" y1="41.59" x2="-407.14" y2="13.52" gradientTransform="matrix(1, 0, 0, -1, 456.29, 65.34)" xlink:href="#linear-gradient-3"/><linearGradient id="linear-gradient-52" x1="-411.84" y1="41.59" x2="-411.84" y2="13.52" gradientTransform="matrix(1, 0, 0, -1, 465.68, 67.81)" xlink:href="#linear-gradient-3"/><linearGradient id="linear-gradient-53" x1="-410.67" y1="41.59" x2="-410.67" y2="13.52" gradientTransform="matrix(1, 0, 0, -1, 463.33, 67.81)" xlink:href="#linear-gradient-3"/><linearGradient id="linear-gradient-54" x1="-409.49" y1="41.59" x2="-409.49" y2="13.52" gradientTransform="matrix(1, 0, 0, -1, 460.98, 67.81)" xlink:href="#linear-gradient-3"/><linearGradient id="linear-gradient-55" x1="-408.32" y1="41.59" x2="-408.32" y2="13.52" gradientTransform="matrix(1, 0, 0, -1, 458.63, 67.81)" xlink:href="#linear-gradient-3"/><linearGradient id="linear-gradient-56" x1="-407.14" y1="41.59" x2="-407.14" y2="13.52" gradientTransform="matrix(1, 0, 0, -1, 456.29, 67.81)" xlink:href="#linear-gradient-3"/><linearGradient id="linear-gradient-57" x1="-411.84" y1="41.59" x2="-411.84" y2="13.52" gradientTransform="matrix(1, 0, 0, -1, 465.68, 70.29)" xlink:href="#linear-gradient-3"/><linearGradient id="linear-gradient-58" x1="-410.67" y1="41.59" x2="-410.67" y2="13.52" gradientTransform="matrix(1, 0, 0, -1, 463.33, 70.29)" xlink:href="#linear-gradient-3"/><linearGradient id="linear-gradient-59" x1="-409.49" y1="41.59" x2="-409.49" y2="13.52" gradientTransform="matrix(1, 0, 0, -1, 460.98, 70.29)" xlink:href="#linear-gradient-3"/><linearGradient id="linear-gradient-60" x1="-408.32" y1="41.59" x2="-408.32" y2="13.52" gradientTransform="matrix(1, 0, 0, -1, 458.63, 70.29)" xlink:href="#linear-gradient-3"/><linearGradient id="linear-gradient-61" x1="-407.14" y1="41.59" x2="-407.14" y2="13.52" gradientTransform="matrix(1, 0, 0, -1, 456.29, 70.29)" xlink:href="#linear-gradient-3"/><linearGradient id="linear-gradient-62" x1="-411.84" y1="41.59" x2="-411.84" y2="13.52" gradientTransform="matrix(1, 0, 0, -1, 465.68, 72.76)" xlink:href="#linear-gradient-3"/><linearGradient id="linear-gradient-63" x1="-410.67" y1="41.59" x2="-410.67" y2="13.52" gradientTransform="matrix(1, 0, 0, -1, 463.33, 72.76)" xlink:href="#linear-gradient-3"/><linearGradient id="linear-gradient-64" x1="-409.49" y1="41.59" x2="-409.49" y2="13.52" gradientTransform="matrix(1, 0, 0, -1, 460.98, 72.76)" xlink:href="#linear-gradient-3"/><linearGradient id="linear-gradient-65" x1="-408.32" y1="41.59" x2="-408.32" y2="13.52" gradientTransform="matrix(1, 0, 0, -1, 458.63, 72.76)" xlink:href="#linear-gradient-3"/><linearGradient id="linear-gradient-66" x1="-407.14" y1="41.59" x2="-407.14" y2="13.52" gradientTransform="matrix(1, 0, 0, -1, 456.29, 72.76)" xlink:href="#linear-gradient-3"/><linearGradient id="linear-gradient-67" x1="-399.73" y1="39.36" x2="-399.73" y2="22.21" gradientTransform="matrix(-1, 0, 0, 1, -358, 0)" xlink:href="#linear-gradient-3"/><linearGradient id="linear-gradient-68" x1="-418.65" y1="28.38" x2="-418.65" y2="28.06" gradientTransform="matrix(-1, 0, 0, 1, -358, 0)" xlink:href="#linear-gradient-3"/><linearGradient id="linear-gradient-69" x1="-389.2" y1="67.67" x2="-389.2" y2="16.12" gradientTransform="matrix(-1, 0, 0, 1, -358, 0)" xlink:href="#linear-gradient"/><linearGradient id="linear-gradient-70" x1="-375.71" y1="38.8" x2="-375.71" y2="23.68" gradientTransform="matrix(-1, 0, 0, 1, -358, 0)" xlink:href="#linear-gradient"/><linearGradient id="linear-gradient-71" x1="-375.71" y1="34.71" x2="-375.71" y2="31.98" gradientTransform="matrix(-1, 0, 0, 1, -358, 0)" xlink:href="#linear-gradient"/><linearGradient id="linear-gradient-72" x1="-377.88" y1="44.46" x2="-377.88" y2="29.34" gradientTransform="matrix(-1, 0, 0, 1, -358, 0)" xlink:href="#linear-gradient"/><linearGradient id="linear-gradient-73" x1="-377.88" y1="40.37" x2="-377.88" y2="37.64" gradientTransform="matrix(-1, 0, 0, 1, -358, 0)" xlink:href="#linear-gradient"/><linearGradient id="linear-gradient-74" x1="-373.54" y1="44.46" x2="-373.54" y2="29.34" gradientTransform="matrix(-1, 0, 0, 1, -358, 0)" xlink:href="#linear-gradient"/><linearGradient id="linear-gradient-75" x1="-373.54" y1="40.37" x2="-373.54" y2="37.64" gradientTransform="matrix(-1, 0, 0, 1, -358, 0)" xlink:href="#linear-gradient"/><linearGradient id="linear-gradient-76" x1="-380.1" y1="52.24" x2="-380.1" y2="37.12" gradientTransform="matrix(-1, 0, 0, 1, -358, 0)" xlink:href="#linear-gradient"/><linearGradient id="linear-gradient-77" x1="-380.1" y1="48.15" x2="-380.1" y2="45.42" gradientTransform="matrix(-1, 0, 0, 1, -358, 0)" xlink:href="#linear-gradient"/><linearGradient id="linear-gradient-78" x1="-375.71" y1="52.24" x2="-375.71" y2="37.12" gradientTransform="matrix(-1, 0, 0, 1, -358, 0)" xlink:href="#linear-gradient"/><linearGradient id="linear-gradient-79" x1="-375.71" y1="48.15" x2="-375.71" y2="45.42" gradientTransform="matrix(-1, 0, 0, 1, -358, 0)" xlink:href="#linear-gradient"/><linearGradient id="linear-gradient-80" x1="-371.31" y1="52.24" x2="-371.31" y2="37.12" gradientTransform="matrix(-1, 0, 0, 1, -358, 0)" xlink:href="#linear-gradient"/><linearGradient id="linear-gradient-81" x1="-371.31" y1="48.15" x2="-371.31" y2="45.42" gradientTransform="matrix(-1, 0, 0, 1, -358, 0)" xlink:href="#linear-gradient"/><linearGradient id="linear-gradient-82" x1="33.62" y1="26.52" x2="56.71" y2="43.43" gradientUnits="userSpaceOnUse"><stop offset="0" stop-color="#eaa22f"/><stop offset="1" stop-color="#d48200"/></linearGradient><linearGradient id="linear-gradient-83" x1="49.15" y1="44.99" x2="28.35" y2="64.11" gradientUnits="userSpaceOnUse"><stop offset="0" stop-color="#721a14"/><stop offset="1" stop-color="#8e241c"/></linearGradient><linearGradient id="linear-gradient-84" x1="51.65" y1="57.5" x2="51.65" y2="33.88" xlink:href="#linear-gradient-83"/><linearGradient id="linear-gradient-85" x1="58.74" y1="21.67" x2="35.95" y2="40.01" xlink:href="#linear-gradient-82"/><linearGradient id="linear-gradient-86" x1="56.84" y1="3.74" x2="31.61" y2="23.3" gradientUnits="userSpaceOnUse"><stop offset="0" stop-color="#f78e6b"/><stop offset="1" stop-color="#f9aa8f"/></linearGradient></defs><title>man bowling</title><g class="cls-1"><g id="Layer_1" data-name="Layer 1"><circle class="cls-2" cx="31.2" cy="32" r="28"/><path class="cls-3" d="M14.27,36.59H3.58a28,28,0,0,0,14.8,20.3V40.69A4.11,4.11,0,0,0,14.27,36.59Z"/><path class="cls-4" d="M59.2,32a27.86,27.86,0,0,0-5-16H28.45a1.78,1.78,0,0,0-1.78,1.78V39.62H58.14A28,28,0,0,0,59.2,32Z"/><path class="cls-5" d="M44.73,25.78A18,18,0,0,1,39.4,26c-2-.41-3,.44-4.32-.14a2.34,2.34,0,0,0-2.84.74c-.37.55-1.37,0-2.12.49a6.24,6.24,0,0,1-2.61.45S33.2,29.35,44.73,25.78Z"/><path class="cls-6" d="M44.38,21.68a8.22,8.22,0,0,1-3,.16c-1.13-.28-1.65.31-2.43-.09a1.12,1.12,0,0,0-1.55.51c-.18.38-.77,0-1.16.34a2.83,2.83,0,0,1-1.44.31S38.12,24.13,44.38,21.68Z"/><path class="cls-7" d="M26.87,23.67s3.78.62,5.54-.15A4.43,4.43,0,0,1,30.89,23a1.61,1.61,0,0,0-1.78,0c-.39.38-.58-.29-1,.07A4.73,4.73,0,0,1,26.87,23.67Z"/><path class="cls-8" d="M49.73,18.63a9.37,9.37,0,0,1-3.2.53,3.27,3.27,0,0,0,.86-.42,1.11,1.11,0,0,1,1-.21c.23.14.32-.21.59-.08A2.62,2.62,0,0,0,49.73,18.63Z"/><path class="cls-9" d="M50.94,25a9.37,9.37,0,0,1-3.2.53,3.27,3.27,0,0,0,.86-.42,1.11,1.11,0,0,1,1-.21c.23.14.32-.21.59-.08A2.62,2.62,0,0,0,50.94,25Z"/><path class="cls-10" d="M39.11,19.08a6.85,6.85,0,0,0,2.3-.55,2.39,2.39,0,0,1-.7,0,.81.81,0,0,0-.75.15c-.12.16-.28,0-.42.12A1.92,1.92,0,0,1,39.11,19.08Z"/><path class="cls-11" d="M58.86,27.65A1.72,1.72,0,0,0,58,29.11v2.66H56.81v4H47.38L47,39.62H58.14a28,28,0,0,0,.72-12Z"/><path class="cls-12" d="M58.61,37.72h-3v-15a.53.53,0,0,0-.53-.53H48.11a.53.53,0,0,0-.53.53v11h-1.2a.55.55,0,0,0-.55.55v1.15H41.6v-3a.61.61,0,0,0-.61-.61H37.64V30A3.08,3.08,0,0,0,34.56,27H31.21v7.92H26.67v4.73H58.14C58.32,39,58.48,38.36,58.61,37.72Z"/><rect class="cls-13" x="53.5" y="23.67" width="0.68" height="0.68" rx="0.05" ry="0.05" transform="translate(107.68 48.03) rotate(-180)"/><rect class="cls-14" x="52.33" y="23.67" width="0.68" height="0.68" rx="0.05" ry="0.05" transform="translate(105.33 48.03) rotate(-180)"/><rect class="cls-15" x="51.15" y="23.67" width="0.68" height="0.68" rx="0.05" ry="0.05" transform="translate(102.98 48.03) rotate(-180)"/><rect class="cls-16" x="49.98" y="23.67" width="0.68" height="0.68" rx="0.05" ry="0.05" transform="translate(100.63 48.03) rotate(-180)"/><rect class="cls-17" x="48.8" y="23.67" width="0.68" height="0.68" rx="0.05" ry="0.05" transform="translate(98.29 48.03) rotate(-180)"/><rect class="cls-18" x="53.5" y="24.91" width="0.68" height="0.68" rx="0.05" ry="0.05" transform="translate(107.68 50.5) rotate(-180)"/><rect class="cls-19" x="52.33" y="24.91" width="0.68" height="0.68" rx="0.05" ry="0.05" transform="translate(105.33 50.5) rotate(-180)"/><rect class="cls-20" x="51.15" y="24.91" width="0.68" height="0.68" rx="0.05" ry="0.05" transform="translate(102.98 50.5) rotate(-180)"/><rect class="cls-21" x="49.98" y="24.91" width="0.68" height="0.68" rx="0.05" ry="0.05" transform="translate(100.63 50.5) rotate(-180)"/><rect class="cls-22" x="48.8" y="24.91" width="0.68" height="0.68" rx="0.05" ry="0.05" transform="translate(98.29 50.5) rotate(-180)"/><rect class="cls-23" x="53.5" y="26.15" width="0.68" height="0.68" rx="0.05" ry="0.05" transform="translate(107.68 52.97) rotate(-180)"/><rect class="cls-24" x="52.33" y="26.15" width="0.68" height="0.68" rx="0.05" ry="0.05" transform="translate(105.33 52.97) rotate(-180)"/><rect class="cls-25" x="51.15" y="26.15" width="0.68" height="0.68" rx="0.05" ry="0.05" transform="translate(102.98 52.97) rotate(-180)"/><rect class="cls-26" x="49.98" y="26.15" width="0.68" height="0.68" rx="0.05" ry="0.05" transform="translate(100.63 52.97) rotate(-180)"/><rect class="cls-27" x="48.8" y="26.15" width="0.68" height="0.68" rx="0.05" ry="0.05" transform="translate(98.29 52.97) rotate(-180)"/><rect class="cls-28" x="53.5" y="27.38" width="0.68" height="0.68" rx="0.05" ry="0.05" transform="translate(107.68 55.45) rotate(-180)"/><rect class="cls-29" x="52.33" y="27.38" width="0.68" height="0.68" rx="0.05" ry="0.05" transform="translate(105.33 55.45) rotate(-180)"/><rect class="cls-30" x="51.15" y="27.38" width="0.68" height="0.68" rx="0.05" ry="0.05" transform="translate(102.98 55.45) rotate(-180)"/><rect class="cls-31" x="49.98" y="27.38" width="0.68" height="0.68" rx="0.05" ry="0.05" transform="translate(100.63 55.45) rotate(-180)"/><rect class="cls-32" x="48.8" y="27.38" width="0.68" height="0.68" rx="0.05" ry="0.05" transform="translate(98.29 55.45) rotate(-180)"/><rect class="cls-33" x="53.5" y="28.62" width="0.68" height="0.68" rx="0.05" ry="0.05" transform="translate(107.68 57.92) rotate(-180)"/><rect class="cls-34" x="52.33" y="28.62" width="0.68" height="0.68" rx="0.05" ry="0.05" transform="translate(105.33 57.92) rotate(-180)"/><rect class="cls-35" x="51.15" y="28.62" width="0.68" height="0.68" rx="0.05" ry="0.05" transform="translate(102.98 57.92) rotate(-180)"/><rect class="cls-36" x="49.98" y="28.62" width="0.68" height="0.68" rx="0.05" ry="0.05" transform="translate(100.63 57.92) rotate(-180)"/><rect class="cls-37" x="48.8" y="28.62" width="0.68" height="0.68" rx="0.05" ry="0.05" transform="translate(98.29 57.92) rotate(-180)"/><rect class="cls-38" x="53.5" y="29.86" width="0.68" height="0.68" rx="0.05" ry="0.05" transform="translate(107.68 60.39) rotate(-180)"/><rect class="cls-39" x="52.33" y="29.86" width="0.68" height="0.68" rx="0.05" ry="0.05" transform="translate(105.33 60.39) rotate(-180)"/><rect class="cls-40" x="51.15" y="29.86" width="0.68" height="0.68" rx="0.05" ry="0.05" transform="translate(102.98 60.39) rotate(-180)"/><rect class="cls-41" x="49.98" y="29.86" width="0.68" height="0.68" rx="0.05" ry="0.05" transform="translate(100.63 60.39) rotate(-180)"/><rect class="cls-42" x="48.8" y="29.86" width="0.68" height="0.68" rx="0.05" ry="0.05" transform="translate(98.29 60.39) rotate(-180)"/><rect class="cls-43" x="53.5" y="31.09" width="0.68" height="0.68" rx="0.05" ry="0.05" transform="translate(107.68 62.87) rotate(-180)"/><rect class="cls-44" x="52.33" y="31.09" width="0.68" height="0.68" rx="0.05" ry="0.05" transform="translate(105.33 62.87) rotate(-180)"/><rect class="cls-45" x="51.15" y="31.09" width="0.68" height="0.68" rx="0.05" ry="0.05" transform="translate(102.98 62.87) rotate(-180)"/><rect class="cls-46" x="49.98" y="31.09" width="0.68" height="0.68" rx="0.05" ry="0.05" transform="translate(100.63 62.87) rotate(-180)"/><rect class="cls-47" x="48.8" y="31.09" width="0.68" height="0.68" rx="0.05" ry="0.05" transform="translate(98.29 62.87) rotate(-180)"/><rect class="cls-48" x="53.5" y="32.33" width="0.68" height="0.68" rx="0.05" ry="0.05" transform="translate(107.68 65.34) rotate(-180)"/><rect class="cls-49" x="52.33" y="32.33" width="0.68" height="0.68" rx="0.05" ry="0.05" transform="translate(105.33 65.34) rotate(-180)"/><rect class="cls-50" x="51.15" y="32.33" width="0.68" height="0.68" rx="0.05" ry="0.05" transform="translate(102.98 65.34) rotate(-180)"/><rect class="cls-51" x="49.98" y="32.33" width="0.68" height="0.68" rx="0.05" ry="0.05" transform="translate(100.63 65.34) rotate(-180)"/><rect class="cls-52" x="48.8" y="32.33" width="0.68" height="0.68" rx="0.05" ry="0.05" transform="translate(98.29 65.34) rotate(-180)"/><rect class="cls-53" x="53.5" y="33.57" width="0.68" height="0.68" rx="0.05" ry="0.05" transform="translate(107.68 67.81) rotate(-180)"/><rect class="cls-54" x="52.33" y="33.57" width="0.68" height="0.68" rx="0.05" ry="0.05" transform="translate(105.33 67.81) rotate(-180)"/><rect class="cls-55" x="51.15" y="33.57" width="0.68" height="0.68" rx="0.05" ry="0.05" transform="translate(102.98 67.81) rotate(-180)"/><rect class="cls-56" x="49.98" y="33.57" width="0.68" height="0.68" rx="0.05" ry="0.05" transform="translate(100.63 67.81) rotate(-180)"/><rect class="cls-57" x="48.8" y="33.57" width="0.68" height="0.68" rx="0.05" ry="0.05" transform="translate(98.29 67.81) rotate(-180)"/><rect class="cls-58" x="53.5" y="34.8" width="0.68" height="0.68" rx="0.05" ry="0.05" transform="translate(107.68 70.29) rotate(-180)"/><rect class="cls-59" x="52.33" y="34.8" width="0.68" height="0.68" rx="0.05" ry="0.05" transform="translate(105.33 70.29) rotate(-180)"/><rect class="cls-60" x="51.15" y="34.8" width="0.68" height="0.68" rx="0.05" ry="0.05" transform="translate(102.98 70.29) rotate(-180)"/><rect class="cls-61" x="49.98" y="34.8" width="0.68" height="0.68" rx="0.05" ry="0.05" transform="translate(100.63 70.29) rotate(-180)"/><rect class="cls-62" x="48.8" y="34.8" width="0.68" height="0.68" rx="0.05" ry="0.05" transform="translate(98.29 70.29) rotate(-180)"/><rect class="cls-63" x="53.5" y="36.04" width="0.68" height="0.68" rx="0.05" ry="0.05" transform="translate(107.68 72.76) rotate(-180)"/><rect class="cls-64" x="52.33" y="36.04" width="0.68" height="0.68" rx="0.05" ry="0.05" transform="translate(105.33 72.76) rotate(-180)"/><rect class="cls-65" x="51.15" y="36.04" width="0.68" height="0.68" rx="0.05" ry="0.05" transform="translate(102.98 72.76) rotate(-180)"/><rect class="cls-66" x="49.98" y="36.04" width="0.68" height="0.68" rx="0.05" ry="0.05" transform="translate(100.63 72.76) rotate(-180)"/><rect class="cls-67" x="48.8" y="36.04" width="0.68" height="0.68" rx="0.05" ry="0.05" transform="translate(98.29 72.76) rotate(-180)"/><path class="cls-68" d="M41,31.88a.61.61,0,0,1,.61.61v3h4.22v.15a2.68,2.68,0,0,1-2.68,2.73H41.32V37.23H37.64V31.88Z"/><path class="cls-69" d="M60.79,28.21s0,.07-.11.12h-.07a.23.23,0,0,1-.12-.07A.9.9,0,0,1,60.79,28.21Z"/><path class="cls-70" d="M52.21,50.5a28,28,0,0,1-42,0Z"/><path class="cls-71" d="M17.53,38.36a1.48,1.48,0,0,1-1.41-1,6.6,6.6,0,0,1-.33-2.12A5.2,5.2,0,0,1,16.74,32a.86.86,0,0,0,.17-.82,5.44,5.44,0,0,1-.22-1.59c0-1.41.45-2.56,1-2.56s1,1.15,1,2.56a5.44,5.44,0,0,1-.22,1.59.86.86,0,0,0,.17.82,5.2,5.2,0,0,1,.94,3.26,6.6,6.6,0,0,1-.33,2.12,1.48,1.48,0,0,1-1.41,1Z"/><path class="cls-72" d="M17.71,33.09a6,6,0,0,1-1.49-.18,3.94,3.94,0,0,1,.22-.45,6.36,6.36,0,0,0,2.56,0,3.94,3.94,0,0,1,.22.45A6,6,0,0,1,17.71,33.09Z"/><path class="cls-73" d="M19.7,44a1.48,1.48,0,0,1-1.41-1A6.6,6.6,0,0,1,18,40.92a5.2,5.2,0,0,1,.94-3.26.86.86,0,0,0,.17-.82,5.44,5.44,0,0,1-.22-1.59c0-1.41.45-2.56,1-2.56s1,1.15,1,2.56a5.44,5.44,0,0,1-.22,1.59.86.86,0,0,0,.17.82,5.2,5.2,0,0,1,.94,3.26A6.6,6.6,0,0,1,21.46,43,1.48,1.48,0,0,1,20,44Z"/><path class="cls-74" d="M19.88,38.75a6,6,0,0,1-1.49-.18,3.94,3.94,0,0,1,.22-.45,6.36,6.36,0,0,0,2.56,0,3.94,3.94,0,0,1,.22.45A6,6,0,0,1,19.88,38.75Z"/><path class="cls-75" d="M15.37,44A1.48,1.48,0,0,1,14,43a6.6,6.6,0,0,1-.33-2.12,5.2,5.2,0,0,1,.94-3.26.86.86,0,0,0,.17-.82,5.44,5.44,0,0,1-.22-1.59c0-1.41.45-2.56,1-2.56s1,1.15,1,2.56a5.44,5.44,0,0,1-.22,1.59.86.86,0,0,0,.17.82,5.2,5.2,0,0,1,.94,3.26A6.6,6.6,0,0,1,17.12,43a1.48,1.48,0,0,1-1.41,1Z"/><path class="cls-76" d="M15.54,38.75A6,6,0,0,1,14,38.57a3.94,3.94,0,0,1,.22-.45,6.36,6.36,0,0,0,2.56,0,3.94,3.94,0,0,1,.22.45A6,6,0,0,1,15.54,38.75Z"/><path class="cls-77" d="M21.93,51.8a1.48,1.48,0,0,1-1.41-1,6.6,6.6,0,0,1-.33-2.12,5.2,5.2,0,0,1,.94-3.26.86.86,0,0,0,.17-.82A5.44,5.44,0,0,1,21.09,43c0-1.41.45-2.56,1-2.56s1,1.15,1,2.56a5.44,5.44,0,0,1-.22,1.59.86.86,0,0,0,.17.82A5.2,5.2,0,0,1,24,48.69a6.6,6.6,0,0,1-.33,2.12,1.48,1.48,0,0,1-1.41,1Z"/><path class="cls-78" d="M22.1,46.53a6,6,0,0,1-1.49-.18,3.94,3.94,0,0,1,.22-.45,6.36,6.36,0,0,0,2.56,0,3.94,3.94,0,0,1,.22.45A6,6,0,0,1,22.1,46.53Z"/><path class="cls-79" d="M17.53,51.8a1.48,1.48,0,0,1-1.41-1,6.6,6.6,0,0,1-.33-2.12,5.2,5.2,0,0,1,.94-3.26.86.86,0,0,0,.17-.82A5.44,5.44,0,0,1,16.7,43c0-1.41.45-2.56,1-2.56s1,1.15,1,2.56a5.44,5.44,0,0,1-.22,1.59.86.86,0,0,0,.17.82,5.2,5.2,0,0,1,.94,3.26,6.6,6.6,0,0,1-.33,2.12,1.48,1.48,0,0,1-1.41,1Z"/><path class="cls-80" d="M17.71,46.53a6,6,0,0,1-1.49-.18,3.94,3.94,0,0,1,.22-.45,6.36,6.36,0,0,0,2.56,0,3.94,3.94,0,0,1,.22.45A6,6,0,0,1,17.71,46.53Z"/><path class="cls-81" d="M13.14,51.8a1.48,1.48,0,0,1-1.41-1,6.6,6.6,0,0,1-.33-2.12,5.2,5.2,0,0,1,.94-3.26.86.86,0,0,0,.17-.82A5.44,5.44,0,0,1,12.3,43c0-1.41.45-2.56,1-2.56s1,1.15,1,2.56a5.44,5.44,0,0,1-.22,1.59.86.86,0,0,0,.17.82,5.2,5.2,0,0,1,.94,3.26,6.6,6.6,0,0,1-.33,2.12,1.48,1.48,0,0,1-1.41,1Z"/><path class="cls-82" d="M13.31,46.53a6,6,0,0,1-1.49-.18A3.94,3.94,0,0,1,12,45.9a6.36,6.36,0,0,0,2.56,0,3.94,3.94,0,0,1,.22.45A6,6,0,0,1,13.31,46.53Z"/><path class="cls-83" d="M42.93,15.84s-4,3.61-4.17,15.69c-.11,10.41-6.23,11.68-6.23,11.68a1.31,1.31,0,0,1,1.56,1c.26,1.3,9.85-2.28,10.54-17.13"/><path class="cls-84" d="M42.93,15.84s-4,3.61-4.17,15.69c-.11,10.41-6.23,11.68-6.23,11.68a1.31,1.31,0,0,1,1.56,1c.26,1.3,9.85-2.28,10.54-17.13"/><g id="_Group_" data-name="&lt;Group&gt;"><path class="cls-85" d="M53.4,49.06a13.06,13.06,0,0,1,1.67-9L44,41.23s-1.73,9.41.92,15.2A28.13,28.13,0,0,0,53.4,49.06Z"/><path class="cls-86" d="M58.59,37.85c-3.86-4.73-11.28,5.78-11.28,5.78,0,3.74-1.09,8.34-2.59,12.89A28,28,0,0,0,58.59,37.85Z"/><path class="cls-83" d="M48,13.83s-6.54.56-5.94,4.8,3.43,14.13,1.51,22c-1.77,7.25,8.24,4.9,14.34-.18A28,28,0,0,0,54.64,16.7,9.47,9.47,0,0,0,48,13.83Z"/><path class="cls-87" d="M48,13.83a11.89,11.89,0,0,0-2.84.67l-.32,6.57s5.86,4.25,4.4,8.81-5,13.88-5,13.88L51.6,36s1.94-2.92,4.36-1.82,1.37,7-2.8,9.28a23.53,23.53,0,0,0,4.75-3A28,28,0,0,0,54.64,16.7,9.47,9.47,0,0,0,48,13.83Z"/></g><path class="cls-88" d="M48.18,14c-.28-.4-1.13-.38-.77-2.67,0-.09,0-.17,0-.26h0a5.3,5.3,0,0,0,.06-.77,4.74,4.74,0,0,0-4.56-4.91c-2.52,0-3.66,1-3.66,3.7s1.14,6.12,3.66,6.12a4.28,4.28,0,0,0,.72-.06h0s.89,0,.43,1-1.13,4.5,1.26,5.13S48.47,14.43,48.18,14Z"/><path class="cls-89" d="M45.71,21.31h0c2.11-.14,2.75-6.9,2.47-7.29s-1.13-.38-.77-2.67c0-.09,0-.17,0-.26h0a5.3,5.3,0,0,0,.06-.77,5.11,5.11,0,0,0-1.1-3.2l0,0s-5.76.58-6.06.71l-1,.36a7.51,7.51,0,0,0-.06.95,10.35,10.35,0,0,0,.08,1.28,11.82,11.82,0,0,0,1.45.3c.5,0,.43,2.21.48,2.29s-.32.3-.61.19.17.5.5.43a.81.81,0,0,0,.69-1.06c-.13-.8.5-2.12,1.73-1.47s1.28,3.87-.13,4.12l.19,0h0c.48,0,1.48,0,1.78.82.39,1.1-.84,3.7,0,3.77S46.56,21.19,45.71,21.31Z"/><path class="cls-90" d="M37.69,8.49a.64.64,0,0,1,.59.6.4.4,0,0,0,.19.33c.56.4,3.2.87,6-.43.62-.29.71,1.69.72,2.48a.24.24,0,0,0,.31.23h0a.24.24,0,0,0,.17-.24c0-.47,0-1.66.82-1.66,1,0,.17,1.88.29,2.22s.6.26.6.26,1-4.57-.25-6.89S41,3.94,38.76,5.9C37,7.43,36.77,8.38,37.69,8.49Z"/><path class="cls-83" d="M54,16.37a2.41,2.41,0,0,0-3.86,1.23,14.08,14.08,0,0,0-.34,4.91c.62,7.66-4.81,19.81-8.41,20.83,0,0,2.09-.1,2.65,1,0,0,8-4.26,11.45-17.15C57,21.6,56,18,54,16.37Z"/><path class="cls-88" d="M44.13,44.31A5.23,5.23,0,0,1,39.56,46c-2.75-.48-1-3.18-1-3.18S43.42,43,44.13,44.31Z"/><path class="cls-88" d="M34,44.1s-.25-1-1.09-1.23a3.09,3.09,0,0,0-2.54,1.23C30.1,44.66,34.23,45,34,44.1Z"/><circle class="cls-91" cx="35.42" cy="43.77" r="5.02"/><circle class="cls-92" cx="31.88" cy="42.16" r="0.32"/><circle class="cls-92" cx="31.88" cy="43.46" r="0.32"/><circle class="cls-92" cx="33.04" cy="42.79" r="0.32"/></g></g></svg>