<svg xmlns="http://www.w3.org/2000/svg" xmlns:xlink="http://www.w3.org/1999/xlink" viewBox="0 0 64 64"><defs><style>.cls-1{isolation:isolate;}.cls-2{fill:url(#linear-gradient);}.cls-3{fill:url(#linear-gradient-2);}.cls-4{fill:url(#linear-gradient-3);}.cls-5{fill:url(#linear-gradient-4);}.cls-6{fill:url(#linear-gradient-5);}.cls-7{fill:url(#linear-gradient-6);}.cls-8{fill:url(#linear-gradient-7);}.cls-9{fill:url(#linear-gradient-8);}.cls-10{fill:url(#linear-gradient-9);}.cls-11{fill:url(#linear-gradient-10);}.cls-12{fill:url(#linear-gradient-11);}.cls-13{fill:url(#linear-gradient-12);}.cls-14{fill:url(#linear-gradient-13);}.cls-15{fill:url(#linear-gradient-14);}.cls-16{fill:url(#linear-gradient-15);}.cls-17{fill:url(#linear-gradient-16);}.cls-18{fill:url(#linear-gradient-67);}.cls-19{opacity:0.49;mix-blend-mode:color-burn;fill:url(#linear-gradient-68);}.cls-20{fill:#063247;}.cls-21{fill:#09212b;}.cls-22{fill:#f37920;}.cls-23{fill:url(#linear-gradient-69);}.cls-24{fill:url(#linear-gradient-70);}.cls-25{fill:url(#linear-gradient-71);}.cls-26{fill:url(#linear-gradient-72);}.cls-27{fill:url(#linear-gradient-73);}.cls-28{fill:url(#linear-gradient-74);}.cls-29{fill:url(#linear-gradient-75);}.cls-30{fill:url(#linear-gradient-76);}.cls-31{fill:url(#linear-gradient-77);}.cls-32{fill:url(#linear-gradient-78);}.cls-33{fill:url(#linear-gradient-79);}.cls-34{fill:#70411a;}.cls-35{fill:url(#linear-gradient-80);}.cls-36{fill:#f29981;}.cls-37{fill:url(#linear-gradient-81);}.cls-38{fill:#f9aa8f;}.cls-39{fill:url(#linear-gradient-82);}.cls-40{fill:url(#linear-gradient-83);}.cls-41{fill:url(#linear-gradient-84);}.cls-42{fill:url(#linear-gradient-85);}.cls-43{fill:#f59180;}.cls-44{fill:url(#linear-gradient-86);}.cls-45{fill:url(#linear-gradient-87);}.cls-46{fill:url(#linear-gradient-88);}.cls-47{fill:url(#linear-gradient-89);}.cls-48{fill:url(#linear-gradient-90);}.cls-49{fill:url(#linear-gradient-91);}.cls-50{fill:url(#linear-gradient-92);}.cls-51{fill:#fff;}.cls-52{fill:url(#linear-gradient-93);}</style><linearGradient id="linear-gradient" x1="32" y1="71.33" x2="32" y2="64.31" gradientUnits="userSpaceOnUse"><stop offset="0" stop-color="#d1efe7"/><stop offset="0.53" stop-color="#97efe7"/><stop offset="1" stop-color="#3ccbe3"/></linearGradient><linearGradient id="linear-gradient-2" x1="32" y1="63.25" x2="32" y2="-3.5" xlink:href="#linear-gradient"/><linearGradient id="linear-gradient-3" x1="22.71" y1="29.11" x2="22.71" y2="-23.81" xlink:href="#linear-gradient"/><linearGradient id="linear-gradient-4" x1="15.49" y1="29.95" x2="15.49" y2="-22.06" xlink:href="#linear-gradient"/><linearGradient id="linear-gradient-5" x1="49.1" y1="34.85" x2="49.1" y2="-42.43" xlink:href="#linear-gradient"/><linearGradient id="linear-gradient-6" x1="424.28" y1="35.09" x2="424.28" y2="-43.58" gradientTransform="translate(-376.22)" xlink:href="#linear-gradient"/><linearGradient id="linear-gradient-7" x1="409.38" y1="35.09" x2="409.38" y2="-43.58" gradientTransform="translate(-376.22)" xlink:href="#linear-gradient"/><linearGradient id="linear-gradient-8" x1="407.26" y1="35.09" x2="407.26" y2="-43.58" gradientTransform="translate(-376.22)" xlink:href="#linear-gradient"/><linearGradient id="linear-gradient-9" x1="423.13" y1="35.09" x2="423.13" y2="-43.58" gradientTransform="translate(-376.22)" xlink:href="#linear-gradient"/><linearGradient id="linear-gradient-10" x1="19.59" y1="51.17" x2="19.59" y2="22.04" xlink:href="#linear-gradient"/><linearGradient id="linear-gradient-11" x1="32.6" y1="45" x2="32.6" y2="22.58" xlink:href="#linear-gradient"/><linearGradient id="linear-gradient-12" x1="399.41" y1="48.13" x2="399.41" y2="3.02" gradientTransform="translate(-376.22)" xlink:href="#linear-gradient"/><linearGradient id="linear-gradient-13" x1="401.46" y1="48.13" x2="401.46" y2="3.02" gradientTransform="translate(-376.22)" xlink:href="#linear-gradient"/><linearGradient id="linear-gradient-14" x1="403.51" y1="48.13" x2="403.51" y2="3.02" gradientTransform="translate(-376.22)" xlink:href="#linear-gradient"/><linearGradient id="linear-gradient-15" x1="405.56" y1="48.13" x2="405.56" y2="3.02" gradientTransform="translate(-376.22)" xlink:href="#linear-gradient"/><linearGradient id="linear-gradient-16" x1="407.62" y1="48.13" x2="407.62" y2="3.02" gradientTransform="translate(-376.22)" xlink:href="#linear-gradient"/><linearGradient id="linear-gradient-67" x1="420.57" y1="44.87" x2="420.57" y2="14.91" gradientTransform="translate(-376.22)" xlink:href="#linear-gradient"/><linearGradient id="linear-gradient-68" x1="387.51" y1="25.69" x2="387.51" y2="25.13" gradientTransform="translate(-376.22)" xlink:href="#linear-gradient"/><linearGradient id="linear-gradient-69" x1="43.8" y1="40.89" x2="54.13" y2="66.07" gradientUnits="userSpaceOnUse"><stop offset="0" stop-color="#f27c1c"/><stop offset="0.42" stop-color="#ea6c18"/><stop offset="1" stop-color="#da4f11"/></linearGradient><linearGradient id="linear-gradient-70" x1="55.53" y1="55.13" x2="41.49" y2="41.45" gradientUnits="userSpaceOnUse"><stop offset="0" stop-color="#fff"/><stop offset="0.84" stop-color="#cddfec"/></linearGradient><linearGradient id="linear-gradient-71" x1="58.89" y1="49.73" x2="38.01" y2="42.02" gradientUnits="userSpaceOnUse"><stop offset="0" stop-color="#96becf"/><stop offset="1" stop-color="#c4dde8"/></linearGradient><linearGradient id="linear-gradient-72" x1="-939.94" y1="-333.67" x2="-939.94" y2="-337.55" gradientTransform="translate(953.86 379.14)" xlink:href="#linear-gradient-70"/><linearGradient id="linear-gradient-73" x1="-940.5" y1="-332.21" x2="-940.5" y2="-336.09" gradientTransform="translate(953.31 378.78)" xlink:href="#linear-gradient-70"/><linearGradient id="linear-gradient-74" x1="-941.05" y1="-330.75" x2="-941.05" y2="-334.63" gradientTransform="translate(952.76 378.43)" xlink:href="#linear-gradient-70"/><linearGradient id="linear-gradient-75" x1="-941.61" y1="-329.28" x2="-941.61" y2="-333.16" gradientTransform="translate(952.2 378.07)" xlink:href="#linear-gradient-70"/><linearGradient id="linear-gradient-76" x1="45.68" y1="25.24" x2="66.81" y2="59.06" xlink:href="#linear-gradient-69"/><linearGradient id="linear-gradient-77" x1="20.33" y1="77.97" x2="30.85" y2="38.5" xlink:href="#linear-gradient-70"/><linearGradient id="linear-gradient-78" x1="27.15" y1="57.61" x2="29.77" y2="41.21" xlink:href="#linear-gradient-71"/><linearGradient id="linear-gradient-79" x1="16.17" y1="53.73" x2="18.36" y2="27.12" xlink:href="#linear-gradient-69"/><linearGradient id="linear-gradient-80" x1="35.12" y1="37.34" x2="9.1" y2="38.32" gradientUnits="userSpaceOnUse"><stop offset="0" stop-color="#502a09"/><stop offset="0.12" stop-color="#532c09"/><stop offset="1" stop-color="#68370c"/></linearGradient><linearGradient id="linear-gradient-81" x1="26.73" y1="15.78" x2="33.43" y2="15.78" gradientUnits="userSpaceOnUse"><stop offset="0" stop-color="#c76228"/><stop offset="1" stop-color="#f37920"/></linearGradient><linearGradient id="linear-gradient-82" x1="34.56" y1="18.36" x2="28.99" y2="-0.5" gradientUnits="userSpaceOnUse"><stop offset="0" stop-color="#f9aa8f"/><stop offset="1" stop-color="#f78e6b"/></linearGradient><linearGradient id="linear-gradient-83" x1="25.24" y1="16.41" x2="39.26" y2="16.41" gradientUnits="userSpaceOnUse"><stop offset="0" stop-color="#041f2b"/><stop offset="0.77" stop-color="#052d40"/><stop offset="1" stop-color="#063247"/></linearGradient><linearGradient id="linear-gradient-84" x1="33.05" y1="31.57" x2="26.45" y2="8.36" xlink:href="#linear-gradient-82"/><linearGradient id="linear-gradient-85" x1="18.31" y1="37.4" x2="18.14" y2="24.03" gradientUnits="userSpaceOnUse"><stop offset="0" stop-color="#063247"/><stop offset="0.23" stop-color="#052d40"/><stop offset="1" stop-color="#041f2b"/></linearGradient><linearGradient id="linear-gradient-86" x1="17.13" y1="13.59" x2="29.19" y2="50.08" xlink:href="#linear-gradient-69"/><linearGradient id="linear-gradient-87" x1="36.8" y1="44.36" x2="32.54" y2="32.17" xlink:href="#linear-gradient-69"/><linearGradient id="linear-gradient-88" x1="25.32" y1="64.57" x2="30.16" y2="46.37" xlink:href="#linear-gradient-70"/><linearGradient id="linear-gradient-89" x1="28.72" y1="51.31" x2="28.72" y2="49.23" xlink:href="#linear-gradient-70"/><linearGradient id="linear-gradient-90" x1="28.72" y1="52.38" x2="28.72" y2="50.3" xlink:href="#linear-gradient-70"/><linearGradient id="linear-gradient-91" x1="28.72" y1="53.45" x2="28.72" y2="51.37" xlink:href="#linear-gradient-70"/><linearGradient id="linear-gradient-92" x1="28.72" y1="54.52" x2="28.72" y2="52.44" xlink:href="#linear-gradient-70"/><linearGradient id="linear-gradient-93" x1="56.88" y1="19.84" x2="55.76" y2="6.21" gradientTransform="translate(-5.69 13.4) rotate(-12.58)" xlink:href="#linear-gradient-70"/></defs><title>motorcycle</title><g class="cls-1"><g id="Layer_1" data-name="Layer 1"><circle class="cls-2" cx="32" cy="32" r="28"/><path class="cls-3" d="M4,32A27.87,27.87,0,0,0,7.37,45.33H56.63A28,28,0,1,0,4,32Z"/><path class="cls-4" d="M31.46,16.82C24.82,14.6,19.25,11,17.64,8.68a4.34,4.34,0,0,0-.38-.48A28.08,28.08,0,0,0,14,10.6,177.1,177.1,0,0,0,31.46,16.82Z"/><path class="cls-5" d="M22.73,19.91c-3.55-.49-6.68-1.77-7.71-2.8S11.59,16,11,15.46a5.47,5.47,0,0,0-1-.71,28.05,28.05,0,0,0-1.71,2.44A93.24,93.24,0,0,0,22.73,19.91Z"/><path class="cls-6" d="M57.72,20.93a4.1,4.1,0,0,0-1.76.36c-2.32,1-4.11-.48-7.54.24s-9.32-.38-9.32-.38a81.33,81.33,0,0,0,20,3.81A27.78,27.78,0,0,0,57.72,20.93Z"/><path class="cls-7" d="M39.71,14a14.37,14.37,0,0,0,5.2.28c2-.48,2.88.54,4.24-.15a2,2,0,0,1,2.7.89c.31.66,1.34,0,2,.59a4.94,4.94,0,0,0,2.51.54S50.66,18.26,39.71,14Z"/><path class="cls-8" d="M30.37,8.64S34.15,9.9,36,9.57a5.71,5.71,0,0,1-1.5-.73,1.93,1.93,0,0,0-1.79-.37c-.41.25-.57-.36-1-.13A4.58,4.58,0,0,1,30.37,8.64Z"/><path class="cls-9" d="M28.25,19.85s3.78,1.26,5.58.93a5.71,5.71,0,0,1-1.5-.73,1.93,1.93,0,0,0-1.79-.37c-.41.25-.57-.36-1-.13A4.58,4.58,0,0,1,28.25,19.85Z"/><path class="cls-10" d="M48.92,9.43s-2.9-.23-4-1a4.18,4.18,0,0,0,1.22-.07,1.41,1.41,0,0,1,1.31.26c.2.29.48-.08.73.2A3.35,3.35,0,0,0,48.92,9.43Z"/><path class="cls-11" d="M34.48,38.63H18v-7H15.84V27a3,3,0,0,0-6,0v7.2H4.09A27.83,27.83,0,0,0,7.37,45.33H35.1Z"/><path class="cls-12" d="M60,32a28,28,0,0,0-1.41-8.77H56.88a5.38,5.38,0,0,0-5.38,5.38v3.21H45.65a1.07,1.07,0,0,0-1.07,1.07v5.19H37.21v-2a1,1,0,0,0-1-1h-2.1V15.87a.93.93,0,0,0-.93-.93H21.08a.93.93,0,0,0-.93.93V42H10.47V40.1H5.2a27.83,27.83,0,0,0,2.18,5.23H56.63A27.87,27.87,0,0,0,60,32Z"/><rect class="cls-13" x="22.6" y="17.46" width="1.18" height="1.18" rx="0.09" ry="0.09"/><rect class="cls-14" x="24.65" y="17.46" width="1.18" height="1.18" rx="0.09" ry="0.09"/><rect class="cls-15" x="26.7" y="17.46" width="1.18" height="1.18" rx="0.09" ry="0.09"/><rect class="cls-16" x="28.75" y="17.46" width="1.18" height="1.18" rx="0.09" ry="0.09"/><rect class="cls-17" x="30.81" y="17.46" width="1.18" height="1.18" rx="0.09" ry="0.09"/><rect class="cls-13" x="22.6" y="19.63" width="1.18" height="1.18" rx="0.09" ry="0.09"/><rect class="cls-14" x="24.65" y="19.63" width="1.18" height="1.18" rx="0.09" ry="0.09"/><rect class="cls-15" x="26.7" y="19.63" width="1.18" height="1.18" rx="0.09" ry="0.09"/><rect class="cls-16" x="28.75" y="19.63" width="1.18" height="1.18" rx="0.09" ry="0.09"/><rect class="cls-17" x="30.81" y="19.63" width="1.18" height="1.18" rx="0.09" ry="0.09"/><rect class="cls-13" x="22.6" y="21.79" width="1.18" height="1.18" rx="0.09" ry="0.09"/><rect class="cls-14" x="24.65" y="21.79" width="1.18" height="1.18" rx="0.09" ry="0.09"/><rect class="cls-15" x="26.7" y="21.79" width="1.18" height="1.18" rx="0.09" ry="0.09"/><rect class="cls-16" x="28.75" y="21.79" width="1.18" height="1.18" rx="0.09" ry="0.09"/><rect class="cls-17" x="30.81" y="21.79" width="1.18" height="1.18" rx="0.09" ry="0.09"/><rect class="cls-13" x="22.6" y="23.95" width="1.18" height="1.18" rx="0.09" ry="0.09"/><rect class="cls-14" x="24.65" y="23.95" width="1.18" height="1.18" rx="0.09" ry="0.09"/><rect class="cls-15" x="26.7" y="23.95" width="1.18" height="1.18" rx="0.09" ry="0.09"/><rect class="cls-16" x="28.75" y="23.95" width="1.18" height="1.18" rx="0.09" ry="0.09"/><rect class="cls-17" x="30.81" y="23.95" width="1.18" height="1.18" rx="0.09" ry="0.09"/><rect class="cls-13" x="22.6" y="26.11" width="1.18" height="1.18" rx="0.09" ry="0.09"/><rect class="cls-14" x="24.65" y="26.11" width="1.18" height="1.18" rx="0.09" ry="0.09"/><rect class="cls-15" x="26.7" y="26.11" width="1.18" height="1.18" rx="0.09" ry="0.09"/><rect class="cls-16" x="28.75" y="26.11" width="1.18" height="1.18" rx="0.09" ry="0.09"/><rect class="cls-17" x="30.81" y="26.11" width="1.18" height="1.18" rx="0.09" ry="0.09"/><rect class="cls-13" x="22.6" y="28.27" width="1.18" height="1.18" rx="0.09" ry="0.09"/><rect class="cls-14" x="24.65" y="28.27" width="1.18" height="1.18" rx="0.09" ry="0.09"/><rect class="cls-15" x="26.7" y="28.27" width="1.18" height="1.18" rx="0.09" ry="0.09"/><rect class="cls-16" x="28.75" y="28.27" width="1.18" height="1.18" rx="0.09" ry="0.09"/><rect class="cls-17" x="30.81" y="28.27" width="1.18" height="1.18" rx="0.09" ry="0.09"/><rect class="cls-13" x="22.6" y="30.43" width="1.18" height="1.18" rx="0.09" ry="0.09"/><rect class="cls-14" x="24.65" y="30.43" width="1.18" height="1.18" rx="0.09" ry="0.09"/><rect class="cls-15" x="26.7" y="30.43" width="1.18" height="1.18" rx="0.09" ry="0.09"/><rect class="cls-16" x="28.75" y="30.43" width="1.18" height="1.18" rx="0.09" ry="0.09"/><rect class="cls-17" x="30.81" y="30.43" width="1.18" height="1.18" rx="0.09" ry="0.09"/><rect class="cls-13" x="22.6" y="32.59" width="1.18" height="1.18" rx="0.09" ry="0.09"/><rect class="cls-14" x="24.65" y="32.59" width="1.18" height="1.18" rx="0.09" ry="0.09"/><rect class="cls-15" x="26.7" y="32.59" width="1.18" height="1.18" rx="0.09" ry="0.09"/><rect class="cls-16" x="28.75" y="32.59" width="1.18" height="1.18" rx="0.09" ry="0.09"/><rect class="cls-17" x="30.81" y="32.59" width="1.18" height="1.18" rx="0.09" ry="0.09"/><rect class="cls-13" x="22.6" y="34.75" width="1.18" height="1.18" rx="0.09" ry="0.09"/><rect class="cls-14" x="24.65" y="34.75" width="1.18" height="1.18" rx="0.09" ry="0.09"/><rect class="cls-15" x="26.7" y="34.75" width="1.18" height="1.18" rx="0.09" ry="0.09"/><rect class="cls-16" x="28.75" y="34.75" width="1.18" height="1.18" rx="0.09" ry="0.09"/><rect class="cls-17" x="30.81" y="34.75" width="1.18" height="1.18" rx="0.09" ry="0.09"/><rect class="cls-13" x="22.6" y="36.92" width="1.18" height="1.18" rx="0.09" ry="0.09"/><rect class="cls-14" x="24.65" y="36.92" width="1.18" height="1.18" rx="0.09" ry="0.09"/><rect class="cls-15" x="26.7" y="36.92" width="1.18" height="1.18" rx="0.09" ry="0.09"/><rect class="cls-16" x="28.75" y="36.92" width="1.18" height="1.18" rx="0.09" ry="0.09"/><rect class="cls-17" x="30.81" y="36.92" width="1.18" height="1.18" rx="0.09" ry="0.09"/><rect class="cls-13" x="22.6" y="39.08" width="1.18" height="1.18" rx="0.09" ry="0.09"/><rect class="cls-14" x="24.65" y="39.08" width="1.18" height="1.18" rx="0.09" ry="0.09"/><rect class="cls-15" x="26.7" y="39.08" width="1.18" height="1.18" rx="0.09" ry="0.09"/><rect class="cls-16" x="28.75" y="39.08" width="1.18" height="1.18" rx="0.09" ry="0.09"/><rect class="cls-17" x="30.81" y="39.08" width="1.18" height="1.18" rx="0.09" ry="0.09"/><path class="cls-18" d="M45.65,31.81a1.07,1.07,0,0,0-1.07,1.07v5.19H37.21v.27a4.69,4.69,0,0,0,4.69,4.77h3.18v-2H51.5V31.81Z"/><path class="cls-19" d="M11,25.39c-.07,0,.05.12.19.21h0l.11,0a.39.39,0,0,0,.2-.12A1.58,1.58,0,0,0,11,25.39Z"/><path class="cls-20" d="M45.61,35.48l-.16-3.11a2.08,2.08,0,0,1,.69-1.66l2.71-2.43a2.08,2.08,0,0,1,1.39-.53h2.53l.57,7.08-6.44.65"/><path class="cls-21" d="M56.2,46.07A13.14,13.14,0,0,0,41.84,58.22,28.09,28.09,0,0,0,56.2,46.07Z"/><path class="cls-22" d="M54,44.83a.93.93,0,0,0-1-.93,13,13,0,0,0-7.51,3.16,12.22,12.22,0,0,0-4.6,9.76.65.65,0,0,0,.65.61H42a2.65,2.65,0,0,0,2.42-1.58,13.91,13.91,0,0,1,8.35-7.42A1.75,1.75,0,0,0,54,46.76Z"/><path class="cls-23" d="M54,45a13.08,13.08,0,0,0-7.37,3.15A12.38,12.38,0,0,0,42,57.42a2.65,2.65,0,0,0,2.4-1.58,13.91,13.91,0,0,1,8.35-7.42A1.75,1.75,0,0,0,54,46.76Z"/><path class="cls-24" d="M51.9,51.69l-6-12-5,6.78,7.74,8A28.15,28.15,0,0,0,51.9,51.69Z"/><path class="cls-25" d="M45.93,39.71l-5,6.78,2.77,2.87a6.18,6.18,0,0,0,3.66-5.65V42.59Z"/><path class="cls-20" d="M49.61,33.72h-1v-3a3.17,3.17,0,0,0-.92-2.22l-.09-.09a3.13,3.13,0,0,0-2.22-.92H44.14v-1h1.24a4.12,4.12,0,0,1,2.93,1.21l.09.09a4.17,4.17,0,0,1,1.21,2.93Z"/><rect class="cls-22" x="10.78" y="42.13" width="2.88" height="7.7" rx="1.44" ry="1.44" transform="translate(36.09 4.83) rotate(45)"/><rect class="cls-26" x="12.02" y="43.9" width="3.79" height="0.76" rx="0.38" ry="0.38" transform="translate(19.42 -1.81) rotate(24.26)"/><rect class="cls-27" x="10.91" y="45.01" width="3.79" height="0.76" rx="0.38" ry="0.38" transform="translate(19.78 -1.26) rotate(24.26)"/><rect class="cls-28" x="9.81" y="46.11" width="3.79" height="0.76" rx="0.38" ry="0.38" transform="translate(20.14 -0.7) rotate(24.26)"/><rect class="cls-29" x="8.7" y="47.22" width="3.79" height="0.76" rx="0.38" ry="0.38" transform="translate(20.5 -0.15) rotate(24.26)"/><path class="cls-21" d="M12.54,52.13a7.68,7.68,0,0,0-1.64-3.38,7.63,7.63,0,0,0-2.71-2A28.12,28.12,0,0,0,12.54,52.13Z"/><path class="cls-22" d="M44.48,22.39h0a.83.83,0,0,0,.55.78c2.08.76,9.28,3.72,6.28,7.58C48,35,40.93,33,40.93,33l1.95,4.87,2,3.58S57.48,37.64,58.4,32c.89-5.36-7.11-10.11-13.06-10.46A.82.82,0,0,0,44.48,22.39Z"/><path class="cls-30" d="M56.76,27c.65,2.61-2.24,0-3.22-.4s1.53,1.5.26,5.6-8,4.5-8,4.5l-.23,4.49c2.68-.91,12-4.41,12.8-9.22a6.18,6.18,0,0,0-1.64-5Z"/><path class="cls-31" d="M17.95,41.81l-1.86,2.57,3.43,3.43,0,0a2.61,2.61,0,0,1-1.41,4.36l-4.57.86a28,28,0,0,0,6.7,4.36h9.68A7.19,7.19,0,0,0,35,55.32a2.62,2.62,0,0,0,.75-1.83,1.47,1.47,0,0,1,.43-1l5.88-5.88H34.73Z"/><path class="cls-32" d="M34.73,46.6,21,42.67H17.32l-1.24,1.71L18.68,47l6.25.43.5.06,13.3,2.21.25,0,3.11-3.11Z"/><path class="cls-22" d="M6.6,43.78l23.05,1.59V40.31H5.25A27.78,27.78,0,0,0,6.6,43.78Z"/><path class="cls-33" d="M19.66,42.22c-1.29.56-8.24.17-13.72,0q.31.79.66,1.55l19.54,1.35,2.32-4.81H18.81C19.68,40.31,21.71,41.32,19.66,42.22Z"/><path class="cls-22" d="M38.73,47.31,25.18,45.06l5.33-10.22a5.82,5.82,0,0,1,6.17-2.7l5.73,1.19a4.41,4.41,0,0,1,3.51,4.32v3.56A6.19,6.19,0,0,1,38.73,47.31Z"/><path class="cls-34" d="M19,34.49c-1.34,1.58-10.47.82-14.77,1.37a27.85,27.85,0,0,0,1,4.45H26.08l.82-3.53S20.51,32.77,19,34.49Z"/><path class="cls-35" d="M13.75,35.53h0c-1.26.34-1.12.64-.42,2.9.44,1.42-4.06,1.8-7.44,1.89h20.2l.82-3.53-.72-.43c-3.35-.33-9-.85-11.39-.88Z"/><path class="cls-36" d="M42.84,25a1.94,1.94,0,0,0-1.16.46,1.7,1.7,0,0,1-1.42.33c-1.58-.35-4.72-1.83-6.59-7.9,0,.16,0,1.95-5.16,1.95,2.1,3.95,2.77,7,12.72,7h2.56a.34.34,0,0,0,.32-.48C43.88,25.82,43.45,25,42.84,25Z"/><path id="_Path_" data-name="&lt;Path&gt;" class="cls-37" d="M33.41,16.17s0-3.25-6.68-3.25L31,18.64S33.65,18.07,33.41,16.17Z"/><path class="cls-38" d="M33.24,4.52,33,5.18l0,0L30,6.3a39.66,39.66,0,0,1-.4,4.23A2.65,2.65,0,0,1,27,12.82h-.07c-.47,3.45,4.45,5.41,4.45,5.41l1.3-4a1.13,1.13,0,0,1,.8-.75,2.23,2.23,0,0,0,1.69-1.28.9.9,0,0,1,.83-.59c.37,0,.76-.08.81-.34C37.14,9.65,33.24,4.52,33.24,4.52Z"/><path class="cls-39" d="M34.08,5.69l-3.41.55s-.45,2.23-.45,2.23l-.36.21c-.07.67-.15,1.32-.23,1.85a2.66,2.66,0,0,1-.79,1.54h0s.38.31,1.51,1.17a6.77,6.77,0,0,1,1.76,2.69l.56-1.73a1.13,1.13,0,0,1,.5-.62l.15-.4.21.06.76-1s.45-.41-.31-1.28,0-2.28.62-2.1,1.09,2.69,1.09,2.69l.07.08a.93.93,0,0,1,.24,0,2.24,2.24,0,0,0,.37,0c-.13,0-.28-.16-.26-.73a8.09,8.09,0,0,0-1.34-3,.59.59,0,0,1,.1-.75L34.95,7C34.64,6.5,34.35,6.06,34.08,5.69Z"/><path class="cls-20" d="M35.8,11.61a1.69,1.69,0,0,0-1.58.76c-.43.86-1.37.23-1-1.6a3.08,3.08,0,0,0-.82-2.91S36,6.55,35.8,5.28s-2.91-1.6-4.76-1-3.28,2.58-2.7,3.6,1.74,2.24.5,4.17c0,0,1.48-.24,1.36-1.29S30.05,9,31,9.13s1.34.77,1,1.84a7.46,7.46,0,0,0,.06,4.8c.68,2.17-4,5.1-5.33,5.19s-7.39-.2-6.18,4.67c1,4,14.49,2.1,16.12-3.58A15.24,15.24,0,0,0,35.8,11.61Z"/><path class="cls-40" d="M35.8,11.61a1.69,1.69,0,0,0-1.58.76c-.43.86-1.37.23-1-1.6a3.09,3.09,0,0,0-.8-2.89c-.53.24-1.47.61-1.62.28s.85-1.18-1-1.45-.3-1.56-.21-1.64c-1.08.86-1.72,2.09-1.3,2.83.57,1,1.74,2.24.5,4.17,0,0,1.48-.24,1.36-1.29S30.05,9,31,9.13s1.34.77,1,1.84a7.46,7.46,0,0,0,.06,4.8c.68,2.17-4,5.1-5.33,5.19-.44,0-1.38,0-2.41.16l-1.83,6.23c3.17,1.05,9.31,0,12.42-2.73.8-.86,1.29-1.51,1.3-1.53h0s.88-3.15-.43-3.5S34,16.72,34.12,14.12,35.8,11.61,35.8,11.61Z"/><path class="cls-38" d="M43.36,25.52a2.29,2.29,0,0,0-1.37.7,1.41,1.41,0,0,1-1.29.33c-2-.49-6.27-2.28-8.22-8.64,0,.16-.68,2.91-5.82,2.91,2.08,3.92,5.06,6.78,14.82,6.83h2.76a.46.46,0,0,0,.43-.64C44.4,26.38,43.93,25.52,43.36,25.52Z"/><path class="cls-41" d="M31.17,22.37a5,5,0,0,0,1.46-4v0h-.29c-.38.81-1.65,2.49-5.66,2.49a10.74,10.74,0,0,0,5.69,5.41C32,26.11,29.42,23.88,31.17,22.37Z"/><path id="_Path_2" data-name="&lt;Path&gt;" class="cls-20" d="M11.41,30.75s-1.5,7,13,7.43A.71.71,0,0,1,25,39.31L16.21,51.52h1.43a.2.2,0,0,0,.11,0c1.39-.92,28.36-20.59,4.48-20.59L18.56,30Z"/><path class="cls-42" d="M18.56,30l-7.14.73s-1.5,7,13,7.43a.71.71,0,0,1,.68.85c.31-.73,0-1.4-2.86-1.84-3.73-.58-2-2.66.57-3.13A2.65,2.65,0,0,0,24.94,31c-.82-.07-1.73-.1-2.72-.1Z"/><path class="cls-22" d="M25,30.75c-.13-2.18-.44-9.79,1.76-9.79,1.1,0-.29-1.75-.85-2.39l3.52-3.63-.61,0,.48-.36.18-.13.9-.63.19-.13a5,5,0,0,0-1-.49,6.66,6.66,0,0,0-1.88-.41,9.06,9.06,0,0,0-1.65,0c-6.8.7-16.09,3.47-17.31,15.2a2.43,2.43,0,0,0,2.41,2.69h8.31a18.06,18.06,0,0,1,3.69.36,10.59,10.59,0,0,0,1.26.18.51.51,0,0,0,.55-.54h0"/><path id="_Path_3" data-name="&lt;Path&gt;" class="cls-20" d="M15.51,52.38l-1,1.28a.48.48,0,0,0,.37.77h3.88a.3.3,0,0,0,.17-.56l-2.26-1.5Z"/><polygon id="_Path_4" data-name="&lt;Path&gt;" class="cls-43" points="15.51 52.38 16.21 51.52 17.55 51.52 16.65 52.38 15.51 52.38"/><path class="cls-44" d="M25.9,18.58l3.52-3.63-.61,0,.48-.36.18-.13.9-.63.19-.13a5,5,0,0,0-1-.49,6.66,6.66,0,0,0-1.88-.41,9.06,9.06,0,0,0-1.65,0c-6.8.7-16.09,3.47-17.31,15.2a2.43,2.43,0,0,0,2.41,2.69h5.64c2.34,0,6.52-2.37,3.59-5.28S16.57,18,21,17.35A5.13,5.13,0,0,1,26.75,21l.41-.4A5.76,5.76,0,0,0,25.9,18.58Z"/><path class="cls-22" d="M32.25,16.37a4.36,4.36,0,0,0-1.64-2.61,6.69,6.69,0,0,0-1-.48.45.45,0,0,0-.43,0l-1.43.26-.28.05a2.55,2.55,0,0,0-2.06,2.93l.22,1.31a10,10,0,0,0,1,3.07v0c5.14,0,5.91-2.47,5.91-2.63C32.45,17.48,32.36,17,32.25,16.37Z"/><path class="cls-45" d="M38.73,47.31a6.19,6.19,0,0,0,7.2-6.1V37.65a4.41,4.41,0,0,0-.1-.91c-.05,5.88-5.7,3.6-9.51,1.9s-8.86,4.5-8.86,4.5l-2.11,1.95Z"/><path class="cls-46" d="M26.93,48.76h3a2.75,2.75,0,0,1,2.75,2.75v.75a3.17,3.17,0,0,1-3.17,3.17H26.75a1.88,1.88,0,0,1-1.88-1.88V50.81A2.06,2.06,0,0,1,26.93,48.76Z"/><rect class="cls-47" x="24.53" y="50.47" width="8.37" height="0.41" rx="0.13" ry="0.13"/><rect class="cls-48" x="24.53" y="51.54" width="8.37" height="0.41" rx="0.13" ry="0.13"/><rect class="cls-49" x="24.53" y="52.61" width="8.37" height="0.41" rx="0.13" ry="0.13"/><rect class="cls-50" x="24.53" y="53.68" width="8.37" height="0.41" rx="0.13" ry="0.13"/><circle class="cls-51" cx="11.8" cy="55.43" r="0.34" transform="translate(-5.4 1.43) rotate(-5.65)"/><circle class="cls-51" cx="47.91" cy="49.77" r="0.34" transform="translate(-18.46 30.59) rotate(-29.98)"/><circle class="cls-51" cx="49.11" cy="51.86" r="0.34" transform="translate(-19.34 31.47) rotate(-29.98)"/><rect class="cls-52" x="57.17" y="28.76" width="1.52" height="7.48" rx="0.61" ry="0.61" transform="translate(8.47 -11.84) rotate(12.58)"/><circle class="cls-20" cx="43.23" cy="27.46" r="0.82"/></g></g></svg>