<svg xmlns="http://www.w3.org/2000/svg" xmlns:xlink="http://www.w3.org/1999/xlink" viewBox="0 0 64 64"><defs><style>.cls-1{isolation:isolate;}.cls-2{fill:url(#linear-gradient);}.cls-3{fill:url(#linear-gradient-2);}.cls-4{fill:url(#linear-gradient-3);}.cls-5{fill:url(#linear-gradient-4);}.cls-6{fill:url(#linear-gradient-5);}.cls-7{fill:url(#linear-gradient-6);}.cls-8{fill:url(#linear-gradient-7);}.cls-9{fill:url(#linear-gradient-8);}.cls-10{fill:url(#linear-gradient-9);}.cls-11{fill:url(#linear-gradient-10);}.cls-12{fill:url(#linear-gradient-11);}.cls-13{fill:url(#linear-gradient-12);}.cls-14{fill:url(#linear-gradient-13);}.cls-15{fill:url(#linear-gradient-14);}.cls-16{fill:url(#linear-gradient-15);}.cls-17{fill:url(#linear-gradient-16);}.cls-18{fill:url(#linear-gradient-17);}.cls-19{fill:url(#linear-gradient-68);}.cls-20{opacity:0.49;mix-blend-mode:color-burn;fill:url(#linear-gradient-69);}.cls-21{fill:#063247;}.cls-22{fill:url(#linear-gradient-70);}.cls-23{fill:#09212b;}.cls-24{fill:url(#linear-gradient-71);}.cls-25{fill:url(#linear-gradient-72);}.cls-26{fill:url(#linear-gradient-73);}.cls-27{fill:url(#linear-gradient-74);}.cls-28{fill:url(#linear-gradient-75);}.cls-29{fill:url(#linear-gradient-76);}.cls-30{fill:url(#linear-gradient-77);}.cls-31{fill:url(#linear-gradient-78);}.cls-32{fill:url(#linear-gradient-79);}.cls-33{fill:url(#linear-gradient-80);}.cls-34{fill:url(#linear-gradient-81);}.cls-35{fill:url(#linear-gradient-82);}.cls-36{fill:url(#linear-gradient-83);}.cls-37{fill:url(#linear-gradient-84);}.cls-38{fill:url(#linear-gradient-85);}.cls-39{fill:url(#linear-gradient-86);}.cls-40{fill:#f37920;}.cls-41{fill:url(#linear-gradient-87);}.cls-42{fill:url(#linear-gradient-88);}.cls-43{fill:url(#linear-gradient-89);}.cls-44{fill:url(#linear-gradient-90);}.cls-45{fill:url(#linear-gradient-91);}.cls-46{fill:url(#linear-gradient-92);}.cls-47{fill:url(#linear-gradient-93);}.cls-48{fill:url(#linear-gradient-94);}.cls-49{fill:url(#linear-gradient-95);}.cls-50{fill:url(#linear-gradient-96);}.cls-51{fill:url(#linear-gradient-97);}.cls-52{fill:url(#linear-gradient-98);}.cls-53{fill:url(#linear-gradient-99);}.cls-54{fill:url(#linear-gradient-100);}.cls-55{fill:url(#linear-gradient-101);}.cls-56{fill:url(#linear-gradient-102);}.cls-57{fill:url(#linear-gradient-103);}.cls-58{fill:url(#linear-gradient-104);}.cls-59{fill:url(#linear-gradient-105);}.cls-60{fill:url(#linear-gradient-106);}.cls-61{fill:url(#linear-gradient-107);}.cls-62{fill:url(#linear-gradient-108);}.cls-63{fill:url(#linear-gradient-109);}.cls-64{fill:url(#linear-gradient-110);}.cls-65{fill:url(#linear-gradient-111);}.cls-66{fill:url(#linear-gradient-112);}.cls-67{fill:url(#linear-gradient-113);}.cls-68{fill:url(#linear-gradient-114);}.cls-69{fill:url(#linear-gradient-115);}.cls-70{fill:url(#linear-gradient-116);}.cls-71{fill:#573300;}.cls-72{fill:url(#linear-gradient-117);}.cls-73{fill:url(#linear-gradient-118);}.cls-74{fill:url(#linear-gradient-119);}.cls-75{fill:url(#linear-gradient-120);}.cls-76{fill:url(#linear-gradient-121);}.cls-77{fill:url(#linear-gradient-122);}.cls-78{fill:url(#linear-gradient-123);}.cls-79{fill:#878787;}.cls-80{fill:url(#linear-gradient-124);}.cls-81{fill:url(#linear-gradient-125);}.cls-82{fill:url(#linear-gradient-126);}.cls-83{fill:url(#linear-gradient-127);}.cls-84{fill:url(#linear-gradient-128);}.cls-85{fill:url(#linear-gradient-129);}</style><linearGradient id="linear-gradient" x1="32" y1="97.25" x2="32" y2="9.14" gradientUnits="userSpaceOnUse"><stop offset="0" stop-color="#fff"/><stop offset="0.84" stop-color="#cddfec"/></linearGradient><linearGradient id="linear-gradient-2" x1="32" y1="69.63" x2="32" y2="36.63" gradientUnits="userSpaceOnUse"><stop offset="0.02" stop-color="#97efe7"/><stop offset="0.52" stop-color="#3db6d3"/><stop offset="1" stop-color="#3d6fd3"/></linearGradient><linearGradient id="linear-gradient-3" x1="32" y1="61.83" x2="32" y2="-43.55" xlink:href="#linear-gradient-2"/><linearGradient id="linear-gradient-4" x1="22.71" y1="29.11" x2="22.71" y2="-23.81" xlink:href="#linear-gradient"/><linearGradient id="linear-gradient-5" x1="15.49" y1="29.95" x2="15.49" y2="-22.06" xlink:href="#linear-gradient"/><linearGradient id="linear-gradient-6" x1="49.1" y1="34.85" x2="49.1" y2="-42.43" xlink:href="#linear-gradient"/><linearGradient id="linear-gradient-7" x1="424.28" y1="35.09" x2="424.28" y2="-43.58" gradientTransform="translate(-376.22)" xlink:href="#linear-gradient"/><linearGradient id="linear-gradient-8" x1="409.38" y1="35.09" x2="409.38" y2="-43.58" gradientTransform="translate(-376.22)" xlink:href="#linear-gradient"/><linearGradient id="linear-gradient-9" x1="407.26" y1="35.09" x2="407.26" y2="-43.58" gradientTransform="translate(-376.22)" xlink:href="#linear-gradient"/><linearGradient id="linear-gradient-10" x1="423.13" y1="35.09" x2="423.13" y2="-43.58" gradientTransform="translate(-376.22)" xlink:href="#linear-gradient"/><linearGradient id="linear-gradient-11" x1="19.59" y1="44.15" x2="19.59" y2="12.12" xlink:href="#linear-gradient-2"/><linearGradient id="linear-gradient-12" x1="32.6" y1="54.55" x2="32.6" y2="9.48" xlink:href="#linear-gradient-2"/><linearGradient id="linear-gradient-13" x1="399.41" y1="48.78" x2="399.41" y2="-0.28" gradientTransform="translate(-376.22)" xlink:href="#linear-gradient"/><linearGradient id="linear-gradient-14" x1="401.46" y1="48.78" x2="401.46" y2="-0.28" gradientTransform="translate(-376.22)" xlink:href="#linear-gradient"/><linearGradient id="linear-gradient-15" x1="403.51" y1="48.78" x2="403.51" y2="-0.28" gradientTransform="translate(-376.22)" xlink:href="#linear-gradient"/><linearGradient id="linear-gradient-16" x1="405.56" y1="48.78" x2="405.56" y2="-0.28" gradientTransform="translate(-376.22)" xlink:href="#linear-gradient"/><linearGradient id="linear-gradient-17" x1="407.62" y1="48.78" x2="407.62" y2="-0.28" gradientTransform="translate(-376.22)" xlink:href="#linear-gradient"/><linearGradient id="linear-gradient-68" x1="420.57" y1="44.87" x2="420.57" y2="14.91" gradientTransform="translate(-376.22)" xlink:href="#linear-gradient-2"/><linearGradient id="linear-gradient-69" x1="387.51" y1="25.69" x2="387.51" y2="25.13" gradientTransform="translate(-376.22)" xlink:href="#linear-gradient"/><linearGradient id="linear-gradient-70" x1="37.68" y1="71" x2="37.68" y2="47.39" xlink:href="#linear-gradient-2"/><linearGradient id="linear-gradient-71" x1="45.18" y1="49.51" x2="50.81" y2="49.51" gradientUnits="userSpaceOnUse"><stop offset="0.01" stop-color="#708432"/><stop offset="0.46" stop-color="#526032"/><stop offset="1" stop-color="#383932"/></linearGradient><linearGradient id="linear-gradient-72" x1="49.68" y1="54.5" x2="48.71" y2="51.32" xlink:href="#linear-gradient-71"/><linearGradient id="linear-gradient-73" x1="47.65" y1="48.01" x2="54.39" y2="58.58" gradientTransform="translate(45.43 -20.1) rotate(40.29)" xlink:href="#linear-gradient-71"/><linearGradient id="linear-gradient-74" x1="47.42" y1="56.24" x2="49.17" y2="34.66" gradientUnits="userSpaceOnUse"><stop offset="0" stop-color="#3db6d3"/><stop offset="0.5" stop-color="#3d6fd3"/><stop offset="1" stop-color="#252784"/></linearGradient><linearGradient id="linear-gradient-75" x1="47.11" y1="51.84" x2="46.16" y2="43.21" xlink:href="#linear-gradient-74"/><linearGradient id="linear-gradient-76" x1="31.51" y1="47.5" x2="34.21" y2="47.5" gradientTransform="translate(-23.96 37.15) rotate(-45)" gradientUnits="userSpaceOnUse"><stop offset="0.02" stop-color="#005369"/><stop offset="0.96" stop-color="#000741"/></linearGradient><linearGradient id="linear-gradient-77" x1="-343.32" y1="-783.68" x2="-338.86" y2="-786.53" gradientTransform="translate(968.29 452.21)" xlink:href="#linear-gradient-71"/><linearGradient id="linear-gradient-78" x1="-343.11" y1="-783.34" x2="-338.64" y2="-786.2" gradientTransform="translate(968.06 452.06)" xlink:href="#linear-gradient-71"/><linearGradient id="linear-gradient-79" x1="-342.89" y1="-783" x2="-338.42" y2="-785.86" gradientTransform="translate(967.82 451.91)" xlink:href="#linear-gradient-71"/><linearGradient id="linear-gradient-80" x1="26.74" y1="51.87" x2="30.34" y2="51.87" gradientTransform="translate(40.31 -6.15) rotate(40.29)" xlink:href="#linear-gradient-71"/><linearGradient id="linear-gradient-81" x1="57.96" y1="35.26" x2="42" y2="44.31" xlink:href="#linear-gradient-71"/><linearGradient id="linear-gradient-82" x1="55.59" y1="35.36" x2="49.13" y2="43.73" xlink:href="#linear-gradient-71"/><linearGradient id="linear-gradient-83" x1="36.39" y1="55.35" x2="38.14" y2="33.76" xlink:href="#linear-gradient-74"/><linearGradient id="linear-gradient-84" x1="39.37" y1="54.62" x2="40.58" y2="42.45" xlink:href="#linear-gradient-74"/><linearGradient id="linear-gradient-85" x1="26.38" y1="46.15" x2="40.34" y2="46.15" xlink:href="#linear-gradient-71"/><linearGradient id="linear-gradient-86" x1="32.47" y1="54.27" x2="33.22" y2="43.83" xlink:href="#linear-gradient-71"/><linearGradient id="linear-gradient-87" x1="27.69" y1="43.74" x2="41.74" y2="43.74" gradientTransform="matrix(1, 0, 0, 1, 0, 0)" xlink:href="#linear-gradient-76"/><linearGradient id="linear-gradient-88" x1="48.53" y1="43.62" x2="32.18" y2="44.24" gradientTransform="matrix(1, 0, 0, 1, 0, 0)" xlink:href="#linear-gradient-76"/><linearGradient id="linear-gradient-89" x1="38.42" y1="44.81" x2="47.33" y2="44.81" xlink:href="#linear-gradient-71"/><linearGradient id="linear-gradient-90" x1="41.41" y1="52.54" x2="42.45" y2="48.33" xlink:href="#linear-gradient-71"/><linearGradient id="linear-gradient-91" x1="39.74" y1="51.72" x2="41.28" y2="38.89" xlink:href="#linear-gradient-74"/><linearGradient id="linear-gradient-92" x1="39.45" y1="55.59" x2="41.2" y2="34.01" xlink:href="#linear-gradient-74"/><linearGradient id="linear-gradient-93" x1="39.48" y1="55.6" x2="41.23" y2="34.01" xlink:href="#linear-gradient-74"/><linearGradient id="linear-gradient-94" x1="39.52" y1="55.6" x2="41.27" y2="34.02" xlink:href="#linear-gradient-74"/><linearGradient id="linear-gradient-95" x1="39.56" y1="55.6" x2="41.31" y2="34.02" xlink:href="#linear-gradient-74"/><linearGradient id="linear-gradient-96" x1="31.01" y1="49.51" x2="32.97" y2="38.05" gradientTransform="translate(5.24 -2.76) rotate(5.65)" xlink:href="#linear-gradient-74"/><linearGradient id="linear-gradient-97" x1="31.99" y1="49.67" x2="33.95" y2="38.21" gradientTransform="translate(5.24 -2.86) rotate(5.65)" xlink:href="#linear-gradient-74"/><linearGradient id="linear-gradient-98" x1="32.97" y1="49.84" x2="34.93" y2="38.38" gradientTransform="translate(5.23 -2.97) rotate(5.65)" gradientUnits="userSpaceOnUse"><stop offset="0" stop-color="#3db6d3"/><stop offset="0.33" stop-color="#3d88d3"/><stop offset="0.5" stop-color="#3d6fd3"/><stop offset="1" stop-color="#252784"/></linearGradient><linearGradient id="linear-gradient-99" x1="47.6" y1="56.26" x2="49.35" y2="34.67" gradientTransform="translate(30.99 -17.5) rotate(29.98)" xlink:href="#linear-gradient-74"/><linearGradient id="linear-gradient-100" x1="45.38" y1="50.9" x2="43.07" y2="51.46" gradientTransform="translate(31.54 -17.69) rotate(29.98)" xlink:href="#linear-gradient-74"/><linearGradient id="linear-gradient-101" x1="45.64" y1="51.75" x2="43.33" y2="52.31" gradientTransform="translate(32.01 -17.86) rotate(29.98)" xlink:href="#linear-gradient-74"/><linearGradient id="linear-gradient-102" x1="55.28" y1="42.75" x2="46.62" y2="39.55" gradientTransform="translate(-7.83 12.44) rotate(-12.58)" xlink:href="#linear-gradient-74"/><linearGradient id="linear-gradient-103" x1="386" y1="55.18" x2="386" y2="30.16" gradientTransform="translate(-376.22)" gradientUnits="userSpaceOnUse"><stop offset="0" stop-color="#7ff1a4"/><stop offset="0.52" stop-color="#2fbca4"/><stop offset="1" stop-color="#2f7da4"/></linearGradient><linearGradient id="linear-gradient-104" x1="-13808.35" y1="52.16" x2="-13808.35" y2="32.16" gradientTransform="matrix(-1, 0, 0, 1, -13798.87, 0)" xlink:href="#linear-gradient"/><linearGradient id="linear-gradient-105" x1="16495.98" y1="57.48" x2="16495.98" y2="38.98" gradientTransform="translate(-16481.43)" xlink:href="#linear-gradient-103"/><linearGradient id="linear-gradient-106" x1="14.74" y1="54.28" x2="14.74" y2="46.99" xlink:href="#linear-gradient"/><linearGradient id="linear-gradient-107" x1="39.61" y1="18.95" x2="22.51" y2="27.76" gradientTransform="matrix(1, 0, 0, 1, 0, 0)" xlink:href="#linear-gradient-76"/><linearGradient id="linear-gradient-108" x1="14.33" y1="40.91" x2="14.36" y2="36.12" gradientTransform="matrix(1, 0, 0, 1, 0, 0)" xlink:href="#linear-gradient-76"/><linearGradient id="linear-gradient-109" x1="33.99" y1="-4.49" x2="13.91" y2="25.86" gradientUnits="userSpaceOnUse"><stop offset="0" stop-color="#fbc19e"/><stop offset="0.48" stop-color="#ffb699"/><stop offset="1" stop-color="#f47e6d"/></linearGradient><linearGradient id="linear-gradient-110" x1="16.52" y1="9.03" x2="23.58" y2="12.66" xlink:href="#linear-gradient-109"/><linearGradient id="linear-gradient-111" x1="13.35" y1="44.69" x2="30.17" y2="46.06" gradientUnits="userSpaceOnUse"><stop offset="0.01" stop-color="#bc8127"/><stop offset="0.38" stop-color="#996027"/><stop offset="0.94" stop-color="#5e3920"/></linearGradient><linearGradient id="linear-gradient-112" x1="13.25" y1="69.41" x2="30.78" y2="33.07" xlink:href="#linear-gradient-111"/><linearGradient id="linear-gradient-113" x1="22.7" y1="42.21" x2="22.43" y2="40.2" xlink:href="#linear-gradient-111"/><linearGradient id="linear-gradient-114" x1="20.67" y1="47.18" x2="30.54" y2="-4.87" gradientUnits="userSpaceOnUse"><stop offset="0" stop-color="#fcfbff"/><stop offset="0.48" stop-color="#f5ede9"/><stop offset="1" stop-color="#a5adbe"/></linearGradient><linearGradient id="linear-gradient-115" x1="10.68" y1="47.74" x2="33.48" y2="19.88" xlink:href="#linear-gradient-114"/><linearGradient id="linear-gradient-116" x1="24.88" y1="24.47" x2="33.5" y2="24.47" gradientTransform="matrix(1, 0, 0, 1, 0, 0)" xlink:href="#linear-gradient-76"/><linearGradient id="linear-gradient-117" x1="33.95" y1="36.35" x2="34.5" y2="30.93" gradientTransform="matrix(1, 0, 0, 1, 0, 0)" xlink:href="#linear-gradient-76"/><linearGradient id="linear-gradient-118" x1="36.93" y1="22.97" x2="37.37" y2="37.34" xlink:href="#linear-gradient-71"/><linearGradient id="linear-gradient-119" x1="39.61" y1="36.08" x2="36.19" y2="25.97" xlink:href="#linear-gradient-71"/><linearGradient id="linear-gradient-120" x1="35.97" y1="23" x2="36.41" y2="37.37" xlink:href="#linear-gradient-71"/><linearGradient id="linear-gradient-121" x1="38.9" y1="27.08" x2="34.8" y2="19.53" xlink:href="#linear-gradient-71"/><linearGradient id="linear-gradient-122" x1="28.67" y1="40.76" x2="12.24" y2="32.6" xlink:href="#linear-gradient-109"/><linearGradient id="linear-gradient-123" x1="15.03" y1="40.43" x2="17.7" y2="34.11" gradientTransform="matrix(1, 0, 0, 1, 0, 0)" xlink:href="#linear-gradient-76"/><linearGradient id="linear-gradient-124" x1="20.44" y1="63.23" x2="6.91" y2="-5.33" gradientTransform="matrix(1, 0, 0, 1, 0, 0)" xlink:href="#linear-gradient-76"/><linearGradient id="linear-gradient-125" x1="12.15" y1="10.59" x2="12.15" y2="49.12" gradientTransform="matrix(1, 0, 0, 1, 0, 0)" xlink:href="#linear-gradient-76"/><linearGradient id="linear-gradient-126" x1="31.5" y1="12.87" x2="12.34" y2="12.95" gradientUnits="userSpaceOnUse"><stop offset="0.01" stop-color="#b64460"/><stop offset="0.49" stop-color="#631c60"/><stop offset="1" stop-color="#2d1c60"/></linearGradient><linearGradient id="linear-gradient-127" x1="41.91" y1="35.43" x2="25.7" y2="27.38" xlink:href="#linear-gradient-109"/><linearGradient id="linear-gradient-128" x1="24.84" y1="6.26" x2="12.6" y2="6.32" xlink:href="#linear-gradient-126"/><linearGradient id="linear-gradient-129" x1="9.49" y1="29.33" x2="9.49" y2="36.48" gradientTransform="matrix(1, 0, 0, 1, 0, 0)" xlink:href="#linear-gradient-76"/></defs><title>motorbike</title><g class="cls-1"><g id="Layer_1" data-name="Layer 1"><circle class="cls-2" cx="32" cy="32" r="28"/><circle class="cls-3" cx="32" cy="32" r="28"/><path class="cls-4" d="M4,32A27.87,27.87,0,0,0,7.37,45.33H56.63A28,28,0,1,0,4,32Z"/><path class="cls-5" d="M31.46,16.82C24.82,14.6,19.25,11,17.64,8.68a4.34,4.34,0,0,0-.38-.48A28.08,28.08,0,0,0,14,10.6,177.1,177.1,0,0,0,31.46,16.82Z"/><path class="cls-6" d="M22.73,19.91c-3.55-.49-6.68-1.77-7.71-2.8S11.59,16,11,15.46a5.47,5.47,0,0,0-1-.71,28.05,28.05,0,0,0-1.71,2.44A93.24,93.24,0,0,0,22.73,19.91Z"/><path class="cls-7" d="M57.72,20.93a4.1,4.1,0,0,0-1.76.36c-2.32,1-4.11-.48-7.54.24s-9.32-.38-9.32-.38a81.33,81.33,0,0,0,20,3.81A27.78,27.78,0,0,0,57.72,20.93Z"/><path class="cls-8" d="M39.71,14a14.37,14.37,0,0,0,5.2.28c2-.48,2.88.54,4.24-.15a2,2,0,0,1,2.7.89c.31.66,1.34,0,2,.59a4.94,4.94,0,0,0,2.51.54S50.66,18.26,39.71,14Z"/><path class="cls-9" d="M30.37,8.64S34.15,9.9,36,9.57a5.71,5.71,0,0,1-1.5-.73,1.93,1.93,0,0,0-1.79-.37c-.41.25-.57-.36-1-.13A4.58,4.58,0,0,1,30.37,8.64Z"/><path class="cls-10" d="M28.25,19.85s3.78,1.26,5.58.93a5.71,5.71,0,0,1-1.5-.73,1.93,1.93,0,0,0-1.79-.37c-.41.25-.57-.36-1-.13A4.58,4.58,0,0,1,28.25,19.85Z"/><path class="cls-11" d="M48.92,9.43s-2.9-.23-4-1a4.18,4.18,0,0,0,1.22-.07,1.41,1.41,0,0,1,1.31.26c.2.29.48-.08.73.2A3.35,3.35,0,0,0,48.92,9.43Z"/><path class="cls-12" d="M34.48,38.63H18v-7H15.84V27a3,3,0,0,0-6,0v7.2H4.09A27.83,27.83,0,0,0,7.37,45.33H35.1Z"/><path class="cls-13" d="M60,32a28,28,0,0,0-1.41-8.77H56.88a5.38,5.38,0,0,0-5.38,5.38v3.21H45.65a1.07,1.07,0,0,0-1.07,1.07v5.19H37.21v-2a1,1,0,0,0-1-1h-2.1V15.87a.93.93,0,0,0-.93-.93H21.08a.93.93,0,0,0-.93.93V42H10.47V40.1H5.2a27.83,27.83,0,0,0,2.18,5.23H56.63A27.87,27.87,0,0,0,60,32Z"/><rect class="cls-14" x="22.6" y="17.46" width="1.18" height="1.18" rx="0.09" ry="0.09"/><rect class="cls-15" x="24.65" y="17.46" width="1.18" height="1.18" rx="0.09" ry="0.09"/><rect class="cls-16" x="26.7" y="17.46" width="1.18" height="1.18" rx="0.09" ry="0.09"/><rect class="cls-17" x="28.75" y="17.46" width="1.18" height="1.18" rx="0.09" ry="0.09"/><rect class="cls-18" x="30.81" y="17.46" width="1.18" height="1.18" rx="0.09" ry="0.09"/><rect class="cls-14" x="22.6" y="19.63" width="1.18" height="1.18" rx="0.09" ry="0.09"/><rect class="cls-15" x="24.65" y="19.63" width="1.18" height="1.18" rx="0.09" ry="0.09"/><rect class="cls-16" x="26.7" y="19.63" width="1.18" height="1.18" rx="0.09" ry="0.09"/><rect class="cls-17" x="28.75" y="19.63" width="1.18" height="1.18" rx="0.09" ry="0.09"/><rect class="cls-18" x="30.81" y="19.63" width="1.18" height="1.18" rx="0.09" ry="0.09"/><rect class="cls-14" x="22.6" y="21.79" width="1.18" height="1.18" rx="0.09" ry="0.09"/><rect class="cls-15" x="24.65" y="21.79" width="1.18" height="1.18" rx="0.09" ry="0.09"/><rect class="cls-16" x="26.7" y="21.79" width="1.18" height="1.18" rx="0.09" ry="0.09"/><rect class="cls-17" x="28.75" y="21.79" width="1.18" height="1.18" rx="0.09" ry="0.09"/><rect class="cls-18" x="30.81" y="21.79" width="1.18" height="1.18" rx="0.09" ry="0.09"/><rect class="cls-14" x="22.6" y="23.95" width="1.18" height="1.18" rx="0.09" ry="0.09"/><rect class="cls-15" x="24.65" y="23.95" width="1.18" height="1.18" rx="0.09" ry="0.09"/><rect class="cls-16" x="26.7" y="23.95" width="1.18" height="1.18" rx="0.09" ry="0.09"/><rect class="cls-17" x="28.75" y="23.95" width="1.18" height="1.18" rx="0.09" ry="0.09"/><rect class="cls-18" x="30.81" y="23.95" width="1.18" height="1.18" rx="0.09" ry="0.09"/><rect class="cls-14" x="22.6" y="26.11" width="1.18" height="1.18" rx="0.09" ry="0.09"/><rect class="cls-15" x="24.65" y="26.11" width="1.18" height="1.18" rx="0.09" ry="0.09"/><rect class="cls-16" x="26.7" y="26.11" width="1.18" height="1.18" rx="0.09" ry="0.09"/><rect class="cls-17" x="28.75" y="26.11" width="1.18" height="1.18" rx="0.09" ry="0.09"/><rect class="cls-18" x="30.81" y="26.11" width="1.18" height="1.18" rx="0.09" ry="0.09"/><rect class="cls-14" x="22.6" y="28.27" width="1.18" height="1.18" rx="0.09" ry="0.09"/><rect class="cls-15" x="24.65" y="28.27" width="1.18" height="1.18" rx="0.09" ry="0.09"/><rect class="cls-16" x="26.7" y="28.27" width="1.18" height="1.18" rx="0.09" ry="0.09"/><rect class="cls-17" x="28.75" y="28.27" width="1.18" height="1.18" rx="0.09" ry="0.09"/><rect class="cls-18" x="30.81" y="28.27" width="1.18" height="1.18" rx="0.09" ry="0.09"/><rect class="cls-14" x="22.6" y="30.43" width="1.18" height="1.18" rx="0.09" ry="0.09"/><rect class="cls-15" x="24.65" y="30.43" width="1.18" height="1.18" rx="0.09" ry="0.09"/><rect class="cls-16" x="26.7" y="30.43" width="1.18" height="1.18" rx="0.09" ry="0.09"/><rect class="cls-17" x="28.75" y="30.43" width="1.18" height="1.18" rx="0.09" ry="0.09"/><rect class="cls-18" x="30.81" y="30.43" width="1.18" height="1.18" rx="0.09" ry="0.09"/><rect class="cls-14" x="22.6" y="32.59" width="1.18" height="1.18" rx="0.09" ry="0.09"/><rect class="cls-15" x="24.65" y="32.59" width="1.18" height="1.18" rx="0.09" ry="0.09"/><rect class="cls-16" x="26.7" y="32.59" width="1.18" height="1.18" rx="0.09" ry="0.09"/><rect class="cls-17" x="28.75" y="32.59" width="1.18" height="1.18" rx="0.09" ry="0.09"/><rect class="cls-18" x="30.81" y="32.59" width="1.18" height="1.18" rx="0.09" ry="0.09"/><rect class="cls-14" x="22.6" y="34.75" width="1.18" height="1.18" rx="0.09" ry="0.09"/><rect class="cls-15" x="24.65" y="34.75" width="1.18" height="1.18" rx="0.09" ry="0.09"/><rect class="cls-16" x="26.7" y="34.75" width="1.18" height="1.18" rx="0.09" ry="0.09"/><rect class="cls-17" x="28.75" y="34.75" width="1.18" height="1.18" rx="0.09" ry="0.09"/><rect class="cls-18" x="30.81" y="34.75" width="1.18" height="1.18" rx="0.09" ry="0.09"/><rect class="cls-14" x="22.6" y="36.92" width="1.18" height="1.18" rx="0.09" ry="0.09"/><rect class="cls-15" x="24.65" y="36.92" width="1.18" height="1.18" rx="0.09" ry="0.09"/><rect class="cls-16" x="26.7" y="36.92" width="1.18" height="1.18" rx="0.09" ry="0.09"/><rect class="cls-17" x="28.75" y="36.92" width="1.18" height="1.18" rx="0.09" ry="0.09"/><rect class="cls-18" x="30.81" y="36.92" width="1.18" height="1.18" rx="0.09" ry="0.09"/><rect class="cls-14" x="22.6" y="39.08" width="1.18" height="1.18" rx="0.09" ry="0.09"/><rect class="cls-15" x="24.65" y="39.08" width="1.18" height="1.18" rx="0.09" ry="0.09"/><rect class="cls-16" x="26.7" y="39.08" width="1.18" height="1.18" rx="0.09" ry="0.09"/><rect class="cls-17" x="28.75" y="39.08" width="1.18" height="1.18" rx="0.09" ry="0.09"/><rect class="cls-18" x="30.81" y="39.08" width="1.18" height="1.18" rx="0.09" ry="0.09"/><path class="cls-19" d="M45.65,31.81a1.07,1.07,0,0,0-1.07,1.07v5.19H37.21v.27a4.69,4.69,0,0,0,4.69,4.77h3.18v-2H51.5V31.81Z"/><path class="cls-20" d="M11,25.39c-.07,0,.05.12.19.21h0l.11,0a.39.39,0,0,0,.2-.12A1.58,1.58,0,0,0,11,25.39Z"/><path class="cls-21" d="M47.19,43l-.07-1.34a.89.89,0,0,1,.3-.71l1.16-1a.89.89,0,0,1,.59-.23h1.08l.25,3L47.74,43"/><ellipse class="cls-22" cx="37.68" cy="55.78" rx="11.92" ry="0.61"/><ellipse class="cls-23" cx="50.11" cy="51.87" rx="4.92" ry="3.96" transform="translate(-21.65 44.71) rotate(-40.29)"/><path class="cls-24" d="M50.81,47a.4.4,0,0,0-.42-.4A5.6,5.6,0,0,0,47.16,48a5.25,5.25,0,0,0-2,4.19.28.28,0,0,0,.28.26h.19a1.14,1.14,0,0,0,1-.68,6,6,0,0,1,3.59-3.18.75.75,0,0,0,.53-.72Z"/><path class="cls-25" d="M50.81,47.09a5.61,5.61,0,0,0-3.17,1.35,5.31,5.31,0,0,0-2,4,1.14,1.14,0,0,0,1-.68,6,6,0,0,1,3.59-3.18.75.75,0,0,0,.53-.72Z"/><ellipse class="cls-26" cx="50.11" cy="51.87" rx="1.95" ry="1.57" transform="translate(-21.65 44.71) rotate(-40.29)"/><path class="cls-27" d="M45.18,47.72l4.33,4.49a.67.67,0,0,0,.48.2h0a.67.67,0,0,0,.47-.2h0a.67.67,0,0,0,.13-.77l-3.31-6.63"/><path class="cls-28" d="M47.33,44.81l-2.15,2.91L46.37,49a2.65,2.65,0,0,0,1.57-2.42V46Z"/><path class="cls-21" d="M48.94,42.24h-.49V41a1.31,1.31,0,0,0-.39-.93l0,0a1.31,1.31,0,0,0-.93-.39h-.53v-.49h.53a1.8,1.8,0,0,1,1.28.53l0,0A1.8,1.8,0,0,1,48.94,41Z"/><rect class="cls-29" x="32.24" y="45.85" width="1.24" height="3.3" rx="0.62" ry="0.62" transform="translate(43.21 -9.32) rotate(45)"/><rect class="cls-30" x="32.3" y="47.08" width="1.63" height="0.33" rx="0.16" ry="0.16" transform="translate(22.34 -9.43) rotate(24.26)"/><rect class="cls-31" x="31.82" y="47.56" width="1.63" height="0.33" rx="0.16" ry="0.16" transform="translate(22.49 -9.2) rotate(24.26)"/><rect class="cls-32" x="31.35" y="48.03" width="1.63" height="0.33" rx="0.16" ry="0.16" transform="translate(22.64 -8.96) rotate(24.26)"/><ellipse class="cls-23" cx="28.54" cy="51.87" rx="4.92" ry="3.96" transform="translate(-26.77 30.76) rotate(-40.29)"/><ellipse class="cls-33" cx="28.54" cy="51.87" rx="1.95" ry="1.57" transform="translate(-26.77 30.76) rotate(-40.29)"/><path class="cls-34" d="M46.7,37.37h0a.35.35,0,0,0,.23.33c.89.32,4,1.6,2.69,3.26-1.42,1.83-4.45,1-4.45,1L46,44l.86,1.54s5.4-1.64,5.8-4.06S49.63,37.16,47.08,37A.35.35,0,0,0,46.7,37.37Z"/><path class="cls-35" d="M52,39.37c.28,1.12-1,0-1.38-.17s.66.65.11,2.41-3.42,1.93-3.42,1.93l-.1,1.93c1.15-.39,5.15-1.89,5.49-4a2.65,2.65,0,0,0-.7-2.14Z"/><path class="cls-36" d="M42.52,47.76l-7.2-2.05-.8,1.1L36,48.29h0a1.12,1.12,0,0,1-.61,1.87l-7,1.31a.47.47,0,0,0-.39.42.47.47,0,0,0,.48.5h12a3.09,3.09,0,0,0,2.18-.9h0a1.13,1.13,0,0,0,.32-.78.63.63,0,0,1,.18-.44l2.52-2.52Z"/><path class="cls-37" d="M42.52,47.76l-5.91-1.68H35l-.53.73,1.11,1.11,2.68.18.21,0,5.71,1h.11l1.34-1.34Z"/><path class="cls-38" d="M40.34,47.24,27,46.31a.63.63,0,0,1-.58-.62h0a.63.63,0,0,1,.63-.63H40.34Z"/><path class="cls-39" d="M27,46.31l11.87.82,1-2.07H35.69c.37,0,1.24.43.36.82s-7.94-.27-8.76.09-.9-.28-.9-.28A.63.63,0,0,0,27,46.31Z"/><path class="cls-40" d="M44.24,48.07l-5.81-1,2.29-4.39a2.5,2.5,0,0,1,2.65-1.16l2.46.51a1.89,1.89,0,0,1,1.51,1.85v1.53A2.66,2.66,0,0,1,44.24,48.07Z"/><path class="cls-41" d="M38.81,45.07H28.11a.43.43,0,0,1-.42-.49A1.57,1.57,0,0,1,29,43.23c1.55-.39,6.17.07,6.8-.67S41.74,44,41.74,44"/><path class="cls-42" d="M33.52,43h0c-.54.15-.48.28-.18,1.24.19.61-1.74.77-3.2.81l10.1.06,2.44-.82c.94.13,1.91,0-3.83-.94C37.41,43.23,35,43,34,43Z"/><path class="cls-43" d="M44.24,48.07l-5.81-1,2.29-4.39a2.5,2.5,0,0,1,2.65-1.16l2.46.51a1.89,1.89,0,0,1,1.51,1.85v1.53A2.66,2.66,0,0,1,44.24,48.07Z"/><path class="cls-44" d="M44.24,48.07a2.66,2.66,0,0,0,3.09-2.62V43.92a1.89,1.89,0,0,0,0-.39c0,2.53-2.45,1.54-4.08.82s-3.8,1.93-3.8,1.93l-.9.83Z"/><path class="cls-45" d="M39.17,48.69h1.29a1.18,1.18,0,0,1,1.18,1.18v.32a1.36,1.36,0,0,1-1.36,1.36H39.09a.81.81,0,0,1-.81-.81V49.57A.88.88,0,0,1,39.17,48.69Z"/><rect class="cls-46" x="38.14" y="49.43" width="3.59" height="0.18" rx="0.06" ry="0.06"/><rect class="cls-47" x="38.14" y="49.88" width="3.59" height="0.18" rx="0.06" ry="0.06"/><rect class="cls-48" x="38.14" y="50.34" width="3.59" height="0.18" rx="0.06" ry="0.06"/><rect class="cls-49" x="38.14" y="50.8" width="3.59" height="0.18" rx="0.06" ry="0.06"/><circle class="cls-50" cx="30.62" cy="51.76" r="0.15" transform="translate(-4.95 3.27) rotate(-5.65)"/><circle class="cls-51" cx="31.65" cy="51.66" r="0.15" transform="translate(-4.93 3.37) rotate(-5.65)"/><circle class="cls-52" cx="32.68" cy="51.55" r="0.15" transform="translate(-4.92 3.47) rotate(-5.65)"/><circle class="cls-53" cx="48.18" cy="49.13" r="0.15" transform="translate(-18.1 30.64) rotate(-29.98)"/><circle class="cls-54" cx="48.82" cy="50.06" r="0.15" transform="translate(-18.48 31.09) rotate(-29.98)"/><circle class="cls-55" cx="49.36" cy="50.84" r="0.15" transform="translate(-18.8 31.46) rotate(-29.98)"/><rect class="cls-56" x="52.15" y="40.11" width="0.65" height="3.21" rx="0.26" ry="0.26" transform="translate(10.35 -10.43) rotate(12.58)"/><circle class="cls-21" cx="46.28" cy="39.44" r="0.46"/><path class="cls-57" d="M5,42.32a2.66,2.66,0,0,1,1.93-2.55A1.11,1.11,0,0,0,7.7,39a2.66,2.66,0,0,1,5.19.51,2.69,2.69,0,0,1,0,.6,1.06,1.06,0,0,0,.47,1,2.66,2.66,0,0,1,.39,4.12,1.72,1.72,0,0,0-.4.56A1.89,1.89,0,0,1,11.6,47l-.24,0a1.9,1.9,0,0,0-1.24.24,2.66,2.66,0,0,1-4-2.27v0a.93.93,0,0,0-.28-.67A2.65,2.65,0,0,1,5,42.32Z"/><path class="cls-58" d="M7.75,42.32c0,.08,0,.17.08.25a.84.84,0,0,0,.32.4,2,2,0,0,0,.23.12l.4.2,0-.08c0-.09,0-.17-.07-.26l-.14-.51.15.51c0,.08,0,.17.08.25l0,.11,0,0h0a0,0,0,0,1,0,0h0l0,0a.83.83,0,0,0,.19.18,2,2,0,0,0,.23.12l.43.21,0-2.4,0,3.13.24-.12a.91.91,0,0,0,.27-.19.82.82,0,0,0,.18-.27c0-.05,0-.1.05-.16a.34.34,0,0,1,.1-.14.36.36,0,0,1,.16-.07l.16,0a.37.37,0,0,0,.22-.22c.06-.21.11-.43.16-.65,0,.22-.09.44-.15.66a.39.39,0,0,1-.23.24l-.16,0a.33.33,0,0,0-.14.07.31.31,0,0,0-.09.13s0,.11,0,.16a.87.87,0,0,1-.18.29,1,1,0,0,1-.28.2l-.26.14L9.92,51h0a.14.14,0,0,1-.28,0l.1-7-.45-.24a2.08,2.08,0,0,1-.23-.13.87.87,0,0,1-.19-.19l0-.06h0l-.47-.25A2.08,2.08,0,0,1,8.12,43a.87.87,0,0,1-.32-.43c0-.09,0-.17-.07-.26l-.14-.51Z"/><path class="cls-59" d="M17.61,49.88a1.71,1.71,0,0,0-1.24-1.64.72.72,0,0,1-.48-.49,1.71,1.71,0,0,0-3.34.33,1.73,1.73,0,0,0,0,.39.68.68,0,0,1-.3.66A1.71,1.71,0,0,0,12,51.77a1.11,1.11,0,0,1,.26.36,1.21,1.21,0,0,0,1.12.74h.16a1.22,1.22,0,0,1,.79.15,1.71,1.71,0,0,0,2.59-1.46v0a.6.6,0,0,1,.18-.43A1.7,1.7,0,0,0,17.61,49.88Z"/><path class="cls-60" d="M15.8,51.08a.54.54,0,0,1-.2.26l-.15.08-.26.13,0-.05,0-.17.09-.33-.1.33-.05.16,0,.07h0a0,0,0,0,0,0,0h0l0,0a.53.53,0,0,1-.12.11l-.15.08-.27.13,0-1.54,0,2-.15-.08a.58.58,0,0,1-.17-.12.53.53,0,0,1-.11-.18s0-.07,0-.1a.22.22,0,0,0-.07-.09.23.23,0,0,0-.1,0l-.1,0a.24.24,0,0,1-.14-.14c0-.14-.07-.28-.1-.42,0,.14.06.28.09.42a.25.25,0,0,0,.15.16l.1,0,.09,0A.2.2,0,0,1,14,52s0,.07,0,.1a.56.56,0,0,0,.11.19.62.62,0,0,0,.18.13l.17.09,0,1.37.1.08,0-1.92.29-.15.15-.09a.56.56,0,0,0,.12-.12l0,0h0l.3-.16.15-.09a.56.56,0,0,0,.2-.28l0-.17.09-.33-.1.33Z"/><path id="_Path_" data-name="&lt;Path&gt;" class="cls-61" d="M25.77,13.11s15.55,7.28,16.7,13.45c.88,4.73-5.86,8.27-9.31,4.73l1.42-3.59s4.74-.3,3.41-3-5.75,0-5.75,0L30.57,18.3Z"/><path class="cls-62" d="M5.42,35.4a9.36,9.36,0,0,0,6.26.93,5.86,5.86,0,0,1,6.56,4c.57,1.86,6.22-4.6,6.22-4.6l-5.27-7.67L4.91,31.81l-.62,2.08"/><path id="_Path_2" data-name="&lt;Path&gt;" class="cls-63" d="M16.67,12.61s5.64-1.2,2.15-8c0,0,3.55-.92,6.17,4a1,1,0,0,1-.77,1.48l-.21,0s-.94,1.61,2.9,4.13L28.3,18,25.36,20.9,16,16.23Z"/><path class="cls-64" d="M21.37,16.13c-.73-.73-.66-2,0-1.95a2.24,2.24,0,0,1,1.26.61s0-5.14-.08-5.39-1.58-.27-.88-.83,1.34-.14,1.42.68a7,7,0,0,0,.18,1.15l.71-.22,0,0,.18,0c-.11,0-.5,0-.31-.64s-1.06-1.92-.8-2.14a1.23,1.23,0,0,0,.4-.87A6.37,6.37,0,0,0,21.61,5L20,5.39l-.53.8c1.9,5.41-2.84,6.42-2.84,6.42l-.14.78,1.43,3S22.1,16.86,21.37,16.13Z"/><path class="cls-65" d="M17.68,56.06a27.86,27.86,0,0,0,5.13,2.39c7.55-11.32,10.12-24.88,10.12-24.88l-7.57-.89C25,39,21.09,48.72,17.68,56.06Z"/><path class="cls-66" d="M33.23,60c-2.79-7.36-6.89-19.45-6.89-27.15L16.13,31.47s2.51,15.68,10.57,28A28.12,28.12,0,0,0,32,60C32.41,60,32.82,60,33.23,60Z"/><path class="cls-67" d="M26.54,36c-1.91-1-5.05-2.19-5.05-2.19l-4.32-.33.11,3.37c.32,1.28.72,2.74,1.2,4.33a5,5,0,0,1,1.85-4.47.6.6,0,0,1,.51-.13,32.32,32.32,0,0,0,5.86.74Q26.61,36.63,26.54,36Z"/><path id="_Path_3" data-name="&lt;Path&gt;" class="cls-68" d="M20.11,14.19s1.82,4.38,6.28,4.19c2.81-.12-.62-4.63-.62-4.63l8.81,13.19-2.39,9.79h0A15.78,15.78,0,0,1,15,30.32h0a3.87,3.87,0,0,1-.66-2.08C14.29,24.72,17.69,15.77,20.11,14.19Z"/><path class="cls-69" d="M27.63,20.47c.73,5.93-3.79,8.91-2.44,11s.05,4.45-.94,4.5-5.91-2.08-3.16-4.5,1.61-9.56,1.61-9.56l-8.33,6c0,.1,0,.2,0,.3A3.87,3.87,0,0,0,15,30.32h0a15.78,15.78,0,0,0,17.16,6.42h0l1.74-7.16C30.75,23.41,27.23,17.17,27.63,20.47Z"/><path id="_Path_4" data-name="&lt;Path&gt;" class="cls-70" d="M24.88,12.61s4.53,5.65,2.23,16a2.79,2.79,0,0,0,1.22,2.94,10.87,10.87,0,0,1,4,4.75S37.91,19.48,24.88,12.61Z"/><path id="_Path_5" data-name="&lt;Path&gt;" class="cls-71" d="M32.46,30.87h.05l-.05.09Z"/><path id="_Path_6" data-name="&lt;Path&gt;" class="cls-72" d="M33.87,31.91a7,7,0,0,0-2.48,4.84.49.49,0,0,0,.5.52h0a.5.5,0,0,0,.46-.31c.43-1,2-4.24,4.48-4.24Z"/><path id="_Path_7" data-name="&lt;Path&gt;" class="cls-73" d="M33.15,24l1.29-.06A2.61,2.61,0,0,1,37,26.52v2.13a1.44,1.44,0,0,0,2.44,1,4.6,4.6,0,0,0,1.34-3.48A4.31,4.31,0,0,0,33.15,24Z"/><path id="_Path_8" data-name="&lt;Path&gt;" class="cls-74" d="M40.09,25.82c-.35-2.37-2.08-2.2-4.23-2.2s-3.16.43-3.16,2.58.84,4.84,2.63,3.64c.44-.3.55-1.09,2.29,0C39.63,31,40.34,27.47,40.09,25.82Z"/><path id="_Path_9" data-name="&lt;Path&gt;" class="cls-75" d="M39.86,24l-1.29-.06A2.61,2.61,0,0,0,36,26.52v2.13a1.44,1.44,0,0,1-2.44,1A4.27,4.27,0,1,1,39.86,24Z"/><path id="_Path_10" data-name="&lt;Path&gt;" class="cls-76" d="M39.13,23.85a1.65,1.65,0,0,1,1.13.65l.11.15c.37.47.12.73-.47,1L36,26.81A2.64,2.64,0,0,1,39.13,23.85Z"/><path id="_Path_11" data-name="&lt;Path&gt;" class="cls-77" d="M18.35,33.89a15.71,15.71,0,0,0,2.45,1.6c.57.29.37.34.07.7-.53.63-1.32,1.09-3.59.66Z"/><path id="_Path_12" data-name="&lt;Path&gt;" class="cls-78" d="M16.14,35.59l-1,4a.53.53,0,0,0,.28.6h0a.53.53,0,0,0,.74-.3l1.4-4Z"/><circle id="_Path_13" data-name="&lt;Path&gt;" class="cls-79" cx="15.73" cy="39.64" r="0.33" transform="translate(-24.35 54.19) rotate(-88.31)"/><circle id="_Path_14" data-name="&lt;Path&gt;" class="cls-79" cx="32" cy="36.37" r="0.35"/><path class="cls-80" d="M11.12,15.49s3.49-3.42,6.06-3.54S24.55,20,22,26.81,9.82,31.66,8,31.66,3.2,32.85,5.42,35.4a2.53,2.53,0,0,1-.79-3.93c1.77-2.61,1.49-3.63,1.49-3.63L10,25.7"/><path class="cls-81" d="M13.73,26.94c-.57-3.84,3.63-5.81,3.74-9.39s-3-4.35-4.57-3.46c-4,2.27-15.48,17.12,4.38,22.76l1.06-3S14.3,30.78,13.73,26.94Z"/><path class="cls-82" d="M24,10.14a2.3,2.3,0,0,1-1.45-.74c-.89-.78-1.57,1.59-1.2,3.21.44,1.93,3,4.26,5.44,3.9S28.92,12,26.12,12,24,10.14,24,10.14Z"/><path class="cls-83" d="M33.67,29.64a1.23,1.23,0,0,0-1.41-.39,3,3,0,0,0-1.32,1c-1,1.34.76,2.14.86,1.54s1.34-.51,1.71-.21,1.41-1.44.87-1.48A1.17,1.17,0,0,1,33.67,29.64Z"/><path class="cls-84" d="M20,8.57s-.11-.86.36-.83a.44.44,0,0,1,.42.39.23.23,0,0,0,.22.18h0a.22.22,0,0,0,.13,0c.37-.25,2.31-1.66,1.64-2.93s-5-1.87-4.38-.6S20,8.57,20,8.57Z"/><circle class="cls-85" cx="9.49" cy="24.74" r="1.82"/></g></g></svg>