<svg id="Layer_1" data-name="Layer 1" xmlns="http://www.w3.org/2000/svg" xmlns:xlink="http://www.w3.org/1999/xlink" viewBox="0 0 64 64"><defs><style>.cls-1{fill:url(#linear-gradient);}.cls-2{fill:url(#linear-gradient-2);}.cls-3{fill:url(#linear-gradient-3);}.cls-4{fill:url(#linear-gradient-4);}.cls-5{fill:url(#linear-gradient-5);}.cls-6{fill:url(#linear-gradient-6);}.cls-7{fill:url(#linear-gradient-7);}.cls-8{fill:url(#linear-gradient-8);}.cls-9{fill:url(#linear-gradient-9);}.cls-10{fill:url(#linear-gradient-10);}.cls-11{fill:url(#linear-gradient-11);}.cls-12{fill:url(#linear-gradient-12);}.cls-13{stroke:#000;stroke-miterlimit:10;fill:url(#linear-gradient-13);}.cls-14{fill:url(#linear-gradient-14);}.cls-15{fill:url(#linear-gradient-15);}.cls-16{fill:url(#linear-gradient-16);}.cls-17{fill:url(#linear-gradient-17);}.cls-18{fill:url(#linear-gradient-18);}.cls-19{fill:url(#linear-gradient-19);}.cls-20{fill:url(#linear-gradient-20);}.cls-21{fill:url(#linear-gradient-21);}.cls-22{fill:url(#linear-gradient-22);}.cls-23{fill:url(#linear-gradient-23);}.cls-24{fill:url(#linear-gradient-24);}.cls-25{fill:url(#linear-gradient-25);}.cls-26{fill:url(#linear-gradient-26);}.cls-27{fill:url(#linear-gradient-27);}.cls-28{fill:url(#linear-gradient-28);}.cls-29{fill:url(#linear-gradient-29);}.cls-30{fill:url(#linear-gradient-30);}.cls-31{fill:url(#linear-gradient-31);}.cls-32{fill:url(#linear-gradient-32);}.cls-33{fill:url(#linear-gradient-33);}.cls-34{fill:url(#linear-gradient-34);}.cls-35{fill:url(#linear-gradient-35);}.cls-36{fill:url(#linear-gradient-36);}</style><linearGradient id="linear-gradient" x1="32" y1="97.25" x2="32" y2="9.14" gradientUnits="userSpaceOnUse"><stop offset="0.02" stop-color="#edd7ad"/><stop offset="0.52" stop-color="#ff9661"/><stop offset="1" stop-color="#e74a69"/></linearGradient><linearGradient id="linear-gradient-2" x1="36.51" y1="59.85" x2="36.51" y2="9.22" xlink:href="#linear-gradient"/><linearGradient id="linear-gradient-3" x1="14.54" y1="56.14" x2="14.54" y2="18.64" xlink:href="#linear-gradient"/><linearGradient id="linear-gradient-4" x1="31.54" y1="18.57" x2="41.44" y2="-2.01" xlink:href="#linear-gradient"/><linearGradient id="linear-gradient-5" x1="30.39" y1="24.83" x2="30.39" y2="5.21" xlink:href="#linear-gradient"/><linearGradient id="linear-gradient-6" x1="41.89" y1="33.17" x2="41.89" y2="18.6" gradientUnits="userSpaceOnUse"><stop offset="0" stop-color="#fff"/><stop offset="0.84" stop-color="#cddfec"/></linearGradient><linearGradient id="linear-gradient-7" x1="44.28" y1="35.79" x2="44.28" y2="23.02" xlink:href="#linear-gradient-6"/><linearGradient id="linear-gradient-8" x1="38.59" y1="-241.55" x2="38.59" y2="-256.39" xlink:href="#linear-gradient-6"/><linearGradient id="linear-gradient-9" x1="10.64" y1="66.72" x2="17.89" y2="49.64" gradientUnits="userSpaceOnUse"><stop offset="0" stop-color="#3db6d3"/><stop offset="0.5" stop-color="#3d6fd3"/><stop offset="1" stop-color="#252784"/></linearGradient><linearGradient id="linear-gradient-10" x1="8.15" y1="64.07" x2="15.7" y2="52.01" xlink:href="#linear-gradient-9"/><linearGradient id="linear-gradient-11" x1="20.61" y1="72.69" x2="22.61" y2="41.77" xlink:href="#linear-gradient-9"/><linearGradient id="linear-gradient-12" x1="36.37" y1="67.72" x2="22.95" y2="45.55" xlink:href="#linear-gradient-9"/><linearGradient id="linear-gradient-13" x1="13.37" y1="16.69" x2="8.79" y2="-4.08" gradientUnits="userSpaceOnUse"><stop offset="0" stop-color="#fff" stop-opacity="0"/><stop offset="0.8"/></linearGradient><linearGradient id="linear-gradient-14" x1="45.05" y1="58.11" x2="43.55" y2="-3.56" xlink:href="#linear-gradient"/><linearGradient id="linear-gradient-15" x1="33.34" y1="63.99" x2="45.72" y2="27.86" xlink:href="#linear-gradient-9"/><linearGradient id="linear-gradient-16" x1="63.95" y1="42.31" x2="52.46" y2="25.56" xlink:href="#linear-gradient-6"/><linearGradient id="linear-gradient-17" x1="48" y1="59.27" x2="48" y2="33.19" xlink:href="#linear-gradient-9"/><linearGradient id="linear-gradient-18" x1="44.77" y1="58.23" x2="40.27" y2="30.98" xlink:href="#linear-gradient-9"/><linearGradient id="linear-gradient-19" x1="44.68" y1="36.86" x2="43.51" y2="-13.47" gradientTransform="translate(40.23 -27.94) rotate(60)" xlink:href="#linear-gradient"/><linearGradient id="linear-gradient-20" x1="37.66" y1="21.32" x2="31.01" y2="21.32" gradientUnits="userSpaceOnUse"><stop offset="0" stop-color="#e8bd00"/><stop offset="0.51" stop-color="#e88300"/><stop offset="1" stop-color="#d0471e"/></linearGradient><linearGradient id="linear-gradient-21" x1="18.83" y1="17.79" x2="36.02" y2="19.79" gradientUnits="userSpaceOnUse"><stop offset="0" stop-color="#d1efe7"/><stop offset="0.53" stop-color="#97efe7"/><stop offset="1" stop-color="#3ccbe3"/></linearGradient><linearGradient id="linear-gradient-22" x1="36.4" y1="29.41" x2="35.48" y2="23.95" xlink:href="#linear-gradient-21"/><linearGradient id="linear-gradient-23" x1="31.36" y1="30.47" x2="27.82" y2="37.01" gradientUnits="userSpaceOnUse"><stop offset="0" stop-color="#f9d5c5"/><stop offset="1" stop-color="#f78e6b"/></linearGradient><linearGradient id="linear-gradient-24" x1="37.55" y1="10.76" x2="4.3" y2="43.68" gradientUnits="userSpaceOnUse"><stop offset="0.02" stop-color="#bde2f4"/><stop offset="0.53" stop-color="#71bfe6"/><stop offset="1" stop-color="#3d94e6"/></linearGradient><linearGradient id="linear-gradient-25" x1="35.1" y1="16.95" x2="30.6" y2="24.37" xlink:href="#linear-gradient-23"/><linearGradient id="linear-gradient-26" x1="26.82" y1="22.73" x2="11.57" y2="13.23" xlink:href="#linear-gradient-23"/><linearGradient id="linear-gradient-27" x1="17.77" y1="30.69" x2="16.71" y2="16.94" xlink:href="#linear-gradient-23"/><linearGradient id="linear-gradient-28" x1="31.71" y1="19.25" x2="5.87" y2="44.67" xlink:href="#linear-gradient-24"/><linearGradient id="linear-gradient-29" x1="38.13" y1="11.35" x2="4.88" y2="44.26" xlink:href="#linear-gradient-24"/><linearGradient id="linear-gradient-30" x1="26.46" y1="1.13" x2="6.43" y2="20.57" gradientUnits="userSpaceOnUse"><stop offset="0.04" stop-color="#b0462a"/><stop offset="0.51" stop-color="#70332a"/><stop offset="0.99" stop-color="#4d2c2a"/></linearGradient><linearGradient id="linear-gradient-31" x1="30.56" y1="18.09" x2="4.73" y2="43.5" xlink:href="#linear-gradient-24"/><linearGradient id="linear-gradient-32" x1="6.39" y1="37.28" x2="16.64" y2="3.23" xlink:href="#linear-gradient-30"/><linearGradient id="linear-gradient-33" x1="37.73" y1="10.94" x2="4.49" y2="43.85" xlink:href="#linear-gradient-24"/><linearGradient id="linear-gradient-34" x1="29.8" y1="34.41" x2="29.8" y2="30.75" xlink:href="#linear-gradient-6"/><linearGradient id="linear-gradient-35" x1="28.8" y1="34.09" x2="28.8" y2="30.66" xlink:href="#linear-gradient-20"/><linearGradient id="linear-gradient-36" x1="30.99" y1="35.94" x2="30.99" y2="31.67" xlink:href="#linear-gradient-9"/></defs><title>painting</title><circle class="cls-1" cx="32" cy="32" r="28"/><path class="cls-2" d="M57.43,34.83l-11.24,8.1a1.07,1.07,0,0,1-1.13.08l-2.72-1.46a1.15,1.15,0,0,0-1.21.08l-1.31.94a1.07,1.07,0,0,1-1.23,0l-7.89-5.35a1.49,1.49,0,0,0-1.77.08l-7.27,5.9a1.12,1.12,0,0,1-1.49-.08L18.9,41.86a1.2,1.2,0,0,0-1.7,0l-1.55,1.55L13.1,40.87l3.4,14.44A28,28,0,0,0,59.92,34,4.7,4.7,0,0,0,57.43,34.83Z"/><path class="cls-3" d="M20.21,41.86a1.2,1.2,0,0,0-1.7,0l-1.26,1.26a1.12,1.12,0,0,1-1.49.08l-7.27-5.9a1.49,1.49,0,0,0-1.77-.08L4.77,38.53A28,28,0,0,0,18,56.25h1l5.27-15.38-2.55,2.55Z"/><path class="cls-4" d="M37.61,7.48C35.77,5.68,30.92,6,30.45,4.66a1.48,1.48,0,0,0-.33-.59,27.83,27.83,0,0,0-9.38,2.29l.28.09a160.89,160.89,0,0,0,30.23,5.79C45,11.45,39.44,9.28,37.61,7.48Z"/><path class="cls-5" d="M24.83,13.76s2.17-1.13,3.8-.05c1.43,1,1.54.36,1.9,1s2.77,0,3.86.75,4.09,1.3,7.31,1.12A82.29,82.29,0,0,1,26,16.48a39.78,39.78,0,0,1-6.37-1.16A.69.69,0,0,1,19.68,14a4.1,4.1,0,0,0,1.26-.36C22.47,12.84,24.83,13.76,24.83,13.76Z"/><path class="cls-6" d="M41.43,58.37l.91-.35V27.45h-.91Z"/><path class="cls-7" d="M40.52,28.48l-.87.28,8.47,26.12.78-.56Z"/><path class="cls-8" d="M33.05,60l1-.05,10.1-31.16-.87-.28Z"/><path class="cls-9" d="M15.25,40.52c1.38,4.38,1.16,9.41.28,14.11A28,28,0,0,0,21,57.74a44,44,0,0,0,3.19-15.79Z"/><path class="cls-10" d="M15.25,40.52l0,.08.14.48c1.18,4.17.94,9.15.13,13.57q.58.43,1.19.82c.84-1,1.6-1.48,1.71.35a7,7,0,0,0,.08.73c.45.25.92.49,1.38.71a6.15,6.15,0,0,0,.77-1A37.33,37.33,0,0,0,24,45l-3.12-3.57Z"/><path class="cls-11" d="M15.25,40.28a44,44,0,0,1,8.69,18.54,27.85,27.85,0,0,0,5,1,71.87,71.87,0,0,0-2.09-20.64Z"/><path class="cls-12" d="M27.38,41.11,16.85,42.35a44.24,44.24,0,0,1,7,16.43l.77.22c-.16-3.23,0-6.15,1.34-7,3.06-1.95,1.44-10.89,1.43-10.92Z"/><path class="cls-13" d="M10.83,5,10.75,5,10.84,5Z"/><path class="cls-14" d="M48.69,44.66H33.37A1.34,1.34,0,0,1,32.06,43L38.67,13.6a1.34,1.34,0,0,1,1.31-1H55.3a1.34,1.34,0,0,1,1.31,1.63L50,43.62A1.34,1.34,0,0,1,48.69,44.66Z"/><path class="cls-15" d="M50.45,23.84,43.28,31a.67.67,0,0,1-1.06-.15l-1.53-2.77a.76.76,0,0,0-1.18-.19l-5.11,4.74L32.06,43a1.34,1.34,0,0,0,1.31,1.63H48.69a1.34,1.34,0,0,0,1.31-1l3.65-16.28-2-3.33A.79.79,0,0,0,50.45,23.84Z"/><path class="cls-16" d="M51.18,23.64l-.1,0Z"/><path class="cls-17" d="M51.68,24a.78.78,0,0,0-.39-.33l-.12,0c.26.1.83.6-1,3.15-2.18,3.1-5.13,6.9-1.73,6.83s-2.94,9.28-6.14,11h6.34a1.34,1.34,0,0,0,1.31-1l3.65-16.28Z"/><path class="cls-18" d="M43.28,31a.67.67,0,0,1-1.06-.15l-1.53-2.77A.76.76,0,0,0,40,27.7s1.07.51-.08,1.77-2.93,3.35-.84,3.16-4,4.74-2.25,4.09,6.87-6.16,7.86-7.15Z"/><ellipse class="cls-19" cx="44.31" cy="20.87" rx="4.26" ry="2.86" transform="translate(4.08 48.81) rotate(-60)"/><path class="cls-20" d="M36.48,22a1.66,1.66,0,0,0,1.18-.09.36.36,0,0,0,.15-.52,1.67,1.67,0,0,0-2.44-.44A1.67,1.67,0,0,0,36.48,22Z"/><path class="cls-21" d="M35.65,20.92a.15.15,0,0,0-.06-.18,30.52,30.52,0,0,0-4.06-1.9c-2.57-1-4.72-1.68-4.81-1.45s1.91,1.26,4.48,2.29a30.52,30.52,0,0,0,4.25,1.44.15.15,0,0,0,.17-.09Z"/><path class="cls-22" d="M34.48,20.36l-.11.26a.37.37,0,0,1-.13.17c.49.15.9.27,1.2.33a.15.15,0,0,0,.17-.09l0-.1a.15.15,0,0,0-.06-.18c-.26-.16-.64-.37-1.1-.59A.38.38,0,0,1,34.48,20.36Z"/><path class="cls-23" d="M27.14,35.4a1.32,1.32,0,0,1,.94-.79c.71-.14,2.84-.44,2.66-.12a15.59,15.59,0,0,1-2.93,1.27"/><path class="cls-24" d="M13.1,19.57s-6.81,1.08-1.9,11c4.21,8.51,11.46,11,14.22,8.61a9.26,9.26,0,0,0,2.75-3.4.44.44,0,0,0-.33-.59c-.37-.07-.61-.05-1.16.44-1,.86-3.52,2-4,1.16"/><path class="cls-25" d="M31.41,21.9l.5-1.9a1.21,1.21,0,0,1,.45-.67c.3-.22.7-.5.83-.47.75.16,1.47,1.18,1.32,1.32a2.8,2.8,0,0,1-.53.31.75.75,0,0,0-.39.48,1.57,1.57,0,0,1-.82,1.11"/><path id="_Path_" data-name="&lt;Path&gt;" class="cls-26" d="M13.1,19.57A7,7,0,0,0,13.75,14s.43-3.23,5.71-3.23l1,3.23a.81.81,0,0,0,.26.39l.29.24a.55.55,0,0,1,0,.75c-.66.78-1.67,2.58-1.32,3,.76.88-2.9-.9-2.84,2.12C16.88,20.46,10.41,23.15,13.1,19.57Z"/><path class="cls-27" d="M20.57,15a2.19,2.19,0,0,0,.27-.54l0,0-6.77,2.24a7.35,7.35,0,0,1-.95,2.89,4.88,4.88,0,0,0-.5.78l.72.12s.39-.54,1.82-.64.81-.48.36-.93,1.41-.64,2-.81,2.29-.61,2.29-.61a.55.55,0,0,1-.29-.49c0-.39.4-1,.62-1a1.18,1.18,0,0,0,.57-.14l.28-.38C20.78,15.44,20.46,15.13,20.57,15Z"/><path class="cls-28" d="M12.84,19.72a15.44,15.44,0,0,0-.38,14.5c3.84,8.08-.2,7,3.36,8s12.09,1.63,11.54-1.44-6.87-12.35-7-14.71a8.13,8.13,0,0,0-3.45-5.62C15.65,19.9,13.28,19.17,12.84,19.72Z"/><path class="cls-29" d="M16.88,20.46c-1.22-.56-3.59-1.29-4-.73a15.44,15.44,0,0,0-.38,14.5c3.84,8.08-.2,7,3.36,8a26.48,26.48,0,0,0,7.13.81c-2.71-.12-3.15-2.59-.84-4.17s-.74-2.22-2.92-5.29,3.76-1.75,3.76-1.75h0c-1.38-2.5-2.56-4.75-2.63-5.75A8.13,8.13,0,0,0,16.88,20.46Z"/><path class="cls-30" d="M20.08,16.4c-.25.56-.72,1.26-.8.6a1.76,1.76,0,0,1,.48-1.24h0a7.07,7.07,0,1,0-2.45,1.8h0c1.14-.39,0,1.36-.25,1.85S20,19.57,20,18.9a6.76,6.76,0,0,1,1-3.38A2.36,2.36,0,0,0,20.08,16.4Z"/><path class="cls-31" d="M16.88,20.46s3.26,1,7.5,5.09c3.46,3.35,6-1.05,6.9-4a1.12,1.12,0,0,1,1.61.87s.64,10.28-6.36,10.07-13.33-6.83-12.58-10S16.88,20.46,16.88,20.46Z"/><path class="cls-32" d="M18.47,18.08c.86-1.36-1-2.74.19-4.26S19,8,17.23,10.33s-6.1,3.91-7.67.19A4.34,4.34,0,0,1,10.75,5l-.84.59A7.08,7.08,0,0,0,17.3,17.56h0c1.14-.39,0,1.36-.25,1.85-.1.24,1,.24,1.92.06C19,19.46,17.61,19.43,18.47,18.08Z"/><path class="cls-33" d="M32.88,22.41a2,2,0,0,0-.11-.32c0,.07.2,6.72-4.35,8.91-2.42,1.16-8.85-2-10-4.86s2.09-.68,2.23-1.63c.31-2.11-1.26-2.59-2.08-3.28a10.83,10.83,0,0,0-1.74-.77s-2.19-1.1-2.94,2,5.58,9.76,12.58,10S32.88,22.41,32.88,22.41Z"/><path class="cls-34" d="M33.48,34.13c0,.56-2.68.66-4.71.66s-2.65-.1-2.65-.66,1.65-1,3.68-1S33.48,33.57,33.48,34.13Z"/><ellipse class="cls-35" cx="28.8" cy="33.87" rx="0.6" ry="0.19"/><ellipse class="cls-36" cx="30.99" cy="33.87" rx="0.6" ry="0.19"/></svg>