<svg xmlns="http://www.w3.org/2000/svg" xmlns:xlink="http://www.w3.org/1999/xlink" viewBox="0 0 64 64"><defs><style>.cls-1{isolation:isolate;}.cls-2{fill:url(#linear-gradient);}.cls-3{fill:url(#linear-gradient-2);}.cls-4{fill:url(#linear-gradient-3);}.cls-5{fill:url(#linear-gradient-4);}.cls-6{fill:url(#linear-gradient-5);}.cls-7{fill:url(#linear-gradient-6);}.cls-8{fill:url(#linear-gradient-7);}.cls-9{fill:url(#linear-gradient-8);}.cls-10{fill:url(#linear-gradient-9);}.cls-11{fill:url(#linear-gradient-10);}.cls-12{fill:url(#linear-gradient-11);}.cls-13{fill:url(#linear-gradient-12);}.cls-14{fill:url(#linear-gradient-13);}.cls-15{fill:url(#linear-gradient-14);}.cls-16{fill:url(#linear-gradient-15);}.cls-17{fill:url(#linear-gradient-16);}.cls-18{fill:url(#linear-gradient-17);}.cls-19{fill:url(#linear-gradient-18);}.cls-20{fill:url(#linear-gradient-19);}.cls-21{fill:url(#linear-gradient-20);}.cls-22{fill:url(#linear-gradient-21);}.cls-23{fill:url(#linear-gradient-22);}.cls-24{fill:url(#linear-gradient-23);}.cls-25{fill:url(#linear-gradient-24);}.cls-26{fill:url(#linear-gradient-60);}.cls-27{opacity:0.49;fill:url(#linear-gradient-61);}.cls-27,.cls-42{mix-blend-mode:color-burn;}.cls-28{fill:url(#linear-gradient-62);}.cls-29{fill:url(#linear-gradient-63);}.cls-30{fill:url(#linear-gradient-64);}.cls-31{fill:url(#linear-gradient-65);}.cls-32{fill:url(#linear-gradient-66);}.cls-33{fill:url(#linear-gradient-67);}.cls-34{fill:#f9aa8f;}.cls-35{fill:url(#linear-gradient-68);}.cls-36{fill:#921a1d;}.cls-37{fill:url(#linear-gradient-69);}.cls-38{fill:#c0c0d8;}.cls-39{fill:url(#linear-gradient-70);}.cls-40{fill:#38385b;}.cls-41{fill:#100e33;}.cls-42{stroke:#000;stroke-miterlimit:10;fill:url(#linear-gradient-71);}.cls-43{fill:url(#linear-gradient-72);}.cls-44{fill:url(#linear-gradient-73);}.cls-45{fill:url(#linear-gradient-74);}.cls-46{fill:url(#linear-gradient-75);}</style><linearGradient id="linear-gradient" x1="32.35" y1="65.4" x2="32.35" y2="2.09" gradientUnits="userSpaceOnUse"><stop offset="0.02" stop-color="#97efe7"/><stop offset="0.52" stop-color="#3db6d3"/><stop offset="1" stop-color="#3d6fd3"/></linearGradient><linearGradient id="linear-gradient-2" x1="49.82" y1="21.78" x2="49.82" y2="-2.03" gradientUnits="userSpaceOnUse"><stop offset="0" stop-color="#d1efe7"/><stop offset="0.53" stop-color="#97efe7"/><stop offset="1" stop-color="#3ccbe3"/></linearGradient><linearGradient id="linear-gradient-3" x1="1255.25" y1="33.91" x2="1255.25" y2="-11.1" gradientTransform="matrix(-1, 0, 0, 1, 1304, 0)" xlink:href="#linear-gradient-2"/><linearGradient id="linear-gradient-4" x1="1251.77" y1="33.91" x2="1251.77" y2="-11.1" gradientTransform="matrix(-1, 0, 0, 1, 1304, 0)" xlink:href="#linear-gradient-2"/><linearGradient id="linear-gradient-5" x1="1261.74" y1="33.91" x2="1261.74" y2="-11.1" gradientTransform="matrix(-1, 0, 0, 1, 1304, 0)" xlink:href="#linear-gradient-2"/><linearGradient id="linear-gradient-6" x1="1251.11" y1="33.91" x2="1251.11" y2="-11.1" gradientTransform="matrix(-1, 0, 0, 1, 1304, 0)" xlink:href="#linear-gradient-2"/><linearGradient id="linear-gradient-7" x1="59.98" y1="37.22" x2="59.98" y2="35.18" xlink:href="#linear-gradient-2"/><linearGradient id="linear-gradient-8" x1="49.82" y1="43.61" x2="49.82" y2="24.85" xlink:href="#linear-gradient-2"/><linearGradient id="linear-gradient-9" x1="1249.65" y1="39.51" x2="1249.65" y2="22.36" gradientTransform="matrix(-1, 0, 0, 1, 1304, 0)" xlink:href="#linear-gradient-2"/><linearGradient id="linear-gradient-10" x1="21.07" y1="21.78" x2="21.07" y2="-2.03" xlink:href="#linear-gradient-2"/><linearGradient id="linear-gradient-11" x1="8.47" y1="32.65" x2="8.47" y2="5.87" xlink:href="#linear-gradient-2"/><linearGradient id="linear-gradient-12" x1="1274.58" y1="40.59" x2="1274.58" y2="-14.81" gradientTransform="matrix(-1, 0, 0, 1, 1304, 0)" xlink:href="#linear-gradient-2"/><linearGradient id="linear-gradient-13" x1="1272.47" y1="40.59" x2="1272.47" y2="-14.81" gradientTransform="matrix(-1, 0, 0, 1, 1304, 0)" xlink:href="#linear-gradient-2"/><linearGradient id="linear-gradient-14" x1="1278.48" y1="40.59" x2="1278.48" y2="-14.81" gradientTransform="matrix(-1, 0, 0, 1, 1304, 0)" xlink:href="#linear-gradient-2"/><linearGradient id="linear-gradient-15" x1="1286.59" y1="40.59" x2="1286.59" y2="-14.81" gradientTransform="matrix(-1, 0, 0, 1, 1304, 0)" xlink:href="#linear-gradient-2"/><linearGradient id="linear-gradient-16" x1="1287.8" y1="40.59" x2="1287.8" y2="-14.81" gradientTransform="matrix(-1, 0, 0, 1, 1304, 0)" xlink:href="#linear-gradient-2"/><linearGradient id="linear-gradient-17" x1="1269.85" y1="40.59" x2="1269.85" y2="-14.81" gradientTransform="matrix(-1, 0, 0, 1, 1304, 0)" xlink:href="#linear-gradient-2"/><linearGradient id="linear-gradient-18" x1="10.89" y1="39.09" x2="10.89" y2="20.78" xlink:href="#linear-gradient-2"/><linearGradient id="linear-gradient-19" x1="21.36" y1="46.09" x2="21.36" y2="15.22" xlink:href="#linear-gradient-2"/><linearGradient id="linear-gradient-20" x1="3756.44" y1="41.74" x2="3756.44" y2="13.67" gradientTransform="translate(-3745.83)" xlink:href="#linear-gradient-2"/><linearGradient id="linear-gradient-21" x1="3757.61" y1="41.74" x2="3757.61" y2="13.67" gradientTransform="translate(-3745.83)" xlink:href="#linear-gradient-2"/><linearGradient id="linear-gradient-22" x1="3758.79" y1="41.74" x2="3758.79" y2="13.67" gradientTransform="translate(-3745.83)" xlink:href="#linear-gradient-2"/><linearGradient id="linear-gradient-23" x1="3759.96" y1="41.74" x2="3759.96" y2="13.67" gradientTransform="translate(-3745.83)" xlink:href="#linear-gradient-2"/><linearGradient id="linear-gradient-24" x1="3761.14" y1="41.74" x2="3761.14" y2="13.67" gradientTransform="translate(-3745.83)" xlink:href="#linear-gradient-2"/><linearGradient id="linear-gradient-60" x1="3768.55" y1="39.51" x2="3768.55" y2="22.36" gradientTransform="translate(-3745.83)" xlink:href="#linear-gradient-2"/><linearGradient id="linear-gradient-61" x1="3749.63" y1="28.53" x2="3749.63" y2="28.21" gradientTransform="translate(-3745.83)" xlink:href="#linear-gradient-2"/><linearGradient id="linear-gradient-62" x1="1271.65" y1="1.94" x2="1271.65" y2="8.63" gradientTransform="matrix(-1, 0, 0, 1, 1304, 0)" xlink:href="#linear-gradient-2"/><linearGradient id="linear-gradient-63" x1="1271.65" y1="13.65" x2="1271.65" y2="-0.69" gradientTransform="matrix(-1, 0, 0, 1, 1304, 0)" xlink:href="#linear-gradient-2"/><linearGradient id="linear-gradient-64" x1="44.24" y1="64.9" x2="44.24" y2="30.07" gradientUnits="userSpaceOnUse"><stop offset="0" stop-color="#3db6d3"/><stop offset="0.5" stop-color="#3d6fd3"/><stop offset="1" stop-color="#252784"/></linearGradient><linearGradient id="linear-gradient-65" x1="44.22" y1="30.68" x2="38.67" y2="4.99" xlink:href="#linear-gradient-64"/><linearGradient id="linear-gradient-66" x1="41.71" y1="42.88" x2="41.71" y2="29.01" xlink:href="#linear-gradient-64"/><linearGradient id="linear-gradient-67" x1="39.72" y1="40.9" x2="39.72" y2="0.78" xlink:href="#linear-gradient-64"/><linearGradient id="linear-gradient-68" x1="35.15" y1="16.72" x2="27.79" y2="11.87" gradientUnits="userSpaceOnUse"><stop offset="0" stop-color="#f78e6b"/><stop offset="1" stop-color="#f9aa8f"/></linearGradient><linearGradient id="linear-gradient-69" x1="25.86" y1="15.72" x2="40.12" y2="5" gradientUnits="userSpaceOnUse"><stop offset="0" stop-color="#8e241c"/><stop offset="1" stop-color="#721a14"/></linearGradient><linearGradient id="linear-gradient-70" x1="26.71" y1="12.97" x2="27.98" y2="23.5" gradientUnits="userSpaceOnUse"><stop offset="0" stop-color="#9aadd9"/><stop offset="1" stop-color="#9c93c7"/></linearGradient><linearGradient id="linear-gradient-71" x1="29.62" y1="59.45" x2="21.07" y2="53.85" gradientUnits="userSpaceOnUse"><stop offset="0" stop-color="#fff" stop-opacity="0"/><stop offset="1"/></linearGradient><linearGradient id="linear-gradient-72" x1="17.49" y1="53.92" x2="17.49" y2="34.98" xlink:href="#linear-gradient-64"/><linearGradient id="linear-gradient-73" x1="17.49" y1="79.62" x2="17.49" y2="25.09" xlink:href="#linear-gradient-64"/><linearGradient id="linear-gradient-74" x1="7.07" y1="38.74" x2="29.41" y2="38.74" gradientUnits="userSpaceOnUse"><stop offset="0.14" stop-color="#38385b"/><stop offset="1" stop-color="#212142"/></linearGradient><linearGradient id="linear-gradient-75" x1="57.79" y1="71.48" x2="57.79" y2="38.96" xlink:href="#linear-gradient-64"/></defs><title>piano</title><g class="cls-1"><g id="Layer_1" data-name="Layer 1"><circle class="cls-2" cx="32.35" cy="32.15" r="28"/><path class="cls-3" d="M60.35,32.15a27.86,27.86,0,0,0-5-16H41.07a1.78,1.78,0,0,0-1.78,1.78V39.77h20A28,28,0,0,0,60.35,32.15Z"/><path class="cls-4" d="M57.36,25.93a18,18,0,0,1-5.33.22c-2-.41-3,.44-4.32-.14a2.34,2.34,0,0,0-2.84.74c-.37.55-1.37,0-2.12.49a6.24,6.24,0,0,1-2.61.45S45.82,29.5,57.36,25.93Z"/><path class="cls-5" d="M57,21.83A8.22,8.22,0,0,1,54,22c-1.13-.28-1.65.31-2.43-.09a1.12,1.12,0,0,0-1.55.51c-.18.38-.77,0-1.16.34a2.83,2.83,0,0,1-1.44.31S50.74,24.28,57,21.83Z"/><path class="cls-6" d="M39.49,23.82s3.78.62,5.54-.15a4.43,4.43,0,0,1-1.52-.51,1.61,1.61,0,0,0-1.78,0c-.39.38-.58-.29-1,.07A4.73,4.73,0,0,1,39.49,23.82Z"/><path class="cls-7" d="M51.74,19.23a6.85,6.85,0,0,0,2.3-.55,2.39,2.39,0,0,1-.7,0,.81.81,0,0,0-.75.15c-.12.16-.28,0-.42.12A1.92,1.92,0,0,1,51.74,19.23Z"/><path class="cls-8" d="M60.09,35.94H60l-.13,1.37Q60,36.62,60.09,35.94Z"/><path class="cls-9" d="M60.35,32.15a28.3,28.3,0,0,0-.16-3v4.72H59a.55.55,0,0,0-.55.55v1.15H54.22v-3a.61.61,0,0,0-.61-.61H50.26V30.2a3.08,3.08,0,0,0-3.08-3.08H43.83V35H39.29v4.73h20A28,28,0,0,0,60.35,32.15Z"/><path class="cls-10" d="M53.61,32a.61.61,0,0,1,.61.61v3h4.22v.15a2.68,2.68,0,0,1-2.68,2.73H53.94V37.38H50.26V32Z"/><path class="cls-11" d="M36,16.12H9.4a28,28,0,0,0-4,23.65H37.78V17.9A1.78,1.78,0,0,0,36,16.12Z"/><path class="cls-12" d="M11.44,25.22A9.17,9.17,0,0,1,7,23.62a2.68,2.68,0,0,0-1.16-.56q-.2.59-.38,1.18A52.8,52.8,0,0,0,11.44,25.22Z"/><path class="cls-13" d="M20.81,25.93a18,18,0,0,0,5.33.22c2-.41,3,.44,4.32-.14a2.34,2.34,0,0,1,2.84.74c.37.55,1.37,0,2.12.49a6.24,6.24,0,0,0,2.61.45S32.35,29.5,20.81,25.93Z"/><path class="cls-14" d="M26.75,22.63a8.22,8.22,0,0,0,3,.16c1.13-.28,1.65.31,2.43-.09a1.12,1.12,0,0,1,1.55.51c.18.38.77,0,1.16.34a2.83,2.83,0,0,0,1.44.31S33,25.08,26.75,22.63Z"/><path class="cls-15" d="M28.22,19.47s-3.83-.13-5.4-1.23A4.43,4.43,0,0,0,24.41,18a1.61,1.61,0,0,1,1.75.31c.31.45.62-.17,1,.27A4.73,4.73,0,0,0,28.22,19.47Z"/><path class="cls-16" d="M15.82,18.78a9.37,9.37,0,0,0,3.2.53,3.27,3.27,0,0,1-.86-.42,1.11,1.11,0,0,0-1-.21c-.23.14-.32-.21-.59-.08A2.62,2.62,0,0,1,15.82,18.78Z"/><path class="cls-17" d="M14.61,25.19a9.37,9.37,0,0,0,3.2.53,3.27,3.27,0,0,1-.86-.42,1.11,1.11,0,0,0-1-.21c-.23.14-.32-.21-.59-.08A2.62,2.62,0,0,1,14.61,25.19Z"/><path class="cls-18" d="M35.33,18A6.85,6.85,0,0,1,33,17.84a2.39,2.39,0,0,0,.68-.17.81.81,0,0,1,.77,0c.15.14.26-.1.43,0A1.92,1.92,0,0,0,35.33,18Z"/><path class="cls-19" d="M17.07,35.94H7.63v-4H6.4V29.26a1.73,1.73,0,0,0-1.66-1.72,27.91,27.91,0,0,0,.67,12.23h12Z"/><path class="cls-20" d="M33.24,19h-.05a6.38,6.38,0,0,0-6.38,6.38V32H23.46a.61.61,0,0,0-.61.61v3H18.63V34.47a.55.55,0,0,0-.55-.55h-1.2V27.21a.53.53,0,0,0-.53-.53H9.4a.53.53,0,0,0-.53.53V37.87H4.94c.13.64.3,1.28.47,1.9H37.78V35H33.24Z"/><rect class="cls-21" x="10.27" y="27.53" width="0.68" height="0.68" rx="0.05" ry="0.05"/><rect class="cls-22" x="11.44" y="27.53" width="0.68" height="0.68" rx="0.05" ry="0.05"/><rect class="cls-23" x="12.61" y="27.53" width="0.68" height="0.68" rx="0.05" ry="0.05"/><rect class="cls-24" x="13.79" y="27.53" width="0.68" height="0.68" rx="0.05" ry="0.05"/><rect class="cls-25" x="14.96" y="27.53" width="0.68" height="0.68" rx="0.05" ry="0.05"/><rect class="cls-21" x="10.27" y="28.77" width="0.68" height="0.68" rx="0.05" ry="0.05"/><rect class="cls-22" x="11.44" y="28.77" width="0.68" height="0.68" rx="0.05" ry="0.05"/><rect class="cls-23" x="12.61" y="28.77" width="0.68" height="0.68" rx="0.05" ry="0.05"/><rect class="cls-24" x="13.79" y="28.77" width="0.68" height="0.68" rx="0.05" ry="0.05"/><rect class="cls-25" x="14.96" y="28.77" width="0.68" height="0.68" rx="0.05" ry="0.05"/><rect class="cls-21" x="10.27" y="30.01" width="0.68" height="0.68" rx="0.05" ry="0.05"/><rect class="cls-22" x="11.44" y="30.01" width="0.68" height="0.68" rx="0.05" ry="0.05"/><rect class="cls-23" x="12.61" y="30.01" width="0.68" height="0.68" rx="0.05" ry="0.05"/><rect class="cls-24" x="13.79" y="30.01" width="0.68" height="0.68" rx="0.05" ry="0.05"/><rect class="cls-25" x="14.96" y="30.01" width="0.68" height="0.68" rx="0.05" ry="0.05"/><rect class="cls-21" x="10.27" y="31.24" width="0.68" height="0.68" rx="0.05" ry="0.05"/><rect class="cls-22" x="11.44" y="31.24" width="0.68" height="0.68" rx="0.05" ry="0.05"/><rect class="cls-23" x="12.61" y="31.24" width="0.68" height="0.68" rx="0.05" ry="0.05"/><rect class="cls-24" x="13.79" y="31.24" width="0.68" height="0.68" rx="0.05" ry="0.05"/><rect class="cls-25" x="14.96" y="31.24" width="0.68" height="0.68" rx="0.05" ry="0.05"/><rect class="cls-21" x="10.27" y="32.48" width="0.68" height="0.68" rx="0.05" ry="0.05"/><rect class="cls-22" x="11.44" y="32.48" width="0.68" height="0.68" rx="0.05" ry="0.05"/><rect class="cls-23" x="12.61" y="32.48" width="0.68" height="0.68" rx="0.05" ry="0.05"/><rect class="cls-24" x="13.79" y="32.48" width="0.68" height="0.68" rx="0.05" ry="0.05"/><rect class="cls-25" x="14.96" y="32.48" width="0.68" height="0.68" rx="0.05" ry="0.05"/><rect class="cls-21" x="10.27" y="33.72" width="0.68" height="0.68" rx="0.05" ry="0.05"/><rect class="cls-22" x="11.44" y="33.72" width="0.68" height="0.68" rx="0.05" ry="0.05"/><rect class="cls-23" x="12.61" y="33.72" width="0.68" height="0.68" rx="0.05" ry="0.05"/><rect class="cls-24" x="13.79" y="33.72" width="0.68" height="0.68" rx="0.05" ry="0.05"/><rect class="cls-25" x="14.96" y="33.72" width="0.68" height="0.68" rx="0.05" ry="0.05"/><rect class="cls-21" x="10.27" y="34.95" width="0.68" height="0.68" rx="0.05" ry="0.05"/><rect class="cls-22" x="11.44" y="34.95" width="0.68" height="0.68" rx="0.05" ry="0.05"/><rect class="cls-23" x="12.61" y="34.95" width="0.68" height="0.68" rx="0.05" ry="0.05"/><rect class="cls-24" x="13.79" y="34.95" width="0.68" height="0.68" rx="0.05" ry="0.05"/><rect class="cls-25" x="14.96" y="34.95" width="0.68" height="0.68" rx="0.05" ry="0.05"/><rect class="cls-21" x="10.27" y="36.19" width="0.68" height="0.68" rx="0.05" ry="0.05"/><rect class="cls-22" x="11.44" y="36.19" width="0.68" height="0.68" rx="0.05" ry="0.05"/><rect class="cls-23" x="12.61" y="36.19" width="0.68" height="0.68" rx="0.05" ry="0.05"/><rect class="cls-24" x="13.79" y="36.19" width="0.68" height="0.68" rx="0.05" ry="0.05"/><rect class="cls-25" x="14.96" y="36.19" width="0.68" height="0.68" rx="0.05" ry="0.05"/><path class="cls-26" d="M23.46,32a.61.61,0,0,0-.61.61v3H18.63v.15A2.68,2.68,0,0,0,21.3,38.5h1.82V37.38H26.8V32Z"/><path class="cls-27" d="M3.66,28.36s0,.07.11.12h0l.06,0a.23.23,0,0,0,.12-.07A.9.9,0,0,0,3.66,28.36Z"/><path class="cls-28" d="M32.15,4.89v-1h.4v1a1.43,1.43,0,0,0,1,1.37,4,4,0,1,1-2.43,0A1.45,1.45,0,0,0,32.15,4.89Z"/><circle class="cls-29" cx="32.35" cy="10.11" r="4.04"/><rect class="cls-30" x="28.12" y="37.37" width="32.23" height="7.04"/><path class="cls-31" d="M60.35,34.58l-8.11-24A3.79,3.79,0,0,0,48.65,8h0a3.79,3.79,0,0,0-3.79,3.79v2.5a2.23,2.23,0,0,1-2.23,2.23h-.27a10.91,10.91,0,0,0-6.64,2.25l-3.88,3a4.61,4.61,0,0,0-1.71,2.71l-1.26,6"/><rect class="cls-32" x="23.07" y="34.62" width="37.28" height="3.3"/><path class="cls-33" d="M60.35,34.58H23.07l-3.75-4.11A.9.9,0,0,1,20,29H54.84a.9.9,0,0,1,.67.29Z"/><path class="cls-34" d="M41,33.14a2.46,2.46,0,0,0,1.39,0c.85-.21,1.33-.63,1.64-.33s1.29,1.69.79,1.82-4.28,0-4.28,0"/><path class="cls-34" d="M33.66,12.7c0,.14,0,2.36-.06,2.5a3.7,3.7,0,0,1-1,2.16c-.84.58-1.52-.48-2.24.35s-4.24-1.37-4.24-1.37,1.19.57,1.09-1.95S28.45,8.72,31.65,10C34.41,11.17,33.86,11.95,33.66,12.7Z"/><path class="cls-35" d="M30.07,12l-1.5,4.72a1.45,1.45,0,0,0,1.65.15c.92-.51.92.47.92.47h0a3.23,3.23,0,0,0,1,.14c-.5.07-.7-.49,0-.87s.56-2.24.85-2.72a1.46,1.46,0,0,1,.66-.55c0-.36,0-.64,0-.68.11-.41.32-.83,0-1.32l-2.86.2Z"/><path class="cls-36" d="M32.38,13.79a1.48,1.48,0,0,1,1-.65c.43-.09.9-.42,1.11-1.31.46-1.91-2.06-4.61-2.68-3.7S30.48,9,29.41,9s-3.29,1.69-2.66,3.5A5.24,5.24,0,0,1,27,15.8l2.87,1.35a1.34,1.34,0,0,0,.64-1.7c-.35-1.29.5-1.72.67-1.45a3.64,3.64,0,0,1,.25.6.66.66,0,0,0,.62.44h0v0a2,2,0,0,1,.31-1.18Z"/><path class="cls-37" d="M31.88,10.77c-1.8-.69-.29-2.39-.29-2.39h0C31,9,30.37,9,29.41,9s-3.29,1.69-2.66,3.5A5.24,5.24,0,0,1,27,15.8l2.87,1.35a1.34,1.34,0,0,0,.64-1.7,2,2,0,0,1-.07-.76h0c0-.48.76-1.74,1.42-1.8S33.68,11.47,31.88,10.77Z"/><path class="cls-38" d="M24,17.26,25.52,16s2.58-1,4.16.48,1.25,2.41,1.25,2.41l-1.42,2.58"/><path class="cls-39" d="M29.67,16.47C28.1,15,25.52,16,25.52,16L24,17.26l.85.64,4.29-.13s.56.45.87,0,.45-.34.56-.32A5.62,5.62,0,0,0,29.67,16.47Z"/><path class="cls-40" d="M34.19,55.38l.23,4.43a.35.35,0,0,0,.35.33h1.46a.15.15,0,0,0,.08-.27l-.44-.27a.73.73,0,0,1-.34-.71L36,55.38"/><path class="cls-41" d="M26.8,33.69s-.06,4.15,6,6.26c5.92,2.06,3.93,10.17,3.1,15.69,0,0-1.62.33-1.72-.26l-1-5.63c0-2.91-1.27-4.44-2.65-4.6-4.17-.48-12.51.23-13.1-2.42"/><path class="cls-40" d="M25.94,55.38l.23,4.43a.35.35,0,0,0,.35.33H28a.15.15,0,0,0,.08-.27l-.44-.27a.73.73,0,0,1-.34-.71l.43-3.52"/><path class="cls-42" d="M25.94,55.38l.23,4.43a.35.35,0,0,0,.35.33H28a.15.15,0,0,0,.08-.27l-.44-.27a.73.73,0,0,1-.34-.71l.43-3.52"/><path class="cls-41" d="M18.71,34.57s-1.23,5.19,6,5.38c6.27.17,3.74,10.17,2.9,15.69,0,0-1.62.33-1.72-.26l-.76-5.63a3,3,0,0,0-2.65-2.61c-4.17-.48-6.94-7.37-7.53-10"/><path class="cls-34" d="M32.69,33.69a20.09,20.09,0,0,1,2.47-.54c.67,0,2.69,1.3,2.45,1.42a28.38,28.38,0,0,1-3.09.06"/><path class="cls-41" d="M28.47,26.62s-3,5.89,2.16,6.25,4.07,1.79,3.87,1.75-8.15.94-8.88-.93"/><rect class="cls-43" x="11.5" y="42.65" width="11.98" height="4.51" rx="2.25" ry="2.25"/><path class="cls-44" d="M18.09,57.77V47.15h-1.2V57.77a1.36,1.36,0,0,1-1.36,1.36h-1a.69.69,0,0,0-.69.69v.32h7.36v-.32a.69.69,0,0,0-.69-.69h-1A1.36,1.36,0,0,1,18.09,57.77Z"/><path class="cls-40" d="M20.16,20.26S17,23.49,14,33.63c-2,6.85-5.13,15.3-6.92,20.05a.62.62,0,0,0,1.07.6l7.24-9.07a1.1,1.1,0,0,1,1.76.06l8.36,12a.62.62,0,0,0,1.13-.39c-.41-6.84-1.29-27.39,2.68-31.53C34.12,20.33,27.22,12,20.16,20.26Z"/><path class="cls-45" d="M14,33.63c-2,6.85-5.13,15.3-6.92,20.05a.6.6,0,0,0,0,.49C7.7,53,12.06,44,13.56,43s3.86,2.63,3.86,2.64l8.11,11.61a.62.62,0,0,0,1.11-.2c-2-5.63-2.71-25.74-2-29.68s3.83-.75,3.83-.75l.94-4.85-1.72-1.53s-.55,1.87-1.22,1.59-2.66-2.66-4.77-1.57-1.55,0-1.55,0S17,23.49,14,33.63Z"/><path class="cls-40" d="M29.57,18.16s.91.38,2.31,4.5c3.28,9.64,8.9,9.82,9.48,10.74s-.13,1.5-2.22,1.18c-4.41-.68-10.5-5-11.42-9.75S28.7,16.92,29.57,18.16Z"/><path class="cls-46" d="M60,60.13h-.64a1.16,1.16,0,0,1-1.14-.93L55.23,44.41h5.12V59.73A.4.4,0,0,1,60,60.13Z"/></g></g></svg>