<svg id="Layer_1" data-name="Layer 1" xmlns="http://www.w3.org/2000/svg" xmlns:xlink="http://www.w3.org/1999/xlink" viewBox="0 0 64 64"><defs><style>.cls-1{fill:url(#linear-gradient);}.cls-2{fill:url(#linear-gradient-3);}.cls-3{fill:url(#linear-gradient-4);}.cls-4{fill:url(#linear-gradient-5);}.cls-5{fill:url(#linear-gradient-6);}.cls-6{fill:url(#linear-gradient-7);}.cls-7{fill:url(#linear-gradient-8);}.cls-8{fill:url(#linear-gradient-9);}.cls-9{fill:url(#linear-gradient-10);}.cls-10{fill:url(#linear-gradient-11);}.cls-11{fill:url(#linear-gradient-12);}.cls-12{fill:url(#linear-gradient-13);}.cls-13{fill:url(#linear-gradient-14);}.cls-14{fill:url(#linear-gradient-15);}.cls-15{fill:url(#linear-gradient-16);}.cls-16{fill:url(#linear-gradient-17);}.cls-17{fill:url(#linear-gradient-18);}.cls-18{fill:url(#linear-gradient-19);}.cls-19{fill:url(#linear-gradient-20);}.cls-20{fill:url(#linear-gradient-21);}.cls-21{fill:url(#linear-gradient-22);}.cls-22{fill:url(#linear-gradient-23);}.cls-23{fill:url(#linear-gradient-24);}.cls-24{fill:url(#linear-gradient-25);}.cls-25{fill:url(#linear-gradient-26);}.cls-26{fill:url(#linear-gradient-27);}.cls-27{fill:url(#linear-gradient-28);}</style><linearGradient id="linear-gradient" x1="32" y1="32.17" x2="32" y2="-14.85" gradientUnits="userSpaceOnUse"><stop offset="0.02" stop-color="#97efe7"/><stop offset="0.52" stop-color="#3db6d3"/><stop offset="1" stop-color="#3d6fd3"/></linearGradient><linearGradient id="linear-gradient-3" x1="181.44" y1="-220.25" x2="164.1" y2="-198.09" gradientTransform="matrix(0.91, -0.41, -0.41, -0.91, 62.54, 49.18)" gradientUnits="userSpaceOnUse"><stop offset="0" stop-color="#d1efe7"/><stop offset="0.53" stop-color="#97efe7"/><stop offset="1" stop-color="#3ccbe3"/></linearGradient><linearGradient id="linear-gradient-4" x1="351.5" y1="192.47" x2="334.17" y2="214.63" gradientTransform="matrix(-0.91, -0.41, -0.41, 0.91, 335.74, -429.76)" xlink:href="#linear-gradient-3"/><linearGradient id="linear-gradient-5" x1="31.18" y1="82.76" x2="34.11" y2="48.23" xlink:href="#linear-gradient"/><linearGradient id="linear-gradient-6" x1="62.42" y1="24.5" x2="18.59" y2="55.33" gradientUnits="userSpaceOnUse"><stop offset="0" stop-color="#ffeba7"/><stop offset="0.51" stop-color="#f6a000"/><stop offset="1" stop-color="#ff6d00"/></linearGradient><linearGradient id="linear-gradient-7" x1="16.84" y1="18.46" x2="16.84" y2="45.61" xlink:href="#linear-gradient"/><linearGradient id="linear-gradient-8" x1="16.62" y1="19.04" x2="16.62" y2="64.7" xlink:href="#linear-gradient"/><linearGradient id="linear-gradient-9" x1="15.8" y1="20.5" x2="15.8" y2="63.34" xlink:href="#linear-gradient"/><linearGradient id="linear-gradient-10" x1="11.95" y1="21.41" x2="11.95" y2="63.81" xlink:href="#linear-gradient"/><linearGradient id="linear-gradient-11" x1="11.74" y1="22.18" x2="11.74" y2="64.59" xlink:href="#linear-gradient"/><linearGradient id="linear-gradient-12" x1="11.37" y1="22.96" x2="11.37" y2="65.37" xlink:href="#linear-gradient"/><linearGradient id="linear-gradient-13" x1="1368.59" y1="15.64" x2="1368.59" y2="-5.55" gradientTransform="translate(-1337.82)" xlink:href="#linear-gradient-3"/><linearGradient id="linear-gradient-14" x1="1865.82" y1="24.91" x2="1865.82" y2="3.71" gradientTransform="matrix(-1, 0, 0, 1, 1875.82, 0)" xlink:href="#linear-gradient-3"/><linearGradient id="linear-gradient-15" x1="356.67" y1="-237.15" x2="378.84" y2="-197.07" gradientTransform="translate(-281.94 308.13) rotate(-10.63)" gradientUnits="userSpaceOnUse"><stop offset="0" stop-color="#fbc19e"/><stop offset="0.48" stop-color="#ffb699"/><stop offset="1" stop-color="#f47e6d"/></linearGradient><linearGradient id="linear-gradient-16" x1="-135.72" y1="3190.85" x2="-94.08" y2="3233.71" gradientTransform="translate(3263.11 206.26) rotate(91.21)" gradientUnits="userSpaceOnUse"><stop offset="0" stop-color="#fbc19e"/><stop offset="0.59" stop-color="#24665c"/><stop offset="1" stop-color="#24365c"/></linearGradient><linearGradient id="linear-gradient-17" x1="27.87" y1="27.49" x2="20.81" y2="46.31" gradientUnits="userSpaceOnUse"><stop offset="0.11" stop-color="#004b87"/><stop offset="0.9" stop-color="#00295d"/></linearGradient><linearGradient id="linear-gradient-18" x1="11.06" y1="50.12" x2="47.11" y2="50.12" xlink:href="#linear-gradient-17"/><linearGradient id="linear-gradient-19" x1="26.97" y1="13.41" x2="59.79" y2="60.62" gradientUnits="userSpaceOnUse"><stop offset="0" stop-color="#fbc19e"/><stop offset="0.48" stop-color="#24665c"/><stop offset="1" stop-color="#24365c"/></linearGradient><linearGradient id="linear-gradient-20" x1="27.47" y1="72.46" x2="46.49" y2="37.58" xlink:href="#linear-gradient-19"/><linearGradient id="linear-gradient-21" x1="41.24" y1="67.8" x2="53.93" y2="29.05" gradientTransform="matrix(1, 0, 0, 1, 0, 0)" xlink:href="#linear-gradient-15"/><linearGradient id="linear-gradient-22" x1="26.23" y1="5.97" x2="68.76" y2="49.75" gradientTransform="matrix(1, 0, 0, 1, 0, 0)" xlink:href="#linear-gradient-16"/><linearGradient id="linear-gradient-23" x1="65.38" y1="26.8" x2="25.7" y2="15.43" gradientTransform="matrix(1, 0, 0, 1, 0, 0)" xlink:href="#linear-gradient-15"/><linearGradient id="linear-gradient-24" x1="65.1" y1="35.3" x2="43.57" y2="14.28" gradientTransform="matrix(1, 0, 0, 1, 0, 0)" xlink:href="#linear-gradient-15"/><linearGradient id="linear-gradient-25" x1="49.57" y1="32.85" x2="43.71" y2="27.13" gradientTransform="matrix(1, 0, 0, 1, 0, 0)" xlink:href="#linear-gradient-15"/><linearGradient id="linear-gradient-26" x1="56.72" y1="28.35" x2="48.95" y2="12.37" gradientUnits="userSpaceOnUse"><stop offset="0.03" stop-color="#4a2c18"/><stop offset="1" stop-color="#2b1915"/></linearGradient><linearGradient id="linear-gradient-27" x1="387.04" y1="-256.64" x2="388.28" y2="-254.69" gradientTransform="translate(-315.88 297.96) rotate(-5.06)" xlink:href="#linear-gradient-17"/><linearGradient id="linear-gradient-28" x1="392.7" y1="-260.41" x2="388.14" y2="-247.19" gradientTransform="translate(-283.02 335.29) rotate(-11.2)" xlink:href="#linear-gradient-17"/></defs><title>posing</title><circle class="cls-1" cx="32" cy="32" r="28"/><circle class="cls-1" cx="32" cy="32" r="28"/><rect class="cls-2" x="38.86" y="22.5" width="0.38" height="11.94" transform="translate(63.18 70.34) rotate(-156.05)"/><path class="cls-3" d="M35.67,20.78c1.19-.57,3.44-.38,5.82.55a.43.43,0,0,0,.52-.18l.3-.51a.19.19,0,0,1,.2-.09.19.19,0,0,1,.14.24l-.17.58a.43.43,0,0,0,.22.5c2.3,1.14,3.95,2.68,4.33,4a.22.22,0,0,1-.27.27,2.35,2.35,0,0,0-.47-.09.65.65,0,0,1-.39-.17,2.92,2.92,0,0,0-1.58-.7.66.66,0,0,1-.39-.17,2.92,2.92,0,0,0-1.58-.7.66.66,0,0,1-.39-.17,2.92,2.92,0,0,0-1.58-.7.66.66,0,0,1-.39-.17,2.92,2.92,0,0,0-1.58-.7.66.66,0,0,1-.39-.17,2.92,2.92,0,0,0-1.58-.7.64.64,0,0,1-.39-.17,2.35,2.35,0,0,0-.38-.29A.22.22,0,0,1,35.67,20.78Z"/><path class="cls-4" d="M29.71,28.19a8.5,8.5,0,0,1-8.5,8.5h-.69A2.26,2.26,0,0,0,18.26,39v.5a5.9,5.9,0,0,1-5.9,5.9H12a2.52,2.52,0,0,0-2.52,2.52v.44c0,.12,0,.24,0,.36a28,28,0,0,0,50.15-21H30.27A.56.56,0,0,0,29.71,28.19Z"/><path class="cls-5" d="M44.16,27.91c1.66-.18,4.25,1,6.68,3.1a.54.54,0,0,0,.7,0l.56-.48a.24.24,0,0,1,.28,0,.24.24,0,0,1,.07.34l-.45.62a.54.54,0,0,0,.05.69c2.25,2.32,3.57,4.85,3.48,6.52a.28.28,0,0,1-.44.2,3,3,0,0,0-.52-.3.81.81,0,0,1-.39-.37,3.68,3.68,0,0,0-1.58-1.5.83.83,0,0,1-.39-.37,3.68,3.68,0,0,0-1.58-1.5.83.83,0,0,1-.39-.37,3.3,3.3,0,0,0-.52-.69L40,44.1l-.35-.33,9.77-10.33a3.31,3.31,0,0,0-.72-.48.83.83,0,0,1-.39-.37,3.68,3.68,0,0,0-1.58-1.5.83.83,0,0,1-.39-.37,3.68,3.68,0,0,0-1.58-1.5.81.81,0,0,1-.39-.36,3,3,0,0,0-.33-.5A.28.28,0,0,1,44.16,27.91Z"/><path class="cls-6" d="M26,28.4a8.63,8.63,0,0,1-5.41,0,1.66,1.66,0,0,0-1.08,0,8.63,8.63,0,0,1-5.41,0,1.66,1.66,0,0,0-1.08,0,8.63,8.63,0,0,1-5.41,0,1.66,1.66,0,0,0-1.08,0,8.21,8.21,0,0,1-2.18.42l-.14,0A28.26,28.26,0,0,0,4,32,27.87,27.87,0,0,0,9.51,48.68c0-.12,0-.24,0-.36v-.44A2.52,2.52,0,0,1,12,45.36h.31a5.9,5.9,0,0,0,5.9-5.9V39a2.26,2.26,0,0,1,2.26-2.26h.69a8.5,8.5,0,0,0,8.47-7.86A8.36,8.36,0,0,1,27,28.4,1.66,1.66,0,0,0,26,28.4Z"/><path class="cls-7" d="M26,30.52a8.63,8.63,0,0,1-5.41,0,1.66,1.66,0,0,0-1.08,0,8.63,8.63,0,0,1-5.41,0,1.66,1.66,0,0,0-1.08,0,8.63,8.63,0,0,1-5.41,0,1.66,1.66,0,0,0-1.08,0,8.21,8.21,0,0,1-2.18.42.52.52,0,0,0-.3.12c0,.31,0,.62,0,.94,0,.05,0,.1,0,.15A.52.52,0,0,1,4.32,32a8.21,8.21,0,0,0,2.18-.42,1.66,1.66,0,0,1,1.08,0,8.63,8.63,0,0,0,5.41,0,1.66,1.66,0,0,1,1.08,0,8.63,8.63,0,0,0,5.41,0,1.66,1.66,0,0,1,1.08,0,8.63,8.63,0,0,0,5.41,0,1.66,1.66,0,0,1,1.08,0,8.06,8.06,0,0,0,1.79.38,8.46,8.46,0,0,0,.43-1A8.23,8.23,0,0,1,27,30.52,1.66,1.66,0,0,0,26,30.52Z"/><path class="cls-8" d="M26,33.75a8.63,8.63,0,0,1-5.41,0,1.66,1.66,0,0,0-1.08,0,8.63,8.63,0,0,1-5.41,0,1.66,1.66,0,0,0-1.08,0,8.63,8.63,0,0,1-5.41,0,1.66,1.66,0,0,0-1.08,0,8.21,8.21,0,0,1-2.18.42.52.52,0,0,0-.23.07c0,.35.06.69.1,1l.13,0a8.21,8.21,0,0,0,2.18-.42,1.66,1.66,0,0,1,1.08,0,8.63,8.63,0,0,0,5.41,0,1.66,1.66,0,0,1,1.08,0,8.63,8.63,0,0,0,5.41,0,1.66,1.66,0,0,1,1.08,0,8.63,8.63,0,0,0,5.41,0,1.66,1.66,0,0,1,.67-.08,8.54,8.54,0,0,0,.88-.85L27,33.75A1.66,1.66,0,0,0,26,33.75Z"/><path class="cls-9" d="M14.06,37A1.66,1.66,0,0,0,13,37a8.63,8.63,0,0,1-5.41,0,1.66,1.66,0,0,0-1.08,0,8.19,8.19,0,0,1-2,.39c.07.35.15.7.23,1a8.15,8.15,0,0,0,1.76-.37,1.66,1.66,0,0,1,1.08,0,8.63,8.63,0,0,0,5.41,0,1.66,1.66,0,0,1,1.08,0,8.36,8.36,0,0,0,2.7.43,8.73,8.73,0,0,0,1.58-.14,2.26,2.26,0,0,1,1-1.34,8.62,8.62,0,0,1-5.32,0Z"/><path class="cls-10" d="M14.06,40.2a1.66,1.66,0,0,0-1.08,0,8.63,8.63,0,0,1-5.41,0,1.66,1.66,0,0,0-1.08,0,7.9,7.9,0,0,1-1.19.3q.16.51.34,1a7.82,7.82,0,0,0,.85-.23,1.66,1.66,0,0,1,1.08,0,8.63,8.63,0,0,0,5.41,0,1.66,1.66,0,0,1,1.08,0,8.36,8.36,0,0,0,2.7.43,8.86,8.86,0,0,0,1.07-.06,5.85,5.85,0,0,0,.32-1.12,8.79,8.79,0,0,1-1.4.11A8.36,8.36,0,0,1,14.06,40.2Z"/><path class="cls-11" d="M13,43.43a8.63,8.63,0,0,1-5.41,0,1.66,1.66,0,0,0-1.08,0l-.06,0c.15.33.3.67.47,1a1.64,1.64,0,0,1,.67.07,8.63,8.63,0,0,0,5.41,0,1.66,1.66,0,0,1,1.08,0,7.75,7.75,0,0,0,.9.25,5.91,5.91,0,0,0,1.34-.9,8.23,8.23,0,0,1-2.24-.42A1.66,1.66,0,0,0,13,43.43Z"/><path class="cls-12" d="M35.54,9c0-.25-.47-.48-1.23-.64a2.17,2.17,0,0,1-1.36-1,1.51,1.51,0,0,0-2.53,0l-.06.09a2.1,2.1,0,0,1-1.57.84c-1.61.11-2.78.44-2.78.84s.47.48,1.23.64a2.17,2.17,0,0,1,1.36,1,1.51,1.51,0,0,0,2.53,0h0a2.12,2.12,0,0,1,1.63-.92C34.37,9.76,35.54,9.42,35.54,9Z"/><path class="cls-13" d="M5.23,18.29c0-.25.47-.48,1.23-.64a2.17,2.17,0,0,0,1.36-1,1.51,1.51,0,0,1,2.53,0l.06.09a2.1,2.1,0,0,0,1.57.84c1.61.11,2.78.44,2.78.84s-.47.48-1.23.64a2.17,2.17,0,0,0-1.36,1,1.51,1.51,0,0,1-2.53,0h0A2.12,2.12,0,0,0,8,19.13C6.4,19,5.23,18.69,5.23,18.29Z"/><path class="cls-14" d="M49,28.23s-6.62.52-10.94.34c-3.41-.14,2.44-11.9,2.61-13.49s-1-6-2.45-6,.25,5.42-.15,6.6S27,29.32,31.93,34.64c6.59,7.11,12.6-.25,15.35-1s-5.74-1.4-5.74-1.4"/><path class="cls-15" d="M55,29.71s-1.23,3.58-11,5.8a1.84,1.84,0,0,1-1.16-.11,5.89,5.89,0,0,1-3.5-3.91,3.29,3.29,0,0,1,2.2-3.79C45.63,26.32,54.64,24,55,29.71Z"/><path class="cls-16" d="M32.85,47s-3.28-17.43-9.49-17.47c-2.46,0-5.9.81-12.87,11.76-1,1.64-2,3.07-3,4.3a28.06,28.06,0,0,0,3.42,4.84,52.65,52.65,0,0,0,5.32-5.94h0q.42-.55.83-1.12c3.4-4.12,4,6,4,6-2.8,1-5.78,1.87-8.66,2.6a28.1,28.1,0,0,0,5.45,4.16C26.41,56.29,34.28,54.46,32.85,47Z"/><path class="cls-17" d="M36.58,41.43s-8.67,6.81-25.53,9.14A28,28,0,0,0,23.89,58.8c9.44-.24,18.22-2,23.23-6.67Z"/><path class="cls-18" d="M56.49,29.72a4.82,4.82,0,0,0-2.58-3.16,8.38,8.38,0,0,0-11,3.56l-1.28,2.35a5.78,5.78,0,0,1-4.86,3c-2.87.1-6.67.81-6.73,3.87-.14,7.21,4.07,11.7,8.78,14.47,6,3.53,11.32-.81,14.9-6.88C56.08,43,57.61,34.32,56.49,29.72Z"/><path class="cls-19" d="M51.27,33.34c.14,2.85-.79,9.74-4.16,8.95s-.21,8.22-8,7.84c-5.84-.29-7.81-4.19-8.44-6.16,1.29,4.59,4.6,7.73,8.21,9.85,6,3.53,11.32-.81,14.9-6.88a27.38,27.38,0,0,0,2.82-9.38C55.29,36.22,51.15,30.87,51.27,33.34Z"/><path class="cls-20" d="M53.07,40.41s0,12.54-8.78,16.32c-5.79,2.49-6.27-.87-9,.1s-1.9,1.64-1.64,2,12.48,3.74,20.11-3c6.48-5.72,7.4-16.46,4.72-20.52"/><path class="cls-21" d="M53.91,26.55s3.6,1.16,6,10.91a1.84,1.84,0,0,1-.08,1.16c-.43,1-1.38,3.68-3.67,4.24-1.62.39-4.21-1.12-4-2.78C52.68,36.22,48.17,27,53.91,26.55Z"/><path class="cls-22" d="M55.93,18.09l-.81-4.33,0,.1c-1.29-4.39-8-5-8.25.93-.06,1.37-.89,2.65-.58,3.69h0s2,6.31-.41,8.53-3.59,6.1-1.65,6c1.75-.14,3.25-7.59,8.64-6.84,0,0-1.54-2.31,0-2.88h0l.41-.13c1.23-.48,1.8-1.8,2-3.21a2,2,0,0,1,.45-1A.93.93,0,0,0,55.93,18.09Z"/><path class="cls-23" d="M54.69,14.75a2.45,2.45,0,0,0,.59-.13l-.16-.86,0,.1a4.79,4.79,0,0,0-.8-1.57c-1.35.11-3.38.31-3.38.31l-3.87,4.93L46.83,21s.8,2.8,1.19,4.59c.33,1.53-.91,3.65-1.28,4.23,1.3-2,3.1-4.13,6.11-3.71,0,0-1.54-2.31,0-2.88h0l.41-.13.05,0v-.32s.74-3,.49-3-1.17,1.08-1.87-.49a2,2,0,0,1,1.86-2.92c1.33.06.76,3,.76,3V20l.79-.28a2,2,0,0,1,.34-.71l0,0c-.14.19-.59.1-.38-.27S54.52,14.73,54.69,14.75Z"/><polygon class="cls-24" points="46.64 29.99 46.64 29.99 46.64 29.98 46.64 29.99"/><path class="cls-25" d="M55,12.36s1.77,1.37-.28,1.77-4.38.56-4.1,3.93,2.28,3,2.66,2.23,2.12-.85,2.47-1.35c0,0-.32,2.17.82,3.25,1.65,1.55,1.21,5.52-2.36,4.51s-4.38-2.56-4.73-5.29-.66-3.47-1.44-3.55-1.14,1.85-.56,2.91l-.64.25s-2.17-4.25-.09-6.41,6.08-2.39,6.08-2.39"/><circle id="_Path_" data-name="&lt;Path&gt;" class="cls-26" cx="48.64" cy="10.3" r="0.61" transform="translate(-0.82 5.26) rotate(-6.14)"/><path id="_Path_2" data-name="&lt;Path&gt;" class="cls-27" d="M45,14.62A1.45,1.45,0,0,0,47.43,16c1.7-1.61,2.28-2.28,5.94-3.11,6.12-1.39-1.65-4-4.59-2.5A7.15,7.15,0,0,0,45,14.62Z"/></svg>