<svg xmlns="http://www.w3.org/2000/svg" xmlns:xlink="http://www.w3.org/1999/xlink" viewBox="0 0 64 64"><defs><style>.cls-1{isolation:isolate;}.cls-2{fill:url(#linear-gradient);}.cls-3{fill:url(#linear-gradient-2);}.cls-4{fill:url(#linear-gradient-3);}.cls-5{fill:url(#linear-gradient-4);}.cls-6{fill:url(#linear-gradient-5);}.cls-7{fill:url(#linear-gradient-6);}.cls-8{fill:url(#linear-gradient-7);}.cls-9{fill:#fff;}.cls-10{fill:url(#linear-gradient-8);}.cls-11{fill:url(#linear-gradient-9);}.cls-12{fill:url(#linear-gradient-10);}.cls-13{fill:url(#linear-gradient-11);}.cls-14{fill:url(#linear-gradient-12);}.cls-15{fill:url(#linear-gradient-13);}.cls-16{fill:url(#linear-gradient-14);}.cls-17{fill:url(#linear-gradient-15);}.cls-18{fill:url(#linear-gradient-16);}.cls-19{fill:url(#linear-gradient-17);}.cls-20{fill:url(#linear-gradient-18);}.cls-21{fill:url(#linear-gradient-19);}.cls-22{fill:url(#linear-gradient-20);}.cls-23{fill:url(#linear-gradient-21);}.cls-24{fill:url(#linear-gradient-22);}.cls-25{fill:url(#linear-gradient-23);}.cls-26{fill:url(#linear-gradient-24);}.cls-27{fill:url(#linear-gradient-25);}.cls-28{fill:url(#linear-gradient-26);}.cls-29{fill:url(#linear-gradient-27);}.cls-30{fill:url(#linear-gradient-28);}.cls-31{fill:url(#linear-gradient-29);}.cls-32{fill:url(#linear-gradient-30);}.cls-33{fill:url(#linear-gradient-31);}.cls-34{fill:url(#linear-gradient-32);}.cls-35{fill:url(#linear-gradient-33);}.cls-36{fill:url(#linear-gradient-34);}.cls-37{fill:url(#linear-gradient-35);}.cls-38{fill:url(#linear-gradient-36);}.cls-39{fill:url(#linear-gradient-37);}.cls-40{fill:url(#linear-gradient-38);}.cls-41{fill:url(#linear-gradient-39);}.cls-42{fill:url(#linear-gradient-40);}.cls-43{fill:url(#linear-gradient-41);}.cls-44{opacity:0.49;mix-blend-mode:multiply;}.cls-45{fill:url(#linear-gradient-42);}.cls-46{fill:url(#linear-gradient-43);}.cls-47{fill:url(#linear-gradient-44);}</style><linearGradient id="linear-gradient" x1="32.67" y1="97.91" x2="32.67" y2="9.8" gradientUnits="userSpaceOnUse"><stop offset="0" stop-color="#d1efe7"/><stop offset="0.53" stop-color="#97efe7"/><stop offset="1" stop-color="#3ccbe3"/></linearGradient><linearGradient id="linear-gradient-2" x1="30.37" y1="27.61" x2="44.12" y2="-0.97" xlink:href="#linear-gradient"/><linearGradient id="linear-gradient-3" x1="31.76" y1="42.04" x2="31.76" y2="8.7" xlink:href="#linear-gradient"/><linearGradient id="linear-gradient-4" x1="43.55" y1="52.5" x2="43.55" y2="16.62" xlink:href="#linear-gradient"/><linearGradient id="linear-gradient-5" x1="32.02" y1="64.84" x2="32.02" y2="24" gradientUnits="userSpaceOnUse"><stop offset="0" stop-color="#3db6d3"/><stop offset="0.5" stop-color="#3d6fd3"/><stop offset="1" stop-color="#252784"/></linearGradient><linearGradient id="linear-gradient-6" x1="15.74" y1="57.93" x2="16.68" y2="36.59" xlink:href="#linear-gradient-5"/><linearGradient id="linear-gradient-7" x1="4.9" y1="24.38" x2="12.14" y2="18.77" gradientUnits="userSpaceOnUse"><stop offset="0" stop-color="#ffd600"/><stop offset="0.27" stop-color="#ff9c38"/><stop offset="1" stop-color="#ff5147"/></linearGradient><linearGradient id="linear-gradient-8" x1="48.1" y1="34.01" x2="48.53" y2="46.19" gradientUnits="userSpaceOnUse"><stop offset="0" stop-color="#182ebd"/><stop offset="0.58" stop-color="#0d1226"/></linearGradient><linearGradient id="linear-gradient-9" x1="54.22" y1="42.13" x2="45.97" y2="44.73" gradientTransform="translate(7.99 -7.33) rotate(9.56)" gradientUnits="userSpaceOnUse"><stop offset="0" stop-color="#fba680"/><stop offset="0.52" stop-color="#ef5048"/><stop offset="1" stop-color="#971434"/></linearGradient><linearGradient id="linear-gradient-10" x1="46.99" y1="40.74" x2="46.79" y2="47.53" xlink:href="#linear-gradient-8"/><linearGradient id="linear-gradient-11" x1="42.77" y1="43.4" x2="44.62" y2="51.25" xlink:href="#linear-gradient-8"/><linearGradient id="linear-gradient-12" x1="45.01" y1="66.56" x2="45.01" y2="39.05" xlink:href="#linear-gradient-5"/><linearGradient id="linear-gradient-13" x1="30.61" y1="63.25" x2="31.94" y2="45.45" xlink:href="#linear-gradient-5"/><linearGradient id="linear-gradient-14" x1="23.2" y1="33.83" x2="23.2" y2="5.67" xlink:href="#linear-gradient-8"/><linearGradient id="linear-gradient-15" x1="25.59" y1="10.64" x2="21.13" y2="18.89" gradientUnits="userSpaceOnUse"><stop offset="0" stop-color="#f9d5c5"/><stop offset="1" stop-color="#f78e6b"/></linearGradient><linearGradient id="linear-gradient-16" x1="13.82" y1="34.79" x2="13.82" y2="8.53" xlink:href="#linear-gradient-5"/><linearGradient id="linear-gradient-17" x1="8.59" y1="51.16" x2="8.59" y2="9.77" xlink:href="#linear-gradient-5"/><linearGradient id="linear-gradient-18" x1="51.56" y1="17.67" x2="51.56" y2="8.43" gradientUnits="userSpaceOnUse"><stop offset="0" stop-color="#fff"/><stop offset="0.84" stop-color="#cddfec"/></linearGradient><linearGradient id="linear-gradient-19" x1="53.88" y1="20.41" x2="53.88" y2="3.75" xlink:href="#linear-gradient-5"/><linearGradient id="linear-gradient-20" x1="64.84" y1="20.96" x2="46.41" y2="10.52" xlink:href="#linear-gradient-5"/><linearGradient id="linear-gradient-21" x1="42.24" y1="14.01" x2="23.68" y2="24.79" gradientUnits="userSpaceOnUse"><stop offset="0" stop-color="#e8bd00"/><stop offset="0.51" stop-color="#e88300"/><stop offset="1" stop-color="#d0471e"/></linearGradient><linearGradient id="linear-gradient-22" x1="26.59" y1="33.47" x2="30.89" y2="16.97" xlink:href="#linear-gradient-21"/><linearGradient id="linear-gradient-23" x1="35.32" y1="16.55" x2="40.78" y2="16.55" xlink:href="#linear-gradient-15"/><linearGradient id="linear-gradient-24" x1="45.38" y1="19.63" x2="39.38" y2="18" xlink:href="#linear-gradient-15"/><linearGradient id="linear-gradient-25" x1="21.06" y1="38.71" x2="38.56" y2="33.08" xlink:href="#linear-gradient-21"/><linearGradient id="linear-gradient-26" x1="33.05" y1="46.19" x2="29.29" y2="36.8" xlink:href="#linear-gradient-21"/><linearGradient id="linear-gradient-27" x1="9" y1="71.12" x2="26.8" y2="52.08" gradientTransform="matrix(1, 0, 0, 1, 0, 0)" xlink:href="#linear-gradient-9"/><linearGradient id="linear-gradient-28" x1="31.68" y1="60.77" x2="40.68" y2="50.52" xlink:href="#linear-gradient-15"/><linearGradient id="linear-gradient-29" x1="31.63" y1="66.06" x2="34.63" y2="38.68" gradientTransform="matrix(1, 0, 0, 1, 0, 0)" xlink:href="#linear-gradient-9"/><linearGradient id="linear-gradient-30" x1="45.62" y1="19.4" x2="22.7" y2="48.73" xlink:href="#linear-gradient-21"/><linearGradient id="linear-gradient-31" x1="45.18" y1="19.06" x2="22.27" y2="48.4" xlink:href="#linear-gradient-21"/><linearGradient id="linear-gradient-32" x1="52.11" y1="25.31" x2="16.74" y2="28.56" xlink:href="#linear-gradient-21"/><linearGradient id="linear-gradient-33" x1="38.37" y1="17.86" x2="38.1" y2="16.82" gradientUnits="userSpaceOnUse"><stop offset="0" stop-color="#8e241c"/><stop offset="1" stop-color="#721a14"/></linearGradient><linearGradient id="linear-gradient-34" x1="42.56" y1="17.33" x2="37" y2="14.43" gradientTransform="matrix(1, 0, 0, 1, 0, 0)" xlink:href="#linear-gradient-9"/><linearGradient id="linear-gradient-35" x1="44.74" y1="20.58" x2="37.87" y2="14.99" gradientTransform="matrix(1, 0, 0, 1, 0, 0)" xlink:href="#linear-gradient-9"/><linearGradient id="linear-gradient-36" x1="53.45" y1="15.19" x2="50.4" y2="21.27" xlink:href="#linear-gradient-15"/><linearGradient id="linear-gradient-37" x1="52.71" y1="14.82" x2="49.67" y2="20.91" xlink:href="#linear-gradient-15"/><linearGradient id="linear-gradient-38" x1="27.77" y1="57.33" x2="36.77" y2="47.08" xlink:href="#linear-gradient-15"/><linearGradient id="linear-gradient-39" x1="32.4" y1="62.28" x2="42.09" y2="51.84" xlink:href="#linear-gradient-18"/><linearGradient id="linear-gradient-40" x1="27.89" y1="58.1" x2="37.58" y2="47.66" xlink:href="#linear-gradient-18"/><linearGradient id="linear-gradient-41" x1="37.32" y1="16.1" x2="33.19" y2="24.76" xlink:href="#linear-gradient-33"/><linearGradient id="linear-gradient-42" x1="37.94" y1="16.69" x2="37.72" y2="18.91" xlink:href="#linear-gradient-33"/><linearGradient id="linear-gradient-43" x1="34.41" y1="25.49" x2="35.57" y2="20.08" xlink:href="#linear-gradient-33"/><linearGradient id="linear-gradient-44" x1="34.16" y1="32.75" x2="47.48" y2="27.62" xlink:href="#linear-gradient-21"/></defs><title>reaching target</title><g class="cls-1"><g id="Layer_1" data-name="Layer 1"><circle class="cls-2" cx="32.67" cy="32.66" r="28"/><path class="cls-3" d="M56.84,18.53c-6-1.71-10.77-4-12.81-6C40.91,9.49,32.66,10,31.87,7.77c-.65-1.85-1.24-.95-3.69-2.74a27.86,27.86,0,0,0-12.82,5.64l.48.15a267.78,267.78,0,0,0,41.57,8.74C57.23,19.21,57,18.86,56.84,18.53Z"/><path class="cls-4" d="M22.31,23.22s3.69-1.93,6.46-.09c2.43,1.62,2.62.62,3.23,1.68s4.71,0,6.56,1.27S45.5,28.29,51,28a139.84,139.84,0,0,1-26.75-.13,67.59,67.59,0,0,1-10.82-2,1.17,1.17,0,0,1,.16-2.29A7,7,0,0,0,15.7,23C18.3,21.67,22.31,23.22,22.31,23.22Z"/><path class="cls-5" d="M59,42.33l-9.21-6.25a1.83,1.83,0,0,0-2.18.09l-8.92,7.24a1.37,1.37,0,0,1-1.83-.09l-1.54-1.54a1.47,1.47,0,0,0-2.08,0l-1.91,1.91-3.13-3.13,6.47,18.87h6.27A28.07,28.07,0,0,0,59,42.33Z"/><path class="cls-6" d="M54.8,49.8a17.35,17.35,0,0,0-2.32-.17H44.86A14.56,14.56,0,0,1,34.8,45.58l-9.48-9.06a2.94,2.94,0,0,0-4.08,0L9.24,48A28,28,0,0,0,54.8,49.8Z"/><path class="cls-7" d="M21.24,36.52h0L9.24,48a28.12,28.12,0,0,0,10.41,9.46,1.76,1.76,0,0,0-.44-.79l-2-2a4.54,4.54,0,0,1,0-6.35l4.51-4.57a6.21,6.21,0,0,0,1.78-4.36V38.12A1.68,1.68,0,0,0,21.24,36.52Z"/><path class="cls-8" d="M14.12,17.28l-.05,0Z"/><path class="cls-9" d="M50.81,6.44s-4.18-1.54-5.53-3.1a6.39,6.39,0,0,0,1.83.41,2.16,2.16,0,0,1,1.83.93c.18.51.75.08,1,.6A5.13,5.13,0,0,0,50.81,6.44Z"/><path class="cls-10" d="M47.07,43.53a2.58,2.58,0,0,1,.54-2.61.14.14,0,0,1,.21,0,.57.57,0,0,1,.15.46.8.8,0,0,1,1,0,2.38,2.38,0,0,1,.35-.43.12.12,0,0,1,.19.07,10.23,10.23,0,0,1,.33,2c-.09.26-.28.78-1.34,1.52"/><ellipse class="cls-11" cx="47.84" cy="44.14" rx="1.1" ry="0.96" transform="translate(-6.66 8.56) rotate(-9.56)"/><path class="cls-12" d="M45.36,49.63s-1.5.14-1.27-1.7c.28-2.19,1.94-4.53,3.6-4.4,1.89.15,1.23,5.73,1.23,5.73s.6-.1.49.37Z"/><path class="cls-13" d="M45.74,49.63s-3.3.32-3.56-2.46,2.62-1.9,2.38.24,1.06,1.86,1.06,1.86"/><path class="cls-14" d="M43.75,58.38q1.1-.47,2.14-1c1.62-2.22,3.52-7.71,3.52-7.71H43.69C38.15,55.56,41.28,58.28,43.75,58.38Z"/><path class="cls-15" d="M30.64,59c-2.12-.87,2-4.42,2-4.42l-.46-1.29-.82-.58-7.5,6.48a28,28,0,0,0,8.85,1.44,28.27,28.27,0,0,0,3.21-.19,30.7,30.7,0,0,0,2.23-2.73l-2-.07S32.76,59.91,30.64,59Z"/><path class="cls-16" d="M23.57,35.72V11.18h-.76V35.74A2.93,2.93,0,0,1,23.57,35.72Z"/><path class="cls-17" d="M23.83,13.62c-.1-.12-.24-.05-.24.25a.15.15,0,0,1-.26.11c-.52-.52-1.15-1.18-.92-.19.31,1.35.63,1.34,1.43,2h.77A5.72,5.72,0,0,0,23.83,13.62Z"/><path class="cls-18" d="M23.31,11.65a.92.92,0,0,0,.26-.65V5.88s-.05-1.93-2.17,0-5.28,7-7.93,4.15-8.34,8.18-9.39,6.1c0,0-.45,3.68,2.54,2.47,0,0-1.32.59-.73,2.46a3.21,3.21,0,0,0,.65,1.21,1,1,0,0,0,1.55-.17c1.19-2,4.53-7.1,5.7-5.2C15.39,19.52,21.92,13.07,23.31,11.65Z"/><path class="cls-19" d="M13.47,10c-2.27-2.49-7.62,5.42-9.73,6.33a.75.75,0,0,0-.32,1A2.27,2.27,0,0,0,6,18.79a.12.12,0,0,1,.13.19,2.07,2.07,0,0,0-.25,2.08,2.91,2.91,0,0,0,.85,1.4A.85.85,0,0,0,8,22.25C9.12,20.41,12.6,15,13.8,16.91l.05.08c-.61-1.09,0-4.92,0-6a1.51,1.51,0,0,0-.22-.85Z"/><path class="cls-20" d="M52.13,12.22a.56.56,0,1,0-.93.42.48.48,0,0,1,.16.36v5.55h.4V13a.49.49,0,0,1,.17-.37A.56.56,0,0,0,52.13,12.22Z"/><path class="cls-21" d="M54.53,13.23c-1-1.35-2.76-.41-2.76-.41v2.55a2.58,2.58,0,0,1,2.6-.47,1.56,1.56,0,0,0,1.4-.12.46.46,0,0,0-.17-.85A1.71,1.71,0,0,1,54.53,13.23Z"/><path class="cls-22" d="M54.47,14.94h0l.07,0h.8l.06,0h0l.08,0h0l.07,0h0l.05,0,0,0,0,0a.43.43,0,0,0,.22-.41c-.21.1-.4.11-.44-.11a1.14,1.14,0,0,0-.19-.4h-.05l-.09,0h0l-.11-.06,0,0L55,13.66l0,0-.1-.09,0,0-.07-.07,0,0h0a1.15,1.15,0,0,1,.09.69c-.13.48-.22,0-.22,0-.21-.54-1.11,0-1.27-.86s-1.47-.37-1.47-.37v2.55a2.69,2.69,0,0,1,1-.55l.1,0a2.42,2.42,0,0,1,1.47.11Z"/><path class="cls-23" d="M35.13,20.19C29,21.84,24.6,15.75,24.6,15.75h-.86c5.21,11,10.92,9.36,10.92,9.36l1.16,1.63Z"/><path class="cls-24" d="M35.44,23.12l-2.12-2.66h0s-2,2.86-5.23.51a8.6,8.6,0,0,1-3.5-5.22h-.85c5.21,11,10.92,9.36,10.92,9.36l1.16,1.63Z"/><path class="cls-25" d="M40.76,16.64c-1.11-1.33.6-2.82-2.86-3.81,0,0-4.59,1-1.53,6.07h.76L37,20.26h1.78a.87.87,0,0,1-.28-.74.79.79,0,0,1,.6-.66c.85-.23,1.05-1.3,1.1-1.82a.31.31,0,0,1,.29-.28C40.67,16.75,40.83,16.72,40.76,16.64Z"/><path class="cls-26" d="M40.51,16.76c.13,0,.27,0,.26-.08a1.17,1.17,0,0,1-.42-.13,5.26,5.26,0,0,1-.25-1.25l-2.06-.21L37,18.9h.11L37,20.26H38.2a3.61,3.61,0,0,1-.18-.73c0-.39,1-.62,1-.62h0l.14-.05a1.13,1.13,0,0,0,.47-.26c-.3.16-.5,0-.69-1s.82-1.4,1-1.52.35.86.35.86h0A.31.31,0,0,1,40.51,16.76Z"/><path class="cls-27" d="M31.35,40.05s-1.27,2.64-3.19,2.64S31.69,35,32.61,28.63Z"/><path class="cls-28" d="M31.76,33.75a13.3,13.3,0,0,0-1.59,4.31c-.73,3.12-2.31,5.1-2.41,4h0c-.05.42.06.66.39.66,1.92,0,3.19-2.64,3.19-2.64l.65-5.9Z"/><path class="cls-29" d="M41.52,33.58h0c-2.84.14-1.55-.91-1.55-.91l-3.56,1.09,0,4.62.06.53v0l-.25,2.42.4,4.11L34.2,49.17l-.89,1.35V52a11.05,11.05,0,0,0,1.46-.79h0a5,5,0,0,0,1.08-.85,16.13,16.13,0,0,0,5.29-9.92A27.86,27.86,0,0,0,41.52,33.58Z"/><polygon class="cls-30" points="35.61 54.9 36.03 56.76 36.43 56.76 36.47 54.9 35.61 54.9"/><path class="cls-31" d="M36.73,49.65c0,2.31.08,4.33.08,5.26H35.62s-.26-1.49-.85-3.72h0c-.16-.62-.36-1.29-.57-2-.39-1.29-.87-2.71-1.45-4.18-1.88-4.76-2.57-8.84-1-11.24H38.2l-1,5.23s-.7-.08-.7-.06,0,1,.06,2.26.06,2.68.1,4.27C36.68,46.84,36.7,48.3,36.73,49.65Z"/><path class="cls-32" d="M41.57,33.75C41,21.33,40.59,20,37,20c-3,0-2.87-.51-5.2,13.74-.33,2,3.39,6.35,6.43,6.35S41.67,35.82,41.57,33.75Z"/><path class="cls-33" d="M41.15,26.79s5,1.46,10.34-7.15h-1s-5.28,6-11.19.88l-4,2.33Z"/><path class="cls-34" d="M38.06,20.08l-.25,0-3.15.48c-.94,1-1.41,4.1-2.9,13.22,2.7-4.87,5.14-4.61,6-7.44A14.73,14.73,0,0,0,38.06,20.08Z"/><path class="cls-35" d="M39.5,16a3.24,3.24,0,0,0-2,3.16c.14,2.33-1.25-3-1.25-3l2.5-.57"/><path class="cls-36" d="M37.91,12.83s-2.51.53-2.58,2.88a3.5,3.5,0,0,0,2.25.77,3.26,3.26,0,0,0,2.71-1.27C40.22,14.32,40.15,13.47,37.91,12.83Z"/><path class="cls-37" d="M38,15.36a3.15,3.15,0,0,0,2.21-.91c-.18-.6-.68-1.16-2.27-1.62a4,4,0,0,0-1.62.84,5.63,5.63,0,0,0-.6.72,2.77,2.77,0,0,0-.36,1.32,3.5,3.5,0,0,0,2.25.77h.28c0-.36-.09-.64-.12-.83A.25.25,0,0,1,38,15.36Z"/><path class="cls-38" d="M50.48,19.63s.45-1.8,1.74-2a.2.2,0,0,1,.23.25,1.66,1.66,0,0,1-.1.27.76.76,0,0,0-.07.46c.06.39.05,1.07-.8,1.07Z"/><path class="cls-39" d="M50.48,19.63a5.6,5.6,0,0,1,.44-1.81,3.68,3.68,0,0,0,.26-.29.19.19,0,0,1,.34.1.42.42,0,0,1,0,.19,1.28,1.28,0,0,0-.1.25Z"/><polygon class="cls-40" points="33.31 50.51 32.38 51.7 32.41 52.35 33.31 51.51 33.31 50.51"/><polygon class="cls-41" points="36.03 56.76 36.16 57.68 38.11 57.75 36.43 56.76 36.03 56.76"/><polygon class="cls-42" points="32.4 51.68 31.32 52.75 32.59 54.69 32.46 52.25 32.4 51.68"/><path class="cls-43" d="M39.72,14.2a3,3,0,0,1-2.34,1.07.25.25,0,0,0-.23.28,36.15,36.15,0,0,1,.46,6.19c-.06,2.64-4.29,3.58-4.29-1.27s3.15-10.15,6.37-6.8A.4.4,0,0,1,39.72,14.2Z"/><g class="cls-44"><path class="cls-45" d="M37.38,15.27a3.44,3.44,0,0,0,1.77-.54c-.43.2-.83-1-1.52-.67s-.47,1.49-.47,1.49A.25.25,0,0,1,37.38,15.27Z"/></g><path class="cls-46" d="M37.6,21.85c-.6,2.47-1.28-.59-1.78-2.39s-1.35,1.24-2,0,.33-3.34.55-3.82a12.09,12.09,0,0,0-1,4.82C33.31,25.25,37.42,24.4,37.6,21.85Z"/><path class="cls-47" d="M38.9,27.55c0,1.74,2.1,1.18,2.63,6,0,.16,0,.31.06.45,0-.09,0-.19,0-.27-.13-2.86-.25-5.12-.4-6.92l0,0S38.85,25.81,38.9,27.55Z"/></g></g></svg>