<svg id="Layer_1" data-name="Layer 1" xmlns="http://www.w3.org/2000/svg" xmlns:xlink="http://www.w3.org/1999/xlink" viewBox="0 0 64 64"><defs><style>.cls-1{fill:url(#linear-gradient);}.cls-2{fill:url(#linear-gradient-2);}.cls-3{fill:url(#linear-gradient-3);}.cls-4{fill:url(#linear-gradient-4);}.cls-5{fill:url(#linear-gradient-5);}.cls-6{fill:url(#linear-gradient-6);}.cls-7{fill:url(#linear-gradient-7);}.cls-8{fill:url(#linear-gradient-8);}.cls-9{fill:url(#linear-gradient-9);}.cls-10{fill:url(#linear-gradient-10);}.cls-11{fill:url(#linear-gradient-11);}.cls-12{fill:url(#linear-gradient-12);}.cls-13{fill:url(#linear-gradient-13);}.cls-14{fill:url(#linear-gradient-14);}.cls-15{fill:url(#linear-gradient-15);}.cls-16{fill:url(#linear-gradient-16);}.cls-17{fill:#a76254;}.cls-18{fill:#ef5048;}.cls-19{fill:url(#linear-gradient-17);}.cls-20{fill:url(#linear-gradient-18);}.cls-21{fill:#f9aa8f;}.cls-22{fill:url(#linear-gradient-19);}.cls-23{fill:url(#linear-gradient-20);}.cls-24{fill:url(#linear-gradient-21);}.cls-25{fill:#025a66;}.cls-26{fill:url(#linear-gradient-22);}.cls-27{fill:#b3b2b3;}.cls-28{fill:#ebeaea;}.cls-29{fill:#dfdedd;}.cls-30{fill:#f46562;}.cls-31{fill:#db7d37;}.cls-32{fill:url(#linear-gradient-23);}.cls-33{fill:url(#linear-gradient-24);}.cls-34{fill:url(#linear-gradient-25);}.cls-35{fill:url(#linear-gradient-26);}.cls-36{fill:url(#linear-gradient-27);}</style><linearGradient id="linear-gradient" x1="32" y1="97.25" x2="32" y2="9.14" gradientUnits="userSpaceOnUse"><stop offset="0" stop-color="#025a66"/><stop offset="0.57" stop-color="#01444d"/><stop offset="1" stop-color="#003840"/></linearGradient><linearGradient id="linear-gradient-2" x1="32" y1="36.67" x2="32" y2="65.17" xlink:href="#linear-gradient"/><linearGradient id="linear-gradient-3" x1="13" y1="34.17" x2="13" y2="-11.93" gradientUnits="userSpaceOnUse"><stop offset="0.02" stop-color="#edd7ad"/><stop offset="0.52" stop-color="#ff9661"/><stop offset="1" stop-color="#e74a69"/></linearGradient><linearGradient id="linear-gradient-4" x1="30.03" y1="27.14" x2="30.03" y2="6.06" xlink:href="#linear-gradient-3"/><linearGradient id="linear-gradient-5" x1="29.45" y1="33.71" x2="29.45" y2="13.19" xlink:href="#linear-gradient-3"/><linearGradient id="linear-gradient-6" x1="36.76" y1="29.8" x2="31.86" y2="20.58" xlink:href="#linear-gradient-3"/><linearGradient id="linear-gradient-7" x1="32.82" y1="29.21" x2="31.12" y2="20.42" xlink:href="#linear-gradient-3"/><linearGradient id="linear-gradient-8" x1="32.25" y1="38.47" x2="32.25" y2="17.1" xlink:href="#linear-gradient-3"/><linearGradient id="linear-gradient-9" x1="30.03" y1="35.85" x2="30.03" y2="-24.33" xlink:href="#linear-gradient-3"/><linearGradient id="linear-gradient-10" x1="255.96" y1="27.14" x2="255.96" y2="6.06" gradientTransform="matrix(1, 0, 0, -1, -215.22, 44.51)" xlink:href="#linear-gradient-3"/><linearGradient id="linear-gradient-11" x1="255.37" y1="33.71" x2="255.37" y2="13.19" gradientTransform="matrix(-1, 0, 0, 1, 296.69, 0)" xlink:href="#linear-gradient-3"/><linearGradient id="linear-gradient-12" x1="262.68" y1="29.8" x2="257.78" y2="20.58" gradientTransform="matrix(-1, 0, 0, 1, 296.69, 0)" xlink:href="#linear-gradient-3"/><linearGradient id="linear-gradient-13" x1="258.74" y1="29.21" x2="257.04" y2="20.42" gradientTransform="matrix(-1, 0, 0, 1, 296.69, 0)" xlink:href="#linear-gradient-3"/><linearGradient id="linear-gradient-14" x1="258.17" y1="38.47" x2="258.17" y2="17.1" gradientTransform="matrix(-1, 0, 0, 1, 296.69, 0)" xlink:href="#linear-gradient-3"/><linearGradient id="linear-gradient-15" x1="40.74" y1="35.85" x2="40.74" y2="-24.33" gradientTransform="translate(81.47 44.51) rotate(180)" xlink:href="#linear-gradient-3"/><linearGradient id="linear-gradient-16" x1="51.4" y1="60.51" x2="51.4" y2="53.31" gradientUnits="userSpaceOnUse"><stop offset="0" stop-color="#fff"/><stop offset="0.84" stop-color="#cddfec"/></linearGradient><linearGradient id="linear-gradient-17" x1="35.21" y1="36.59" x2="36.7" y2="23.59" gradientUnits="userSpaceOnUse"><stop offset="0" stop-color="#ef5048"/><stop offset="1" stop-color="#ec332d"/></linearGradient><linearGradient id="linear-gradient-18" x1="38.14" y1="45.18" x2="63.96" y2="12.94" xlink:href="#linear-gradient-17"/><linearGradient id="linear-gradient-19" x1="36.48" y1="22.12" x2="58.99" y2="3.43" gradientUnits="userSpaceOnUse"><stop offset="0" stop-color="#f9aa8f"/><stop offset="1" stop-color="#f78e6b"/></linearGradient><linearGradient id="linear-gradient-20" x1="38.8" y1="54.15" x2="43.75" y2="47.01" xlink:href="#linear-gradient"/><linearGradient id="linear-gradient-21" x1="51.62" y1="54.23" x2="48.89" y2="46.63" xlink:href="#linear-gradient-17"/><linearGradient id="linear-gradient-22" x1="50.46" y1="43.74" x2="16.03" y2="30.38" xlink:href="#linear-gradient"/><linearGradient id="linear-gradient-23" x1="48.84" y1="11.23" x2="48.55" y2="2.48" gradientUnits="userSpaceOnUse"><stop offset="0.12" stop-color="#db7d37"/><stop offset="1" stop-color="#db5e00"/></linearGradient><linearGradient id="linear-gradient-24" x1="43.5" y1="11.86" x2="43.5" y2="11.79" gradientUnits="userSpaceOnUse"><stop offset="0" stop-color="#fff" stop-opacity="0"/><stop offset="1"/></linearGradient><linearGradient id="linear-gradient-25" x1="44.11" y1="17.86" x2="45.6" y2="9.36" xlink:href="#linear-gradient-23"/><linearGradient id="linear-gradient-26" x1="57.11" y1="34.89" x2="41.26" y2="28.66" xlink:href="#linear-gradient-17"/><linearGradient id="linear-gradient-27" x1="17.02" y1="37.98" x2="17.02" y2="26.76" xlink:href="#linear-gradient-3"/></defs><title>reading</title><circle class="cls-1" cx="32" cy="32" r="28"/><path class="cls-2" d="M8,46.5A28,28,0,0,0,56,46.5Z"/><path class="cls-3" d="M4,32A27.87,27.87,0,0,0,8,46.5H22V19.22A10,10,0,0,0,15.07,9.7,28,28,0,0,0,4,32Z"/><path class="cls-4" d="M30,14.84h0A4.15,4.15,0,0,1,34.18,19v9a1.72,1.72,0,0,1-1.72,1.72H27.6A1.72,1.72,0,0,1,25.88,28V19A4.15,4.15,0,0,1,30,14.84Z"/><path class="cls-5" d="M20.75,30.68l2.33-2.12a.36.36,0,0,1,.43,0l.31.2a.38.38,0,0,0,.48-.06l4.22-4.59a.54.54,0,0,1,.76,0l3.81,3.39a.34.34,0,0,0,.46,0l1-.89a.4.4,0,0,1,.54,0L38.78,30v2.36H20.11V30.92l.29-.38Z"/><path class="cls-6" d="M38.78,30.9V30l-3.72-3.44h0a.17.17,0,0,0-.28.13v0a1.09,1.09,0,0,0,.29.74h0a.76.76,0,0,1,0,1l-.6.7,2.11,3.19h.27Z"/><path class="cls-7" d="M29.29,24h0a.23.23,0,0,0-.37.17h0a2.29,2.29,0,0,1-.44,1.35l-1,1.32a.78.78,0,0,0,.12,1.05h0a3.37,3.37,0,0,1,.54.58L30,31.07l2.43,1.27h6.13l-5.55-5Z"/><path class="cls-8" d="M36.49,34.81l-.29-.53a.09.09,0,0,0,0-.12L36,33.75a.06.06,0,0,0,0-.09l-.18-.32h0a0,0,0,0,0,0-.07l-.35-.63a0,0,0,0,0,0,0l-.35.63a0,0,0,0,0,0,.07h0l-.18.32a.06.06,0,0,0,0,.09l-.12.22-.11-.19a.11.11,0,0,0,0-.15l-.31-.55h0a.08.08,0,0,0,.05-.11L34,31.88a0,0,0,0,0-.07,0L33.3,33a.08.08,0,0,0,.05.11h0l-.11.2L33,32.92a.11.11,0,0,0,0-.15l-.31-.55h0a.08.08,0,0,0,.05-.11L32.24,31a0,0,0,0,0-.07,0l-.6,1.08a.08.08,0,0,0,.05.11h0l-.31.55a.11.11,0,0,0,0,.15l-.35.62-.16-.29h0a.08.08,0,0,0,.05-.11l-.6-1.08a0,0,0,0,0-.07,0l-.6,1.08a.08.08,0,0,0,.05.11h0l-.23.42-.12-.22h0a0,0,0,0,0,0-.07L29,32.76a0,0,0,0,0,0,0l-.35.63a0,0,0,0,0,0,.07h0l-.18.32a.06.06,0,0,0,0,.09l-.23.42a.09.09,0,0,0,0,.12l-.29.53a.12.12,0,0,0,.08.18h0a4.05,4.05,0,0,0,.81.1l-.33.59a.21.21,0,0,0,.13.3h0a7,7,0,0,0,3.14,0h0a.21.21,0,0,0,.13-.3l-.32-.57a7,7,0,0,0,.78,0l-.21.38a.21.21,0,0,0,.13.3h0a7,7,0,0,0,3.14,0h0a.21.21,0,0,0,.13-.3l-.29-.52a4.05,4.05,0,0,0,1.06-.1h0A.12.12,0,0,0,36.49,34.81Z"/><path class="cls-9" d="M30,14.84h0A4.15,4.15,0,0,1,34.18,19v9a1.72,1.72,0,0,1-1.72,1.72H27.6A1.72,1.72,0,0,1,25.88,28V19A4.15,4.15,0,0,1,30,14.84Z"/><path class="cls-10" d="M38.3,14.84h4.86a1.72,1.72,0,0,1,1.72,1.72v9a4.15,4.15,0,0,1-4.15,4.15h0a4.15,4.15,0,0,1-4.15-4.15v-9A1.72,1.72,0,0,1,38.3,14.84Z" transform="translate(81.47 44.51) rotate(-180)"/><path class="cls-11" d="M50,30.68l-2.33-2.12a.36.36,0,0,0-.43,0l-.31.2a.38.38,0,0,1-.48-.06l-4.22-4.59a.54.54,0,0,0-.76,0l-3.81,3.39a.34.34,0,0,1-.46,0l-1-.89a.4.4,0,0,0-.54,0L32,30v2.36H50.66V30.92l-.29-.38Z"/><path class="cls-12" d="M32,30.9V30l3.72-3.44h0a.17.17,0,0,1,.28.13v0a1.09,1.09,0,0,1-.29.74h0a.76.76,0,0,0,0,1l.6.7-2.11,3.19h-.27Z"/><path class="cls-13" d="M41.48,24h0a.23.23,0,0,1,.37.17h0a2.29,2.29,0,0,0,.44,1.35l1,1.32a.78.78,0,0,1-.12,1.05h0a3.37,3.37,0,0,0-.54.58l-1.85,2.55-2.43,1.27H32.21l5.55-5Z"/><path class="cls-14" d="M34.27,34.81l.29-.53a.09.09,0,0,1,0-.12l.23-.42a.06.06,0,0,1,0-.09l.18-.32h0a0,0,0,0,1,0-.07l.35-.63a0,0,0,0,1,0,0l.35.63a0,0,0,0,1,0,.07h0l.18.32a.06.06,0,0,1,0,.09l.12.22.11-.19a.11.11,0,0,1,0-.15l.31-.55h0A.08.08,0,0,1,36.2,33l.6-1.08a0,0,0,0,1,.07,0l.6,1.08a.08.08,0,0,1-.05.11h0l.11.2.19-.35a.11.11,0,0,1,0-.15l.31-.55h0a.08.08,0,0,1-.05-.11l.6-1.08a0,0,0,0,1,.07,0l.6,1.08a.08.08,0,0,1-.05.11h0l.31.55a.11.11,0,0,1,0,.15l.35.62.16-.29h0a.08.08,0,0,1-.05-.11l.6-1.08a0,0,0,0,1,.07,0l.6,1.08a.08.08,0,0,1-.05.11h0l.23.42.12-.22h0a0,0,0,0,1,0-.07l.35-.63a0,0,0,0,1,0,0l.35.63a0,0,0,0,1,0,.07h0l.18.32a.06.06,0,0,1,0,.09l.23.42a.09.09,0,0,1,0,.12l.29.53a.12.12,0,0,1-.08.18h0a4.05,4.05,0,0,1-.81.1l.33.59a.21.21,0,0,1-.13.3h0a7,7,0,0,1-3.14,0h0a.21.21,0,0,1-.13-.3l.32-.57a7,7,0,0,1-.78,0l.21.38a.21.21,0,0,1-.13.3h0a7,7,0,0,1-3.14,0h0a.21.21,0,0,1-.13-.3l.29-.52a4.05,4.05,0,0,1-1.06-.1h0A.12.12,0,0,1,34.27,34.81Z"/><path class="cls-15" d="M38.3,14.84h4.86a1.72,1.72,0,0,1,1.72,1.72v9a4.15,4.15,0,0,1-4.15,4.15h0a4.15,4.15,0,0,1-4.15-4.15v-9A1.72,1.72,0,0,1,38.3,14.84Z" transform="translate(81.47 44.51) rotate(-180)"/><rect class="cls-16" x="50.65" y="53.32" width="1.51" height="6.45"/><polygon id="_Path_" data-name="&lt;Path&gt;" class="cls-17" points="23.95 22.52 27.77 22 29.77 27.32 26.23 28.07 23.95 22.52"/><path id="_Path_2" data-name="&lt;Path&gt;" class="cls-18" d="M47,17C38.32,32.92,27.59,28.83,27.59,28.83l-1,.88c10.73,11.23,18.2,1.39,18.2,1.39Z"/><path class="cls-19" d="M44.79,31.1l1.58-10L45.87,19q-.45.72-.9,1.38c-1.08,3.49-3.2,9.55-4.53,8.06-1.85-2.06-.7,3.11-4.49,4.47-3.54,1.26-7.75-3.41-8.3-4l-.06,0-.53.47-.45.43C37.33,40.92,44.79,31.1,44.79,31.1Z"/><path id="_Path_3" data-name="&lt;Path&gt;" class="cls-18" d="M57.89,29.41c-2.76-12.84-5.33-14.09-8.8-12.84-4.53,1.63-5.28,6.7-6.64,13.14-4,18.88-2.42,19.35,6.4,19.35S61.94,48.29,57.89,29.41Z"/><path class="cls-20" d="M58.92,34.93c-.25-1.64-.6-3.47-1-5.52-1.72-8-3.36-11.48-5.19-12.69l-7.46,3.65a4.86,4.86,0,0,0-.41.4,19.77,19.77,0,0,0-1,3,5.09,5.09,0,0,0,1,4.62l0,0c3.84,4.51,1.73,7.87-.89,7.89S43,39.57,43,39.57s9.66,4.38,14.76-2.84C58.19,36.1,58.58,35.5,58.92,34.93Z"/><path class="cls-21" d="M45.29,20,53,16.88l-1.56-2a5.72,5.72,0,0,1-1-5.24,3.87,3.87,0,0,1,1.12-1.89c1.67-1.35-6.3-2.26-6.52-1.22a11.24,11.24,0,0,0-1.7,2.89,1,1,0,0,0,.63,1.31s-.06,2.82.56,3.42a3.39,3.39,0,0,0,1.28.7,1.25,1.25,0,0,1,.79,1.62Z"/><path class="cls-22" d="M51.43,14.92a5.72,5.72,0,0,1-1-5.24c.05-.17.11-.33.18-.5l-.07-.13L48.79,7.77,47.44,6.14a6.1,6.1,0,0,0-2.13.17l-.3.26h0s-.21.26-.48.65a1,1,0,0,1,.25.48c.1.56-.92,1.31-.91,2.05s-.44.65-.44.65h0a1,1,0,0,0,.52.37s0,.09,0,.24a.16.16,0,0,0,.19,0c.26-.23,0-2.19,1.35-2.19s2.06,1.61,1.26,3.44-1.24,2.42-2.09,2.07l.22.16.73.36h0s2.33.4,2.83,1.37-2.2,1.3-1,1.76,0,1.05,0,1.05l.21.06L53,16.88Z"/><path class="cls-23" d="M40.95,42.41S30.84,45,31.6,50.05c.29,1.92,2,5.74,3.94,9.72a27.82,27.82,0,0,0,6.35-1.57l-.23-1.07a4.38,4.38,0,0,1,3.82-5.29l6.66-.7Z"/><path class="cls-18" d="M60,51.73c0,2.82-3.85,2.68-8.6,2.68s-8.6.14-8.6-2.68c0-1.48,3.85-2.68,8.6-2.68S60,50.25,60,51.73Z"/><path class="cls-24" d="M57.5,49.84a21.25,21.25,0,0,0-6.1-.79c-4.06,0-7.45.88-8.36,2.05C51.29,54.18,55.44,52.57,57.5,49.84Z"/><path class="cls-25" d="M59.42,39.81S39.14,33,33.24,35.08C25,37.93,25.58,46,25.34,48.84a65.24,65.24,0,0,0,.41,10.45,28,28,0,0,0,5.48.69c1.18-6.84,3.21-14.49,6.21-13C61.91,59.61,59.42,39.81,59.42,39.81Z"/><path class="cls-26" d="M59.42,39.81a133.89,133.89,0,0,0-18-4.63c0,.55.07,3.45-2,4.26a10.91,10.91,0,0,0-3.21,1.81l-.47,2.93a3.15,3.15,0,0,0,3.42,2.22c2.89-.09,2.53-3.48,8.94-1.4s7.49-3.07,8.89-1.72,1.4,3,.49,5.06C60.11,44.95,59.42,39.81,59.42,39.81Z"/><path class="cls-21" d="M40,40.69s-2.58.14-3.19.2a2.39,2.39,0,0,0-1.21,3c.69,1.32,1.72.93,1.44-.24,0,0,2.59-.57,3.38-1.88"/><path id="_Path_4" data-name="&lt;Path&gt;" class="cls-18" d="M40.41,41.8,40,40.69c11.29-5.25,10.16-11.15,8.22-14.83a4.2,4.2,0,0,1,1.65-5.66h0a4.19,4.19,0,0,1,6,2.23C58.22,29,60,40.59,40.41,41.8Z"/><path class="cls-21" d="M26.88,27.62h0s-1-1.78-2.27-1.06c-.28.16-.73.49-.44,1a3.58,3.58,0,0,0,2.41,2.14l1-.88A2,2,0,0,0,26.88,27.62Z"/><polygon id="_Path_5" data-name="&lt;Path&gt;" class="cls-17" points="26.23 28.07 22.61 28 19.93 22.25 23.95 22.52 26.23 28.07"/><polygon id="_Path_6" data-name="&lt;Path&gt;" class="cls-27" points="24.04 22.24 27.86 21.72 29.85 27.05 26.32 27.79 24.04 22.24"/><polygon id="_Path_7" data-name="&lt;Path&gt;" class="cls-27" points="26.32 27.79 22.7 27.72 20.02 21.98 24.04 22.24 26.32 27.79"/><polygon id="_Path_8" data-name="&lt;Path&gt;" class="cls-28" points="24.2 21.74 28.02 21.22 30.01 26.54 26.47 27.29 24.2 21.74"/><polygon id="_Path_9" data-name="&lt;Path&gt;" class="cls-29" points="26.47 27.29 22.85 27.22 20.18 21.48 24.2 21.74 26.47 27.29"/><path id="_Path_10" data-name="&lt;Path&gt;" class="cls-21" d="M27.59,28.78a3.15,3.15,0,0,0,0-1.62A4.73,4.73,0,0,0,26.83,26s-.43-.34-.24.45a2.77,2.77,0,0,1-.32,1.7Z"/><path id="_Path_11" data-name="&lt;Path&gt;" class="cls-30" d="M45.3,19.53s-.37.15-.29.85c0,0,2.46.06,8.48-3,.2-.1-.19-.91-.63-.63,0,0-5.8,2.63-7.56,2.75"/><path class="cls-31" d="M43.93,10.77a1.17,1.17,0,0,1,1.31.7,1.12,1.12,0,0,0,1.32.57.15.15,0,0,1,.16.2c-.18.46-.67,1.38-1.62,1.15A1.88,1.88,0,0,1,44,12.15l.05.53a.41.41,0,0,1-.35-.22C43.43,11.91,43.27,10.75,43.93,10.77Z"/><path class="cls-31" d="M44.18,5.27a.59.59,0,0,0-.17.92,9.4,9.4,0,0,0,1.23,1.15c1.06.82,3,1.21,2.63,2.81a.27.27,0,0,0,.17.32h0a.27.27,0,0,0,.35-.19c.1-.41.38-1.08,1-.82.81.32.32,1.65-.1,2.11a.22.22,0,0,0,0,.29l1,1.19A.17.17,0,0,0,50.6,13a5.8,5.8,0,0,1,1.87-2.85C54,9,51.79,4,48.94,4A11,11,0,0,0,44.18,5.27Z"/><path class="cls-32" d="M52.06,6.12c.55,1.22-.51.89-2.3-.42s.42,1.16-1.76,2a3.52,3.52,0,0,1-3.52-1,9.4,9.4,0,0,0,.77.66c1.06.82,3,1.21,2.63,2.81a.27.27,0,0,0,.17.32h0a.27.27,0,0,0,.35-.19c.1-.41.38-1.08,1-.82.81.32.32,1.65-.1,2.11a.22.22,0,0,0,0,.29l1,1.19A.17.17,0,0,0,50.6,13a5.8,5.8,0,0,1,1.87-2.85c.86-.66.54-2.52-.41-4Z"/><path class="cls-33" d="M43.49,11.81l0,.07,0-.07Z"/><path class="cls-34" d="M46.72,12.24c-.18.47-.67,1.38-1.62,1.15A1.87,1.87,0,0,1,44,12.15l.05.53a.42.42,0,0,1-.35-.22l0-.08-.13-.48c0,.14.14.39.25.13s.17-.17.56.07.66-1-.32-1.33a1.14,1.14,0,0,1,1.24.71,1.13,1.13,0,0,0,1.32.57A.15.15,0,0,1,46.72,12.24Z"/><path class="cls-35" d="M40.06,40.89l.35.91C60,40.59,58.22,29,55.83,22.44a4.19,4.19,0,0,0-5.15-2.58h0c6.48-.71,4,14.66,1.46,14.48S49.35,37,47.54,39.16,40.06,40.89,40.06,40.89Z"/><rect class="cls-36" x="16.04" y="30.04" width="1.96" height="1.96" rx="0.98" ry="0.98"/></svg>