<svg id="Layer_1" data-name="Layer 1" xmlns="http://www.w3.org/2000/svg" xmlns:xlink="http://www.w3.org/1999/xlink" viewBox="0 0 64 64"><defs><style>.cls-1{fill:url(#linear-gradient);}.cls-2{fill:url(#linear-gradient-2);}.cls-3{fill:url(#linear-gradient-3);}.cls-4{fill:url(#linear-gradient-4);}.cls-5{fill:url(#linear-gradient-5);}.cls-6{fill:url(#linear-gradient-6);}.cls-7{fill:url(#linear-gradient-7);}.cls-8{fill:url(#linear-gradient-8);}.cls-9{fill:url(#linear-gradient-9);}.cls-10{fill:url(#linear-gradient-10);}.cls-11{fill:url(#linear-gradient-11);}.cls-12{fill:url(#linear-gradient-12);}.cls-13{fill:url(#linear-gradient-13);}.cls-14{fill:url(#linear-gradient-14);}.cls-15{fill:#20265d;}.cls-16{fill:url(#linear-gradient-15);}.cls-17{fill:url(#linear-gradient-16);}.cls-18{fill:url(#linear-gradient-17);}.cls-19{fill:url(#linear-gradient-18);}.cls-20{fill:#943d38;}.cls-21{fill:url(#linear-gradient-19);}.cls-22{fill:#d7e8f9;}.cls-23{fill:url(#linear-gradient-20);}.cls-24{fill:#f9aa8f;}.cls-25{fill:url(#linear-gradient-21);}.cls-26{fill:#211a4c;}.cls-27{fill:url(#linear-gradient-22);}.cls-28{fill:url(#linear-gradient-23);}</style><linearGradient id="linear-gradient" x1="32" y1="97.25" x2="32" y2="9.14" gradientUnits="userSpaceOnUse"><stop offset="0.02" stop-color="#97efe7"/><stop offset="0.52" stop-color="#3db6d3"/><stop offset="1" stop-color="#3d6fd3"/></linearGradient><linearGradient id="linear-gradient-2" x1="29.3" y1="51.08" x2="29.3" y2="8.62" xlink:href="#linear-gradient"/><linearGradient id="linear-gradient-3" x1="45.97" y1="59.61" x2="45.97" y2="16.45" xlink:href="#linear-gradient"/><linearGradient id="linear-gradient-4" x1="26.19" y1="62.57" x2="26.19" y2="12.82" xlink:href="#linear-gradient"/><linearGradient id="linear-gradient-5" x1="21.34" y1="66.82" x2="21.34" y2="46.3" xlink:href="#linear-gradient"/><linearGradient id="linear-gradient-6" x1="36.23" y1="66.61" x2="36.23" y2="46.5" xlink:href="#linear-gradient"/><linearGradient id="linear-gradient-7" x1="47.87" y1="57.29" x2="47.87" y2="52.63" xlink:href="#linear-gradient"/><linearGradient id="linear-gradient-8" x1="19.18" y1="18.47" x2="19.18" y2="4.31" xlink:href="#linear-gradient"/><linearGradient id="linear-gradient-9" x1="13.78" y1="22.08" x2="13.78" y2="3.68" xlink:href="#linear-gradient"/><linearGradient id="linear-gradient-10" x1="-989.29" y1="25.62" x2="-989.29" y2="-8.76" gradientTransform="matrix(-1, 0, 0, 1, -946, 0)" xlink:href="#linear-gradient"/><linearGradient id="linear-gradient-11" x1="-984.53" y1="25.63" x2="-984.53" y2="-8.76" gradientTransform="matrix(-1, 0, 0, 1, -946, 0)" xlink:href="#linear-gradient"/><linearGradient id="linear-gradient-12" x1="-972.57" y1="32.73" x2="-972.57" y2="-1.66" gradientTransform="matrix(-1, 0, 0, 1, -946, 0)" xlink:href="#linear-gradient"/><linearGradient id="linear-gradient-13" x1="1851.79" y1="25.63" x2="1851.79" y2="-8.76" gradientTransform="translate(-1806.22)" xlink:href="#linear-gradient"/><linearGradient id="linear-gradient-14" x1="-977.7" y1="24.26" x2="-989.7" y2="-5.74" gradientTransform="matrix(-1, 0, 0, 1, -946, 0)" gradientUnits="userSpaceOnUse"><stop offset="0" stop-color="#d1efe7"/><stop offset="0.53" stop-color="#97efe7"/><stop offset="1" stop-color="#3ccbe3"/></linearGradient><linearGradient id="linear-gradient-15" x1="33.16" y1="35.8" x2="25.52" y2="32.63" gradientUnits="userSpaceOnUse"><stop offset="0" stop-color="#78312d"/><stop offset="1" stop-color="#943d38"/></linearGradient><linearGradient id="linear-gradient-16" x1="30.78" y1="54.17" x2="30.78" y2="54.17" xlink:href="#linear-gradient-15"/><linearGradient id="linear-gradient-17" x1="52.68" y1="51.74" x2="40.76" y2="39.82" xlink:href="#linear-gradient-15"/><linearGradient id="linear-gradient-18" x1="39.84" y1="61.17" x2="43.09" y2="21.87" xlink:href="#linear-gradient-15"/><linearGradient id="linear-gradient-19" x1="52.28" y1="30.05" x2="45.32" y2="35.44" xlink:href="#linear-gradient-15"/><linearGradient id="linear-gradient-20" x1="45.81" y1="23.36" x2="40.99" y2="44.52" gradientUnits="userSpaceOnUse"><stop offset="0" stop-color="#dfecf4"/><stop offset="0.3" stop-color="#d7e8f3"/><stop offset="0.77" stop-color="#c1def1"/><stop offset="1" stop-color="#b4d8f0"/></linearGradient><linearGradient id="linear-gradient-21" x1="31.64" y1="31.01" x2="39.04" y2="1.16" gradientUnits="userSpaceOnUse"><stop offset="0" stop-color="#f78e6b"/><stop offset="1" stop-color="#f9aa8f"/></linearGradient><linearGradient id="linear-gradient-22" x1="35.23" y1="-0.03" x2="32.39" y2="23.68" xlink:href="#linear-gradient-15"/><linearGradient id="linear-gradient-23" x1="32.6" y1="7.68" x2="50.97" y2="7.47" xlink:href="#linear-gradient-15"/></defs><title>reading script</title><circle class="cls-1" cx="32" cy="32" r="28"/><path class="cls-2" d="M40.08,35.07a1.89,1.89,0,0,0-2.56,0l-4.61,4.25a1.62,1.62,0,0,1-2.17,0L12.56,23.17a2.59,2.59,0,0,0-3.63.18l-4.7,5.12a28,28,0,0,0,50.38,20Z"/><path class="cls-3" d="M54.61,48.51,40.08,35.07h0a.8.8,0,0,0-1.33.6v.22a5.2,5.2,0,0,0,1.36,3.51,3.65,3.65,0,0,1,.08,4.84l-2.85,3.33,6.5,9.83A28.1,28.1,0,0,0,54.61,48.51Z"/><path class="cls-4" d="M32,60a27.86,27.86,0,0,0,16.05-5.06l-17.8-16L12.56,23.17h0a1.08,1.08,0,0,0-1.79.82,10.89,10.89,0,0,1-2.12,6.45L4.33,36.29A27.8,27.8,0,0,0,6.7,44c.14.18.3.34.43.52l5.69,7.86A27.89,27.89,0,0,0,32,60Z"/><path class="cls-5" d="M28.1,57.17a.26.26,0,0,0,.08-.34l-.69-1.24a.19.19,0,0,0,.08-.26l-.53-.95h0a.13.13,0,0,0,.09-.19l-1-1.85a.06.06,0,0,0-.11,0l-1,1.85a.13.13,0,0,0,.09.19h0l-.53.95a.19.19,0,0,0,.08.26l-.37.66-.32-.57a.32.32,0,0,0,.14-.44l-.91-1.63h0a.23.23,0,0,0,.15-.33l-1.77-3.19a.11.11,0,0,0-.19,0l-1.77,3.19a.23.23,0,0,0,.15.33h0l-.33.59-.57-1a.32.32,0,0,0,.14-.44L18,51.09h0a.23.23,0,0,0,.15-.33l-1.77-3.19a.11.11,0,0,0-.19,0l-1.77,3.19a.23.23,0,0,0,.15.33h0l-.91,1.63a.32.32,0,0,0,.14.44l-.05.09a27.89,27.89,0,0,0,13.05,6.26,11.9,11.9,0,0,0,1.91-.26.36.36,0,0,0,.23-.52Z"/><path class="cls-6" d="M46.18,56l-.91-1.63h0a.23.23,0,0,0,.15-.33L43.65,50.8a.11.11,0,0,0-.19,0L41.68,54a.23.23,0,0,0,.15.33h0l-.33.59-.57-1a.32.32,0,0,0,.14-.44l-.91-1.63h0a.23.23,0,0,0,.15-.33l-1.77-3.19a.11.11,0,0,0-.19,0l-1.77,3.19a.23.23,0,0,0,.15.33h0l-.91,1.63a.32.32,0,0,0,.14.44l-1,1.83-.48-.86h0a.23.23,0,0,0,.15-.33l-1.77-3.19a.11.11,0,0,0-.19,0l-1.77,3.19a.23.23,0,0,0,.15.33h0l-.69,1.24L30,55.45h0a.13.13,0,0,0,.09-.19L29,53.4a.06.06,0,0,0-.11,0l-1,1.85a.13.13,0,0,0,.09.19h0l-.53.95a.19.19,0,0,0,.08.26l-.69,1.24a.26.26,0,0,0,.08.34l-.65,1.18a28,28,0,0,0,20-3.29A.31.31,0,0,0,46.18,56Z"/><path class="cls-7" d="M48.12,53.06l-1,1.85a.13.13,0,0,0,.09.19h0l-.36.65q1.09-.68,2.1-1.45l-.69-1.24A.06.06,0,0,0,48.12,53.06Z"/><path class="cls-8" d="M24,13.46a33.08,33.08,0,0,1-8.38-4.13q-.6.43-1.17.9C20,12.34,24,13.46,24,13.46Z"/><path class="cls-9" d="M8.85,16.25A72.94,72.94,0,0,0,18.72,18c-2.77-.39-5.23-1.38-6-2.19A7.06,7.06,0,0,0,10,14.73C9.58,15.22,9.21,15.73,8.85,16.25Z"/><path class="cls-10" d="M31.53,19s4.61.86,7.29.29,4.09.61,5.9-.19a3.2,3.2,0,0,1,3.88,1c.51.76,1.87,0,2.9.68s3.57.62,3.57.62S47.29,23.84,31.53,19Z"/><path class="cls-11" d="M32,13.36a11.24,11.24,0,0,0,4.07.22c1.54-.38,2.26.42,3.32-.12a1.53,1.53,0,0,1,2.12.69c.24.52,1.05,0,1.59.47a3.86,3.86,0,0,0,2,.43S40.56,16.71,32,13.36Z"/><path class="cls-12" d="M24.38,16.28s3,1,4.37.73a4.47,4.47,0,0,1-1.18-.57,1.51,1.51,0,0,0-1.4-.29c-.32.2-.44-.28-.8-.1A3.58,3.58,0,0,1,24.38,16.28Z"/><path class="cls-13" d="M43.39,10s3,1,4.37.73a4.47,4.47,0,0,1-1.18-.57,1.51,1.51,0,0,0-1.4-.29c-.32.2-.44-.28-.8-.1A3.58,3.58,0,0,1,43.39,10Z"/><path class="cls-14" d="M39.21,9.8a9.36,9.36,0,0,1-3.15-.75A3.27,3.27,0,0,0,37,9a1.1,1.1,0,0,1,1,.2c.16.22.38-.07.57.16A2.62,2.62,0,0,0,39.21,9.8Z"/><path class="cls-15" d="M50.46,51.43,36.87,50.6A58.15,58.15,0,0,1,39.57,59,27.93,27.93,0,0,0,50.5,53C50.49,52.48,50.48,51.95,50.46,51.43Z"/><path class="cls-15" d="M27.66,59.66a28.14,28.14,0,0,0,12.75-.95,36.9,36.9,0,0,1,10.06-7.28l-19.55.16S29.54,53.7,27.66,59.66Z"/><path id="_Path_" data-name="&lt;Path&gt;" class="cls-16" d="M33.83,26.17s-4.4,11.26-21.91,13.68V37.13a34.27,34.27,0,0,0,13.33-13S35.15,19.26,33.83,26.17Z"/><path class="cls-17" d="M30.78,54.15s0,0,0,0Z"/><path class="cls-18" d="M43.91,20.84l3-1.28A16.43,16.43,0,0,0,35.68,17a12.84,12.84,0,0,0-10.77,7.87c.5.34,3.71,2.19,5.38,4.9,6.3,10.25,1.92,17.23-.91,25l3-1.34c7.52-3.09,18.14-1.85,18.14-1.85S50.94,26.78,43.91,20.84Z"/><path class="cls-19" d="M50.48,51.62s.46-24.84-6.57-30.78l3-1.28a15.91,15.91,0,0,0-8.26-2.65l-5.25,3.25s4.49,4,7.85,4.81-.9,4.64-.9,4.64L38.44,44.27s-1.38,2.58,1.26,3.59-5.74,5-5.74,5h0C41.29,50.55,50.48,51.62,50.48,51.62Z"/><path class="cls-20" d="M58.7,33.38l0,0a22,22,0,0,0-1-2.35h0A31.48,31.48,0,0,0,47.28,19.79a3.82,3.82,0,0,0-4.34,6.3,25.77,25.77,0,0,1,5.78,5.51.85.85,0,0,0-.29,1.19c.66,1.33,2,2.72,1.61,3-2.48,2.05,0,4.29,0,4.29h4.78C58,40.11,59.62,36.52,58.7,33.38Z"/><path class="cls-21" d="M53.1,32.6c-2-.73-.06-3.93-1.32-5.55s-5.42,1.23-5.42,1.23l-.28.39a24.48,24.48,0,0,1,2.63,2.94.85.85,0,0,0-.29,1.19c.66,1.33,2,2.72,1.61,3l0,0h.32C55.68,35.83,55.07,33.33,53.1,32.6Z"/><path class="cls-22" d="M38.44,33.23s0,0,0,0Z"/><path class="cls-22" d="M51.36,28.27h-7a7,7,0,0,0-3.37.84,4.68,4.68,0,0,0-2.06,2.23,5.76,5.76,0,0,0-.49,2.38v9.76A3.54,3.54,0,0,0,42,47h4.77a3.75,3.75,0,0,0,3.74-3.74V33.21a6,6,0,0,1,1.17-4C51.92,28.91,51.78,28.27,51.36,28.27Z"/><path class="cls-23" d="M42,47h3.62c-5.69,0-5.24-4.33-2.17-6.5s2.26-5.93-1.74-7.75c-3.64-1.66-1.22-3.34-.76-3.62a4.69,4.69,0,0,0-2,2.19,5.76,5.76,0,0,0-.49,2.39v9.76A3.54,3.54,0,0,0,42,47Z"/><path id="_Path_2" data-name="&lt;Path&gt;" class="cls-24" d="M52.66,38.61a1.64,1.64,0,0,1-1.77,1.5H47.52c-1.41,0-2.26-1.34-1.47-2.35l.1-.11.07-.08a1.61,1.61,0,0,1,.45-.35l2.2-1.2a2,2,0,0,1,1.88,0,1.67,1.67,0,0,1,.51.42l1.08,1.31A1.34,1.34,0,0,1,52.66,38.61Z"/><path id="_Path_3" data-name="&lt;Path&gt;" class="cls-24" d="M12,37.13A5,5,0,0,1,9.88,35c-.13-.3-.49.35-.39,1a.84.84,0,0,1-.65.92l-2,.48a.71.71,0,0,0-.33,1.2c.84.82,2.52,1.79,5.48,1.18"/><path class="cls-24" d="M41.22,17.21s-3.24.16-.66-9c.91-3.25-8.3-4.14-9.81,1.24l-.2,3.72a.89.89,0,0,0,.55,1,.66.66,0,0,1,.44.57c.08,1.38.57,1.85,1.57,2h0a.38.38,0,0,1,.11.72,6.14,6.14,0,0,1-.85.34c0,2,1.3,3.7,5.06,3C41.38,20,41.22,17.21,41.22,17.21Z"/><path class="cls-25" d="M33.37,12.29c1.91,1.25,1.3,4.46-.33,4.39.63.09,2.22.37,2.41.85s-1.28,2,1.31,2.3,1.58.7,1.48.74c3.12-.94,3-3.36,3-3.36s-2.37.11-1.44-5.61l-2.84-1.42-6.14-1-.06.2-.08,1.51a2.39,2.39,0,0,0,.45.32c.3.16.17,1.27.1,1.81s-.26.75-.62.59a.9.9,0,0,0,.5.5.66.66,0,0,1,.44.57S31.37,11,33.37,12.29Z"/><path class="cls-26" d="M33.08,11s2.3.09,2.8,1.57.63,2.76,2.21,2.72c0,0-.22,1.93,3.14,1.9s3.3-4.41.94-4.2a4,4,0,0,0-3.28-2.42,11.14,11.14,0,0,1-3.72-.8"/><path class="cls-27" d="M37.7,4.46c-3.54-1.47-5.9.88-6.85,2.65a1.08,1.08,0,0,0-.06.16h0l-3.11.25A.28.28,0,0,0,27.4,8a7.29,7.29,0,0,0,4.52,2.85,16.77,16.77,0,0,0,8.19-.07h0c.22-.13.28-.44.45-.72C42.11,7.4,40.78,5.74,37.7,4.46Z"/><path class="cls-28" d="M27.4,8a7.29,7.29,0,0,0,4.52,2.85,16.77,16.77,0,0,0,8.19-.07h0c.22-.13.28-.44.45-.72,1.55-2.61.22-4.28-2.86-5.55A5.86,5.86,0,0,0,36,4c.37.05,2.19.45.41,3.36-1.15,1.88-5.54-.09-5.6-.12h0c.06,0,1.79,1.28.75,1.83s-3.15-.56-3.86-1.58A.28.28,0,0,0,27.4,8Z"/></svg>