<svg xmlns="http://www.w3.org/2000/svg" xmlns:xlink="http://www.w3.org/1999/xlink" viewBox="0 0 64 64"><defs><style>.cls-1{isolation:isolate;}.cls-2{fill:url(#linear-gradient);}.cls-3{fill:url(#linear-gradient-2);}.cls-4{fill:url(#linear-gradient-3);}.cls-5{fill:url(#linear-gradient-4);}.cls-6{fill:url(#linear-gradient-5);}.cls-7{fill:url(#linear-gradient-6);}.cls-8{fill:url(#linear-gradient-7);}.cls-9{fill:url(#linear-gradient-8);}.cls-10{fill:url(#linear-gradient-9);}.cls-11{fill:url(#linear-gradient-10);}.cls-12{fill:url(#linear-gradient-11);}.cls-13{fill:url(#linear-gradient-12);}.cls-14{fill:url(#linear-gradient-13);}.cls-15{fill:url(#linear-gradient-14);}.cls-16{fill:url(#linear-gradient-15);}.cls-17{fill:url(#linear-gradient-16);}.cls-18{fill:url(#linear-gradient-67);}.cls-19,.cls-34{opacity:0.49;}.cls-19{mix-blend-mode:color-burn;fill:url(#linear-gradient-68);}.cls-20{fill:url(#linear-gradient-69);}.cls-21{fill:url(#linear-gradient-70);}.cls-22{fill:url(#linear-gradient-71);}.cls-23{fill:url(#linear-gradient-72);}.cls-24{fill:url(#linear-gradient-73);}.cls-25{fill:url(#linear-gradient-74);}.cls-26{fill:#f9aa8f;}.cls-27{fill:url(#linear-gradient-75);}.cls-28{fill:#f79c84;}.cls-29{fill:url(#linear-gradient-76);}.cls-30{fill:url(#linear-gradient-77);}.cls-31{fill:url(#linear-gradient-78);}.cls-32{fill:url(#linear-gradient-79);}.cls-33{fill:url(#linear-gradient-80);}.cls-35{fill:url(#linear-gradient-81);}.cls-36{fill:url(#linear-gradient-82);}.cls-37{fill:#de806e;}.cls-38{fill:url(#linear-gradient-83);}.cls-39{fill:url(#linear-gradient-84);}.cls-40{fill:url(#linear-gradient-85);}.cls-41{fill:url(#linear-gradient-86);}.cls-42{fill:url(#linear-gradient-87);}</style><linearGradient id="linear-gradient" x1="32" y1="54.67" x2="32" y2="25.76" gradientUnits="userSpaceOnUse"><stop offset="0.02" stop-color="#97efe7"/><stop offset="0.52" stop-color="#3db6d3"/><stop offset="1" stop-color="#3d6fd3"/></linearGradient><linearGradient id="linear-gradient-2" x1="32" y1="61.83" x2="32" y2="-43.55" xlink:href="#linear-gradient"/><linearGradient id="linear-gradient-3" x1="22.71" y1="29.11" x2="22.71" y2="-23.81" gradientUnits="userSpaceOnUse"><stop offset="0" stop-color="#fff"/><stop offset="0.84" stop-color="#cddfec"/></linearGradient><linearGradient id="linear-gradient-4" x1="15.49" y1="29.95" x2="15.49" y2="-22.06" xlink:href="#linear-gradient-3"/><linearGradient id="linear-gradient-5" x1="49.1" y1="34.85" x2="49.1" y2="-42.43" xlink:href="#linear-gradient-3"/><linearGradient id="linear-gradient-6" x1="47.49" y1="35.09" x2="47.49" y2="-43.57" xlink:href="#linear-gradient-3"/><linearGradient id="linear-gradient-7" x1="409.38" y1="35.09" x2="409.38" y2="-43.58" gradientTransform="translate(-376.22)" xlink:href="#linear-gradient-3"/><linearGradient id="linear-gradient-8" x1="407.26" y1="35.09" x2="407.26" y2="-43.58" gradientTransform="translate(-376.22)" xlink:href="#linear-gradient-3"/><linearGradient id="linear-gradient-9" x1="423.13" y1="35.09" x2="423.13" y2="-43.58" gradientTransform="translate(-376.22)" xlink:href="#linear-gradient-3"/><linearGradient id="linear-gradient-10" x1="19.59" y1="44.15" x2="19.59" y2="12.12" xlink:href="#linear-gradient"/><linearGradient id="linear-gradient-11" x1="32.6" y1="54.55" x2="32.6" y2="9.48" xlink:href="#linear-gradient"/><linearGradient id="linear-gradient-12" x1="399.41" y1="48.78" x2="399.41" y2="-0.28" gradientTransform="translate(-376.22)" xlink:href="#linear-gradient-3"/><linearGradient id="linear-gradient-13" x1="401.46" y1="48.78" x2="401.46" y2="-0.28" gradientTransform="translate(-376.22)" xlink:href="#linear-gradient-3"/><linearGradient id="linear-gradient-14" x1="403.51" y1="48.78" x2="403.51" y2="-0.28" gradientTransform="translate(-376.22)" xlink:href="#linear-gradient-3"/><linearGradient id="linear-gradient-15" x1="405.56" y1="48.78" x2="405.56" y2="-0.28" gradientTransform="translate(-376.22)" xlink:href="#linear-gradient-3"/><linearGradient id="linear-gradient-16" x1="407.62" y1="48.78" x2="407.62" y2="-0.28" gradientTransform="translate(-376.22)" xlink:href="#linear-gradient-3"/><linearGradient id="linear-gradient-67" x1="420.57" y1="44.87" x2="420.57" y2="14.91" gradientTransform="translate(-376.22)" xlink:href="#linear-gradient"/><linearGradient id="linear-gradient-68" x1="387.51" y1="25.69" x2="387.51" y2="25.13" gradientTransform="translate(-376.22)" xlink:href="#linear-gradient-3"/><linearGradient id="linear-gradient-69" x1="395.06" y1="59" x2="395.06" y2="38.28" gradientTransform="translate(-376.22)" gradientUnits="userSpaceOnUse"><stop offset="0" stop-color="#7ff1a4"/><stop offset="0.52" stop-color="#2fbca4"/><stop offset="1" stop-color="#2f7da4"/></linearGradient><linearGradient id="linear-gradient-70" x1="18.59" y1="54.12" x2="18.59" y2="43.56" xlink:href="#linear-gradient-3"/><linearGradient id="linear-gradient-71" x1="15.28" y1="58.64" x2="15.28" y2="43.87" gradientTransform="matrix(1, 0, 0, 1, 0, 0)" xlink:href="#linear-gradient-69"/><linearGradient id="linear-gradient-72" x1="15.75" y1="54.53" x2="15.75" y2="52.13" xlink:href="#linear-gradient-3"/><linearGradient id="linear-gradient-73" x1="15.16" y1="54.52" x2="15.16" y2="51.87" xlink:href="#linear-gradient-3"/><linearGradient id="linear-gradient-74" x1="40.7" y1="64.73" x2="41.33" y2="60.42" gradientTransform="matrix(1, 0, 0, 1, 0, 0)" xlink:href="#linear-gradient-69"/><linearGradient id="linear-gradient-75" x1="23.73" y1="37.24" x2="22.3" y2="24.15" gradientUnits="userSpaceOnUse"><stop offset="0" stop-color="#f9aa8f"/><stop offset="1" stop-color="#f78e6b"/></linearGradient><linearGradient id="linear-gradient-76" x1="20.74" y1="72.16" x2="22.57" y2="69.25" xlink:href="#linear-gradient-75"/><linearGradient id="linear-gradient-77" x1="34.61" y1="66.7" x2="35.86" y2="40.2" gradientTransform="matrix(1, 0, 0, 1, 0, 0)" xlink:href="#linear-gradient-69"/><linearGradient id="linear-gradient-78" x1="47.77" y1="37.28" x2="26.64" y2="45.09" xlink:href="#linear-gradient-75"/><linearGradient id="linear-gradient-79" x1="35.82" y1="39.41" x2="36.49" y2="55.16" gradientTransform="matrix(1, 0, 0, 1, 0, 0)" xlink:href="#linear-gradient-69"/><linearGradient id="linear-gradient-80" x1="56.44" y1="21.23" x2="28.8" y2="38.36" xlink:href="#linear-gradient-75"/><linearGradient id="linear-gradient-81" x1="28.42" y1="22.12" x2="38.13" y2="4.91" xlink:href="#linear-gradient-75"/><linearGradient id="linear-gradient-82" x1="19.2" y1="0.9" x2="41.2" y2="49.65" gradientUnits="userSpaceOnUse"><stop offset="0" stop-color="#ffce28"/><stop offset="0.5" stop-color="#ff9328"/><stop offset="1" stop-color="#b03400"/></linearGradient><linearGradient id="linear-gradient-83" x1="23.88" y1="-0.52" x2="39.13" y2="45.1" xlink:href="#linear-gradient-82"/><linearGradient id="linear-gradient-84" x1="13.36" y1="41.72" x2="32.44" y2="50.38" gradientTransform="matrix(1, 0, 0, 1, 0, 0)" xlink:href="#linear-gradient-69"/><linearGradient id="linear-gradient-85" x1="35.75" y1="0.39" x2="29.59" y2="19.89" gradientUnits="userSpaceOnUse"><stop offset="0" stop-color="#ff7d63"/><stop offset="0.52" stop-color="#ff5763"/><stop offset="1" stop-color="#8b3044"/></linearGradient><linearGradient id="linear-gradient-86" x1="23.54" y1="21.97" x2="36.38" y2="-0.78" xlink:href="#linear-gradient-85"/><linearGradient id="linear-gradient-87" x1="28.97" y1="25.03" x2="41.8" y2="2.28" xlink:href="#linear-gradient-85"/></defs><title>running</title><g class="cls-1"><g id="Layer_1" data-name="Layer 1"><circle class="cls-2" cx="32" cy="32" r="28"/><path class="cls-3" d="M4,32A27.87,27.87,0,0,0,7.37,45.33H56.63A28,28,0,1,0,4,32Z"/><path class="cls-4" d="M31.46,16.82C24.82,14.6,19.25,11,17.64,8.68a4.34,4.34,0,0,0-.38-.48A28.08,28.08,0,0,0,14,10.6,177.1,177.1,0,0,0,31.46,16.82Z"/><path class="cls-5" d="M22.73,19.91c-3.55-.49-6.68-1.77-7.71-2.8S11.59,16,11,15.46a5.47,5.47,0,0,0-1-.71,28.05,28.05,0,0,0-1.71,2.44A93.24,93.24,0,0,0,22.73,19.91Z"/><path class="cls-6" d="M57.72,20.93a4.1,4.1,0,0,0-1.76.36c-2.32,1-4.11-.48-7.54.24s-9.32-.38-9.32-.38a81.33,81.33,0,0,0,20,3.81A27.78,27.78,0,0,0,57.72,20.93Z"/><path class="cls-7" d="M55,16a2.42,2.42,0,0,1-1.09-.43c-.68-.59-1.72.07-2-.59a2,2,0,0,0-2.7-.89c-1.36.69-2.28-.33-4.24.15a14.37,14.37,0,0,1-5.2-.28c8.12,3.17,13.37,2.82,15.55,2.43Z"/><path class="cls-8" d="M30.37,8.64S34.15,9.9,36,9.57a5.71,5.71,0,0,1-1.5-.73,1.93,1.93,0,0,0-1.79-.37c-.41.25-.57-.36-1-.13A4.58,4.58,0,0,1,30.37,8.64Z"/><path class="cls-9" d="M28.25,19.85s3.78,1.26,5.58.93a5.71,5.71,0,0,1-1.5-.73,1.93,1.93,0,0,0-1.79-.37c-.41.25-.57-.36-1-.13A4.58,4.58,0,0,1,28.25,19.85Z"/><path class="cls-10" d="M48.92,9.43s-2.9-.23-4-1a4.18,4.18,0,0,0,1.22-.07,1.41,1.41,0,0,1,1.31.26c.2.29.48-.08.73.2A3.35,3.35,0,0,0,48.92,9.43Z"/><path class="cls-11" d="M34.48,38.63H18v-7H15.84V27a3,3,0,0,0-6,0v7.2H4.09A27.83,27.83,0,0,0,7.37,45.33H35.1Z"/><path class="cls-12" d="M59.89,29.56c-.06-.69-.14-1.37-.25-2v-.07q-.18-1.07-.43-2.12h0q-.26-1.07-.6-2.1H56.88a5.38,5.38,0,0,0-5.38,5.38v3.21H45.65a1.07,1.07,0,0,0-1.07,1.07v5.19H37.21v-2a1,1,0,0,0-1-1h-2.1V15.87a.93.93,0,0,0-.93-.93H21.08a.93.93,0,0,0-.93.93V42H10.47V40.1H5.2a28.09,28.09,0,0,0,1,2.66v0c.17.4.35.8.53,1.19l0,.11q.3.63.64,1.25H56.63c.25-.45.48-.92.7-1.39l.19-.42q.23-.51.44-1l.19-.49c.13-.35.26-.7.38-1.05l.15-.45c.16-.5.31-1,.44-1.52h0c.13-.51.24-1,.34-1.54,0-.16.06-.33.09-.49.07-.37.13-.74.18-1.11q0-.28.07-.56c0-.38.08-.75.11-1.13,0-.17,0-.34,0-.51,0-.54.05-1.09.05-1.64s0-1.38-.08-2.06C59.91,29.81,59.9,29.68,59.89,29.56Z"/><rect class="cls-13" x="22.6" y="17.46" width="1.18" height="1.18" rx="0.09" ry="0.09"/><rect class="cls-14" x="24.65" y="17.46" width="1.18" height="1.18" rx="0.09" ry="0.09"/><rect class="cls-15" x="26.7" y="17.46" width="1.18" height="1.18" rx="0.09" ry="0.09"/><rect class="cls-16" x="28.75" y="17.46" width="1.18" height="1.18" rx="0.09" ry="0.09"/><rect class="cls-17" x="30.81" y="17.46" width="1.18" height="1.18" rx="0.09" ry="0.09"/><rect class="cls-13" x="22.6" y="19.63" width="1.18" height="1.18" rx="0.09" ry="0.09"/><rect class="cls-14" x="24.65" y="19.63" width="1.18" height="1.18" rx="0.09" ry="0.09"/><rect class="cls-15" x="26.7" y="19.63" width="1.18" height="1.18" rx="0.09" ry="0.09"/><rect class="cls-16" x="28.75" y="19.63" width="1.18" height="1.18" rx="0.09" ry="0.09"/><rect class="cls-17" x="30.81" y="19.63" width="1.18" height="1.18" rx="0.09" ry="0.09"/><rect class="cls-13" x="22.6" y="21.79" width="1.18" height="1.18" rx="0.09" ry="0.09"/><rect class="cls-14" x="24.65" y="21.79" width="1.18" height="1.18" rx="0.09" ry="0.09"/><rect class="cls-15" x="26.7" y="21.79" width="1.18" height="1.18" rx="0.09" ry="0.09"/><rect class="cls-16" x="28.75" y="21.79" width="1.18" height="1.18" rx="0.09" ry="0.09"/><rect class="cls-17" x="30.81" y="21.79" width="1.18" height="1.18" rx="0.09" ry="0.09"/><rect class="cls-13" x="22.6" y="23.95" width="1.18" height="1.18" rx="0.09" ry="0.09"/><rect class="cls-14" x="24.65" y="23.95" width="1.18" height="1.18" rx="0.09" ry="0.09"/><rect class="cls-15" x="26.7" y="23.95" width="1.18" height="1.18" rx="0.09" ry="0.09"/><rect class="cls-16" x="28.75" y="23.95" width="1.18" height="1.18" rx="0.09" ry="0.09"/><rect class="cls-17" x="30.81" y="23.95" width="1.18" height="1.18" rx="0.09" ry="0.09"/><rect class="cls-13" x="22.6" y="26.11" width="1.18" height="1.18" rx="0.09" ry="0.09"/><rect class="cls-14" x="24.65" y="26.11" width="1.18" height="1.18" rx="0.09" ry="0.09"/><rect class="cls-15" x="26.7" y="26.11" width="1.18" height="1.18" rx="0.09" ry="0.09"/><rect class="cls-16" x="28.75" y="26.11" width="1.18" height="1.18" rx="0.09" ry="0.09"/><rect class="cls-17" x="30.81" y="26.11" width="1.18" height="1.18" rx="0.09" ry="0.09"/><rect class="cls-13" x="22.6" y="28.27" width="1.18" height="1.18" rx="0.09" ry="0.09"/><rect class="cls-14" x="24.65" y="28.27" width="1.18" height="1.18" rx="0.09" ry="0.09"/><rect class="cls-15" x="26.7" y="28.27" width="1.18" height="1.18" rx="0.09" ry="0.09"/><rect class="cls-16" x="28.75" y="28.27" width="1.18" height="1.18" rx="0.09" ry="0.09"/><rect class="cls-17" x="30.81" y="28.27" width="1.18" height="1.18" rx="0.09" ry="0.09"/><rect class="cls-13" x="22.6" y="30.43" width="1.18" height="1.18" rx="0.09" ry="0.09"/><rect class="cls-14" x="24.65" y="30.43" width="1.18" height="1.18" rx="0.09" ry="0.09"/><rect class="cls-15" x="26.7" y="30.43" width="1.18" height="1.18" rx="0.09" ry="0.09"/><rect class="cls-16" x="28.75" y="30.43" width="1.18" height="1.18" rx="0.09" ry="0.09"/><rect class="cls-17" x="30.81" y="30.43" width="1.18" height="1.18" rx="0.09" ry="0.09"/><rect class="cls-13" x="22.6" y="32.59" width="1.18" height="1.18" rx="0.09" ry="0.09"/><rect class="cls-14" x="24.65" y="32.59" width="1.18" height="1.18" rx="0.09" ry="0.09"/><rect class="cls-15" x="26.7" y="32.59" width="1.18" height="1.18" rx="0.09" ry="0.09"/><rect class="cls-16" x="28.75" y="32.59" width="1.18" height="1.18" rx="0.09" ry="0.09"/><rect class="cls-17" x="30.81" y="32.59" width="1.18" height="1.18" rx="0.09" ry="0.09"/><rect class="cls-13" x="22.6" y="34.75" width="1.18" height="1.18" rx="0.09" ry="0.09"/><rect class="cls-14" x="24.65" y="34.75" width="1.18" height="1.18" rx="0.09" ry="0.09"/><rect class="cls-15" x="26.7" y="34.75" width="1.18" height="1.18" rx="0.09" ry="0.09"/><rect class="cls-16" x="28.75" y="34.75" width="1.18" height="1.18" rx="0.09" ry="0.09"/><rect class="cls-17" x="30.81" y="34.75" width="1.18" height="1.18" rx="0.09" ry="0.09"/><rect class="cls-13" x="22.6" y="36.92" width="1.18" height="1.18" rx="0.09" ry="0.09"/><rect class="cls-14" x="24.65" y="36.92" width="1.18" height="1.18" rx="0.09" ry="0.09"/><rect class="cls-15" x="26.7" y="36.92" width="1.18" height="1.18" rx="0.09" ry="0.09"/><rect class="cls-16" x="28.75" y="36.92" width="1.18" height="1.18" rx="0.09" ry="0.09"/><rect class="cls-17" x="30.81" y="36.92" width="1.18" height="1.18" rx="0.09" ry="0.09"/><rect class="cls-13" x="22.6" y="39.08" width="1.18" height="1.18" rx="0.09" ry="0.09"/><rect class="cls-14" x="24.65" y="39.08" width="1.18" height="1.18" rx="0.09" ry="0.09"/><rect class="cls-15" x="26.7" y="39.08" width="1.18" height="1.18" rx="0.09" ry="0.09"/><rect class="cls-16" x="28.75" y="39.08" width="1.18" height="1.18" rx="0.09" ry="0.09"/><rect class="cls-17" x="30.81" y="39.08" width="1.18" height="1.18" rx="0.09" ry="0.09"/><path class="cls-18" d="M45.65,31.81a1.07,1.07,0,0,0-1.07,1.07v5.19H37.21v.27a4.69,4.69,0,0,0,4.69,4.77h3.18v-2H51.5V31.81Z"/><path class="cls-19" d="M11,25.39c-.07,0,.05.12.19.21h0l.11,0a.39.39,0,0,0,.2-.12A1.58,1.58,0,0,0,11,25.39Z"/><path class="cls-20" d="M14.9,48.35a2.2,2.2,0,0,1,1.6-2.12.92.92,0,0,0,.62-.63,2.2,2.2,0,0,1,4.3.42,2.23,2.23,0,0,1,0,.5.88.88,0,0,0,.39.85,2.2,2.2,0,0,1,.33,3.41,1.43,1.43,0,0,0-.33.46,1.56,1.56,0,0,1-1.44,1h-.2a1.57,1.57,0,0,0-1,.2,2.2,2.2,0,0,1-3.34-1.88v0a.77.77,0,0,0-.23-.56A2.19,2.19,0,0,1,14.9,48.35Z"/><path class="cls-21" d="M19.83,50.28l-.13,0a.3.3,0,0,0-.13.06.28.28,0,0,0-.09.12s0,.09,0,.13a.68.68,0,0,1-.15.23.75.75,0,0,1-.22.15l-.2.1,0-2.6,0,2-.35-.17-.19-.1a.69.69,0,0,1-.16-.15l0,0h0a0,0,0,0,0,0,0h0l0-.09c0-.07,0-.14-.06-.21l-.13-.42.11.43c0,.07,0,.14.06.21L18,50l-.33-.16-.19-.1a.69.69,0,0,1-.26-.33c0-.07,0-.14-.06-.21L17,48.74l.11.43c0,.07,0,.14.06.21a.72.72,0,0,0,.26.35l.19.11L18,50h0l0,0a.72.72,0,0,0,.16.16l.19.11.37.2,0,2.87.15.17,0-2.42L19.1,51a.8.8,0,0,0,.23-.17.72.72,0,0,0,.15-.24s0-.09,0-.13a.25.25,0,0,1,.07-.11.27.27,0,0,1,.12-.06l.13,0a.33.33,0,0,0,.19-.2c0-.18.08-.36.12-.54,0,.18-.09.36-.13.54A.31.31,0,0,1,19.83,50.28Z"/><path class="cls-22" d="M16.67,51.31a.59.59,0,0,1-.4-.41,1.41,1.41,0,0,0-2.76.27,1.43,1.43,0,0,0,0,.32.57.57,0,0,1-.25.54,1.42,1.42,0,0,0-.39.4,28.12,28.12,0,0,0,3.55,2.83,1.41,1.41,0,0,0,.7-1.21h0a.49.49,0,0,1,.15-.36,1.41,1.41,0,0,0-.6-2.37Z"/><path class="cls-23" d="M16.2,53.66a.45.45,0,0,1-.07.12l-.1.09-.12.07-.21.1,0,0,0-.14.07-.27-.08.27,0,.13,0,.06h0a0,0,0,0,0,0,0h0l0,0-.1.09-.12.07-.22.11,0,0,.21-.11.12-.07a.46.46,0,0,0,.1-.1l0,0h0l.25-.13.12-.07a.46.46,0,0,0,.17-.23l0-.14.07-.27-.08.27Z"/><path class="cls-24" d="M15.18,54.38l0-1.27,0,1.25Z"/><path class="cls-25" d="M39.74,58.81l.13.06a27.79,27.79,0,0,0,3.68-1.37c.61-2.64-1-6.07-1-6.07Z"/><path class="cls-26" d="M29.39,24.56l-1.26-3.8a2.7,2.7,0,0,0-1.38,1.34,5.16,5.16,0,0,0-.47,1.1l-.22.74a5.27,5.27,0,0,1-.23.63c-2.31,5.21-8.07,12.83-16.14,12.83v1.75s15.7,1.37,20.73-9.66Z"/><path class="cls-27" d="M30.13,29.2l0-.14c-1.53-2.24-3-3.88-3.37-2.58-.84,3-3.06,4.46-4,7.6s-6.12,4.53-6.13,4.53C21.37,37.7,27.34,35.32,30.13,29.2Z"/><path id="_Path_" data-name="&lt;Path&gt;" class="cls-26" d="M28.13,20.75l10.63-.22.73,10.13-9.19,3.41S24,24.77,28.13,20.75Z"/><path id="_Path_2" data-name="&lt;Path&gt;" class="cls-26" d="M43.51,42.34s-1.82-5.32-5-13.93S33.68,25,27.66,46.2C27.66,46.2,32.79,58.06,43.51,42.34Z"/><path class="cls-28" d="M37.38,59.48l-2.52-12.4-1.39-1.4-4.2-.87s-4.66,7-3,14.59a28.07,28.07,0,0,0,11.14.07Z"/><path class="cls-29" d="M32,60a28.12,28.12,0,0,0,5.38-.52l-2.52-12.4-1.39-1.4-4.2-.87a22.26,22.26,0,0,0-2.21,4.67,2.53,2.53,0,0,1,3.07-.43c2,.87-.28,6.39-2.32,10.64A28.21,28.21,0,0,0,32,60Z"/><path class="cls-26" d="M38.19,42.83s-4.16,9.06-8,17.1c.6,0,1.2.06,1.81.06a27.94,27.94,0,0,0,9.31-1.59c5.36-9.69,1.86-17,1.86-17Z"/><path class="cls-30" d="M32.25,43.36c-1.33,0-2.55,0-3.74-.14-3.87,9.22-2.61,11.13-2.61,11.13,2.12-4.08,6.52.88,6.52.88,2.46-6.33,9.91,1.25,11,2.35l.19-.09c3.21-10-.1-15.63-.38-16.09C42,42.53,37.56,43.36,32.25,43.36Z"/><path class="cls-31" d="M41.88,37.71,29.27,40.59h0s12.09-1.44,12.7-.41-1.52,2.27-2.9,2.65c-.06,0,3.14-.79,4.4-.44l0-.05S42.94,40.68,41.88,37.71Z"/><path class="cls-32" d="M33.55,44.81c4.38,0,8.23-.65,10.44-1.63a9.8,9.8,0,0,0-.8-1.77c-1.18,1.12-5.63,1.95-10.94,1.95-1.33,0-2.55,0-3.74-.14-.18.43-.34.83-.5,1.23A39.6,39.6,0,0,0,33.55,44.81Z"/><path class="cls-26" d="M56,43.05v.25H53.72s.11-2.91-2.59-7.2c-2.27-3.62-5.82-7-11.16-7.22H39.4s-1.06-.74-.13-8.66l.26.08.09,0,.81.3.17.07h0l.33.14.31.13C45.75,23,55.38,27.59,56,43.05Z"/><path class="cls-33" d="M51.13,36.15c-2.27-3.62-5.82-7-11.16-7.24a18.64,18.64,0,0,1-.7-8.68l.26.08.09,0,.81.3.17.07h0l.33.14.3.13C40.8,20.84,40,20.8,40,22.3c0,1.33,3,3,6,5.28A13.61,13.61,0,0,1,51.13,36.15Z"/><path class="cls-26" d="M37.23,19.08a6.7,6.7,0,0,1-1.64-3.88v-.12h0c-.55-9.92-6.36-7-6.36-7s-.22.51-.5,1.24a14,14,0,0,1-.93,1.95l-1.15,2a.33.33,0,0,0,.22.49l.12,0a.55.55,0,0,1,.44.51c0,.93.31,2,1.11,2h1.86a1.22,1.22,0,0,1,1.11,1.43,4,4,0,0,1-2.26,2.48.94.94,0,0,0-.1,1.6L33.68,25l5.08-4.2Z"/><g class="cls-34"><path class="cls-35" d="M37.23,19.08a6.7,6.7,0,0,1-1.64-3.88v-.12h0c-.55-9.92-6.36-7-6.36-7s-.22.51-.5,1.24l-.19.45a.38.38,0,0,0,.21.52h0c.34.11-.65,1.25-1,2.2-.27.66-1,1-1.12.94a.33.33,0,0,0,.26.31l.12,0a.55.55,0,0,1,.44.51c0,.14,0,.28,0,.41s.45-3.38,2.68-3.54,2,4.74-.46,5.09c.86,0,3.22,0,3.78,1.35C34.13,19.33,36.34,20.11,37.23,19.08Z"/></g><path class="cls-36" d="M42.56,38.19l-.44-.91a10.86,10.86,0,0,1-1-6.19,21.5,21.5,0,0,1-1.9-10.86l-2-1.15s.28,7.79-4.94,8.53c0,0-4.63,1-2.5-7.71l-1.67.85-.47,2.32-.17,1c-.16.91-.7,2.15-.9,2.95-1.24,4.93,5.94,6.62-.43,12-4.22,3.54,12.71.51,16.08-.11A.45.45,0,0,0,42.56,38.19Z"/><circle id="_Path_3" data-name="&lt;Path&gt;" class="cls-37" cx="35.42" cy="41.28" r="0.35"/><path class="cls-38" d="M37.23,39.68c2.2-.34,4.1-.69,5-.86a.45.45,0,0,0,.32-.63l-.44-.91a10,10,0,0,1-1-6.19h0a20.39,20.39,0,0,1-1.9-10.86L38.88,20a39.62,39.62,0,0,0-.24,8.69c.18,3.85-3.88,3.88-7.84,3.93a3.93,3.93,0,0,1-3.89-2.42c.95,2.19,2.87,3.86,1.36,6.4-.79,2.56,2,1.3,7.15,1.51S37.23,39.68,37.23,39.68Z"/><path class="cls-26" d="M10.69,37.38a8.82,8.82,0,0,1-2.22-1.49c-1.3-1.13-3.63,2.29-3.17,3S8,40.67,8.12,40a3.24,3.24,0,0,0,0-.82,19.54,19.54,0,0,0,4.33,0"/><path class="cls-26" d="M53.64,42.93s-.13,3.78.54,4.27,2.57.92,3.38.21,1.51-3,1.06-2.89-1.76.92-1.8.81.73-2.29-.82-2.29"/><path class="cls-39" d="M34,46.26a2.34,2.34,0,0,1-2.68-.06c-2.63-1.9-2.46.44-.1,3.16,1.24,1.42-3.42,3.39-3.42,3.39h0c2.11-.29,4.53,2.43,4.57,2.47l0,0a5.94,5.94,0,0,1,.33-.7L33,54c.72-1.52,2-6.38,1.06-7.76Z"/><path class="cls-40" d="M27.89,5.33a1.17,1.17,0,0,0-.34.91c.06,1,.45,3,2.58,3.45s2.53,1.18,2.55,1.46a.45.45,0,0,0,.09.24v0a.42.42,0,0,0,.64,0,.92.92,0,0,1,1.34-.22c.55.46.09,1.34-.3,1.9a1,1,0,0,0,0,1.11l1.33,2a26.79,26.79,0,0,1,3.25-6A1,1,0,0,0,39,9C37.27,7,31.79,1.47,27.89,5.33Z"/><path class="cls-41" d="M30.13,9.69c2.24.44,2.53,1.18,2.55,1.46a.45.45,0,0,0,.09.24v0a.42.42,0,0,0,.64,0,1.52,1.52,0,0,1,.5-.36c-.38-.18.72-3.39-.85-4.28s0,2.42-2.79,2.28a2.6,2.6,0,0,1-2.6-1.94A3.11,3.11,0,0,0,30.13,9.69Z"/><path class="cls-42" d="M38.76,10.58c-.25.35-3,3.08-3.13,2.2a3,3,0,0,0-.77-1.47c.39.48,0,1.28-.4,1.8a1,1,0,0,0,0,1.11l1.33,2a27.14,27.14,0,0,1,3-5.66Z"/></g></g></svg>