<svg xmlns="http://www.w3.org/2000/svg" xmlns:xlink="http://www.w3.org/1999/xlink" viewBox="0 0 64 64"><defs><style>.cls-1{isolation:isolate;}.cls-2{fill:url(#linear-gradient);}.cls-3{fill:url(#linear-gradient-2);}.cls-4{fill:url(#linear-gradient-3);}.cls-5{fill:url(#linear-gradient-4);}.cls-6{fill:url(#linear-gradient-5);}.cls-7{fill:url(#linear-gradient-6);}.cls-8{fill:url(#linear-gradient-7);}.cls-9{fill:url(#linear-gradient-8);}.cls-10{fill:url(#linear-gradient-9);}.cls-11{fill:url(#linear-gradient-10);}.cls-12{fill:url(#linear-gradient-11);}.cls-13{fill:url(#linear-gradient-12);}.cls-14{fill:url(#linear-gradient-13);}.cls-15{fill:url(#linear-gradient-14);}.cls-16{fill:url(#linear-gradient-15);}.cls-17{fill:url(#linear-gradient-16);}.cls-18{fill:url(#linear-gradient-17);}.cls-19{fill:url(#linear-gradient-18);}.cls-20{fill:url(#linear-gradient-19);}.cls-21{fill:url(#linear-gradient-20);}.cls-22{fill:url(#linear-gradient-21);}.cls-23{fill:url(#linear-gradient-22);}.cls-24{fill:url(#linear-gradient-23);}.cls-25{fill:url(#linear-gradient-24);}.cls-26{fill:url(#linear-gradient-25);}.cls-27{fill:url(#linear-gradient-26);}.cls-28{fill:url(#linear-gradient-27);}.cls-29{fill:url(#linear-gradient-28);}.cls-30{fill:url(#linear-gradient-29);}.cls-31{fill:url(#linear-gradient-30);}.cls-32{fill:url(#linear-gradient-31);}.cls-33{fill:url(#linear-gradient-32);}.cls-34{fill:url(#linear-gradient-33);}.cls-35{fill:url(#linear-gradient-34);}.cls-36{fill:url(#linear-gradient-35);}.cls-37{fill:url(#linear-gradient-36);}.cls-38{fill:url(#linear-gradient-37);}.cls-39{fill:url(#linear-gradient-38);}.cls-40{fill:url(#linear-gradient-39);}.cls-41{fill:url(#linear-gradient-40);}.cls-42{fill:url(#linear-gradient-41);}.cls-43{fill:url(#linear-gradient-42);}.cls-44{fill:url(#linear-gradient-43);}.cls-45{fill:url(#linear-gradient-44);}.cls-46{fill:url(#linear-gradient-45);}.cls-47{fill:url(#linear-gradient-46);}.cls-48{fill:url(#linear-gradient-47);}.cls-49{fill:url(#linear-gradient-48);}.cls-50{fill:url(#linear-gradient-49);}.cls-51{fill:url(#linear-gradient-50);}.cls-52{fill:url(#linear-gradient-51);}.cls-53{fill:url(#linear-gradient-52);}.cls-54{fill:url(#linear-gradient-53);}.cls-55{fill:url(#linear-gradient-54);}.cls-56{fill:url(#linear-gradient-55);}.cls-57{fill:url(#linear-gradient-56);}.cls-58{fill:url(#linear-gradient-57);}.cls-59{fill:url(#linear-gradient-58);}.cls-60{fill:url(#linear-gradient-59);}.cls-61{fill:url(#linear-gradient-60);}.cls-62{fill:url(#linear-gradient-61);}.cls-63{opacity:0.49;mix-blend-mode:color-burn;fill:url(#linear-gradient-62);}.cls-64{fill:#5e0b15;}.cls-65{fill:#690b13;}.cls-66{fill:#dfecf4;}.cls-67{fill:#2a9e9e;}.cls-68{fill:#004f65;}.cls-69{fill:url(#linear-gradient-63);}.cls-70{fill:url(#linear-gradient-64);}.cls-71{fill:#f9aa8f;}.cls-72{fill:#ef9981;}.cls-73{fill:url(#linear-gradient-65);}.cls-74{fill:url(#linear-gradient-66);}.cls-75{fill:url(#linear-gradient-67);}.cls-76{fill:url(#linear-gradient-68);}.cls-77{fill:url(#linear-gradient-69);}.cls-78{fill:url(#linear-gradient-70);}.cls-79{fill:url(#linear-gradient-71);}.cls-80{fill:url(#linear-gradient-72);}.cls-81{fill:url(#linear-gradient-73);}.cls-82{fill:url(#linear-gradient-74);}.cls-83{fill:url(#linear-gradient-75);}</style><linearGradient id="linear-gradient" x1="31.65" y1="91.33" x2="31.65" y2="51.65" gradientUnits="userSpaceOnUse"><stop offset="0.02" stop-color="#edd7ad"/><stop offset="0.52" stop-color="#ff9661"/><stop offset="1" stop-color="#e74a69"/></linearGradient><linearGradient id="linear-gradient-2" x1="14.18" y1="49.06" x2="14.18" y2="-11.24" gradientUnits="userSpaceOnUse"><stop offset="0.02" stop-color="#edd7ad"/><stop offset="0.52" stop-color="#dd8c93"/><stop offset="1" stop-color="#cb1e45"/></linearGradient><linearGradient id="linear-gradient-3" x1="15.25" y1="33.76" x2="15.25" y2="-11.25" xlink:href="#linear-gradient-2"/><linearGradient id="linear-gradient-4" x1="11.77" y1="33.76" x2="11.77" y2="-11.25" xlink:href="#linear-gradient-2"/><linearGradient id="linear-gradient-5" x1="21.74" y1="33.76" x2="21.74" y2="-11.25" xlink:href="#linear-gradient-2"/><linearGradient id="linear-gradient-6" x1="11.11" y1="33.76" x2="11.11" y2="-11.25" xlink:href="#linear-gradient-2"/><linearGradient id="linear-gradient-7" x1="4.02" y1="37.07" x2="4.02" y2="35.03" xlink:href="#linear-gradient-2"/><linearGradient id="linear-gradient-8" x1="14.18" y1="43.46" x2="14.18" y2="24.7" xlink:href="#linear-gradient-2"/><linearGradient id="linear-gradient-9" x1="9.65" y1="39.36" x2="9.65" y2="22.21" xlink:href="#linear-gradient-2"/><linearGradient id="linear-gradient-10" x1="42.93" y1="49.06" x2="42.93" y2="-11.24" xlink:href="#linear-gradient-2"/><linearGradient id="linear-gradient-11" x1="52.25" y1="35.41" x2="52.25" y2="-3.72" xlink:href="#linear-gradient-2"/><linearGradient id="linear-gradient-12" x1="55.53" y1="32.5" x2="55.53" y2="5.72" xlink:href="#linear-gradient-2"/><linearGradient id="linear-gradient-13" x1="34.58" y1="40.44" x2="34.58" y2="-14.96" xlink:href="#linear-gradient-2"/><linearGradient id="linear-gradient-14" x1="32.47" y1="40.44" x2="32.47" y2="-14.96" xlink:href="#linear-gradient-2"/><linearGradient id="linear-gradient-15" x1="38.48" y1="40.44" x2="38.48" y2="-14.96" xlink:href="#linear-gradient-2"/><linearGradient id="linear-gradient-16" x1="46.59" y1="40.44" x2="46.59" y2="-14.96" xlink:href="#linear-gradient-2"/><linearGradient id="linear-gradient-17" x1="47.8" y1="40.44" x2="47.8" y2="-14.96" xlink:href="#linear-gradient-2"/><linearGradient id="linear-gradient-18" x1="29.85" y1="40.44" x2="29.85" y2="-14.96" xlink:href="#linear-gradient-2"/><linearGradient id="linear-gradient-19" x1="53.11" y1="38.94" x2="53.11" y2="20.63" xlink:href="#linear-gradient-2"/><linearGradient id="linear-gradient-20" x1="42.64" y1="45.94" x2="42.64" y2="15.07" xlink:href="#linear-gradient-2"/><linearGradient id="linear-gradient-21" x1="4206.44" y1="41.59" x2="4206.44" y2="13.52" gradientTransform="matrix(1, 0, 0, -1, -4153.04, 55.45)" xlink:href="#linear-gradient-2"/><linearGradient id="linear-gradient-22" x1="4207.61" y1="41.59" x2="4207.61" y2="13.52" gradientTransform="matrix(1, 0, 0, -1, -4155.39, 55.45)" xlink:href="#linear-gradient-2"/><linearGradient id="linear-gradient-23" x1="4208.79" y1="41.59" x2="4208.79" y2="13.52" gradientTransform="matrix(1, 0, 0, -1, -4157.74, 55.45)" xlink:href="#linear-gradient-2"/><linearGradient id="linear-gradient-24" x1="4209.96" y1="41.59" x2="4209.96" y2="13.52" gradientTransform="matrix(1, 0, 0, -1, -4160.09, 55.45)" xlink:href="#linear-gradient-2"/><linearGradient id="linear-gradient-25" x1="4211.14" y1="41.59" x2="4211.14" y2="13.52" gradientTransform="matrix(1, 0, 0, -1, -4162.44, 55.45)" xlink:href="#linear-gradient-2"/><linearGradient id="linear-gradient-26" x1="4206.44" y1="41.59" x2="4206.44" y2="13.52" gradientTransform="matrix(1, 0, 0, -1, -4153.04, 57.92)" xlink:href="#linear-gradient-2"/><linearGradient id="linear-gradient-27" x1="4207.61" y1="41.59" x2="4207.61" y2="13.52" gradientTransform="matrix(1, 0, 0, -1, -4155.39, 57.92)" xlink:href="#linear-gradient-2"/><linearGradient id="linear-gradient-28" x1="4208.79" y1="41.59" x2="4208.79" y2="13.52" gradientTransform="matrix(1, 0, 0, -1, -4157.74, 57.92)" xlink:href="#linear-gradient-2"/><linearGradient id="linear-gradient-29" x1="4209.96" y1="41.59" x2="4209.96" y2="13.52" gradientTransform="matrix(1, 0, 0, -1, -4160.09, 57.92)" xlink:href="#linear-gradient-2"/><linearGradient id="linear-gradient-30" x1="4211.14" y1="41.59" x2="4211.14" y2="13.52" gradientTransform="matrix(1, 0, 0, -1, -4162.44, 57.92)" xlink:href="#linear-gradient-2"/><linearGradient id="linear-gradient-31" x1="4206.44" y1="41.59" x2="4206.44" y2="13.52" gradientTransform="matrix(1, 0, 0, -1, -4153.04, 60.39)" xlink:href="#linear-gradient-2"/><linearGradient id="linear-gradient-32" x1="4207.61" y1="41.59" x2="4207.61" y2="13.52" gradientTransform="matrix(1, 0, 0, -1, -4155.39, 60.39)" xlink:href="#linear-gradient-2"/><linearGradient id="linear-gradient-33" x1="4208.79" y1="41.59" x2="4208.79" y2="13.52" gradientTransform="matrix(1, 0, 0, -1, -4157.74, 60.39)" xlink:href="#linear-gradient-2"/><linearGradient id="linear-gradient-34" x1="4209.96" y1="41.59" x2="4209.96" y2="13.52" gradientTransform="matrix(1, 0, 0, -1, -4160.09, 60.39)" xlink:href="#linear-gradient-2"/><linearGradient id="linear-gradient-35" x1="4211.14" y1="41.59" x2="4211.14" y2="13.52" gradientTransform="matrix(1, 0, 0, -1, -4162.44, 60.39)" xlink:href="#linear-gradient-2"/><linearGradient id="linear-gradient-36" x1="4206.44" y1="41.59" x2="4206.44" y2="13.52" gradientTransform="matrix(1, 0, 0, -1, -4153.04, 62.87)" xlink:href="#linear-gradient-2"/><linearGradient id="linear-gradient-37" x1="4207.61" y1="41.59" x2="4207.61" y2="13.52" gradientTransform="matrix(1, 0, 0, -1, -4155.39, 62.87)" xlink:href="#linear-gradient-2"/><linearGradient id="linear-gradient-38" x1="4208.79" y1="41.59" x2="4208.79" y2="13.52" gradientTransform="matrix(1, 0, 0, -1, -4157.74, 62.87)" xlink:href="#linear-gradient-2"/><linearGradient id="linear-gradient-39" x1="4209.96" y1="41.59" x2="4209.96" y2="13.52" gradientTransform="matrix(1, 0, 0, -1, -4160.09, 62.87)" xlink:href="#linear-gradient-2"/><linearGradient id="linear-gradient-40" x1="4211.14" y1="41.59" x2="4211.14" y2="13.52" gradientTransform="matrix(1, 0, 0, -1, -4162.44, 62.87)" xlink:href="#linear-gradient-2"/><linearGradient id="linear-gradient-41" x1="4206.44" y1="41.59" x2="4206.44" y2="13.52" gradientTransform="matrix(1, 0, 0, -1, -4153.04, 65.34)" xlink:href="#linear-gradient-2"/><linearGradient id="linear-gradient-42" x1="4207.61" y1="41.59" x2="4207.61" y2="13.52" gradientTransform="matrix(1, 0, 0, -1, -4155.39, 65.34)" xlink:href="#linear-gradient-2"/><linearGradient id="linear-gradient-43" x1="4208.79" y1="41.59" x2="4208.79" y2="13.52" gradientTransform="matrix(1, 0, 0, -1, -4157.74, 65.34)" xlink:href="#linear-gradient-2"/><linearGradient id="linear-gradient-44" x1="4209.96" y1="41.59" x2="4209.96" y2="13.52" gradientTransform="matrix(1, 0, 0, -1, -4160.09, 65.34)" xlink:href="#linear-gradient-2"/><linearGradient id="linear-gradient-45" x1="4211.14" y1="41.59" x2="4211.14" y2="13.52" gradientTransform="matrix(1, 0, 0, -1, -4162.44, 65.34)" xlink:href="#linear-gradient-2"/><linearGradient id="linear-gradient-46" x1="4206.44" y1="41.59" x2="4206.44" y2="13.52" gradientTransform="matrix(1, 0, 0, -1, -4153.04, 67.81)" xlink:href="#linear-gradient-2"/><linearGradient id="linear-gradient-47" x1="4207.61" y1="41.59" x2="4207.61" y2="13.52" gradientTransform="matrix(1, 0, 0, -1, -4155.39, 67.81)" xlink:href="#linear-gradient-2"/><linearGradient id="linear-gradient-48" x1="4208.79" y1="41.59" x2="4208.79" y2="13.52" gradientTransform="matrix(1, 0, 0, -1, -4157.74, 67.81)" xlink:href="#linear-gradient-2"/><linearGradient id="linear-gradient-49" x1="4209.96" y1="41.59" x2="4209.96" y2="13.52" gradientTransform="matrix(1, 0, 0, -1, -4160.09, 67.81)" xlink:href="#linear-gradient-2"/><linearGradient id="linear-gradient-50" x1="4211.14" y1="41.59" x2="4211.14" y2="13.52" gradientTransform="matrix(1, 0, 0, -1, -4162.44, 67.81)" xlink:href="#linear-gradient-2"/><linearGradient id="linear-gradient-51" x1="4206.44" y1="41.59" x2="4206.44" y2="13.52" gradientTransform="matrix(1, 0, 0, -1, -4153.04, 70.29)" xlink:href="#linear-gradient-2"/><linearGradient id="linear-gradient-52" x1="4207.61" y1="41.59" x2="4207.61" y2="13.52" gradientTransform="matrix(1, 0, 0, -1, -4155.39, 70.29)" xlink:href="#linear-gradient-2"/><linearGradient id="linear-gradient-53" x1="4208.79" y1="41.59" x2="4208.79" y2="13.52" gradientTransform="matrix(1, 0, 0, -1, -4157.74, 70.29)" xlink:href="#linear-gradient-2"/><linearGradient id="linear-gradient-54" x1="4209.96" y1="41.59" x2="4209.96" y2="13.52" gradientTransform="matrix(1, 0, 0, -1, -4160.09, 70.29)" xlink:href="#linear-gradient-2"/><linearGradient id="linear-gradient-55" x1="4211.14" y1="41.59" x2="4211.14" y2="13.52" gradientTransform="matrix(1, 0, 0, -1, -4162.44, 70.29)" xlink:href="#linear-gradient-2"/><linearGradient id="linear-gradient-56" x1="4206.44" y1="41.59" x2="4206.44" y2="13.52" gradientTransform="matrix(1, 0, 0, -1, -4153.04, 72.76)" xlink:href="#linear-gradient-2"/><linearGradient id="linear-gradient-57" x1="4207.61" y1="41.59" x2="4207.61" y2="13.52" gradientTransform="matrix(1, 0, 0, -1, -4155.39, 72.76)" xlink:href="#linear-gradient-2"/><linearGradient id="linear-gradient-58" x1="4208.79" y1="41.59" x2="4208.79" y2="13.52" gradientTransform="matrix(1, 0, 0, -1, -4157.74, 72.76)" xlink:href="#linear-gradient-2"/><linearGradient id="linear-gradient-59" x1="4209.96" y1="41.59" x2="4209.96" y2="13.52" gradientTransform="matrix(1, 0, 0, -1, -4160.09, 72.76)" xlink:href="#linear-gradient-2"/><linearGradient id="linear-gradient-60" x1="4211.14" y1="41.59" x2="4211.14" y2="13.52" gradientTransform="matrix(1, 0, 0, -1, -4162.44, 72.76)" xlink:href="#linear-gradient-2"/><linearGradient id="linear-gradient-61" x1="4218.55" y1="39.36" x2="4218.55" y2="22.21" gradientTransform="matrix(-1, 0, 0, 1, 4259.83, 0)" xlink:href="#linear-gradient-2"/><linearGradient id="linear-gradient-62" x1="4199.63" y1="28.38" x2="4199.63" y2="28.06" gradientTransform="matrix(-1, 0, 0, 1, 4259.83, 0)" xlink:href="#linear-gradient-2"/><linearGradient id="linear-gradient-63" x1="47.42" y1="32.78" x2="29.12" y2="34.08" gradientUnits="userSpaceOnUse"><stop offset="0" stop-color="#004f65"/><stop offset="0.05" stop-color="#014b62"/><stop offset="0.32" stop-color="#053a57"/><stop offset="0.62" stop-color="#073050"/><stop offset="1" stop-color="#082d4e"/></linearGradient><linearGradient id="linear-gradient-64" x1="29.91" y1="36.78" x2="1.4" y2="30.86" xlink:href="#linear-gradient-63"/><linearGradient id="linear-gradient-65" x1="24.16" y1="17.56" x2="40.08" y2="17.56" gradientUnits="userSpaceOnUse"><stop offset="0" stop-color="#f9aa8f"/><stop offset="1" stop-color="#f78e6b"/></linearGradient><linearGradient id="linear-gradient-66" x1="43.49" y1="36.94" x2="35.65" y2="23.69" xlink:href="#linear-gradient-65"/><linearGradient id="linear-gradient-67" x1="31.73" y1="14.53" x2="33.01" y2="7.5" gradientUnits="userSpaceOnUse"><stop offset="0" stop-color="#fff"/><stop offset="0.84" stop-color="#cddfec"/></linearGradient><linearGradient id="linear-gradient-68" x1="36.58" y1="17.81" x2="31.76" y2="3.94" gradientUnits="userSpaceOnUse"><stop offset="0.02" stop-color="#98372a"/><stop offset="0.34" stop-color="#6a2922"/><stop offset="0.79" stop-color="#301818"/><stop offset="1" stop-color="#1a1114"/></linearGradient><linearGradient id="linear-gradient-69" x1="35.27" y1="3.4" x2="30.08" y2="20.65" xlink:href="#linear-gradient-68"/><linearGradient id="linear-gradient-70" x1="45.57" y1="18.7" x2="53.24" y2="29.45" xlink:href="#linear-gradient-68"/><linearGradient id="linear-gradient-71" x1="47.81" y1="12.3" x2="47.81" y2="-5.79" xlink:href="#linear-gradient-67"/><linearGradient id="linear-gradient-72" x1="47.58" y1="15.86" x2="47.58" y2="0.02" xlink:href="#linear-gradient-67"/><linearGradient id="linear-gradient-73" x1="51.64" y1="25.08" x2="59.95" y2="1.34" xlink:href="#linear-gradient-67"/><linearGradient id="linear-gradient-74" x1="53.86" y1="13.26" x2="53.86" y2="-2.98" xlink:href="#linear-gradient-67"/><linearGradient id="linear-gradient-75" x1="18.69" y1="45.67" x2="-3.33" y2="27.46" xlink:href="#linear-gradient-63"/></defs><title>smoking pipe</title><g class="cls-1"><g id="Layer_1" data-name="Layer 1"><circle class="cls-2" cx="31.65" cy="32" r="28"/><path class="cls-3" d="M22.93,16H8.69a28,28,0,0,0-4,23.65h20V17.75A1.78,1.78,0,0,0,22.93,16Z"/><path class="cls-4" d="M6.64,25.78A18,18,0,0,0,12,26c2-.41,3,.44,4.32-.14a2.34,2.34,0,0,1,2.84.74c.37.55,1.37,0,2.12.49a6.24,6.24,0,0,0,2.61.45S18.18,29.35,6.64,25.78Z"/><path class="cls-5" d="M7,21.68a8.22,8.22,0,0,0,3,.16c1.13-.28,1.65.31,2.43-.09a1.12,1.12,0,0,1,1.55.51c.18.38.77,0,1.16.34a2.83,2.83,0,0,0,1.44.31S13.26,24.13,7,21.68Z"/><path class="cls-6" d="M24.51,23.67s-3.78.62-5.54-.15A4.43,4.43,0,0,0,20.49,23a1.61,1.61,0,0,1,1.78,0c.39.38.58-.29,1,.07A4.73,4.73,0,0,0,24.51,23.67Z"/><path class="cls-7" d="M12.26,19.08a6.85,6.85,0,0,1-2.3-.55,2.39,2.39,0,0,0,.7,0,.81.81,0,0,1,.75.15c.12.16.28,0,.42.12A1.92,1.92,0,0,0,12.26,19.08Z"/><path class="cls-8" d="M4,35.78H3.91q.09.69.22,1.37Z"/><path class="cls-9" d="M20.17,27H16.81A3.08,3.08,0,0,0,13.74,30v1.83H10.39a.61.61,0,0,0-.61.61v3H5.56V34.32A.55.55,0,0,0,5,33.77H3.8V29a28.3,28.3,0,0,0-.16,3A28,28,0,0,0,4.7,39.62h20V34.89H20.17Z"/><path class="cls-10" d="M10.39,31.88a.61.61,0,0,0-.61.61v3H5.56v.15a2.68,2.68,0,0,0,2.68,2.73h1.82V37.23h3.68V31.88Z"/><path class="cls-11" d="M59.65,32a27.86,27.86,0,0,0-5-16H28a1.78,1.78,0,0,0-1.78,1.78V39.62H58.59A28,28,0,0,0,59.65,32Z"/><path class="cls-12" d="M56.95,20c-.3-.64-.64-1.26-1-1.88a2.38,2.38,0,0,0-.49.52C54.55,20,51.36,22,47.56,23.31,47.56,23.31,51.63,22.15,56.95,20Z"/><path class="cls-13" d="M58.13,22.91a2.68,2.68,0,0,0-1.16.56,9.17,9.17,0,0,1-4.41,1.6,52.8,52.8,0,0,0,5.95-1Q58.33,23.5,58.13,22.91Z"/><path class="cls-14" d="M43.19,25.78a18,18,0,0,1-5.33.22c-2-.41-3,.44-4.32-.14a2.34,2.34,0,0,0-2.84.74c-.37.55-1.37,0-2.12.49a6.24,6.24,0,0,1-2.61.45S31.65,29.35,43.19,25.78Z"/><path class="cls-15" d="M37.25,22.48a8.22,8.22,0,0,1-3,.16c-1.13-.28-1.65.31-2.43-.09a1.12,1.12,0,0,0-1.55.51c-.18.38-.77,0-1.16.34a2.83,2.83,0,0,1-1.44.31S31,24.93,37.25,22.48Z"/><path class="cls-16" d="M35.78,19.32s3.83-.13,5.4-1.23a4.43,4.43,0,0,1-1.59-.21,1.61,1.61,0,0,0-1.75.31c-.31.45-.62-.17-1,.27A4.73,4.73,0,0,1,35.78,19.32Z"/><path class="cls-17" d="M48.18,18.63a9.37,9.37,0,0,1-3.2.53,3.27,3.27,0,0,0,.86-.42,1.11,1.11,0,0,1,1-.21c.23.14.32-.21.59-.08A2.62,2.62,0,0,0,48.18,18.63Z"/><path class="cls-18" d="M49.39,25a9.37,9.37,0,0,1-3.2.53,3.27,3.27,0,0,0,.86-.42,1.11,1.11,0,0,1,1-.21c.23.14.32-.21.59-.08A2.62,2.62,0,0,0,49.39,25Z"/><path class="cls-19" d="M28.67,17.81A6.85,6.85,0,0,0,31,17.69a2.39,2.39,0,0,1-.68-.17.81.81,0,0,0-.77,0c-.15.14-.26-.1-.43,0A1.92,1.92,0,0,1,28.67,17.81Z"/><path class="cls-20" d="M59.65,32a28.17,28.17,0,0,0-.38-4.61,1.73,1.73,0,0,0-1.66,1.72v2.66H56.37v4H46.93l-.35,3.84h12A28,28,0,0,0,59.65,32Z"/><path class="cls-21" d="M59.06,37.72H55.13V27.06a.53.53,0,0,0-.53-.53H47.67a.53.53,0,0,0-.53.53v6.71h-1.2a.55.55,0,0,0-.55.55v1.15H41.15v-3a.61.61,0,0,0-.61-.61H37.2v-6.7a6.38,6.38,0,0,0-6.38-6.38h-.05V34.89H26.22v4.73H58.59C58.76,39,58.93,38.36,59.06,37.72Z"/><rect class="cls-22" x="53.06" y="27.38" width="0.68" height="0.68" rx="0.05" ry="0.05" transform="translate(106.79 55.45) rotate(-180)"/><rect class="cls-23" x="51.88" y="27.38" width="0.68" height="0.68" rx="0.05" ry="0.05" transform="translate(104.44 55.45) rotate(-180)"/><rect class="cls-24" x="50.71" y="27.38" width="0.68" height="0.68" rx="0.05" ry="0.05" transform="translate(102.09 55.45) rotate(-180)"/><rect class="cls-25" x="49.53" y="27.38" width="0.68" height="0.68" rx="0.05" ry="0.05" transform="translate(99.75 55.45) rotate(-180)"/><rect class="cls-26" x="48.36" y="27.38" width="0.68" height="0.68" rx="0.05" ry="0.05" transform="translate(97.4 55.45) rotate(-180)"/><rect class="cls-27" x="53.06" y="28.62" width="0.68" height="0.68" rx="0.05" ry="0.05" transform="translate(106.79 57.92) rotate(-180)"/><rect class="cls-28" x="51.88" y="28.62" width="0.68" height="0.68" rx="0.05" ry="0.05" transform="translate(104.44 57.92) rotate(-180)"/><rect class="cls-29" x="50.71" y="28.62" width="0.68" height="0.68" rx="0.05" ry="0.05" transform="translate(102.09 57.92) rotate(-180)"/><rect class="cls-30" x="49.53" y="28.62" width="0.68" height="0.68" rx="0.05" ry="0.05" transform="translate(99.75 57.92) rotate(-180)"/><rect class="cls-31" x="48.36" y="28.62" width="0.68" height="0.68" rx="0.05" ry="0.05" transform="translate(97.4 57.92) rotate(-180)"/><rect class="cls-32" x="53.06" y="29.86" width="0.68" height="0.68" rx="0.05" ry="0.05" transform="translate(106.79 60.39) rotate(-180)"/><rect class="cls-33" x="51.88" y="29.86" width="0.68" height="0.68" rx="0.05" ry="0.05" transform="translate(104.44 60.39) rotate(-180)"/><rect class="cls-34" x="50.71" y="29.86" width="0.68" height="0.68" rx="0.05" ry="0.05" transform="translate(102.09 60.39) rotate(-180)"/><rect class="cls-35" x="49.53" y="29.86" width="0.68" height="0.68" rx="0.05" ry="0.05" transform="translate(99.75 60.39) rotate(-180)"/><rect class="cls-36" x="48.36" y="29.86" width="0.68" height="0.68" rx="0.05" ry="0.05" transform="translate(97.4 60.39) rotate(-180)"/><rect class="cls-37" x="53.06" y="31.09" width="0.68" height="0.68" rx="0.05" ry="0.05" transform="translate(106.79 62.87) rotate(-180)"/><rect class="cls-38" x="51.88" y="31.09" width="0.68" height="0.68" rx="0.05" ry="0.05" transform="translate(104.44 62.87) rotate(-180)"/><rect class="cls-39" x="50.71" y="31.09" width="0.68" height="0.68" rx="0.05" ry="0.05" transform="translate(102.09 62.87) rotate(-180)"/><rect class="cls-40" x="49.53" y="31.09" width="0.68" height="0.68" rx="0.05" ry="0.05" transform="translate(99.75 62.87) rotate(-180)"/><rect class="cls-41" x="48.36" y="31.09" width="0.68" height="0.68" rx="0.05" ry="0.05" transform="translate(97.4 62.87) rotate(-180)"/><rect class="cls-42" x="53.06" y="32.33" width="0.68" height="0.68" rx="0.05" ry="0.05" transform="translate(106.79 65.34) rotate(-180)"/><rect class="cls-43" x="51.88" y="32.33" width="0.68" height="0.68" rx="0.05" ry="0.05" transform="translate(104.44 65.34) rotate(-180)"/><rect class="cls-44" x="50.71" y="32.33" width="0.68" height="0.68" rx="0.05" ry="0.05" transform="translate(102.09 65.34) rotate(-180)"/><rect class="cls-45" x="49.53" y="32.33" width="0.68" height="0.68" rx="0.05" ry="0.05" transform="translate(99.75 65.34) rotate(-180)"/><rect class="cls-46" x="48.36" y="32.33" width="0.68" height="0.68" rx="0.05" ry="0.05" transform="translate(97.4 65.34) rotate(-180)"/><rect class="cls-47" x="53.06" y="33.57" width="0.68" height="0.68" rx="0.05" ry="0.05" transform="translate(106.79 67.81) rotate(-180)"/><rect class="cls-48" x="51.88" y="33.57" width="0.68" height="0.68" rx="0.05" ry="0.05" transform="translate(104.44 67.81) rotate(-180)"/><rect class="cls-49" x="50.71" y="33.57" width="0.68" height="0.68" rx="0.05" ry="0.05" transform="translate(102.09 67.81) rotate(-180)"/><rect class="cls-50" x="49.53" y="33.57" width="0.68" height="0.68" rx="0.05" ry="0.05" transform="translate(99.75 67.81) rotate(-180)"/><rect class="cls-51" x="48.36" y="33.57" width="0.68" height="0.68" rx="0.05" ry="0.05" transform="translate(97.4 67.81) rotate(-180)"/><rect class="cls-52" x="53.06" y="34.8" width="0.68" height="0.68" rx="0.05" ry="0.05" transform="translate(106.79 70.29) rotate(-180)"/><rect class="cls-53" x="51.88" y="34.8" width="0.68" height="0.68" rx="0.05" ry="0.05" transform="translate(104.44 70.29) rotate(-180)"/><rect class="cls-54" x="50.71" y="34.8" width="0.68" height="0.68" rx="0.05" ry="0.05" transform="translate(102.09 70.29) rotate(-180)"/><rect class="cls-55" x="49.53" y="34.8" width="0.68" height="0.68" rx="0.05" ry="0.05" transform="translate(99.75 70.29) rotate(-180)"/><rect class="cls-56" x="48.36" y="34.8" width="0.68" height="0.68" rx="0.05" ry="0.05" transform="translate(97.4 70.29) rotate(-180)"/><rect class="cls-57" x="53.06" y="36.04" width="0.68" height="0.68" rx="0.05" ry="0.05" transform="translate(106.79 72.76) rotate(-180)"/><rect class="cls-58" x="51.88" y="36.04" width="0.68" height="0.68" rx="0.05" ry="0.05" transform="translate(104.44 72.76) rotate(-180)"/><rect class="cls-59" x="50.71" y="36.04" width="0.68" height="0.68" rx="0.05" ry="0.05" transform="translate(102.09 72.76) rotate(-180)"/><rect class="cls-60" x="49.53" y="36.04" width="0.68" height="0.68" rx="0.05" ry="0.05" transform="translate(99.75 72.76) rotate(-180)"/><rect class="cls-61" x="48.36" y="36.04" width="0.68" height="0.68" rx="0.05" ry="0.05" transform="translate(97.4 72.76) rotate(-180)"/><path class="cls-62" d="M40.54,31.88a.61.61,0,0,1,.61.61v3h4.22v.15a2.68,2.68,0,0,1-2.68,2.73H40.88V37.23H37.2V31.88Z"/><path class="cls-63" d="M60.34,28.21s0,.07-.11.12h-.07a.23.23,0,0,1-.12-.07A.9.9,0,0,1,60.34,28.21Z"/><path class="cls-64" d="M27.33,59.67a28,28,0,0,0,9.47-.15,22.19,22.19,0,0,0,.05-4.19Z"/><path class="cls-65" d="M18,56.47A27.86,27.86,0,0,0,31.65,60a28.22,28.22,0,0,0,3.47-.22,27.6,27.6,0,0,0,.09-3.31Z"/><path class="cls-64" d="M18,56.47a27.8,27.8,0,0,0,8.56,3.07,65.9,65.9,0,0,1,8.64-2.26h0l-3.4-.81Z"/><path class="cls-66" d="M22.81,56.73l-1.35-.56a.69.69,0,0,0-.9.37l-.34.82a.67.67,0,0,0,0,.18A27.78,27.78,0,0,0,25,59.2,3.79,3.79,0,0,0,22.81,56.73Z"/><path class="cls-67" d="M22.49,12.62a22,22,0,0,1,2.5.18c1.15.23,12.61,11,12.61,11l-5,9.59H23.88l-5.75-3.62"/><path class="cls-68" d="M48.73,27.74c-3.38-.27-3.13,11.93-5.76,3.47-4.6-14.8-7.13-12.7-7.13-12.7L35.21,35l-7.5,3.86s2.47,7.4,13.23,9.3S52.11,28,48.73,27.74Z"/><path class="cls-69" d="M34,45.75a21,21,0,0,0,6.91,2.43,6.21,6.21,0,0,0,4.12-.59h0c-1.43.44-3.64-.23-2.61-2.77s5.55-2.47,3.77-5.41-.48-7.34-.47-7.39C45,34.3,44.4,35.8,43,31.21c-4.6-14.8-7.13-12.7-7.13-12.7L35.21,35l-2.4,1.23Z"/><path class="cls-68" d="M40.94,48.18c-1.71-6.85-.26-34.76-15.42-34.92l9.69,9.09S36.28,28.78,31,29c-10.07,0-8-16.36-8-16.36C11.8,12.2,8,31.13,6.59,44.5A28.1,28.1,0,0,0,19.92,57.43H33.75A7.39,7.39,0,0,0,41,48.55Z"/><path class="cls-70" d="M28.29,28.52c-7-2.68-5.3-15.89-5.3-15.89-11.2-.43-15,18.5-16.4,31.88A28.1,28.1,0,0,0,19.92,57.42h7.8c-9.59-2.33-6.12-14.7,0-17.72a6.81,6.81,0,0,0,3.9-5.83A5.25,5.25,0,0,0,28.29,28.52Z"/><path class="cls-71" d="M22.27,55.73,20,54.37l-.74,1.89a2.43,2.43,0,0,0,1.27,1.95,1.51,1.51,0,0,0,.27.12,2.62,2.62,0,0,0,.78.18h0a5.72,5.72,0,0,0,1.43,0c1.72-.25,1.71.18,2.26.08s.18-1.63-1.31-2.07A7.35,7.35,0,0,1,22.27,55.73Z"/><path class="cls-72" d="M30.63,27.74a3.78,3.78,0,0,1-3.56-4,3.78,3.78,0,0,1,3.56-4,3.78,3.78,0,0,1,3.56,4A3.78,3.78,0,0,1,30.63,27.74Z"/><path class="cls-73" d="M38.63,14.08a5.73,5.73,0,0,1-1.48-2.87l-.74-3.85A6.64,6.64,0,0,0,30,11.72l0,0a4.47,4.47,0,0,1-4.26,1.18,9.16,9.16,0,0,0-1.43-.23c-1.08,16.42,6.74,15,6.74,15V25.1a2.42,2.42,0,0,1,2.52-2.41,7.3,7.3,0,0,0,2.46-.3c1.26-.42,1.92-2.57,2.21-3.83a2.25,2.25,0,0,1,1.06-1.45l.57-.33C40.56,16.35,39.54,15,38.63,14.08Z"/><path class="cls-74" d="M38.88,16.15c.07-.58-2.47-2.81-2.54-3.73A2.45,2.45,0,0,1,36.8,11a1,1,0,0,0,.15-.75l-.51-2.65-.62-.16h-.26l-2.93,1A6.8,6.8,0,0,0,30,11.72l0,0a4.47,4.47,0,0,1-4.26,1.18,9.16,9.16,0,0,0-1.43-.23c-.54,8.25,1.16,12,3,13.69a2.6,2.6,0,0,1,1.08-3.71c2.06-1.13,5.51-.07,5.71,0h0c-.77-.18-.6-1.43.33-2.31S35,19,34,17.16s1.1-3.22,2.79-2.19,1.34,3.86,1.34,3.93l.08-.34a2.25,2.25,0,0,1,1.06-1.45l.57-.33a.48.48,0,0,0,.21-.23C39.76,17.09,38.81,16.72,38.88,16.15Z"/><path id="_Path_" data-name="&lt;Path&gt;" class="cls-68" d="M19.82,26.86l-4.41,7.48A11.36,11.36,0,0,0,15.49,46l5.37,8.81-1.44,2S5.78,47.7,4.22,42.57c-2.48-8.19,3.14-24.35,14.86-29.2h0A2.44,2.44,0,0,1,22.43,16l-1.09,6.65a12.21,12.21,0,0,1-1.52,4.2Z"/><path id="_Path_2" data-name="&lt;Path&gt;" class="cls-75" d="M35.21,10s-1.4,3.59-1.9,2.73c-.7-1.21-2.25-1.3-2.25.58,0,.74-1.55-1.15-1.55-1.15S32.78,8.78,35.21,10Z"/><path id="_Path_3" data-name="&lt;Path&gt;" class="cls-76" d="M30,11.72a42.72,42.72,0,0,0,7.55-2.83A.46.46,0,0,0,37.43,8,11.66,11.66,0,0,0,35,7.7S30,7.6,30,11.72Z"/><path id="_Path_4" data-name="&lt;Path&gt;" class="cls-77" d="M30,11.72s9.24-4.43,7.35-4.83C30.64,5.46,30,7.19,30,11.72Z"/><path class="cls-71" d="M49.17,29.65a1.24,1.24,0,0,1-1.78-1.22c.11-1.2.43-3,1.37-3.16,1.43-.26,2.9-.75,3.35,0C52.45,25.81,50.88,28.79,49.17,29.65Z"/><path class="cls-78" d="M44.62,20.81a.27.27,0,0,1,.19-.32c.61-.17,2.2-.45,2.57.94.47,1.74.12,3,1,3.38a1.22,1.22,0,0,0,1.73-.87c0-.59,3.36-.9,3.56.27.4,2.32-1.76,4.17-4.54,3.86s-2.5-3.52-2.5-5.46c0-1.74-1-1.8-1.66-1.61a.27.27,0,0,1-.34-.2Z"/><path class="cls-79" d="M49.06,7.32A2.46,2.46,0,0,0,44.3,8.46a4.45,4.45,0,0,1-.19,2.08,2.46,2.46,0,0,0,3.4,3A5.88,5.88,0,0,1,49.45,13a2.54,2.54,0,0,0,.54-.12,2.46,2.46,0,0,0,0-4.66A1.4,1.4,0,0,1,49.06,7.32Z"/><path class="cls-80" d="M44.48,7.12a2.4,2.4,0,0,0-.2.73,2.47,2.47,0,0,0,0,.61,4.45,4.45,0,0,1-.19,2.08,2.46,2.46,0,0,0,3.4,3A5.88,5.88,0,0,1,49.45,13a2.54,2.54,0,0,0,.54-.12,2.44,2.44,0,0,0,1.2-.92A28.07,28.07,0,0,0,44.48,7.12Z"/><path class="cls-81" d="M58.61,15.39a2.46,2.46,0,0,0-4.07-1.51,1.18,1.18,0,0,1-1,.27,2.46,2.46,0,0,0-2.36,4,1.23,1.23,0,0,1,.17,1.34,1.46,1.46,0,0,0,2.38,1.63.83.83,0,0,1,.91-.18,2.46,2.46,0,0,0,3.32-2.62,1.78,1.78,0,0,1,.29-1.24A2.45,2.45,0,0,0,58.61,15.39Z"/><path class="cls-82" d="M53.19,14.12a2.45,2.45,0,0,0-2,4,1.23,1.23,0,0,1,.17,1.34,1.46,1.46,0,0,0,2.38,1.63.83.83,0,0,1,.91-.18,2.44,2.44,0,0,0,2.55-.49A28,28,0,0,0,53.19,14.12Z"/><path class="cls-83" d="M20.19,55.78l-.76,1.07S5.78,47.7,4.22,42.57C2.85,38.05,4,31.11,7.17,25a20.17,20.17,0,0,0-1.51,6.68C5.1,41.65,15.86,51.71,20.19,55.78Z"/></g></g></svg>