<svg id="Layer_1" data-name="Layer 1" xmlns="http://www.w3.org/2000/svg" xmlns:xlink="http://www.w3.org/1999/xlink" viewBox="0 0 64 64"><defs><style>.cls-1{fill:url(#linear-gradient);}.cls-2{fill:url(#linear-gradient-2);}.cls-3{fill:url(#linear-gradient-3);}.cls-4{fill:url(#linear-gradient-4);}.cls-5{fill:url(#linear-gradient-5);}.cls-6{fill:url(#linear-gradient-6);}.cls-7{fill:url(#linear-gradient-7);}.cls-8{fill:url(#linear-gradient-8);}.cls-9{fill:url(#linear-gradient-9);}.cls-10{fill:#071c2a;}.cls-11{fill:#00a887;}.cls-12{fill:#f9aa8f;}.cls-13{fill:url(#linear-gradient-10);}.cls-14{fill:url(#linear-gradient-11);}.cls-15{fill:#3e5c73;}.cls-16{fill:#f79e86;}.cls-17{fill:url(#linear-gradient-12);}.cls-18{fill:url(#linear-gradient-13);}.cls-19{fill:url(#linear-gradient-14);}.cls-20{fill:url(#linear-gradient-15);}.cls-21{fill:#476b84;}.cls-22{fill:url(#linear-gradient-16);}.cls-23{fill:url(#linear-gradient-17);}.cls-24{fill:url(#linear-gradient-18);}.cls-25{fill:url(#linear-gradient-19);}.cls-26{fill:url(#linear-gradient-20);}.cls-27{fill:url(#linear-gradient-21);}.cls-28{fill:url(#linear-gradient-22);}</style><linearGradient id="linear-gradient" x1="32.95" y1="90.75" x2="32.95" y2="19" gradientUnits="userSpaceOnUse"><stop offset="0" stop-color="#ffeba7"/><stop offset="0.51" stop-color="#f6a000"/><stop offset="1" stop-color="#ff6d00"/></linearGradient><linearGradient id="linear-gradient-2" x1="1895.62" y1="29.19" x2="1895.62" y2="-32.34" gradientTransform="translate(-1880.22)" xlink:href="#linear-gradient"/><linearGradient id="linear-gradient-3" x1="1893.26" y1="31.32" x2="1893.26" y2="-30.22" gradientTransform="translate(-1880.22)" xlink:href="#linear-gradient"/><linearGradient id="linear-gradient-4" x1="1927.3" y1="31.32" x2="1927.3" y2="-30.22" gradientTransform="translate(-1880.22)" xlink:href="#linear-gradient"/><linearGradient id="linear-gradient-5" x1="1922.55" y1="31.32" x2="1922.55" y2="-30.22" gradientTransform="translate(-1880.22)" xlink:href="#linear-gradient"/><linearGradient id="linear-gradient-6" x1="1908.02" y1="41.61" x2="1908.02" y2="-19.93" gradientTransform="translate(-1880.22)" xlink:href="#linear-gradient"/><linearGradient id="linear-gradient-7" x1="1904.15" y1="20.45" x2="1904.15" y2="-41.09" gradientTransform="translate(-1880.22)" xlink:href="#linear-gradient"/><linearGradient id="linear-gradient-8" x1="1921.65" y1="31.32" x2="1921.65" y2="-30.22" gradientTransform="translate(-1880.22)" xlink:href="#linear-gradient"/><linearGradient id="linear-gradient-9" x1="32.95" y1="76" x2="32.95" y2="46.18" xlink:href="#linear-gradient"/><linearGradient id="linear-gradient-10" x1="-1.7" y1="267.11" x2="0.31" y2="255.86" gradientTransform="translate(9.16 -243.44) rotate(-5.73)" gradientUnits="userSpaceOnUse"><stop offset="0" stop-color="#f9aa8f"/><stop offset="1" stop-color="#f78e6b"/></linearGradient><linearGradient id="linear-gradient-11" x1="-55.49" y1="-847.6" x2="-52.53" y2="-845.1" gradientTransform="translate(-199.07 829.98) rotate(20.16)" gradientUnits="userSpaceOnUse"><stop offset="0" stop-color="#476b84"/><stop offset="0.1" stop-color="#446780"/><stop offset="0.47" stop-color="#3e5e77"/><stop offset="1" stop-color="#3c5b74"/></linearGradient><linearGradient id="linear-gradient-12" x1="55.07" y1="50.34" x2="31.43" y2="33.65" gradientTransform="matrix(1, 0, 0, 1, 0, 0)" xlink:href="#linear-gradient-10"/><linearGradient id="linear-gradient-13" x1="39.21" y1="47.47" x2="47.77" y2="32.42" gradientTransform="matrix(1, 0, 0, 1, 0, 0)" xlink:href="#linear-gradient-10"/><linearGradient id="linear-gradient-14" x1="37.8" y1="35.26" x2="42.63" y2="35.26" gradientUnits="userSpaceOnUse"><stop offset="0" stop-color="#00a887"/><stop offset="0.46" stop-color="#01a685"/><stop offset="0.73" stop-color="#029d7f"/><stop offset="0.95" stop-color="#058f74"/><stop offset="1" stop-color="#068b71"/></linearGradient><linearGradient id="linear-gradient-15" x1="25.15" y1="93.67" x2="25.15" y2="-25.33" xlink:href="#linear-gradient"/><linearGradient id="linear-gradient-16" x1="40.55" y1="20.71" x2="44.06" y2="1" gradientTransform="matrix(1, 0, 0, 1, 0, 0)" xlink:href="#linear-gradient-10"/><linearGradient id="linear-gradient-17" x1="47.72" y1="18.66" x2="50.52" y2="18.66" gradientUnits="userSpaceOnUse"><stop offset="0" stop-color="#476b84"/><stop offset="1" stop-color="#3c5b74"/></linearGradient><linearGradient id="linear-gradient-18" x1="45.07" y1="31.14" x2="45.07" y2="36.05" gradientUnits="userSpaceOnUse"><stop offset="0" stop-color="#068b71"/><stop offset="0.04" stop-color="#058e73"/><stop offset="0.27" stop-color="#029d7e"/><stop offset="0.56" stop-color="#01a585"/><stop offset="1" stop-color="#00a887"/></linearGradient><linearGradient id="linear-gradient-19" x1="57.11" y1="17.63" x2="49.35" y2="13.48" gradientTransform="matrix(1, 0, 0, 1, 0, 0)" xlink:href="#linear-gradient-10"/><linearGradient id="linear-gradient-20" x1="24.64" y1="52.33" x2="24.64" y2="22.63" xlink:href="#linear-gradient"/><linearGradient id="linear-gradient-21" x1="24.64" y1="53.25" x2="24.64" y2="31.89" xlink:href="#linear-gradient"/><linearGradient id="linear-gradient-22" x1="24.64" y1="46.75" x2="24.64" y2="22.55" xlink:href="#linear-gradient"/></defs><title>soccer</title><circle class="cls-1" cx="32.95" cy="32" r="28"/><path class="cls-2" d="M27.74,14.9c-5.19-1.74-9.55-4.53-10.81-6.37s-3.44-1.38-4-2.46a7.28,7.28,0,0,0-.77-1.2H3A139.73,139.73,0,0,0,27.74,14.9Z"/><path class="cls-3" d="M8.62,14.19s2-.6,3.25.6.52.39,1.45,1.16c.48.4,2.36.48,3.16,1.29s3.26,1.8,6,2.19A71.44,71.44,0,0,1,9.12,16.7,34.53,34.53,0,0,1,3.9,14.63.6.6,0,0,1,4.2,13.5a3.56,3.56,0,0,0,1.14-.09C6.77,13,8.62,14.19,8.62,14.19Z"/><path class="cls-4" d="M35.32,20.41s4.61.86,7.29.29,4.09.61,5.9-.19a3.2,3.2,0,0,1,3.88,1c.51.76,1.87,0,2.9.68s3.57.62,3.57.62S51.09,25.28,35.32,20.41Z"/><path class="cls-5" d="M35.8,14.8a11.24,11.24,0,0,0,4.07.22c1.54-.38,2.26.42,3.32-.12a1.53,1.53,0,0,1,2.12.69c.24.52,1.05,0,1.59.47a3.86,3.86,0,0,0,2,.43S44.36,18.15,35.8,14.8Z"/><path class="cls-6" d="M25.61,20.92s3,1,4.37.73a4.47,4.47,0,0,1-1.18-.57,1.51,1.51,0,0,0-1.4-.29c-.32.2-.44-.28-.8-.1A3.58,3.58,0,0,1,25.61,20.92Z"/><path class="cls-7" d="M21.74,8.53s3,1,4.37.73a4.47,4.47,0,0,1-1.18-.57,1.51,1.51,0,0,0-1.4-.29c-.32.2-.44-.28-.8-.1A3.58,3.58,0,0,1,21.74,8.53Z"/><path class="cls-8" d="M43,11.25a9.36,9.36,0,0,1-3.15-.75,3.27,3.27,0,0,0,1-.05,1.1,1.1,0,0,1,1,.2c.16.22.38-.07.57.16A2.62,2.62,0,0,0,43,11.25Z"/><path class="cls-9" d="M7.65,44a28,28,0,0,0,50.6,0Z"/><circle class="cls-10" cx="46.43" cy="6.97" r="2.97"/><circle class="cls-11" cx="44.04" cy="6.85" r="1.92"/><path class="cls-12" d="M46.2,12.9a13.71,13.71,0,0,0-5.67,1.2c-.59.24-1.12.47-1.55.66l0,0-.52.24a4.26,4.26,0,0,1-1.48.41,4.06,4.06,0,0,1-.72,0,4,4,0,0,1-.84-.17c-3.69-1.15-5.76-7.16-5.76-7.16l-.7.38c.66,6.79,3.56,9.82,6.12,11a5.15,5.15,0,0,0,3.55.46l.33-1.5Z"/><path class="cls-13" d="M38.65,14.92l-.22.1a4.26,4.26,0,0,1-1.48.41,4.06,4.06,0,0,1-.72,0l-.37-.05h0c-1.16.58.45,3.47-1.68,2.95s-3.82-4-3.91-4.17a9.58,9.58,0,0,0,4.78,5.3,5.15,5.15,0,0,0,3.55.46l.33-1.5.07-.05Z"/><path class="cls-14" d="M40.53,14.1c-.59.24-1.12.47-1.55.66l0,0-.52.24a4.26,4.26,0,0,1-1.48.41,4.08,4.08,0,0,1-.52,0,8.83,8.83,0,0,0,.77,4.6c1.24.21,4.68-.71,4.68-.71l.91-.43,3.4-6A13.71,13.71,0,0,0,40.53,14.1Z"/><path class="cls-12" d="M28.93,8.48S28.87,6.3,30.65,6.9,31.93,9.13,31.3,9c0,0-.3.9-.91.9"/><path id="_Path_" data-name="&lt;Path&gt;" class="cls-15" d="M48.26,41s-.16.5-1.78.58l.72-1.7A3.11,3.11,0,0,1,48.26,41Z"/><path id="_Path_2" data-name="&lt;Path&gt;" class="cls-16" d="M38.51,30.32s-4,26,17.43,14.17l.45-1.41S40.8,51,46,31.25Z"/><path class="cls-17" d="M47.58,44.06c-1.53-.81-2.65-2.56-2.65-5.92L38.25,36.5h0q0,.39.05.79v0q0,.19,0,.39h0q0,.4.09.8v0l.06.39v0q.06.4.14.8v0l.08.39v0q.09.4.19.79v0l.11.38v0q.12.39.25.76v0l.14.37h0q.15.37.32.73h0l.18.35h0q.19.35.4.67h0l.22.32h0a7.69,7.69,0,0,0,.49.6h0l.26.28h0a6.74,6.74,0,0,0,.58.51h0l.31.23h0a6.4,6.4,0,0,0,1,.58h0a6.7,6.7,0,0,0,.78.29,13.34,13.34,0,0,0,2.63-2.49A2.44,2.44,0,0,1,47.58,44.06Z"/><path class="cls-12" d="M31.55,60q.66,0,1.32,0L39,52.83a5.81,5.81,0,0,0,1-1.75h0A11,11,0,0,1,41.82,48l1.81-2.22a29.55,29.55,0,0,0,4.27-7,56.35,56.35,0,0,0,2.36-6.43l-7.75-.57A79.61,79.61,0,0,1,31.55,60Z"/><path class="cls-18" d="M43.17,46.29l2.77-3.4c.92-1.83,1.66-3.46,2.25-4.9l-4.72-2-1.93.16c-.47,1.9-1,3.72-1.52,5.43h0a4.14,4.14,0,0,1,3.58.21c1.61,1.06.46,3.44-.44,4.54Z"/><path class="cls-11" d="M58.14,43.29l0-.35-.29,0,0-.34-1.63.57-.52,1.43S57.13,48.95,57.3,48c0-.13,0-.28.07-.43l.3,0,0-.35-.3,0,.05-.37.27,0,0-.35-.28,0,0-.37.26,0,0-.35-.27,0,0-.37.25,0,0-.35-.26,0,0-.38.25,0,0-.35-.27,0,0-.37.26,0,0-.35-.27,0,0-.38Z"/><path id="_Path_3" data-name="&lt;Path&gt;" class="cls-19" d="M38.3,30.88l-.49,6.63a2,2,0,0,0,2.91,1.89l.08,0s1.83-6.79,1.83-7.68Z"/><path id="_Path_4" data-name="&lt;Path&gt;" class="cls-11" d="M40.8,39.36s3.43-2.42,7.46,1.61a70.3,70.3,0,0,0,2.24-8.72l-7.87-.57Z"/><path class="cls-20" d="M23.72,53.23a4.59,4.59,0,0,0-3.13,3.89A27.79,27.79,0,0,0,29,59.71a4.34,4.34,0,0,0,.5-3.76A4.51,4.51,0,0,0,23.72,53.23Z"/><path id="_Path_5" data-name="&lt;Path&gt;" class="cls-21" d="M38.26,31.39s.94-11.46,2.32-17c.08-.32,2.76,0,2.06-2.06-.61-1.76.15.42,2,.34.76,0,2.74-.67,3.77-.65,0,0,4.25,11.95,2.85,21.18-.27,1.8-4.11-3.21-8.83-.52A2.73,2.73,0,0,1,38.26,31.39Z"/><path class="cls-12" d="M44,11.2,44.49,8,41.83,6.65s-3.11-.39-3.55,1.83c-.27,1.33.43,4.53,1.87,5a1.73,1.73,0,0,0,1.31-.26.5.5,0,0,1,.74.46,1.61,1.61,0,0,1-.15.54h0a3.18,3.18,0,0,1-.26.47,1,1,0,0,0,1.32,1.51c.91-.45,2.06-1.54,3.38-3.89A2.36,2.36,0,0,1,44,11.2Z"/><path class="cls-22" d="M44,11.2,44.49,8,41.83,6.65s-3.11-.39-3.55,1.83a3.49,3.49,0,0,0-.06.69v0s.78-.36.8-.11a14.64,14.64,0,0,1,.34,2.25,2.73,2.73,0,0,1-.44.13.35.35,0,0,0,.46.29c.42-.08.52-.08.46-.78s-.46-1.87.42-2S42,8.78,42,10.92s-.46,2.23-.85,2.49h0a2.43,2.43,0,0,1,2.34-.1c1.21.64-1.55,1.95-.73,2.24s.21.76.21.76l.15-.06c.91-.45,2.06-1.54,3.38-3.89A2.36,2.36,0,0,1,44,11.2Z"/><path id="_Path_6" data-name="&lt;Path&gt;" class="cls-23" d="M47.72,18.13s2.58.64,2.8,2.1c0,0-.38-2.38-.54-3.14A7.23,7.23,0,0,0,47.72,18.13Z"/><path id="_Path_7" data-name="&lt;Path&gt;" class="cls-24" d="M39.87,33.08s2.51.87,1.74,2.88c0,0,3.23-5.19,8.47-1.65l.17-.81s-4.39-2.95-7.88-.78A4.59,4.59,0,0,1,39.87,33.08Z"/><path class="cls-10" d="M38.23,8.79S38.47,4.62,42.35,5,46.76,9,44,11.21c0,0-.7-.68-.37-.92s1-1.55,0-1.9c-.62-.21-.84.37-.92.76a.27.27,0,0,1-.33.21h0A.27.27,0,0,1,42.12,9a1.28,1.28,0,0,0-.26-1.24c-.31-.25-1.41.09-2.31.43C38.83,8.51,38.23,8.79,38.23,8.79Z"/><path class="cls-12" d="M52.41,12.65A8.91,8.91,0,0,0,51,12.2a2.6,2.6,0,0,0-3.14,2.7v.05a2.62,2.62,0,0,0,2.77,2.45,4.76,4.76,0,0,1,.56,0,4.64,4.64,0,0,1,1,.18c4.37,1.25,7,8.25,7,8.25l.81-.47C58.95,17.41,55.46,13.93,52.41,12.65Z"/><path class="cls-25" d="M55.72,15a9.79,9.79,0,0,0-3.31-2.33A8.9,8.9,0,0,0,51,12.2a2.57,2.57,0,0,0-1.06,0l2.81,5.6.51.24a2.7,2.7,0,0,0,1-2.92C53.87,13.56,55.59,14.88,55.72,15Z"/><path class="cls-21" d="M47,12.24l.54,6a8,8,0,0,1,3.62-.81,4.64,4.64,0,0,1,1,.18l.43.14A8.13,8.13,0,0,0,53,13.9a8.45,8.45,0,0,0-.2-1.08l-.38-.17A10.17,10.17,0,0,0,47,12.24Z"/><path class="cls-12" d="M58.63,24.41s-1.4,2.47-.78,2.95c0,0-1.23.58.13,1.05s2.59-.87,1.75-4.34"/><path class="cls-26" d="M15.6,32H33.68a1.77,1.77,0,0,1,1.77,1.77V44a0,0,0,0,1,0,0H13.83a0,0,0,0,1,0,0V33.77A1.77,1.77,0,0,1,15.6,32Z"/><rect class="cls-27" x="17.93" y="36.5" width="13.43" height="7.5"/><path class="cls-28" d="M15.6,32a1.77,1.77,0,0,0-1.25.52l3.57,4H31.35l3.57-4A1.77,1.77,0,0,0,33.68,32Z"/></svg>