<svg id="Layer_1" data-name="Layer 1" xmlns="http://www.w3.org/2000/svg" xmlns:xlink="http://www.w3.org/1999/xlink" viewBox="0 0 64 64"><defs><style>.cls-1{fill:url(#linear-gradient);}.cls-2{fill:url(#linear-gradient-2);}.cls-3{fill:url(#linear-gradient-3);}.cls-4{fill:url(#linear-gradient-4);}.cls-5{fill:url(#linear-gradient-5);}.cls-6{fill:url(#linear-gradient-6);}.cls-7{fill:url(#linear-gradient-7);}.cls-8{fill:url(#linear-gradient-8);}.cls-9{fill:url(#linear-gradient-9);}.cls-10{fill:url(#linear-gradient-10);}.cls-11{fill:url(#linear-gradient-11);}.cls-12{fill:url(#linear-gradient-12);}.cls-13{fill:url(#linear-gradient-13);}.cls-14{fill:url(#linear-gradient-14);}.cls-15{fill:#f16c52;}.cls-16{fill:url(#linear-gradient-15);}.cls-17{fill:url(#linear-gradient-16);}.cls-18{fill:url(#linear-gradient-17);}.cls-19{fill:url(#linear-gradient-18);}.cls-20{fill:#d7e8f9;}.cls-21{fill:url(#linear-gradient-19);}.cls-22{fill:url(#linear-gradient-20);}.cls-23{fill:#292a4f;}.cls-24{fill:#f9aa8f;}.cls-25{fill:url(#linear-gradient-21);}.cls-26{fill:url(#linear-gradient-22);}.cls-27{fill:url(#linear-gradient-23);}</style><linearGradient id="linear-gradient" x1="32" y1="97.25" x2="32" y2="9.14" gradientUnits="userSpaceOnUse"><stop offset="0" stop-color="#d1efe7"/><stop offset="0.53" stop-color="#97efe7"/><stop offset="1" stop-color="#3ccbe3"/></linearGradient><linearGradient id="linear-gradient-2" x1="34.7" y1="51.08" x2="34.7" y2="8.62" xlink:href="#linear-gradient"/><linearGradient id="linear-gradient-3" x1="18.03" y1="46.48" x2="18.03" y2="-18.8" xlink:href="#linear-gradient"/><linearGradient id="linear-gradient-4" x1="37.81" y1="47.44" x2="37.81" y2="-27.81" xlink:href="#linear-gradient"/><linearGradient id="linear-gradient-5" x1="42.66" y1="66.82" x2="42.66" y2="46.3" gradientUnits="userSpaceOnUse"><stop offset="0" stop-color="#caf1d8"/><stop offset="0.51" stop-color="#7defa4"/><stop offset="1" stop-color="#2fbca4"/></linearGradient><linearGradient id="linear-gradient-6" x1="27.77" y1="66.61" x2="27.77" y2="46.5" xlink:href="#linear-gradient-5"/><linearGradient id="linear-gradient-7" x1="16.13" y1="57.29" x2="16.13" y2="52.63" xlink:href="#linear-gradient-5"/><linearGradient id="linear-gradient-8" x1="45.68" y1="13.98" x2="41.97" y2="4.7" xlink:href="#linear-gradient"/><linearGradient id="linear-gradient-9" x1="50.21" y1="17.12" x2="42.31" y2="-2.64" xlink:href="#linear-gradient"/><linearGradient id="linear-gradient-10" x1="23.71" y1="27.69" x2="11.71" y2="-2.31" xlink:href="#linear-gradient"/><linearGradient id="linear-gradient-11" x1="29.87" y1="25.23" x2="17.87" y2="-4.77" xlink:href="#linear-gradient"/><linearGradient id="linear-gradient-12" x1="41.53" y1="20.56" x2="29.53" y2="-9.44" xlink:href="#linear-gradient"/><linearGradient id="linear-gradient-13" x1="999.79" y1="21.94" x2="999.79" y2="-39.6" gradientTransform="matrix(-1, 0, 0, 1, 1018.22, 0)" xlink:href="#linear-gradient-5"/><linearGradient id="linear-gradient-14" x1="32.3" y1="24.26" x2="20.3" y2="-5.74" xlink:href="#linear-gradient"/><linearGradient id="linear-gradient-15" x1="18.25" y1="54.01" x2="21.99" y2="46.87" gradientUnits="userSpaceOnUse"><stop offset="0" stop-color="#f16c52"/><stop offset="0.03" stop-color="#f16850"/><stop offset="0.23" stop-color="#ef5140"/><stop offset="0.45" stop-color="#ed4036"/><stop offset="0.7" stop-color="#ec362f"/><stop offset="1" stop-color="#ec332d"/></linearGradient><linearGradient id="linear-gradient-16" x1="33.93" y1="18.4" x2="30.87" y2="31.93" gradientUnits="userSpaceOnUse"><stop offset="0" stop-color="#1e1f3b"/><stop offset="0.63" stop-color="#292a4f"/></linearGradient><linearGradient id="linear-gradient-17" x1="8.41" y1="52.88" x2="16.27" y2="42.83" xlink:href="#linear-gradient-16"/><linearGradient id="linear-gradient-18" x1="11.64" y1="41.32" x2="47.63" y2="30.81" gradientUnits="userSpaceOnUse"><stop offset="0" stop-color="#1c1651"/><stop offset="1" stop-color="#130f38"/></linearGradient><linearGradient id="linear-gradient-19" x1="29.13" y1="54" x2="29.13" y2="-2.05" xlink:href="#linear-gradient-5"/><linearGradient id="linear-gradient-20" x1="26.09" y1="62" x2="26.09" y2="13.75" xlink:href="#linear-gradient-5"/><linearGradient id="linear-gradient-21" x1="23.48" y1="21.18" x2="11.31" y2="5.6" gradientUnits="userSpaceOnUse"><stop offset="0" stop-color="#f78e6b"/><stop offset="1" stop-color="#f9aa8f"/></linearGradient><linearGradient id="linear-gradient-22" x1="15.11" y1="11.7" x2="23.05" y2="11.7" xlink:href="#linear-gradient-16"/><linearGradient id="linear-gradient-23" x1="10.13" y1="15.83" x2="27.59" y2="1.67" xlink:href="#linear-gradient-15"/></defs><title>story telling</title><circle class="cls-1" cx="32" cy="32" r="28"/><path class="cls-2" d="M32,60A28,28,0,0,0,59.77,28.47l-4.7-5.12a2.59,2.59,0,0,0-3.63-.18L33.26,39.33a1.62,1.62,0,0,1-2.17,0l-4.61-4.25a1.89,1.89,0,0,0-2.56,0L9.39,48.51A28,28,0,0,0,32,60Z"/><path class="cls-3" d="M23.9,39.39a5.2,5.2,0,0,0,1.36-3.51v-.22a.8.8,0,0,0-1.33-.6h0L9.39,48.51a28.1,28.1,0,0,0,10.79,8.87l6.5-9.83-2.85-3.33A3.65,3.65,0,0,1,23.9,39.39Z"/><path class="cls-4" d="M55.36,30.43A10.89,10.89,0,0,1,53.24,24a1.08,1.08,0,0,0-1.79-.82h0L33.74,38.9l-17.8,16a28,28,0,0,0,35.23-2.54l5.69-7.86c.13-.18.29-.35.43-.52a27.8,27.8,0,0,0,2.38-7.72Z"/><path class="cls-5" d="M50.17,53.16a.32.32,0,0,0,.14-.44l-.91-1.63h0a.23.23,0,0,0,.15-.33l-1.77-3.19a.11.11,0,0,0-.19,0l-1.77,3.19a.23.23,0,0,0,.15.33h0l-.91,1.63a.32.32,0,0,0,.14.44l-.57,1-.33-.59h0a.23.23,0,0,0,.15-.33l-1.77-3.19a.11.11,0,0,0-.19,0L40.7,53.27a.23.23,0,0,0,.15.33h0l-.91,1.63a.32.32,0,0,0,.14.44l-.32.57-.37-.66a.19.19,0,0,0,.08-.26l-.53-.95h0a.13.13,0,0,0,.09-.19l-1-1.85a.06.06,0,0,0-.11,0l-1,1.85a.13.13,0,0,0,.09.19h0l-.53.95a.19.19,0,0,0,.08.26l-.69,1.24a.26.26,0,0,0,.08.34L35,58.73a.36.36,0,0,0,.23.52,11.9,11.9,0,0,0,1.91.26,27.89,27.89,0,0,0,13.05-6.26Z"/><path class="cls-6" d="M37.18,57.89l-.69-1.24a.19.19,0,0,0,.08-.26L36,55.45h0a.13.13,0,0,0,.09-.19l-1-1.85a.06.06,0,0,0-.11,0l-1,1.85a.13.13,0,0,0,.09.19h0l-.36.65L33,54.86h0a.23.23,0,0,0,.15-.33l-1.77-3.19a.11.11,0,0,0-.19,0L29.4,54.52a.23.23,0,0,0,.15.33h0l-.48.86-1-1.83a.32.32,0,0,0,.14-.44l-.91-1.63h0a.23.23,0,0,0,.15-.33l-1.77-3.19a.11.11,0,0,0-.19,0l-1.77,3.19a.23.23,0,0,0,.15.33h0l-.91,1.63a.32.32,0,0,0,.14.44l-.57,1-.33-.59h0a.23.23,0,0,0,.15-.33L20.54,50.8a.11.11,0,0,0-.19,0L18.57,54a.23.23,0,0,0,.15.33h0L17.82,56a.31.31,0,0,0,0,.16,28,28,0,0,0,20,3.29l-.65-1.18A.26.26,0,0,0,37.18,57.89Z"/><path class="cls-7" d="M17.18,55.76l-.36-.65h0a.13.13,0,0,0,.09-.19l-1-1.85a.06.06,0,0,0-.11,0l-.69,1.24Q16.1,55.08,17.18,55.76Z"/><path class="cls-8" d="M48.43,9.33A33.08,33.08,0,0,1,40,13.46s4-1.12,9.55-3.23Q49,9.76,48.43,9.33Z"/><path class="cls-9" d="M54,14.73a7.06,7.06,0,0,0-2.71,1.08c-.8.81-3.26,1.8-6,2.19a72.94,72.94,0,0,0,9.87-1.75C54.79,15.73,54.42,15.22,54,14.73Z"/><path class="cls-10" d="M32.47,19s-4.61.86-7.29.29-4.09.61-5.9-.19a3.2,3.2,0,0,0-3.88,1c-.51.76-1.87,0-2.9.68s-3.57.62-3.57.62S16.71,23.84,32.47,19Z"/><path class="cls-11" d="M32,13.36a11.24,11.24,0,0,1-4.07.22c-1.54-.38-2.26.42-3.32-.12a1.53,1.53,0,0,0-2.12.69c-.24.52-1.05,0-1.59.47a3.86,3.86,0,0,1-2,.43S23.44,16.71,32,13.36Z"/><path class="cls-12" d="M39.3,9.18s-3,1-4.37.73a4.47,4.47,0,0,0,1.18-.57A1.51,1.51,0,0,1,37.51,9c.32.2.44-.28.8-.1A3.58,3.58,0,0,0,39.3,9.18Z"/><path class="cls-13" d="M20.61,10s-3,1-4.37.73a4.47,4.47,0,0,0,1.18-.57,1.51,1.51,0,0,1,1.4-.29c.32.2.44-.28.8-.1A3.58,3.58,0,0,0,20.61,10Z"/><path class="cls-14" d="M24.79,9.8a9.36,9.36,0,0,0,3.15-.75A3.27,3.27,0,0,1,27,9a1.1,1.1,0,0,0-1,.2c-.16.22-.38-.07-.57.16A2.62,2.62,0,0,1,24.79,9.8Z"/><path class="cls-15" d="M29.13,46.65H14.3L15,54.23A27.86,27.86,0,0,0,30.6,60C29.84,51.27,29.13,46.65,29.13,46.65Z"/><path class="cls-16" d="M13.07,50.86l-.33,1.45a28,28,0,0,0,10,6.11c.63-2.21,1.17-4.35,1.56-6.35L19.1,50.36Z"/><path id="_Path_" data-name="&lt;Path&gt;" class="cls-17" d="M22.7,20.32S30.75,27,40.85,23.47c.82-.29,1.65-.52,2.26.09l0,0c.53.53.28.54-.08,1.19-1.66,3-10.22,10.41-19.14,5.26"/><path id="_Path_2" data-name="&lt;Path&gt;" class="cls-18" d="M24,57c-8.65,0-11.1-2.58-11.76-3.7a1.17,1.17,0,0,1-.11-.91c4.51-15.64-1.74-12.54-4.6-16.19,0,0-4.66-11.33,5-16.63,7.1-3.88,12,2.51,12,2.51l7.31,13.4S28.16,46.28,30.22,49.6C32.13,52.68,31,57,24,57Z"/><path class="cls-19" d="M29.13,39.28l-3.4-10.5a20.19,20.19,0,0,0-5.48,3c-2.65,2.09-4.15-6.41-4.15-6.41L10.9,38.48c2.4,1.32,4.25,3.35,1.21,13.89a1.17,1.17,0,0,0,.11.91,5.36,5.36,0,0,0,2.09,1.87h0s-2-4,2.93-3.57,11.43,1,12.36-4.94h0a21.72,21.72,0,0,1,.32-3.57C29.93,40.1,29.13,39.28,29.13,39.28Z"/><path class="cls-20" d="M22.58,33.13s0,0,0,0Z"/><path class="cls-21" d="M35.25,28.27H28.39a6.83,6.83,0,0,0-3.31.82,4.59,4.59,0,0,0-2,2.19,5.65,5.65,0,0,0-.48,2.34v9.57A3.47,3.47,0,0,0,26,46.65h4.67A3.68,3.68,0,0,0,34.38,43V33.11a5.85,5.85,0,0,1,1.15-3.92C35.8,28.89,35.66,28.27,35.25,28.27Z"/><path class="cls-22" d="M26,46.65h3.55c-5.58,0-5.14-4.24-2.13-6.37s2.21-5.81-1.7-7.59c-3.57-1.62-1.19-3.27-.75-3.55a4.6,4.6,0,0,0-1.95,2.15,5.65,5.65,0,0,0-.48,2.34v9.57A3.47,3.47,0,0,0,26,46.65Z"/><path id="_Path_3" data-name="&lt;Path&gt;" class="cls-23" d="M8.9,22.49C-.9,34,6.45,45.68,12.87,43.66c4.09-1.29,6.63-1.71,8.55-3.19.88-.67,1.28-1.3.51-2.7h0c0-.27.13.24,0,0-1.08-2.07-2.14-2.22-7.23-1a.83.83,0,0,1-.92-1.21c1.42-2.55,3.66-7.45,2.08-10.79C13.64,20.08,9.77,21.47,8.9,22.49Z"/><path id="_Path_4" data-name="&lt;Path&gt;" class="cls-24" d="M40.9,23.46s.53-1.61,3.22-1A5.16,5.16,0,0,0,46.81,22a.57.57,0,0,1,.64.85c-.84,1.29-2.3,2.86-4.29,2.36C40.56,24.52,40.9,23.46,40.9,23.46Z"/><path class="cls-24" d="M23.53,11.3l-1.8-4.86,0-.86a.71.71,0,0,0-.95-.45c-2.36,1-8.8,3.27-6.57,7.12,0,0,1.39,2.47,1.33,3.95a1.68,1.68,0,0,1-.15.62h0l0,.06A4.8,4.8,0,0,1,13,19.28s1.44,2.85,6,2.85c2.54,0,3.76-1.7,3-2.27-.29-.22-.64-.49-1-.8A1.25,1.25,0,0,1,21.31,17c1-.49,1.35-1.51,1.22-2.88,0-.17,0-.35,0-.53v0c0-.4.35-.59.71-.72C24.1,12.54,23.68,11.75,23.53,11.3Z"/><path class="cls-25" d="M23.39,12.76l.13-.09h0c-.39.23-.68.06-.6-.46s-1.09-1.67-.6-2.13a2.08,2.08,0,0,0,.5-.68l-.42-1.13-7.13,6.48c0,.13.07.25.1.38h0c0,.12.05.24.07.35v0c0,.11,0,.22,0,.32v0a2.71,2.71,0,0,1,0,.32,1.68,1.68,0,0,1-.15.62h0l0,.06A4.8,4.8,0,0,1,13,19.28v0h0l0,.05h0l.06.09h0l.08.12h0c.06.09.14.2.24.31h0l.16.18h0a5.56,5.56,0,0,0,.42.4h0a5.93,5.93,0,0,0,.56.42h0l.33.2h0a6.64,6.64,0,0,0,.76.37h0l.43.16h0l.48.14c2.13.25.5-1.48.16-2.09s3.06-2.14,4.16-2.66c-2.6,1.1-1.94-2.26-1.28-2.73s.17-2.89,1.45-2.79c1,.08,1.22,1.45,1.25,2h0c0-.39.35-.59.71-.71l.18-.08Z"/><path class="cls-26" d="M21.65,7.23s0-.2,1.33.92c.39.34-.89,1.35-2,2.09a3,3,0,0,0-1.27,2,1.86,1.86,0,0,1-.46,1.06,3,3,0,0,0-.78,1.32,3.27,3.27,0,0,1-3.4,2.69l2.2-5.44.54-5.5.55-.26"/><path class="cls-24" d="M20.49,36.22S22,34.08,22.58,34V35s2.36-1.19,2.72-.72-.68,3.3-2.91,4.18A1.56,1.56,0,0,1,20.25,37,1.29,1.29,0,0,1,20.49,36.22Z"/><path class="cls-15" d="M15.11,17.3s1.66-3.37-2.85-5.47c-3.33-1.55-2.12-6.61,3.52-7.6S23,5.58,22.38,7.7c0,0-1.16-1.39-2.25.39S18.14,16.86,15.11,17.3Z"/><path class="cls-27" d="M21.65,7.23C19.06,6,17.59,9.9,16.27,10.4s-.87-2.87-3.44-1c-1.53,1.1-2.08.71-2.29.2l.09.59a3.09,3.09,0,0,0,1.63,1.67c4.51,2.1,2.85,5.47,2.85,5.47,3-.44,3.92-7.43,5-9.21C20.67,7.21,21.23,7.11,21.65,7.23Z"/></svg>