<svg xmlns="http://www.w3.org/2000/svg" xmlns:xlink="http://www.w3.org/1999/xlink" viewBox="0 0 64 64"><defs><style>.cls-1{isolation:isolate;}.cls-2{fill:url(#linear-gradient);}.cls-3{fill:url(#linear-gradient-2);}.cls-4{fill:url(#linear-gradient-3);}.cls-5{fill:url(#linear-gradient-4);}.cls-6{fill:url(#linear-gradient-5);}.cls-7{fill:url(#linear-gradient-6);}.cls-8{fill:url(#linear-gradient-7);}.cls-9{fill:url(#linear-gradient-8);}.cls-10{fill:url(#linear-gradient-9);}.cls-11{fill:url(#linear-gradient-10);}.cls-12{fill:url(#linear-gradient-11);}.cls-13{fill:url(#linear-gradient-12);}.cls-14{fill:url(#linear-gradient-13);}.cls-15{fill:url(#linear-gradient-14);}.cls-16{fill:url(#linear-gradient-15);}.cls-17{fill:url(#linear-gradient-66);}.cls-18{opacity:0.49;mix-blend-mode:color-burn;fill:url(#linear-gradient-67);}.cls-19{fill:url(#linear-gradient-68);}.cls-20{fill:#1b1c37;}.cls-21{fill:#8e241c;}.cls-22{fill:url(#linear-gradient-69);}.cls-23{fill:url(#linear-gradient-70);}.cls-24{fill:url(#linear-gradient-71);}.cls-25{fill:url(#linear-gradient-72);}.cls-26{fill:url(#linear-gradient-73);}.cls-27{fill:url(#linear-gradient-74);}.cls-28{fill:url(#linear-gradient-75);}.cls-29{fill:url(#linear-gradient-76);}.cls-30{fill:url(#linear-gradient-77);}.cls-31{fill:url(#linear-gradient-78);}.cls-32{fill:url(#linear-gradient-79);}.cls-33{fill:url(#linear-gradient-80);}.cls-34{fill:url(#linear-gradient-81);}.cls-35{fill:url(#linear-gradient-82);}.cls-36{fill:#dfecf4;}.cls-37{fill:url(#linear-gradient-83);}.cls-38{fill:url(#linear-gradient-84);}.cls-39{fill:url(#linear-gradient-85);}.cls-40{fill:url(#linear-gradient-86);}.cls-41{fill:url(#linear-gradient-87);}.cls-42{fill:url(#linear-gradient-88);}.cls-43{fill:#f9aa8f;}.cls-44{fill:url(#linear-gradient-89);}.cls-45{fill:url(#linear-gradient-90);}.cls-46{fill:#00076d;}.cls-47{fill:url(#linear-gradient-91);}.cls-48{fill:url(#linear-gradient-92);}.cls-49{fill:url(#linear-gradient-93);}.cls-50{fill:url(#linear-gradient-94);}.cls-51{fill:#0058a3;}.cls-52{fill:url(#linear-gradient-95);}.cls-53{fill:url(#linear-gradient-96);}.cls-54{fill:url(#linear-gradient-97);}.cls-55{fill:url(#linear-gradient-98);}.cls-56{fill:url(#linear-gradient-99);}.cls-57{fill:url(#linear-gradient-100);}.cls-58{fill:url(#linear-gradient-101);}.cls-59{fill:url(#linear-gradient-102);}.cls-60{fill:url(#linear-gradient-103);}.cls-61{fill:url(#linear-gradient-104);}.cls-62{fill:url(#linear-gradient-105);}.cls-63{fill:url(#linear-gradient-106);}.cls-64{fill:url(#linear-gradient-107);}.cls-65{fill:url(#linear-gradient-108);}.cls-66{fill:url(#linear-gradient-109);}.cls-67{fill:url(#linear-gradient-110);}.cls-68{fill:url(#linear-gradient-111);}.cls-69{fill:url(#linear-gradient-112);}.cls-70{fill:url(#linear-gradient-113);}.cls-71{fill:url(#linear-gradient-114);}</style><linearGradient id="linear-gradient" x1="32" y1="75.5" x2="32" y2="45.06" gradientUnits="userSpaceOnUse"><stop offset="0.02" stop-color="#edd7ad"/><stop offset="0.52" stop-color="#ff9661"/><stop offset="1" stop-color="#e74a69"/></linearGradient><linearGradient id="linear-gradient-2" x1="32" y1="49" x2="32" y2="9.68" xlink:href="#linear-gradient"/><linearGradient id="linear-gradient-3" x1="22.71" y1="29.11" x2="22.71" y2="-23.81" xlink:href="#linear-gradient"/><linearGradient id="linear-gradient-4" x1="15.49" y1="29.95" x2="15.49" y2="-22.06" xlink:href="#linear-gradient"/><linearGradient id="linear-gradient-5" x1="49.1" y1="34.85" x2="49.1" y2="-42.43" xlink:href="#linear-gradient"/><linearGradient id="linear-gradient-6" x1="422.45" y1="35.18" x2="422.45" y2="-43.49" gradientTransform="translate(-376.22)" xlink:href="#linear-gradient"/><linearGradient id="linear-gradient-7" x1="409.38" y1="35.09" x2="409.38" y2="-43.58" gradientTransform="translate(-376.22)" xlink:href="#linear-gradient"/><linearGradient id="linear-gradient-8" x1="407.26" y1="35.09" x2="407.26" y2="-43.58" gradientTransform="translate(-376.22)" gradientUnits="userSpaceOnUse"><stop offset="0" stop-color="#fff"/><stop offset="0.84" stop-color="#cddfec"/></linearGradient><linearGradient id="linear-gradient-9" x1="19.59" y1="55.75" x2="19.59" y2="46.44" xlink:href="#linear-gradient"/><linearGradient id="linear-gradient-10" x1="32.6" y1="58.67" x2="32.6" y2="32.13" xlink:href="#linear-gradient"/><linearGradient id="linear-gradient-11" x1="399.41" y1="48.78" x2="399.41" y2="-0.28" xlink:href="#linear-gradient-8"/><linearGradient id="linear-gradient-12" x1="401.46" y1="48.78" x2="401.46" y2="-0.28" xlink:href="#linear-gradient-8"/><linearGradient id="linear-gradient-13" x1="403.51" y1="48.78" x2="403.51" y2="-0.28" xlink:href="#linear-gradient-8"/><linearGradient id="linear-gradient-14" x1="405.56" y1="48.78" x2="405.56" y2="-0.28" xlink:href="#linear-gradient-8"/><linearGradient id="linear-gradient-15" x1="407.62" y1="48.78" x2="407.62" y2="-0.28" xlink:href="#linear-gradient-8"/><linearGradient id="linear-gradient-66" x1="44.35" y1="58" x2="44.35" y2="21.14" xlink:href="#linear-gradient"/><linearGradient id="linear-gradient-67" x1="387.51" y1="25.69" x2="387.51" y2="25.13" xlink:href="#linear-gradient-8"/><linearGradient id="linear-gradient-68" x1="39.28" y1="57.27" x2="39.32" y2="54.48" xlink:href="#linear-gradient"/><linearGradient id="linear-gradient-69" x1="55.92" y1="35.06" x2="48.08" y2="50.56" gradientUnits="userSpaceOnUse"><stop offset="0.01" stop-color="#b64460"/><stop offset="0.49" stop-color="#631c60"/><stop offset="1" stop-color="#2d1c60"/></linearGradient><linearGradient id="linear-gradient-70" x1="46.5" y1="44.27" x2="54.56" y2="44.27" xlink:href="#linear-gradient-69"/><linearGradient id="linear-gradient-71" x1="54.29" y1="34.24" x2="46.45" y2="49.73" xlink:href="#linear-gradient-69"/><linearGradient id="linear-gradient-72" x1="60.99" y1="45.05" x2="49.97" y2="50.73" xlink:href="#linear-gradient-69"/><linearGradient id="linear-gradient-73" x1="47.87" y1="59.77" x2="48.13" y2="56.74" xlink:href="#linear-gradient-69"/><linearGradient id="linear-gradient-74" x1="40.33" y1="38.68" x2="34.93" y2="51.93" xlink:href="#linear-gradient-69"/><linearGradient id="linear-gradient-75" x1="48.07" y1="41.84" x2="42.66" y2="55.09" xlink:href="#linear-gradient-69"/><linearGradient id="linear-gradient-76" x1="39.59" y1="61.51" x2="37.02" y2="53.8" xlink:href="#linear-gradient-69"/><linearGradient id="linear-gradient-77" x1="32.45" y1="57.27" x2="33.94" y2="51.99" gradientUnits="userSpaceOnUse"><stop offset="0.53" stop-color="#00076d"/><stop offset="1" stop-color="#000030"/></linearGradient><linearGradient id="linear-gradient-78" x1="40.38" y1="40.65" x2="36.99" y2="44.18" xlink:href="#linear-gradient-77"/><linearGradient id="linear-gradient-79" x1="44.49" y1="47.3" x2="51.44" y2="47.3" xlink:href="#linear-gradient-69"/><linearGradient id="linear-gradient-80" x1="29.85" y1="48.77" x2="24.15" y2="48.77" gradientUnits="userSpaceOnUse"><stop offset="0" stop-color="#e63600"/><stop offset="0.11" stop-color="#e94707"/><stop offset="0.3" stop-color="#ed5e10"/><stop offset="0.5" stop-color="#f06f17"/><stop offset="0.72" stop-color="#f1791b"/><stop offset="1" stop-color="#f27c1c"/></linearGradient><linearGradient id="linear-gradient-81" x1="29.85" y1="49.36" x2="24.15" y2="49.36" xlink:href="#linear-gradient-80"/><linearGradient id="linear-gradient-82" x1="29.85" y1="49.94" x2="24.15" y2="49.94" xlink:href="#linear-gradient-80"/><linearGradient id="linear-gradient-83" x1="55.64" y1="36.83" x2="57.16" y2="29.78" xlink:href="#linear-gradient-69"/><linearGradient id="linear-gradient-84" x1="21.09" y1="8.94" x2="22.36" y2="9.26" xlink:href="#linear-gradient-69"/><linearGradient id="linear-gradient-85" x1="24.45" y1="11.49" x2="23.72" y2="8.27" xlink:href="#linear-gradient-77"/><linearGradient id="linear-gradient-86" x1="36.09" y1="25.79" x2="26.25" y2="27.09" xlink:href="#linear-gradient-77"/><linearGradient id="linear-gradient-87" x1="33" y1="24.93" x2="23.46" y2="26.39" xlink:href="#linear-gradient-77"/><linearGradient id="linear-gradient-88" x1="20.32" y1="78.78" x2="22.99" y2="45.94" gradientUnits="userSpaceOnUse"><stop offset="0" stop-color="#fbc19e"/><stop offset="0.48" stop-color="#ffb699"/><stop offset="1" stop-color="#f47e6d"/></linearGradient><linearGradient id="linear-gradient-89" x1="24.64" y1="15.82" x2="20.37" y2="12.81" xlink:href="#linear-gradient-88"/><linearGradient id="linear-gradient-90" x1="25.09" y1="15.17" x2="20.83" y2="12.16" xlink:href="#linear-gradient-88"/><linearGradient id="linear-gradient-91" x1="12.26" y1="16.34" x2="4.8" y2="17.87" gradientUnits="userSpaceOnUse"><stop offset="0.4" stop-color="#d95d32"/><stop offset="0.81" stop-color="#bb1a28"/></linearGradient><linearGradient id="linear-gradient-92" x1="16.58" y1="23.46" x2="10.91" y2="7.45" xlink:href="#linear-gradient-91"/><linearGradient id="linear-gradient-93" x1="22.93" y1="10.01" x2="20.78" y2="7.36" xlink:href="#linear-gradient-91"/><linearGradient id="linear-gradient-94" x1="16.9" y1="58.8" x2="22.33" y2="38.95" xlink:href="#linear-gradient-88"/><linearGradient id="linear-gradient-95" x1="18.89" y1="62.68" x2="23.75" y2="20.14" xlink:href="#linear-gradient-69"/><linearGradient id="linear-gradient-96" x1="27.96" y1="43.96" x2="28.01" y2="43.5" xlink:href="#linear-gradient-69"/><linearGradient id="linear-gradient-97" x1="27.96" y1="44.49" x2="28.01" y2="44.03" xlink:href="#linear-gradient-69"/><linearGradient id="linear-gradient-98" x1="27.96" y1="42.83" x2="27.96" y2="42.78" xlink:href="#linear-gradient-69"/><linearGradient id="linear-gradient-99" x1="22.01" y1="52.06" x2="22.01" y2="34.89" xlink:href="#linear-gradient-69"/><linearGradient id="linear-gradient-100" x1="27.94" y1="43.44" x2="28" y2="42.98" xlink:href="#linear-gradient-69"/><linearGradient id="linear-gradient-101" x1="27.94" y1="45.56" x2="27.99" y2="45.11" xlink:href="#linear-gradient-69"/><linearGradient id="linear-gradient-102" x1="27.94" y1="45.81" x2="27.95" y2="45.72" xlink:href="#linear-gradient-69"/><linearGradient id="linear-gradient-103" x1="27.95" y1="45.02" x2="28" y2="44.57" xlink:href="#linear-gradient-69"/><linearGradient id="linear-gradient-104" x1="9.83" y1="47.99" x2="15.56" y2="42.26" xlink:href="#linear-gradient-77"/><linearGradient id="linear-gradient-105" x1="16.49" y1="45.12" x2="16.49" y2="43.43" xlink:href="#linear-gradient-69"/><linearGradient id="linear-gradient-106" x1="38.24" y1="22.8" x2="11.29" y2="29.27" gradientUnits="userSpaceOnUse"><stop offset="0" stop-color="#fcfbff"/><stop offset="0.48" stop-color="#f5ede9"/><stop offset="1" stop-color="#a5adbe"/></linearGradient><linearGradient id="linear-gradient-107" x1="38.53" y1="30.19" x2="17.46" y2="28.21" xlink:href="#linear-gradient-106"/><linearGradient id="linear-gradient-108" x1="-192.89" y1="-358.53" x2="-207.06" y2="-347.24" gradientTransform="matrix(0.99, 0.16, -0.16, 0.99, 163.14, 406.43)" xlink:href="#linear-gradient-77"/><linearGradient id="linear-gradient-109" x1="8.08" y1="20.89" x2="8.08" y2="36.66" gradientTransform="translate(34.47 15.6) rotate(80.85)" xlink:href="#linear-gradient-69"/><linearGradient id="linear-gradient-110" x1="22.19" y1="19" x2="22.19" y2="20.76" xlink:href="#linear-gradient-69"/><linearGradient id="linear-gradient-111" x1="23.39" y1="11.49" x2="22.66" y2="8.27" xlink:href="#linear-gradient-77"/><linearGradient id="linear-gradient-112" x1="17.75" y1="2.48" x2="21.36" y2="11.66" xlink:href="#linear-gradient-69"/><linearGradient id="linear-gradient-113" x1="19.5" y1="9.24" x2="19.5" y2="14.59" xlink:href="#linear-gradient-69"/><linearGradient id="linear-gradient-114" x1="-1228.84" y1="-1248.21" x2="-1229.14" y2="-1248.51" gradientTransform="translate(-1227.73 1244.7) rotate(90)" xlink:href="#linear-gradient-77"/></defs><title>vespa</title><g class="cls-1"><g id="Layer_1" data-name="Layer 1"><circle class="cls-2" cx="32" cy="32" r="28"/><path class="cls-3" d="M4,32A27.87,27.87,0,0,0,7.37,45.33H56.63A28,28,0,1,0,4,32Z"/><path class="cls-4" d="M31.46,16.82C24.82,14.6,19.25,11,17.64,8.68a4.34,4.34,0,0,0-.38-.48A28.08,28.08,0,0,0,14,10.6,177.1,177.1,0,0,0,31.46,16.82Z"/><path class="cls-5" d="M22.73,19.91c-3.55-.49-6.68-1.77-7.71-2.8S11.59,16,11,15.46a5.47,5.47,0,0,0-1-.71,28.05,28.05,0,0,0-1.71,2.44A93.24,93.24,0,0,0,22.73,19.91Z"/><path class="cls-6" d="M57.72,20.93a4.1,4.1,0,0,0-1.76.36c-2.32,1-4.11-.48-7.54.24s-9.32-.38-9.32-.38a81.33,81.33,0,0,0,20,3.81A27.78,27.78,0,0,0,57.72,20.93Z"/><path class="cls-7" d="M37.88,14.07a14.37,14.37,0,0,0,5.2.28c2-.48,2.88.54,4.24-.15a2,2,0,0,1,2.7.89c.31.66,1.34,0,2,.59a4.94,4.94,0,0,0,2.51.54S48.82,18.34,37.88,14.07Z"/><path class="cls-8" d="M30.37,8.64S34.15,9.9,36,9.57a5.71,5.71,0,0,1-1.5-.73,1.93,1.93,0,0,0-1.79-.37c-.41.25-.57-.36-1-.13A4.58,4.58,0,0,1,30.37,8.64Z"/><path class="cls-9" d="M28.25,19.85s3.78,1.26,5.58.93a5.71,5.71,0,0,1-1.5-.73,1.93,1.93,0,0,0-1.79-.37c-.41.25-.57-.36-1-.13A4.58,4.58,0,0,1,28.25,19.85Z"/><path class="cls-10" d="M34.48,38.63H18v-7H15.84V27a3,3,0,0,0-6,0v7.2H4.09A27.83,27.83,0,0,0,7.37,45.33H35.1Z"/><path class="cls-11" d="M60,32a28,28,0,0,0-1.41-8.77H56.88a5.38,5.38,0,0,0-5.38,5.38v3.21H45.65a1.07,1.07,0,0,0-1.07,1.07v5.19H37.21v-2a1,1,0,0,0-1-1h-2.1V15.87a.93.93,0,0,0-.93-.93H21.08a.93.93,0,0,0-.93.93V42H10.47V40.1H5.2a27.83,27.83,0,0,0,2.18,5.23H56.63A27.87,27.87,0,0,0,60,32Z"/><rect class="cls-12" x="22.6" y="17.46" width="1.18" height="1.18" rx="0.09" ry="0.09"/><rect class="cls-13" x="24.65" y="17.46" width="1.18" height="1.18" rx="0.09" ry="0.09"/><rect class="cls-14" x="26.7" y="17.46" width="1.18" height="1.18" rx="0.09" ry="0.09"/><rect class="cls-15" x="28.75" y="17.46" width="1.18" height="1.18" rx="0.09" ry="0.09"/><rect class="cls-16" x="30.81" y="17.46" width="1.18" height="1.18" rx="0.09" ry="0.09"/><rect class="cls-12" x="22.6" y="19.63" width="1.18" height="1.18" rx="0.09" ry="0.09"/><rect class="cls-13" x="24.65" y="19.63" width="1.18" height="1.18" rx="0.09" ry="0.09"/><rect class="cls-14" x="26.7" y="19.63" width="1.18" height="1.18" rx="0.09" ry="0.09"/><rect class="cls-15" x="28.75" y="19.63" width="1.18" height="1.18" rx="0.09" ry="0.09"/><rect class="cls-16" x="30.81" y="19.63" width="1.18" height="1.18" rx="0.09" ry="0.09"/><rect class="cls-12" x="22.6" y="21.79" width="1.18" height="1.18" rx="0.09" ry="0.09"/><rect class="cls-13" x="24.65" y="21.79" width="1.18" height="1.18" rx="0.09" ry="0.09"/><rect class="cls-14" x="26.7" y="21.79" width="1.18" height="1.18" rx="0.09" ry="0.09"/><rect class="cls-15" x="28.75" y="21.79" width="1.18" height="1.18" rx="0.09" ry="0.09"/><rect class="cls-16" x="30.81" y="21.79" width="1.18" height="1.18" rx="0.09" ry="0.09"/><rect class="cls-12" x="22.6" y="23.95" width="1.18" height="1.18" rx="0.09" ry="0.09"/><rect class="cls-13" x="24.65" y="23.95" width="1.18" height="1.18" rx="0.09" ry="0.09"/><rect class="cls-14" x="26.7" y="23.95" width="1.18" height="1.18" rx="0.09" ry="0.09"/><rect class="cls-15" x="28.75" y="23.95" width="1.18" height="1.18" rx="0.09" ry="0.09"/><rect class="cls-16" x="30.81" y="23.95" width="1.18" height="1.18" rx="0.09" ry="0.09"/><rect class="cls-12" x="22.6" y="26.11" width="1.18" height="1.18" rx="0.09" ry="0.09"/><rect class="cls-13" x="24.65" y="26.11" width="1.18" height="1.18" rx="0.09" ry="0.09"/><rect class="cls-14" x="26.7" y="26.11" width="1.18" height="1.18" rx="0.09" ry="0.09"/><rect class="cls-15" x="28.75" y="26.11" width="1.18" height="1.18" rx="0.09" ry="0.09"/><rect class="cls-16" x="30.81" y="26.11" width="1.18" height="1.18" rx="0.09" ry="0.09"/><rect class="cls-12" x="22.6" y="28.27" width="1.18" height="1.18" rx="0.09" ry="0.09"/><rect class="cls-13" x="24.65" y="28.27" width="1.18" height="1.18" rx="0.09" ry="0.09"/><rect class="cls-14" x="26.7" y="28.27" width="1.18" height="1.18" rx="0.09" ry="0.09"/><rect class="cls-15" x="28.75" y="28.27" width="1.18" height="1.18" rx="0.09" ry="0.09"/><rect class="cls-16" x="30.81" y="28.27" width="1.18" height="1.18" rx="0.09" ry="0.09"/><rect class="cls-12" x="22.6" y="30.43" width="1.18" height="1.18" rx="0.09" ry="0.09"/><rect class="cls-13" x="24.65" y="30.43" width="1.18" height="1.18" rx="0.09" ry="0.09"/><rect class="cls-14" x="26.7" y="30.43" width="1.18" height="1.18" rx="0.09" ry="0.09"/><rect class="cls-15" x="28.75" y="30.43" width="1.18" height="1.18" rx="0.09" ry="0.09"/><rect class="cls-16" x="30.81" y="30.43" width="1.18" height="1.18" rx="0.09" ry="0.09"/><rect class="cls-12" x="22.6" y="32.59" width="1.18" height="1.18" rx="0.09" ry="0.09"/><rect class="cls-13" x="24.65" y="32.59" width="1.18" height="1.18" rx="0.09" ry="0.09"/><rect class="cls-14" x="26.7" y="32.59" width="1.18" height="1.18" rx="0.09" ry="0.09"/><rect class="cls-15" x="28.75" y="32.59" width="1.18" height="1.18" rx="0.09" ry="0.09"/><rect class="cls-16" x="30.81" y="32.59" width="1.18" height="1.18" rx="0.09" ry="0.09"/><rect class="cls-12" x="22.6" y="34.75" width="1.18" height="1.18" rx="0.09" ry="0.09"/><rect class="cls-13" x="24.65" y="34.75" width="1.18" height="1.18" rx="0.09" ry="0.09"/><rect class="cls-14" x="26.7" y="34.75" width="1.18" height="1.18" rx="0.09" ry="0.09"/><rect class="cls-15" x="28.75" y="34.75" width="1.18" height="1.18" rx="0.09" ry="0.09"/><rect class="cls-16" x="30.81" y="34.75" width="1.18" height="1.18" rx="0.09" ry="0.09"/><rect class="cls-12" x="22.6" y="36.92" width="1.18" height="1.18" rx="0.09" ry="0.09"/><rect class="cls-13" x="24.65" y="36.92" width="1.18" height="1.18" rx="0.09" ry="0.09"/><rect class="cls-14" x="26.7" y="36.92" width="1.18" height="1.18" rx="0.09" ry="0.09"/><rect class="cls-15" x="28.75" y="36.92" width="1.18" height="1.18" rx="0.09" ry="0.09"/><rect class="cls-16" x="30.81" y="36.92" width="1.18" height="1.18" rx="0.09" ry="0.09"/><rect class="cls-12" x="22.6" y="39.08" width="1.18" height="1.18" rx="0.09" ry="0.09"/><rect class="cls-13" x="24.65" y="39.08" width="1.18" height="1.18" rx="0.09" ry="0.09"/><rect class="cls-14" x="26.7" y="39.08" width="1.18" height="1.18" rx="0.09" ry="0.09"/><rect class="cls-15" x="28.75" y="39.08" width="1.18" height="1.18" rx="0.09" ry="0.09"/><rect class="cls-16" x="30.81" y="39.08" width="1.18" height="1.18" rx="0.09" ry="0.09"/><path class="cls-17" d="M45.65,31.81a1.07,1.07,0,0,0-1.07,1.07v5.19H37.21v.27a4.69,4.69,0,0,0,4.69,4.77h3.18v-2H51.5V31.81Z"/><path class="cls-18" d="M11,25.39c-.07,0,.05.12.19.21h0l.11,0a.39.39,0,0,0,.2-.12A1.58,1.58,0,0,0,11,25.39Z"/><ellipse class="cls-19" cx="39.32" cy="53.95" rx="12.57" ry="0.65"/><ellipse class="cls-20" cx="51.41" cy="51.36" rx="3.19" ry="2.56" transform="translate(-21.01 45.43) rotate(-40.29)"/><ellipse class="cls-21" cx="51.41" cy="51.36" rx="1.26" ry="1.02" transform="translate(-21.01 45.43) rotate(-40.29)"/><path class="cls-22" d="M48.48,44.77s3-5,6.21-4.58h.53a.35.35,0,0,1,.32.5l-.9,1.91a.56.56,0,0,1-.72.28c-.77-.32-2.17.24-3.31,3.57"/><path class="cls-23" d="M51.39,42.08a3,3,0,0,0-.92.14,15.16,15.16,0,0,0-2,2.54l2.13,1.69A9.54,9.54,0,0,1,51.81,44l.28-1A.72.72,0,0,0,51.39,42.08Z"/><path class="cls-24" d="M47.63,41.23a.17.17,0,0,0,0,.11.18.18,0,0,0,.21.17,9.9,9.9,0,0,1,3.78-.1,1.53,1.53,0,0,0,1.31-.2l1.52-1.05S48.69,40.07,47.63,41.23Z"/><path class="cls-20" d="M49.8,40.45a4.12,4.12,0,0,0-2.16.78.17.17,0,0,0,0,.11.18.18,0,0,0,.21.17,14.6,14.6,0,0,1,2.25-.25A2.82,2.82,0,0,0,49.8,40.45Z"/><path class="cls-25" d="M50.87,47.11a4.74,4.74,0,0,0-4.74,4.74h8.78a.65.65,0,0,0,.64-.74A4.74,4.74,0,0,0,50.87,47.11Z"/><path class="cls-26" d="M50.6,49.93l.81-2.79a4.73,4.73,0,0,0-5.28,4.71h3.16A3.73,3.73,0,0,0,50.6,49.93Z"/><ellipse class="cls-20" cx="30.24" cy="51.36" rx="3.19" ry="2.56" transform="translate(-26.04 31.74) rotate(-40.29)"/><ellipse class="cls-21" cx="30.24" cy="51.36" rx="1.26" ry="1.02" transform="translate(-26.04 31.74) rotate(-40.29)"/><path class="cls-27" d="M45.34,50.67l-7.83-.39a1.68,1.68,0,0,1-1.35-2.55,5,5,0,0,1,1.19-1.31,2.5,2.5,0,0,1,1.21-.48c.84-.11,1.45-.45,1.45-.86s-.91-.89-2-.89a4.41,4.41,0,0,0-.77.07,12.9,12.9,0,0,0-3.56-.49c-4.85,0-8.79,2.55-8.79,5.71,0,.06,0,.12,0,.17h0a2.2,2.2,0,0,0,2.2,2.2H46.36Z"/><path class="cls-28" d="M46.18,51.63l-.84-1-2.64-.13-.83,1.31h4Z"/><path class="cls-29" d="M37.51,50.28a1.68,1.68,0,0,1-1.35-2.55,5,5,0,0,1,1.19-1.31,2.5,2.5,0,0,1,1.21-.48c.84-.11,1.45-.45,1.45-.86s-.91-.89-2-.89a4.41,4.41,0,0,0-.77.07,12.56,12.56,0,0,0-2.32-.43l-2.71.56a3.42,3.42,0,0,1,2.32,3.36c0,2.65-4,4.11-4,4.11h9.6l-.64-1.48Z"/><path class="cls-30" d="M40.83,44.15c0,1.06-1.87.46-4.42.35s-4.85.32-4.81-.74,2.15-1.83,4.69-1.72S40.87,43.1,40.83,44.15Z"/><path class="cls-31" d="M35.28,44.49h0l1.13,0c2.55.11,4.37.7,4.42-.35s-2-2-4.53-2.11a10.8,10.8,0,0,0-1.31,0s-.2.58.61,1S36.84,44.31,35.28,44.49Z"/><path class="cls-32" d="M48.15,44.17l-3.43,5.44a1.46,1.46,0,0,0,1.22,2.24h0a4.13,4.13,0,0,0,4-3l1.5-5.18a.72.72,0,0,0-.69-.92h0A3,3,0,0,0,48.15,44.17Z"/><rect class="cls-33" x="26.52" y="48.64" width="1.44" height="0.25" rx="0.07" ry="0.07"/><rect class="cls-34" x="26.52" y="49.23" width="1.44" height="0.25" rx="0.07" ry="0.07"/><rect class="cls-35" x="26.52" y="49.82" width="1.44" height="0.25" rx="0.07" ry="0.07"/><path class="cls-36" d="M55.21,40.2h-.37l-1.22,2.62a1,1,0,0,1,.29.07.56.56,0,0,0,.72-.28l.9-1.91A.35.35,0,0,0,55.21,40.2Z"/><path class="cls-37" d="M55.21,40.2h-.37l-1.22,2.62a1,1,0,0,1,.29.07.56.56,0,0,0,.72-.28l.9-1.91A.35.35,0,0,0,55.21,40.2Z"/><path class="cls-38" d="M24.16,6.14s1,1.7-.29,2.35.18,2.68.18,2.68.42,1.72-.82,1.86-4.34-2.92-4.34-2.92l1-3.54"/><ellipse class="cls-39" cx="24.03" cy="9.65" rx="0.48" ry="0.88"/><path class="cls-40" d="M22.49,16.26s6.14,5.85,8.65,9.4c2.07,2.93,2.72,11.29-6,12.9"/><path class="cls-41" d="M20.26,15.28,21.32,15a89.77,89.77,0,0,1,6.29,7.17c1.63,2.35-1.56,7.43-.29,9.74s1.51,5.31-.56,5.64"/><path class="cls-42" d="M21.62,28.53s-3.9-6.74-.25,7.14q.27,1,.61,2.25c.59,2.14-.57,4.84-.27,7.18A61.14,61.14,0,0,1,21.5,58a27.77,27.77,0,0,0,4,1.27c1.8-7.44,2.64-13.15,1.82-17.64C25.63,32.39,21.62,28.53,21.62,28.53Z"/><path class="cls-43" d="M24.47,10.36h0a4.27,4.27,0,0,0-1.74-3.11l-2-1.43A.85.85,0,0,0,19.55,6c-.8,1.27-2.31,3.7-2.19,4,1.07,2.2,1.63,3.63-.57,5.29.17-.2.08,1.33.31,1.24-.25.26-.18-1.28-.43-1.06l.12-.18-.17.22a13,13,0,0,1-2.49,1.65l3.55,4.47,5.72-2.8L21.73,16.6A2.15,2.15,0,0,1,21.32,15h0a1.06,1.06,0,0,1,1-.91h0c1-.17,1.18-1.42,1.33-2.34a.86.86,0,0,1,.43-.61A.85.85,0,0,0,24.47,10.36Z"/><path class="cls-44" d="M22.21,14.12h.11l-.19,0Z"/><path class="cls-45" d="M23.87,10.89a5,5,0,0,0-.32-2c-.25-.36.31-.4.32-.4a4.26,4.26,0,0,0-.86-1h-.2L20.38,8.83l-2.27,2.95a2.64,2.64,0,0,1-.69,3L19,17.13s1-.42.53-1.15-.29-1.66.93-1.72c.81,0,1.37-.1,1.66-.13-.42,0-.7-.38-.27-.67a3.16,3.16,0,0,0,.63-2.68c-.23-.87.12-1.46.71-1.29s.4,2.36.4,2.37v-.09a.86.86,0,0,1,.43-.61.85.85,0,0,0,.23-.2C24.2,11.07,23.82,11.14,23.87,10.89Z"/><path class="cls-46" d="M19.95,12.81s-.67,1.54.17,2.48,1.42.46.73-.28a1.79,1.79,0,0,1,.23-2.29c.61-.63-1.32-.9-1.32-.9"/><path class="cls-47" d="M19.6,13.13a1.83,1.83,0,0,0-1.75,1.1c-.65,1.24-5.68,7.56-5.68,7.56L8.92,20.1S8,17.56,11.44,15.75s5.27-1.91,5-4.24S19.1,9.78,19.1,9.78"/><path class="cls-48" d="M16.49,11a2.31,2.31,0,0,0,0,.5,2.89,2.89,0,0,1,0,.91h0a8.7,8.7,0,0,1-1.6,3.16c-1.18,1.6-4.3,2.92-5.31,3.55S9,18.28,9,18.27a3,3,0,0,0-.08,1.83l1.93,1,1.32-.26,1.12-.48L15,18.16c.62-1.33,1.41-3.07,1.79-4.07.68-1.77,2.59-1,2.59-1l-1.84-1.45Z"/><path class="cls-49" d="M23.88,7.14s.59.46-.22.82c-.47.21-1.83-.34-2.26,1.37s-2.3,0-2.3,0v-3"/><path class="cls-50" d="M24.15,35.62l-1-.08-5-.42a16.88,16.88,0,0,0-3.05,10.4c.09,1.52-1.09,3.16-.39,4.84.83,2,1.49,3.57,2,5.08a27.88,27.88,0,0,0,6.52,3.15,48,48,0,0,0,2-20C24.85,35.86,24.68,38.74,24.15,35.62Z"/><path class="cls-51" d="M24,49.24Z"/><path class="cls-52" d="M27.11,51.22a28.86,28.86,0,0,0-3.67-22.69s-3.9-6.75-.25,7.14l-5-.42s-6.89,7.17-3.45,15.21c.14.06,2.76,2.23,10.1,1.64A3.19,3.19,0,0,0,27.11,51.22Z"/><path class="cls-53" d="M28,43.57q0,.14,0,.28Q28,43.71,28,43.57Z"/><path class="cls-54" d="M28,44.1q0,.14,0,.27Q28,44.24,28,44.1Z"/><path class="cls-55" d="M28,42.79h0v0Z"/><path class="cls-56" d="M28,42.79c0-.09,0-.17,0-.26v-.22l0-.29,0-.2,0-.3,0-.18,0-.31,0-.16,0-.33,0-.12,0-.36V40a29.57,29.57,0,0,0-1-4.57l-3.56-.05.07.27-4.06-.34-1,0h0l0,.05h0l-.14.15h0l-.08.09h0l-.21.25h0l-.12.15h0a19.32,19.32,0,0,0-1.4,2,5.5,5.5,0,0,0,4.79,1.56C24.41,39.3,27.8,42.11,28,42.79Z"/><path class="cls-57" d="M28,43.05c0,.09,0,.19,0,.28C28,43.24,28,43.14,28,43.05Z"/><path class="cls-58" d="M28,45.45q0-.14,0-.27Q28,45.32,28,45.45Z"/><path class="cls-59" d="M27.94,45.73v.06h0Z"/><path class="cls-60" d="M28,44.91q0-.14,0-.27Q28,44.77,28,44.91Z"/><path id="_Path_" data-name="&lt;Path&gt;" class="cls-61" d="M20.26,37.48s-3.43.72-2.94,6.59a.78.78,0,0,1-.78.84h0a.78.78,0,0,1-.75-.56c-.45-1.5-1.29-5.69,2.32-8.54Z"/><circle id="_Path_2" data-name="&lt;Path&gt;" class="cls-62" cx="16.49" cy="43.95" r="0.23"/><path id="_Path_3" data-name="&lt;Path&gt;" class="cls-63" d="M23.2,18.68c.09-.15.29-.09.35.07.26.8,2,1.89,2.83,3.72.91,2.1-1.54,6.8-.06,10.17s.78,5.94-3.74,4.1S18.3,16.1,18.3,16.1,22.15,20.47,23.2,18.68Z"/><path class="cls-64" d="M25,24.78c-1.51-.22-1.92.42-1.9,0s-1-4.38-1-4.38l-2.44-.32,3.89,17h0a17.37,17.37,0,0,0,1.41-4c.28-1.76,1-4.93,1-4.93h0a34.49,34.49,0,0,0,.61-4.63A1.31,1.31,0,0,1,25,24.78Z"/><path id="_Path_4" data-name="&lt;Path&gt;" class="cls-65" d="M21.09,17.58s4.07,15.24,2.63,19.23S14.24,35.13,14,34.29,9.85,21.37,9.85,21.37l5.92-3.95C16.27,17.09,17.79,16,21.09,17.58Z"/><path class="cls-46" d="M22.75,19l-1.85-1.65-3.33-3.44a.79.79,0,0,0-1.27.19A9,9,0,0,1,12.39,18c-1.67.89-16.67,8-2,19.78A5,5,0,0,0,18.42,34q0-.08,0-.16a2,2,0,0,0-1-1.68c-1.85-1.08-5.88-4.06-4.18-8.8A7.89,7.89,0,0,1,18,18.7h0a2.25,2.25,0,0,1,2.48.65l.87,1a1,1,0,0,0,1.73-.46A1,1,0,0,0,22.75,19Z"/><circle id="_Path_5" data-name="&lt;Path&gt;" class="cls-66" cx="8.08" cy="28.03" r="2.76" transform="translate(-20.88 31.55) rotate(-80.85)"/><circle class="cls-67" cx="22.19" cy="19.8" r="0.31"/><ellipse class="cls-68" cx="22.98" cy="9.65" rx="0.48" ry="0.88"/><path class="cls-69" d="M22.73,7.24S21,7.31,21.45,9.65s-.06,3.37-1.38,3.47H20a4,4,0,0,1-3.43-1.54l-.05-.07a4.71,4.71,0,0,1,5.67-7.08,3.73,3.73,0,0,1,.82.5C25.4,6.91,24.13,7.32,22.73,7.24Z"/><circle class="cls-70" cx="19.5" cy="11.29" r="0.4"/><circle class="cls-71" cx="20.85" cy="15.49" r="0.11" transform="translate(-4.21 22.33) rotate(-51.87)"/></g></g></svg>