<svg xmlns="http://www.w3.org/2000/svg" xmlns:xlink="http://www.w3.org/1999/xlink" viewBox="0 0 64 64"><defs><style>.cls-1{isolation:isolate;}.cls-2{fill:url(#linear-gradient);}.cls-3{fill:url(#linear-gradient-3);}.cls-4{fill:url(#linear-gradient-4);}.cls-5{fill:url(#linear-gradient-5);}.cls-6{fill:url(#linear-gradient-6);}.cls-7{fill:url(#linear-gradient-7);}.cls-8{fill:url(#linear-gradient-8);}.cls-9{fill:url(#linear-gradient-9);}.cls-10{fill:url(#linear-gradient-10);}.cls-11{fill:url(#linear-gradient-11);}.cls-12{fill:url(#linear-gradient-12);}.cls-13{fill:url(#linear-gradient-13);}.cls-14{fill:url(#linear-gradient-14);}.cls-15{fill:url(#linear-gradient-15);}.cls-16{fill:url(#linear-gradient-16);}.cls-17{fill:url(#linear-gradient-17);}.cls-18{fill:url(#linear-gradient-18);}.cls-19{fill:url(#linear-gradient-19);}.cls-20{fill:url(#linear-gradient-20);}.cls-21{fill:url(#linear-gradient-21);}.cls-22{fill:url(#linear-gradient-22);}.cls-23{fill:url(#linear-gradient-23);}.cls-24{fill:url(#linear-gradient-24);}.cls-25{fill:url(#linear-gradient-25);}.cls-26{fill:url(#linear-gradient-26);}.cls-27{fill:url(#linear-gradient-27);}.cls-28{fill:url(#linear-gradient-28);}.cls-29{fill:url(#linear-gradient-29);}.cls-30{fill:url(#linear-gradient-30);}.cls-31{fill:url(#linear-gradient-31);}.cls-32{fill:url(#linear-gradient-32);}.cls-33{fill:url(#linear-gradient-33);}.cls-34{fill:url(#linear-gradient-34);}.cls-35{fill:url(#linear-gradient-35);}.cls-36{fill:url(#linear-gradient-36);}.cls-37{fill:url(#linear-gradient-37);}.cls-38{fill:url(#linear-gradient-38);}.cls-39{fill:url(#linear-gradient-39);}.cls-40{fill:url(#linear-gradient-40);}.cls-41{fill:url(#linear-gradient-41);}.cls-42{fill:url(#linear-gradient-42);}.cls-43{fill:url(#linear-gradient-43);}.cls-44{fill:url(#linear-gradient-44);}.cls-45{fill:url(#linear-gradient-45);}.cls-46{fill:url(#linear-gradient-46);}.cls-47{fill:url(#linear-gradient-47);}.cls-48{fill:url(#linear-gradient-48);}.cls-49{fill:url(#linear-gradient-49);}.cls-50{fill:url(#linear-gradient-50);}.cls-51{fill:url(#linear-gradient-51);}.cls-52{fill:url(#linear-gradient-52);}.cls-53{fill:url(#linear-gradient-53);}.cls-54{fill:url(#linear-gradient-54);}.cls-55{fill:url(#linear-gradient-55);}.cls-56{fill:url(#linear-gradient-56);}.cls-57{fill:url(#linear-gradient-57);}.cls-58{fill:url(#linear-gradient-58);}.cls-59{fill:url(#linear-gradient-59);}.cls-60{fill:url(#linear-gradient-60);}.cls-61{fill:url(#linear-gradient-61);}.cls-62{opacity:0.49;mix-blend-mode:color-burn;fill:url(#linear-gradient-62);}.cls-63{fill:url(#linear-gradient-63);}.cls-64{fill:url(#linear-gradient-64);}.cls-65{fill:#063247;}.cls-66{fill:#f9aa8f;}.cls-67{fill:url(#linear-gradient-65);}.cls-68{fill:url(#linear-gradient-66);}.cls-69{fill:#00a887;}.cls-70{fill:url(#linear-gradient-67);}.cls-71{fill:url(#linear-gradient-68);}.cls-72{fill:url(#linear-gradient-69);}.cls-73{fill:url(#linear-gradient-70);}.cls-74{fill:url(#linear-gradient-71);}.cls-75{fill:url(#linear-gradient-72);}</style><linearGradient id="linear-gradient" x1="31.65" y1="97.4" x2="31.65" y2="9.29" gradientUnits="userSpaceOnUse"><stop offset="0.02" stop-color="#edd7ad"/><stop offset="0.52" stop-color="#ff9661"/><stop offset="1" stop-color="#e74a69"/></linearGradient><linearGradient id="linear-gradient-3" x1="14.18" y1="49.21" x2="14.18" y2="-11.09" xlink:href="#linear-gradient"/><linearGradient id="linear-gradient-4" x1="1519.25" y1="33.91" x2="1519.25" y2="-11.1" gradientTransform="translate(-1504)" xlink:href="#linear-gradient"/><linearGradient id="linear-gradient-5" x1="1515.77" y1="33.91" x2="1515.77" y2="-11.1" gradientTransform="translate(-1504)" xlink:href="#linear-gradient"/><linearGradient id="linear-gradient-6" x1="1525.74" y1="33.91" x2="1525.74" y2="-11.1" gradientTransform="translate(-1504)" xlink:href="#linear-gradient"/><linearGradient id="linear-gradient-7" x1="1515.11" y1="33.91" x2="1515.11" y2="-11.1" gradientTransform="translate(-1504)" xlink:href="#linear-gradient"/><linearGradient id="linear-gradient-8" x1="14.18" y1="43.61" x2="14.18" y2="24.85" xlink:href="#linear-gradient"/><linearGradient id="linear-gradient-9" x1="1513.65" y1="39.51" x2="1513.65" y2="22.36" gradientTransform="translate(-1504)" xlink:href="#linear-gradient"/><linearGradient id="linear-gradient-10" x1="42.93" y1="49.21" x2="42.93" y2="-11.09" xlink:href="#linear-gradient"/><linearGradient id="linear-gradient-11" x1="52.25" y1="35.56" x2="52.25" y2="-3.57" xlink:href="#linear-gradient"/><linearGradient id="linear-gradient-12" x1="55.53" y1="32.65" x2="55.53" y2="5.87" xlink:href="#linear-gradient"/><linearGradient id="linear-gradient-13" x1="1538.58" y1="40.59" x2="1538.58" y2="-14.81" gradientTransform="translate(-1504)" xlink:href="#linear-gradient"/><linearGradient id="linear-gradient-14" x1="1536.47" y1="40.59" x2="1536.47" y2="-14.81" gradientTransform="translate(-1504)" xlink:href="#linear-gradient"/><linearGradient id="linear-gradient-15" x1="1542.48" y1="40.59" x2="1542.48" y2="-14.81" gradientTransform="translate(-1504)" xlink:href="#linear-gradient"/><linearGradient id="linear-gradient-16" x1="1550.59" y1="40.59" x2="1550.59" y2="-14.81" gradientTransform="translate(-1504)" xlink:href="#linear-gradient"/><linearGradient id="linear-gradient-17" x1="1551.8" y1="40.59" x2="1551.8" y2="-14.81" gradientTransform="translate(-1504)" xlink:href="#linear-gradient"/><linearGradient id="linear-gradient-18" x1="1533.85" y1="40.59" x2="1533.85" y2="-14.81" gradientTransform="translate(-1504)" xlink:href="#linear-gradient"/><linearGradient id="linear-gradient-19" x1="53.11" y1="39.09" x2="53.11" y2="20.78" xlink:href="#linear-gradient"/><linearGradient id="linear-gradient-20" x1="42.64" y1="46.09" x2="42.64" y2="15.22" xlink:href="#linear-gradient"/><linearGradient id="linear-gradient-21" x1="3176.44" y1="41.74" x2="3176.44" y2="13.67" gradientTransform="matrix(1, 0, 0, -1, -3123.04, 55.75)" xlink:href="#linear-gradient"/><linearGradient id="linear-gradient-22" x1="3177.61" y1="41.74" x2="3177.61" y2="13.67" gradientTransform="matrix(1, 0, 0, -1, -3125.39, 55.75)" xlink:href="#linear-gradient"/><linearGradient id="linear-gradient-23" x1="3178.79" y1="41.74" x2="3178.79" y2="13.67" gradientTransform="matrix(1, 0, 0, -1, -3127.74, 55.75)" xlink:href="#linear-gradient"/><linearGradient id="linear-gradient-24" x1="3179.96" y1="41.74" x2="3179.96" y2="13.67" gradientTransform="matrix(1, 0, 0, -1, -3130.09, 55.75)" xlink:href="#linear-gradient"/><linearGradient id="linear-gradient-25" x1="3181.14" y1="41.74" x2="3181.14" y2="13.67" gradientTransform="matrix(1, 0, 0, -1, -3132.44, 55.75)" xlink:href="#linear-gradient"/><linearGradient id="linear-gradient-26" x1="3176.44" y1="41.74" x2="3176.44" y2="13.67" gradientTransform="matrix(1, 0, 0, -1, -3123.04, 58.22)" xlink:href="#linear-gradient"/><linearGradient id="linear-gradient-27" x1="3177.61" y1="41.74" x2="3177.61" y2="13.67" gradientTransform="matrix(1, 0, 0, -1, -3125.39, 58.22)" xlink:href="#linear-gradient"/><linearGradient id="linear-gradient-28" x1="3178.79" y1="41.74" x2="3178.79" y2="13.67" gradientTransform="matrix(1, 0, 0, -1, -3127.74, 58.22)" xlink:href="#linear-gradient"/><linearGradient id="linear-gradient-29" x1="3179.96" y1="41.74" x2="3179.96" y2="13.67" gradientTransform="matrix(1, 0, 0, -1, -3130.09, 58.22)" xlink:href="#linear-gradient"/><linearGradient id="linear-gradient-30" x1="3181.14" y1="41.74" x2="3181.14" y2="13.67" gradientTransform="matrix(1, 0, 0, -1, -3132.44, 58.22)" xlink:href="#linear-gradient"/><linearGradient id="linear-gradient-31" x1="3176.44" y1="41.74" x2="3176.44" y2="13.67" gradientTransform="matrix(1, 0, 0, -1, -3123.04, 60.69)" xlink:href="#linear-gradient"/><linearGradient id="linear-gradient-32" x1="3177.61" y1="41.74" x2="3177.61" y2="13.67" gradientTransform="matrix(1, 0, 0, -1, -3125.39, 60.69)" xlink:href="#linear-gradient"/><linearGradient id="linear-gradient-33" x1="3178.79" y1="41.74" x2="3178.79" y2="13.67" gradientTransform="matrix(1, 0, 0, -1, -3127.74, 60.69)" xlink:href="#linear-gradient"/><linearGradient id="linear-gradient-34" x1="3179.96" y1="41.74" x2="3179.96" y2="13.67" gradientTransform="matrix(1, 0, 0, -1, -3130.09, 60.69)" xlink:href="#linear-gradient"/><linearGradient id="linear-gradient-35" x1="3181.14" y1="41.74" x2="3181.14" y2="13.67" gradientTransform="matrix(1, 0, 0, -1, -3132.44, 60.69)" xlink:href="#linear-gradient"/><linearGradient id="linear-gradient-36" x1="3176.44" y1="41.74" x2="3176.44" y2="13.67" gradientTransform="matrix(1, 0, 0, -1, -3123.04, 63.17)" xlink:href="#linear-gradient"/><linearGradient id="linear-gradient-37" x1="3177.61" y1="41.74" x2="3177.61" y2="13.67" gradientTransform="matrix(1, 0, 0, -1, -3125.39, 63.17)" xlink:href="#linear-gradient"/><linearGradient id="linear-gradient-38" x1="3178.79" y1="41.74" x2="3178.79" y2="13.67" gradientTransform="matrix(1, 0, 0, -1, -3127.74, 63.17)" xlink:href="#linear-gradient"/><linearGradient id="linear-gradient-39" x1="3179.96" y1="41.74" x2="3179.96" y2="13.67" gradientTransform="matrix(1, 0, 0, -1, -3130.09, 63.17)" xlink:href="#linear-gradient"/><linearGradient id="linear-gradient-40" x1="3181.14" y1="41.74" x2="3181.14" y2="13.67" gradientTransform="matrix(1, 0, 0, -1, -3132.44, 63.17)" xlink:href="#linear-gradient"/><linearGradient id="linear-gradient-41" x1="3176.44" y1="41.74" x2="3176.44" y2="13.67" gradientTransform="matrix(1, 0, 0, -1, -3123.04, 65.64)" xlink:href="#linear-gradient"/><linearGradient id="linear-gradient-42" x1="3177.61" y1="41.74" x2="3177.61" y2="13.67" gradientTransform="matrix(1, 0, 0, -1, -3125.39, 65.64)" xlink:href="#linear-gradient"/><linearGradient id="linear-gradient-43" x1="3178.79" y1="41.74" x2="3178.79" y2="13.67" gradientTransform="matrix(1, 0, 0, -1, -3127.74, 65.64)" xlink:href="#linear-gradient"/><linearGradient id="linear-gradient-44" x1="3179.96" y1="41.74" x2="3179.96" y2="13.67" gradientTransform="matrix(1, 0, 0, -1, -3130.09, 65.64)" xlink:href="#linear-gradient"/><linearGradient id="linear-gradient-45" x1="3181.14" y1="41.74" x2="3181.14" y2="13.67" gradientTransform="matrix(1, 0, 0, -1, -3132.44, 65.64)" xlink:href="#linear-gradient"/><linearGradient id="linear-gradient-46" x1="3176.44" y1="41.74" x2="3176.44" y2="13.67" gradientTransform="matrix(1, 0, 0, -1, -3123.04, 68.11)" xlink:href="#linear-gradient"/><linearGradient id="linear-gradient-47" x1="3177.61" y1="41.74" x2="3177.61" y2="13.67" gradientTransform="matrix(1, 0, 0, -1, -3125.39, 68.11)" xlink:href="#linear-gradient"/><linearGradient id="linear-gradient-48" x1="3178.79" y1="41.74" x2="3178.79" y2="13.67" gradientTransform="matrix(1, 0, 0, -1, -3127.74, 68.11)" xlink:href="#linear-gradient"/><linearGradient id="linear-gradient-49" x1="3179.96" y1="41.74" x2="3179.96" y2="13.67" gradientTransform="matrix(1, 0, 0, -1, -3130.09, 68.11)" xlink:href="#linear-gradient"/><linearGradient id="linear-gradient-50" x1="3181.14" y1="41.74" x2="3181.14" y2="13.67" gradientTransform="matrix(1, 0, 0, -1, -3132.44, 68.11)" xlink:href="#linear-gradient"/><linearGradient id="linear-gradient-51" x1="3176.44" y1="41.74" x2="3176.44" y2="13.67" gradientTransform="matrix(1, 0, 0, -1, -3123.04, 70.59)" xlink:href="#linear-gradient"/><linearGradient id="linear-gradient-52" x1="3177.61" y1="41.74" x2="3177.61" y2="13.67" gradientTransform="matrix(1, 0, 0, -1, -3125.39, 70.59)" xlink:href="#linear-gradient"/><linearGradient id="linear-gradient-53" x1="3178.79" y1="41.74" x2="3178.79" y2="13.67" gradientTransform="matrix(1, 0, 0, -1, -3127.74, 70.59)" xlink:href="#linear-gradient"/><linearGradient id="linear-gradient-54" x1="3179.96" y1="41.74" x2="3179.96" y2="13.67" gradientTransform="matrix(1, 0, 0, -1, -3130.09, 70.59)" xlink:href="#linear-gradient"/><linearGradient id="linear-gradient-55" x1="3181.14" y1="41.74" x2="3181.14" y2="13.67" gradientTransform="matrix(1, 0, 0, -1, -3132.44, 70.59)" xlink:href="#linear-gradient"/><linearGradient id="linear-gradient-56" x1="3176.44" y1="41.74" x2="3176.44" y2="13.67" gradientTransform="matrix(1, 0, 0, -1, -3123.04, 73.06)" xlink:href="#linear-gradient"/><linearGradient id="linear-gradient-57" x1="3177.61" y1="41.74" x2="3177.61" y2="13.67" gradientTransform="matrix(1, 0, 0, -1, -3125.39, 73.06)" xlink:href="#linear-gradient"/><linearGradient id="linear-gradient-58" x1="3178.79" y1="41.74" x2="3178.79" y2="13.67" gradientTransform="matrix(1, 0, 0, -1, -3127.74, 73.06)" xlink:href="#linear-gradient"/><linearGradient id="linear-gradient-59" x1="3179.96" y1="41.74" x2="3179.96" y2="13.67" gradientTransform="matrix(1, 0, 0, -1, -3130.09, 73.06)" xlink:href="#linear-gradient"/><linearGradient id="linear-gradient-60" x1="3181.14" y1="41.74" x2="3181.14" y2="13.67" gradientTransform="matrix(1, 0, 0, -1, -3132.44, 73.06)" xlink:href="#linear-gradient"/><linearGradient id="linear-gradient-61" x1="3188.55" y1="39.51" x2="3188.55" y2="22.36" gradientTransform="matrix(-1, 0, 0, 1, 3229.83, 0)" xlink:href="#linear-gradient"/><linearGradient id="linear-gradient-62" x1="3169.63" y1="28.53" x2="3169.63" y2="28.21" gradientTransform="matrix(-1, 0, 0, 1, 3229.83, 0)" xlink:href="#linear-gradient"/><linearGradient id="linear-gradient-63" x1="1533.09" y1="1.94" x2="1533.09" y2="8.63" gradientTransform="translate(-1504)" xlink:href="#linear-gradient"/><linearGradient id="linear-gradient-64" x1="1533.09" y1="13.65" x2="1533.09" y2="-0.69" gradientTransform="translate(-1504)" xlink:href="#linear-gradient"/><linearGradient id="linear-gradient-65" x1="26.91" y1="27.58" x2="27.92" y2="18.94" gradientUnits="userSpaceOnUse"><stop offset="0" stop-color="#f78e6b"/><stop offset="1" stop-color="#f9aa8f"/></linearGradient><linearGradient id="linear-gradient-66" x1="18.76" y1="51.86" x2="28.51" y2="42.73" gradientUnits="userSpaceOnUse"><stop offset="0" stop-color="#fff"/><stop offset="0.84" stop-color="#cddfec"/></linearGradient><linearGradient id="linear-gradient-67" x1="27.7" y1="19.65" x2="31.23" y2="26.47" gradientUnits="userSpaceOnUse"><stop offset="0" stop-color="#00a887"/><stop offset="1" stop-color="#256351"/></linearGradient><linearGradient id="linear-gradient-68" x1="36.77" y1="23.73" x2="41" y2="-1.13" xlink:href="#linear-gradient-65"/><linearGradient id="linear-gradient-69" x1="30.98" y1="38.52" x2="53.08" y2="38.52" xlink:href="#linear-gradient-66"/><linearGradient id="linear-gradient-70" x1="25.98" y1="61.31" x2="42.35" y2="37.06" xlink:href="#linear-gradient-66"/><linearGradient id="linear-gradient-71" x1="15.5" y1="25.69" x2="37.9" y2="25.69" xlink:href="#linear-gradient-66"/><linearGradient id="linear-gradient-72" x1="9.86" y1="16.84" x2="6.57" y2="22.18" xlink:href="#linear-gradient-67"/></defs><title>violin</title><g class="cls-1"><g id="Layer_1" data-name="Layer 1"><circle class="cls-2" cx="31.65" cy="32.15" r="28"/><circle class="cls-2" cx="31.65" cy="32.15" r="28"/><path class="cls-3" d="M22.93,16.12H8.69a28,28,0,0,0-4,23.65h20V17.9A1.78,1.78,0,0,0,22.93,16.12Z"/><path class="cls-4" d="M6.64,25.93a18,18,0,0,0,5.33.22c2-.41,3,.44,4.32-.14a2.34,2.34,0,0,1,2.84.74c.37.55,1.37,0,2.12.49a6.24,6.24,0,0,0,2.61.45S18.18,29.5,6.64,25.93Z"/><path class="cls-5" d="M7,21.83A8.22,8.22,0,0,0,10,22c1.13-.28,1.65.31,2.43-.09a1.12,1.12,0,0,1,1.55.51c.18.38.77,0,1.16.34a2.83,2.83,0,0,0,1.44.31S13.26,24.28,7,21.83Z"/><path class="cls-6" d="M24.51,23.82s-3.78.62-5.54-.15a4.43,4.43,0,0,0,1.52-.51,1.61,1.61,0,0,1,1.78,0c.39.38.58-.29,1,.07A4.73,4.73,0,0,0,24.51,23.82Z"/><path class="cls-7" d="M12.26,19.23a6.85,6.85,0,0,1-2.3-.55,2.39,2.39,0,0,0,.7,0,.81.81,0,0,1,.75.15c.12.16.28,0,.42.12A1.92,1.92,0,0,0,12.26,19.23Z"/><path class="cls-8" d="M20.17,27.12H16.81a3.08,3.08,0,0,0-3.08,3.08V32H10.39a.61.61,0,0,0-.61.61v3H5.56V34.47A.55.55,0,0,0,5,33.92H3.8V29.2a28.3,28.3,0,0,0-.16,3A28,28,0,0,0,4.7,39.77h20V35H20.17Z"/><path class="cls-9" d="M10.39,32a.61.61,0,0,0-.61.61v3H5.56v.15A2.68,2.68,0,0,0,8.24,38.5h1.82V37.38h3.68V32Z"/><path class="cls-10" d="M59.65,32.15a27.86,27.86,0,0,0-5-16H28a1.78,1.78,0,0,0-1.78,1.78V39.77H58.59A28,28,0,0,0,59.65,32.15Z"/><path class="cls-11" d="M56.95,20.15c-.3-.64-.64-1.26-1-1.88a2.38,2.38,0,0,0-.49.52c-.92,1.35-4.11,3.39-7.91,4.66C47.56,23.46,51.63,22.3,56.95,20.15Z"/><path class="cls-12" d="M58.13,23.06a2.68,2.68,0,0,0-1.16.56,9.17,9.17,0,0,1-4.41,1.6,52.8,52.8,0,0,0,5.95-1Q58.33,23.65,58.13,23.06Z"/><path class="cls-13" d="M43.19,25.93a18,18,0,0,1-5.33.22c-2-.41-3,.44-4.32-.14a2.34,2.34,0,0,0-2.84.74c-.37.55-1.37,0-2.12.49a6.24,6.24,0,0,1-2.61.45S31.65,29.5,43.19,25.93Z"/><path class="cls-14" d="M37.25,22.63a8.22,8.22,0,0,1-3,.16c-1.13-.28-1.65.31-2.43-.09a1.12,1.12,0,0,0-1.55.51c-.18.38-.77,0-1.16.34a2.83,2.83,0,0,1-1.44.31S31,25.08,37.25,22.63Z"/><path class="cls-15" d="M35.78,19.47s3.83-.13,5.4-1.23A4.43,4.43,0,0,1,39.59,18a1.61,1.61,0,0,0-1.75.31c-.31.45-.62-.17-1,.27A4.73,4.73,0,0,1,35.78,19.47Z"/><path class="cls-16" d="M48.18,18.78a9.37,9.37,0,0,1-3.2.53,3.27,3.27,0,0,0,.86-.42,1.11,1.11,0,0,1,1-.21c.23.14.32-.21.59-.08A2.62,2.62,0,0,0,48.18,18.78Z"/><path class="cls-17" d="M49.39,25.19a9.37,9.37,0,0,1-3.2.53,3.27,3.27,0,0,0,.86-.42,1.11,1.11,0,0,1,1-.21c.23.14.32-.21.59-.08A2.62,2.62,0,0,0,49.39,25.19Z"/><path class="cls-18" d="M28.67,18A6.85,6.85,0,0,0,31,17.84a2.39,2.39,0,0,1-.68-.17.81.81,0,0,0-.77,0c-.15.14-.26-.1-.43,0A1.92,1.92,0,0,1,28.67,18Z"/><path class="cls-19" d="M59.65,32.15a28.17,28.17,0,0,0-.38-4.61,1.73,1.73,0,0,0-1.66,1.72v2.66H56.37v4H46.93l-.35,3.84h12A28,28,0,0,0,59.65,32.15Z"/><path class="cls-20" d="M59.06,37.87H55.13V27.21a.53.53,0,0,0-.53-.53H47.67a.53.53,0,0,0-.53.53v6.71h-1.2a.55.55,0,0,0-.55.55v1.15H41.15v-3a.61.61,0,0,0-.61-.61H37.2v-6.7A6.38,6.38,0,0,0,30.82,19h-.05V35H26.22v4.73H58.59C58.76,39.15,58.93,38.51,59.06,37.87Z"/><rect class="cls-21" x="53.06" y="27.53" width="0.68" height="0.68" rx="0.05" ry="0.05" transform="translate(106.79 55.75) rotate(-180)"/><rect class="cls-22" x="51.88" y="27.53" width="0.68" height="0.68" rx="0.05" ry="0.05" transform="translate(104.44 55.75) rotate(-180)"/><rect class="cls-23" x="50.71" y="27.53" width="0.68" height="0.68" rx="0.05" ry="0.05" transform="translate(102.09 55.75) rotate(-180)"/><rect class="cls-24" x="49.53" y="27.53" width="0.68" height="0.68" rx="0.05" ry="0.05" transform="translate(99.75 55.75) rotate(-180)"/><rect class="cls-25" x="48.36" y="27.53" width="0.68" height="0.68" rx="0.05" ry="0.05" transform="translate(97.4 55.75) rotate(-180)"/><rect class="cls-26" x="53.06" y="28.77" width="0.68" height="0.68" rx="0.05" ry="0.05" transform="translate(106.79 58.22) rotate(-180)"/><rect class="cls-27" x="51.88" y="28.77" width="0.68" height="0.68" rx="0.05" ry="0.05" transform="translate(104.44 58.22) rotate(-180)"/><rect class="cls-28" x="50.71" y="28.77" width="0.68" height="0.68" rx="0.05" ry="0.05" transform="translate(102.09 58.22) rotate(-180)"/><rect class="cls-29" x="49.53" y="28.77" width="0.68" height="0.68" rx="0.05" ry="0.05" transform="translate(99.75 58.22) rotate(-180)"/><rect class="cls-30" x="48.36" y="28.77" width="0.68" height="0.68" rx="0.05" ry="0.05" transform="translate(97.4 58.22) rotate(-180)"/><rect class="cls-31" x="53.06" y="30.01" width="0.68" height="0.68" rx="0.05" ry="0.05" transform="translate(106.79 60.69) rotate(-180)"/><rect class="cls-32" x="51.88" y="30.01" width="0.68" height="0.68" rx="0.05" ry="0.05" transform="translate(104.44 60.69) rotate(-180)"/><rect class="cls-33" x="50.71" y="30.01" width="0.68" height="0.68" rx="0.05" ry="0.05" transform="translate(102.09 60.69) rotate(-180)"/><rect class="cls-34" x="49.53" y="30.01" width="0.68" height="0.68" rx="0.05" ry="0.05" transform="translate(99.75 60.69) rotate(-180)"/><rect class="cls-35" x="48.36" y="30.01" width="0.68" height="0.68" rx="0.05" ry="0.05" transform="translate(97.4 60.69) rotate(-180)"/><rect class="cls-36" x="53.06" y="31.24" width="0.68" height="0.68" rx="0.05" ry="0.05" transform="translate(106.79 63.17) rotate(-180)"/><rect class="cls-37" x="51.88" y="31.24" width="0.68" height="0.68" rx="0.05" ry="0.05" transform="translate(104.44 63.17) rotate(-180)"/><rect class="cls-38" x="50.71" y="31.24" width="0.68" height="0.68" rx="0.05" ry="0.05" transform="translate(102.09 63.17) rotate(-180)"/><rect class="cls-39" x="49.53" y="31.24" width="0.68" height="0.68" rx="0.05" ry="0.05" transform="translate(99.75 63.17) rotate(-180)"/><rect class="cls-40" x="48.36" y="31.24" width="0.68" height="0.68" rx="0.05" ry="0.05" transform="translate(97.4 63.17) rotate(-180)"/><rect class="cls-41" x="53.06" y="32.48" width="0.68" height="0.68" rx="0.05" ry="0.05" transform="translate(106.79 65.64) rotate(-180)"/><rect class="cls-42" x="51.88" y="32.48" width="0.68" height="0.68" rx="0.05" ry="0.05" transform="translate(104.44 65.64) rotate(-180)"/><rect class="cls-43" x="50.71" y="32.48" width="0.68" height="0.68" rx="0.05" ry="0.05" transform="translate(102.09 65.64) rotate(-180)"/><rect class="cls-44" x="49.53" y="32.48" width="0.68" height="0.68" rx="0.05" ry="0.05" transform="translate(99.75 65.64) rotate(-180)"/><rect class="cls-45" x="48.36" y="32.48" width="0.68" height="0.68" rx="0.05" ry="0.05" transform="translate(97.4 65.64) rotate(-180)"/><rect class="cls-46" x="53.06" y="33.72" width="0.68" height="0.68" rx="0.05" ry="0.05" transform="translate(106.79 68.11) rotate(-180)"/><rect class="cls-47" x="51.88" y="33.72" width="0.68" height="0.68" rx="0.05" ry="0.05" transform="translate(104.44 68.11) rotate(-180)"/><rect class="cls-48" x="50.71" y="33.72" width="0.68" height="0.68" rx="0.05" ry="0.05" transform="translate(102.09 68.11) rotate(-180)"/><rect class="cls-49" x="49.53" y="33.72" width="0.68" height="0.68" rx="0.05" ry="0.05" transform="translate(99.75 68.11) rotate(-180)"/><rect class="cls-50" x="48.36" y="33.72" width="0.68" height="0.68" rx="0.05" ry="0.05" transform="translate(97.4 68.11) rotate(-180)"/><rect class="cls-51" x="53.06" y="34.95" width="0.68" height="0.68" rx="0.05" ry="0.05" transform="translate(106.79 70.59) rotate(-180)"/><rect class="cls-52" x="51.88" y="34.95" width="0.68" height="0.68" rx="0.05" ry="0.05" transform="translate(104.44 70.59) rotate(-180)"/><rect class="cls-53" x="50.71" y="34.95" width="0.68" height="0.68" rx="0.05" ry="0.05" transform="translate(102.09 70.59) rotate(-180)"/><rect class="cls-54" x="49.53" y="34.95" width="0.68" height="0.68" rx="0.05" ry="0.05" transform="translate(99.75 70.59) rotate(-180)"/><rect class="cls-55" x="48.36" y="34.95" width="0.68" height="0.68" rx="0.05" ry="0.05" transform="translate(97.4 70.59) rotate(-180)"/><rect class="cls-56" x="53.06" y="36.19" width="0.68" height="0.68" rx="0.05" ry="0.05" transform="translate(106.79 73.06) rotate(-180)"/><rect class="cls-57" x="51.88" y="36.19" width="0.68" height="0.68" rx="0.05" ry="0.05" transform="translate(104.44 73.06) rotate(-180)"/><rect class="cls-58" x="50.71" y="36.19" width="0.68" height="0.68" rx="0.05" ry="0.05" transform="translate(102.09 73.06) rotate(-180)"/><rect class="cls-59" x="49.53" y="36.19" width="0.68" height="0.68" rx="0.05" ry="0.05" transform="translate(99.75 73.06) rotate(-180)"/><rect class="cls-60" x="48.36" y="36.19" width="0.68" height="0.68" rx="0.05" ry="0.05" transform="translate(97.4 73.06) rotate(-180)"/><path class="cls-61" d="M40.54,32a.61.61,0,0,1,.61.61v3h4.22v.15A2.68,2.68,0,0,1,42.7,38.5H40.88V37.38H37.2V32Z"/><path class="cls-62" d="M60.34,28.36s0,.07-.11.12h0l-.06,0a.23.23,0,0,1-.12-.07A.9.9,0,0,1,60.34,28.36Z"/><path class="cls-63" d="M29.29,4.89v-1h-.4v1a1.43,1.43,0,0,1-1,1.37,4,4,0,1,0,2.43,0A1.45,1.45,0,0,1,29.29,4.89Z"/><circle class="cls-64" cx="29.09" cy="10.11" r="4.04"/><ellipse class="cls-65" cx="20.67" cy="13.94" rx="0.12" ry="10.33" transform="translate(-4.24 12.97) rotate(-31.76)"/><path class="cls-66" d="M26.21,25.69s-1.08-2.41-.15-2.75,3-.53,3,.34A7.14,7.14,0,0,1,28,25.92"/><path class="cls-67" d="M26.06,22.94c-.45.16-.43.81-.29,1.43a1.21,1.21,0,0,0,.44-.21c.54-.41,1.57-.16,2.57.27a3,3,0,0,0,.3-1.16C29,22.41,27,22.6,26.06,22.94Z"/><path class="cls-68" d="M28.51,27.61l-1.39.84s3.1,16.14,20.21,12.25l-1.91-6.35C36.14,36.57,31,31.4,28.51,27.61Z"/><path class="cls-66" d="M15.66,20.88s0-4.1,1.75-4.58,2.78,1.21,1.93,1.21-.42,2.18-2.05,2.78"/><path class="cls-69" d="M34.52,19.32,8.86,16.22s-5.09-.84-5.21,1.55,2.78,2.46,3.68,1.55,3.56-.4,3.92-.77l.17-.17a1.21,1.21,0,0,1,1-.35l7.47.86a1.83,1.83,0,0,1,1.52,1.21l.12.34a4.51,4.51,0,0,0,3.13,2.91,1.83,1.83,0,0,0,1.56-.16c1.27-1,5.25,1.75,5.25,1.75"/><path class="cls-70" d="M32.89,22.31l-1.24-1.13s-4.21-2.5-8-1.93c0,0,3.37.11,3.87.76s-.14,2.44-1,3c1.52-.41,4.91,1.91,4.91,1.91Z"/><path class="cls-66" d="M35.65,7.29l-1.1,3.93a.63.63,0,0,0,.34.75h0a.76.76,0,0,1,.44.72c0,.7.07,2,1.14,2.35,1.51.54,1.1,3-.82,3.81s7.39,2,7.39,2V19.22s-2.41-6.91-1.81-9.44S36,6,35.65,7.29Z"/><path class="cls-71" d="M41.4,13.17l-4.32-6.4c-.74,0-1.32.14-1.43.52L35,9.64a.85.85,0,0,0,.4.37c.32.08-.22,1.25-.24,1.61s-.41.24-.42.24a.63.63,0,0,0,.17.11.76.76,0,0,1,.44.72s-.05-2.45,1.12-1.59,1.5,3.56.9,3.82a1.53,1.53,0,0,1-1,.05,3.61,3.61,0,0,1,1.77,1.15c.44.76-1.29,2,0,2.14a18.78,18.78,0,0,1,3.1.76l1-2.56C41.9,15.45,41.61,14.28,41.4,13.17Z"/><path class="cls-69" d="M32,51.79c-.13,2.28-.22,5-.25,8.36a27.87,27.87,0,0,0,16.79-5.7c-.49-1-1-1.88-1.39-2.79-1.69-3.87-3.49-5.48-5.31-6.23A7.22,7.22,0,0,0,32,51.79Z"/><path class="cls-72" d="M51.25,47.19c-6.88-8.08-7.67-13.39-4.68-16.77,2.79-3.16,2.24-14.52-10.13-11.88a5.89,5.89,0,0,0-4,3l-1.11,2.1a3.15,3.15,0,0,0,.1,3.13,12.55,12.55,0,0,1,1.84,7.65C32.86,39.51,32.18,48,32,51.79c-.1,2.58,3.75,5.1,8,7.1a28,28,0,0,0,13.08-8.72A12,12,0,0,0,51.25,47.19Z"/><path class="cls-73" d="M51.25,47.19c-6.88-8.08-7.67-13.39-4.68-16.77,2.79-3.16,2.24-14.52-10.13-11.88a5.94,5.94,0,0,0-1.54.56L32.62,29.24a6.44,6.44,0,0,1,4.81,1c2.25,1.59,1,4.92.46,10.82s5.18,7.08,3.59,10.62c-1.35,3-6.14,4.8-8.5,2.49,1.38,1.72,4.11,3.35,7,4.73a28,28,0,0,0,13.08-8.72A12,12,0,0,0,51.25,47.19Z"/><path class="cls-74" d="M37,18.43s-3-.38-9.55,6.08-10.16-4.22-10.16-4.22-1.27-.8-1.63.6-.74,10.46,6.8,11.91,12.69-6.17,14.2-8.53S38.33,18,37,18.43Z"/><path class="cls-65" d="M34.78,6.76s-.54,1.46,1.69,3.75,6.52,3,1.45,10.37-2,8.88,2.71,10.93,3,7.21,6,8.76,6.7-10,3.26-17.21-3.68-9.53-4-14.72S35.81,2.67,34.78,6.76Z"/><path class="cls-75" d="M12.35,18c-1-.11-2.88-.32-4.5-.54-2.29-.3-2,.91-2,.91C6,18,6.48,17.57,7.37,18s.14,1.22.14,1.22h0c1-.7,3.4-.27,3.74-.63l.17-.17A1.21,1.21,0,0,1,12.35,18Z"/></g></g></svg>