<svg xmlns="http://www.w3.org/2000/svg" xmlns:xlink="http://www.w3.org/1999/xlink" viewBox="0 0 64 64"><defs><style>.cls-1{isolation:isolate;}.cls-2{fill:url(#linear-gradient);}.cls-3{fill:url(#linear-gradient-2);}.cls-4{fill:url(#linear-gradient-3);}.cls-5{fill:url(#linear-gradient-4);}.cls-6{fill:url(#linear-gradient-5);}.cls-7{fill:url(#linear-gradient-6);}.cls-8{fill:url(#linear-gradient-7);}.cls-9{fill:url(#linear-gradient-8);}.cls-10{fill:url(#linear-gradient-9);}.cls-11{fill:url(#linear-gradient-10);}.cls-12{fill:url(#linear-gradient-11);}.cls-13{fill:url(#linear-gradient-12);}.cls-14{fill:url(#linear-gradient-13);}.cls-15{fill:url(#linear-gradient-14);}.cls-16{fill:url(#linear-gradient-15);}.cls-17{fill:url(#linear-gradient-66);}.cls-18{opacity:0.49;mix-blend-mode:color-burn;fill:url(#linear-gradient-67);}.cls-19{fill:url(#linear-gradient-68);}.cls-20{fill:url(#linear-gradient-69);}.cls-21{fill:url(#linear-gradient-70);}.cls-22{fill:url(#linear-gradient-71);}.cls-23{fill:url(#linear-gradient-72);}.cls-24{fill:url(#linear-gradient-73);}.cls-25{fill:url(#linear-gradient-74);}.cls-26{fill:url(#linear-gradient-75);}.cls-27{fill:url(#linear-gradient-76);}.cls-28{fill:url(#linear-gradient-77);}.cls-29{fill:url(#linear-gradient-78);}.cls-30{fill:url(#linear-gradient-79);}.cls-31{fill:url(#linear-gradient-80);}.cls-32{fill:#f9aa8f;}.cls-33{fill:url(#linear-gradient-81);}.cls-34{fill:url(#linear-gradient-82);}.cls-35{fill:url(#linear-gradient-83);}.cls-36{fill:url(#linear-gradient-84);}.cls-37{fill:#4c68b0;}.cls-38{fill:#ffdfdc;}.cls-39{fill:url(#linear-gradient-85);}.cls-40{fill:#562c25;}.cls-41{fill:url(#linear-gradient-86);}.cls-42{fill:url(#linear-gradient-87);}.cls-43{fill:url(#linear-gradient-88);}.cls-44{fill:url(#linear-gradient-89);}.cls-45{fill:url(#linear-gradient-90);}.cls-46{fill:url(#linear-gradient-91);}</style><linearGradient id="linear-gradient" x1="32.8" y1="72.5" x2="32.8" y2="32.46" gradientUnits="userSpaceOnUse"><stop offset="0" stop-color="#7ff1a4"/><stop offset="0.52" stop-color="#2fbca4"/><stop offset="1" stop-color="#2f7da4"/></linearGradient><linearGradient id="linear-gradient-2" x1="21.07" y1="49.06" x2="21.07" y2="-11.24" gradientUnits="userSpaceOnUse"><stop offset="0" stop-color="#caf1d8"/><stop offset="0.51" stop-color="#7defa4"/><stop offset="1" stop-color="#2fbca4"/></linearGradient><linearGradient id="linear-gradient-3" x1="27.87" y1="33.76" x2="27.87" y2="-11.25" xlink:href="#linear-gradient-2"/><linearGradient id="linear-gradient-4" x1="24.39" y1="33.76" x2="24.39" y2="-11.25" xlink:href="#linear-gradient-2"/><linearGradient id="linear-gradient-5" x1="34.36" y1="33.76" x2="34.36" y2="-11.25" xlink:href="#linear-gradient-2"/><linearGradient id="linear-gradient-6" x1="15.87" y1="33.76" x2="15.87" y2="-11.25" xlink:href="#linear-gradient-2"/><linearGradient id="linear-gradient-7" x1="14.66" y1="33.76" x2="14.66" y2="-11.25" xlink:href="#linear-gradient-2"/><linearGradient id="linear-gradient-8" x1="23.73" y1="33.76" x2="23.73" y2="-11.25" xlink:href="#linear-gradient-2"/><linearGradient id="linear-gradient-9" x1="10.89" y1="38.96" x2="10.89" y2="21.03" xlink:href="#linear-gradient-2"/><linearGradient id="linear-gradient-10" x1="21.36" y1="44.9" x2="21.36" y2="19.11" xlink:href="#linear-gradient-2"/><linearGradient id="linear-gradient-11" x1="10.16" y1="41.59" x2="10.16" y2="13.52" xlink:href="#linear-gradient-2"/><linearGradient id="linear-gradient-12" x1="11.33" y1="41.59" x2="11.33" y2="13.52" xlink:href="#linear-gradient-2"/><linearGradient id="linear-gradient-13" x1="12.51" y1="41.59" x2="12.51" y2="13.52" xlink:href="#linear-gradient-2"/><linearGradient id="linear-gradient-14" x1="13.68" y1="41.59" x2="13.68" y2="13.52" xlink:href="#linear-gradient-2"/><linearGradient id="linear-gradient-15" x1="14.86" y1="41.59" x2="14.86" y2="13.52" xlink:href="#linear-gradient-2"/><linearGradient id="linear-gradient-66" x1="22.27" y1="39.36" x2="22.27" y2="22.21" xlink:href="#linear-gradient-2"/><linearGradient id="linear-gradient-67" x1="3.35" y1="28.38" x2="3.35" y2="28.06" xlink:href="#linear-gradient-2"/><linearGradient id="linear-gradient-68" x1="32.8" y1="67.67" x2="32.8" y2="16.12" xlink:href="#linear-gradient"/><linearGradient id="linear-gradient-69" x1="46.29" y1="38.8" x2="46.29" y2="23.68" xlink:href="#linear-gradient"/><linearGradient id="linear-gradient-70" x1="46.29" y1="34.71" x2="46.29" y2="31.98" xlink:href="#linear-gradient"/><linearGradient id="linear-gradient-71" x1="44.12" y1="44.46" x2="44.12" y2="29.34" xlink:href="#linear-gradient"/><linearGradient id="linear-gradient-72" x1="44.12" y1="40.37" x2="44.12" y2="37.64" xlink:href="#linear-gradient"/><linearGradient id="linear-gradient-73" x1="48.46" y1="44.46" x2="48.46" y2="29.34" xlink:href="#linear-gradient"/><linearGradient id="linear-gradient-74" x1="48.46" y1="40.37" x2="48.46" y2="37.64" xlink:href="#linear-gradient"/><linearGradient id="linear-gradient-75" x1="41.9" y1="52.24" x2="41.9" y2="37.12" xlink:href="#linear-gradient"/><linearGradient id="linear-gradient-76" x1="41.9" y1="48.15" x2="41.9" y2="45.42" xlink:href="#linear-gradient"/><linearGradient id="linear-gradient-77" x1="46.29" y1="52.24" x2="46.29" y2="37.12" xlink:href="#linear-gradient"/><linearGradient id="linear-gradient-78" x1="46.29" y1="48.15" x2="46.29" y2="45.42" xlink:href="#linear-gradient"/><linearGradient id="linear-gradient-79" x1="50.69" y1="52.24" x2="50.69" y2="37.12" xlink:href="#linear-gradient"/><linearGradient id="linear-gradient-80" x1="50.69" y1="48.15" x2="50.69" y2="45.42" xlink:href="#linear-gradient"/><linearGradient id="linear-gradient-81" x1="22.22" y1="20.81" x2="21.81" y2="3.53" gradientUnits="userSpaceOnUse"><stop offset="0" stop-color="#f78e6b"/><stop offset="1" stop-color="#f9aa8f"/></linearGradient><linearGradient id="linear-gradient-82" x1="27.82" y1="19.52" x2="21.89" y2="-2.91" xlink:href="#linear-gradient-81"/><linearGradient id="linear-gradient-83" x1="39.21" y1="31.18" x2="34.96" y2="38.18" gradientUnits="userSpaceOnUse"><stop offset="0.03" stop-color="#212a60"/><stop offset="1" stop-color="#0b163d"/></linearGradient><linearGradient id="linear-gradient-84" x1="14.19" y1="48.77" x2="27.39" y2="48.77" gradientUnits="userSpaceOnUse"><stop offset="0" stop-color="#4c68b0"/><stop offset="0.48" stop-color="#4965ae"/><stop offset="0.9" stop-color="#405aa7"/><stop offset="1" stop-color="#3d56a5"/></linearGradient><linearGradient id="linear-gradient-85" x1="50.08" y1="33.66" x2="1.35" y2="29.67" gradientUnits="userSpaceOnUse"><stop offset="0" stop-color="#ffdfdc"/><stop offset="1" stop-color="#ffceca"/></linearGradient><linearGradient id="linear-gradient-86" x1="24.06" y1="5.15" x2="17.73" y2="11.23" gradientUnits="userSpaceOnUse"><stop offset="0" stop-color="#68370c"/><stop offset="1" stop-color="#532c0a"/></linearGradient><linearGradient id="linear-gradient-87" x1="31.91" y1="30.86" x2="34.66" y2="32.82" xlink:href="#linear-gradient-83"/><linearGradient id="linear-gradient-88" x1="31.18" y1="31.88" x2="33.93" y2="33.83" xlink:href="#linear-gradient-83"/><linearGradient id="linear-gradient-89" x1="32.01" y1="30.71" x2="34.76" y2="32.67" xlink:href="#linear-gradient-83"/><linearGradient id="linear-gradient-90" x1="20.26" y1="9.49" x2="23.96" y2="9.15" xlink:href="#linear-gradient-81"/><linearGradient id="linear-gradient-91" x1="17.91" y1="20.62" x2="25.54" y2="46.71" gradientUnits="userSpaceOnUse"><stop offset="0" stop-color="#f9aa8f"/><stop offset="1" stop-color="#f78e6b"/></linearGradient></defs><title>woman bowling</title><g class="cls-1"><g id="Layer_1" data-name="Layer 1"><circle class="cls-2" cx="32.8" cy="32" r="28"/><path class="cls-3" d="M35.55,16H9.85a28,28,0,0,0-4,23.65H37.33V17.75A1.78,1.78,0,0,0,35.55,16Z"/><path class="cls-4" d="M19.27,25.78A18,18,0,0,0,24.6,26c2-.41,3,.44,4.32-.14a2.34,2.34,0,0,1,2.84.74c.37.55,1.37,0,2.12.49a6.24,6.24,0,0,0,2.61.45S30.8,29.35,19.27,25.78Z"/><path class="cls-5" d="M19.62,21.68a8.22,8.22,0,0,0,3,.16c1.13-.28,1.65.31,2.43-.09a1.12,1.12,0,0,1,1.55.51c.18.38.77,0,1.16.34a2.83,2.83,0,0,0,1.44.31S25.88,24.13,19.62,21.68Z"/><path class="cls-6" d="M37.13,23.67s-3.78.62-5.54-.15A4.43,4.43,0,0,0,33.11,23a1.61,1.61,0,0,1,1.78,0c.39.38.58-.29,1,.07A4.73,4.73,0,0,0,37.13,23.67Z"/><path class="cls-7" d="M14.27,18.63a9.37,9.37,0,0,0,3.2.53,3.27,3.27,0,0,1-.86-.42,1.11,1.11,0,0,0-1-.21c-.23.14-.32-.21-.59-.08A2.62,2.62,0,0,1,14.27,18.63Z"/><path class="cls-8" d="M13.06,25a9.37,9.37,0,0,0,3.2.53,3.27,3.27,0,0,1-.86-.42,1.11,1.11,0,0,0-1-.21c-.23.14-.32-.21-.59-.08A2.62,2.62,0,0,1,13.06,25Z"/><path class="cls-9" d="M24.89,19.08a6.85,6.85,0,0,1-2.3-.55,2.39,2.39,0,0,0,.7,0,.81.81,0,0,1,.75.15c.12.16.28,0,.42.12A1.92,1.92,0,0,0,24.89,19.08Z"/><path class="cls-10" d="M16.62,35.78H7.19v-4H6V29.11a1.72,1.72,0,0,0-.82-1.46,28,28,0,0,0,.72,12H17Z"/><path class="cls-11" d="M32.79,27H29.44A3.08,3.08,0,0,0,26.36,30v1.83H23a.61.61,0,0,0-.61.61v3H18.18V34.32a.55.55,0,0,0-.55-.55h-1.2v-11a.53.53,0,0,0-.53-.53H9a.53.53,0,0,0-.53.53v15h-3c.13.64.3,1.28.47,1.9H37.33V34.89H32.79Z"/><rect class="cls-12" x="9.82" y="23.67" width="0.68" height="0.68" rx="0.05" ry="0.05"/><rect class="cls-13" x="11" y="23.67" width="0.68" height="0.68" rx="0.05" ry="0.05"/><rect class="cls-14" x="12.17" y="23.67" width="0.68" height="0.68" rx="0.05" ry="0.05"/><rect class="cls-15" x="13.34" y="23.67" width="0.68" height="0.68" rx="0.05" ry="0.05"/><rect class="cls-16" x="14.52" y="23.67" width="0.68" height="0.68" rx="0.05" ry="0.05"/><rect class="cls-12" x="9.82" y="24.91" width="0.68" height="0.68" rx="0.05" ry="0.05"/><rect class="cls-13" x="11" y="24.91" width="0.68" height="0.68" rx="0.05" ry="0.05"/><rect class="cls-14" x="12.17" y="24.91" width="0.68" height="0.68" rx="0.05" ry="0.05"/><rect class="cls-15" x="13.34" y="24.91" width="0.68" height="0.68" rx="0.05" ry="0.05"/><rect class="cls-16" x="14.52" y="24.91" width="0.68" height="0.68" rx="0.05" ry="0.05"/><rect class="cls-12" x="9.82" y="26.15" width="0.68" height="0.68" rx="0.05" ry="0.05"/><rect class="cls-13" x="11" y="26.15" width="0.68" height="0.68" rx="0.05" ry="0.05"/><rect class="cls-14" x="12.17" y="26.15" width="0.68" height="0.68" rx="0.05" ry="0.05"/><rect class="cls-15" x="13.34" y="26.15" width="0.68" height="0.68" rx="0.05" ry="0.05"/><rect class="cls-16" x="14.52" y="26.15" width="0.68" height="0.68" rx="0.05" ry="0.05"/><rect class="cls-12" x="9.82" y="27.38" width="0.68" height="0.68" rx="0.05" ry="0.05"/><rect class="cls-13" x="11" y="27.38" width="0.68" height="0.68" rx="0.05" ry="0.05"/><rect class="cls-14" x="12.17" y="27.38" width="0.68" height="0.68" rx="0.05" ry="0.05"/><rect class="cls-15" x="13.34" y="27.38" width="0.68" height="0.68" rx="0.05" ry="0.05"/><rect class="cls-16" x="14.52" y="27.38" width="0.68" height="0.68" rx="0.05" ry="0.05"/><rect class="cls-12" x="9.82" y="28.62" width="0.68" height="0.68" rx="0.05" ry="0.05"/><rect class="cls-13" x="11" y="28.62" width="0.68" height="0.68" rx="0.05" ry="0.05"/><rect class="cls-14" x="12.17" y="28.62" width="0.68" height="0.68" rx="0.05" ry="0.05"/><rect class="cls-15" x="13.34" y="28.62" width="0.68" height="0.68" rx="0.05" ry="0.05"/><rect class="cls-16" x="14.52" y="28.62" width="0.68" height="0.68" rx="0.05" ry="0.05"/><rect class="cls-12" x="9.82" y="29.86" width="0.68" height="0.68" rx="0.05" ry="0.05"/><rect class="cls-13" x="11" y="29.86" width="0.68" height="0.68" rx="0.05" ry="0.05"/><rect class="cls-14" x="12.17" y="29.86" width="0.68" height="0.68" rx="0.05" ry="0.05"/><rect class="cls-15" x="13.34" y="29.86" width="0.68" height="0.68" rx="0.05" ry="0.05"/><rect class="cls-16" x="14.52" y="29.86" width="0.68" height="0.68" rx="0.05" ry="0.05"/><rect class="cls-12" x="9.82" y="31.09" width="0.68" height="0.68" rx="0.05" ry="0.05"/><rect class="cls-13" x="11" y="31.09" width="0.68" height="0.68" rx="0.05" ry="0.05"/><rect class="cls-14" x="12.17" y="31.09" width="0.68" height="0.68" rx="0.05" ry="0.05"/><rect class="cls-15" x="13.34" y="31.09" width="0.68" height="0.68" rx="0.05" ry="0.05"/><rect class="cls-16" x="14.52" y="31.09" width="0.68" height="0.68" rx="0.05" ry="0.05"/><rect class="cls-12" x="9.82" y="32.33" width="0.68" height="0.68" rx="0.05" ry="0.05"/><rect class="cls-13" x="11" y="32.33" width="0.68" height="0.68" rx="0.05" ry="0.05"/><rect class="cls-14" x="12.17" y="32.33" width="0.68" height="0.68" rx="0.05" ry="0.05"/><rect class="cls-15" x="13.34" y="32.33" width="0.68" height="0.68" rx="0.05" ry="0.05"/><rect class="cls-16" x="14.52" y="32.33" width="0.68" height="0.68" rx="0.05" ry="0.05"/><rect class="cls-12" x="9.82" y="33.57" width="0.68" height="0.68" rx="0.05" ry="0.05"/><rect class="cls-13" x="11" y="33.57" width="0.68" height="0.68" rx="0.05" ry="0.05"/><rect class="cls-14" x="12.17" y="33.57" width="0.68" height="0.68" rx="0.05" ry="0.05"/><rect class="cls-15" x="13.34" y="33.57" width="0.68" height="0.68" rx="0.05" ry="0.05"/><rect class="cls-16" x="14.52" y="33.57" width="0.68" height="0.68" rx="0.05" ry="0.05"/><rect class="cls-12" x="9.82" y="34.8" width="0.68" height="0.68" rx="0.05" ry="0.05"/><rect class="cls-13" x="11" y="34.8" width="0.68" height="0.68" rx="0.05" ry="0.05"/><rect class="cls-14" x="12.17" y="34.8" width="0.68" height="0.68" rx="0.05" ry="0.05"/><rect class="cls-15" x="13.34" y="34.8" width="0.68" height="0.68" rx="0.05" ry="0.05"/><rect class="cls-16" x="14.52" y="34.8" width="0.68" height="0.68" rx="0.05" ry="0.05"/><rect class="cls-12" x="9.82" y="36.04" width="0.68" height="0.68" rx="0.05" ry="0.05"/><rect class="cls-13" x="11" y="36.04" width="0.68" height="0.68" rx="0.05" ry="0.05"/><rect class="cls-14" x="12.17" y="36.04" width="0.68" height="0.68" rx="0.05" ry="0.05"/><rect class="cls-15" x="13.34" y="36.04" width="0.68" height="0.68" rx="0.05" ry="0.05"/><rect class="cls-16" x="14.52" y="36.04" width="0.68" height="0.68" rx="0.05" ry="0.05"/><path class="cls-17" d="M23,31.88a.61.61,0,0,0-.61.61v3H18.18v.15a2.68,2.68,0,0,0,2.68,2.73h1.82V37.23h3.68V31.88Z"/><path class="cls-18" d="M3.21,28.21s0,.07.11.12h.07a.23.23,0,0,0,.12-.07A.9.9,0,0,0,3.21,28.21Z"/><path class="cls-19" d="M11.79,50.5a28,28,0,0,0,42,0Z"/><path class="cls-20" d="M46.47,38.36a1.48,1.48,0,0,0,1.41-1,6.6,6.6,0,0,0,.33-2.12A5.2,5.2,0,0,0,47.26,32a.86.86,0,0,1-.17-.82,5.44,5.44,0,0,0,.22-1.59c0-1.41-.45-2.56-1-2.56s-1,1.15-1,2.56a5.44,5.44,0,0,0,.22,1.59.86.86,0,0,1-.17.82,5.2,5.2,0,0,0-.94,3.26,6.6,6.6,0,0,0,.33,2.12,1.48,1.48,0,0,0,1.41,1Z"/><path class="cls-21" d="M46.29,33.09a6,6,0,0,0,1.49-.18,3.94,3.94,0,0,0-.22-.45,6.36,6.36,0,0,1-2.56,0,3.94,3.94,0,0,0-.22.45A6,6,0,0,0,46.29,33.09Z"/><path class="cls-22" d="M44.3,44a1.48,1.48,0,0,0,1.41-1A6.6,6.6,0,0,0,46,40.92a5.2,5.2,0,0,0-.94-3.26.86.86,0,0,1-.17-.82,5.44,5.44,0,0,0,.22-1.59c0-1.41-.45-2.56-1-2.56s-1,1.15-1,2.56a5.44,5.44,0,0,0,.22,1.59.86.86,0,0,1-.17.82,5.2,5.2,0,0,0-.94,3.26A6.6,6.6,0,0,0,42.54,43,1.48,1.48,0,0,0,44,44Z"/><path class="cls-23" d="M44.12,38.75a6,6,0,0,0,1.49-.18,3.94,3.94,0,0,0-.22-.45,6.36,6.36,0,0,1-2.56,0,3.94,3.94,0,0,0-.22.45A6,6,0,0,0,44.12,38.75Z"/><path class="cls-24" d="M48.63,44A1.48,1.48,0,0,0,50,43a6.6,6.6,0,0,0,.33-2.12,5.2,5.2,0,0,0-.94-3.26.86.86,0,0,1-.17-.82,5.44,5.44,0,0,0,.22-1.59c0-1.41-.45-2.56-1-2.56s-1,1.15-1,2.56a5.44,5.44,0,0,0,.22,1.59.86.86,0,0,1-.17.82,5.2,5.2,0,0,0-.94,3.26A6.6,6.6,0,0,0,46.88,43a1.48,1.48,0,0,0,1.41,1Z"/><path class="cls-25" d="M48.46,38.75A6,6,0,0,0,50,38.57a3.94,3.94,0,0,0-.22-.45,6.36,6.36,0,0,1-2.56,0,3.94,3.94,0,0,0-.22.45A6,6,0,0,0,48.46,38.75Z"/><path class="cls-26" d="M42.07,51.8a1.48,1.48,0,0,0,1.41-1,6.6,6.6,0,0,0,.33-2.12,5.2,5.2,0,0,0-.94-3.26.86.86,0,0,1-.17-.82A5.44,5.44,0,0,0,42.91,43c0-1.41-.45-2.56-1-2.56s-1,1.15-1,2.56a5.44,5.44,0,0,0,.22,1.59.86.86,0,0,1-.17.82A5.2,5.2,0,0,0,40,48.69a6.6,6.6,0,0,0,.33,2.12,1.48,1.48,0,0,0,1.41,1Z"/><path class="cls-27" d="M41.9,46.53a6,6,0,0,0,1.49-.18,3.94,3.94,0,0,0-.22-.45,6.36,6.36,0,0,1-2.56,0,3.94,3.94,0,0,0-.22.45A6,6,0,0,0,41.9,46.53Z"/><path class="cls-28" d="M46.47,51.8a1.48,1.48,0,0,0,1.41-1,6.6,6.6,0,0,0,.33-2.12,5.2,5.2,0,0,0-.94-3.26.86.86,0,0,1-.17-.82A5.44,5.44,0,0,0,47.3,43c0-1.41-.45-2.56-1-2.56s-1,1.15-1,2.56a5.44,5.44,0,0,0,.22,1.59.86.86,0,0,1-.17.82,5.2,5.2,0,0,0-.94,3.26,6.6,6.6,0,0,0,.33,2.12,1.48,1.48,0,0,0,1.41,1Z"/><path class="cls-29" d="M46.29,46.53a6,6,0,0,0,1.49-.18,3.94,3.94,0,0,0-.22-.45,6.36,6.36,0,0,1-2.56,0,3.94,3.94,0,0,0-.22.45A6,6,0,0,0,46.29,46.53Z"/><path class="cls-30" d="M50.86,51.8a1.48,1.48,0,0,0,1.41-1,6.6,6.6,0,0,0,.33-2.12,5.2,5.2,0,0,0-.94-3.26.86.86,0,0,1-.17-.82A5.44,5.44,0,0,0,51.7,43c0-1.41-.45-2.56-1-2.56s-1,1.15-1,2.56a5.44,5.44,0,0,0,.22,1.59.86.86,0,0,1-.17.82,5.2,5.2,0,0,0-.94,3.26,6.6,6.6,0,0,0,.33,2.12,1.48,1.48,0,0,0,1.41,1Z"/><path class="cls-31" d="M50.69,46.53a6,6,0,0,0,1.49-.18A3.94,3.94,0,0,0,52,45.9a6.36,6.36,0,0,1-2.56,0,3.94,3.94,0,0,0-.22.45A6,6,0,0,0,50.69,46.53Z"/><path class="cls-32" d="M27.79,10.35a.51.51,0,0,0,.3-.76c-1.31-2.52-2.67-5-2.67-5s-3.39-1.16-5,3.44c-.1.28.48,1.21.38,1.53-.3,0-.53.43-.53,1.63a5.91,5.91,0,0,1-2.87,5.17l.46,6.69,10.7,2.3c-2.18-1.65-3.8-5.23-4.77-8.35a2.09,2.09,0,0,1,1.47-2.64,5,5,0,0,0,1.58-.65C27.5,13.22,27.79,10.35,27.79,10.35Z"/><path class="cls-33" d="M20.69,17.51l3,3s-1.88-3.14-1.5-4.47,2.58-1.48,2.58-1.48h0a2.12,2.12,0,0,1,.45-.18,5,5,0,0,0,1.58-.65c-3.43.92-3.9-2.13-4-2.84a.12.12,0,0,0-.14-.11,1.68,1.68,0,0,1-.72,0,1.43,1.43,0,0,1-1-1l-.71.54a5.69,5.69,0,0,0-.06.86,5.91,5.91,0,0,1-2.87,5.17v.11l1.19-.08Z"/><path class="cls-34" d="M21.37,6.15l.86,1.91a4.23,4.23,0,0,1,.44,1,.25.25,0,0,0,.41.1,4.13,4.13,0,0,1,2.09-1.3c1.11-.1,2.05,2.45,2.37,2.45h.32a.5.5,0,0,0,.31-.5.57.57,0,0,1-.69-.31c-.36-.61-1.29-2.15-1.35-2.32s.23-.37.41-.52l-.76-1.39L23.57,4.6A4,4,0,0,0,21.37,6.15Z"/><path class="cls-32" d="M37.37,31.32l-1.11.16a3,3,0,0,1-.71,0l-9.43-1S22.5,14.85,16.58,18.25c0,0-4.75,1.59,3.37,12.85,2.65,3.68,11.9,3.08,15.39,1.84h0l.28-.1c.88-.13,1.42,1.62,2.81.83A1.07,1.07,0,0,0,39,32.4,1.48,1.48,0,0,0,37.37,31.32Z"/><circle class="cls-35" cx="36.91" cy="34.95" r="5.92"/><path class="cls-36" d="M14.19,52.92a28,28,0,0,0,8.53,5.21,44.48,44.48,0,0,0,4.67-17.85l-12.17-.86S15,46.5,14.19,52.92Z"/><path class="cls-37" d="M32.8,60l.82,0a17.22,17.22,0,0,0-1-2.49c-3.22-6.44-11.21-18.06-11.21-18.06L14,38.63s-4.17,4.7-2.47,10.24a11.66,11.66,0,0,0,2.64,4A27.89,27.89,0,0,0,32.8,60Z"/><path class="cls-38" d="M28.37,25.32c-2.11-.77-4.42-4.37-4.84-5.05-2.83-4.9-6.17-3.84-6.17-3.84C18.54,33,14.79,36.15,11.18,43c-1.55,3,16.27,4.19,16.28.86A101.42,101.42,0,0,0,27,33.23a2.77,2.77,0,0,1,1-2.43C29.55,29.46,30.25,26,28.37,25.32Z"/><path class="cls-39" d="M28.18,30.58l.19-.2h0l.17-.22,0-.05.16-.24h0l.15-.26,0-.05a5.31,5.31,0,0,0,.25-.55l0-.05.1-.29h0c-.63.7-.91-.65-2.47-.4S23.16,27,22.95,22c-.12-2.75-1.19-4.14-2.18-4.84a10.24,10.24,0,0,0-.91-.48,3.94,3.94,0,0,0-2.5-.25c.09,1.3.15,2.51.19,3.65h0q0,.32,0,.64c0,.08,0,.17,0,.25s0,.26,0,.38,0,.18,0,.27,0,.23,0,.34,0,.19,0,.28,0,.22,0,.32,0,.18,0,.28,0,.21,0,.31,0,.18,0,.27,0,.2,0,.3v1.36l0,.28,0,.24,0,.28,0,.23,0,.29,0,.21,0,.37,0,.24,0,.34,0,.2,0,.27,0,.21,0,.24,0,.21,0,.23,0,.21,0,.22,0,.2,0,.22,0,.2,0,.21,0,.19,0,.21,0,.19,0,.21,0,.18-.05.21,0,.17-.06.22,0,.15-.1.35,0,.12-.07.23,0,.16-.06.19-.05.16-.06.18-.05.16-.06.17-.06.16-.06.17-.06.16-.06.17-.06.15-.06.17-.06.15-.07.16-.06.15-.07.16-.06.14-.07.17-.06.13-.08.19L15,36l-.13.29-.06.12-.08.17-.06.13-.08.16-.07.13-.08.15-.07.13-.08.15-.07.13-.08.15-.07.13-.08.15-.07.13-.08.15-.07.13-.08.15-.07.13-.08.15-.07.13-.09.15-.07.12-.12.2,0,.07-.15.27-.12.21,0,.07-.16.27-.05.09-.11.2-.05.09-.11.19-.06.11-.1.17-.07.13-.09.16-.07.13-.09.16-.07.13-.09.17-.07.13-.1.18-.07.12-.11.2-.05.1-.16.31-.05.13v0l0,.09v0a.66.66,0,0,0,0,.08s0,0,0,0a.71.71,0,0,0,.06.23l0,0,0,.08,0,0,.06.08,0,0a1.77,1.77,0,0,0,.23.21l0,0,.1.07.05,0,.12.07.05,0,.38.19.06,0,.15.06.08,0,.16.06.07,0,.23.08h0l.25.08.09,0,.18.05.1,0,.19,0,.1,0,.26.06h.06l.27.06.12,0,.19,0,.13,0,.19,0,.13,0,.23,0,.17,0,.23,0,.16,0,.18,0,.17,0,.17,0,.17,0,.18,0,.32,0,.16,0,.2,0h.15l.21,0h.14l.22,0h.11l.47,0h2.34l1.13,0h.06l.25,0h.06l1.06-.11h0l.23,0h.05c.33,0,.63-.11.92-.17h.05l.19,0h.05l.18-.05h0s-6.16-.1-6.13-2.44c0-2,6-1.67,7.95-1.52h0q0-.35,0-.7h0q0-.35,0-.69h0a16.77,16.77,0,0,0-2.15-3.84c-.94-.85-1.09-1.87,1.19-3.5a7.56,7.56,0,0,0,.62-.49c0-.08,0-.15.08-.23l0-.11.1-.21,0-.08.12-.19,0-.07.18-.22,0,0,.22-.21.2-.18Z"/><path class="cls-32" d="M33,41.25l-.06,0a15.7,15.7,0,0,1-3-1.58l-2.7-1.83A13.89,13.89,0,0,1,21.17,25c.41-4.21-.06-8.58-3.8-8.58,0,0-5.2.7-1.73,14.92,2,8,10.58,9.93,14.58,10.38h0l.21,0c1,.23.4,2.14,2.14,2.14a1.21,1.21,0,0,0,1.29-1.33A1.37,1.37,0,0,0,33,41.25Z"/><path class="cls-40" d="M23.41,4c-7.82-.32-3.53,9.34-3.53,9.34A26.55,26.55,0,0,1,21,10.26a.5.5,0,0,0,0-.44c-.3-.53-.42-1.54.15-1.92a.81.81,0,0,1,1.08.16,3.46,3.46,0,0,1,2.39-1.15c3.23-.25,2.77-.73,2.47-1.09a.13.13,0,0,1,.1-.22C28.46,5.55,30.38,4.29,23.41,4Z"/><path class="cls-41" d="M20.95,4.34c-4.32,1.68-1.07,9-1.07,9A26.55,26.55,0,0,1,21,10.26a.5.5,0,0,0,0-.44,1.86,1.86,0,0,1-.09-1.65h0C20.83,7.74,22,7,20.28,6.35S20.84,4.4,20.95,4.34Z"/><circle class="cls-42" cx="34.01" cy="32.35" r="0.37"/><circle class="cls-43" cx="34.01" cy="33.89" r="0.37"/><circle class="cls-44" cx="35.37" cy="33.1" r="0.37"/><path class="cls-45" d="M22,9.51a.3.3,0,0,0,.15-.34c-.08-.34-.23-.82-.46-.87s-.64.47-.43,1,.65,1.12.84,1.06.12-.28.12-.28-.43-.22-.34-.46A.24.24,0,0,1,22,9.51Z"/><path class="cls-46" d="M29.48,41.64c-4.24-.6-12-2.73-13.84-10.29-3.41-14,1.55-14.9,1.72-14.92-.09,0-1.45.7-1.5,4.31s1.1,11.55,4.43,16C22.86,40.25,27.5,41.33,29.48,41.64Z"/></g></g></svg>