<svg xmlns="http://www.w3.org/2000/svg" xmlns:xlink="http://www.w3.org/1999/xlink" viewBox="0 0 64 64"><defs><style>.cls-1{isolation:isolate;}.cls-2{fill:url(#linear-gradient);}.cls-3{fill:url(#linear-gradient-2);}.cls-4{fill:url(#linear-gradient-3);}.cls-5{fill:url(#linear-gradient-4);}.cls-6{fill:url(#linear-gradient-5);}.cls-7{fill:url(#linear-gradient-6);}.cls-8{fill:url(#linear-gradient-7);}.cls-9{fill:url(#linear-gradient-8);}.cls-10{fill:url(#linear-gradient-9);}.cls-11{fill:url(#linear-gradient-10);}.cls-12{fill:url(#linear-gradient-11);}.cls-13{fill:url(#linear-gradient-12);}.cls-14{fill:url(#linear-gradient-13);}.cls-15{fill:url(#linear-gradient-14);}.cls-16{fill:url(#linear-gradient-15);}.cls-17{fill:url(#linear-gradient-16);}.cls-18{fill:url(#linear-gradient-17);}.cls-19{fill:url(#linear-gradient-68);}.cls-20{opacity:0.49;mix-blend-mode:color-burn;fill:url(#linear-gradient-69);}.cls-21{fill:url(#linear-gradient-70);}.cls-22{fill:url(#linear-gradient-71);}.cls-23{fill:url(#linear-gradient-72);}.cls-24{fill:url(#linear-gradient-73);}.cls-25{fill:url(#linear-gradient-74);}.cls-26{fill:#fff;}.cls-27{fill:url(#linear-gradient-75);}.cls-28{fill:#026c81;}.cls-29{fill:url(#linear-gradient-76);}.cls-30{fill:#f16c52;}.cls-31{fill:url(#linear-gradient-77);}.cls-32{fill:url(#linear-gradient-78);}.cls-33{fill:url(#linear-gradient-79);}.cls-34{fill:#3f456b;}.cls-35{fill:url(#linear-gradient-80);}.cls-36{fill:url(#linear-gradient-81);}.cls-37{fill:url(#linear-gradient-82);}.cls-38{fill:url(#linear-gradient-83);}.cls-39{fill:url(#linear-gradient-84);}.cls-40{fill:url(#linear-gradient-85);}.cls-41{fill:url(#linear-gradient-86);}.cls-42{fill:url(#linear-gradient-87);}.cls-43{fill:url(#linear-gradient-88);}.cls-44{fill:url(#linear-gradient-89);}.cls-45{fill:url(#linear-gradient-90);}.cls-46{fill:url(#linear-gradient-91);}.cls-47{fill:url(#linear-gradient-92);}.cls-48{fill:url(#linear-gradient-93);}.cls-49{fill:url(#linear-gradient-94);}</style><linearGradient id="linear-gradient" x1="32" y1="97.25" x2="32" y2="9.14" gradientUnits="userSpaceOnUse"><stop offset="0" stop-color="#fff"/><stop offset="0.84" stop-color="#cddfec"/></linearGradient><linearGradient id="linear-gradient-2" x1="32" y1="97.25" x2="32" y2="9.14" gradientUnits="userSpaceOnUse"><stop offset="0.02" stop-color="#edd7ad"/><stop offset="0.52" stop-color="#dd8c93"/><stop offset="1" stop-color="#cb1e45"/></linearGradient><linearGradient id="linear-gradient-3" x1="32" y1="61.83" x2="32" y2="-43.55" xlink:href="#linear-gradient-2"/><linearGradient id="linear-gradient-4" x1="22.71" y1="29.11" x2="22.71" y2="-23.81" xlink:href="#linear-gradient-2"/><linearGradient id="linear-gradient-5" x1="15.49" y1="29.95" x2="15.49" y2="-22.06" xlink:href="#linear-gradient-2"/><linearGradient id="linear-gradient-6" x1="49.1" y1="34.85" x2="49.1" y2="-42.43" xlink:href="#linear-gradient-2"/><linearGradient id="linear-gradient-7" x1="47.49" y1="35.09" x2="47.49" y2="-43.57" xlink:href="#linear-gradient-2"/><linearGradient id="linear-gradient-8" x1="409.38" y1="35.09" x2="409.38" y2="-43.58" gradientTransform="translate(-376.22)" xlink:href="#linear-gradient-2"/><linearGradient id="linear-gradient-9" x1="407.26" y1="35.09" x2="407.26" y2="-43.58" gradientTransform="translate(-376.22)" xlink:href="#linear-gradient-2"/><linearGradient id="linear-gradient-10" x1="46.71" y1="34.1" x2="46.71" y2="-41.64" xlink:href="#linear-gradient-2"/><linearGradient id="linear-gradient-11" x1="19.59" y1="44.15" x2="19.59" y2="12.12" xlink:href="#linear-gradient-2"/><linearGradient id="linear-gradient-12" x1="32.6" y1="54.55" x2="32.6" y2="9.48" xlink:href="#linear-gradient-2"/><linearGradient id="linear-gradient-13" x1="399.41" y1="48.78" x2="399.41" y2="-0.28" gradientTransform="translate(-376.22)" xlink:href="#linear-gradient-2"/><linearGradient id="linear-gradient-14" x1="401.46" y1="48.78" x2="401.46" y2="-0.28" gradientTransform="translate(-376.22)" xlink:href="#linear-gradient-2"/><linearGradient id="linear-gradient-15" x1="403.51" y1="48.78" x2="403.51" y2="-0.28" gradientTransform="translate(-376.22)" xlink:href="#linear-gradient-2"/><linearGradient id="linear-gradient-16" x1="405.56" y1="48.78" x2="405.56" y2="-0.28" gradientTransform="translate(-376.22)" xlink:href="#linear-gradient-2"/><linearGradient id="linear-gradient-17" x1="407.62" y1="48.78" x2="407.62" y2="-0.28" gradientTransform="translate(-376.22)" xlink:href="#linear-gradient-2"/><linearGradient id="linear-gradient-68" x1="420.57" y1="44.87" x2="420.57" y2="14.91" gradientTransform="translate(-376.22)" xlink:href="#linear-gradient-2"/><linearGradient id="linear-gradient-69" x1="387.51" y1="25.69" x2="387.51" y2="25.13" gradientTransform="translate(-376.22)" xlink:href="#linear-gradient-2"/><linearGradient id="linear-gradient-70" x1="386.98" y1="56.76" x2="386.98" y2="31.74" gradientTransform="translate(-376.22)" gradientUnits="userSpaceOnUse"><stop offset="0" stop-color="#7ff1a4"/><stop offset="0.52" stop-color="#2fbca4"/><stop offset="1" stop-color="#2f7da4"/></linearGradient><linearGradient id="linear-gradient-71" x1="-13493.34" y1="55.34" x2="-13493.34" y2="35.35" gradientTransform="matrix(-1, 0, 0, 1, -13482.87, 0)" xlink:href="#linear-gradient"/><linearGradient id="linear-gradient-72" x1="16536.01" y1="51.96" x2="16536.01" y2="33.46" gradientTransform="translate(-16481.43)" xlink:href="#linear-gradient-70"/><linearGradient id="linear-gradient-73" x1="16536.2" y1="51.72" x2="16536.2" y2="38.86" gradientTransform="translate(-16481.43)" xlink:href="#linear-gradient"/><linearGradient id="linear-gradient-74" x1="14.28" y1="13.48" x2="21.49" y2="24.85" gradientUnits="userSpaceOnUse"><stop offset="0" stop-color="#fbc19e"/><stop offset="0.48" stop-color="#ffb699"/><stop offset="1" stop-color="#f47e6d"/></linearGradient><linearGradient id="linear-gradient-75" x1="13.48" y1="13.98" x2="20.69" y2="25.36" xlink:href="#linear-gradient-74"/><linearGradient id="linear-gradient-76" x1="18.26" y1="18.43" x2="24.01" y2="42.55" gradientUnits="userSpaceOnUse"><stop offset="0" stop-color="#026c81"/><stop offset="0.92" stop-color="#3f456b"/></linearGradient><linearGradient id="linear-gradient-77" x1="50.6" y1="3.08" x2="36.18" y2="18" gradientUnits="userSpaceOnUse"><stop offset="0" stop-color="#fba680"/><stop offset="0.52" stop-color="#ef5048"/><stop offset="1" stop-color="#971434"/></linearGradient><linearGradient id="linear-gradient-78" x1="9.89" y1="29.57" x2="29.89" y2="44.74" xlink:href="#linear-gradient-76"/><linearGradient id="linear-gradient-79" x1="23.28" y1="53.32" x2="31.84" y2="46.2" xlink:href="#linear-gradient-74"/><linearGradient id="linear-gradient-80" x1="25.55" y1="39.91" x2="38.18" y2="39.91" gradientUnits="userSpaceOnUse"><stop offset="0" stop-color="#3f456b"/><stop offset="1" stop-color="#2d314d"/></linearGradient><linearGradient id="linear-gradient-81" x1="38.38" y1="44.27" x2="18.76" y2="65.11" gradientUnits="userSpaceOnUse"><stop offset="0" stop-color="#dfecf4"/><stop offset="0.3" stop-color="#d7e8f3"/><stop offset="0.77" stop-color="#c1def1"/><stop offset="1" stop-color="#b4d8f0"/></linearGradient><linearGradient id="linear-gradient-82" x1="13.33" y1="43.68" x2="67.67" y2="38.35" xlink:href="#linear-gradient-76"/><linearGradient id="linear-gradient-83" x1="14.51" y1="74.34" x2="51.76" y2="37.46" xlink:href="#linear-gradient-76"/><linearGradient id="linear-gradient-84" x1="27" y1="15.93" x2="38.33" y2="18.51" xlink:href="#linear-gradient-74"/><linearGradient id="linear-gradient-85" x1="25.35" y1="23.14" x2="36.69" y2="25.72" xlink:href="#linear-gradient-74"/><linearGradient id="linear-gradient-86" x1="2740.49" y1="638.29" x2="2744.05" y2="620.1" gradientTransform="matrix(-1, 0, 0, 1, 2892.78, 0)" xlink:href="#linear-gradient-74"/><linearGradient id="linear-gradient-87" x1="14.95" y1="4.05" x2="38.7" y2="17.47" xlink:href="#linear-gradient-77"/><linearGradient id="linear-gradient-88" x1="25.99" y1="3.55" x2="34.06" y2="16.11" xlink:href="#linear-gradient-77"/><linearGradient id="linear-gradient-89" x1="30.26" y1="16.08" x2="30.26" y2="20.84" xlink:href="#linear-gradient-74"/><linearGradient id="linear-gradient-90" x1="5.35" y1="35.62" x2="77.76" y2="47.17" xlink:href="#linear-gradient-76"/><linearGradient id="linear-gradient-91" x1="17.42" y1="14.37" x2="3.74" y2="0.06" xlink:href="#linear-gradient"/><linearGradient id="linear-gradient-92" x1="13.23" y1="28.64" x2="15.73" y2="4.89" xlink:href="#linear-gradient"/><linearGradient id="linear-gradient-93" x1="8.67" y1="22.74" x2="-5.02" y2="8.43" xlink:href="#linear-gradient"/><linearGradient id="linear-gradient-94" x1="7.28" y1="23.24" x2="6.13" y2="17.11" xlink:href="#linear-gradient"/></defs><title>woman smoking cigarette</title><g class="cls-1"><g id="Layer_1" data-name="Layer 1"><circle class="cls-2" cx="32" cy="32" r="28"/><circle class="cls-3" cx="32" cy="32" r="28"/><path class="cls-4" d="M4,32A27.87,27.87,0,0,0,7.37,45.33H56.63A28,28,0,1,0,4,32Z"/><path class="cls-5" d="M31.46,16.82C24.82,14.6,19.25,11,17.64,8.68a4.34,4.34,0,0,0-.38-.48A28.08,28.08,0,0,0,14,10.6,177.1,177.1,0,0,0,31.46,16.82Z"/><path class="cls-6" d="M22.73,19.91c-3.55-.49-6.68-1.77-7.71-2.8S11.59,16,11,15.46a5.47,5.47,0,0,0-1-.71,28.05,28.05,0,0,0-1.71,2.44A93.24,93.24,0,0,0,22.73,19.91Z"/><path class="cls-7" d="M57.72,20.93a4.1,4.1,0,0,0-1.76.36c-2.32,1-4.11-.48-7.54.24s-9.32-.38-9.32-.38a81.33,81.33,0,0,0,20,3.81A27.78,27.78,0,0,0,57.72,20.93Z"/><path class="cls-8" d="M55.26,16.41,55,16a2.42,2.42,0,0,1-1.09-.43c-.68-.59-1.72.07-2-.59a2,2,0,0,0-2.7-.89c-1.36.69-2.28-.33-4.24.15a14.37,14.37,0,0,1-5.2-.28C47.83,17.15,53.09,16.8,55.26,16.41Z"/><path class="cls-9" d="M30.37,8.64S34.15,9.9,36,9.57a5.71,5.71,0,0,1-1.5-.73,1.93,1.93,0,0,0-1.79-.37c-.41.25-.57-.36-1-.13A4.58,4.58,0,0,1,30.37,8.64Z"/><path class="cls-10" d="M28.25,19.85s3.78,1.26,5.58.93a5.71,5.71,0,0,1-1.5-.73,1.93,1.93,0,0,0-1.79-.37c-.41.25-.57-.36-1-.13A4.58,4.58,0,0,1,28.25,19.85Z"/><path class="cls-11" d="M47.65,8.78a.24.24,0,0,1-.21-.11.59.59,0,0,0-.2-.15l-.05,0a1.64,1.64,0,0,0-1.06-.07,4.18,4.18,0,0,1-1.22.07,10.29,10.29,0,0,0,3.62.92C48.23,9.18,47.94,9,47.65,8.78Z"/><path class="cls-12" d="M34.48,38.63H18v-7H15.84V27a3,3,0,0,0-6,0v7.2H4.09A27.83,27.83,0,0,0,7.37,45.33H35.1Z"/><path class="cls-13" d="M58.59,23.23H56.88a5.38,5.38,0,0,0-5.38,5.38v3.21H45.65a1.07,1.07,0,0,0-1.07,1.07v5.19H37.21v-2a1,1,0,0,0-1-1h-2.1V15.87a.93.93,0,0,0-.93-.93H21.08a.93.93,0,0,0-.93.93V42H10.47V40.1H5.2a27.83,27.83,0,0,0,2.18,5.23H56.63a28,28,0,0,0,2-22.11Z"/><rect class="cls-14" x="22.6" y="17.46" width="1.18" height="1.18" rx="0.09" ry="0.09"/><rect class="cls-15" x="24.65" y="17.46" width="1.18" height="1.18" rx="0.09" ry="0.09"/><rect class="cls-16" x="26.7" y="17.46" width="1.18" height="1.18" rx="0.09" ry="0.09"/><rect class="cls-17" x="28.75" y="17.46" width="1.18" height="1.18" rx="0.09" ry="0.09"/><rect class="cls-18" x="30.81" y="17.46" width="1.18" height="1.18" rx="0.09" ry="0.09"/><rect class="cls-14" x="22.6" y="19.63" width="1.18" height="1.18" rx="0.09" ry="0.09"/><rect class="cls-15" x="24.65" y="19.63" width="1.18" height="1.18" rx="0.09" ry="0.09"/><rect class="cls-16" x="26.7" y="19.63" width="1.18" height="1.18" rx="0.09" ry="0.09"/><rect class="cls-17" x="28.75" y="19.63" width="1.18" height="1.18" rx="0.09" ry="0.09"/><rect class="cls-18" x="30.81" y="19.63" width="1.18" height="1.18" rx="0.09" ry="0.09"/><rect class="cls-14" x="22.6" y="21.79" width="1.18" height="1.18" rx="0.09" ry="0.09"/><rect class="cls-15" x="24.65" y="21.79" width="1.18" height="1.18" rx="0.09" ry="0.09"/><rect class="cls-16" x="26.7" y="21.79" width="1.18" height="1.18" rx="0.09" ry="0.09"/><rect class="cls-17" x="28.75" y="21.79" width="1.18" height="1.18" rx="0.09" ry="0.09"/><rect class="cls-18" x="30.81" y="21.79" width="1.18" height="1.18" rx="0.09" ry="0.09"/><rect class="cls-14" x="22.6" y="23.95" width="1.18" height="1.18" rx="0.09" ry="0.09"/><rect class="cls-15" x="24.65" y="23.95" width="1.18" height="1.18" rx="0.09" ry="0.09"/><rect class="cls-16" x="26.7" y="23.95" width="1.18" height="1.18" rx="0.09" ry="0.09"/><rect class="cls-17" x="28.75" y="23.95" width="1.18" height="1.18" rx="0.09" ry="0.09"/><rect class="cls-18" x="30.81" y="23.95" width="1.18" height="1.18" rx="0.09" ry="0.09"/><rect class="cls-14" x="22.6" y="26.11" width="1.18" height="1.18" rx="0.09" ry="0.09"/><rect class="cls-15" x="24.65" y="26.11" width="1.18" height="1.18" rx="0.09" ry="0.09"/><rect class="cls-16" x="26.7" y="26.11" width="1.18" height="1.18" rx="0.09" ry="0.09"/><rect class="cls-17" x="28.75" y="26.11" width="1.18" height="1.18" rx="0.09" ry="0.09"/><rect class="cls-18" x="30.81" y="26.11" width="1.18" height="1.18" rx="0.09" ry="0.09"/><rect class="cls-14" x="22.6" y="28.27" width="1.18" height="1.18" rx="0.09" ry="0.09"/><rect class="cls-15" x="24.65" y="28.27" width="1.18" height="1.18" rx="0.09" ry="0.09"/><rect class="cls-16" x="26.7" y="28.27" width="1.18" height="1.18" rx="0.09" ry="0.09"/><rect class="cls-17" x="28.75" y="28.27" width="1.18" height="1.18" rx="0.09" ry="0.09"/><rect class="cls-18" x="30.81" y="28.27" width="1.18" height="1.18" rx="0.09" ry="0.09"/><rect class="cls-14" x="22.6" y="30.43" width="1.18" height="1.18" rx="0.09" ry="0.09"/><rect class="cls-15" x="24.65" y="30.43" width="1.18" height="1.18" rx="0.09" ry="0.09"/><rect class="cls-16" x="26.7" y="30.43" width="1.18" height="1.18" rx="0.09" ry="0.09"/><rect class="cls-17" x="28.75" y="30.43" width="1.18" height="1.18" rx="0.09" ry="0.09"/><rect class="cls-18" x="30.81" y="30.43" width="1.18" height="1.18" rx="0.09" ry="0.09"/><rect class="cls-14" x="22.6" y="32.59" width="1.18" height="1.18" rx="0.09" ry="0.09"/><rect class="cls-15" x="24.65" y="32.59" width="1.18" height="1.18" rx="0.09" ry="0.09"/><rect class="cls-16" x="26.7" y="32.59" width="1.18" height="1.18" rx="0.09" ry="0.09"/><rect class="cls-17" x="28.75" y="32.59" width="1.18" height="1.18" rx="0.09" ry="0.09"/><rect class="cls-18" x="30.81" y="32.59" width="1.18" height="1.18" rx="0.09" ry="0.09"/><rect class="cls-14" x="22.6" y="34.75" width="1.18" height="1.18" rx="0.09" ry="0.09"/><rect class="cls-15" x="24.65" y="34.75" width="1.18" height="1.18" rx="0.09" ry="0.09"/><rect class="cls-16" x="26.7" y="34.75" width="1.18" height="1.18" rx="0.09" ry="0.09"/><rect class="cls-17" x="28.75" y="34.75" width="1.18" height="1.18" rx="0.09" ry="0.09"/><rect class="cls-18" x="30.81" y="34.75" width="1.18" height="1.18" rx="0.09" ry="0.09"/><rect class="cls-14" x="22.6" y="36.92" width="1.18" height="1.18" rx="0.09" ry="0.09"/><rect class="cls-15" x="24.65" y="36.92" width="1.18" height="1.18" rx="0.09" ry="0.09"/><rect class="cls-16" x="26.7" y="36.92" width="1.18" height="1.18" rx="0.09" ry="0.09"/><rect class="cls-17" x="28.75" y="36.92" width="1.18" height="1.18" rx="0.09" ry="0.09"/><rect class="cls-18" x="30.81" y="36.92" width="1.18" height="1.18" rx="0.09" ry="0.09"/><rect class="cls-14" x="22.6" y="39.08" width="1.18" height="1.18" rx="0.09" ry="0.09"/><rect class="cls-15" x="24.65" y="39.08" width="1.18" height="1.18" rx="0.09" ry="0.09"/><rect class="cls-16" x="26.7" y="39.08" width="1.18" height="1.18" rx="0.09" ry="0.09"/><rect class="cls-17" x="28.75" y="39.08" width="1.18" height="1.18" rx="0.09" ry="0.09"/><rect class="cls-18" x="30.81" y="39.08" width="1.18" height="1.18" rx="0.09" ry="0.09"/><path class="cls-19" d="M45.65,31.81a1.07,1.07,0,0,0-1.07,1.07v5.19H37.21v.27a4.69,4.69,0,0,0,4.69,4.77h3.18v-2H51.5V31.81Z"/><path class="cls-20" d="M11,25.39c-.07,0,.05.12.19.21h0l.11,0a.39.39,0,0,0,.2-.12A1.58,1.58,0,0,0,11,25.39Z"/><path class="cls-21" d="M6,43.9a2.66,2.66,0,0,1,1.93-2.55,1.11,1.11,0,0,0,.75-.76,2.66,2.66,0,0,1,5.19.51,2.69,2.69,0,0,1,0,.6,1.06,1.06,0,0,0,.47,1,2.66,2.66,0,0,1,.39,4.12,1.72,1.72,0,0,0-.4.56,1.89,1.89,0,0,1-1.74,1.16l-.24,0a1.9,1.9,0,0,0-1.24.24,2.66,2.66,0,0,1-4-2.27v0a.93.93,0,0,0-.28-.67A2.65,2.65,0,0,1,6,43.9Z"/><path class="cls-22" d="M8.73,45.5c0,.08,0,.17.08.25a.84.84,0,0,0,.32.4,2,2,0,0,0,.23.12l.4.2,0-.08c0-.09,0-.17-.07-.26l-.14-.51.15.51c0,.08,0,.17.08.25l0,.11,0,0h0a0,0,0,0,1,0,0h0l0,0a.83.83,0,0,0,.19.18,2,2,0,0,0,.23.12l.43.21,0-2.4,0,3.13.24-.12a.91.91,0,0,0,.27-.19.82.82,0,0,0,.18-.27c0-.05,0-.1.05-.16a.34.34,0,0,1,.1-.14.36.36,0,0,1,.16-.07l.16,0a.37.37,0,0,0,.22-.22c.06-.21.11-.43.16-.65,0,.22-.09.44-.15.66a.39.39,0,0,1-.23.24l-.16,0a.33.33,0,0,0-.14.07.31.31,0,0,0-.09.13s0,.11,0,.16a.87.87,0,0,1-.18.29,1,1,0,0,1-.28.2l-.26.14.09,6.28h0a.14.14,0,0,1-.28,0l.1-7L10.28,47a2.08,2.08,0,0,1-.23-.13.87.87,0,0,1-.19-.19l0-.06h0l-.47-.25a2.08,2.08,0,0,1-.23-.13.87.87,0,0,1-.32-.43c0-.09,0-.17-.07-.26L8.58,45Z"/><path class="cls-23" d="M57.64,44.36a1.71,1.71,0,0,0-1.24-1.64.72.72,0,0,1-.48-.49,1.71,1.71,0,0,0-3.34.33,1.73,1.73,0,0,0,0,.39.68.68,0,0,1-.3.66A1.71,1.71,0,0,0,52,46.25a1.11,1.11,0,0,1,.26.36,1.21,1.21,0,0,0,1.12.74h.16a1.22,1.22,0,0,1,.79.15A1.71,1.71,0,0,0,56.94,46v0a.6.6,0,0,1,.18-.43A1.7,1.7,0,0,0,57.64,44.36Z"/><path class="cls-24" d="M55.88,45.39l-.05.16a.54.54,0,0,1-.2.26l-.15.08-.26.13,0-.05,0-.17.09-.33-.1.33-.05.16,0,.07h0a0,0,0,0,0,0,0h0l0,0a.53.53,0,0,1-.12.11l-.15.08-.27.13,0-1.54,0,2-.15-.08a.58.58,0,0,1-.17-.12.53.53,0,0,1-.11-.18s0-.07,0-.1a.22.22,0,0,0-.07-.09.23.23,0,0,0-.1,0l-.1,0a.24.24,0,0,1-.14-.14c0-.14-.07-.28-.1-.42,0,.14.06.28.09.42a.25.25,0,0,0,.15.16l.1,0,.09,0a.2.2,0,0,1,.06.08s0,.07,0,.1a.56.56,0,0,0,.11.19.62.62,0,0,0,.18.13l.17.09-.06,4h0a.09.09,0,1,0,.18,0l-.07-4.51.29-.15.15-.09a.56.56,0,0,0,.12-.12l0,0h0l.3-.16.15-.09a.56.56,0,0,0,.2-.28l0-.17.09-.33Z"/><path class="cls-25" d="M17.43,20.46a13.93,13.93,0,0,1,.73-2.69c.28-.32.12,1.15.11,1.8"/><rect class="cls-26" x="16.95" y="18.09" width="3.34" height="0.46" rx="0.23" ry="0.23" transform="translate(4.56 -3.7) rotate(12.91)"/><path class="cls-27" d="M16.11,23.82s-.14-2.32.84-3.11a4.49,4.49,0,0,0,1.58-1.9c.42-.84,1.21-1.48.93-.65s-1.16,5.32-1.16,5.32"/><path class="cls-28" d="M27.73,23.53a45.28,45.28,0,0,0-5.25,6.23c-3.28,4.45-4.08,2.76-3.83-2.35s.25-5.11-1.05-5.2c-.71,0-1.91,1.62-3.34,6.62-1.33,4.66-.43,14.33,8.91,12.12"/><path class="cls-29" d="M27.73,23.53a45.28,45.28,0,0,0-5.25,6.23c-3.28,4.45-4.08,2.76-3.83-2.35s.25-5.11-1.05-5.2c-.71,0-1.91,1.62-3.34,6.62-1.33,4.66-.43,14.33,8.91,12.12"/><path class="cls-30" d="M33.32,11.43s3.85-3.87,7.24-1.84,1.95,7.5-.37,9.26c-1.78,1.35-.51,2.82.54,3.13a.4.4,0,0,1,.15.69,3.6,3.6,0,0,1-4,.41c-3.2-1.35-3.57-2-3.57-2"/><path class="cls-31" d="M33.32,11.43s3.85-3.87,7.24-1.84,1.95,7.5-.37,9.26c-1.78,1.35-.51,2.82.54,3.13a.4.4,0,0,1,.15.69,3.6,3.6,0,0,1-4,.41c-3.2-1.35-3.57-2-3.57-2"/><path class="cls-32" d="M28.41,23S24.6,24.65,23,39.08c-.6,5.43-2,7.6-4.38,13.28A19.45,19.45,0,0,0,17.49,56a27.84,27.84,0,0,0,12.73,4c3.8-7.56-.74-26.53-.74-26.53Z"/><path id="_Path_" data-name="&lt;Path&gt;" class="cls-33" d="M26,44.35S24.15,49,24.7,53.21l8.83-1.7,2-8.87Z"/><path class="cls-34" d="M37.87,23.58s-6.09-3.71-10.14-.05c-1.56,1.41,0,3.2-.86,5.11-1.24,2.72-2.15,3.65-.56,7.07h0C28.49,39.88,26,40,25.55,45c-.21,2.41,7.27,1.57,10.87.43a1.79,1.79,0,0,1,1.77.45Z"/><path class="cls-35" d="M38,34.17c-.74-.92-1.53-1.31-2.13-.19-1.61,3-5.35,2.64-7.71,2.08a3.27,3.27,0,0,1-2.58-2.31,10.16,10.16,0,0,0,.71,2h0C28.49,39.88,26,40,25.55,45c-.21,2.41,7.27,1.57,10.87.43a1.7,1.7,0,0,1,1.38.16l.38-.1Z"/><path class="cls-36" d="M30.81,48.13a10,10,0,0,1-4.9-.45l-.82-.29A34.14,34.14,0,0,0,24.69,59,28,28,0,0,0,32,60c.67,0,1.34,0,2-.08a20.55,20.55,0,0,1,.35-12.35Z"/><path class="cls-37" d="M36.89,23.08a34.43,34.43,0,0,1-5.26,20.77,17.57,17.57,0,0,0-1.95,16c.76.06,1.53.1,2.31.1a27.91,27.91,0,0,0,10.21-1.93C43.58,46.62,44.79,26.46,36.89,23.08Z"/><path class="cls-38" d="M38.18,46.52c-3.6,1.8-2,7.52,0,10.77a6.13,6.13,0,0,1,.7,1.86,27.76,27.76,0,0,0,3.34-1.08,135.68,135.68,0,0,0,1-13.81l-3.38-6.13S41.78,44.72,38.18,46.52Z"/><path class="cls-39" d="M27.2,11.64l-1.07,5.1a.6.6,0,0,0,.19.57h0a1,1,0,0,1,.33.65c.07.69.33,2.08,1.42,2a2.3,2.3,0,0,1,2.45,2.23l4.58-1s.32-7.06-2.63-9A4.88,4.88,0,0,0,27.2,11.64Z"/><path class="cls-40" d="M30.52,22.2a3.09,3.09,0,0,1-.18,1.71c-.37.88-3.52,6.07-1.46,7.82,2.54,2.16,5.55-.79,6.23-4.15s-.26-10.44-.26-10.44"/><path class="cls-41" d="M26.65,18a1,1,0,0,0-.33-.65h0a.6.6,0,0,1-.2-.38c.51.29.44-.09.65-1.07s.33-1.29.16-1.37a1.37,1.37,0,0,1-.28-.24l.27-1.3c1.54.75,8.43,5.5,8.43,5.5v6.66L33.52,23.7a13.53,13.53,0,0,1-2.73-2.93,3,3,0,0,0-.27-.33,3.47,3.47,0,0,0-2.34-.51c.79-.11,1.34-.56,1.5-1.81a2.36,2.36,0,0,0-2.08-2.47c-.81,0-.93,2.56-.93,2.58S26.65,18,26.65,18Z"/><path class="cls-42" d="M26.25,11.47a1.37,1.37,0,0,0-.16,1.77,3.11,3.11,0,0,0,1.53,1c1.91.68,4.63,2.27,5.11,4.17a1.07,1.07,0,0,0,1.29.79,4.68,4.68,0,0,0,3.25-2.56c1.21-2.72-1.69-7-5.44-7.07C28.55,9.55,27.36,10.37,26.25,11.47Z"/><path class="cls-43" d="M32.73,18.43a1.07,1.07,0,0,0,1.29.79,4.68,4.68,0,0,0,3.25-2.56,4.5,4.5,0,0,0-.56-4.08c.62,1.69-.46,2.4-2.06,1.13s-2.48-.88-3,.53-3.65.18-3.65.18h0C29.91,15.17,32.28,16.67,32.73,18.43Z"/><path class="cls-44" d="M31.65,32.29c-.38.09-.54-.43-.26-1.7s-.49-2.91-.93-.53-1.59,1.66-1.59,1.66A2.7,2.7,0,0,0,31.65,32.29Z"/><path class="cls-45" d="M39,24.57s10.9,9.63,9,20-8.45,13.09-9.85,12.72a1.94,1.94,0,0,1-.23-3.46c1.42-.74,6.37-10.75,3-13.91S38.51,24.12,39,24.57Z"/><path class="cls-46" d="M20.62,7.32a4.36,4.36,0,0,0-7.72-1.59,1.74,1.74,0,0,1-2,.61,4.44,4.44,0,0,0-2.56-.26A4.5,4.5,0,0,0,9.13,15h0a2.55,2.55,0,0,0,1.08,2.39A3.06,3.06,0,0,0,15.13,15a3,3,0,0,0-.07-.63,2.51,2.51,0,0,0,1.35-1.63A4.38,4.38,0,0,0,20.62,7.32Z"/><path class="cls-47" d="M9.17,15.79a2.43,2.43,0,0,0,1,1.6A3.06,3.06,0,0,0,15.13,15a3,3,0,0,0-.07-.63,2.51,2.51,0,0,0,1.35-1.63,4.38,4.38,0,0,0,4.22-5.42,4.14,4.14,0,0,0-.28-.78A28.1,28.1,0,0,0,9.17,15.79Z"/><circle class="cls-48" cx="5.93" cy="19.88" r="1.56"/><path class="cls-49" d="M7.49,19.88A1.55,1.55,0,0,0,7.21,19q-.62,1.19-1.14,2.44A1.55,1.55,0,0,0,7.49,19.88Z"/></g></g></svg>