<svg id="Layer_1" data-name="Layer 1" xmlns="http://www.w3.org/2000/svg" xmlns:xlink="http://www.w3.org/1999/xlink" viewBox="0 0 64 64"><defs><style>.cls-1{fill:url(#linear-gradient);}.cls-2{fill:url(#linear-gradient-2);}.cls-3{fill:url(#linear-gradient-3);}.cls-4{fill:url(#linear-gradient-4);}.cls-5{fill:url(#linear-gradient-5);}.cls-6{fill:url(#linear-gradient-6);}.cls-7{fill:url(#linear-gradient-7);}.cls-8{fill:url(#linear-gradient-8);}.cls-9{fill:url(#linear-gradient-9);}.cls-10{fill:url(#linear-gradient-10);}.cls-11{fill:url(#linear-gradient-11);}.cls-12{fill:url(#linear-gradient-12);}.cls-13{fill:url(#linear-gradient-13);}.cls-14{fill:url(#linear-gradient-14);}.cls-15{fill:url(#linear-gradient-15);}.cls-16{fill:url(#linear-gradient-16);}.cls-17{fill:url(#linear-gradient-17);}.cls-18{fill:url(#linear-gradient-18);}.cls-19{fill:url(#linear-gradient-19);}.cls-20{fill:url(#linear-gradient-20);}.cls-21{fill:url(#linear-gradient-21);}.cls-22{fill:url(#linear-gradient-22);}.cls-23{fill:url(#linear-gradient-23);}.cls-24{fill:url(#linear-gradient-24);}.cls-25{fill:url(#linear-gradient-25);}.cls-26{fill:url(#linear-gradient-26);}.cls-27{fill:url(#linear-gradient-27);}.cls-28{fill:url(#linear-gradient-28);}.cls-29{fill:url(#linear-gradient-29);}.cls-30{fill:url(#linear-gradient-30);}.cls-31{fill:url(#linear-gradient-31);}.cls-32{fill:url(#linear-gradient-32);}.cls-33{fill:url(#linear-gradient-33);}.cls-34{fill:url(#linear-gradient-34);}.cls-35{fill:url(#linear-gradient-35);}.cls-36{fill:url(#linear-gradient-36);}.cls-37{fill:url(#linear-gradient-37);}.cls-38{fill:url(#linear-gradient-38);}.cls-39{fill:url(#linear-gradient-39);}.cls-40{fill:url(#linear-gradient-40);}.cls-41{fill:url(#linear-gradient-41);}.cls-42{fill:url(#linear-gradient-42);}.cls-43{fill:url(#linear-gradient-43);}.cls-44{fill:url(#linear-gradient-44);}.cls-45{fill:url(#linear-gradient-45);}.cls-46{fill:url(#linear-gradient-46);}.cls-47{fill:url(#linear-gradient-47);}.cls-48{fill:url(#linear-gradient-48);}.cls-49{fill:url(#linear-gradient-49);}.cls-50{fill:url(#linear-gradient-50);}.cls-51{fill:url(#linear-gradient-51);}.cls-52{fill:url(#linear-gradient-52);}.cls-53{fill:url(#linear-gradient-53);}.cls-54{fill:url(#linear-gradient-54);}.cls-55{fill:url(#linear-gradient-55);}.cls-56{fill:url(#linear-gradient-56);}.cls-57{fill:url(#linear-gradient-57);}.cls-58{fill:url(#linear-gradient-58);}.cls-59{fill:url(#linear-gradient-59);}.cls-60{fill:url(#linear-gradient-60);}.cls-61{fill:url(#linear-gradient-61);}.cls-62{fill:url(#linear-gradient-62);}.cls-63{fill:url(#linear-gradient-63);}.cls-64{fill:url(#linear-gradient-64);}.cls-65{fill:url(#linear-gradient-65);}.cls-66{fill:url(#linear-gradient-66);}.cls-67{fill:url(#linear-gradient-67);}.cls-68{fill:url(#linear-gradient-68);}.cls-69{fill:url(#linear-gradient-69);}.cls-70{fill:url(#linear-gradient-70);}.cls-71{fill:url(#linear-gradient-71);}.cls-72{fill:url(#linear-gradient-72);}.cls-73{fill:url(#linear-gradient-73);}.cls-74{fill:url(#linear-gradient-74);}.cls-75{fill:url(#linear-gradient-75);}.cls-76{fill:url(#linear-gradient-76);}.cls-77{fill:url(#linear-gradient-77);}.cls-78{fill:url(#linear-gradient-78);}.cls-79{fill:url(#linear-gradient-79);}.cls-80{fill:url(#linear-gradient-80);}.cls-81{fill:url(#linear-gradient-81);}.cls-82{fill:url(#linear-gradient-82);}.cls-83{fill:url(#linear-gradient-83);}.cls-84{fill:url(#linear-gradient-84);}.cls-85{fill:url(#linear-gradient-85);}.cls-86{fill:url(#linear-gradient-86);}.cls-87{fill:url(#linear-gradient-87);}.cls-88{fill:url(#linear-gradient-88);}.cls-89{fill:url(#linear-gradient-89);}.cls-90{fill:#f9aa8f;}.cls-91{fill:url(#linear-gradient-90);}.cls-92{fill:url(#linear-gradient-91);}.cls-93{fill:#fbd1c9;}.cls-94{fill:url(#linear-gradient-92);}.cls-95{fill:url(#linear-gradient-93);}.cls-96{fill:url(#linear-gradient-94);}.cls-97{fill:#5c65ad;}.cls-98{fill:url(#linear-gradient-95);}.cls-99{fill:url(#linear-gradient-96);}.cls-100{fill:url(#linear-gradient-97);}.cls-101{fill:url(#linear-gradient-98);}.cls-102{fill:#131735;}.cls-103{fill:url(#linear-gradient-99);}.cls-104{fill:#485499;}</style><linearGradient id="linear-gradient" x1="32" y1="96.93" x2="32" y2="8.81" gradientUnits="userSpaceOnUse"><stop offset="0.02" stop-color="#edd7ad"/><stop offset="0.52" stop-color="#ff9661"/><stop offset="1" stop-color="#e74a69"/></linearGradient><linearGradient id="linear-gradient-2" x1="45" y1="49.83" x2="45" y2="10.43" xlink:href="#linear-gradient"/><linearGradient id="linear-gradient-3" x1="58.31" y1="42.51" x2="58.31" y2="37.87" xlink:href="#linear-gradient"/><linearGradient id="linear-gradient-4" x1="59.07" y1="40.04" x2="59.07" y2="31.26" xlink:href="#linear-gradient"/><linearGradient id="linear-gradient-5" x1="51.41" y1="58.05" x2="51.41" y2="10.38" xlink:href="#linear-gradient"/><linearGradient id="linear-gradient-6" x1="34.99" y1="67.78" x2="34.99" y2="27.86" gradientUnits="userSpaceOnUse"><stop offset="0" stop-color="#fff"/><stop offset="0.84" stop-color="#cddfec"/></linearGradient><linearGradient id="linear-gradient-7" x1="10.52" y1="38.59" x2="10.52" y2="32.65" xlink:href="#linear-gradient"/><linearGradient id="linear-gradient-8" x1="10.52" y1="38.05" x2="10.52" y2="30.88" xlink:href="#linear-gradient"/><linearGradient id="linear-gradient-9" x1="10.52" y1="37.75" x2="10.52" y2="33.16" xlink:href="#linear-gradient"/><linearGradient id="linear-gradient-10" x1="10.52" y1="38.96" x2="10.52" y2="35.18" xlink:href="#linear-gradient"/><linearGradient id="linear-gradient-11" x1="10.52" y1="43.96" x2="10.52" y2="31.64" xlink:href="#linear-gradient"/><linearGradient id="linear-gradient-12" x1="10.52" y1="47.44" x2="10.52" y2="29.32" xlink:href="#linear-gradient"/><linearGradient id="linear-gradient-13" x1="12.03" y1="42.05" x2="12.03" y2="31.48" xlink:href="#linear-gradient"/><linearGradient id="linear-gradient-14" x1="10.52" y1="38.79" x2="10.52" y2="32.86" xlink:href="#linear-gradient"/><linearGradient id="linear-gradient-15" x1="9.01" y1="45.5" x2="9.01" y2="40.55" xlink:href="#linear-gradient"/><linearGradient id="linear-gradient-16" x1="12.03" y1="45.5" x2="12.03" y2="40.55" xlink:href="#linear-gradient"/><linearGradient id="linear-gradient-17" x1="8.65" y1="38.83" x2="8.65" y2="34.33" xlink:href="#linear-gradient"/><linearGradient id="linear-gradient-18" x1="9.27" y1="38.83" x2="9.27" y2="34.33" xlink:href="#linear-gradient"/><linearGradient id="linear-gradient-19" x1="9.9" y1="38.83" x2="9.9" y2="34.33" xlink:href="#linear-gradient"/><linearGradient id="linear-gradient-20" x1="10.52" y1="38.83" x2="10.52" y2="34.33" xlink:href="#linear-gradient"/><linearGradient id="linear-gradient-21" x1="11.14" y1="38.83" x2="11.14" y2="34.33" xlink:href="#linear-gradient"/><linearGradient id="linear-gradient-22" x1="11.76" y1="38.83" x2="11.76" y2="34.33" xlink:href="#linear-gradient"/><linearGradient id="linear-gradient-23" x1="12.39" y1="38.83" x2="12.39" y2="34.33" xlink:href="#linear-gradient"/><linearGradient id="linear-gradient-24" x1="7412.37" y1="38.59" x2="7412.37" y2="32.65" gradientTransform="matrix(-1, 0, 0, 1, 7441.28, 0)" xlink:href="#linear-gradient"/><linearGradient id="linear-gradient-25" x1="7412.37" y1="38.05" x2="7412.37" y2="30.88" gradientTransform="matrix(-1, 0, 0, 1, 7441.28, 0)" xlink:href="#linear-gradient"/><linearGradient id="linear-gradient-26" x1="7412.37" y1="37.75" x2="7412.37" y2="33.16" gradientTransform="matrix(-1, 0, 0, 1, 7441.28, 0)" xlink:href="#linear-gradient"/><linearGradient id="linear-gradient-27" x1="7412.37" y1="38.96" x2="7412.37" y2="35.18" gradientTransform="matrix(1, 0, 0, -1, -7383.47, 74.69)" xlink:href="#linear-gradient"/><linearGradient id="linear-gradient-28" x1="7412.37" y1="43.96" x2="7412.37" y2="31.64" gradientTransform="matrix(1, 0, 0, -1, -7383.47, 82.01)" xlink:href="#linear-gradient"/><linearGradient id="linear-gradient-29" x1="7413.88" y1="42.05" x2="7413.88" y2="31.48" gradientTransform="matrix(1, 0, 0, -1, -7386.48, 76.19)" xlink:href="#linear-gradient"/><linearGradient id="linear-gradient-30" x1="7412.37" y1="38.79" x2="7412.37" y2="32.86" gradientTransform="matrix(1, 0, 0, -1, -7383.47, 73.37)" xlink:href="#linear-gradient"/><linearGradient id="linear-gradient-31" x1="7410.87" y1="45.5" x2="7410.87" y2="40.55" gradientTransform="matrix(1, 0, 0, -1, -7380.45, 84.17)" xlink:href="#linear-gradient"/><linearGradient id="linear-gradient-32" x1="7413.88" y1="45.5" x2="7413.88" y2="40.55" gradientTransform="matrix(1, 0, 0, -1, -7386.48, 84.17)" xlink:href="#linear-gradient"/><linearGradient id="linear-gradient-33" x1="7410.51" y1="38.83" x2="7410.51" y2="34.33" gradientTransform="matrix(-1, 0, 0, 1, 7441.28, 0)" xlink:href="#linear-gradient"/><linearGradient id="linear-gradient-34" x1="7411.13" y1="38.83" x2="7411.13" y2="34.33" gradientTransform="matrix(-1, 0, 0, 1, 7441.28, 0)" xlink:href="#linear-gradient"/><linearGradient id="linear-gradient-35" x1="7411.75" y1="38.83" x2="7411.75" y2="34.33" gradientTransform="matrix(-1, 0, 0, 1, 7441.28, 0)" xlink:href="#linear-gradient"/><linearGradient id="linear-gradient-36" x1="7412.37" y1="38.83" x2="7412.37" y2="34.33" gradientTransform="matrix(-1, 0, 0, 1, 7441.28, 0)" xlink:href="#linear-gradient"/><linearGradient id="linear-gradient-37" x1="7413" y1="38.83" x2="7413" y2="34.33" gradientTransform="matrix(-1, 0, 0, 1, 7441.28, 0)" xlink:href="#linear-gradient"/><linearGradient id="linear-gradient-38" x1="7413.62" y1="38.83" x2="7413.62" y2="34.33" gradientTransform="matrix(-1, 0, 0, 1, 7441.28, 0)" xlink:href="#linear-gradient"/><linearGradient id="linear-gradient-39" x1="7414.24" y1="38.83" x2="7414.24" y2="34.33" gradientTransform="matrix(-1, 0, 0, 1, 7441.28, 0)" xlink:href="#linear-gradient"/><linearGradient id="linear-gradient-40" x1="19.43" y1="18" x2="20.09" y2="13.17" xlink:href="#linear-gradient"/><linearGradient id="linear-gradient-41" x1="19.89" y1="17.4" x2="19.89" y2="12.36" xlink:href="#linear-gradient"/><linearGradient id="linear-gradient-42" x1="19.71" y1="24.49" x2="19.71" y2="16.01" xlink:href="#linear-gradient"/><linearGradient id="linear-gradient-43" x1="19.71" y1="37.74" x2="19.71" y2="24.97" xlink:href="#linear-gradient"/><linearGradient id="linear-gradient-44" x1="19.71" y1="36.58" x2="19.71" y2="21.16" xlink:href="#linear-gradient"/><linearGradient id="linear-gradient-45" x1="19.71" y1="35.93" x2="19.71" y2="26.06" xlink:href="#linear-gradient"/><linearGradient id="linear-gradient-46" x1="19.71" y1="39.5" x2="19.71" y2="26.99" xlink:href="#linear-gradient"/><linearGradient id="linear-gradient-47" x1="16.39" y1="37.13" x2="16.39" y2="34.07" xlink:href="#linear-gradient"/><linearGradient id="linear-gradient-48" x1="18.05" y1="37.13" x2="18.05" y2="34.07" xlink:href="#linear-gradient"/><linearGradient id="linear-gradient-49" x1="19.71" y1="37.13" x2="19.71" y2="34.07" xlink:href="#linear-gradient"/><linearGradient id="linear-gradient-50" x1="21.37" y1="37.13" x2="21.37" y2="34.07" xlink:href="#linear-gradient"/><linearGradient id="linear-gradient-51" x1="23.03" y1="37.13" x2="23.03" y2="34.07" xlink:href="#linear-gradient"/><linearGradient id="linear-gradient-52" x1="19.71" y1="42.5" x2="19.71" y2="30.42" xlink:href="#linear-gradient"/><linearGradient id="linear-gradient-53" x1="19.71" y1="44.34" x2="19.71" y2="30.6" xlink:href="#linear-gradient"/><linearGradient id="linear-gradient-54" x1="16.51" y1="44.64" x2="16.51" y2="37.81" xlink:href="#linear-gradient"/><linearGradient id="linear-gradient-55" x1="16.51" y1="44.92" x2="16.51" y2="36.52" xlink:href="#linear-gradient"/><linearGradient id="linear-gradient-56" x1="19.71" y1="44.64" x2="19.71" y2="37.81" xlink:href="#linear-gradient"/><linearGradient id="linear-gradient-57" x1="19.71" y1="44.92" x2="19.71" y2="36.52" xlink:href="#linear-gradient"/><linearGradient id="linear-gradient-58" x1="22.91" y1="44.64" x2="22.91" y2="37.81" xlink:href="#linear-gradient"/><linearGradient id="linear-gradient-59" x1="22.91" y1="44.92" x2="22.91" y2="36.52" xlink:href="#linear-gradient"/><linearGradient id="linear-gradient-60" x1="19.71" y1="42.05" x2="19.71" y2="31.48" xlink:href="#linear-gradient"/><linearGradient id="linear-gradient-61" x1="19.71" y1="36.94" x2="19.71" y2="30.86" xlink:href="#linear-gradient"/><linearGradient id="linear-gradient-62" x1="19.71" y1="16.91" x2="19.71" y2="16.57" xlink:href="#linear-gradient"/><linearGradient id="linear-gradient-63" x1="19.71" y1="18.42" x2="19.71" y2="18.08" xlink:href="#linear-gradient"/><linearGradient id="linear-gradient-64" x1="19.71" y1="19.93" x2="19.71" y2="19.6" xlink:href="#linear-gradient"/><linearGradient id="linear-gradient-65" x1="5.92" y1="44.4" x2="5.92" y2="19.57" xlink:href="#linear-gradient"/><linearGradient id="linear-gradient-66" x1="6.21" y1="47" x2="6.21" y2="11.42" xlink:href="#linear-gradient"/><linearGradient id="linear-gradient-67" x1="5.81" y1="24" x2="5.81" y2="22.37" xlink:href="#linear-gradient"/><linearGradient id="linear-gradient-68" x1="5.81" y1="23.85" x2="5.81" y2="21.88" xlink:href="#linear-gradient"/><linearGradient id="linear-gradient-69" x1="5.81" y1="23.77" x2="5.81" y2="22.51" xlink:href="#linear-gradient"/><linearGradient id="linear-gradient-70" x1="5.81" y1="25.25" x2="5.81" y2="22.37" xlink:href="#linear-gradient"/><linearGradient id="linear-gradient-71" x1="5.81" y1="23.88" x2="5.81" y2="23.55" xlink:href="#linear-gradient"/><linearGradient id="linear-gradient-72" x1="5.6" y1="24.04" x2="6.02" y2="24.04" xlink:href="#linear-gradient"/><linearGradient id="linear-gradient-73" x1="8886.39" y1="44.4" x2="8886.39" y2="19.57" gradientTransform="matrix(-1, 0, 0, 1, 8920.01, 0)" xlink:href="#linear-gradient"/><linearGradient id="linear-gradient-74" x1="8886.79" y1="47" x2="8886.79" y2="11.42" gradientTransform="matrix(-1, 0, 0, 1, 8920.01, 0)" xlink:href="#linear-gradient"/><linearGradient id="linear-gradient-75" x1="8886.39" y1="24" x2="8886.39" y2="22.37" gradientTransform="matrix(-1, 0, 0, 1, 8920.01, 0)" xlink:href="#linear-gradient"/><linearGradient id="linear-gradient-76" x1="8886.39" y1="23.85" x2="8886.39" y2="21.88" gradientTransform="matrix(-1, 0, 0, 1, 8920.01, 0)" xlink:href="#linear-gradient"/><linearGradient id="linear-gradient-77" x1="8886.39" y1="23.77" x2="8886.39" y2="22.51" gradientTransform="matrix(-1, 0, 0, 1, 8920.01, 0)" xlink:href="#linear-gradient"/><linearGradient id="linear-gradient-78" x1="8886.39" y1="25.25" x2="8886.39" y2="22.37" gradientTransform="matrix(1, 0, 0, -1, -8852.77, 48.04)" xlink:href="#linear-gradient"/><linearGradient id="linear-gradient-79" x1="8886.39" y1="23.88" x2="8886.39" y2="23.55" gradientTransform="matrix(1, 0, 0, -1, -8852.77, 46.95)" xlink:href="#linear-gradient"/><linearGradient id="linear-gradient-80" x1="33.41" y1="24.04" x2="33.83" y2="24.04" gradientTransform="translate(67.23 48.07) rotate(180)" xlink:href="#linear-gradient"/><linearGradient id="linear-gradient-81" x1="32" y1="71.44" x2="32" y2="37.59" xlink:href="#linear-gradient"/><linearGradient id="linear-gradient-82" x1="19.37" y1="41.55" x2="19.37" y2="-1.72" xlink:href="#linear-gradient"/><linearGradient id="linear-gradient-83" x1="13.78" y1="41.55" x2="13.78" y2="-1.72" xlink:href="#linear-gradient"/><linearGradient id="linear-gradient-84" x1="419.51" y1="29.55" x2="419.51" y2="-31.99" gradientTransform="translate(-376.22)" xlink:href="#linear-gradient-6"/><linearGradient id="linear-gradient-85" x1="414.75" y1="41.55" x2="414.75" y2="-1.72" gradientTransform="translate(-376.22)" xlink:href="#linear-gradient"/><linearGradient id="linear-gradient-86" x1="428.38" y1="41.55" x2="428.38" y2="-1.72" gradientTransform="translate(-376.22)" xlink:href="#linear-gradient"/><linearGradient id="linear-gradient-87" x1="403.1" y1="41.55" x2="403.1" y2="-1.72" gradientTransform="translate(-376.22)" xlink:href="#linear-gradient"/><linearGradient id="linear-gradient-88" x1="401.44" y1="41.55" x2="401.44" y2="-1.72" gradientTransform="translate(-376.22)" xlink:href="#linear-gradient"/><linearGradient id="linear-gradient-89" x1="413.85" y1="29.55" x2="413.85" y2="-31.99" gradientTransform="translate(-376.22)" xlink:href="#linear-gradient-6"/><linearGradient id="linear-gradient-90" x1="13.93" y1="25.78" x2="18.8" y2="28.16" gradientUnits="userSpaceOnUse"><stop offset="0" stop-color="#f78e6b"/><stop offset="1" stop-color="#f9aa8f"/></linearGradient><linearGradient id="linear-gradient-91" x1="57.99" y1="15.84" x2="50.32" y2="19.39" xlink:href="#linear-gradient-90"/><linearGradient id="linear-gradient-92" x1="49.75" y1="23.44" x2="38.07" y2="9.18" gradientUnits="userSpaceOnUse"><stop offset="0" stop-color="#fbd1c9"/><stop offset="1" stop-color="#fbb8ab"/></linearGradient><linearGradient id="linear-gradient-93" x1="32.04" y1="44.3" x2="37.54" y2="42.95" gradientUnits="userSpaceOnUse"><stop offset="0" stop-color="#565ca8"/><stop offset="1" stop-color="#5c65ad"/></linearGradient><linearGradient id="linear-gradient-94" x1="43.97" y1="51.46" x2="29.08" y2="45.49" xlink:href="#linear-gradient-93"/><linearGradient id="linear-gradient-95" x1="32.04" y1="55.36" x2="32.49" y2="45" xlink:href="#linear-gradient-93"/><linearGradient id="linear-gradient-96" x1="43.9" y1="35.56" x2="22.09" y2="32.13" xlink:href="#linear-gradient-92"/><linearGradient id="linear-gradient-97" x1="26.61" y1="28.73" x2="23.65" y2="8.17" xlink:href="#linear-gradient-92"/><linearGradient id="linear-gradient-98" x1="39.54" y1="16.57" x2="34.32" y2="2.36" xlink:href="#linear-gradient-90"/><linearGradient id="linear-gradient-99" x1="35.19" y1="6.19" x2="35.94" y2="6.19" gradientUnits="userSpaceOnUse"><stop offset="0" stop-color="#f59180"/><stop offset="0.1" stop-color="#f59180"/><stop offset="0.97" stop-color="#dc7f6c"/><stop offset="1" stop-color="#dc7d6b"/></linearGradient></defs><title>worship</title><circle class="cls-1" cx="32" cy="31.68" r="28"/><path class="cls-2" d="M59.58,36.49l-.47-.44a.76.76,0,0,0-1,0l-1.86,1.71a.65.65,0,0,1-.88,0L48,31.26a1,1,0,0,0-1.46.07l-8.09,8.81a.73.73,0,0,1-.93.12l-.6-.39a.69.69,0,0,0-.83.07L31.64,44,31,43.74l-.56.74V47.2H55.3A27.83,27.83,0,0,0,59.58,36.49Z"/><path class="cls-3" d="M58,41.08l.24.37c.13-.36.26-.73.38-1.09Z"/><path class="cls-4" d="M59.11,36.06h0a.32.32,0,0,0-.54.24v.09a2.1,2.1,0,0,0,.55,1.41,1.41,1.41,0,0,1,.15.24q.18-.77.31-1.55Z"/><path class="cls-5" d="M55.15,37.6,48,31.26h0a.44.44,0,0,0-.72.33,4.39,4.39,0,0,1-.85,2.6l-1.87,2.54a1.5,1.5,0,0,0,.23,2h0a6.47,6.47,0,0,1,1,1.12l3.54,4.89L54,47.2H55.3a27.89,27.89,0,0,0,3.22-6.56Z"/><path class="cls-6" d="M47.52,56l-.87-1.57a.26.26,0,0,0,.08-.34L46,52.87a.19.19,0,0,0,.08-.26l-.53-.95h0a.13.13,0,0,0,.09-.19l-1-1.85a.06.06,0,0,0-.11,0l-1,1.85a.13.13,0,0,0,.09.19h0l-.53.95a.19.19,0,0,0,.08.26l-.37.66L42.47,53a.32.32,0,0,0,.14-.44l-.91-1.63h0a.23.23,0,0,0,.15-.33l-1.77-3.19a.11.11,0,0,0-.19,0L38.1,50.55a.23.23,0,0,0,.15.33h0l-.33.59-.57-1a.32.32,0,0,0,.14-.44l-.91-1.63h0a.23.23,0,0,0,.15-.33L35,44.84a.11.11,0,0,0-.19,0L33,48a.23.23,0,0,0,.15.33h0L32.24,50a.32.32,0,0,0,.14.44l-1,1.83-.48-.86h0a.23.23,0,0,0,.15-.33l-1.77-3.19a.11.11,0,0,0-.19,0l-1.77,3.19a.23.23,0,0,0,.15.33h0l-.69,1.24L26.38,52h0a.13.13,0,0,0,.09-.19l-1-1.85a.06.06,0,0,0-.11,0l-1,1.85a.13.13,0,0,0,.09.19h0l-.53.95a.19.19,0,0,0,.08.26l-.69,1.24a.26.26,0,0,0,.08.34l-.87,1.57a.35.35,0,0,0,.23.52h0a12,12,0,0,0,2.4.3l-1,1.73a.61.61,0,0,0,.4.89h0a20.6,20.6,0,0,0,9.27,0h0a.61.61,0,0,0,.4-.89l-.94-1.69a20.6,20.6,0,0,0,2.31.05l-.61,1.11a.61.61,0,0,0,.4.89h0a20.6,20.6,0,0,0,9.27,0h0a.61.61,0,0,0,.4-.89l-.86-1.54a12,12,0,0,0,3.14-.3h0A.35.35,0,0,0,47.52,56Z"/><path class="cls-7" d="M10.74,32.31l-.1-.21a.14.14,0,0,0-.25,0l-.1.21a4,4,0,0,1-1.92,1.95c-.64.31-1,.75-1,1.25,0,.93,1.42,1.69,3.17,1.69s3.17-.75,3.17-1.69c0-.49-.4-.94-1-1.25A4,4,0,0,1,10.74,32.31Z"/><path class="cls-8" d="M10.67,32.31l-.07-.21c0-.11-.14-.11-.17,0l-.07.21a3.71,3.71,0,0,1-1.32,1.95,1.54,1.54,0,0,0-.71,1.25,2,2,0,0,0,2.18,1.69A2,2,0,0,0,12.7,35.5,1.54,1.54,0,0,0,12,34.26,3.71,3.71,0,0,1,10.67,32.31Z"/><path class="cls-9" d="M10.59,32.31l0-.21c0-.11-.06-.11-.08,0l0,.21a5.1,5.1,0,0,1-.61,1.95,2.32,2.32,0,0,0-.33,1.25c0,.93.45,1.69,1,1.69s1-.75,1-1.69a2.32,2.32,0,0,0-.33-1.25A5.1,5.1,0,0,1,10.59,32.31Z"/><rect class="cls-10" x="8.06" y="36.59" width="4.91" height="1.5"/><rect class="cls-11" x="6.71" y="37.92" width="7.61" height="6.18"/><path class="cls-12" d="M10.52,44.09h3.81V37.92H9.75l-3,.36L8.93,39a2.31,2.31,0,0,1,1.58,2.19Z"/><rect class="cls-13" x="6.36" y="37.92" width="11.33" height="0.36" rx="0.18" ry="0.18"/><rect class="cls-14" x="7.78" y="36.51" width="5.48" height="0.36" rx="0.18" ry="0.18"/><path class="cls-15" d="M9,40.07H9A.95.95,0,0,1,10,41v3.07a0,0,0,0,1,0,0H8.06a0,0,0,0,1,0,0V41A.95.95,0,0,1,9,40.07Z"/><path class="cls-16" d="M12,40.07h0A.95.95,0,0,1,13,41v3.07a0,0,0,0,1,0,0H11.08a0,0,0,0,1,0,0V41A.95.95,0,0,1,12,40.07Z"/><circle class="cls-17" cx="8.65" cy="37.4" r="0.13"/><circle class="cls-18" cx="9.27" cy="37.4" r="0.13"/><circle class="cls-19" cx="9.9" cy="37.4" r="0.13"/><circle class="cls-20" cx="10.52" cy="37.4" r="0.13"/><circle class="cls-21" cx="11.14" cy="37.4" r="0.13"/><circle class="cls-22" cx="11.76" cy="37.4" r="0.13"/><circle class="cls-23" cx="12.39" cy="37.4" r="0.13"/><path class="cls-24" d="M28.68,32.31l.1-.21a.14.14,0,0,1,.25,0l.1.21A4,4,0,0,0,31,34.26c.64.31,1,.75,1,1.25,0,.93-1.42,1.69-3.17,1.69s-3.17-.75-3.17-1.69c0-.49.4-.94,1-1.25A4,4,0,0,0,28.68,32.31Z"/><path class="cls-25" d="M28.75,32.31l.07-.21c0-.11.14-.11.17,0l.07.21a3.71,3.71,0,0,0,1.32,1.95,1.54,1.54,0,0,1,.71,1.25,2,2,0,0,1-2.18,1.69,2,2,0,0,1-2.18-1.69,1.54,1.54,0,0,1,.71-1.25A3.71,3.71,0,0,0,28.75,32.31Z"/><path class="cls-26" d="M28.83,32.31l0-.21c0-.11.06-.11.08,0l0,.21a5.1,5.1,0,0,0,.61,1.95,2.32,2.32,0,0,1,.33,1.25c0,.93-.45,1.69-1,1.69s-1-.75-1-1.69a2.32,2.32,0,0,1,.33-1.25A5.1,5.1,0,0,0,28.83,32.31Z"/><rect class="cls-27" x="26.45" y="36.59" width="4.91" height="1.5" transform="translate(57.81 74.69) rotate(-180)"/><rect class="cls-28" x="25.1" y="37.92" width="7.61" height="6.18" transform="translate(57.81 82.01) rotate(-180)"/><rect class="cls-29" x="21.73" y="37.92" width="11.33" height="0.36" rx="0.18" ry="0.18" transform="translate(54.79 76.19) rotate(180)"/><rect class="cls-30" x="26.16" y="36.51" width="5.48" height="0.36" rx="0.18" ry="0.18" transform="translate(57.81 73.37) rotate(-180)"/><path class="cls-31" d="M29.46,40.07h1.89a0,0,0,0,1,0,0v3.07a.95.95,0,0,1-.95.95h0a.95.95,0,0,1-.95-.95V40.07a0,0,0,0,1,0,0Z" transform="translate(60.82 84.17) rotate(-180)"/><path class="cls-32" d="M26.45,40.07h1.89a0,0,0,0,1,0,0v3.07a.95.95,0,0,1-.95.95h0a.95.95,0,0,1-.95-.95V40.07A0,0,0,0,1,26.45,40.07Z" transform="translate(54.79 84.17) rotate(-180)"/><circle class="cls-33" cx="30.77" cy="37.4" r="0.13"/><circle class="cls-34" cx="30.15" cy="37.4" r="0.13"/><circle class="cls-35" cx="29.53" cy="37.4" r="0.13"/><circle class="cls-36" cx="28.9" cy="37.4" r="0.13"/><circle class="cls-37" cx="28.28" cy="37.4" r="0.13"/><circle class="cls-38" cx="27.66" cy="37.4" r="0.13"/><circle class="cls-39" cx="27.04" cy="37.4" r="0.13"/><path class="cls-40" d="M20.11,15.87a.69.69,0,0,1-.35-1.25.07.07,0,0,0,0-.13h0a1.08,1.08,0,1,0,1.15,1.15h0a.07.07,0,0,0-.13,0A.69.69,0,0,1,20.11,15.87Z"/><path class="cls-41" d="M20.85,15.63h0a.07.07,0,0,0-.13,0,.69.69,0,1,1-1-1,.07.07,0,0,0,0-.13h0a1.07,1.07,0,0,0-.57.2,1.08,1.08,0,0,0,1.51,1.51A1.07,1.07,0,0,0,20.85,15.63Z"/><rect class="cls-42" x="19.56" y="16.83" width="0.3" height="7.85"/><path class="cls-43" d="M20.19,24.23,20,23.78a.29.29,0,0,0-.53,0l-.21.45a8.68,8.68,0,0,1-4.12,4.18c-1.37.66-2.23,1.62-2.23,2.68,0,2,3.05,3.62,6.82,3.62s6.82-1.62,6.82-3.62c0-1.06-.86-2-2.23-2.68A8.68,8.68,0,0,1,20.19,24.23Z"/><path class="cls-44" d="M20,24.23l-.14-.45c-.07-.23-.29-.23-.37,0l-.14.45a8,8,0,0,1-2.83,4.18A3.31,3.31,0,0,0,15,31.09c0,2,2.1,3.62,4.69,3.62s4.69-1.62,4.69-3.62a3.31,3.31,0,0,0-1.53-2.68A8,8,0,0,1,20,24.23Z"/><path class="cls-45" d="M19.86,24.23l-.07-.45c0-.23-.14-.23-.17,0l-.07.45a11,11,0,0,1-1.3,4.18,5,5,0,0,0-.7,2.68c0,2,1,3.62,2.15,3.62s2.15-1.62,2.15-3.62a5,5,0,0,0-.7-2.68A11,11,0,0,1,19.86,24.23Z"/><rect class="cls-46" x="14.9" y="34.34" width="9.62" height="2.17"/><path class="cls-47" d="M16.39,35.12h0a.49.49,0,0,1,.49.49v.9a0,0,0,0,1,0,0h-.94a0,0,0,0,1,0,0v-.9A.49.49,0,0,1,16.39,35.12Z"/><path class="cls-48" d="M18.05,35.12h0a.49.49,0,0,1,.49.49v.9a0,0,0,0,1,0,0h-.94a0,0,0,0,1,0,0v-.9a.49.49,0,0,1,.49-.49Z"/><path class="cls-49" d="M19.71,35.12h0a.49.49,0,0,1,.49.49v.9a0,0,0,0,1,0,0h-.94a0,0,0,0,1,0,0v-.9A.49.49,0,0,1,19.71,35.12Z"/><path class="cls-50" d="M21.37,35.12h0a.49.49,0,0,1,.49.49v.9a0,0,0,0,1,0,0H20.9a0,0,0,0,1,0,0v-.9a.49.49,0,0,1,.49-.49Z"/><path class="cls-51" d="M23,35.12h0a.49.49,0,0,1,.49.49v.9a0,0,0,0,1,0,0h-.94a0,0,0,0,1,0,0v-.9a.49.49,0,0,1,.49-.49Z"/><rect class="cls-52" x="14.33" y="36.42" width="10.77" height="7.68"/><path class="cls-53" d="M14.33,36.77h0A6.27,6.27,0,0,1,19.71,43v1.11H25.1V36.42H14.33Z"/><path class="cls-54" d="M17.38,39.51a1,1,0,0,0-.5-.83.72.72,0,0,1-.32-.33h0a.07.07,0,0,0-.13,0h0a.72.72,0,0,1-.31.32,1,1,0,0,0-.49.83h0v4.58h1.74V39.51Z"/><path class="cls-55" d="M17.1,39.54a.67.67,0,0,0-.34-.57.49.49,0,0,1-.22-.22h0a0,0,0,0,0-.09,0h0a.49.49,0,0,1-.21.22.67.67,0,0,0-.33.56h0v4.55H17.1V39.54Z"/><path class="cls-56" d="M20.58,39.51a1,1,0,0,0-.5-.83.72.72,0,0,1-.32-.33h0a.07.07,0,0,0-.13,0h0a.72.72,0,0,1-.31.32,1,1,0,0,0-.49.83h0v4.58h1.74V39.51Z"/><path class="cls-57" d="M20.31,39.54A.67.67,0,0,0,20,39a.49.49,0,0,1-.22-.22h0a0,0,0,0,0-.09,0h0a.49.49,0,0,1-.21.22.67.67,0,0,0-.33.56h0v4.55h1.19V39.54Z"/><path class="cls-58" d="M23.78,39.51a1,1,0,0,0-.5-.83.72.72,0,0,1-.32-.33h0a.07.07,0,0,0-.13,0h0a.72.72,0,0,1-.31.32,1,1,0,0,0-.49.83h0v4.58h1.74V39.51Z"/><path class="cls-59" d="M23.51,39.54a.67.67,0,0,0-.34-.57.49.49,0,0,1-.22-.22h0a0,0,0,0,0-.09,0h0a.49.49,0,0,1-.21.22.67.67,0,0,0-.33.56h0v4.55h1.19V39.54Z"/><rect class="cls-60" x="14.05" y="36.42" width="11.33" height="0.36" rx="0.18" ry="0.18"/><rect class="cls-61" x="14.52" y="33.56" width="10.38" height="0.77" rx="0.23" ry="0.23"/><rect class="cls-62" x="19.44" y="16.6" width="0.54" height="0.31" rx="0.14" ry="0.14"/><rect class="cls-63" x="19.44" y="18.11" width="0.54" height="0.31" rx="0.14" ry="0.14"/><rect class="cls-64" x="19.44" y="19.63" width="0.54" height="0.31" rx="0.14" ry="0.14"/><path class="cls-65" d="M5.38,24.44,4.81,38.38A27.79,27.79,0,0,0,6.9,44.09H7l-.8-19.65Z"/><path class="cls-66" d="M5.38,24.44a2.71,2.71,0,0,1,.43,1.46V41.58q.49,1.29,1.1,2.52H7l-.8-19.65Z"/><path class="cls-67" d="M5.87,22.27l0-.06a0,0,0,0,0-.07,0l0,.06a1.11,1.11,0,0,1-.53.53c-.17.08-.28.21-.28.34s.39.46.87.46.87-.21.87-.46-.11-.26-.28-.34A1.11,1.11,0,0,1,5.87,22.27Z"/><path class="cls-68" d="M5.85,22.27l0-.06s0,0,0,0l0,.06a1,1,0,0,1-.36.53.42.42,0,0,0-.2.34.54.54,0,0,0,.6.46.54.54,0,0,0,.6-.46.42.42,0,0,0-.2-.34A1,1,0,0,1,5.85,22.27Z"/><path class="cls-69" d="M5.83,22.27v-.06s0,0,0,0v.06a1.4,1.4,0,0,1-.17.53.64.64,0,0,0-.09.34c0,.26.12.46.28.46s.28-.21.28-.46A.64.64,0,0,0,6,22.81,1.4,1.4,0,0,1,5.83,22.27Z"/><path class="cls-70" d="M5.13,23.45H6.48a0,0,0,0,1,0,0v1a.13.13,0,0,1-.13.13H5.27a.13.13,0,0,1-.13-.13v-1A0,0,0,0,1,5.13,23.45Z"/><rect class="cls-71" x="5.05" y="23.43" width="1.51" height="0.1" rx="0.05" ry="0.05"/><path class="cls-72" d="M5.81,23.73h0a.21.21,0,0,1,.21.21v.28a.12.12,0,0,1-.12.12H5.71a.12.12,0,0,1-.12-.12v-.28A.21.21,0,0,1,5.81,23.73Z"/><polygon class="cls-73" points="32.39 44.09 34.84 44.09 34.04 24.44 33.19 24.44 32.39 44.09"/><path class="cls-74" d="M33.62,44.09H32.39l.8-19.65H34a2.71,2.71,0,0,0-.43,1.46Z"/><path class="cls-75" d="M33.56,22.27l0-.06a0,0,0,0,1,.07,0l0,.06a1.11,1.11,0,0,0,.53.53c.17.08.28.21.28.34s-.39.46-.87.46-.87-.21-.87-.46.11-.26.28-.34A1.11,1.11,0,0,0,33.56,22.27Z"/><path class="cls-76" d="M33.57,22.27l0-.06s0,0,0,0l0,.06a1,1,0,0,0,.36.53.42.42,0,0,1,.2.34.62.62,0,0,1-1.2,0,.42.42,0,0,1,.2-.34A1,1,0,0,0,33.57,22.27Z"/><path class="cls-77" d="M33.6,22.27v-.06s0,0,0,0v.06a1.4,1.4,0,0,0,.17.53.64.64,0,0,1,.09.34c0,.26-.12.46-.28.46s-.28-.21-.28-.46a.64.64,0,0,1,.09-.34A1.4,1.4,0,0,0,33.6,22.27Z"/><path class="cls-78" d="M33.08,23.45h1.08a.13.13,0,0,1,.13.13v1a0,0,0,0,1,0,0H32.94a0,0,0,0,1,0,0v-1A.13.13,0,0,1,33.08,23.45Z" transform="translate(67.23 48.04) rotate(-180)"/><rect class="cls-79" x="32.86" y="23.43" width="1.51" height="0.1" rx="0.05" ry="0.05" transform="translate(67.23 46.95) rotate(-180)"/><path class="cls-80" d="M33.52,23.73h.19a.12.12,0,0,1,.12.12v.28a.21.21,0,0,1-.21.21h0a.21.21,0,0,1-.21-.21v-.28a.12.12,0,0,1,.12-.12Z" transform="translate(67.23 48.07) rotate(-180)"/><path class="cls-81" d="M6.9,44.09a28,28,0,0,0,50.19,0Z"/><path class="cls-82" d="M25.55,15.26c-4.78-1.6-8.84-4.09-10.44-5.91-.66.5-1.3,1-1.91,1.59C20.23,13.76,25.55,15.26,25.55,15.26Z"/><path class="cls-83" d="M8.85,15.93a72.94,72.94,0,0,0,9.87,1.75c-2.77-.39-5.23-1.38-6-2.19A7.06,7.06,0,0,0,10,14.4C9.58,14.9,9.21,15.4,8.85,15.93Z"/><path class="cls-84" d="M31.53,18.65s4.61.86,7.29.29,4.09.61,5.9-.19a3.2,3.2,0,0,1,3.88,1c.51.76,1.87,0,2.9.68s3.57.62,3.57.62S47.29,23.52,31.53,18.65Z"/><path class="cls-85" d="M32,13a11.24,11.24,0,0,0,4.07.22c1.54-.38,2.26.42,3.32-.12a1.53,1.53,0,0,1,2.12.69c.24.52,1.05,0,1.59.47a3.86,3.86,0,0,0,2,.43S40.56,16.38,32,13Z"/><path class="cls-86" d="M55.94,15.76s-5.17.85-7.57-.2a6.06,6.06,0,0,0,2.08-.7,2.2,2.2,0,0,1,2.44-.05c.53.52.79-.4,1.39.1A6.46,6.46,0,0,0,55.94,15.76Z"/><path class="cls-87" d="M24.7,8.86s3,1,4.37.73A4.47,4.47,0,0,1,27.89,9a1.51,1.51,0,0,0-1.4-.29c-.32.2-.44-.28-.8-.1A3.58,3.58,0,0,1,24.7,8.86Z"/><path class="cls-88" d="M23,17.63s3,1,4.37.73a4.47,4.47,0,0,1-1.18-.57,1.51,1.51,0,0,0-1.4-.29c-.32.2-.44-.28-.8-.1A3.58,3.58,0,0,1,23,17.63Z"/><path class="cls-89" d="M39.21,9.48a9.36,9.36,0,0,1-3.15-.75,3.27,3.27,0,0,0,1-.05,1.1,1.1,0,0,1,1,.2c.16.22.38-.07.57.16A2.62,2.62,0,0,0,39.21,9.48Z"/><path class="cls-90" d="M17.16,25.31a7.45,7.45,0,0,1-3.25.22,6.56,6.56,0,0,1-2-.57l-.63-.29a.33.33,0,0,0-.45.37,2,2,0,0,0,.44.83.64.64,0,0,1,0,.88L10.06,28a.62.62,0,0,0,.21,1A3.76,3.76,0,0,0,14,28.5a1.43,1.43,0,0,1,1.4-.15,3.67,3.67,0,0,0,4.28-.7Z"/><path class="cls-91" d="M19.68,27.65l-2.52-2.34a5.81,5.81,0,0,1-1.45.27h0s.88,2.15-.94,2.66h0a1.44,1.44,0,0,1,.63.12A3.67,3.67,0,0,0,19.68,27.65Z"/><path class="cls-90" d="M52.07,16.68a7.45,7.45,0,0,0,3.15-.82A6.56,6.56,0,0,0,56.9,14.7l.5-.48a.33.33,0,0,1,.55.21,2,2,0,0,1-.16.92.64.64,0,0,0,.31.82l1.55.78a.62.62,0,0,1,.12,1,3.76,3.76,0,0,1-3.69.72,1.43,1.43,0,0,0-1.38.31,3.67,3.67,0,0,1-4.28.7Z"/><path class="cls-92" d="M50.43,19.71l1.64-3a5.81,5.81,0,0,0,1.46-.21h0a6.58,6.58,0,0,1,1.73,2.23h0a1.44,1.44,0,0,0-.56.31A3.67,3.67,0,0,1,50.43,19.71Z"/><path id="_Path_" data-name="&lt;Path&gt;" class="cls-93" d="M36.71,13.91s2.53,2.16,15.7,2.67a1,1,0,0,1,.68.32l1.56,1.7c1.45,1.58-2.11,4.36-4.23,4.64-4.11.55-10.77.42-14.87-4.05C31.81,15.1,36.71,13.91,36.71,13.91Z"/><path class="cls-94" d="M50.43,23.24c2-.26,5.16-2.66,4.47-4.27-.37.53-1.93,2.19-6.78,2.12-5.35-.07-5.26-2.57-5.53-4s-2.26-1.89-2.26-1.89l-4.39,1,4,5.91A21.09,21.09,0,0,0,50.43,23.24Z"/><path class="cls-95" d="M44.27,56.85c-.69-9-2.23-20.63-5.71-28.83,0,0-11.26-1.21-9.86,3.33,0,0,5.89,14.08,9.95,27.52A27.8,27.8,0,0,0,44.27,56.85Z"/><path class="cls-96" d="M42.36,41.59a7.82,7.82,0,0,0-1.49-.93l-7.26,1.71,3.87,12.75q.6,1.88,1.17,3.76l.18,0c-.5-2.72-.83-6.38.74-7.53a15.35,15.35,0,0,0,2.59-2.43A4,4,0,0,0,43,45.74C42.84,44.36,42.61,43,42.36,41.59Z"/><path class="cls-97" d="M28,32.45c1,6.84.19,18.3-.67,26.84a28.16,28.16,0,0,0,4.64.39c.61,0,1.22,0,1.83-.07,4-14.13,5.13-33,5.13-33C32.1,21.63,28,32.45,28,32.45Z"/><path class="cls-98" d="M27.36,59.29q.7.12,1.42.2a3.2,3.2,0,0,1,1.79-1.78c1.72-.39,3.69-3.54,5.09-7.1a28.92,28.92,0,0,0,1.19-5.32L37,44.11l-8.65,1.17C28.2,50.06,27.79,55,27.36,59.29Z"/><path id="_Path_2" data-name="&lt;Path&gt;" class="cls-93" d="M41,25c-1.82,5.56,1,12.93,2.36,15.86a1.4,1.4,0,0,1-.73,1.86c-4.42,1.88-18.16,7.38-16.28,2.52,2.27-5.88-.35-26.87,9.07-36.29C35.37,8.91,42,21.67,41,25Z"/><path class="cls-99" d="M29.3,43.18C30.17,39,39.6,32.74,40.38,29.27h0A13.19,13.19,0,0,1,41,25a3.13,3.13,0,0,0,.12-1.05h0s-4.85,1.2-5.89-.44a4.33,4.33,0,0,1-.37-3.5l-6.24,5.29c-1.27,8.26-1,16.57-2.26,19.94-1.06,2.76,2.9,2.18,7.33.82C33.59,46,28.42,47.28,29.3,43.18Z"/><path id="_Path_3" data-name="&lt;Path&gt;" class="cls-93" d="M38,13.19A33.19,33.19,0,0,1,23.57,31.1a4.39,4.39,0,0,1-6.64-3.78v-2a45.31,45.31,0,0,0,16.44-14Z"/><path class="cls-100" d="M31.5,17.67c1.75-2.45,2.77-1.92,2.77-1.92L32.7,14.6,30,15.4a44.2,44.2,0,0,1-13.09,9.92v2A4.36,4.36,0,0,0,19,31c-.46-.53-.4-1.48,1.23-3.16C24,23.93,29.74,20.13,31.5,17.67Z"/><path class="cls-90" d="M38.58,4.49c-1.1-1.06-4.19,2.1-4.19,2.1l.37,2L33.6,9.71v4.37l4.52,1.72a2,2,0,0,1-.32-2,.64.64,0,0,1,.54-.47c.79-.1,1.66-.32,1.77-1C40.35,10.62,41.58,7.38,38.58,4.49Z"/><path class="cls-101" d="M40,7.33,38.63,5.24,37.58,5l-2.35.88-.6,2,.14.72-.52.51-.58,1.87L36,15l.47.2.92.35.34-.34a2.63,2.63,0,0,1,0-1.41.64.64,0,0,1,.54-.47l.5-.08a.81.81,0,0,0-.39,0c-1.66.23-1.43-2.87-1.25-3.71.26-1.23,1.66-1.76,1.68-.37s-.11,1.68.17,1.75.64-.42.64-.42-.54,0-.44-.15a14.23,14.23,0,0,0-.09-2.4C39.12,7.5,40,7.33,40,7.33Z"/><path class="cls-102" d="M35.69,10.73a2.44,2.44,0,0,1,1.16-2.65,4.12,4.12,0,0,0,1.75-1.67.19.19,0,0,1,.33,0c.22.37.62.91,1,.92.65,0-.63-2.57-.63-2.57L37.7,4.28l-4.1.78"/><path id="_Path_4" data-name="&lt;Path&gt;" class="cls-103" d="M35.61,5.12c.16.15.2.48.2,1s.27.64,0,1C35.08,8.15,35,4.54,35.61,5.12Z"/><path class="cls-104" d="M37,5.49s1.43-2,2.62.7c.95,2.13.28,6.72-.74,7s-1.08-.29-1.25.93,2.41,1.76,2.41,1.76a2.57,2.57,0,0,0,1-2.22c.06-1.81-.39-1.14-.16-2.91.17-1.3.26-5.91-1.83-6.69s-4.53,1.45-4.53,1.45"/><path class="cls-97" d="M35.56,9.47A5.79,5.79,0,0,1,39.09,4c-2.43-1-9.22,0-7.19,8.2a1.56,1.56,0,0,1-.34,1.4c-1,1.12-2.26,2.55-2.26,2.55A8.11,8.11,0,0,1,35,15.92a5,5,0,0,1,.72.25,5.44,5.44,0,0,0,.89.31l.05,0h0a4.13,4.13,0,0,0,3.59-.78h0a.28.28,0,0,0-.13-.5A5.66,5.66,0,0,1,35.56,9.47Z"/></svg>