<svg xmlns="http://www.w3.org/2000/svg" xmlns:xlink="http://www.w3.org/1999/xlink" viewBox="0 0 64 64"><defs><style>.cls-1{isolation:isolate;}.cls-2{fill:url(#linear-gradient);}.cls-3{fill:url(#linear-gradient-3);}.cls-4{fill:url(#linear-gradient-4);}.cls-5{fill:url(#linear-gradient-5);}.cls-6{fill:url(#linear-gradient-6);}.cls-7{fill:url(#linear-gradient-7);}.cls-8{fill:url(#linear-gradient-8);}.cls-9{fill:url(#linear-gradient-9);}.cls-10{fill:url(#linear-gradient-10);}.cls-11{fill:url(#linear-gradient-11);}.cls-12{fill:url(#linear-gradient-12);}.cls-13{fill:url(#linear-gradient-13);}.cls-14{fill:url(#linear-gradient-14);}.cls-15{fill:url(#linear-gradient-15);}.cls-16{fill:url(#linear-gradient-16);}.cls-17{fill:url(#linear-gradient-17);}.cls-18{fill:url(#linear-gradient-18);}.cls-19{fill:url(#linear-gradient-19);}.cls-20{fill:url(#linear-gradient-20);}.cls-21{fill:url(#linear-gradient-21);}.cls-22{fill:url(#linear-gradient-22);}.cls-23{fill:url(#linear-gradient-23);}.cls-24{fill:url(#linear-gradient-24);}.cls-25{fill:url(#linear-gradient-25);}.cls-26{fill:url(#linear-gradient-26);}.cls-27{fill:url(#linear-gradient-27);}.cls-28{fill:url(#linear-gradient-28);}.cls-29{fill:url(#linear-gradient-29);}.cls-30{fill:url(#linear-gradient-30);}.cls-31{fill:url(#linear-gradient-31);}.cls-32{fill:url(#linear-gradient-32);}.cls-33{fill:url(#linear-gradient-33);}.cls-34{fill:url(#linear-gradient-34);}.cls-35{fill:url(#linear-gradient-35);}.cls-36{fill:url(#linear-gradient-36);}.cls-37{fill:url(#linear-gradient-37);}.cls-38{fill:url(#linear-gradient-38);}.cls-39{fill:url(#linear-gradient-39);}.cls-40{fill:url(#linear-gradient-40);}.cls-41{fill:url(#linear-gradient-41);}.cls-42{fill:url(#linear-gradient-42);}.cls-43{fill:url(#linear-gradient-43);}.cls-44{fill:url(#linear-gradient-44);}.cls-45{fill:url(#linear-gradient-45);}.cls-46{fill:url(#linear-gradient-46);}.cls-47{fill:url(#linear-gradient-47);}.cls-48{fill:url(#linear-gradient-48);}.cls-49{fill:url(#linear-gradient-49);}.cls-50{fill:url(#linear-gradient-50);}.cls-51{fill:url(#linear-gradient-51);}.cls-52{fill:url(#linear-gradient-52);}.cls-53{fill:url(#linear-gradient-53);}.cls-54{fill:url(#linear-gradient-54);}.cls-55{fill:url(#linear-gradient-55);}.cls-56{fill:url(#linear-gradient-56);}.cls-57{fill:url(#linear-gradient-57);}.cls-58{fill:url(#linear-gradient-58);}.cls-59{fill:url(#linear-gradient-59);}.cls-60{fill:url(#linear-gradient-60);}.cls-61{fill:url(#linear-gradient-61);}.cls-62{fill:url(#linear-gradient-62);}.cls-63{fill:url(#linear-gradient-63);}.cls-64{fill:url(#linear-gradient-64);}.cls-65{fill:url(#linear-gradient-65);}.cls-66{fill:url(#linear-gradient-66);}.cls-67{fill:url(#linear-gradient-67);}.cls-68{fill:url(#linear-gradient-68);}.cls-69{fill:url(#linear-gradient-69);}.cls-70{fill:url(#linear-gradient-70);}.cls-71{fill:url(#linear-gradient-71);}.cls-72{fill:url(#linear-gradient-72);}.cls-73{fill:url(#linear-gradient-73);}.cls-74{fill:url(#linear-gradient-74);}.cls-75{fill:url(#linear-gradient-75);}.cls-76{fill:url(#linear-gradient-76);}.cls-77{fill:url(#linear-gradient-77);}.cls-78{fill:url(#linear-gradient-78);}.cls-79{fill:url(#linear-gradient-79);}.cls-80{fill:url(#linear-gradient-80);}.cls-81{fill:url(#linear-gradient-81);}.cls-82{fill:url(#linear-gradient-82);}.cls-83{fill:url(#linear-gradient-83);}.cls-84{fill:url(#linear-gradient-84);}.cls-85{fill:url(#linear-gradient-85);}.cls-86{fill:url(#linear-gradient-86);}.cls-87{fill:url(#linear-gradient-87);}.cls-88{fill:url(#linear-gradient-88);}.cls-89{fill:url(#linear-gradient-89);}.cls-90{fill:#f9aa8f;}.cls-91{fill:url(#linear-gradient-90);}.cls-92{fill:url(#linear-gradient-91);}.cls-93{fill:#635fa9;}.cls-94{fill:#91d4d9;}.cls-95{fill:url(#linear-gradient-92);}.cls-96{fill:#7fa1d3;}.cls-97{fill:url(#linear-gradient-93);}.cls-98{fill:#1c1651;}.cls-99{fill:url(#linear-gradient-94);}.cls-100{fill:#b6b3e8;}.cls-101{stroke:#000;stroke-miterlimit:10;opacity:0.49;mix-blend-mode:color-burn;fill:url(#linear-gradient-95);}.cls-102{fill:url(#linear-gradient-96);}.cls-103{fill:#a4b9df;}.cls-104{fill:url(#linear-gradient-97);}.cls-105{fill:url(#linear-gradient-98);}</style><linearGradient id="linear-gradient" x1="32" y1="78.75" x2="32" y2="8.04" gradientUnits="userSpaceOnUse"><stop offset="0.02" stop-color="#edd7ad"/><stop offset="0.52" stop-color="#ff9661"/><stop offset="1" stop-color="#e74a69"/></linearGradient><linearGradient id="linear-gradient-3" x1="19" y1="50.15" x2="19" y2="10.76" xlink:href="#linear-gradient"/><linearGradient id="linear-gradient-4" x1="5.73" y1="41.31" x2="4.81" y2="39.57" xlink:href="#linear-gradient"/><linearGradient id="linear-gradient-5" x1="5.09" y1="37.45" x2="3.73" y2="34.9" xlink:href="#linear-gradient"/><linearGradient id="linear-gradient-6" x1="12.86" y1="40.78" x2="10.39" y2="27.97" xlink:href="#linear-gradient"/><linearGradient id="linear-gradient-7" x1="430.52" y1="38.92" x2="430.52" y2="32.98" gradientTransform="matrix(-1, 0, 0, 1, 484, 0)" xlink:href="#linear-gradient"/><linearGradient id="linear-gradient-8" x1="430.52" y1="38.38" x2="430.52" y2="31.21" gradientTransform="matrix(-1, 0, 0, 1, 484, 0)" xlink:href="#linear-gradient"/><linearGradient id="linear-gradient-9" x1="430.52" y1="38.08" x2="430.52" y2="33.49" gradientTransform="matrix(-1, 0, 0, 1, 484, 0)" xlink:href="#linear-gradient"/><linearGradient id="linear-gradient-10" x1="430.52" y1="39.29" x2="430.52" y2="35.51" gradientTransform="matrix(1, 0, 0, -1, -377.04, 75.34)" xlink:href="#linear-gradient"/><linearGradient id="linear-gradient-11" x1="430.52" y1="44.29" x2="430.52" y2="31.96" gradientTransform="matrix(1, 0, 0, -1, -377.04, 82.66)" xlink:href="#linear-gradient"/><linearGradient id="linear-gradient-12" x1="430.52" y1="47.77" x2="430.52" y2="29.65" gradientTransform="matrix(-1, 0, 0, 1, 484, 0)" xlink:href="#linear-gradient"/><linearGradient id="linear-gradient-13" x1="432.03" y1="42.37" x2="432.03" y2="31.8" gradientTransform="matrix(1, 0, 0, -1, -380.05, 76.84)" xlink:href="#linear-gradient"/><linearGradient id="linear-gradient-14" x1="430.52" y1="39.12" x2="430.52" y2="33.19" gradientTransform="matrix(1, 0, 0, -1, -377.04, 74.02)" xlink:href="#linear-gradient"/><linearGradient id="linear-gradient-15" x1="429.01" y1="45.82" x2="429.01" y2="40.87" gradientTransform="matrix(1, 0, 0, -1, -374.02, 84.81)" xlink:href="#linear-gradient"/><linearGradient id="linear-gradient-16" x1="432.03" y1="45.82" x2="432.03" y2="40.87" gradientTransform="matrix(1, 0, 0, -1, -380.05, 84.81)" xlink:href="#linear-gradient"/><linearGradient id="linear-gradient-17" x1="428.65" y1="39.15" x2="428.65" y2="34.66" gradientTransform="matrix(-1, 0, 0, 1, 484, 0)" xlink:href="#linear-gradient"/><linearGradient id="linear-gradient-18" x1="429.27" y1="39.15" x2="429.27" y2="34.66" gradientTransform="matrix(-1, 0, 0, 1, 484, 0)" xlink:href="#linear-gradient"/><linearGradient id="linear-gradient-19" x1="429.9" y1="39.15" x2="429.9" y2="34.66" gradientTransform="matrix(-1, 0, 0, 1, 484, 0)" xlink:href="#linear-gradient"/><linearGradient id="linear-gradient-20" x1="430.52" y1="39.15" x2="430.52" y2="34.66" gradientTransform="matrix(-1, 0, 0, 1, 484, 0)" xlink:href="#linear-gradient"/><linearGradient id="linear-gradient-21" x1="431.14" y1="39.15" x2="431.14" y2="34.66" gradientTransform="matrix(-1, 0, 0, 1, 484, 0)" xlink:href="#linear-gradient"/><linearGradient id="linear-gradient-22" x1="431.76" y1="39.15" x2="431.76" y2="34.66" gradientTransform="matrix(-1, 0, 0, 1, 484, 0)" xlink:href="#linear-gradient"/><linearGradient id="linear-gradient-23" x1="432.39" y1="39.15" x2="432.39" y2="34.66" gradientTransform="matrix(-1, 0, 0, 1, 484, 0)" xlink:href="#linear-gradient"/><linearGradient id="linear-gradient-24" x1="6834.37" y1="38.92" x2="6834.37" y2="32.98" gradientTransform="translate(-6799.28)" xlink:href="#linear-gradient"/><linearGradient id="linear-gradient-25" x1="6834.37" y1="38.38" x2="6834.37" y2="31.21" gradientTransform="translate(-6799.28)" xlink:href="#linear-gradient"/><linearGradient id="linear-gradient-26" x1="6834.37" y1="38.08" x2="6834.37" y2="33.49" gradientTransform="translate(-6799.28)" xlink:href="#linear-gradient"/><linearGradient id="linear-gradient-27" x1="6834.37" y1="39.29" x2="6834.37" y2="35.51" gradientTransform="translate(-6799.28)" xlink:href="#linear-gradient"/><linearGradient id="linear-gradient-28" x1="6834.37" y1="44.29" x2="6834.37" y2="31.96" gradientTransform="translate(-6799.28)" xlink:href="#linear-gradient"/><linearGradient id="linear-gradient-29" x1="6835.88" y1="42.37" x2="6835.88" y2="31.8" gradientTransform="translate(-6799.28)" xlink:href="#linear-gradient"/><linearGradient id="linear-gradient-30" x1="6834.37" y1="39.12" x2="6834.37" y2="33.19" gradientTransform="translate(-6799.28)" xlink:href="#linear-gradient"/><linearGradient id="linear-gradient-31" x1="6832.87" y1="45.82" x2="6832.87" y2="40.87" gradientTransform="translate(-6799.28)" xlink:href="#linear-gradient"/><linearGradient id="linear-gradient-32" x1="6835.88" y1="45.82" x2="6835.88" y2="40.87" gradientTransform="translate(-6799.28)" xlink:href="#linear-gradient"/><linearGradient id="linear-gradient-33" x1="6832.51" y1="39.15" x2="6832.51" y2="34.66" gradientTransform="translate(-6799.28)" xlink:href="#linear-gradient"/><linearGradient id="linear-gradient-34" x1="6833.13" y1="39.15" x2="6833.13" y2="34.66" gradientTransform="translate(-6799.28)" xlink:href="#linear-gradient"/><linearGradient id="linear-gradient-35" x1="6833.75" y1="39.15" x2="6833.75" y2="34.66" gradientTransform="translate(-6799.28)" xlink:href="#linear-gradient"/><linearGradient id="linear-gradient-36" x1="6834.37" y1="39.15" x2="6834.37" y2="34.66" gradientTransform="translate(-6799.28)" xlink:href="#linear-gradient"/><linearGradient id="linear-gradient-37" x1="6835" y1="39.15" x2="6835" y2="34.66" gradientTransform="translate(-6799.28)" xlink:href="#linear-gradient"/><linearGradient id="linear-gradient-38" x1="6835.62" y1="39.15" x2="6835.62" y2="34.66" gradientTransform="translate(-6799.28)" xlink:href="#linear-gradient"/><linearGradient id="linear-gradient-39" x1="6836.24" y1="39.15" x2="6836.24" y2="34.66" gradientTransform="translate(-6799.28)" xlink:href="#linear-gradient"/><linearGradient id="linear-gradient-40" x1="439.43" y1="18.32" x2="440.09" y2="13.49" gradientTransform="matrix(-1, 0, 0, 1, 484, 0)" xlink:href="#linear-gradient"/><linearGradient id="linear-gradient-41" x1="439.89" y1="17.73" x2="439.89" y2="12.68" gradientTransform="matrix(-1, 0, 0, 1, 484, 0)" xlink:href="#linear-gradient"/><linearGradient id="linear-gradient-42" x1="439.71" y1="24.82" x2="439.71" y2="16.34" gradientTransform="matrix(1, 0, 0, -1, -395.42, 42.16)" xlink:href="#linear-gradient"/><linearGradient id="linear-gradient-43" x1="439.71" y1="38.07" x2="439.71" y2="25.3" gradientTransform="matrix(-1, 0, 0, 1, 484, 0)" xlink:href="#linear-gradient"/><linearGradient id="linear-gradient-44" x1="439.71" y1="36.91" x2="439.71" y2="21.49" gradientTransform="matrix(-1, 0, 0, 1, 484, 0)" xlink:href="#linear-gradient"/><linearGradient id="linear-gradient-45" x1="439.71" y1="36.26" x2="439.71" y2="26.39" gradientTransform="matrix(-1, 0, 0, 1, 484, 0)" xlink:href="#linear-gradient"/><linearGradient id="linear-gradient-46" x1="439.71" y1="39.83" x2="439.71" y2="27.32" gradientTransform="matrix(1, 0, 0, -1, -395.42, 71.49)" xlink:href="#linear-gradient"/><linearGradient id="linear-gradient-47" x1="436.39" y1="37.46" x2="436.39" y2="34.39" gradientTransform="matrix(1, 0, 0, -1, -388.79, 72.31)" xlink:href="#linear-gradient"/><linearGradient id="linear-gradient-48" x1="438.05" y1="37.46" x2="438.05" y2="34.39" gradientTransform="matrix(1, 0, 0, -1, -392.11, 72.31)" xlink:href="#linear-gradient"/><linearGradient id="linear-gradient-49" x1="439.71" y1="37.46" x2="439.71" y2="34.39" gradientTransform="matrix(1, 0, 0, -1, -395.42, 72.31)" xlink:href="#linear-gradient"/><linearGradient id="linear-gradient-50" x1="441.37" y1="37.46" x2="441.37" y2="34.39" gradientTransform="matrix(1, 0, 0, -1, -398.74, 72.31)" xlink:href="#linear-gradient"/><linearGradient id="linear-gradient-51" x1="443.03" y1="37.46" x2="443.03" y2="34.39" gradientTransform="matrix(1, 0, 0, -1, -402.06, 72.31)" xlink:href="#linear-gradient"/><linearGradient id="linear-gradient-52" x1="439.71" y1="42.82" x2="439.71" y2="30.74" gradientTransform="matrix(1, 0, 0, -1, -395.42, 81.16)" xlink:href="#linear-gradient"/><linearGradient id="linear-gradient-53" x1="439.71" y1="44.66" x2="439.71" y2="30.93" gradientTransform="matrix(-1, 0, 0, 1, 484, 0)" xlink:href="#linear-gradient"/><linearGradient id="linear-gradient-54" x1="436.51" y1="44.96" x2="436.51" y2="38.13" gradientTransform="matrix(-1, 0, 0, 1, 484, 0)" xlink:href="#linear-gradient"/><linearGradient id="linear-gradient-55" x1="436.51" y1="45.24" x2="436.51" y2="36.85" gradientTransform="matrix(-1, 0, 0, 1, 484, 0)" xlink:href="#linear-gradient"/><linearGradient id="linear-gradient-56" x1="439.71" y1="44.96" x2="439.71" y2="38.13" gradientTransform="matrix(-1, 0, 0, 1, 484, 0)" xlink:href="#linear-gradient"/><linearGradient id="linear-gradient-57" x1="439.71" y1="45.24" x2="439.71" y2="36.85" gradientTransform="matrix(-1, 0, 0, 1, 484, 0)" xlink:href="#linear-gradient"/><linearGradient id="linear-gradient-58" x1="442.91" y1="44.96" x2="442.91" y2="38.13" gradientTransform="matrix(-1, 0, 0, 1, 484, 0)" xlink:href="#linear-gradient"/><linearGradient id="linear-gradient-59" x1="442.91" y1="45.24" x2="442.91" y2="36.85" gradientTransform="matrix(-1, 0, 0, 1, 484, 0)" xlink:href="#linear-gradient"/><linearGradient id="linear-gradient-60" x1="439.71" y1="42.37" x2="439.71" y2="31.8" gradientTransform="matrix(1, 0, 0, -1, -395.42, 73.84)" xlink:href="#linear-gradient"/><linearGradient id="linear-gradient-61" x1="439.71" y1="37.26" x2="439.71" y2="31.19" gradientTransform="matrix(1, 0, 0, -1, -395.42, 68.55)" xlink:href="#linear-gradient"/><linearGradient id="linear-gradient-62" x1="439.71" y1="17.23" x2="439.71" y2="16.89" gradientTransform="matrix(1, 0, 0, -1, -395.42, 34.16)" xlink:href="#linear-gradient"/><linearGradient id="linear-gradient-63" x1="439.71" y1="18.74" x2="439.71" y2="18.41" gradientTransform="matrix(1, 0, 0, -1, -395.42, 37.19)" xlink:href="#linear-gradient"/><linearGradient id="linear-gradient-64" x1="439.71" y1="20.26" x2="439.71" y2="19.92" gradientTransform="matrix(1, 0, 0, -1, -395.42, 40.22)" xlink:href="#linear-gradient"/><linearGradient id="linear-gradient-65" x1="58.08" y1="44.72" x2="58.08" y2="19.89" xlink:href="#linear-gradient"/><linearGradient id="linear-gradient-66" x1="57.79" y1="47.33" x2="57.79" y2="11.75" xlink:href="#linear-gradient"/><linearGradient id="linear-gradient-67" x1="425.81" y1="24.32" x2="425.81" y2="22.69" gradientTransform="matrix(-1, 0, 0, 1, 484, 0)" xlink:href="#linear-gradient"/><linearGradient id="linear-gradient-68" x1="425.81" y1="24.17" x2="425.81" y2="22.2" gradientTransform="matrix(-1, 0, 0, 1, 484, 0)" xlink:href="#linear-gradient"/><linearGradient id="linear-gradient-69" x1="425.81" y1="24.09" x2="425.81" y2="22.83" gradientTransform="matrix(-1, 0, 0, 1, 484, 0)" xlink:href="#linear-gradient"/><linearGradient id="linear-gradient-70" x1="425.81" y1="25.58" x2="425.81" y2="22.7" gradientTransform="matrix(1, 0, 0, -1, -367.62, 48.69)" xlink:href="#linear-gradient"/><linearGradient id="linear-gradient-71" x1="425.81" y1="24.2" x2="425.81" y2="23.87" gradientTransform="matrix(1, 0, 0, -1, -367.62, 47.6)" xlink:href="#linear-gradient"/><linearGradient id="linear-gradient-72" x1="425.6" y1="24.36" x2="426.02" y2="24.36" gradientTransform="matrix(1, 0, 0, -1, -367.62, 48.72)" xlink:href="#linear-gradient"/><linearGradient id="linear-gradient-73" x1="8308.39" y1="44.72" x2="8308.39" y2="19.89" gradientTransform="translate(-8278.01)" xlink:href="#linear-gradient"/><linearGradient id="linear-gradient-74" x1="8308.79" y1="47.33" x2="8308.79" y2="11.75" gradientTransform="translate(-8278.01)" xlink:href="#linear-gradient"/><linearGradient id="linear-gradient-75" x1="8308.39" y1="24.32" x2="8308.39" y2="22.69" gradientTransform="translate(-8278.01)" xlink:href="#linear-gradient"/><linearGradient id="linear-gradient-76" x1="8308.39" y1="24.17" x2="8308.39" y2="22.2" gradientTransform="translate(-8278.01)" xlink:href="#linear-gradient"/><linearGradient id="linear-gradient-77" x1="8308.39" y1="24.09" x2="8308.39" y2="22.83" gradientTransform="translate(-8278.01)" xlink:href="#linear-gradient"/><linearGradient id="linear-gradient-78" x1="8308.39" y1="25.58" x2="8308.39" y2="22.7" gradientTransform="translate(-8278.01)" xlink:href="#linear-gradient"/><linearGradient id="linear-gradient-79" x1="8308.39" y1="24.2" x2="8308.39" y2="23.87" gradientTransform="translate(-8278.01)" xlink:href="#linear-gradient"/><linearGradient id="linear-gradient-80" x1="453.41" y1="24.36" x2="453.83" y2="24.36" gradientTransform="matrix(-1, 0, 0, 1, 484, 0)" xlink:href="#linear-gradient"/><linearGradient id="linear-gradient-81" x1="32" y1="71.77" x2="32" y2="37.91" xlink:href="#linear-gradient"/><linearGradient id="linear-gradient-82" x1="44.63" y1="49.25" x2="44.63" y2="-1.34" xlink:href="#linear-gradient"/><linearGradient id="linear-gradient-83" x1="50.22" y1="49.25" x2="50.22" y2="-1.34" xlink:href="#linear-gradient"/><linearGradient id="linear-gradient-84" x1="839.51" y1="49.25" x2="839.51" y2="-1.34" gradientTransform="matrix(-1, 0, 0, 1, 860.22, 0)" xlink:href="#linear-gradient"/><linearGradient id="linear-gradient-85" x1="834.75" y1="49.25" x2="834.75" y2="-1.34" gradientTransform="matrix(-1, 0, 0, 1, 860.22, 0)" xlink:href="#linear-gradient"/><linearGradient id="linear-gradient-86" x1="848.38" y1="49.25" x2="848.38" y2="-1.34" gradientTransform="matrix(-1, 0, 0, 1, 860.22, 0)" xlink:href="#linear-gradient"/><linearGradient id="linear-gradient-87" x1="823.1" y1="49.25" x2="823.1" y2="-1.34" gradientTransform="matrix(-1, 0, 0, 1, 860.22, 0)" xlink:href="#linear-gradient"/><linearGradient id="linear-gradient-88" x1="821.44" y1="49.25" x2="821.44" y2="-1.34" gradientTransform="matrix(-1, 0, 0, 1, 860.22, 0)" xlink:href="#linear-gradient"/><linearGradient id="linear-gradient-89" x1="833.85" y1="49.25" x2="833.85" y2="-1.34" gradientTransform="matrix(-1, 0, 0, 1, 860.22, 0)" xlink:href="#linear-gradient"/><linearGradient id="linear-gradient-90" x1="-999.38" y1="195.76" x2="-994.25" y2="198.26" gradientTransform="matrix(-0.95, 0.32, 0.32, 0.95, -968.85, 156.92)" gradientUnits="userSpaceOnUse"><stop offset="0" stop-color="#f9aa8f"/><stop offset="1" stop-color="#f78e6b"/></linearGradient><linearGradient id="linear-gradient-91" x1="16.58" y1="57.79" x2="16.04" y2="49.82" gradientUnits="userSpaceOnUse"><stop offset="0" stop-color="#635fa9"/><stop offset="1" stop-color="#4f4aa9"/></linearGradient><linearGradient id="linear-gradient-92" x1="37.23" y1="18.22" x2="8.93" y2="34.24" gradientUnits="userSpaceOnUse"><stop offset="0" stop-color="#91d4d9"/><stop offset="1" stop-color="#53c6cf"/></linearGradient><linearGradient id="linear-gradient-93" x1="22.49" y1="15.21" x2="16.72" y2="4.24" gradientTransform="matrix(1, 0, 0, 1, 0, 0)" xlink:href="#linear-gradient-90"/><linearGradient id="linear-gradient-94" x1="22.38" y1="45.32" x2="0.67" y2="24.78" xlink:href="#linear-gradient-92"/><linearGradient id="linear-gradient-95" x1="271.99" y1="-5.07" x2="277.12" y2="-2.56" gradientTransform="matrix(-0.9, -0.44, -0.44, 0.9, 260.99, 164.11)" gradientUnits="userSpaceOnUse"><stop offset="0" stop-color="#fff" stop-opacity="0"/><stop offset="1"/></linearGradient><linearGradient id="linear-gradient-96" x1="8.58" y1="27.49" x2="28.2" y2="6.32" xlink:href="#linear-gradient-92"/><linearGradient id="linear-gradient-97" x1="14.44" y1="23.32" x2="21.52" y2="15.68" gradientUnits="userSpaceOnUse"><stop offset="0" stop-color="#acb6dc"/><stop offset="1" stop-color="#91a1dc"/></linearGradient><linearGradient id="linear-gradient-98" x1="6.87" y1="17.58" x2="35" y2="3.02" xlink:href="#linear-gradient-97"/></defs><title>worshipping</title><g class="cls-1"><g id="Layer_1" data-name="Layer 1"><circle class="cls-2" cx="32" cy="32" r="28"/><circle class="cls-2" cx="32" cy="32" r="28"/><path class="cls-3" d="M32.36,44.34l-4.47-4.07a.69.69,0,0,0-.83-.07l-.6.39a.73.73,0,0,1-.93-.12l-8.09-8.81A1,1,0,0,0,16,31.59L8.65,38.1a.65.65,0,0,1-.88,0L5.92,36.38a.76.76,0,0,0-1,0l-.47.44A27.83,27.83,0,0,0,8.7,47.52H33.59V44.8L33,44.06Z"/><path class="cls-4" d="M5.76,41.78,6,41.41l-.62-.73C5.5,41.05,5.62,41.42,5.76,41.78Z"/><path class="cls-5" d="M5.43,36.62a.32.32,0,0,0-.54-.24h0l-.47.44q.14.78.31,1.55a1.41,1.41,0,0,1,.15-.24,2.1,2.1,0,0,0,.55-1.41Z"/><path class="cls-6" d="M17.55,34.51a4.39,4.39,0,0,1-.85-2.6.44.44,0,0,0-.72-.33h0L8.85,37.92,5.47,41A27.89,27.89,0,0,0,8.7,47.52H10l4.66-2.44,3.54-4.89a6.47,6.47,0,0,1,1-1.12h0a1.5,1.5,0,0,0,.23-2Z"/><path class="cls-7" d="M53.26,32.63l.1-.21a.14.14,0,0,1,.25,0l.1.21a4,4,0,0,0,1.92,1.95c.64.31,1,.75,1,1.25,0,.93-1.42,1.69-3.17,1.69s-3.17-.75-3.17-1.69c0-.49.4-.94,1-1.25A4,4,0,0,0,53.26,32.63Z"/><path class="cls-8" d="M53.33,32.63l.07-.21c0-.11.14-.11.17,0l.07.21a3.71,3.71,0,0,0,1.32,1.95,1.54,1.54,0,0,1,.71,1.25,2.25,2.25,0,0,1-4.36,0A1.54,1.54,0,0,1,52,34.58,3.71,3.71,0,0,0,53.33,32.63Z"/><path class="cls-9" d="M53.41,32.63l0-.21c0-.11.06-.11.08,0l0,.21a5.1,5.1,0,0,0,.61,1.95,2.32,2.32,0,0,1,.33,1.25c0,.93-.45,1.69-1,1.69s-1-.75-1-1.69a2.32,2.32,0,0,1,.33-1.25A5.1,5.1,0,0,0,53.41,32.63Z"/><rect class="cls-10" x="51.03" y="36.92" width="4.91" height="1.5" transform="translate(106.96 75.34) rotate(-180)"/><rect class="cls-11" x="49.67" y="38.24" width="7.61" height="6.18" transform="translate(106.96 82.66) rotate(-180)"/><path class="cls-12" d="M53.48,44.42H49.67V38.24h4.58l3,.36-2.22.73a2.31,2.31,0,0,0-1.58,2.19Z"/><rect class="cls-13" x="46.31" y="38.24" width="11.33" height="0.36" rx="0.18" ry="0.18" transform="translate(103.95 76.84) rotate(-180)"/><rect class="cls-14" x="50.74" y="36.83" width="5.48" height="0.36" rx="0.18" ry="0.18" transform="translate(106.96 74.02) rotate(180)"/><path class="cls-15" d="M54,40.4h1.89a0,0,0,0,1,0,0v3.07a.95.95,0,0,1-.95.95h0a.95.95,0,0,1-.95-.95V40.4A0,0,0,0,1,54,40.4Z" transform="translate(109.98 84.81) rotate(-180)"/><path class="cls-16" d="M51,40.4h1.89a0,0,0,0,1,0,0v3.07a.95.95,0,0,1-.95.95h0a.95.95,0,0,1-.95-.95V40.4A0,0,0,0,1,51,40.4Z" transform="translate(103.95 84.81) rotate(-180)"/><circle class="cls-17" cx="55.35" cy="37.73" r="0.13"/><circle class="cls-18" cx="54.73" cy="37.73" r="0.13"/><circle class="cls-19" cx="54.1" cy="37.73" r="0.13"/><circle class="cls-20" cx="53.48" cy="37.73" r="0.13"/><circle class="cls-21" cx="52.86" cy="37.73" r="0.13"/><circle class="cls-22" cx="52.24" cy="37.73" r="0.13"/><circle class="cls-23" cx="51.61" cy="37.73" r="0.13"/><path class="cls-24" d="M35.32,32.63l-.1-.21a.14.14,0,0,0-.25,0l-.1.21A4,4,0,0,1,33,34.58c-.64.31-1,.75-1,1.25,0,.93,1.42,1.69,3.17,1.69s3.17-.75,3.17-1.69c0-.49-.4-.94-1-1.25A4,4,0,0,1,35.32,32.63Z"/><path class="cls-25" d="M35.25,32.63l-.07-.21c0-.11-.14-.11-.17,0l-.07.21a3.71,3.71,0,0,1-1.32,1.95,1.54,1.54,0,0,0-.71,1.25,2,2,0,0,0,2.18,1.69,2,2,0,0,0,2.18-1.69,1.54,1.54,0,0,0-.71-1.25A3.71,3.71,0,0,1,35.25,32.63Z"/><path class="cls-26" d="M35.17,32.63l0-.21c0-.11-.06-.11-.08,0l0,.21a5.1,5.1,0,0,1-.61,1.95,2.32,2.32,0,0,0-.33,1.25c0,.93.45,1.69,1,1.69s1-.75,1-1.69a2.32,2.32,0,0,0-.33-1.25A5.1,5.1,0,0,1,35.17,32.63Z"/><rect class="cls-27" x="32.64" y="36.92" width="4.91" height="1.5"/><rect class="cls-28" x="31.29" y="38.24" width="7.61" height="6.18"/><rect class="cls-29" x="30.94" y="38.24" width="11.33" height="0.36" rx="0.18" ry="0.18"/><rect class="cls-30" x="32.36" y="36.83" width="5.48" height="0.36" rx="0.18" ry="0.18"/><path class="cls-31" d="M33.59,40.4h0a.95.95,0,0,1,.95.95v3.07a0,0,0,0,1,0,0H32.64a0,0,0,0,1,0,0V41.34A.95.95,0,0,1,33.59,40.4Z"/><path class="cls-32" d="M36.6,40.4h0a.95.95,0,0,1,.95.95v3.07a0,0,0,0,1,0,0H35.66a0,0,0,0,1,0,0V41.34A.95.95,0,0,1,36.6,40.4Z"/><circle class="cls-33" cx="33.23" cy="37.73" r="0.13"/><circle class="cls-34" cx="33.85" cy="37.73" r="0.13"/><circle class="cls-35" cx="34.47" cy="37.73" r="0.13"/><circle class="cls-36" cx="35.1" cy="37.73" r="0.13"/><circle class="cls-37" cx="35.72" cy="37.73" r="0.13"/><circle class="cls-38" cx="36.34" cy="37.73" r="0.13"/><circle class="cls-39" cx="36.96" cy="37.73" r="0.13"/><path class="cls-40" d="M43.89,16.19a.69.69,0,0,0,.35-1.25.07.07,0,0,1,0-.13h0A1.08,1.08,0,1,1,43.15,16h0a.07.07,0,0,1,.13,0A.69.69,0,0,0,43.89,16.19Z"/><path class="cls-41" d="M43.15,16h0a.07.07,0,0,1,.13,0,.69.69,0,1,0,1-1,.07.07,0,0,1,0-.13h0a1.07,1.07,0,0,1,.57.2,1.08,1.08,0,0,1-1.51,1.51A1.07,1.07,0,0,1,43.15,16Z"/><rect class="cls-42" x="44.14" y="17.16" width="0.3" height="7.85" transform="translate(88.58 42.16) rotate(-180)"/><path class="cls-43" d="M43.81,24.56l.21-.45a.29.29,0,0,1,.53,0l.21.45a8.68,8.68,0,0,0,4.12,4.18c1.37.66,2.23,1.62,2.23,2.68,0,2-3.05,3.62-6.82,3.62s-6.82-1.62-6.82-3.62c0-1.06.86-2,2.23-2.68A8.68,8.68,0,0,0,43.81,24.56Z"/><path class="cls-44" d="M44,24.56l.14-.45c.07-.23.29-.23.37,0l.14.45a8,8,0,0,0,2.83,4.18A3.31,3.31,0,0,1,49,31.42c0,2-2.1,3.62-4.69,3.62s-4.69-1.62-4.69-3.62a3.31,3.31,0,0,1,1.53-2.68A8,8,0,0,0,44,24.56Z"/><path class="cls-45" d="M44.14,24.56l.07-.45c0-.23.14-.23.17,0l.07.45a11,11,0,0,0,1.3,4.18,5,5,0,0,1,.7,2.68c0,2-1,3.62-2.15,3.62s-2.15-1.62-2.15-3.62a5,5,0,0,1,.7-2.68A11,11,0,0,0,44.14,24.56Z"/><rect class="cls-46" x="39.48" y="34.66" width="9.62" height="2.17" transform="translate(88.58 71.49) rotate(-180)"/><path class="cls-47" d="M47.14,35.44h.94a0,0,0,0,1,0,0v.9a.49.49,0,0,1-.49.49h0a.49.49,0,0,1-.49-.49v-.9a0,0,0,0,1,0,0Z" transform="translate(95.21 72.31) rotate(-180)"/><path class="cls-48" d="M45.48,35.44h.94a0,0,0,0,1,0,0v.9a.49.49,0,0,1-.49.49h0a.49.49,0,0,1-.49-.49v-.9A0,0,0,0,1,45.48,35.44Z" transform="translate(91.89 72.31) rotate(-180)"/><path class="cls-49" d="M43.82,35.44h.94a0,0,0,0,1,0,0v.9a.49.49,0,0,1-.49.49h0a.49.49,0,0,1-.49-.49v-.9a0,0,0,0,1,0,0Z" transform="translate(88.58 72.31) rotate(-180)"/><path class="cls-50" d="M42.16,35.44h.94a0,0,0,0,1,0,0v.9a.49.49,0,0,1-.49.49h0a.49.49,0,0,1-.49-.49v-.9a0,0,0,0,1,0,0Z" transform="translate(85.26 72.31) rotate(-180)"/><path class="cls-51" d="M40.5,35.44h.94a0,0,0,0,1,0,0v.9a.49.49,0,0,1-.49.49h0a.49.49,0,0,1-.49-.49v-.9A0,0,0,0,1,40.5,35.44Z" transform="translate(81.94 72.31) rotate(-180)"/><rect class="cls-52" x="38.9" y="36.74" width="10.77" height="7.68" transform="translate(88.58 81.16) rotate(-180)"/><path class="cls-53" d="M49.67,37.1h0a6.27,6.27,0,0,0-5.39,6.21v1.11H38.9V36.74H49.67Z"/><path class="cls-54" d="M46.62,39.84a1,1,0,0,1,.5-.83.72.72,0,0,0,.32-.33h0a.07.07,0,0,1,.13,0h0a.72.72,0,0,0,.31.32,1,1,0,0,1,.49.83h0v4.58H46.62V39.84Z"/><path class="cls-55" d="M46.9,39.86a.67.67,0,0,1,.34-.57.49.49,0,0,0,.22-.22h0a0,0,0,0,1,.09,0h0a.49.49,0,0,0,.21.22.67.67,0,0,1,.33.56h0v4.55H46.9V39.86Z"/><path class="cls-56" d="M43.42,39.84a1,1,0,0,1,.5-.83.72.72,0,0,0,.32-.33h0a.07.07,0,0,1,.13,0h0a.72.72,0,0,0,.31.32,1,1,0,0,1,.49.83h0v4.58H43.42V39.84Z"/><path class="cls-57" d="M43.69,39.86A.67.67,0,0,1,44,39.3a.49.49,0,0,0,.22-.22h0a0,0,0,0,1,.09,0h0a.49.49,0,0,0,.21.22.67.67,0,0,1,.33.56h0v4.55H43.69V39.86Z"/><path class="cls-58" d="M40.22,39.84a1,1,0,0,1,.5-.83.72.72,0,0,0,.32-.33h0a.07.07,0,0,1,.13,0h0a.72.72,0,0,0,.31.32,1,1,0,0,1,.49.83h0v4.58H40.21V39.84Z"/><path class="cls-59" d="M40.49,39.86a.67.67,0,0,1,.34-.57.49.49,0,0,0,.22-.22h0a0,0,0,0,1,.09,0h0a.49.49,0,0,0,.21.22.67.67,0,0,1,.33.56h0v4.55H40.49V39.86Z"/><rect class="cls-60" x="38.62" y="36.74" width="11.33" height="0.36" rx="0.18" ry="0.18" transform="translate(88.58 73.84) rotate(-180)"/><rect class="cls-61" x="39.1" y="33.89" width="10.38" height="0.77" rx="0.23" ry="0.23" transform="translate(88.58 68.55) rotate(-180)"/><rect class="cls-62" x="44.02" y="16.92" width="0.54" height="0.31" rx="0.14" ry="0.14" transform="translate(88.58 34.16) rotate(-180)"/><rect class="cls-63" x="44.02" y="18.44" width="0.54" height="0.31" rx="0.14" ry="0.14" transform="translate(88.58 37.19) rotate(-180)"/><rect class="cls-64" x="44.02" y="19.95" width="0.54" height="0.31" rx="0.14" ry="0.14" transform="translate(88.58 40.22) rotate(-180)"/><path class="cls-65" d="M58.62,24.77h-.85L57,44.42h.13a27.79,27.79,0,0,0,2.09-5.71Z"/><path class="cls-66" d="M58.19,26.23a2.71,2.71,0,0,1,.43-1.46h-.85L57,44.42h.13q.61-1.23,1.1-2.52Z"/><path class="cls-67" d="M58.13,22.6l0-.06a0,0,0,0,1,.07,0l0,.06a1.11,1.11,0,0,0,.53.53c.17.08.28.21.28.34s-.39.46-.87.46-.87-.21-.87-.46.11-.26.28-.34A1.11,1.11,0,0,0,58.13,22.6Z"/><path class="cls-68" d="M58.15,22.6l0-.06s0,0,0,0l0,.06a1,1,0,0,0,.36.53.42.42,0,0,1,.2.34.62.62,0,0,1-1.2,0,.42.42,0,0,1,.2-.34A1,1,0,0,0,58.15,22.6Z"/><path class="cls-69" d="M58.17,22.6v-.06s0,0,0,0v.06a1.4,1.4,0,0,0,.17.53.64.64,0,0,1,.09.34c0,.26-.12.46-.28.46s-.28-.21-.28-.46a.64.64,0,0,1,.09-.34A1.4,1.4,0,0,0,58.17,22.6Z"/><path class="cls-70" d="M57.65,23.77h1.08a.13.13,0,0,1,.13.13v1a0,0,0,0,1,0,0H57.52a0,0,0,0,1,0,0v-1A.13.13,0,0,1,57.65,23.77Z" transform="translate(116.38 48.69) rotate(-180)"/><rect class="cls-71" x="57.44" y="23.75" width="1.51" height="0.1" rx="0.05" ry="0.05" transform="translate(116.38 47.6) rotate(180)"/><path class="cls-72" d="M58.1,24.06h.19a.12.12,0,0,1,.12.12v.28a.21.21,0,0,1-.21.21h0a.21.21,0,0,1-.21-.21v-.28A.12.12,0,0,1,58.1,24.06Z" transform="translate(116.38 48.72) rotate(-180)"/><polygon class="cls-73" points="31.61 44.42 29.16 44.42 29.96 24.77 30.81 24.77 31.61 44.42"/><path class="cls-74" d="M30.38,44.42h1.23l-.8-19.65H30a2.71,2.71,0,0,1,.43,1.46Z"/><path class="cls-75" d="M30.44,22.6l0-.06a0,0,0,0,0-.07,0l0,.06a1.11,1.11,0,0,1-.53.53c-.17.08-.28.21-.28.34s.39.46.87.46.87-.21.87-.46-.11-.26-.28-.34A1.11,1.11,0,0,1,30.44,22.6Z"/><path class="cls-76" d="M30.43,22.6l0-.06s0,0,0,0l0,.06a1,1,0,0,1-.36.53.42.42,0,0,0-.2.34.62.62,0,0,0,1.2,0,.42.42,0,0,0-.2-.34A1,1,0,0,1,30.43,22.6Z"/><path class="cls-77" d="M30.4,22.6v-.06s0,0,0,0v.06a1.4,1.4,0,0,1-.17.53.64.64,0,0,0-.09.34c0,.26.12.46.28.46s.28-.21.28-.46a.64.64,0,0,0-.09-.34A1.4,1.4,0,0,1,30.4,22.6Z"/><path class="cls-78" d="M29.71,23.77h1.35a0,0,0,0,1,0,0v1a.13.13,0,0,1-.13.13H29.84a.13.13,0,0,1-.13-.13v-1A0,0,0,0,1,29.71,23.77Z"/><rect class="cls-79" x="29.63" y="23.75" width="1.51" height="0.1" rx="0.05" ry="0.05"/><path class="cls-80" d="M30.38,24.06h0a.21.21,0,0,1,.21.21v.28a.12.12,0,0,1-.12.12h-.19a.12.12,0,0,1-.12-.12v-.28a.21.21,0,0,1,.21-.21Z"/><path class="cls-81" d="M6.9,44.42a28,28,0,0,0,50.19,0Z"/><path class="cls-82" d="M48.89,9.67C47.3,11.5,43.23,14,38.45,15.58c0,0,5.32-1.5,12.36-4.33C50.2,10.7,49.56,10.18,48.89,9.67Z"/><path class="cls-83" d="M54,14.73a7.06,7.06,0,0,0-2.71,1.08c-.8.81-3.26,1.8-6,2.19a72.94,72.94,0,0,0,9.87-1.75C54.79,15.73,54.42,15.22,54,14.73Z"/><path class="cls-84" d="M32.47,19s-4.61.86-7.29.29-4.09.61-5.9-.19a3.2,3.2,0,0,0-3.88,1c-.51.76-1.87,0-2.9.68s-3.57.62-3.57.62S16.71,23.84,32.47,19Z"/><path class="cls-85" d="M32,13.36a11.24,11.24,0,0,1-4.07.22c-1.54-.38-2.26.42-3.32-.12a1.53,1.53,0,0,0-2.12.69c-.24.52-1.05,0-1.59.47a3.86,3.86,0,0,1-2,.43S23.44,16.71,32,13.36Z"/><path class="cls-86" d="M8.06,16.09s5.17.85,7.57-.2a6.06,6.06,0,0,1-2.08-.7,2.2,2.2,0,0,0-2.44-.05c-.53.52-.79-.4-1.39.1A6.46,6.46,0,0,1,8.06,16.09Z"/><path class="cls-87" d="M39.3,9.18s-3,1-4.37.73a4.47,4.47,0,0,0,1.18-.57A1.51,1.51,0,0,1,37.51,9c.32.2.44-.28.8-.1A3.58,3.58,0,0,0,39.3,9.18Z"/><path class="cls-88" d="M41,18s-3,1-4.37.73a4.47,4.47,0,0,0,1.18-.57,1.51,1.51,0,0,1,1.4-.29c.32.2.44-.28.8-.1A3.58,3.58,0,0,0,41,18Z"/><path class="cls-89" d="M24.79,9.8a9.36,9.36,0,0,0,3.15-.75A3.27,3.27,0,0,1,27,9a1.1,1.1,0,0,0-1,.2c-.16.22-.38-.07-.57.16A2.62,2.62,0,0,1,24.79,9.8Z"/><path class="cls-90" d="M37,21.65a7.85,7.85,0,0,0,3.31-.88,6.91,6.91,0,0,0,1.76-1.23l.53-.5a.34.34,0,0,1,.58.22,2.09,2.09,0,0,1-.16,1,.68.68,0,0,0,.33.86L45,21.9A.66.66,0,0,1,45.15,23a4,4,0,0,1-3.88.77,1.5,1.5,0,0,0-1.45.33,3.87,3.87,0,0,1-4.51.75Z"/><path class="cls-91" d="M35.31,24.84,37,21.65a6.11,6.11,0,0,0,1.53-.22h0s-.15,2.44,1.83,2.34h0a1.52,1.52,0,0,0-.59.33A3.87,3.87,0,0,1,35.31,24.84Z"/><path class="cls-92" d="M18.58,56.58c.45-1.06.88-2.1,1.27-3.12l-7.2-1.24A28.08,28.08,0,0,0,18.58,56.58Z"/><path class="cls-93" d="M18.48,51.47A31.63,31.63,0,0,1,20,57.32a27.79,27.79,0,0,0,7.44,2.31,130.48,130.48,0,0,0,.24-18Z"/><path class="cls-94" d="M38.56,21.35c-2,.43-5.89.34-11.75-4.17h0a12.4,12.4,0,0,0-4.88-2.45l1,2.41.73,9.62h0l.35-.46c1.3-.51,6,1.83,11.52,3.12A3,3,0,0,0,39.14,27l.64-4.49A1,1,0,0,0,38.56,21.35Z"/><path class="cls-95" d="M39.14,27l.64-4.49a1,1,0,0,0,0-.26,5.78,5.78,0,0,1-4.32,5.23c-4.17,1-7.4-4.7-8-8.1a5.5,5.5,0,0,0-1.6-2.91,12.7,12.7,0,0,0-2.72-1.35l-.15,2.13.73,9.56.35-.46c1.3-.51,6,1.83,11.52,3.12A3,3,0,0,0,39.14,27Z"/><path id="_Path_" data-name="&lt;Path&gt;" class="cls-96" d="M23.25,14.22a24.84,24.84,0,0,0-.1-6.53,4.53,4.53,0,0,0-2.42-3.45L19.36,14.82l3.74.34Z"/><path class="cls-90" d="M23.12,9.94a6.44,6.44,0,0,0-.8-1.84,6.45,6.45,0,0,1-.41-.78,14.71,14.71,0,0,0-1.57-2.7l-.75,1.17h0l-2,.46L14.4,9.08,14,11l2.79,4.38,4.88-.59h0a1,1,0,0,1-.36-1.64,4.33,4.33,0,0,0,.73-.79,3.23,3.23,0,0,0,.57-1.44.71.71,0,0,1,.31-.51A.39.39,0,0,0,23.12,9.94Z"/><path class="cls-97" d="M22.9,10.37a.45.45,0,0,0,.22-.27c-.18.05-.48.12-.47,0s-.51-1-.38-1,.37-.33.38-.33c-.1-.2-.21-.4-.33-.59s-.21-.37-.31-.56l-.9-.09L17.54,8.93,17.73,13A9.18,9.18,0,0,0,20,14a2.22,2.22,0,0,0,1.13-.71,1,1,0,0,1,.14-.15s-1.05.64-1.81-1.11,1.07-2.88,2.06-2.85,1.06,1.72,1.06,1.72A.71.71,0,0,1,22.9,10.37Z"/><path class="cls-98" d="M23.13,7.8s0,.78-2,1-3.32,1.94-2.53,3.58a3.37,3.37,0,0,0,2.62,1.79l-2.62,1.17-2-1.66S15,10.13,15.06,10.1s4.2-4.71,4.2-4.71l2.69-.15"/><path class="cls-94" d="M26.2,33.5l-.23-1v0a13.63,13.63,0,0,1,.42-3.72c.37-1.32.46-5.49-1.12-6.51h0a3.44,3.44,0,0,1-1.52-2.38c-.41-2.81-.66-4.73-.66-4.73S13,19.86,10.32,45Q10,48.41,9.8,52.29a3.08,3.08,0,0,0,2.3,3.11c4.06,1,12.2,1.63,15.31-9.07C28.2,43.61,27.87,40.82,26.2,33.5Z"/><path class="cls-99" d="M18.2,52.28c-5.34-1.41-3.87-7.06-.8-9.81,2.09-1.87,8.47-9.81,8.58-10v0a13.63,13.63,0,0,1,.42-3.72A2.7,2.7,0,0,1,24,30c-1.64-.13-2.56-4.45-2.56-4.45l-5-2.75c-2.48,4.51-5,11.52-6.1,22.23Q10,48.41,9.8,52.29a3.08,3.08,0,0,0,2.3,3.11c3.53.91,10.12,1.47,13.83-5.4C25.93,50,23.54,53.68,18.2,52.28Z"/><path class="cls-98" d="M17.83,33.68h7a1,1,0,0,1,1,1V45.77a1,1,0,0,1-1,1h-7a1.91,1.91,0,0,1-1.91-1.91V35.59a1.91,1.91,0,0,1,1.91-1.91Z" transform="translate(-6.1 76.67) rotate(-115.98)"/><path class="cls-100" d="M25,41.18a1,1,0,0,0,1.36.47l.18-.09A1,1,0,0,0,27,40.21l-3.35-6.88h0l-2,1Z"/><path class="cls-90" d="M16.76,36.74a7.85,7.85,0,0,0,3,1.73,6.91,6.91,0,0,0,2.12.38l.73,0a.34.34,0,0,1,.26.56A2.09,2.09,0,0,1,22,40a.68.68,0,0,0-.38.84l.58,1.73a.66.66,0,0,1-.68.86,4,4,0,0,1-3.29-2.21A1.5,1.5,0,0,0,17,40.44a3.87,3.87,0,0,1-3.71-2.67Z"/><path class="cls-101" d="M13.29,37.77l3.48-1a6.11,6.11,0,0,0,1.24.93h0s-1.84,1.62-.36,2.95h0a1.52,1.52,0,0,0-.65-.18A3.87,3.87,0,0,1,13.29,37.77Z"/><path class="cls-94" d="M17.81,37.37a13.65,13.65,0,0,1-2.57-3,6.24,6.24,0,0,1-.8-2.11l0-.12C14,30,14.1,25.84,19,21.68l3.44-4a1.66,1.66,0,0,0-1-2.72c-3.65-.59-10.06-.13-13.27,9-3.14,9-.1,14.45,1.58,16.59a1.23,1.23,0,0,0,.31.38h0a6.79,6.79,0,0,0,.64.66v0a5.07,5.07,0,0,1,1.14,2.65,1.12,1.12,0,0,0,1.63.83C16.29,43.65,21.24,40.44,17.81,37.37Z"/><path class="cls-102" d="M16.11,20.74a6.73,6.73,0,0,0,5.53-3.23l-8.52-.75A14.5,14.5,0,0,0,8.21,24a25.49,25.49,0,0,0-1,3.77c.85-2.61,2.8-4.26,3.86-3.09a6.92,6.92,0,0,0,4.1,1.84h0A12.45,12.45,0,0,1,17,23.64C15.56,22.62,13.36,20.83,16.11,20.74Z"/><path class="cls-103" d="M17.3,20.81a1.41,1.41,0,0,1-1.07-.75h0a5.16,5.16,0,0,1-.39-1,11.83,11.83,0,0,1-.1-3.39L13.19,17c-.35-.56,0-.76,0-.76a13,13,0,0,0-1.38,1.22,2.15,2.15,0,0,0-.67,2A10.13,10.13,0,0,0,12.59,22a5.87,5.87,0,0,0,4.32,2.25c1.31.15,1.79,3.75,1.88,6.3a1.67,1.67,0,0,0,1.61,1.61h0a1.67,1.67,0,0,0,1.72-1.7C22,27.36,21.38,21.27,17.3,20.81Z"/><path class="cls-104" d="M21.22,24.68c-.68-2-1.87-3.64-3.92-3.87a1.41,1.41,0,0,1-1.07-.75h0a5.16,5.16,0,0,1-.39-1,10.12,10.12,0,0,1-.16-2.52l0,0-1.24-.12L13.19,17a.69.69,0,0,1-.13-.57l-.13,0a10.13,10.13,0,0,0-1.12,1,2.15,2.15,0,0,0-.67,2A10.13,10.13,0,0,0,12.59,22a5.16,5.16,0,0,0,2.15,1.7l1.84.51h0S19.52,21,21.22,24.68Z"/><path class="cls-103" d="M21.19,14.19a3.84,3.84,0,0,1-4.8-4A4.68,4.68,0,0,1,17,8.29s1.33-2.22,3.53-2.18a3,3,0,0,1,2.62,1.7,3.61,3.61,0,0,0-2.69-3.66,3.87,3.87,0,0,0-.51-.1h-.06c-2.59-.3-8.07,1.13-6.74,9a5.41,5.41,0,0,1-1.32,4.44S21.66,21.38,23.16,15C23.56,13.27,22.62,13.82,21.19,14.19Z"/><path class="cls-105" d="M19.64,16.4c-1.87-.24-4.36-1.5-4.23-2.88s3.16.46,3.16.46v0a3.79,3.79,0,0,1-2.19-3.71A4.68,4.68,0,0,1,17,8.29l.12-.18c-.93,1.19-2.21,2.74-3.1,1.6a2.48,2.48,0,0,1-.13-2.85A9,9,0,0,0,13.13,13a5.41,5.41,0,0,1-1.32,4.44A18.11,18.11,0,0,0,18,18.65C20.22,18.33,21.21,16.61,19.64,16.4Z"/></g></g></svg>